<?xml version="1.0" encoding="UTF-8" standalone="no"?>
<!-- Created with Inkscape (http://www.inkscape.org/) -->

<svg
   xmlns:dc="http://purl.org/dc/elements/1.1/"
   xmlns:cc="http://creativecommons.org/ns#"
   xmlns:rdf="http://www.w3.org/1999/02/22-rdf-syntax-ns#"
   xmlns:svg="http://www.w3.org/2000/svg"
   xmlns="http://www.w3.org/2000/svg"
   xmlns:sodipodi="http://sodipodi.sourceforge.net/DTD/sodipodi-0.dtd"
   xmlns:inkscape="http://www.inkscape.org/namespaces/inkscape"
   width="337.67715"
   height="135.35432"
   id="svg2"
   version="1.1"
   inkscape:version="0.48.1 "
   sodipodi:docname="3_level_perturbation_for_sensitivity.svg">
  <defs
     id="defs4">
    <marker
       inkscape:stockid="Arrow1Mend"
       orient="auto"
       refY="0"
       refX="0"
       id="Arrow1Mend"
       style="overflow:visible">
      <path
         id="path4066"
         d="M 0,0 5,-5 -12.5,0 5,5 0,0 z"
         style="fill-rule:evenodd;stroke:#000000;stroke-width:1pt;marker-start:none"
         transform="matrix(-0.4,0,0,-0.4,-4,0)"
         inkscape:connector-curvature="0" />
    </marker>
    <marker
       inkscape:stockid="Arrow1Mstart"
       orient="auto"
       refY="0"
       refX="0"
       id="Arrow1Mstart"
       style="overflow:visible">
      <path
         id="path4063"
         d="M 0,0 5,-5 -12.5,0 5,5 0,0 z"
         style="fill-rule:evenodd;stroke:#000000;stroke-width:1pt;marker-start:none"
         transform="matrix(0.4,0,0,0.4,4,0)"
         inkscape:connector-curvature="0" />
    </marker>
    <marker
       inkscape:stockid="Arrow1Mstart"
       orient="auto"
       refY="0"
       refX="0"
       id="Arrow1Mstart-1"
       style="overflow:visible">
      <path
         id="path4063-7"
         d="M 0,0 5,-5 -12.5,0 5,5 0,0 z"
         style="fill-rule:evenodd;stroke:#000000;stroke-width:1pt;marker-start:none"
         transform="matrix(0.4,0,0,0.4,4,0)"
         inkscape:connector-curvature="0" />
    </marker>
    <marker
       inkscape:stockid="Arrow1Mend"
       orient="auto"
       refY="0"
       refX="0"
       id="Arrow1Mend-4"
       style="overflow:visible">
      <path
         id="path4066-0"
         d="M 0,0 5,-5 -12.5,0 5,5 0,0 z"
         style="fill-rule:evenodd;stroke:#000000;stroke-width:1pt;marker-start:none"
         transform="matrix(-0.4,0,0,-0.4,-4,0)"
         inkscape:connector-curvature="0" />
    </marker>
    <marker
       inkscape:stockid="Arrow1Mstart"
       orient="auto"
       refY="0"
       refX="0"
       id="marker4391"
       style="overflow:visible">
      <path
         id="path4393"
         d="M 0,0 5,-5 -12.5,0 5,5 0,0 z"
         style="fill-rule:evenodd;stroke:#000000;stroke-width:1pt;marker-start:none"
         transform="matrix(0.4,0,0,0.4,4,0)"
         inkscape:connector-curvature="0" />
    </marker>
    <marker
       inkscape:stockid="Arrow1Mend"
       orient="auto"
       refY="0"
       refX="0"
       id="marker4395"
       style="overflow:visible">
      <path
         id="path4397"
         d="M 0,0 5,-5 -12.5,0 5,5 0,0 z"
         style="fill-rule:evenodd;stroke:#000000;stroke-width:1pt;marker-start:none"
         transform="matrix(-0.4,0,0,-0.4,-4,0)"
         inkscape:connector-curvature="0" />
    </marker>
    <marker
       inkscape:stockid="Arrow1Mstart"
       orient="auto"
       refY="0"
       refX="0"
       id="marker4399"
       style="overflow:visible">
      <path
         id="path4401"
         d="M 0,0 5,-5 -12.5,0 5,5 0,0 z"
         style="fill-rule:evenodd;stroke:#000000;stroke-width:1pt;marker-start:none"
         transform="matrix(0.4,0,0,0.4,4,0)"
         inkscape:connector-curvature="0" />
    </marker>
    <marker
       inkscape:stockid="Arrow1Mend"
       orient="auto"
       refY="0"
       refX="0"
       id="marker4403"
       style="overflow:visible">
      <path
         id="path4405"
         d="M 0,0 5,-5 -12.5,0 5,5 0,0 z"
         style="fill-rule:evenodd;stroke:#000000;stroke-width:1pt;marker-start:none"
         transform="matrix(-0.4,0,0,-0.4,-4,0)"
         inkscape:connector-curvature="0" />
    </marker>
    <marker
       inkscape:stockid="Arrow1Mstart"
       orient="auto"
       refY="0"
       refX="0"
       id="marker4407"
       style="overflow:visible">
      <path
         id="path4409"
         d="M 0,0 5,-5 -12.5,0 5,5 0,0 z"
         style="fill-rule:evenodd;stroke:#000000;stroke-width:1pt;marker-start:none"
         transform="matrix(0.4,0,0,0.4,4,0)"
         inkscape:connector-curvature="0" />
    </marker>
    <marker
       inkscape:stockid="Arrow1Mend"
       orient="auto"
       refY="0"
       refX="0"
       id="marker4411"
       style="overflow:visible">
      <path
         id="path4413"
         d="M 0,0 5,-5 -12.5,0 5,5 0,0 z"
         style="fill-rule:evenodd;stroke:#000000;stroke-width:1pt;marker-start:none"
         transform="matrix(-0.4,0,0,-0.4,-4,0)"
         inkscape:connector-curvature="0" />
    </marker>
    <marker
       inkscape:stockid="Arrow1Mstart"
       orient="auto"
       refY="0"
       refX="0"
       id="Arrow1Mstart-9"
       style="overflow:visible">
      <path
         id="path4063-2"
         d="M 0,0 5,-5 -12.5,0 5,5 0,0 z"
         style="fill-rule:evenodd;stroke:#000000;stroke-width:1pt;marker-start:none"
         transform="matrix(0.4,0,0,0.4,4,0)"
         inkscape:connector-curvature="0" />
    </marker>
    <marker
       inkscape:stockid="Arrow1Mend"
       orient="auto"
       refY="0"
       refX="0"
       id="Arrow1Mend-7"
       style="overflow:visible">
      <path
         id="path4066-9"
         d="M 0,0 5,-5 -12.5,0 5,5 0,0 z"
         style="fill-rule:evenodd;stroke:#000000;stroke-width:1pt;marker-start:none"
         transform="matrix(-0.4,0,0,-0.4,-4,0)"
         inkscape:connector-curvature="0" />
    </marker>
    <marker
       inkscape:stockid="Arrow1Mstart"
       orient="auto"
       refY="0"
       refX="0"
       id="marker4586"
       style="overflow:visible">
      <path
         id="path4588"
         d="M 0,0 5,-5 -12.5,0 5,5 0,0 z"
         style="fill-rule:evenodd;stroke:#000000;stroke-width:1pt;marker-start:none"
         transform="matrix(0.4,0,0,0.4,4,0)"
         inkscape:connector-curvature="0" />
    </marker>
    <marker
       inkscape:stockid="Arrow1Mend"
       orient="auto"
       refY="0"
       refX="0"
       id="marker4590"
       style="overflow:visible">
      <path
         id="path4592"
         d="M 0,0 5,-5 -12.5,0 5,5 0,0 z"
         style="fill-rule:evenodd;stroke:#000000;stroke-width:1pt;marker-start:none"
         transform="matrix(-0.4,0,0,-0.4,-4,0)"
         inkscape:connector-curvature="0" />
    </marker>
    <marker
       inkscape:stockid="Arrow1Mstart"
       orient="auto"
       refY="0"
       refX="0"
       id="marker4594"
       style="overflow:visible">
      <path
         id="path4596"
         d="M 0,0 5,-5 -12.5,0 5,5 0,0 z"
         style="fill-rule:evenodd;stroke:#000000;stroke-width:1pt;marker-start:none"
         transform="matrix(0.4,0,0,0.4,4,0)"
         inkscape:connector-curvature="0" />
    </marker>
    <marker
       inkscape:stockid="Arrow1Mend"
       orient="auto"
       refY="0"
       refX="0"
       id="marker4598"
       style="overflow:visible">
      <path
         id="path4600"
         d="M 0,0 5,-5 -12.5,0 5,5 0,0 z"
         style="fill-rule:evenodd;stroke:#000000;stroke-width:1pt;marker-start:none"
         transform="matrix(-0.4,0,0,-0.4,-4,0)"
         inkscape:connector-curvature="0" />
    </marker>
    <marker
       inkscape:stockid="Arrow1Mstart"
       orient="auto"
       refY="0"
       refX="0"
       id="marker4602"
       style="overflow:visible">
      <path
         id="path4604"
         d="M 0,0 5,-5 -12.5,0 5,5 0,0 z"
         style="fill-rule:evenodd;stroke:#000000;stroke-width:1pt;marker-start:none"
         transform="matrix(0.4,0,0,0.4,4,0)"
         inkscape:connector-curvature="0" />
    </marker>
    <marker
       inkscape:stockid="Arrow1Mend"
       orient="auto"
       refY="0"
       refX="0"
       id="marker4606"
       style="overflow:visible">
      <path
         id="path4608"
         d="M 0,0 5,-5 -12.5,0 5,5 0,0 z"
         style="fill-rule:evenodd;stroke:#000000;stroke-width:1pt;marker-start:none"
         transform="matrix(-0.4,0,0,-0.4,-4,0)"
         inkscape:connector-curvature="0" />
    </marker>
  </defs>
  <sodipodi:namedview
     id="base"
     pagecolor="#ffffff"
     bordercolor="#666666"
     borderopacity="1.0"
     inkscape:pageopacity="0.0"
     inkscape:pageshadow="2"
     inkscape:zoom="1.6820445"
     inkscape:cx="105.27458"
     inkscape:cy="67.420189"
     inkscape:document-units="px"
     inkscape:current-layer="layer1"
     showgrid="false"
     inkscape:window-width="1366"
     inkscape:window-height="718"
     inkscape:window-x="-8"
     inkscape:window-y="-8"
     inkscape:window-maximized="1"
     units="cm"
     fit-margin-top="0.5"
     fit-margin-bottom="0.5"
     fit-margin-left="0.5"
     fit-margin-right="0" />
  <metadata
     id="metadata7">
    <rdf:RDF>
      <cc:Work
         rdf:about="">
        <dc:format>image/svg+xml</dc:format>
        <dc:type
           rdf:resource="http://purl.org/dc/dcmitype/StillImage" />
        <dc:title></dc:title>
      </cc:Work>
    </rdf:RDF>
  </metadata>
  <g
     inkscape:label="Layer 1"
     inkscape:groupmode="layer"
     id="layer1"
     transform="translate(-299.74181,-930.72309)">
    <text
       xml:space="preserve"
       style="font-size:14px;font-style:normal;font-variant:normal;font-weight:normal;font-stretch:normal;text-align:start;line-height:129.99999523%;letter-spacing:0px;word-spacing:0px;writing-mode:lr-tb;text-anchor:start;fill:#000000;fill-opacity:1;stroke:none;font-family:Arial;-inkscape-font-specification:Arial"
       x="213.43073"
       y="142.08897"
       id="text3839"
       sodipodi:linespacing="130%"
       transform="translate(0,875.19552)"><tspan
         sodipodi:role="line"
         id="tspan3841"
         x="213.43073"
         y="142.08897" /></text>
    <g
       id="g3979"
       transform="translate(202.83237,30.055187)">
      <path
         inkscape:connector-curvature="0"
         id="path2985"
         d="m 106.81945,955.77819 317.85714,0"
         style="fill:none;stroke:#000000;stroke-width:1;stroke-linecap:butt;stroke-linejoin:miter;stroke-miterlimit:4;stroke-opacity:1;stroke-dasharray:none" />
      <path
         transform="matrix(0.23076925,0,0,0.23076925,207.55418,944.11656)"
         d="m 250.88516,50.533741 c 0,8.536875 -6.9205,15.457379 -15.45738,15.457379 -8.53687,0 -15.45738,-6.920504 -15.45738,-15.457379 0,-8.536875 6.92051,-15.457379 15.45738,-15.457379 8.53688,0 15.45738,6.920504 15.45738,15.457379 z"
         sodipodi:ry="15.457379"
         sodipodi:rx="15.457379"
         sodipodi:cy="50.533741"
         sodipodi:cx="235.42778"
         id="path3755"
         style="fill:#000000;fill-opacity:1;fill-rule:nonzero;stroke:none"
         sodipodi:type="arc" />
      <path
         transform="matrix(0.23076925,0,0,0.23076925,147.35957,944.11656)"
         d="m 250.88516,50.533741 c 0,8.536875 -6.9205,15.457379 -15.45738,15.457379 -8.53687,0 -15.45738,-6.920504 -15.45738,-15.457379 0,-8.536875 6.92051,-15.457379 15.45738,-15.457379 8.53688,0 15.45738,6.920504 15.45738,15.457379 z"
         sodipodi:ry="15.457379"
         sodipodi:rx="15.457379"
         sodipodi:cy="50.533741"
         sodipodi:cx="235.42778"
         id="path3755-5"
         style="fill:#000000;fill-opacity:1;fill-rule:nonzero;stroke:none"
         sodipodi:type="arc" />
      <path
         transform="matrix(0.23076925,0,0,0.23076925,267.74876,944.11656)"
         d="m 250.88516,50.533741 c 0,8.536875 -6.9205,15.457379 -15.45738,15.457379 -8.53687,0 -15.45738,-6.920504 -15.45738,-15.457379 0,-8.536875 6.92051,-15.457379 15.45738,-15.457379 8.53688,0 15.45738,6.920504 15.45738,15.457379 z"
         sodipodi:ry="15.457379"
         sodipodi:rx="15.457379"
         sodipodi:cy="50.533741"
         sodipodi:cx="235.42778"
         id="path3755-8"
         style="fill:#000000;fill-opacity:1;fill-rule:nonzero;stroke:none"
         sodipodi:type="arc" />
      <path
         transform="matrix(0.23076925,0,0,0.23076925,87.164977,944.11656)"
         d="m 250.88516,50.533741 c 0,8.536875 -6.9205,15.457379 -15.45738,15.457379 -8.53687,0 -15.45738,-6.920504 -15.45738,-15.457379 0,-8.536875 6.92051,-15.457379 15.45738,-15.457379 8.53688,0 15.45738,6.920504 15.45738,15.457379 z"
         sodipodi:ry="15.457379"
         sodipodi:rx="15.457379"
         sodipodi:cy="50.533741"
         sodipodi:cx="235.42778"
         id="path3755-7"
         style="fill:#000000;fill-opacity:0.5098038;fill-rule:nonzero;stroke:none"
         sodipodi:type="arc" />
      <path
         transform="matrix(0.23076925,0,0,0.23076925,327.94338,944.11656)"
         d="m 250.88516,50.533741 c 0,8.536875 -6.9205,15.457379 -15.45738,15.457379 -8.53687,0 -15.45738,-6.920504 -15.45738,-15.457379 0,-8.536875 6.92051,-15.457379 15.45738,-15.457379 8.53688,0 15.45738,6.920504 15.45738,15.457379 z"
         sodipodi:ry="15.457379"
         sodipodi:rx="15.457379"
         sodipodi:cy="50.533741"
         sodipodi:cx="235.42778"
         id="path3755-2"
         style="fill:#000000;fill-opacity:0.5098038;fill-rule:nonzero;stroke:none"
         sodipodi:type="arc" />
      <text
         sodipodi:linespacing="130%"
         id="text3796"
         y="944.3208"
         x="258.03503"
         style="font-size:14px;font-style:normal;font-variant:normal;font-weight:normal;font-stretch:normal;text-align:start;line-height:129.99999523%;letter-spacing:0px;word-spacing:0px;writing-mode:lr-tb;text-anchor:start;fill:#000000;fill-opacity:1;stroke:none;font-family:Arial;-inkscape-font-specification:Arial"
         xml:space="preserve"><tspan
           y="944.3208"
           x="258.03503"
           id="tspan3798"
           sodipodi:role="line">0</tspan></text>
      <text
         sodipodi:linespacing="130%"
         id="text3800"
         y="944.58936"
         x="318.76965"
         style="font-size:14px;font-style:normal;font-variant:normal;font-weight:normal;font-stretch:normal;text-align:start;line-height:129.99999523%;letter-spacing:0px;word-spacing:0px;writing-mode:lr-tb;text-anchor:start;fill:#000000;fill-opacity:1;stroke:none;font-family:Arial;-inkscape-font-specification:Arial"
         xml:space="preserve"><tspan
           y="944.58936"
           x="318.76965"
           id="tspan3802"
           sodipodi:role="line">1</tspan></text>
      <text
         sodipodi:linespacing="130%"
         id="text3804"
         y="944.58936"
         x="197.97372"
         style="font-size:14px;font-style:normal;font-variant:normal;font-weight:normal;font-stretch:normal;text-align:start;line-height:129.99999523%;letter-spacing:0px;word-spacing:0px;writing-mode:lr-tb;text-anchor:start;fill:#000000;fill-opacity:1;stroke:none;font-family:Arial;-inkscape-font-specification:Arial"
         xml:space="preserve"><tspan
           y="944.58936"
           x="197.97372"
           id="tspan3806"
           sodipodi:role="line">2</tspan></text>
      <text
         sodipodi:linespacing="130%"
         id="text3808"
         y="944.3208"
         x="378.41739"
         style="font-size:14px;font-style:normal;font-variant:normal;font-weight:normal;font-stretch:normal;text-align:start;line-height:129.99999523%;letter-spacing:0px;word-spacing:0px;writing-mode:lr-tb;text-anchor:start;fill:#000000;fill-opacity:0.5098038;stroke:none;font-family:Arial;-inkscape-font-specification:Arial"
         xml:space="preserve"><tspan
           y="944.3208"
           x="378.41739"
           id="tspan3810"
           sodipodi:role="line">3</tspan></text>
      <text
         sodipodi:linespacing="130%"
         id="text3812"
         y="944.58936"
         x="137.63217"
         style="font-size:14px;font-style:normal;font-variant:normal;font-weight:normal;font-stretch:normal;text-align:start;line-height:129.99999523%;letter-spacing:0px;word-spacing:0px;writing-mode:lr-tb;text-anchor:start;fill:#000000;fill-opacity:0.5098038;stroke:none;font-family:Arial;-inkscape-font-specification:Arial"
         xml:space="preserve"><tspan
           y="944.58936"
           x="137.63217"
           id="tspan3814"
           sodipodi:role="line">4</tspan></text>
      <text
         sodipodi:linespacing="130%"
         id="text3796-2"
         y="923.10797"
         x="244.72205"
         style="font-size:14px;font-style:normal;font-variant:normal;font-weight:normal;font-stretch:normal;text-align:start;line-height:129.99999523%;letter-spacing:0px;word-spacing:0px;writing-mode:lr-tb;text-anchor:start;fill:#000000;fill-opacity:1;stroke:none;font-family:Arial;-inkscape-font-specification:Arial"
         xml:space="preserve"><tspan
           style="font-size:14px;font-style:normal;font-variant:normal;font-weight:normal;font-stretch:normal;text-align:start;line-height:129.99999523%;writing-mode:lr-tb;text-anchor:start;font-family:Arial;-inkscape-font-specification:Arial"
           y="923.10797"
           x="244.72205"
           id="tspan3798-8"
           sodipodi:role="line">Label</tspan></text>
      <text
         sodipodi:linespacing="130%"
         id="text3843"
         y="979.55878"
         x="221.75392"
         style="font-size:14px;font-style:normal;font-variant:normal;font-weight:normal;font-stretch:normal;text-align:start;line-height:129.99999523%;letter-spacing:0px;word-spacing:0px;writing-mode:lr-tb;text-anchor:start;fill:#000000;fill-opacity:1;stroke:none;font-family:Arial;-inkscape-font-specification:Arial"
         xml:space="preserve"><tspan
           id="tspan3851"
           y="979.55878"
           x="221.75392"
           sodipodi:role="line">-Δ<tspan
   id="tspan3855"
   style="font-size:65.00091553%;baseline-shift:sub">2</tspan></tspan></text>
      <text
         sodipodi:linespacing="130%"
         id="text3843-0"
         y="979.55878"
         x="282.97476"
         style="font-size:14px;font-style:normal;font-variant:normal;font-weight:normal;font-stretch:normal;text-align:start;line-height:129.99999523%;letter-spacing:0px;word-spacing:0px;writing-mode:lr-tb;text-anchor:start;fill:#000000;fill-opacity:1;stroke:none;font-family:Arial;-inkscape-font-specification:Arial"
         xml:space="preserve"><tspan
           id="tspan3851-5"
           y="979.55878"
           x="282.97476"
           sodipodi:role="line">Δ<tspan
   id="tspan3881"
   style="font-size:65.00091553%;baseline-shift:sub">1</tspan></tspan></text>
      <path
         inkscape:connector-curvature="0"
         id="path3933"
         d="m 202.99374,984.9094 57.72936,0"
         style="fill:none;stroke:#000000;stroke-width:1;stroke-linecap:butt;stroke-linejoin:miter;stroke-miterlimit:4;stroke-opacity:1;stroke-dasharray:none;marker-start:url(#Arrow1Mstart);marker-end:url(#Arrow1Mend)" />
      <path
         inkscape:connector-curvature="0"
         id="path3937"
         d="m 262.75805,984.9094 57.84701,0"
         style="fill:none;stroke:#000000;stroke-width:1;stroke-linecap:butt;stroke-linejoin:miter;stroke-miterlimit:4;stroke-opacity:1;stroke-dasharray:none;marker-start:url(#Arrow1Mstart);marker-end:url(#Arrow1Mend)" />
      <path
         inkscape:connector-curvature="0"
         id="path3837-3"
         d="m 201.68906,968.263 0,20.78551"
         style="fill:none;stroke:#000000;stroke-width:1;stroke-linecap:butt;stroke-linejoin:miter;stroke-miterlimit:4;stroke-opacity:1;stroke-dasharray:none" />
      <path
         inkscape:connector-curvature="0"
         id="path3837-3-8"
         d="m 322.07825,968.263 0,20.78551"
         style="fill:none;stroke:#000000;stroke-width:1;stroke-linecap:butt;stroke-linejoin:miter;stroke-miterlimit:4;stroke-opacity:1;stroke-dasharray:none" />
      <path
         inkscape:connector-curvature="0"
         id="path3837-3-9"
         d="m 261.88367,968.26301 0,20.7855"
         style="fill:none;stroke:#000000;stroke-width:1;stroke-linecap:butt;stroke-linejoin:miter;stroke-miterlimit:4;stroke-opacity:1;stroke-dasharray:none" />
    </g>
  </g>
</svg>
