<?xml version="1.0" encoding="UTF-8" standalone="no"?>
<svg
   xmlns:dc="http://purl.org/dc/elements/1.1/"
   xmlns:cc="http://creativecommons.org/ns#"
   xmlns:rdf="http://www.w3.org/1999/02/22-rdf-syntax-ns#"
   xmlns:svg="http://www.w3.org/2000/svg"
   xmlns="http://www.w3.org/2000/svg"
   xmlns:sodipodi="http://sodipodi.sourceforge.net/DTD/sodipodi-0.dtd"
   xmlns:inkscape="http://www.inkscape.org/namespaces/inkscape"
   width="566.93"
   height="566.93"
   version="1.0"
   id="svg2"
   inkscape:version="0.48.3.1 r9886"
   sodipodi:docname="couette.svg">
  <metadata
     id="metadata62">
    <rdf:RDF>
      <cc:Work
         rdf:about="">
        <dc:format>image/svg+xml</dc:format>
        <dc:type
           rdf:resource="http://purl.org/dc/dcmitype/StillImage" />
      </cc:Work>
    </rdf:RDF>
  </metadata>
  <defs
     id="defs60" />
  <sodipodi:namedview
     pagecolor="#ffffff"
     bordercolor="#666666"
     borderopacity="1"
     objecttolerance="10"
     gridtolerance="10"
     guidetolerance="10"
     inkscape:pageopacity="0"
     inkscape:pageshadow="2"
     inkscape:window-width="1505"
     inkscape:window-height="933"
     id="namedview58"
     showgrid="false"
     inkscape:zoom="3.8749337"
     inkscape:cx="259.5151"
     inkscape:cy="150.40593"
     inkscape:window-x="0"
     inkscape:window-y="0"
     inkscape:window-maximized="0"
     inkscape:current-layer="svg2" />
  <title
     id="title4">Couette flow (Just at start-up)</title>
  <desc
     id="desc6">SVG file written by e3prep.py</desc>
  <!-- drawing begins here -->
  <line
     x1="141.73"
     y1="460.63"
     x2="425.20"
     y2="460.63"
     style="stroke:black;stroke-width:1.42;stroke-linecap:round;fill:none"
     id="line8" />
  <text
     x="283.46"
     y="486.14"
     style="font-size:10;text-anchor:start;fill:black;stroke:none;font-weight:normal;font-family:sanserif"
     id="text10">x</text>
  <line
     x1="141.73"
     y1="460.63"
     x2="141.73"
     y2="454.96"
     style="stroke:black;stroke-width:1.42;stroke-linecap:round;fill:none"
     id="line12" />
  <text
     x="141.73"
     y="474.80"
     style="font-size:10;text-anchor:middle;fill:black;stroke:none;font-weight:normal;font-family:sanserif"
     id="text14">0</text>
  <line
     x1="212.60"
     y1="460.63"
     x2="212.60"
     y2="454.96"
     style="stroke:black;stroke-width:1.42;stroke-linecap:round;fill:none"
     id="line16" />
  <text
     x="212.60"
     y="474.80"
     style="font-size:10;text-anchor:middle;fill:black;stroke:none;font-weight:normal;font-family:sanserif"
     id="text18">0.01</text>
  <line
     x1="283.46"
     y1="460.63"
     x2="283.46"
     y2="454.96"
     style="stroke:black;stroke-width:1.42;stroke-linecap:round;fill:none"
     id="line20" />
  <text
     x="283.46"
     y="474.80"
     style="font-size:10;text-anchor:middle;fill:black;stroke:none;font-weight:normal;font-family:sanserif"
     id="text22">0.02</text>
  <line
     x1="354.33"
     y1="460.63"
     x2="354.33"
     y2="454.96"
     style="stroke:black;stroke-width:1.42;stroke-linecap:round;fill:none"
     id="line24" />
  <text
     x="354.33"
     y="474.80"
     style="font-size:10;text-anchor:middle;fill:black;stroke:none;font-weight:normal;font-family:sanserif"
     id="text26">0.03</text>
  <line
     x1="425.20"
     y1="460.63"
     x2="425.20"
     y2="454.96"
     style="stroke:black;stroke-width:1.42;stroke-linecap:round;fill:none"
     id="line28" />
  <text
     x="425.20"
     y="474.80"
     style="font-size:10;text-anchor:middle;fill:black;stroke:none;font-weight:normal;font-family:sanserif"
     id="text30">0.04</text>
  <line
     x1="113.39"
     y1="425.20"
     x2="113.39"
     y2="354.33"
     style="stroke:black;stroke-width:1.42;stroke-linecap:round;fill:none"
     id="line32" />
  <text
     x="90.71"
     y="389.76"
     style="font-size:10;text-anchor:end;fill:black;stroke:none;font-weight:normal;font-family:sanserif"
     id="text34">y</text>
  <line
     x1="113.39"
     y1="425.20"
     x2="119.06"
     y2="425.20"
     style="stroke:black;stroke-width:1.42;stroke-linecap:round;fill:none"
     id="line36" />
  <text
     x="104.88"
     y="425.20"
     style="font-size:10;text-anchor:end;fill:black;stroke:none;font-weight:normal;font-family:sanserif"
     id="text38">0</text>
  <line
     x1="113.39"
     y1="354.33"
     x2="119.06"
     y2="354.33"
     style="stroke:black;stroke-width:1.42;stroke-linecap:round;fill:none"
     id="line40" />
  <text
     x="104.88"
     y="354.33"
     style="font-size:10;text-anchor:end;fill:black;stroke:none;font-weight:normal;font-family:sanserif"
     id="text42">0.01</text>
  <!-- There are 0 nodes
 -->
  <!-- There are 1 blocks
 -->
  <!-- Render block 0
 -->
  <text
     x="282.68579"
     y="392.94608"
     style="font-size:10px;font-weight:normal;text-anchor:middle;fill:#000000;stroke:none;font-family:sanserif"
     id="text44">blk-0</text>
  <text
     x="282.4277"
     y="346.32983"
     style="font-size:10px;font-weight:normal;text-anchor:middle;fill:#000000;stroke:none;font-family:sanserif"
     id="text46">MOVING_WALL</text>
  <path
     d="M 141.73,354.33 L 155.91,354.33 L 170.08,354.33 L 184.25,354.33 L 198.43,354.33 L 212.60,354.33 L 226.77,354.33 L 240.94,354.33 L 255.12,354.33 L 269.29,354.33 L 283.46,354.33 L 297.64,354.33 L 311.81,354.33 L 325.98,354.33 L 340.16,354.33 L 354.33,354.33 L 368.50,354.33 L 382.68,354.33 L 396.85,354.33 L 411.02,354.33 L 425.20,354.33"
     style="stroke:black;stroke-width:0.71;stroke-linecap:round;fill:none"
     id="path48" />
  <path
     d="M 425.20,425.20 L 425.20,418.11 L 425.20,411.02 L 425.20,403.94 L 425.20,396.85 L 425.20,389.76 L 425.20,382.68 L 425.20,375.59 L 425.20,368.50 L 425.20,361.42 L 425.20,354.33"
     style="stroke:black;stroke-width:0.71;stroke-linecap:round;fill:none;stroke-dasharray: 5.67 5.67"
     id="path50" />
  <text
     x="282.94385"
     y="437.58731"
     style="font-size:10px;font-weight:normal;text-anchor:middle;fill:#000000;stroke:none;font-family:sanserif"
     id="text52">ADIABATIC</text>
  <path
     d="M 141.73,425.20 L 155.91,425.20 L 170.08,425.20 L 184.25,425.20 L 198.43,425.20 L 212.60,425.20 L 226.77,425.20 L 240.94,425.20 L 255.12,425.20 L 269.29,425.20 L 283.46,425.20 L 297.64,425.20 L 311.81,425.20 L 325.98,425.20 L 340.16,425.20 L 354.33,425.20 L 368.50,425.20 L 382.68,425.20 L 396.85,425.20 L 411.02,425.20 L 425.20,425.20"
     style="stroke:black;stroke-width:0.71;stroke-linecap:round;fill:none"
     id="path54" />
  <path
     d="M 141.73,425.20 L 141.73,418.11 L 141.73,411.02 L 141.73,403.94 L 141.73,396.85 L 141.73,389.76 L 141.73,382.68 L 141.73,375.59 L 141.73,368.50 L 141.73,361.42 L 141.73,354.33"
     style="stroke:black;stroke-width:0.71;stroke-linecap:round;fill:none;stroke-dasharray: 5.67 5.67"
     id="path56" />
  <!-- end of drawing -->
</svg>
