<?xml version="1.0" encoding="UTF-8" standalone="no"?>
<svg
   xmlns:dc="http://purl.org/dc/elements/1.1/"
   xmlns:cc="http://creativecommons.org/ns#"
   xmlns:rdf="http://www.w3.org/1999/02/22-rdf-syntax-ns#"
   xmlns:svg="http://www.w3.org/2000/svg"
   xmlns="http://www.w3.org/2000/svg"
   xmlns:sodipodi="http://sodipodi.sourceforge.net/DTD/sodipodi-0.dtd"
   xmlns:inkscape="http://www.inkscape.org/namespaces/inkscape"
   width="566.93"
   height="566.93"
   version="1.0"
   id="svg2"
   inkscape:version="0.48.3.1 r9886"
   sodipodi:docname="back.svg">
  <metadata
     id="metadata112">
    <rdf:RDF>
      <cc:Work
         rdf:about="">
        <dc:format>image/svg+xml</dc:format>
        <dc:type
           rdf:resource="http://purl.org/dc/dcmitype/StillImage" />
      </cc:Work>
    </rdf:RDF>
  </metadata>
  <defs
     id="defs110" />
  <sodipodi:namedview
     pagecolor="#ffffff"
     bordercolor="#666666"
     borderopacity="1"
     objecttolerance="10"
     gridtolerance="10"
     guidetolerance="10"
     inkscape:pageopacity="0"
     inkscape:pageshadow="2"
     inkscape:window-width="1397"
     inkscape:window-height="915"
     id="namedview108"
     showgrid="false"
     inkscape:zoom="2.2954879"
     inkscape:cx="384.38763"
     inkscape:cy="204.27502"
     inkscape:window-x="0"
     inkscape:window-y="0"
     inkscape:window-maximized="0"
     inkscape:current-layer="svg2" />
  <title
     id="title4">Flow through a conical nozzle.</title>
  <desc
     id="desc6">SVG file written by e3prep.py</desc>
  <!-- drawing begins here -->
  <line
     x1="141.73"
     y1="453.54"
     x2="651.97"
     y2="453.54"
     style="stroke:black;stroke-width:1.42;stroke-linecap:round;fill:none"
     id="line8" />
  <text
     x="637.75739"
     y="474.70361"
     style="font-size:10px;font-weight:normal;text-anchor:start;fill:#000000;stroke:none;font-family:sanserif"
     id="text10">x</text>
  <line
     x1="141.73"
     y1="453.54"
     x2="141.73"
     y2="447.87"
     style="stroke:black;stroke-width:1.42;stroke-linecap:round;fill:none"
     id="line12" />
  <text
     x="141.73"
     y="467.72"
     style="font-size:10;text-anchor:middle;fill:black;stroke:none;font-weight:normal;font-family:sanserif"
     id="text14">-0.1</text>
  <line
     x1="283.46"
     y1="453.54"
     x2="283.46"
     y2="447.87"
     style="stroke:black;stroke-width:1.42;stroke-linecap:round;fill:none"
     id="line16" />
  <text
     x="283.46"
     y="467.72"
     style="font-size:10;text-anchor:middle;fill:black;stroke:none;font-weight:normal;font-family:sanserif"
     id="text18">-0.05</text>
  <line
     x1="425.20"
     y1="453.54"
     x2="425.20"
     y2="447.87"
     style="stroke:black;stroke-width:1.42;stroke-linecap:round;fill:none"
     id="line20" />
  <text
     x="425.20"
     y="467.72"
     style="font-size:10;text-anchor:middle;fill:black;stroke:none;font-weight:normal;font-family:sanserif"
     id="text22">0</text>
  <line
     x1="566.93"
     y1="453.54"
     x2="566.93"
     y2="447.87"
     style="stroke:black;stroke-width:1.42;stroke-linecap:round;fill:none"
     id="line24" />
  <text
     x="566.93"
     y="467.72"
     style="font-size:10;text-anchor:middle;fill:black;stroke:none;font-weight:normal;font-family:sanserif"
     id="text26">0.05</text>
  <line
     x1="164.0222"
     y1="425.20001"
     x2="164.0222"
     y2="283.45999"
     style="fill:none;stroke:#000000;stroke-width:1.41999996;stroke-linecap:round"
     id="line28" />
  <text
     x="142.28001"
     y="288.91901"
     style="font-size:10px;font-weight:normal;text-anchor:end;fill:#000000;stroke:none;font-family:sanserif"
     id="text30">y</text>
  <line
     x1="164.0222"
     y1="425.20001"
     x2="169.6922"
     y2="425.20001"
     style="fill:none;stroke:#000000;stroke-width:1.41999996;stroke-linecap:round"
     id="line32" />
  <text
     x="155.5222"
     y="425.20001"
     style="font-size:10px;font-weight:normal;text-anchor:end;fill:#000000;stroke:none;font-family:sanserif"
     id="text34">0</text>
  <line
     x1="164.0222"
     y1="368.5"
     x2="169.6922"
     y2="368.5"
     style="fill:none;stroke:#000000;stroke-width:1.41999996;stroke-linecap:round"
     id="line36" />
  <text
     x="155.5222"
     y="368.5"
     style="font-size:10px;font-weight:normal;text-anchor:end;fill:#000000;stroke:none;font-family:sanserif"
     id="text38">0.02</text>
  <line
     x1="164.0222"
     y1="311.81"
     x2="169.6922"
     y2="311.81"
     style="fill:none;stroke:#000000;stroke-width:1.41999996;stroke-linecap:round"
     id="line40" />
  <text
     x="155.5222"
     y="311.81"
     style="font-size:10px;font-weight:normal;text-anchor:end;fill:#000000;stroke:none;font-family:sanserif"
     id="text42">0.04</text>
  <!-- There are 14 nodes
 -->
  <circle
     cx="425.20"
     cy="257.80"
     r="2.83"
     style="fill:black"
     id="circle44" />
  <text
     x="447.85315"
     y="250.49054"
     style="font-size:10px;font-weight:normal;text-anchor:end;fill:#000000;stroke:none;font-family:sanserif"
     id="text46">centre_A</text>
  <circle
     cx="272.66"
     cy="425.20"
     r="2.83"
     style="fill:black"
     id="circle48" />
  <text
     x="294.44186"
     y="417.89053"
     style="font-size:10px;font-weight:normal;text-anchor:end;fill:#000000;stroke:none;font-family:sanserif"
     id="text50">centre_B</text>
  <circle
     cx="209.20"
     cy="425.20"
     r="2.83"
     style="fill:black"
     id="circle52" />
  <circle
     cx="209.20"
     cy="310.32"
     r="2.83"
     style="fill:black"
     id="circle54" />
  <circle
     cx="272.66"
     cy="425.20"
     r="2.83"
     style="fill:black"
     id="circle56" />
  <circle
     cx="272.66"
     cy="310.32"
     r="2.83"
     style="fill:black"
     id="circle58" />
  <circle
     cx="350.03"
     cy="340.29"
     r="2.83"
     style="fill:black"
     id="circle60" />
  <circle
     cx="350.03"
     cy="425.20"
     r="2.83"
     style="fill:black"
     id="circle62" />
  <circle
     cx="425.20"
     cy="425.20"
     r="2.83"
     style="fill:black"
     id="circle64" />
  <circle
     cx="425.20"
     cy="369.40"
     r="2.83"
     style="fill:black"
     id="circle66" />
  <circle
     cx="454.08"
     cy="365.59"
     r="2.83"
     style="fill:black"
     id="circle68" />
  <circle
     cx="454.08"
     cy="425.20"
     r="2.83"
     style="fill:black"
     id="circle70" />
  <circle
     cx="641.20"
     cy="315.46"
     r="2.83"
     style="fill:black"
     id="circle72" />
  <circle
     cx="641.20"
     cy="425.20"
     r="2.83"
     style="fill:black"
     id="circle74" />
  <!-- There are 2 blocks
 -->
  <!-- Render block 0
 -->
  <text
     x="273.20749"
     y="374.9902"
     style="font-size:10px;font-weight:normal;text-anchor:middle;fill:#000000;stroke:none;font-family:sanserif"
     id="text76">subsonic-region</text>
  <text
     x="430.26865"
     y="144.24007"
     transform="matrix(0.89948153,0.43695878,-0.43695878,0.89948153,0,0)"
     style="font-size:10px;font-weight:normal;text-anchor:middle;fill:#000000;stroke:none;font-family:sanserif"
     id="text78">SLIP_WALL</text>
  <path
     d="M 209.20,310.32 L 213.81,310.32 L 218.43,310.32 L 223.05,310.32 L 227.66,310.32 L 232.28,310.32 L 236.90,310.32 L 241.51,310.32 L 246.13,310.32 L 250.74,310.32 L 255.36,310.32 L 259.98,310.32 L 264.59,310.32 L 269.21,310.32 L 273.83,310.33 L 278.44,310.47 L 283.05,310.79 L 287.63,311.30 L 292.20,312.00 L 296.73,312.87 L 301.22,313.93 L 305.67,315.17 L 310.06,316.58 L 314.40,318.17 L 318.66,319.94 L 322.86,321.87 L 326.97,323.97 L 330.99,326.23 L 334.92,328.66 L 338.75,331.24 L 342.47,333.97 L 346.08,336.85 L 349.57,339.87 L 353.03,342.92 L 356.61,345.83 L 360.31,348.59 L 364.12,351.20 L 368.03,353.65 L 372.05,355.93 L 376.15,358.04 L 380.34,359.98 L 384.60,361.75 L 388.94,363.34 L 393.33,364.75 L 397.78,365.98 L 402.28,367.02 L 406.82,367.87 L 411.38,368.54 L 415.97,369.02 L 420.58,369.30 L 425.20,369.40"
     style="stroke:black;stroke-width:0.71;stroke-linecap:round;fill:none"
     id="path80" />
  <path
     d="M 425.20,425.20 L 425.20,423.34 L 425.20,421.48 L 425.20,419.62 L 425.20,417.76 L 425.20,415.90 L 425.20,414.04 L 425.20,412.18 L 425.20,410.32 L 425.20,408.46 L 425.20,406.60 L 425.20,404.74 L 425.20,402.88 L 425.20,401.02 L 425.20,399.16 L 425.20,397.30 L 425.20,395.44 L 425.20,393.58 L 425.20,391.72 L 425.20,389.86 L 425.20,388.00 L 425.20,386.14 L 425.20,384.28 L 425.20,382.42 L 425.20,380.56 L 425.20,378.70 L 425.20,376.84 L 425.20,374.98 L 425.20,373.12 L 425.20,371.26 L 425.20,369.40"
     style="stroke:black;stroke-width:0.71;stroke-linecap:round;fill:none;stroke-dasharray: 5.67 5.67"
     id="path82" />
  <text
     x="317.20001"
     y="439.11725"
     style="font-size:10px;font-weight:normal;text-anchor:middle;fill:#000000;stroke:none;font-family:sanserif"
     id="text84">SLIP_WALL</text>
  <path
     d="M 209.20,425.20 L 213.52,425.20 L 217.84,425.20 L 222.16,425.20 L 226.48,425.20 L 230.80,425.20 L 235.12,425.20 L 239.44,425.20 L 243.76,425.20 L 248.08,425.20 L 252.40,425.20 L 256.72,425.20 L 261.04,425.20 L 265.36,425.20 L 269.68,425.20 L 274.00,425.20 L 278.32,425.20 L 282.64,425.20 L 286.96,425.20 L 291.28,425.20 L 295.60,425.20 L 299.92,425.20 L 304.24,425.20 L 308.56,425.20 L 312.88,425.20 L 317.20,425.20 L 321.52,425.20 L 325.84,425.20 L 330.16,425.20 L 334.48,425.20 L 338.80,425.20 L 343.12,425.20 L 347.44,425.20 L 351.76,425.20 L 356.08,425.20 L 360.40,425.20 L 364.72,425.20 L 369.04,425.20 L 373.36,425.20 L 377.68,425.20 L 382.00,425.20 L 386.32,425.20 L 390.64,425.20 L 394.96,425.20 L 399.28,425.20 L 403.60,425.20 L 407.92,425.20 L 412.24,425.20 L 416.56,425.20 L 420.88,425.20 L 425.20,425.20"
     style="stroke:black;stroke-width:0.71;stroke-linecap:round;fill:none"
     id="path86" />
  <text
     x="-367.76001"
     y="203.1692"
     transform="matrix(0,-1,1,0,0,0)"
     style="font-size:10px;font-weight:normal;text-anchor:middle;fill:#000000;stroke:none;font-family:sanserif"
     id="text88">SUBSONIC_IN</text>
  <path
     d="M 209.20,425.20 L 209.20,421.37 L 209.20,417.54 L 209.20,413.71 L 209.20,409.88 L 209.20,406.05 L 209.20,402.22 L 209.20,398.39 L 209.20,394.56 L 209.20,390.73 L 209.20,386.90 L 209.20,383.08 L 209.20,379.25 L 209.20,375.42 L 209.20,371.59 L 209.20,367.76 L 209.20,363.93 L 209.20,360.10 L 209.20,356.27 L 209.20,352.44 L 209.20,348.61 L 209.20,344.78 L 209.20,340.95 L 209.20,337.13 L 209.20,333.30 L 209.20,329.47 L 209.20,325.64 L 209.20,321.81 L 209.20,317.98 L 209.20,314.15 L 209.20,310.32"
     style="stroke:black;stroke-width:0.71;stroke-linecap:round;fill:none"
     id="path90" />
  <!-- Render block 1
 -->
  <text
     x="572.85211"
     y="383.06161"
     style="font-size:10px;font-weight:normal;text-anchor:middle;fill:#000000;stroke:none;font-family:sanserif"
     id="text92">supersonic-region</text>
  <text
     x="425.55682"
     y="464.23999"
     transform="matrix(0.96592583,-0.25881905,0.25881905,0.96592583,0,0)"
     style="font-size:10px;font-weight:normal;text-anchor:middle;fill:#000000;stroke:none;font-family:sanserif"
     id="text94">SLIP_WALL</text>
  <path
     d="M 425.20,369.40 L 428.91,369.34 L 432.62,369.15 L 436.32,368.84 L 440.02,368.41 L 443.69,367.85 L 447.34,367.18 L 450.97,366.38 L 454.57,365.46 L 458.16,364.50 L 461.75,363.54 L 465.34,362.58 L 468.93,361.62 L 472.52,360.65 L 476.11,359.69 L 479.69,358.73 L 483.28,357.77 L 486.87,356.81 L 490.46,355.85 L 494.05,354.88 L 497.64,353.92 L 501.23,352.96 L 504.82,352.00 L 508.41,351.04 L 511.99,350.08 L 515.58,349.11 L 519.17,348.15 L 522.76,347.19 L 526.35,346.23 L 529.94,345.27 L 533.53,344.31 L 537.12,343.34 L 540.71,342.38 L 544.30,341.42 L 547.88,340.46 L 551.47,339.50 L 555.06,338.54 L 558.65,337.57 L 562.24,336.61 L 565.83,335.65 L 569.42,334.69 L 573.01,333.73 L 576.60,332.77 L 580.18,331.80 L 583.77,330.84 L 587.36,329.88 L 590.95,328.92 L 594.54,327.96 L 598.13,327.00 L 601.72,326.03 L 605.31,325.07 L 608.90,324.11 L 612.49,323.15 L 616.07,322.19 L 619.66,321.23 L 623.25,320.26 L 626.84,319.30 L 630.43,318.34 L 634.02,317.38 L 637.61,316.42 L 641.20,315.46"
     style="stroke:black;stroke-width:0.71;stroke-linecap:round;fill:none"
     id="path96" />
  <text
     x="-369.86609"
     y="656.04504"
     transform="matrix(0,-1,1,0,0,0)"
     style="font-size:10px;font-weight:normal;text-anchor:middle;fill:#000000;stroke:none;font-family:sanserif"
     id="text98">EXTRAPOLATE_OUT</text>
  <path
     d="M 641.20,425.20 L 641.20,421.54 L 641.20,417.88 L 641.20,414.22 L 641.20,410.56 L 641.20,406.91 L 641.20,403.25 L 641.20,399.59 L 641.20,395.93 L 641.20,392.27 L 641.20,388.62 L 641.20,384.96 L 641.20,381.30 L 641.20,377.64 L 641.20,373.98 L 641.20,370.33 L 641.20,366.67 L 641.20,363.01 L 641.20,359.35 L 641.20,355.69 L 641.20,352.04 L 641.20,348.38 L 641.20,344.72 L 641.20,341.06 L 641.20,337.40 L 641.20,333.75 L 641.20,330.09 L 641.20,326.43 L 641.20,322.77 L 641.20,319.11 L 641.20,315.46"
     style="stroke:black;stroke-width:0.71;stroke-linecap:round;fill:none"
     id="path100" />
  <text
     x="535.0556"
     y="438.65335"
     style="font-size:10px;font-weight:normal;text-anchor:middle;fill:#000000;stroke:none;font-family:sanserif"
     id="text102">SLIP_WALL</text>
  <path
     d="M 425.20,425.20 L 428.80,425.20 L 432.40,425.20 L 436.00,425.20 L 439.60,425.20 L 443.20,425.20 L 446.80,425.20 L 450.40,425.20 L 454.00,425.20 L 457.60,425.20 L 461.20,425.20 L 464.80,425.20 L 468.40,425.20 L 472.00,425.20 L 475.60,425.20 L 479.20,425.20 L 482.80,425.20 L 486.40,425.20 L 490.00,425.20 L 493.60,425.20 L 497.20,425.20 L 500.80,425.20 L 504.40,425.20 L 508.00,425.20 L 511.60,425.20 L 515.20,425.20 L 518.80,425.20 L 522.40,425.20 L 526.00,425.20 L 529.60,425.20 L 533.20,425.20 L 536.80,425.20 L 540.40,425.20 L 544.00,425.20 L 547.60,425.20 L 551.20,425.20 L 554.80,425.20 L 558.40,425.20 L 562.00,425.20 L 565.60,425.20 L 569.20,425.20 L 572.80,425.20 L 576.40,425.20 L 580.00,425.20 L 583.60,425.20 L 587.20,425.20 L 590.80,425.20 L 594.40,425.20 L 598.00,425.20 L 601.60,425.20 L 605.20,425.20 L 608.80,425.20 L 612.40,425.20 L 616.00,425.20 L 619.60,425.20 L 623.20,425.20 L 626.80,425.20 L 630.40,425.20 L 634.00,425.20 L 637.60,425.20 L 641.20,425.20"
     style="stroke:black;stroke-width:0.71;stroke-linecap:round;fill:none"
     id="path104" />
  <path
     d="M 425.20,425.20 L 425.20,423.34 L 425.20,421.48 L 425.20,419.62 L 425.20,417.76 L 425.20,415.90 L 425.20,414.04 L 425.20,412.18 L 425.20,410.32 L 425.20,408.46 L 425.20,406.60 L 425.20,404.74 L 425.20,402.88 L 425.20,401.02 L 425.20,399.16 L 425.20,397.30 L 425.20,395.44 L 425.20,393.58 L 425.20,391.72 L 425.20,389.86 L 425.20,388.00 L 425.20,386.14 L 425.20,384.28 L 425.20,382.42 L 425.20,380.56 L 425.20,378.70 L 425.20,376.84 L 425.20,374.98 L 425.20,373.12 L 425.20,371.26 L 425.20,369.40"
     style="stroke:black;stroke-width:0.71;stroke-linecap:round;fill:none;stroke-dasharray: 5.67 5.67"
     id="path106" />
  <!-- end of drawing -->
</svg>
