<?xml version="1.0" encoding="UTF-8" standalone="no"?>
<svg
   xmlns:dc="http://purl.org/dc/elements/1.1/"
   xmlns:cc="http://creativecommons.org/ns#"
   xmlns:rdf="http://www.w3.org/1999/02/22-rdf-syntax-ns#"
   xmlns:svg="http://www.w3.org/2000/svg"
   xmlns="http://www.w3.org/2000/svg"
   xmlns:sodipodi="http://sodipodi.sourceforge.net/DTD/sodipodi-0.dtd"
   xmlns:inkscape="http://www.inkscape.org/namespaces/inkscape"
   width="566.93"
   height="566.93"
   version="1.0"
   id="svg2"
   inkscape:version="0.47pre4 r22446"
   sodipodi:docname="back-layout.svg">
  <metadata
     id="metadata124">
    <rdf:RDF>
      <cc:Work
         rdf:about="">
        <dc:format>image/svg+xml</dc:format>
        <dc:type
           rdf:resource="http://purl.org/dc/dcmitype/StillImage" />
        <dc:title>Flow through a conical nozzle.</dc:title>
      </cc:Work>
    </rdf:RDF>
  </metadata>
  <defs
     id="defs122">
    <inkscape:perspective
       sodipodi:type="inkscape:persp3d"
       inkscape:vp_x="0 : 283.465 : 1"
       inkscape:vp_y="0 : 1000 : 0"
       inkscape:vp_z="566.92999 : 283.465 : 1"
       inkscape:persp3d-origin="283.465 : 188.97666 : 1"
       id="perspective126" />
  </defs>
  <sodipodi:namedview
     pagecolor="#ffffff"
     bordercolor="#666666"
     borderopacity="1"
     objecttolerance="10"
     gridtolerance="10"
     guidetolerance="10"
     inkscape:pageopacity="0"
     inkscape:pageshadow="2"
     inkscape:window-width="1164"
     inkscape:window-height="799"
     id="namedview120"
     showgrid="false"
     inkscape:zoom="2.0033505"
     inkscape:cx="283.9895"
     inkscape:cy="92.254185"
     inkscape:window-x="0"
     inkscape:window-y="25"
     inkscape:window-maximized="0"
     inkscape:current-layer="svg2">
    <sodipodi:guide
       position="0,0"
       orientation="0,566.92999"
       id="guide2869" />
    <sodipodi:guide
       position="566.92999,0"
       orientation="-566.92999,0"
       id="guide2871" />
    <sodipodi:guide
       position="566.92999,566.92999"
       orientation="0,-566.92999"
       id="guide2873" />
    <sodipodi:guide
       position="0,566.92999"
       orientation="566.92999,0"
       id="guide2875" />
    <sodipodi:guide
       position="0,0"
       orientation="0,566.92999"
       id="guide2877" />
    <sodipodi:guide
       position="566.92999,0"
       orientation="-566.92999,0"
       id="guide2879" />
    <sodipodi:guide
       position="566.92999,566.92999"
       orientation="0,-566.92999"
       id="guide2881" />
    <sodipodi:guide
       position="0,566.92999"
       orientation="566.92999,0"
       id="guide2883" />
  </sodipodi:namedview>
  <title
     id="title4">Flow through a conical nozzle.</title>
  <desc
     id="desc6">SVG file written by e3prep.py</desc>
  <!-- drawing begins here -->
  <!-- There are 14 nodes
 -->
  <!-- There are 2 blocks
 -->
  <!-- Render block 0
 -->
  <!-- Render block 1
 -->
  <g
     id="g2885"
     transform="matrix(0.83523208,0,0,0.89919094,2.3085975,72.593611)">
    <line
       id="line8"
       style="fill:none;stroke:#000000;stroke-width:1.41999996;stroke-linecap:round"
       y2="498.89999"
       x2="646.29999"
       y1="498.89999"
       x1="85.040001" />
    <text
       id="text10"
       style="font-size:10px;font-weight:normal;text-anchor:start;fill:#000000;stroke:none;font-family:sanserif"
       y="524.40997"
       x="365.67001">x</text>
    <line
       id="line12"
       style="fill:none;stroke:#000000;stroke-width:1.41999996;stroke-linecap:round"
       y2="493.23001"
       x2="85.040001"
       y1="498.89999"
       x1="85.040001" />
    <text
       id="text14"
       style="font-size:10px;font-weight:normal;text-anchor:middle;fill:#000000;stroke:none;font-family:sanserif"
       y="513.07001"
       x="85.040001">-0.25</text>
    <line
       id="line16"
       style="fill:none;stroke:#000000;stroke-width:1.41999996;stroke-linecap:round"
       y2="493.23001"
       x2="170.08"
       y1="498.89999"
       x1="170.08" />
    <text
       id="text18"
       style="font-size:10px;font-weight:normal;text-anchor:middle;fill:#000000;stroke:none;font-family:sanserif"
       y="513.07001"
       x="170.08">-0.2</text>
    <line
       id="line20"
       style="fill:none;stroke:#000000;stroke-width:1.41999996;stroke-linecap:round"
       y2="493.23001"
       x2="255.12"
       y1="498.89999"
       x1="255.12" />
    <text
       id="text22"
       style="font-size:10px;font-weight:normal;text-anchor:middle;fill:#000000;stroke:none;font-family:sanserif"
       y="513.07001"
       x="255.12">-0.15</text>
    <line
       id="line24"
       style="fill:none;stroke:#000000;stroke-width:1.41999996;stroke-linecap:round"
       y2="493.23001"
       x2="340.16"
       y1="498.89999"
       x1="340.16" />
    <text
       id="text26"
       style="font-size:10px;font-weight:normal;text-anchor:middle;fill:#000000;stroke:none;font-family:sanserif"
       y="513.07001"
       x="340.16">-0.1</text>
    <line
       id="line28"
       style="fill:none;stroke:#000000;stroke-width:1.41999996;stroke-linecap:round"
       y2="493.23001"
       x2="425.20001"
       y1="498.89999"
       x1="425.20001" />
    <text
       id="text30"
       style="font-size:10px;font-weight:normal;text-anchor:middle;fill:#000000;stroke:none;font-family:sanserif"
       y="513.07001"
       x="425.20001">-0.05</text>
    <line
       id="line32"
       style="fill:none;stroke:#000000;stroke-width:1.41999996;stroke-linecap:round"
       y2="493.23001"
       x2="510.23999"
       y1="498.89999"
       x1="510.23999" />
    <text
       id="text34"
       style="font-size:10px;font-weight:normal;text-anchor:middle;fill:#000000;stroke:none;font-family:sanserif"
       y="513.07001"
       x="510.23999">0</text>
    <line
       id="line36"
       style="fill:none;stroke:#000000;stroke-width:1.41999996;stroke-linecap:round"
       y2="493.23001"
       x2="595.28003"
       y1="498.89999"
       x1="595.28003" />
    <text
       id="text38"
       style="font-size:10px;font-weight:normal;text-anchor:middle;fill:#000000;stroke:none;font-family:sanserif"
       y="513.07001"
       x="595.28003">0.05</text>
    <line
       id="line40"
       style="fill:none;stroke:#000000;stroke-width:1.41999996;stroke-linecap:round"
       y2="396.85001"
       x2="59.529999"
       y1="481.89001"
       x1="59.529999" />
    <text
       id="text42"
       style="font-size:10px;font-weight:normal;text-anchor:end;fill:#000000;stroke:none;font-family:sanserif"
       y="430.79333"
       x="24.628239">y</text>
    <line
       id="line44"
       style="fill:none;stroke:#000000;stroke-width:1.41999996;stroke-linecap:round"
       y2="481.89001"
       x2="65.199997"
       y1="481.89001"
       x1="59.529999" />
    <text
       id="text46"
       style="font-size:10px;font-weight:normal;text-anchor:end;fill:#000000;stroke:none;font-family:sanserif"
       y="481.89001"
       x="51.02">0</text>
    <line
       id="line48"
       style="fill:none;stroke:#000000;stroke-width:1.41999996;stroke-linecap:round"
       y2="447.87"
       x2="65.199997"
       y1="447.87"
       x1="59.529999" />
    <text
       id="text50"
       style="font-size:10px;font-weight:normal;text-anchor:end;fill:#000000;stroke:none;font-family:sanserif"
       y="447.87"
       x="51.02">0.02</text>
    <line
       id="line52"
       style="fill:none;stroke:#000000;stroke-width:1.41999996;stroke-linecap:round"
       y2="413.85999"
       x2="65.199997"
       y1="413.85999"
       x1="59.529999" />
    <text
       id="text54"
       style="font-size:10px;font-weight:normal;text-anchor:end;fill:#000000;stroke:none;font-family:sanserif"
       y="413.85999"
       x="51.02">0.04</text>
    <circle
       id="circle56"
       style="fill:#000000"
       r="2.8299999"
       cy="381.45001"
       cx="510.23999"
       d="m 513.06999,381.45001 c 0,1.56297 -1.26703,2.83 -2.83,2.83 -1.56297,0 -2.83,-1.26703 -2.83,-2.83 0,-1.56296 1.26703,-2.83 2.83,-2.83 1.56297,0 2.83,1.26704 2.83,2.83 z"
       sodipodi:cx="510.23999"
       sodipodi:cy="381.45001"
       sodipodi:rx="2.8299999"
       sodipodi:ry="2.8299999" />
    <text
       id="text58"
       style="font-size:10px;font-weight:normal;text-anchor:end;fill:#000000;stroke:none;font-family:sanserif"
       y="377.20001"
       x="510.23999">centre_A</text>
    <circle
       id="circle60"
       style="fill:#000000"
       r="2.8299999"
       cy="481.89001"
       cx="418.70999"
       d="m 421.53999,481.89001 c 0,1.56297 -1.26703,2.83 -2.83,2.83 -1.56296,0 -2.83,-1.26703 -2.83,-2.83 0,-1.56296 1.26704,-2.83 2.83,-2.83 1.56297,0 2.83,1.26704 2.83,2.83 z"
       sodipodi:cx="418.70999"
       sodipodi:cy="481.89001"
       sodipodi:rx="2.8299999"
       sodipodi:ry="2.8299999" />
    <text
       id="text62"
       style="font-size:10px;font-weight:normal;text-anchor:end;fill:#000000;stroke:none;font-family:sanserif"
       y="477.64001"
       x="418.70999">centre_B</text>
    <circle
       id="circle64"
       style="fill:#000000"
       r="2.8299999"
       cy="481.89001"
       cx="78.239998"
       d="m 81.069998,481.89001 c 0,1.56297 -1.267034,2.83 -2.83,2.83 -1.562966,0 -2.83,-1.26703 -2.83,-2.83 0,-1.56296 1.267034,-2.83 2.83,-2.83 1.562966,0 2.83,1.26704 2.83,2.83 z"
       sodipodi:cx="78.239998"
       sodipodi:cy="481.89001"
       sodipodi:rx="2.8299999"
       sodipodi:ry="2.8299999" />
    <circle
       id="circle66"
       style="fill:#000000"
       r="2.8299999"
       cy="412.95999"
       cx="78.239998"
       d="m 81.069998,412.95999 c 0,1.56297 -1.267034,2.83 -2.83,2.83 -1.562966,0 -2.83,-1.26703 -2.83,-2.83 0,-1.56296 1.267034,-2.83 2.83,-2.83 1.562966,0 2.83,1.26704 2.83,2.83 z"
       sodipodi:cx="78.239998"
       sodipodi:cy="412.95999"
       sodipodi:rx="2.8299999"
       sodipodi:ry="2.8299999" />
    <circle
       id="circle68"
       style="fill:#000000"
       r="2.8299999"
       cy="481.89001"
       cx="418.70999"
       d="m 421.53999,481.89001 c 0,1.56297 -1.26703,2.83 -2.83,2.83 -1.56296,0 -2.83,-1.26703 -2.83,-2.83 0,-1.56296 1.26704,-2.83 2.83,-2.83 1.56297,0 2.83,1.26704 2.83,2.83 z"
       sodipodi:cx="418.70999"
       sodipodi:cy="481.89001"
       sodipodi:rx="2.8299999"
       sodipodi:ry="2.8299999" />
    <circle
       id="circle70"
       style="fill:#000000"
       r="2.8299999"
       cy="412.95999"
       cx="418.70999"
       d="m 421.53999,412.95999 c 0,1.56297 -1.26703,2.83 -2.83,2.83 -1.56296,0 -2.83,-1.26703 -2.83,-2.83 0,-1.56296 1.26704,-2.83 2.83,-2.83 1.56297,0 2.83,1.26704 2.83,2.83 z"
       sodipodi:cx="418.70999"
       sodipodi:cy="412.95999"
       sodipodi:rx="2.8299999"
       sodipodi:ry="2.8299999" />
    <circle
       id="circle72"
       style="fill:#000000"
       r="2.8299999"
       cy="430.94"
       cx="465.14001"
       d="m 467.97001,430.94 c 0,1.56297 -1.26703,2.83 -2.83,2.83 -1.56296,0 -2.83,-1.26703 -2.83,-2.83 0,-1.56296 1.26704,-2.83 2.83,-2.83 1.56297,0 2.83,1.26704 2.83,2.83 z"
       sodipodi:cx="465.14001"
       sodipodi:cy="430.94"
       sodipodi:rx="2.8299999"
       sodipodi:ry="2.8299999" />
    <circle
       id="circle74"
       style="fill:#000000"
       r="2.8299999"
       cy="481.89001"
       cx="465.14001"
       d="m 467.97001,481.89001 c 0,1.56297 -1.26703,2.83 -2.83,2.83 -1.56296,0 -2.83,-1.26703 -2.83,-2.83 0,-1.56296 1.26704,-2.83 2.83,-2.83 1.56297,0 2.83,1.26704 2.83,2.83 z"
       sodipodi:cx="465.14001"
       sodipodi:cy="481.89001"
       sodipodi:rx="2.8299999"
       sodipodi:ry="2.8299999" />
    <circle
       id="circle76"
       style="fill:#000000"
       r="2.8299999"
       cy="481.89001"
       cx="510.23999"
       d="m 513.06999,481.89001 c 0,1.56297 -1.26703,2.83 -2.83,2.83 -1.56297,0 -2.83,-1.26703 -2.83,-2.83 0,-1.56296 1.26703,-2.83 2.83,-2.83 1.56297,0 2.83,1.26704 2.83,2.83 z"
       sodipodi:cx="510.23999"
       sodipodi:cy="481.89001"
       sodipodi:rx="2.8299999"
       sodipodi:ry="2.8299999" />
    <circle
       id="circle78"
       style="fill:#000000"
       r="2.8299999"
       cy="448.41"
       cx="510.23999"
       d="m 513.06999,448.41 c 0,1.56297 -1.26703,2.83 -2.83,2.83 -1.56297,0 -2.83,-1.26703 -2.83,-2.83 0,-1.56296 1.26703,-2.83 2.83,-2.83 1.56297,0 2.83,1.26704 2.83,2.83 z"
       sodipodi:cx="510.23999"
       sodipodi:cy="448.41"
       sodipodi:rx="2.8299999"
       sodipodi:ry="2.8299999" />
    <circle
       id="circle80"
       style="fill:#000000"
       r="2.8299999"
       cy="446.13"
       cx="527.57001"
       d="m 530.40001,446.13 c 0,1.56297 -1.26704,2.83 -2.83,2.83 -1.56297,0 -2.83,-1.26703 -2.83,-2.83 0,-1.56296 1.26703,-2.83 2.83,-2.83 1.56296,0 2.83,1.26704 2.83,2.83 z"
       sodipodi:cx="527.57001"
       sodipodi:cy="446.13"
       sodipodi:rx="2.8299999"
       sodipodi:ry="2.8299999" />
    <circle
       id="circle82"
       style="fill:#000000"
       r="2.8299999"
       cy="481.89001"
       cx="527.57001"
       d="m 530.40001,481.89001 c 0,1.56297 -1.26704,2.83 -2.83,2.83 -1.56297,0 -2.83,-1.26703 -2.83,-2.83 0,-1.56296 1.26703,-2.83 2.83,-2.83 1.56296,0 2.83,1.26704 2.83,2.83 z"
       sodipodi:cx="527.57001"
       sodipodi:cy="481.89001"
       sodipodi:rx="2.8299999"
       sodipodi:ry="2.8299999" />
    <circle
       id="circle84"
       style="fill:#000000"
       r="2.8299999"
       cy="416.04999"
       cx="639.84003"
       d="m 642.67003,416.04999 c 0,1.56296 -1.26704,2.83 -2.83,2.83 -1.56297,0 -2.83,-1.26704 -2.83,-2.83 0,-1.56297 1.26703,-2.83 2.83,-2.83 1.56296,0 2.83,1.26703 2.83,2.83 z"
       sodipodi:cx="639.84003"
       sodipodi:cy="416.04999"
       sodipodi:rx="2.8299999"
       sodipodi:ry="2.8299999" />
    <circle
       id="circle86"
       style="fill:#000000"
       r="2.8299999"
       cy="481.89001"
       cx="639.84003"
       d="m 642.67003,481.89001 c 0,1.56297 -1.26704,2.83 -2.83,2.83 -1.56297,0 -2.83,-1.26703 -2.83,-2.83 0,-1.56296 1.26703,-2.83 2.83,-2.83 1.56296,0 2.83,1.26704 2.83,2.83 z"
       sodipodi:cx="639.84003"
       sodipodi:cy="481.89001"
       sodipodi:rx="2.8299999"
       sodipodi:ry="2.8299999" />
    <text
       id="text88"
       style="font-size:10px;font-weight:normal;text-anchor:middle;fill:#000000;stroke:none;font-family:sanserif"
       y="450.45181"
       x="268.91568">subsonic-region</text>
    <text
       id="text90"
       style="font-size:10px;font-weight:normal;text-anchor:middle;fill:#000000;stroke:none;font-family:sanserif"
       y="407.06326"
       x="295.14194">SLIP_WALL</text>
    <path
       id="path92"
       style="fill:none;stroke:#000000;stroke-width:0.70999998;stroke-linecap:round"
       d="m 78.24,412.96 2.45,0 2.45,0 2.44,0 2.45,0 2.45,0 2.45,0 2.45,0 2.45,0 2.45,0 2.45,0 2.45,0 2.45,0 2.45,0 2.45,0 2.45,0 2.45,0 2.45,0 2.45,0 2.44,0 2.45,0 2.45,0 2.45,0 2.45,0 2.45,0 2.45,0 2.45,0 2.45,0 2.45,0 2.45,0 2.45,0 2.45,0 2.45,0 2.45,0 2.45,0 2.45,0 2.44,0 2.45,0 2.45,0 2.45,0 2.45,0 2.45,0 2.45,0 2.45,0 2.45,0 2.45,0 2.45,0 2.45,0 2.45,0 2.45,0 2.45,0 2.45,0 2.45,0 2.44,0 2.45,0 2.45,0 2.45,0 2.45,0 2.45,0 2.45,0 2.45,0 2.45,0 2.45,0 2.45,0 2.45,0 2.45,0 2.45,0 2.45,0 2.45,0 2.45,0 2.44,0 2.45,0 2.45,0 2.45,0 2.45,0 2.45,0 2.45,0 2.45,0 2.45,0 2.45,0 2.45,0 2.45,0 2.45,0 2.45,0 2.45,0 2.45,0 2.45,0 2.44,0 2.45,0 2.45,0 2.45,0 2.45,0 2.45,0 2.45,0 2.45,0 2.45,0 2.45,0 2.45,0 2.45,0 2.45,0 2.45,0 2.45,0 2.45,0 2.45,0 2.44,0 2.45,0 2.45,0 2.45,0 2.45,0 2.45,0 2.45,0 2.45,0 2.45,0 2.45,0 2.45,0 2.45,0 2.45,0 2.45,0 2.45,0 2.45,0 2.45,0 2.44,0 2.45,0 2.45,0 2.45,0 2.45,0 2.45,0 2.45,0 2.45,0 2.45,0 2.45,0 2.45,0 2.45,0 2.45,0 2.45,0 2.45,0 2.45,0 2.45,0 2.44,0 2.45,0 2.45,0.05 2.45,0.13 2.44,0.21 2.43,0.31 2.42,0.39 2.4,0.47 2.38,0.56 2.37,0.65 2.34,0.73 2.31,0.81 2.28,0.89 2.24,0.97 2.22,1.06 2.17,1.13 2.13,1.2 2.09,1.28 2.04,1.36 1.99,1.43 1.94,1.49 1.88,1.57 1.83,1.62 1.85,1.61 1.91,1.53 1.97,1.46 2.02,1.39 2.06,1.32 2.11,1.24 2.16,1.16 2.2,1.08 2.23,1 2.27,0.92 2.31,0.83 2.33,0.75 2.36,0.67 2.38,0.57 2.4,0.49 2.41,0.4 2.43,0.32 2.44,0.22 2.45,0.13 2.45,0.05" />
    <path
       id="path94"
       style="fill:none;stroke:#000000;stroke-width:0.70999998;stroke-linecap:round;stroke-dasharray:5.67, 5.67"
       d="m 510.24,481.89 0,-1.12 0,-1.11 0,-1.12 0,-1.11 0,-1.12 0,-1.12 0,-1.11 0,-1.12 0,-1.11 0,-1.12 0,-1.12 0,-1.11 0,-1.12 0,-1.11 0,-1.12 0,-1.12 0,-1.11 0,-1.12 0,-1.11 0,-1.12 0,-1.12 0,-1.11 0,-1.12 0,-1.11 0,-1.12 0,-1.12 0,-1.11 0,-1.12 0,-1.11 0,-1.12" />
    <text
       id="text96"
       style="font-size:10px;font-weight:normal;text-anchor:middle;fill:#000000;stroke:none;font-family:sanserif"
       y="492.6062"
       x="297.40616">SLIP_WALL</text>
    <path
       id="path98"
       style="fill:none;stroke:#000000;stroke-width:0.70999998;stroke-linecap:round"
       d="m 78.24,481.89 2.4,0 2.4,0 2.4,0 2.4,0 2.4,0 2.4,0 2.4,0 2.4,0 2.4,0 2.4,0 2.4,0 2.4,0 2.4,0 2.4,0 2.4,0 2.4,0 2.4,0 2.4,0 2.4,0 2.4,0 2.4,0 2.4,0 2.4,0 2.4,0 2.4,0 2.4,0 2.4,0 2.4,0 2.4,0 2.4,0 2.4,0 2.4,0 2.4,0 2.4,0 2.4,0 2.4,0 2.4,0 2.4,0 2.4,0 2.4,0 2.4,0 2.4,0 2.4,0 2.4,0 2.4,0 2.4,0 2.4,0 2.4,0 2.4,0 2.4,0 2.4,0 2.4,0 2.4,0 2.4,0 2.4,0 2.4,0 2.4,0 2.4,0 2.4,0 2.4,0 2.4,0 2.4,0 2.4,0 2.4,0 2.4,0 2.4,0 2.4,0 2.4,0 2.4,0 2.4,0 2.4,0 2.4,0 2.4,0 2.4,0 2.4,0 2.4,0 2.4,0 2.4,0 2.4,0 2.4,0 2.4,0 2.4,0 2.4,0 2.4,0 2.4,0 2.4,0 2.4,0 2.4,0 2.4,0 2.4,0 2.4,0 2.4,0 2.4,0 2.4,0 2.4,0 2.4,0 2.4,0 2.4,0 2.4,0 2.4,0 2.4,0 2.4,0 2.4,0 2.4,0 2.4,0 2.4,0 2.4,0 2.4,0 2.4,0 2.4,0 2.4,0 2.4,0 2.4,0 2.4,0 2.4,0 2.4,0 2.4,0 2.4,0 2.4,0 2.4,0 2.4,0 2.4,0 2.4,0 2.4,0 2.4,0 2.4,0 2.4,0 2.4,0 2.4,0 2.4,0 2.4,0 2.4,0 2.4,0 2.4,0 2.4,0 2.4,0 2.4,0 2.4,0 2.4,0 2.4,0 2.4,0 2.4,0 2.4,0 2.4,0 2.4,0 2.4,0 2.4,0 2.4,0 2.4,0 2.4,0 2.4,0 2.4,0 2.4,0 2.4,0 2.4,0 2.4,0 2.4,0 2.4,0 2.4,0 2.4,0 2.4,0 2.4,0 2.4,0 2.4,0 2.4,0 2.4,0 2.4,0 2.4,0 2.4,0 2.4,0 2.4,0 2.4,0 2.4,0 2.4,0 2.4,0 2.4,0 2.4,0 2.4,0 2.4,0 2.4,0" />
    <text
       id="text100"
       style="font-size:10px;font-weight:normal;text-anchor:middle;fill:#000000;stroke:none;font-family:sanserif"
       transform="matrix(0,-1,1,0,0,0)"
       y="74.59491"
       x="-446.14349">SLIP_WALL</text>
    <path
       id="path102"
       style="fill:none;stroke:#000000;stroke-width:0.70999998;stroke-linecap:round"
       d="m 78.24,481.89 0,-2.3 0,-2.3 0,-2.29 0,-2.3 0,-2.3 0,-2.3 0,-2.29 0,-2.3 0,-2.3 0,-2.3 0,-2.29 0,-2.3 0,-2.3 0,-2.3 0,-2.29 0,-2.3 0,-2.3 0,-2.3 0,-2.29 0,-2.3 0,-2.3 0,-2.3 0,-2.29 0,-2.3 0,-2.3 0,-2.3 0,-2.29 0,-2.3 0,-2.3 0,-2.3" />
    <text
       id="text104"
       style="font-size:10px;font-weight:normal;text-anchor:middle;fill:#000000;stroke:none;font-family:sanserif"
       y="462.3428"
       x="579.88739">supersonic-region</text>
    <text
       id="text106"
       style="font-size:10px;font-weight:normal;text-anchor:middle;fill:#000000;stroke:none;font-family:sanserif"
       transform="matrix(0.96592583,-0.25881905,0.25881905,0.96592583,0,0)"
       y="563.52496"
       x="445.84662">SLIP_WALL</text>
    <path
       id="path108"
       style="fill:none;stroke:#000000;stroke-width:0.70999998;stroke-linecap:round"
       d="m 510.24,448.41 2.23,-0.04 2.22,-0.11 2.22,-0.18 2.22,-0.26 2.2,-0.34 2.19,-0.4 2.18,-0.48 2.16,-0.55 2.15,-0.58 2.16,-0.57 2.15,-0.58 2.15,-0.58 2.16,-0.58 2.15,-0.57 2.15,-0.58 2.16,-0.58 2.15,-0.57 2.15,-0.58 2.16,-0.58 2.15,-0.57 2.15,-0.58 2.16,-0.58 2.15,-0.58 2.15,-0.57 2.16,-0.58 2.15,-0.58 2.15,-0.57 2.16,-0.58 2.15,-0.58 2.16,-0.57 2.15,-0.58 2.15,-0.58 2.16,-0.58 2.15,-0.57 2.15,-0.58 2.16,-0.58 2.15,-0.57 2.15,-0.58 2.16,-0.58 2.15,-0.57 2.15,-0.58 2.16,-0.58 2.15,-0.58 2.15,-0.57 2.16,-0.58 2.15,-0.58 2.15,-0.57 2.16,-0.58 2.15,-0.58 2.15,-0.57 2.16,-0.58 2.15,-0.58 2.15,-0.58 2.16,-0.57 2.15,-0.58 2.15,-0.58 2.16,-0.57 2.15,-0.58 2.15,-0.58 2.16,-0.57" />
    <text
       id="text110"
       style="font-size:10px;font-weight:normal;text-anchor:middle;fill:#000000;stroke:none;font-family:sanserif"
       transform="matrix(0,-1,1,0,0,0)"
       y="653.1308"
       x="-448.96997">EXTRAPOLATE_OUT</text>
    <path
       id="path112"
       style="fill:none;stroke:#000000;stroke-width:0.70999998;stroke-linecap:round"
       d="m 639.84,481.89 0,-2.2 0,-2.19 0,-2.19 0,-2.2 0,-2.19 0,-2.2 0,-2.19 0,-2.2 0,-2.19 0,-2.2 0,-2.19 0,-2.2 0,-2.19 0,-2.2 0,-2.19 0,-2.2 0,-2.19 0,-2.2 0,-2.19 0,-2.2 0,-2.19 0,-2.2 0,-2.19 0,-2.2 0,-2.19 0,-2.2 0,-2.19 0,-2.19 0,-2.2 0,-2.19" />
    <text
       id="text114"
       style="font-size:10px;font-weight:normal;text-anchor:middle;fill:#000000;stroke:none;font-family:sanserif"
       y="491.38342"
       x="578.36267">SLIP_WALL</text>
    <path
       id="path116"
       style="fill:none;stroke:#000000;stroke-width:0.70999998;stroke-linecap:round"
       d="m 510.24,481.89 2.16,0 2.16,0 2.16,0 2.16,0 2.16,0 2.16,0 2.16,0 2.16,0 2.16,0 2.16,0 2.16,0 2.16,0 2.16,0 2.16,0 2.16,0 2.16,0 2.16,0 2.16,0 2.16,0 2.16,0 2.16,0 2.16,0 2.16,0 2.16,0 2.16,0 2.16,0 2.16,0 2.16,0 2.16,0 2.16,0 2.16,0 2.16,0 2.16,0 2.16,0 2.16,0 2.16,0 2.16,0 2.16,0 2.16,0 2.16,0 2.16,0 2.16,0 2.16,0 2.16,0 2.16,0 2.16,0 2.16,0 2.16,0 2.16,0 2.16,0 2.16,0 2.16,0 2.16,0 2.16,0 2.16,0 2.16,0 2.16,0 2.16,0 2.16,0 2.16,0" />
    <path
       id="path118"
       style="fill:none;stroke:#000000;stroke-width:0.70999998;stroke-linecap:round;stroke-dasharray:5.67, 5.67"
       d="m 510.24,481.89 0,-1.12 0,-1.11 0,-1.12 0,-1.11 0,-1.12 0,-1.12 0,-1.11 0,-1.12 0,-1.11 0,-1.12 0,-1.12 0,-1.11 0,-1.12 0,-1.11 0,-1.12 0,-1.12 0,-1.11 0,-1.12 0,-1.11 0,-1.12 0,-1.12 0,-1.11 0,-1.12 0,-1.11 0,-1.12 0,-1.12 0,-1.11 0,-1.12 0,-1.11 0,-1.12" />
  </g>
  <!-- end of drawing -->
</svg>
