<?xml version="1.0" encoding="UTF-8" standalone="no"?>
<svg
   xmlns:dc="http://purl.org/dc/elements/1.1/"
   xmlns:cc="http://creativecommons.org/ns#"
   xmlns:rdf="http://www.w3.org/1999/02/22-rdf-syntax-ns#"
   xmlns:svg="http://www.w3.org/2000/svg"
   xmlns="http://www.w3.org/2000/svg"
   xmlns:sodipodi="http://sodipodi.sourceforge.net/DTD/sodipodi-0.dtd"
   xmlns:inkscape="http://www.inkscape.org/namespaces/inkscape"
   width="566.93"
   height="566.93"
   version="1.0"
   id="svg2"
   inkscape:version="0.47pre4 r22446"
   sodipodi:docname="lehr-layout.pdf">
  <metadata
     id="metadata136">
    <rdf:RDF>
      <cc:Work
         rdf:about="">
        <dc:format>image/svg+xml</dc:format>
        <dc:type
           rdf:resource="http://purl.org/dc/dcmitype/StillImage" />
        <dc:title>Lehr experiment M=4.79</dc:title>
      </cc:Work>
    </rdf:RDF>
  </metadata>
  <defs
     id="defs134">
    <inkscape:perspective
       sodipodi:type="inkscape:persp3d"
       inkscape:vp_x="0 : 283.465 : 1"
       inkscape:vp_y="0 : 1000 : 0"
       inkscape:vp_z="566.92999 : 283.465 : 1"
       inkscape:persp3d-origin="283.465 : 188.97666 : 1"
       id="perspective138" />
  </defs>
  <sodipodi:namedview
     pagecolor="#ffffff"
     bordercolor="#666666"
     borderopacity="1"
     objecttolerance="10"
     gridtolerance="10"
     guidetolerance="10"
     inkscape:pageopacity="0"
     inkscape:pageshadow="2"
     inkscape:window-width="1159"
     inkscape:window-height="791"
     id="namedview132"
     showgrid="false"
     inkscape:zoom="1.5963918"
     inkscape:cx="208.94705"
     inkscape:cy="259.52499"
     inkscape:window-x="0"
     inkscape:window-y="25"
     inkscape:window-maximized="0"
     inkscape:current-layer="svg2" />
  <title
     id="title4">Lehr experiment M=4.79</title>
  <desc
     id="desc6">SVG file written by e3prep.py</desc>
  <!-- drawing begins here -->
  <line
     x1="94.49"
     y1="450.39"
     x2="346.46"
     y2="450.39"
     style="stroke:black;stroke-width:1.42;stroke-linecap:round;fill:none"
     id="line8" />
  <text
     x="220.47"
     y="475.91"
     style="font-size:10;text-anchor:start;fill:black;stroke:none;font-weight:normal;font-family:sanserif"
     id="text10">x</text>
  <line
     x1="94.49"
     y1="450.39"
     x2="94.49"
     y2="444.72"
     style="stroke:black;stroke-width:1.42;stroke-linecap:round;fill:none"
     id="line12" />
  <text
     x="94.49"
     y="464.57"
     style="font-size:10;text-anchor:middle;fill:black;stroke:none;font-weight:normal;font-family:sanserif"
     id="text14">-0.015</text>
  <line
     x1="157.48"
     y1="450.39"
     x2="157.48"
     y2="444.72"
     style="stroke:black;stroke-width:1.42;stroke-linecap:round;fill:none"
     id="line16" />
  <text
     x="157.48"
     y="464.57"
     style="font-size:10;text-anchor:middle;fill:black;stroke:none;font-weight:normal;font-family:sanserif"
     id="text18">-0.01</text>
  <line
     x1="220.47"
     y1="450.39"
     x2="220.47"
     y2="444.72"
     style="stroke:black;stroke-width:1.42;stroke-linecap:round;fill:none"
     id="line20" />
  <text
     x="220.47"
     y="464.57"
     style="font-size:10;text-anchor:middle;fill:black;stroke:none;font-weight:normal;font-family:sanserif"
     id="text22">-0.005</text>
  <line
     x1="283.46"
     y1="450.39"
     x2="283.46"
     y2="444.72"
     style="stroke:black;stroke-width:1.42;stroke-linecap:round;fill:none"
     id="line24" />
  <text
     x="283.46"
     y="464.57"
     style="font-size:10;text-anchor:middle;fill:black;stroke:none;font-weight:normal;font-family:sanserif"
     id="text26">0</text>
  <line
     x1="346.46"
     y1="450.39"
     x2="346.46"
     y2="444.72"
     style="stroke:black;stroke-width:1.42;stroke-linecap:round;fill:none"
     id="line28" />
  <text
     x="346.46"
     y="464.57"
     style="font-size:10;text-anchor:middle;fill:black;stroke:none;font-weight:normal;font-family:sanserif"
     id="text30">0.005</text>
  <line
     x1="94.49"
     y1="425.20"
     x2="94.49"
     y2="173.23"
     style="stroke:black;stroke-width:1.42;stroke-linecap:round;fill:none"
     id="line32" />
  <text
     x="64.293045"
     y="266.3309"
     style="font-size:10px;font-weight:normal;text-anchor:end;fill:#000000;stroke:none;font-family:sanserif"
     id="text34">y</text>
  <line
     x1="94.49"
     y1="425.20"
     x2="100.16"
     y2="425.20"
     style="stroke:black;stroke-width:1.42;stroke-linecap:round;fill:none"
     id="line36" />
  <text
     x="85.98"
     y="425.20"
     style="font-size:10;text-anchor:end;fill:black;stroke:none;font-weight:normal;font-family:sanserif"
     id="text38">0</text>
  <line
     x1="94.49"
     y1="362.20"
     x2="100.16"
     y2="362.20"
     style="stroke:black;stroke-width:1.42;stroke-linecap:round;fill:none"
     id="line40" />
  <text
     x="85.98"
     y="362.20"
     style="font-size:10;text-anchor:end;fill:black;stroke:none;font-weight:normal;font-family:sanserif"
     id="text42">0.005</text>
  <line
     x1="94.49"
     y1="299.21"
     x2="100.16"
     y2="299.21"
     style="stroke:black;stroke-width:1.42;stroke-linecap:round;fill:none"
     id="line44" />
  <text
     x="85.98"
     y="299.21"
     style="font-size:10;text-anchor:end;fill:black;stroke:none;font-weight:normal;font-family:sanserif"
     id="text46">0.01</text>
  <line
     x1="94.49"
     y1="236.22"
     x2="100.16"
     y2="236.22"
     style="stroke:black;stroke-width:1.42;stroke-linecap:round;fill:none"
     id="line48" />
  <text
     x="85.98"
     y="236.22"
     style="font-size:10;text-anchor:end;fill:black;stroke:none;font-weight:normal;font-family:sanserif"
     id="text50">0.015</text>
  <line
     x1="94.49"
     y1="173.23"
     x2="100.16"
     y2="173.23"
     style="stroke:black;stroke-width:1.42;stroke-linecap:round;fill:none"
     id="line52" />
  <text
     x="85.98"
     y="173.23"
     style="font-size:10;text-anchor:end;fill:black;stroke:none;font-weight:normal;font-family:sanserif"
     id="text54">0.02</text>
  <!-- There are 7 nodes
 -->
  <circle
     cx="283.46"
     cy="425.20"
     r="2.83"
     style="fill:black"
     id="circle56" />
  <text
     x="292.47079"
     y="421.45895"
     style="font-size:10px;font-weight:normal;text-anchor:end;fill:#000000;stroke:none;font-family:sanserif"
     id="text58">a</text>
  <circle
     cx="188.98"
     cy="425.20"
     r="2.83"
     style="fill:black"
     id="circle60" />
  <text
     x="199.63867"
     y="424.15631"
     style="font-size:10px;font-weight:normal;text-anchor:end;fill:#000000;stroke:none;font-family:sanserif"
     id="text62">b</text>
  <circle
     cx="283.46"
     cy="330.71"
     r="2.83"
     style="fill:black"
     id="circle64" />
  <text
     x="292.45428"
     y="328.34213"
     style="font-size:10px;font-weight:normal;text-anchor:end;fill:#000000;stroke:none;font-family:sanserif"
     id="text66">c</text>
  <circle
     cx="141.73"
     cy="425.20"
     r="2.83"
     style="fill:black"
     id="circle68" />
  <circle
     cx="141.73"
     cy="330.71"
     r="2.83"
     style="fill:black"
     id="circle70" />
  <circle
     cx="188.98"
     cy="236.22"
     r="2.83"
     style="fill:black"
     id="circle72" />
  <circle
     cx="283.46"
     cy="141.73"
     r="2.83"
     style="fill:black"
     id="circle74" />
  <!-- There are 4 blocks
 -->
  <!-- Render block 0
 -->
  <text
     x="-298.58649"
     y="270.69308"
     style="font-size:10px;font-weight:normal;text-anchor:middle;fill:#000000;stroke:none;font-family:sanserif"
     id="text76"
     transform="matrix(0.30901699,-0.95105652,0.95105652,0.30901699,0,0)">blk-0-0</text>
  <path
     d="M 177.17,283.46 L 177.36,283.84 L 177.56,284.21 L 177.76,284.59 L 177.96,284.96 L 178.15,285.34 L 178.35,285.71 L 178.55,286.09 L 178.74,286.46 L 178.94,286.84 L 179.14,287.21 L 179.34,287.59 L 179.53,287.96 L 179.73,288.33 L 179.93,288.71 L 180.13,289.08 L 180.32,289.46 L 180.52,289.83 L 180.72,290.21 L 180.92,290.58 L 181.11,290.96 L 181.31,291.33 L 181.51,291.71 L 181.71,292.08 L 181.90,292.45 L 182.10,292.83 L 182.30,293.20 L 182.50,293.58 L 182.69,293.95 L 182.89,294.33 L 183.09,294.70 L 183.29,295.08 L 183.48,295.45 L 183.68,295.83 L 183.88,296.20 L 184.08,296.58 L 184.27,296.95 L 184.47,297.32 L 184.67,297.70 L 184.87,298.07 L 185.06,298.45 L 185.26,298.82 L 185.46,299.20 L 185.65,299.57 L 185.85,299.95 L 186.05,300.32 L 186.25,300.70 L 186.44,301.07 L 186.64,301.45 L 186.84,301.82 L 187.04,302.19 L 187.23,302.57 L 187.43,302.94 L 187.63,303.32 L 187.83,303.69 L 188.02,304.07 L 188.22,304.44 L 188.42,304.82 L 188.62,305.19 L 188.81,305.57 L 189.01,305.94 L 189.21,306.31 L 189.41,306.69 L 189.60,307.06 L 189.80,307.44 L 190.00,307.81 L 190.20,308.19 L 190.39,308.56 L 190.59,308.94 L 190.79,309.31 L 190.99,309.69 L 191.18,310.06 L 191.38,310.44 L 191.58,310.81 L 191.78,311.18 L 191.97,311.56 L 192.17,311.93 L 192.37,312.31 L 192.56,312.68 L 192.76,313.06 L 192.96,313.43 L 193.16,313.81 L 193.35,314.18 L 193.55,314.56 L 193.75,314.93 L 193.95,315.31 L 194.14,315.68 L 194.34,316.05 L 194.54,316.43 L 194.74,316.80 L 194.93,317.18 L 195.13,317.55 L 195.33,317.93 L 195.53,318.30 L 195.72,318.68 L 195.92,319.05 L 196.12,319.43 L 196.32,319.80 L 196.51,320.17 L 196.71,320.55 L 196.91,320.92"
     style="stroke:black;stroke-width:0.71;stroke-linecap:round;fill:none;stroke-dasharray: 5.67 5.67"
     id="path78" />
  <path
     d="M 165.35,425.20 L 165.36,424.48 L 165.36,423.76 L 165.37,423.04 L 165.38,422.32 L 165.39,421.60 L 165.41,420.88 L 165.42,420.16 L 165.45,419.44 L 165.47,418.72 L 165.50,418.00 L 165.53,417.28 L 165.56,416.56 L 165.60,415.84 L 165.64,415.12 L 165.68,414.40 L 165.72,413.68 L 165.77,412.97 L 165.82,412.25 L 165.87,411.53 L 165.93,410.81 L 165.99,410.09 L 166.05,409.37 L 166.11,408.65 L 166.18,407.94 L 166.25,407.22 L 166.32,406.50 L 166.40,405.78 L 166.48,405.07 L 166.56,404.35 L 166.64,403.63 L 166.73,402.92 L 166.82,402.20 L 166.92,401.48 L 167.01,400.77 L 167.11,400.05 L 167.21,399.34 L 167.32,398.62 L 167.42,397.91 L 167.53,397.19 L 167.65,396.48 L 167.76,395.76 L 167.88,395.05 L 168.00,394.33 L 168.13,393.62 L 168.25,392.91 L 168.38,392.20 L 168.52,391.48 L 168.65,390.77 L 168.79,390.06 L 168.93,389.35 L 169.08,388.64 L 169.22,387.93 L 169.37,387.21 L 169.53,386.50 L 169.68,385.79 L 169.84,385.09 L 170.00,384.38 L 170.17,383.67 L 170.33,382.96 L 170.50,382.25 L 170.67,381.54 L 170.85,380.84 L 171.03,380.13 L 171.21,379.42 L 171.39,378.72 L 171.58,378.01 L 171.77,377.31 L 171.96,376.60 L 172.15,375.90 L 172.35,375.20 L 172.55,374.49 L 172.75,373.79 L 172.96,373.09 L 173.17,372.39 L 173.38,371.68 L 173.59,370.98 L 173.81,370.28 L 174.03,369.58 L 174.25,368.88 L 174.48,368.19 L 174.71,367.49 L 174.94,366.79 L 175.17,366.09 L 175.41,365.40 L 175.65,364.70 L 175.89,364.00 L 176.13,363.31 L 176.38,362.62 L 176.63,361.92 L 176.88,361.23 L 177.14,360.54 L 177.40,359.84 L 177.66,359.15 L 177.92,358.46 L 178.19,357.77 L 178.45,357.08 L 178.73,356.39 L 179.00,355.71 L 179.28,355.02 L 179.56,354.33 L 179.84,353.64 L 180.13,352.96 L 180.41,352.27 L 180.70,351.59 L 181.00,350.91 L 181.29,350.22 L 181.59,349.54 L 181.89,348.86 L 182.20,348.18 L 182.50,347.50 L 182.81,346.82 L 183.12,346.14 L 183.44,345.46 L 183.76,344.78 L 184.08,344.11 L 184.40,343.43 L 184.72,342.76 L 185.05,342.08 L 185.38,341.41 L 185.72,340.73 L 186.05,340.06 L 186.39,339.39 L 186.73,338.72 L 187.07,338.05 L 187.42,337.38 L 187.77,336.71 L 188.12,336.05 L 188.47,335.38 L 188.83,334.71 L 189.19,334.05 L 189.55,333.38 L 189.92,332.72 L 190.28,332.06 L 190.65,331.40 L 191.02,330.73 L 191.40,330.07 L 191.78,329.42 L 192.16,328.76 L 192.54,328.10 L 192.92,327.44 L 193.31,326.79 L 193.70,326.13 L 194.09,325.48 L 194.49,324.82 L 194.88,324.17 L 195.28,323.52 L 195.69,322.87 L 196.09,322.22 L 196.50,321.57 L 196.91,320.92"
     style="stroke:black;stroke-width:0.71;stroke-linecap:round;fill:none;stroke-dasharray: 5.67 5.67"
     id="path80" />
  <text
     x="166.58466"
     y="438.35468"
     style="font-size:10px;font-weight:normal;text-anchor:middle;fill:#000000;stroke:none;font-family:sanserif"
     id="text82">SLIP_WALL</text>
  <path
     d="M 141.73,425.20 L 141.97,425.20 L 142.20,425.20 L 142.44,425.20 L 142.68,425.20 L 142.91,425.20 L 143.15,425.20 L 143.39,425.20 L 143.62,425.20 L 143.86,425.20 L 144.09,425.20 L 144.33,425.20 L 144.57,425.20 L 144.80,425.20 L 145.04,425.20 L 145.28,425.20 L 145.51,425.20 L 145.75,425.20 L 145.98,425.20 L 146.22,425.20 L 146.46,425.20 L 146.69,425.20 L 146.93,425.20 L 147.17,425.20 L 147.40,425.20 L 147.64,425.20 L 147.87,425.20 L 148.11,425.20 L 148.35,425.20 L 148.58,425.20 L 148.82,425.20 L 149.06,425.20 L 149.29,425.20 L 149.53,425.20 L 149.76,425.20 L 150.00,425.20 L 150.24,425.20 L 150.47,425.20 L 150.71,425.20 L 150.94,425.20 L 151.18,425.20 L 151.42,425.20 L 151.65,425.20 L 151.89,425.20 L 152.13,425.20 L 152.36,425.20 L 152.60,425.20 L 152.83,425.20 L 153.07,425.20 L 153.31,425.20 L 153.54,425.20 L 153.78,425.20 L 154.02,425.20 L 154.25,425.20 L 154.49,425.20 L 154.72,425.20 L 154.96,425.20 L 155.20,425.20 L 155.43,425.20 L 155.67,425.20 L 155.91,425.20 L 156.14,425.20 L 156.38,425.20 L 156.61,425.20 L 156.85,425.20 L 157.09,425.20 L 157.32,425.20 L 157.56,425.20 L 157.80,425.20 L 158.03,425.20 L 158.27,425.20 L 158.50,425.20 L 158.74,425.20 L 158.98,425.20 L 159.21,425.20 L 159.45,425.20 L 159.69,425.20 L 159.92,425.20 L 160.16,425.20 L 160.39,425.20 L 160.63,425.20 L 160.87,425.20 L 161.10,425.20 L 161.34,425.20 L 161.57,425.20 L 161.81,425.20 L 162.05,425.20 L 162.28,425.20 L 162.52,425.20 L 162.76,425.20 L 162.99,425.20 L 163.23,425.20 L 163.46,425.20 L 163.70,425.20 L 163.94,425.20 L 164.17,425.20 L 164.41,425.20 L 164.65,425.20 L 164.88,425.20 L 165.12,425.20 L 165.35,425.20"
     style="stroke:black;stroke-width:0.71;stroke-linecap:round;fill:none"
     id="path84" />
  <text
     x="-335.72495"
     y="203.43661"
     transform="matrix(0.17278871,-0.98495891,0.98495891,0.17278871,0,0)"
     style="font-size:10px;font-weight:normal;text-anchor:middle;fill:#000000;stroke:none;font-family:sanserif"
     id="text86">SUP_IN</text>
  <path
     d="M 141.73,425.20 L 141.73,424.25 L 141.74,423.31 L 141.75,422.36 L 141.76,421.42 L 141.77,420.47 L 141.79,419.53 L 141.81,418.58 L 141.83,417.64 L 141.86,416.69 L 141.89,415.75 L 141.92,414.80 L 141.96,413.86 L 142.00,412.91 L 142.04,411.97 L 142.09,411.02 L 142.14,410.08 L 142.19,409.13 L 142.24,408.19 L 142.30,407.24 L 142.36,406.30 L 142.43,405.35 L 142.49,404.41 L 142.57,403.46 L 142.64,402.52 L 142.72,401.57 L 142.80,400.63 L 142.88,399.69 L 142.97,398.74 L 143.06,397.80 L 143.15,396.85 L 143.25,395.91 L 143.34,394.96 L 143.45,394.02 L 143.55,393.07 L 143.66,392.13 L 143.77,391.18 L 143.89,390.24 L 144.01,389.29 L 144.13,388.35 L 144.25,387.40 L 144.38,386.46 L 144.51,385.51 L 144.64,384.57 L 144.78,383.62 L 144.92,382.68 L 145.06,381.73 L 145.21,380.79 L 145.36,379.84 L 145.51,378.90 L 145.67,377.95 L 145.83,377.01 L 145.99,376.06 L 146.16,375.12 L 146.32,374.17 L 146.50,373.23 L 146.67,372.28 L 146.85,371.34 L 147.03,370.39 L 147.21,369.45 L 147.40,368.50 L 147.59,367.56 L 147.79,366.61 L 147.98,365.67 L 148.18,364.72 L 148.39,363.78 L 148.59,362.83 L 148.80,361.89 L 149.01,360.94 L 149.23,360.00 L 149.45,359.06 L 149.67,358.11 L 149.90,357.17 L 150.12,356.22 L 150.36,355.28 L 150.59,354.33 L 150.83,353.39 L 151.07,352.44 L 151.31,351.50 L 151.56,350.55 L 151.81,349.61 L 152.06,348.66 L 152.32,347.72 L 152.58,346.77 L 152.84,345.83 L 153.11,344.88 L 153.38,343.94 L 153.65,342.99 L 153.93,342.05 L 154.21,341.10 L 154.49,340.16 L 154.77,339.21 L 155.06,338.27 L 155.35,337.32 L 155.65,336.38 L 155.94,335.43 L 156.25,334.49 L 156.55,333.54 L 156.86,332.60 L 157.17,331.65 L 157.48,330.71 L 157.80,329.76 L 158.12,328.82 L 158.44,327.87 L 158.77,326.93 L 159.09,325.98 L 159.43,325.04 L 159.76,324.09 L 160.10,323.15 L 160.44,322.20 L 160.79,321.26 L 161.14,320.31 L 161.49,319.37 L 161.84,318.43 L 162.20,317.48 L 162.56,316.54 L 162.92,315.59 L 163.29,314.65 L 163.66,313.70 L 164.03,312.76 L 164.41,311.81 L 164.79,310.87 L 165.17,309.92 L 165.56,308.98 L 165.95,308.03 L 166.34,307.09 L 166.73,306.14 L 167.13,305.20 L 167.53,304.25 L 167.94,303.31 L 168.35,302.36 L 168.76,301.42 L 169.17,300.47 L 169.59,299.53 L 170.01,298.58 L 170.43,297.64 L 170.86,296.69 L 171.29,295.75 L 171.72,294.80 L 172.16,293.86 L 172.60,292.91 L 173.04,291.97 L 173.49,291.02 L 173.94,290.08 L 174.39,289.13 L 174.84,288.19 L 175.30,287.24 L 175.76,286.30 L 176.23,285.35 L 176.69,284.41 L 177.17,283.46"
     style="stroke:black;stroke-width:0.71;stroke-linecap:round;fill:none"
     id="path88" />
  <!-- Render block 1
 -->
  <text
     x="30.91851"
     y="338.33759"
     style="font-size:10px;font-weight:normal;text-anchor:middle;fill:#000000;stroke:none;font-family:sanserif"
     id="text90"
     transform="matrix(0.78801075,-0.61566148,0.61566148,0.78801075,0,0)">blk-0-1</text>
  <text
     x="241.74507"
     y="-290.35052"
     transform="matrix(0,1,-1,0,0,0)"
     style="font-size:10px;font-weight:normal;text-anchor:middle;fill:#000000;stroke:none;font-family:sanserif"
     id="text92">EXTRAPOLATE_OUT</text>
  <path
     d="M 283.46,141.73 L 283.46,142.68 L 283.46,143.62 L 283.46,144.57 L 283.46,145.51 L 283.46,146.46 L 283.46,147.40 L 283.46,148.35 L 283.46,149.29 L 283.46,150.24 L 283.46,151.18 L 283.46,152.13 L 283.46,153.07 L 283.46,154.02 L 283.46,154.96 L 283.46,155.91 L 283.46,156.85 L 283.46,157.80 L 283.46,158.74 L 283.46,159.69 L 283.46,160.63 L 283.46,161.57 L 283.46,162.52 L 283.46,163.46 L 283.46,164.41 L 283.46,165.35 L 283.46,166.30 L 283.46,167.24 L 283.46,168.19 L 283.46,169.13 L 283.46,170.08 L 283.46,171.02 L 283.46,171.97 L 283.46,172.91 L 283.46,173.86 L 283.46,174.80 L 283.46,175.75 L 283.46,176.69 L 283.46,177.64 L 283.46,178.58 L 283.46,179.53 L 283.46,180.47 L 283.46,181.42 L 283.46,182.36 L 283.46,183.31 L 283.46,184.25 L 283.46,185.20 L 283.46,186.14 L 283.46,187.09 L 283.46,188.03 L 283.46,188.98 L 283.46,189.92 L 283.46,190.87 L 283.46,191.81 L 283.46,192.76 L 283.46,193.70 L 283.46,194.65 L 283.46,195.59 L 283.46,196.54 L 283.46,197.48 L 283.46,198.43 L 283.46,199.37 L 283.46,200.31 L 283.46,201.26 L 283.46,202.20 L 283.46,203.15 L 283.46,204.09 L 283.46,205.04 L 283.46,205.98 L 283.46,206.93 L 283.46,207.87 L 283.46,208.82 L 283.46,209.76 L 283.46,210.71 L 283.46,211.65 L 283.46,212.60 L 283.46,213.54 L 283.46,214.49 L 283.46,215.43 L 283.46,216.38 L 283.46,217.32 L 283.46,218.27 L 283.46,219.21 L 283.46,220.16 L 283.46,221.10 L 283.46,222.05 L 283.46,222.99 L 283.46,223.94 L 283.46,224.88 L 283.46,225.83 L 283.46,226.77 L 283.46,227.72 L 283.46,228.66 L 283.46,229.61 L 283.46,230.55 L 283.46,231.50 L 283.46,232.44 L 283.46,233.39 L 283.46,234.33 L 283.46,235.28 L 283.46,236.22"
     style="stroke:black;stroke-width:0.71;stroke-linecap:round;fill:none"
     id="path94" />
  <path
     d="M 196.91,320.92 L 197.32,320.28 L 197.74,319.63 L 198.15,318.99 L 198.57,318.34 L 199.00,317.70 L 199.42,317.06 L 199.85,316.42 L 200.28,315.77 L 200.71,315.14 L 201.14,314.50 L 201.58,313.86 L 202.02,313.22 L 202.46,312.59 L 202.91,311.95 L 203.35,311.32 L 203.80,310.69 L 204.25,310.06 L 204.71,309.42 L 205.16,308.79 L 205.62,308.17 L 206.08,307.54 L 206.55,306.91 L 207.01,306.29 L 207.48,305.66 L 207.95,305.04 L 208.43,304.42 L 208.90,303.79 L 209.38,303.17 L 209.86,302.55 L 210.34,301.94 L 210.83,301.32 L 211.31,300.70 L 211.80,300.09 L 212.29,299.47 L 212.79,298.86 L 213.28,298.25 L 213.78,297.64 L 214.28,297.03 L 214.79,296.42 L 215.29,295.81 L 215.80,295.20 L 216.31,294.60 L 216.82,293.99 L 217.34,293.39 L 217.85,292.79 L 218.37,292.19 L 218.89,291.59 L 219.42,290.99 L 219.94,290.39 L 220.47,289.79 L 221.00,289.20 L 221.54,288.60 L 222.07,288.01 L 222.61,287.42 L 223.15,286.83 L 223.69,286.24 L 224.23,285.65 L 224.78,285.06 L 225.32,284.47 L 225.87,283.89 L 226.43,283.31 L 226.98,282.72 L 227.54,282.14 L 228.10,281.56 L 228.66,280.98 L 229.22,280.40 L 229.78,279.82 L 230.35,279.25 L 230.92,278.67 L 231.49,278.10 L 232.07,277.53 L 232.64,276.96 L 233.22,276.39 L 233.80,275.82 L 234.38,275.25 L 234.97,274.68 L 235.55,274.12 L 236.14,273.55 L 236.73,272.99 L 237.32,272.43 L 237.92,271.87 L 238.51,271.31 L 239.11,270.75 L 239.71,270.19 L 240.31,269.64 L 240.92,269.08 L 241.52,268.53 L 242.13,267.98 L 242.74,267.43 L 243.35,266.88 L 243.97,266.33 L 244.58,265.78 L 245.20,265.24 L 245.82,264.69 L 246.44,264.15 L 247.07,263.61 L 247.69,263.07 L 248.32,262.53 L 248.95,261.99 L 249.58,261.45 L 250.22,260.92 L 250.85,260.38 L 251.49,259.85 L 252.13,259.32 L 252.77,258.79 L 253.41,258.26 L 254.06,257.73 L 254.71,257.20 L 255.35,256.68 L 256.00,256.15 L 256.66,255.63 L 257.31,255.11 L 257.97,254.58 L 258.62,254.07 L 259.28,253.55 L 259.95,253.03 L 260.61,252.51 L 261.27,252.00 L 261.94,251.49 L 262.61,250.98 L 263.28,250.46 L 263.95,249.96 L 264.63,249.45 L 265.30,248.94 L 265.98,248.44 L 266.66,247.93 L 267.34,247.43 L 268.02,246.93 L 268.71,246.43 L 269.39,245.93 L 270.08,245.43 L 270.77,244.93 L 271.46,244.44 L 272.15,243.95 L 272.85,243.45 L 273.54,242.96 L 274.24,242.47 L 274.94,241.98 L 275.64,241.50 L 276.35,241.01 L 277.05,240.52 L 277.76,240.04 L 278.46,239.56 L 279.17,239.08 L 279.89,238.60 L 280.60,238.12 L 281.31,237.64 L 282.03,237.17 L 282.75,236.69 L 283.46,236.22"
     style="stroke:black;stroke-width:0.71;stroke-linecap:round;fill:none;stroke-dasharray: 5.67 5.67"
     id="path96" />
  <path
     d="M 177.17,283.46 L 177.36,283.84 L 177.56,284.21 L 177.76,284.59 L 177.96,284.96 L 178.15,285.34 L 178.35,285.71 L 178.55,286.09 L 178.74,286.46 L 178.94,286.84 L 179.14,287.21 L 179.34,287.59 L 179.53,287.96 L 179.73,288.33 L 179.93,288.71 L 180.13,289.08 L 180.32,289.46 L 180.52,289.83 L 180.72,290.21 L 180.92,290.58 L 181.11,290.96 L 181.31,291.33 L 181.51,291.71 L 181.71,292.08 L 181.90,292.45 L 182.10,292.83 L 182.30,293.20 L 182.50,293.58 L 182.69,293.95 L 182.89,294.33 L 183.09,294.70 L 183.29,295.08 L 183.48,295.45 L 183.68,295.83 L 183.88,296.20 L 184.08,296.58 L 184.27,296.95 L 184.47,297.32 L 184.67,297.70 L 184.87,298.07 L 185.06,298.45 L 185.26,298.82 L 185.46,299.20 L 185.65,299.57 L 185.85,299.95 L 186.05,300.32 L 186.25,300.70 L 186.44,301.07 L 186.64,301.45 L 186.84,301.82 L 187.04,302.19 L 187.23,302.57 L 187.43,302.94 L 187.63,303.32 L 187.83,303.69 L 188.02,304.07 L 188.22,304.44 L 188.42,304.82 L 188.62,305.19 L 188.81,305.57 L 189.01,305.94 L 189.21,306.31 L 189.41,306.69 L 189.60,307.06 L 189.80,307.44 L 190.00,307.81 L 190.20,308.19 L 190.39,308.56 L 190.59,308.94 L 190.79,309.31 L 190.99,309.69 L 191.18,310.06 L 191.38,310.44 L 191.58,310.81 L 191.78,311.18 L 191.97,311.56 L 192.17,311.93 L 192.37,312.31 L 192.56,312.68 L 192.76,313.06 L 192.96,313.43 L 193.16,313.81 L 193.35,314.18 L 193.55,314.56 L 193.75,314.93 L 193.95,315.31 L 194.14,315.68 L 194.34,316.05 L 194.54,316.43 L 194.74,316.80 L 194.93,317.18 L 195.13,317.55 L 195.33,317.93 L 195.53,318.30 L 195.72,318.68 L 195.92,319.05 L 196.12,319.43 L 196.32,319.80 L 196.51,320.17 L 196.71,320.55 L 196.91,320.92"
     style="stroke:black;stroke-width:0.71;stroke-linecap:round;fill:none;stroke-dasharray: 5.67 5.67"
     id="path98" />
  <text
     x="-30.216368"
     y="299.55399"
     transform="matrix(0.59916334,-0.80062681,0.80062681,0.59916334,0,0)"
     style="font-size:10px;font-weight:normal;text-anchor:middle;fill:#000000;stroke:none;font-family:sanserif"
     id="text100">SUP_IN</text>
  <path
     d="M 177.17,283.46 L 177.64,282.52 L 178.12,281.57 L 178.60,280.63 L 179.08,279.69 L 179.57,278.74 L 180.06,277.80 L 180.55,276.85 L 181.05,275.91 L 181.54,274.96 L 182.05,274.02 L 182.55,273.07 L 183.06,272.13 L 183.57,271.18 L 184.09,270.24 L 184.61,269.29 L 185.13,268.35 L 185.65,267.40 L 186.18,266.46 L 186.71,265.51 L 187.24,264.57 L 187.78,263.62 L 188.32,262.68 L 188.86,261.73 L 189.41,260.79 L 189.96,259.84 L 190.51,258.90 L 191.07,257.95 L 191.63,257.01 L 192.19,256.06 L 192.76,255.12 L 193.32,254.17 L 193.90,253.23 L 194.47,252.28 L 195.05,251.34 L 195.63,250.39 L 196.21,249.45 L 196.80,248.50 L 197.39,247.56 L 197.99,246.61 L 198.58,245.67 L 199.18,244.72 L 199.79,243.78 L 200.39,242.83 L 201.00,241.89 L 201.61,240.94 L 202.23,240.00 L 202.85,239.06 L 203.47,238.11 L 204.10,237.17 L 204.72,236.22 L 205.36,235.28 L 205.99,234.33 L 206.63,233.39 L 207.27,232.44 L 207.91,231.50 L 208.56,230.55 L 209.21,229.61 L 209.86,228.66 L 210.52,227.72 L 211.18,226.77 L 211.84,225.83 L 212.51,224.88 L 213.18,223.94 L 213.85,222.99 L 214.53,222.05 L 215.21,221.10 L 215.89,220.16 L 216.57,219.21 L 217.26,218.27 L 217.95,217.32 L 218.65,216.38 L 219.34,215.43 L 220.05,214.49 L 220.75,213.54 L 221.46,212.60 L 222.17,211.65 L 222.88,210.71 L 223.60,209.76 L 224.32,208.82 L 225.04,207.87 L 225.77,206.93 L 226.49,205.98 L 227.23,205.04 L 227.96,204.09 L 228.70,203.15 L 229.44,202.20 L 230.19,201.26 L 230.94,200.31 L 231.69,199.37 L 232.44,198.43 L 233.20,197.48 L 233.96,196.54 L 234.72,195.59 L 235.49,194.65 L 236.26,193.70 L 237.03,192.76 L 237.81,191.81 L 238.59,190.87 L 239.37,189.92 L 240.16,188.98 L 240.95,188.03 L 241.74,187.09 L 242.53,186.14 L 243.33,185.20 L 244.13,184.25 L 244.94,183.31 L 245.75,182.36 L 246.56,181.42 L 247.37,180.47 L 248.19,179.53 L 249.01,178.58 L 249.83,177.64 L 250.66,176.69 L 251.49,175.75 L 252.32,174.80 L 253.16,173.86 L 254.00,172.91 L 254.84,171.97 L 255.69,171.02 L 256.54,170.08 L 257.39,169.13 L 258.24,168.19 L 259.10,167.24 L 259.96,166.30 L 260.83,165.35 L 261.69,164.41 L 262.57,163.46 L 263.44,162.52 L 264.32,161.57 L 265.20,160.63 L 266.08,159.69 L 266.97,158.74 L 267.86,157.80 L 268.75,156.85 L 269.65,155.91 L 270.54,154.96 L 271.45,154.02 L 272.35,153.07 L 273.26,152.13 L 274.17,151.18 L 275.09,150.24 L 276.01,149.29 L 276.93,148.35 L 277.85,147.40 L 278.78,146.46 L 279.71,145.51 L 280.64,144.57 L 281.58,143.62 L 282.52,142.68 L 283.46,141.73"
     style="stroke:black;stroke-width:0.71;stroke-linecap:round;fill:none"
     id="path102" />
  <!-- Render block 2
 -->
  <text
     x="-266.37885"
     y="327.52896"
     style="font-size:10px;font-weight:normal;text-anchor:middle;fill:#000000;stroke:none;font-family:sanserif"
     id="text104"
     transform="matrix(0.40673664,-0.91354546,0.91354546,0.40673664,0,0)">blk-1-0</text>
  <path
     d="M 196.91,320.92 L 197.11,321.30 L 197.30,321.67 L 197.50,322.05 L 197.70,322.42 L 197.90,322.80 L 198.09,323.17 L 198.29,323.55 L 198.49,323.92 L 198.69,324.30 L 198.88,324.67 L 199.08,325.04 L 199.28,325.42 L 199.47,325.79 L 199.67,326.17 L 199.87,326.54 L 200.07,326.92 L 200.26,327.29 L 200.46,327.67 L 200.66,328.04 L 200.86,328.42 L 201.05,328.79 L 201.25,329.17 L 201.45,329.54 L 201.65,329.91 L 201.84,330.29 L 202.04,330.66 L 202.24,331.04 L 202.44,331.41 L 202.63,331.79 L 202.83,332.16 L 203.03,332.54 L 203.23,332.91 L 203.42,333.29 L 203.62,333.66 L 203.82,334.03 L 204.02,334.41 L 204.21,334.78 L 204.41,335.16 L 204.61,335.53 L 204.81,335.91 L 205.00,336.28 L 205.20,336.66 L 205.40,337.03 L 205.60,337.41 L 205.79,337.78 L 205.99,338.16 L 206.19,338.53 L 206.38,338.90 L 206.58,339.28 L 206.78,339.65 L 206.98,340.03 L 207.17,340.40 L 207.37,340.78 L 207.57,341.15 L 207.77,341.53 L 207.96,341.90 L 208.16,342.28 L 208.36,342.65 L 208.56,343.03 L 208.75,343.40 L 208.95,343.77 L 209.15,344.15 L 209.35,344.52 L 209.54,344.90 L 209.74,345.27 L 209.94,345.65 L 210.14,346.02 L 210.33,346.40 L 210.53,346.77 L 210.73,347.15 L 210.93,347.52 L 211.12,347.89 L 211.32,348.27 L 211.52,348.64 L 211.72,349.02 L 211.91,349.39 L 212.11,349.77 L 212.31,350.14 L 212.51,350.52 L 212.70,350.89 L 212.90,351.27 L 213.10,351.64 L 213.30,352.02 L 213.49,352.39 L 213.69,352.76 L 213.89,353.14 L 214.08,353.51 L 214.28,353.89 L 214.48,354.26 L 214.68,354.64 L 214.87,355.01 L 215.07,355.39 L 215.27,355.76 L 215.47,356.14 L 215.66,356.51 L 215.86,356.89 L 216.06,357.26 L 216.26,357.63 L 216.45,358.01 L 216.65,358.38"
     style="stroke:black;stroke-width:0.71;stroke-linecap:round;fill:none;stroke-dasharray: 5.67 5.67"
     id="path106" />
  <path
     d="M 188.98,425.20 L 188.98,424.70 L 188.98,424.21 L 188.99,423.71 L 189.00,423.22 L 189.01,422.72 L 189.02,422.23 L 189.04,421.73 L 189.06,421.24 L 189.08,420.75 L 189.11,420.25 L 189.13,419.76 L 189.16,419.26 L 189.20,418.77 L 189.23,418.28 L 189.27,417.78 L 189.31,417.29 L 189.35,416.80 L 189.40,416.30 L 189.44,415.81 L 189.49,415.32 L 189.55,414.83 L 189.60,414.34 L 189.66,413.85 L 189.72,413.35 L 189.78,412.86 L 189.85,412.37 L 189.92,411.88 L 189.99,411.39 L 190.06,410.90 L 190.14,410.42 L 190.22,409.93 L 190.30,409.44 L 190.38,408.95 L 190.47,408.46 L 190.56,407.98 L 190.65,407.49 L 190.74,407.01 L 190.84,406.52 L 190.94,406.04 L 191.04,405.55 L 191.15,405.07 L 191.25,404.58 L 191.36,404.10 L 191.47,403.62 L 191.59,403.14 L 191.70,402.66 L 191.82,402.18 L 191.94,401.70 L 192.07,401.22 L 192.20,400.74 L 192.33,400.26 L 192.46,399.79 L 192.59,399.31 L 192.73,398.84 L 192.87,398.36 L 193.01,397.89 L 193.15,397.41 L 193.30,396.94 L 193.45,396.47 L 193.60,396.00 L 193.76,395.53 L 193.91,395.06 L 194.07,394.59 L 194.23,394.12 L 194.40,393.66 L 194.56,393.19 L 194.73,392.73 L 194.90,392.26 L 195.08,391.80 L 195.25,391.34 L 195.43,390.87 L 195.61,390.41 L 195.79,389.95 L 195.98,389.50 L 196.17,389.04 L 196.36,388.58 L 196.55,388.13 L 196.75,387.67 L 196.95,387.22 L 197.15,386.77 L 197.35,386.31 L 197.55,385.86 L 197.76,385.41 L 197.97,384.97 L 198.18,384.52 L 198.40,384.07 L 198.61,383.63 L 198.83,383.18 L 199.05,382.74 L 199.27,382.30 L 199.50,381.86 L 199.73,381.42 L 199.96,380.98 L 200.19,380.55 L 200.43,380.11 L 200.66,379.68 L 200.90,379.24 L 201.15,378.81 L 201.39,378.38 L 201.64,377.95 L 201.88,377.52 L 202.13,377.10 L 202.39,376.67 L 202.64,376.25 L 202.90,375.83 L 203.16,375.41 L 203.42,374.99 L 203.69,374.57 L 203.95,374.15 L 204.22,373.73 L 204.49,373.32 L 204.76,372.91 L 205.04,372.50 L 205.32,372.09 L 205.59,371.68 L 205.88,371.27 L 206.16,370.87 L 206.44,370.46 L 206.73,370.06 L 207.02,369.66 L 207.31,369.26 L 207.61,368.86 L 207.90,368.46 L 208.20,368.07 L 208.50,367.68 L 208.80,367.28 L 209.11,366.89 L 209.41,366.51 L 209.72,366.12 L 210.03,365.73 L 210.35,365.35 L 210.66,364.97 L 210.98,364.59 L 211.29,364.21 L 211.62,363.83 L 211.94,363.46 L 212.26,363.08 L 212.59,362.71 L 212.92,362.34 L 213.25,361.97 L 213.58,361.61 L 213.91,361.24 L 214.25,360.88 L 214.59,360.52 L 214.93,360.16 L 215.27,359.80 L 215.61,359.44 L 215.96,359.09 L 216.30,358.73 L 216.65,358.38"
     style="stroke:black;stroke-width:0.71;stroke-linecap:round;fill:none"
     id="path110" />
  <path
     d="M 165.35,425.20 L 165.59,425.20 L 165.83,425.20 L 166.06,425.20 L 166.30,425.20 L 166.54,425.20 L 166.77,425.20 L 167.01,425.20 L 167.24,425.20 L 167.48,425.20 L 167.72,425.20 L 167.95,425.20 L 168.19,425.20 L 168.43,425.20 L 168.66,425.20 L 168.90,425.20 L 169.13,425.20 L 169.37,425.20 L 169.61,425.20 L 169.84,425.20 L 170.08,425.20 L 170.31,425.20 L 170.55,425.20 L 170.79,425.20 L 171.02,425.20 L 171.26,425.20 L 171.50,425.20 L 171.73,425.20 L 171.97,425.20 L 172.20,425.20 L 172.44,425.20 L 172.68,425.20 L 172.91,425.20 L 173.15,425.20 L 173.39,425.20 L 173.62,425.20 L 173.86,425.20 L 174.09,425.20 L 174.33,425.20 L 174.57,425.20 L 174.80,425.20 L 175.04,425.20 L 175.28,425.20 L 175.51,425.20 L 175.75,425.20 L 175.98,425.20 L 176.22,425.20 L 176.46,425.20 L 176.69,425.20 L 176.93,425.20 L 177.17,425.20 L 177.40,425.20 L 177.64,425.20 L 177.87,425.20 L 178.11,425.20 L 178.35,425.20 L 178.58,425.20 L 178.82,425.20 L 179.06,425.20 L 179.29,425.20 L 179.53,425.20 L 179.76,425.20 L 180.00,425.20 L 180.24,425.20 L 180.47,425.20 L 180.71,425.20 L 180.94,425.20 L 181.18,425.20 L 181.42,425.20 L 181.65,425.20 L 181.89,425.20 L 182.13,425.20 L 182.36,425.20 L 182.60,425.20 L 182.83,425.20 L 183.07,425.20 L 183.31,425.20 L 183.54,425.20 L 183.78,425.20 L 184.02,425.20 L 184.25,425.20 L 184.49,425.20 L 184.72,425.20 L 184.96,425.20 L 185.20,425.20 L 185.43,425.20 L 185.67,425.20 L 185.91,425.20 L 186.14,425.20 L 186.38,425.20 L 186.61,425.20 L 186.85,425.20 L 187.09,425.20 L 187.32,425.20 L 187.56,425.20 L 187.80,425.20 L 188.03,425.20 L 188.27,425.20 L 188.50,425.20 L 188.74,425.20 L 188.98,425.20"
     style="stroke:black;stroke-width:0.71;stroke-linecap:round;fill:none"
     id="path114" />
  <path
     d="M 165.35,425.20 L 165.36,424.48 L 165.36,423.76 L 165.37,423.04 L 165.38,422.32 L 165.39,421.60 L 165.41,420.88 L 165.42,420.16 L 165.45,419.44 L 165.47,418.72 L 165.50,418.00 L 165.53,417.28 L 165.56,416.56 L 165.60,415.84 L 165.64,415.12 L 165.68,414.40 L 165.72,413.68 L 165.77,412.97 L 165.82,412.25 L 165.87,411.53 L 165.93,410.81 L 165.99,410.09 L 166.05,409.37 L 166.11,408.65 L 166.18,407.94 L 166.25,407.22 L 166.32,406.50 L 166.40,405.78 L 166.48,405.07 L 166.56,404.35 L 166.64,403.63 L 166.73,402.92 L 166.82,402.20 L 166.92,401.48 L 167.01,400.77 L 167.11,400.05 L 167.21,399.34 L 167.32,398.62 L 167.42,397.91 L 167.53,397.19 L 167.65,396.48 L 167.76,395.76 L 167.88,395.05 L 168.00,394.33 L 168.13,393.62 L 168.25,392.91 L 168.38,392.20 L 168.52,391.48 L 168.65,390.77 L 168.79,390.06 L 168.93,389.35 L 169.08,388.64 L 169.22,387.93 L 169.37,387.21 L 169.53,386.50 L 169.68,385.79 L 169.84,385.09 L 170.00,384.38 L 170.17,383.67 L 170.33,382.96 L 170.50,382.25 L 170.67,381.54 L 170.85,380.84 L 171.03,380.13 L 171.21,379.42 L 171.39,378.72 L 171.58,378.01 L 171.77,377.31 L 171.96,376.60 L 172.15,375.90 L 172.35,375.20 L 172.55,374.49 L 172.75,373.79 L 172.96,373.09 L 173.17,372.39 L 173.38,371.68 L 173.59,370.98 L 173.81,370.28 L 174.03,369.58 L 174.25,368.88 L 174.48,368.19 L 174.71,367.49 L 174.94,366.79 L 175.17,366.09 L 175.41,365.40 L 175.65,364.70 L 175.89,364.00 L 176.13,363.31 L 176.38,362.62 L 176.63,361.92 L 176.88,361.23 L 177.14,360.54 L 177.40,359.84 L 177.66,359.15 L 177.92,358.46 L 178.19,357.77 L 178.45,357.08 L 178.73,356.39 L 179.00,355.71 L 179.28,355.02 L 179.56,354.33 L 179.84,353.64 L 180.13,352.96 L 180.41,352.27 L 180.70,351.59 L 181.00,350.91 L 181.29,350.22 L 181.59,349.54 L 181.89,348.86 L 182.20,348.18 L 182.50,347.50 L 182.81,346.82 L 183.12,346.14 L 183.44,345.46 L 183.76,344.78 L 184.08,344.11 L 184.40,343.43 L 184.72,342.76 L 185.05,342.08 L 185.38,341.41 L 185.72,340.73 L 186.05,340.06 L 186.39,339.39 L 186.73,338.72 L 187.07,338.05 L 187.42,337.38 L 187.77,336.71 L 188.12,336.05 L 188.47,335.38 L 188.83,334.71 L 189.19,334.05 L 189.55,333.38 L 189.92,332.72 L 190.28,332.06 L 190.65,331.40 L 191.02,330.73 L 191.40,330.07 L 191.78,329.42 L 192.16,328.76 L 192.54,328.10 L 192.92,327.44 L 193.31,326.79 L 193.70,326.13 L 194.09,325.48 L 194.49,324.82 L 194.88,324.17 L 195.28,323.52 L 195.69,322.87 L 196.09,322.22 L 196.50,321.57 L 196.91,320.92"
     style="stroke:black;stroke-width:0.71;stroke-linecap:round;fill:none;stroke-dasharray: 5.67 5.67"
     id="path116" />
  <!-- Render block 3
 -->
  <text
     x="85.983528"
     y="385.95874"
     style="font-size:10px;font-weight:normal;text-anchor:middle;fill:#000000;stroke:none;font-family:sanserif"
     id="text118"
     transform="matrix(0.89879404,-0.43837116,0.43837116,0.89879404,0,0)">blk-1-1</text>
  <path
     d="M 283.46,236.22 L 283.46,237.17 L 283.46,238.11 L 283.46,239.06 L 283.46,240.00 L 283.46,240.94 L 283.46,241.89 L 283.46,242.83 L 283.46,243.78 L 283.46,244.72 L 283.46,245.67 L 283.46,246.61 L 283.46,247.56 L 283.46,248.50 L 283.46,249.45 L 283.46,250.39 L 283.46,251.34 L 283.46,252.28 L 283.46,253.23 L 283.46,254.17 L 283.46,255.12 L 283.46,256.06 L 283.46,257.01 L 283.46,257.95 L 283.46,258.90 L 283.46,259.84 L 283.46,260.79 L 283.46,261.73 L 283.46,262.68 L 283.46,263.62 L 283.46,264.57 L 283.46,265.51 L 283.46,266.46 L 283.46,267.40 L 283.46,268.35 L 283.46,269.29 L 283.46,270.24 L 283.46,271.18 L 283.46,272.13 L 283.46,273.07 L 283.46,274.02 L 283.46,274.96 L 283.46,275.91 L 283.46,276.85 L 283.46,277.80 L 283.46,278.74 L 283.46,279.69 L 283.46,280.63 L 283.46,281.57 L 283.46,282.52 L 283.46,283.46 L 283.46,284.41 L 283.46,285.35 L 283.46,286.30 L 283.46,287.24 L 283.46,288.19 L 283.46,289.13 L 283.46,290.08 L 283.46,291.02 L 283.46,291.97 L 283.46,292.91 L 283.46,293.86 L 283.46,294.80 L 283.46,295.75 L 283.46,296.69 L 283.46,297.64 L 283.46,298.58 L 283.46,299.53 L 283.46,300.47 L 283.46,301.42 L 283.46,302.36 L 283.46,303.31 L 283.46,304.25 L 283.46,305.20 L 283.46,306.14 L 283.46,307.09 L 283.46,308.03 L 283.46,308.98 L 283.46,309.92 L 283.46,310.87 L 283.46,311.81 L 283.46,312.76 L 283.46,313.70 L 283.46,314.65 L 283.46,315.59 L 283.46,316.54 L 283.46,317.48 L 283.46,318.43 L 283.46,319.37 L 283.46,320.31 L 283.46,321.26 L 283.46,322.20 L 283.46,323.15 L 283.46,324.09 L 283.46,325.04 L 283.46,325.98 L 283.46,326.93 L 283.46,327.87 L 283.46,328.82 L 283.46,329.76 L 283.46,330.71"
     style="stroke:black;stroke-width:0.71;stroke-linecap:round;fill:none"
     id="path122" />
  <text
     x="-77.941391"
     y="427.80847"
     transform="matrix(0.73550613,-0.67751807,0.67751807,0.73550613,0,0)"
     style="font-size:10px;font-weight:normal;text-anchor:middle;fill:#000000;stroke:none;font-family:sanserif"
     id="text124">SLIP_WALL</text>
  <path
     d="M 216.65,358.38 L 217.00,358.03 L 217.35,357.69 L 217.71,357.34 L 218.07,357.00 L 218.42,356.66 L 218.78,356.32 L 219.14,355.98 L 219.51,355.64 L 219.87,355.31 L 220.24,354.98 L 220.61,354.65 L 220.98,354.32 L 221.35,353.99 L 221.72,353.67 L 222.10,353.35 L 222.48,353.03 L 222.86,352.71 L 223.24,352.39 L 223.62,352.08 L 224.00,351.77 L 224.39,351.46 L 224.77,351.15 L 225.16,350.84 L 225.55,350.54 L 225.94,350.23 L 226.34,349.93 L 226.73,349.64 L 227.13,349.34 L 227.53,349.05 L 227.93,348.75 L 228.33,348.46 L 228.73,348.18 L 229.13,347.89 L 229.54,347.61 L 229.95,347.33 L 230.35,347.05 L 230.76,346.77 L 231.18,346.50 L 231.59,346.22 L 232.00,345.95 L 232.42,345.68 L 232.84,345.42 L 233.25,345.15 L 233.67,344.89 L 234.09,344.63 L 234.52,344.38 L 234.94,344.12 L 235.37,343.87 L 235.79,343.62 L 236.22,343.37 L 236.65,343.12 L 237.08,342.88 L 237.51,342.64 L 237.94,342.40 L 238.38,342.16 L 238.81,341.92 L 239.25,341.69 L 239.69,341.46 L 240.13,341.23 L 240.57,341.01 L 241.01,340.78 L 241.45,340.56 L 241.90,340.34 L 242.34,340.13 L 242.79,339.91 L 243.23,339.70 L 243.68,339.49 L 244.13,339.28 L 244.58,339.08 L 245.03,338.88 L 245.49,338.68 L 245.94,338.48 L 246.39,338.28 L 246.85,338.09 L 247.31,337.90 L 247.76,337.71 L 248.22,337.53 L 248.68,337.34 L 249.14,337.16 L 249.60,336.98 L 250.07,336.81 L 250.53,336.63 L 250.99,336.46 L 251.46,336.29 L 251.92,336.13 L 252.39,335.96 L 252.86,335.80 L 253.33,335.64 L 253.80,335.49 L 254.27,335.33 L 254.74,335.18 L 255.21,335.03 L 255.68,334.89 L 256.15,334.74 L 256.63,334.60 L 257.10,334.46 L 257.58,334.32 L 258.05,334.19 L 258.53,334.06 L 259.01,333.93 L 259.49,333.80 L 259.97,333.68 L 260.45,333.56 L 260.93,333.44 L 261.41,333.32 L 261.89,333.21 L 262.37,333.09 L 262.85,332.98 L 263.34,332.88 L 263.82,332.77 L 264.30,332.67 L 264.79,332.57 L 265.27,332.48 L 265.76,332.38 L 266.25,332.29 L 266.73,332.20 L 267.22,332.12 L 267.71,332.03 L 268.19,331.95 L 268.68,331.87 L 269.17,331.80 L 269.66,331.72 L 270.15,331.65 L 270.64,331.58 L 271.13,331.52 L 271.62,331.45 L 272.11,331.39 L 272.60,331.33 L 273.10,331.28 L 273.59,331.23 L 274.08,331.18 L 274.57,331.13 L 275.07,331.08 L 275.56,331.04 L 276.05,331.00 L 276.54,330.96 L 277.04,330.93 L 277.53,330.90 L 278.03,330.87 L 278.52,330.84 L 279.01,330.81 L 279.51,330.79 L 280.00,330.77 L 280.50,330.76 L 280.99,330.74 L 281.49,330.73 L 281.98,330.72 L 282.48,330.71 L 282.97,330.71 L 283.46,330.71"
     style="stroke:black;stroke-width:0.71;stroke-linecap:round;fill:none"
     id="path126" />
  <path
     d="M 196.91,320.92 L 197.11,321.30 L 197.30,321.67 L 197.50,322.05 L 197.70,322.42 L 197.90,322.80 L 198.09,323.17 L 198.29,323.55 L 198.49,323.92 L 198.69,324.30 L 198.88,324.67 L 199.08,325.04 L 199.28,325.42 L 199.47,325.79 L 199.67,326.17 L 199.87,326.54 L 200.07,326.92 L 200.26,327.29 L 200.46,327.67 L 200.66,328.04 L 200.86,328.42 L 201.05,328.79 L 201.25,329.17 L 201.45,329.54 L 201.65,329.91 L 201.84,330.29 L 202.04,330.66 L 202.24,331.04 L 202.44,331.41 L 202.63,331.79 L 202.83,332.16 L 203.03,332.54 L 203.23,332.91 L 203.42,333.29 L 203.62,333.66 L 203.82,334.03 L 204.02,334.41 L 204.21,334.78 L 204.41,335.16 L 204.61,335.53 L 204.81,335.91 L 205.00,336.28 L 205.20,336.66 L 205.40,337.03 L 205.60,337.41 L 205.79,337.78 L 205.99,338.16 L 206.19,338.53 L 206.38,338.90 L 206.58,339.28 L 206.78,339.65 L 206.98,340.03 L 207.17,340.40 L 207.37,340.78 L 207.57,341.15 L 207.77,341.53 L 207.96,341.90 L 208.16,342.28 L 208.36,342.65 L 208.56,343.03 L 208.75,343.40 L 208.95,343.77 L 209.15,344.15 L 209.35,344.52 L 209.54,344.90 L 209.74,345.27 L 209.94,345.65 L 210.14,346.02 L 210.33,346.40 L 210.53,346.77 L 210.73,347.15 L 210.93,347.52 L 211.12,347.89 L 211.32,348.27 L 211.52,348.64 L 211.72,349.02 L 211.91,349.39 L 212.11,349.77 L 212.31,350.14 L 212.51,350.52 L 212.70,350.89 L 212.90,351.27 L 213.10,351.64 L 213.30,352.02 L 213.49,352.39 L 213.69,352.76 L 213.89,353.14 L 214.08,353.51 L 214.28,353.89 L 214.48,354.26 L 214.68,354.64 L 214.87,355.01 L 215.07,355.39 L 215.27,355.76 L 215.47,356.14 L 215.66,356.51 L 215.86,356.89 L 216.06,357.26 L 216.26,357.63 L 216.45,358.01 L 216.65,358.38"
     style="stroke:black;stroke-width:0.71;stroke-linecap:round;fill:none;stroke-dasharray: 5.67 5.67"
     id="path128" />
  <path
     d="M 196.91,320.92 L 197.32,320.28 L 197.74,319.63 L 198.15,318.99 L 198.57,318.34 L 199.00,317.70 L 199.42,317.06 L 199.85,316.42 L 200.28,315.77 L 200.71,315.14 L 201.14,314.50 L 201.58,313.86 L 202.02,313.22 L 202.46,312.59 L 202.91,311.95 L 203.35,311.32 L 203.80,310.69 L 204.25,310.06 L 204.71,309.42 L 205.16,308.79 L 205.62,308.17 L 206.08,307.54 L 206.55,306.91 L 207.01,306.29 L 207.48,305.66 L 207.95,305.04 L 208.43,304.42 L 208.90,303.79 L 209.38,303.17 L 209.86,302.55 L 210.34,301.94 L 210.83,301.32 L 211.31,300.70 L 211.80,300.09 L 212.29,299.47 L 212.79,298.86 L 213.28,298.25 L 213.78,297.64 L 214.28,297.03 L 214.79,296.42 L 215.29,295.81 L 215.80,295.20 L 216.31,294.60 L 216.82,293.99 L 217.34,293.39 L 217.85,292.79 L 218.37,292.19 L 218.89,291.59 L 219.42,290.99 L 219.94,290.39 L 220.47,289.79 L 221.00,289.20 L 221.54,288.60 L 222.07,288.01 L 222.61,287.42 L 223.15,286.83 L 223.69,286.24 L 224.23,285.65 L 224.78,285.06 L 225.32,284.47 L 225.87,283.89 L 226.43,283.31 L 226.98,282.72 L 227.54,282.14 L 228.10,281.56 L 228.66,280.98 L 229.22,280.40 L 229.78,279.82 L 230.35,279.25 L 230.92,278.67 L 231.49,278.10 L 232.07,277.53 L 232.64,276.96 L 233.22,276.39 L 233.80,275.82 L 234.38,275.25 L 234.97,274.68 L 235.55,274.12 L 236.14,273.55 L 236.73,272.99 L 237.32,272.43 L 237.92,271.87 L 238.51,271.31 L 239.11,270.75 L 239.71,270.19 L 240.31,269.64 L 240.92,269.08 L 241.52,268.53 L 242.13,267.98 L 242.74,267.43 L 243.35,266.88 L 243.97,266.33 L 244.58,265.78 L 245.20,265.24 L 245.82,264.69 L 246.44,264.15 L 247.07,263.61 L 247.69,263.07 L 248.32,262.53 L 248.95,261.99 L 249.58,261.45 L 250.22,260.92 L 250.85,260.38 L 251.49,259.85 L 252.13,259.32 L 252.77,258.79 L 253.41,258.26 L 254.06,257.73 L 254.71,257.20 L 255.35,256.68 L 256.00,256.15 L 256.66,255.63 L 257.31,255.11 L 257.97,254.58 L 258.62,254.07 L 259.28,253.55 L 259.95,253.03 L 260.61,252.51 L 261.27,252.00 L 261.94,251.49 L 262.61,250.98 L 263.28,250.46 L 263.95,249.96 L 264.63,249.45 L 265.30,248.94 L 265.98,248.44 L 266.66,247.93 L 267.34,247.43 L 268.02,246.93 L 268.71,246.43 L 269.39,245.93 L 270.08,245.43 L 270.77,244.93 L 271.46,244.44 L 272.15,243.95 L 272.85,243.45 L 273.54,242.96 L 274.24,242.47 L 274.94,241.98 L 275.64,241.50 L 276.35,241.01 L 277.05,240.52 L 277.76,240.04 L 278.46,239.56 L 279.17,239.08 L 279.89,238.60 L 280.60,238.12 L 281.31,237.64 L 282.03,237.17 L 282.75,236.69 L 283.46,236.22"
     style="stroke:black;stroke-width:0.71;stroke-linecap:round;fill:none;stroke-dasharray: 5.67 5.67"
     id="path130" />
  <!-- end of drawing -->
</svg>
