<?xml version="1.0" encoding="UTF-8" standalone="no"?>
<svg
   xmlns:dc="http://purl.org/dc/elements/1.1/"
   xmlns:cc="http://creativecommons.org/ns#"
   xmlns:rdf="http://www.w3.org/1999/02/22-rdf-syntax-ns#"
   xmlns:svg="http://www.w3.org/2000/svg"
   xmlns="http://www.w3.org/2000/svg"
   xmlns:sodipodi="http://sodipodi.sourceforge.net/DTD/sodipodi-0.dtd"
   xmlns:inkscape="http://www.inkscape.org/namespaces/inkscape"
   width="566.93"
   height="566.93"
   version="1.0"
   id="svg2"
   inkscape:version="0.48.3.1 r9886"
   sodipodi:docname="cubic-ramp-edited.svg">
  <metadata
     id="metadata332">
    <rdf:RDF>
      <cc:Work
         rdf:about="">
        <dc:format>image/svg+xml</dc:format>
        <dc:type
           rdf:resource="http://purl.org/dc/dcmitype/StillImage" />
        <dc:title>Mohammadian cubic ramp.</dc:title>
      </cc:Work>
    </rdf:RDF>
  </metadata>
  <defs
     id="defs330" />
  <sodipodi:namedview
     pagecolor="#ffffff"
     bordercolor="#666666"
     borderopacity="1"
     objecttolerance="10"
     gridtolerance="10"
     guidetolerance="10"
     inkscape:pageopacity="0"
     inkscape:pageshadow="2"
     inkscape:window-width="1400"
     inkscape:window-height="998"
     id="namedview328"
     showgrid="false"
     inkscape:zoom="1.2384357"
     inkscape:cx="387.88362"
     inkscape:cy="401.97593"
     inkscape:window-x="0"
     inkscape:window-y="0"
     inkscape:window-maximized="0"
     inkscape:current-layer="svg2" />
  <title
     id="title4">Mohammadian cubic ramp.</title>
  <desc
     id="desc6">SVG file written by e3prep.py</desc>
  <!-- drawing begins here -->
  <line
     x1="141.73"
     y1="453.54"
     x2="708.66"
     y2="453.54"
     style="stroke:black;stroke-width:1.42;stroke-linecap:round;fill:none"
     id="line8" />
  <text
     x="425.20"
     y="479.06"
     style="font-size:10;text-anchor:start;fill:black;stroke:none;font-weight:normal;font-family:sanserif"
     id="text10">x</text>
  <line
     x1="141.73"
     y1="453.54"
     x2="141.73"
     y2="447.87"
     style="stroke:black;stroke-width:1.42;stroke-linecap:round;fill:none"
     id="line12" />
  <text
     x="141.73"
     y="467.72"
     style="font-size:10;text-anchor:middle;fill:black;stroke:none;font-weight:normal;font-family:sanserif"
     id="text14">0</text>
  <line
     x1="283.46"
     y1="453.54"
     x2="283.46"
     y2="447.87"
     style="stroke:black;stroke-width:1.42;stroke-linecap:round;fill:none"
     id="line16" />
  <text
     x="283.46"
     y="467.72"
     style="font-size:10;text-anchor:middle;fill:black;stroke:none;font-weight:normal;font-family:sanserif"
     id="text18">0.05</text>
  <line
     x1="425.20"
     y1="453.54"
     x2="425.20"
     y2="447.87"
     style="stroke:black;stroke-width:1.42;stroke-linecap:round;fill:none"
     id="line20" />
  <text
     x="425.20"
     y="467.72"
     style="font-size:10;text-anchor:middle;fill:black;stroke:none;font-weight:normal;font-family:sanserif"
     id="text22">0.1</text>
  <line
     x1="566.93"
     y1="453.54"
     x2="566.93"
     y2="447.87"
     style="stroke:black;stroke-width:1.42;stroke-linecap:round;fill:none"
     id="line24" />
  <text
     x="566.93"
     y="467.72"
     style="font-size:10;text-anchor:middle;fill:black;stroke:none;font-weight:normal;font-family:sanserif"
     id="text26">0.15</text>
  <line
     x1="708.66"
     y1="453.54"
     x2="708.66"
     y2="447.87"
     style="stroke:black;stroke-width:1.42;stroke-linecap:round;fill:none"
     id="line28" />
  <text
     x="708.66"
     y="467.72"
     style="font-size:10;text-anchor:middle;fill:black;stroke:none;font-weight:normal;font-family:sanserif"
     id="text30">0.2</text>
  <line
     x1="113.39"
     y1="425.20"
     x2="113.39"
     y2="-141.73"
     style="stroke:black;stroke-width:1.42;stroke-linecap:round;fill:none"
     id="line32" />
  <text
     x="70.619072"
     y="282.11072"
     style="font-size:10px;font-weight:normal;text-anchor:end;fill:#000000;stroke:none;font-family:sanserif"
     id="text34">y</text>
  <line
     x1="113.39"
     y1="425.20"
     x2="119.06"
     y2="425.20"
     style="stroke:black;stroke-width:1.42;stroke-linecap:round;fill:none"
     id="line36" />
  <text
     x="104.88"
     y="425.20"
     style="font-size:10;text-anchor:end;fill:black;stroke:none;font-weight:normal;font-family:sanserif"
     id="text38">0</text>
  <line
     x1="113.39"
     y1="283.46"
     x2="119.06"
     y2="283.46"
     style="stroke:black;stroke-width:1.42;stroke-linecap:round;fill:none"
     id="line40" />
  <text
     x="104.88"
     y="283.46"
     style="font-size:10;text-anchor:end;fill:black;stroke:none;font-weight:normal;font-family:sanserif"
     id="text42">0.05</text>
  <line
     x1="113.39"
     y1="141.73"
     x2="119.06"
     y2="141.73"
     style="stroke:black;stroke-width:1.42;stroke-linecap:round;fill:none"
     id="line44" />
  <text
     x="104.88"
     y="141.73"
     style="font-size:10;text-anchor:end;fill:black;stroke:none;font-weight:normal;font-family:sanserif"
     id="text46">0.1</text>
  <line
     x1="113.39"
     y1="0.00"
     x2="119.06"
     y2="0.00"
     style="stroke:black;stroke-width:1.42;stroke-linecap:round;fill:none"
     id="line48" />
  <text
     x="104.88"
     y="0.00"
     style="font-size:10;text-anchor:end;fill:black;stroke:none;font-weight:normal;font-family:sanserif"
     id="text50">0.15</text>
  <line
     x1="113.39"
     y1="-141.73"
     x2="119.06"
     y2="-141.73"
     style="stroke:black;stroke-width:1.42;stroke-linecap:round;fill:none"
     id="line52" />
  <text
     x="104.88"
     y="-141.73"
     style="font-size:10;text-anchor:end;fill:black;stroke:none;font-weight:normal;font-family:sanserif"
     id="text54">0.2</text>
  <!-- There are 0 nodes
 -->
  <!-- There are 22 blocks
 -->
  <!-- Render block 0
 -->
  <text
     x="152.12608"
     y="432.52206"
     style="font-size:8px;font-style:normal;font-variant:normal;font-weight:normal;font-stretch:normal;text-align:center;line-height:125%;writing-mode:lr-tb;text-anchor:middle;fill:#000000;stroke:none;font-family:Sans;-inkscape-font-specification:Sans"
     id="text56"
     sodipodi:linespacing="125%">
    <tspan
       sodipodi:role="line"
       id="tspan3372"
       x="152.12608"
       y="432.52206">0-0</tspan>
  </text>
  <path
     d="M 141.73,421.03 L 142.24,420.98 L 142.74,420.93 L 143.25,420.88 L 143.76,420.83 L 144.27,420.77 L 144.79,420.72 L 145.31,420.67 L 145.83,420.62 L 146.35,420.56 L 146.88,420.51 L 147.41,420.46 L 147.94,420.41 L 148.47,420.35 L 149.01,420.30 L 149.55,420.24 L 150.09,420.19 L 150.63,420.13 L 151.18,420.08 L 151.73,420.02 L 152.28,419.97 L 152.84,419.91 L 153.40,419.86 L 153.96,419.80 L 154.52,419.74 L 155.09,419.69 L 155.66,419.63 L 156.23,419.57 L 156.80,419.51 L 157.38,419.45 L 157.96,419.40 L 158.54,419.34 L 159.13,419.28 L 159.72,419.22 L 160.31,419.16 L 160.90,419.10 L 161.50,419.04 L 162.10,418.98 L 162.70,418.91 L 163.31,418.85 L 163.92,418.79"
     style="stroke:black;stroke-width:0.71;stroke-linecap:round;fill:none;stroke-dasharray: 5.67 5.67"
     id="path58" />
  <path
     d="M 164.12,425.18 L 164.12,425.10 L 164.11,425.02 L 164.11,424.93 L 164.11,424.84 L 164.11,424.75 L 164.10,424.66 L 164.10,424.56 L 164.10,424.46 L 164.09,424.35 L 164.09,424.24 L 164.09,424.13 L 164.08,424.01 L 164.08,423.89 L 164.07,423.77 L 164.07,423.64 L 164.07,423.51 L 164.06,423.37 L 164.06,423.23 L 164.05,423.08 L 164.05,422.93 L 164.04,422.78 L 164.04,422.62 L 164.03,422.45 L 164.03,422.28 L 164.02,422.11 L 164.02,421.93 L 164.01,421.74 L 164.00,421.55 L 164.00,421.35 L 163.99,421.15 L 163.98,420.94 L 163.98,420.73 L 163.97,420.51 L 163.96,420.28 L 163.96,420.05 L 163.95,419.81 L 163.94,419.56 L 163.93,419.31 L 163.93,419.05 L 163.92,418.79"
     style="stroke:black;stroke-width:0.71;stroke-linecap:round;fill:none;stroke-dasharray: 5.67 5.67"
     id="path60" />
  <path
     d="M 141.73,425.20 L 142.24,425.20 L 142.75,425.20 L 143.26,425.20 L 143.78,425.20 L 144.30,425.20 L 144.82,425.20 L 145.34,425.20 L 145.87,425.20 L 146.39,425.20 L 146.92,425.20 L 147.46,425.20 L 147.99,425.20 L 148.53,425.20 L 149.07,425.20 L 149.62,425.20 L 150.17,425.20 L 150.72,425.20 L 151.27,425.20 L 151.82,425.20 L 152.38,425.20 L 152.94,425.20 L 153.50,425.19 L 154.07,425.19 L 154.64,425.19 L 155.21,425.19 L 155.78,425.19 L 156.36,425.19 L 156.94,425.19 L 157.52,425.19 L 158.11,425.19 L 158.70,425.19 L 159.29,425.19 L 159.88,425.19 L 160.48,425.19 L 161.08,425.19 L 161.68,425.19 L 162.29,425.19 L 162.89,425.18 L 163.51,425.18 L 164.12,425.18"
     style="stroke:black;stroke-width:0.71;stroke-linecap:round;fill:none"
     id="path64" />
  <text
     x="-416.83588"
     y="132.94502"
     transform="matrix(0,-1,1,0,0,0)"
     style="font-size:10px;font-weight:normal;text-anchor:middle;fill:#000000;stroke:none;font-family:sanserif"
     id="text66">SUP_IN</text>
  <path
     d="M 141.73,425.20 L 141.73,425.14 L 141.73,425.09 L 141.73,425.03 L 141.73,424.98 L 141.73,424.92 L 141.73,424.85 L 141.73,424.79 L 141.73,424.72 L 141.73,424.65 L 141.73,424.58 L 141.73,424.51 L 141.73,424.43 L 141.73,424.36 L 141.73,424.27 L 141.73,424.19 L 141.73,424.10 L 141.73,424.01 L 141.73,423.92 L 141.73,423.83 L 141.73,423.73 L 141.73,423.63 L 141.73,423.52 L 141.73,423.42 L 141.73,423.31 L 141.73,423.19 L 141.73,423.07 L 141.73,422.95 L 141.73,422.83 L 141.73,422.70 L 141.73,422.57 L 141.73,422.43 L 141.73,422.29 L 141.73,422.15 L 141.73,422.00 L 141.73,421.85 L 141.73,421.69 L 141.73,421.53 L 141.73,421.37 L 141.73,421.20 L 141.73,421.03"
     style="stroke:black;stroke-width:0.71;stroke-linecap:round;fill:none"
     id="path68" />
  <!-- Render block 1
 -->
  <text
     x="152.14999"
     y="416.58841"
     style="font-size:8px;font-style:normal;font-variant:normal;font-weight:normal;font-stretch:normal;text-align:center;line-height:125%;writing-mode:lr-tb;text-anchor:middle;fill:#000000;stroke:none;font-family:Sans;-inkscape-font-specification:Sans"
     id="text70"
     sodipodi:linespacing="125%">
    <tspan
       sodipodi:role="line"
       id="tspan3366"
       x="152.14999"
       y="416.58841">0-1</tspan>
  </text>
  <path
     d="M 141.73,411.02 L 142.22,410.85 L 142.72,410.68 L 143.22,410.51 L 143.72,410.33 L 144.22,410.16 L 144.72,409.98 L 145.23,409.80 L 145.74,409.62 L 146.25,409.45 L 146.77,409.27 L 147.28,409.09 L 147.80,408.90 L 148.32,408.72 L 148.85,408.54 L 149.38,408.35 L 149.91,408.17 L 150.44,407.98 L 150.97,407.80 L 151.51,407.61 L 152.05,407.42 L 152.60,407.23 L 153.14,407.04 L 153.69,406.85 L 154.24,406.66 L 154.80,406.46 L 155.35,406.27 L 155.91,406.07 L 156.47,405.88 L 157.04,405.68 L 157.60,405.48 L 158.17,405.28 L 158.75,405.08 L 159.32,404.88 L 159.90,404.68 L 160.48,404.48 L 161.07,404.27 L 161.65,404.07 L 162.24,403.86 L 162.84,403.66 L 163.43,403.45"
     style="stroke:black;stroke-width:0.71;stroke-linecap:round;fill:none"
     id="path74" />
  <path
     d="M 163.92,418.79 L 163.91,418.52 L 163.90,418.24 L 163.89,417.96 L 163.88,417.67 L 163.87,417.37 L 163.86,417.07 L 163.85,416.76 L 163.84,416.44 L 163.83,416.11 L 163.82,415.78 L 163.81,415.45 L 163.80,415.10 L 163.79,414.75 L 163.78,414.40 L 163.77,414.03 L 163.75,413.67 L 163.74,413.29 L 163.73,412.91 L 163.72,412.52 L 163.71,412.13 L 163.69,411.73 L 163.68,411.33 L 163.67,410.92 L 163.65,410.51 L 163.64,410.09 L 163.63,409.67 L 163.61,409.24 L 163.60,408.81 L 163.59,408.38 L 163.57,407.94 L 163.56,407.50 L 163.55,407.06 L 163.53,406.61 L 163.52,406.17 L 163.50,405.72 L 163.49,405.26 L 163.47,404.81 L 163.46,404.36 L 163.45,403.90 L 163.43,403.45"
     style="stroke:black;stroke-width:0.71;stroke-linecap:round;fill:none;stroke-dasharray: 5.67 5.67"
     id="path76" />
  <path
     d="M 141.73,421.03 L 142.24,420.98 L 142.74,420.93 L 143.25,420.88 L 143.76,420.83 L 144.27,420.77 L 144.79,420.72 L 145.31,420.67 L 145.83,420.62 L 146.35,420.56 L 146.88,420.51 L 147.41,420.46 L 147.94,420.41 L 148.47,420.35 L 149.01,420.30 L 149.55,420.24 L 150.09,420.19 L 150.63,420.13 L 151.18,420.08 L 151.73,420.02 L 152.28,419.97 L 152.84,419.91 L 153.40,419.86 L 153.96,419.80 L 154.52,419.74 L 155.09,419.69 L 155.66,419.63 L 156.23,419.57 L 156.80,419.51 L 157.38,419.45 L 157.96,419.40 L 158.54,419.34 L 159.13,419.28 L 159.72,419.22 L 160.31,419.16 L 160.90,419.10 L 161.50,419.04 L 162.10,418.98 L 162.70,418.91 L 163.31,418.85 L 163.92,418.79"
     style="stroke:black;stroke-width:0.71;stroke-linecap:round;fill:none;stroke-dasharray: 5.67 5.67"
     id="path78" />
  <path
     d="M 141.73,421.03 L 141.73,420.85 L 141.73,420.67 L 141.73,420.49 L 141.73,420.30 L 141.73,420.10 L 141.73,419.90 L 141.73,419.70 L 141.73,419.49 L 141.73,419.28 L 141.73,419.07 L 141.73,418.85 L 141.73,418.62 L 141.73,418.40 L 141.73,418.16 L 141.73,417.93 L 141.73,417.69 L 141.73,417.44 L 141.73,417.19 L 141.73,416.94 L 141.73,416.69 L 141.73,416.43 L 141.73,416.16 L 141.73,415.90 L 141.73,415.63 L 141.73,415.36 L 141.73,415.08 L 141.73,414.80 L 141.73,414.52 L 141.73,414.24 L 141.73,413.95 L 141.73,413.67 L 141.73,413.38 L 141.73,413.09 L 141.73,412.80 L 141.73,412.50 L 141.73,412.21 L 141.73,411.91 L 141.73,411.62 L 141.73,411.32 L 141.73,411.02"
     style="stroke:black;stroke-width:0.71;stroke-linecap:round;fill:none"
     id="path82" />
  <!-- Render block 2
 -->
  <text
     x="176.66608"
     y="432.4556"
     style="font-size:8px;font-style:normal;font-variant:normal;font-weight:normal;font-stretch:normal;text-align:center;line-height:125%;writing-mode:lr-tb;text-anchor:middle;fill:#000000;stroke:none;font-family:Sans;-inkscape-font-specification:Sans"
     id="text84"
     sodipodi:linespacing="125%">
    <tspan
       sodipodi:role="line"
       id="tspan3370"
       x="176.66608"
       y="432.4556">1-0</tspan>
  </text>
  <path
     d="M 163.92,418.79 L 164.53,418.73 L 165.14,418.67 L 165.76,418.60 L 166.38,418.54 L 167.00,418.48 L 167.63,418.41 L 168.26,418.35 L 168.89,418.28 L 169.53,418.22 L 170.16,418.15 L 170.80,418.09 L 171.45,418.02 L 172.10,417.95 L 172.75,417.89 L 173.40,417.82 L 174.05,417.75 L 174.71,417.68 L 175.38,417.61 L 176.04,417.55 L 176.71,417.48 L 177.38,417.41 L 178.06,417.34 L 178.73,417.27 L 179.41,417.19 L 180.10,417.12 L 180.78,417.05 L 181.47,416.98 L 182.17,416.91 L 182.86,416.83 L 183.56,416.76 L 184.27,416.69 L 184.97,416.61 L 185.68,416.54 L 186.39,416.46 L 187.11,416.38 L 187.83,416.31 L 188.55,416.23 L 189.28,416.15 L 190.01,416.08 L 190.74,416.00"
     style="stroke:black;stroke-width:0.71;stroke-linecap:round;fill:none;stroke-dasharray: 5.67 5.67"
     id="path86" />
  <path
     d="M 191.18,425.04 L 191.18,424.93 L 191.17,424.81 L 191.17,424.69 L 191.16,424.56 L 191.15,424.43 L 191.15,424.30 L 191.14,424.16 L 191.13,424.01 L 191.13,423.86 L 191.12,423.71 L 191.11,423.55 L 191.10,423.39 L 191.09,423.22 L 191.09,423.04 L 191.08,422.86 L 191.07,422.67 L 191.06,422.48 L 191.05,422.28 L 191.04,422.07 L 191.03,421.86 L 191.02,421.64 L 191.01,421.41 L 190.99,421.18 L 190.98,420.94 L 190.97,420.69 L 190.96,420.43 L 190.94,420.17 L 190.93,419.90 L 190.92,419.62 L 190.90,419.34 L 190.89,419.04 L 190.87,418.74 L 190.86,418.43 L 190.84,418.11 L 190.83,417.78 L 190.81,417.44 L 190.79,417.09 L 190.77,416.74 L 190.76,416.37 L 190.74,416.00"
     style="stroke:black;stroke-width:0.71;stroke-linecap:round;fill:none;stroke-dasharray: 5.67 5.67"
     id="path88" />
  <path
     d="M 164.12,425.18 L 164.74,425.18 L 165.36,425.18 L 165.98,425.18 L 166.61,425.18 L 167.23,425.18 L 167.87,425.17 L 168.50,425.17 L 169.14,425.17 L 169.78,425.17 L 170.42,425.17 L 171.07,425.16 L 171.72,425.16 L 172.37,425.16 L 173.03,425.16 L 173.69,425.15 L 174.35,425.15 L 175.01,425.15 L 175.68,425.15 L 176.35,425.14 L 177.03,425.14 L 177.71,425.14 L 178.39,425.13 L 179.07,425.13 L 179.76,425.13 L 180.45,425.12 L 181.14,425.12 L 181.84,425.11 L 182.54,425.11 L 183.24,425.10 L 183.95,425.10 L 184.66,425.10 L 185.37,425.09 L 186.08,425.08 L 186.80,425.08 L 187.52,425.07 L 188.25,425.07 L 188.98,425.06 L 189.71,425.05 L 190.45,425.05 L 191.18,425.04"
     style="stroke:black;stroke-width:0.71;stroke-linecap:round;fill:none"
     id="path92" />
  <path
     d="M 164.12,425.18 L 164.12,425.10 L 164.11,425.02 L 164.11,424.93 L 164.11,424.84 L 164.11,424.75 L 164.10,424.66 L 164.10,424.56 L 164.10,424.46 L 164.09,424.35 L 164.09,424.24 L 164.09,424.13 L 164.08,424.01 L 164.08,423.89 L 164.07,423.77 L 164.07,423.64 L 164.07,423.51 L 164.06,423.37 L 164.06,423.23 L 164.05,423.08 L 164.05,422.93 L 164.04,422.78 L 164.04,422.62 L 164.03,422.45 L 164.03,422.28 L 164.02,422.11 L 164.02,421.93 L 164.01,421.74 L 164.00,421.55 L 164.00,421.35 L 163.99,421.15 L 163.98,420.94 L 163.98,420.73 L 163.97,420.51 L 163.96,420.28 L 163.96,420.05 L 163.95,419.81 L 163.94,419.56 L 163.93,419.31 L 163.93,419.05 L 163.92,418.79"
     style="stroke:black;stroke-width:0.71;stroke-linecap:round;fill:none;stroke-dasharray: 5.67 5.67"
     id="path94" />
  <!-- Render block 3
 -->
  <text
     x="176.86177"
     y="411.23016"
     style="font-size:8px;font-style:normal;font-variant:normal;font-weight:normal;font-stretch:normal;text-align:center;line-height:125%;writing-mode:lr-tb;text-anchor:middle;fill:#000000;stroke:none;font-family:Sans;-inkscape-font-specification:Sans"
     id="text96"
     sodipodi:linespacing="125%">
    <tspan
       sodipodi:role="line"
       id="tspan3364"
       x="176.86177"
       y="411.23016">1-1</tspan>
  </text>
  <path
     d="M 163.43,403.45 L 164.03,403.24 L 164.63,403.03 L 165.23,402.82 L 165.84,402.61 L 166.45,402.39 L 167.06,402.18 L 167.68,401.97 L 168.30,401.75 L 168.92,401.53 L 169.54,401.31 L 170.17,401.10 L 170.80,400.88 L 171.43,400.65 L 172.07,400.43 L 172.70,400.21 L 173.35,399.99 L 173.99,399.76 L 174.64,399.53 L 175.29,399.31 L 175.94,399.08 L 176.60,398.85 L 177.26,398.62 L 177.92,398.39 L 178.59,398.16 L 179.26,397.92 L 179.93,397.69 L 180.60,397.45 L 181.28,397.22 L 181.96,396.98 L 182.65,396.74 L 183.34,396.50 L 184.03,396.26 L 184.72,396.01 L 185.42,395.77 L 186.12,395.53 L 186.82,395.28 L 187.53,395.04 L 188.24,394.79 L 188.95,394.54 L 189.66,394.29"
     style="stroke:black;stroke-width:0.71;stroke-linecap:round;fill:none"
     id="path100" />
  <path
     d="M 190.74,416.00 L 190.72,415.61 L 190.70,415.22 L 190.68,414.82 L 190.66,414.41 L 190.64,413.99 L 190.62,413.56 L 190.60,413.12 L 190.57,412.67 L 190.55,412.21 L 190.53,411.74 L 190.50,411.27 L 190.48,410.78 L 190.45,410.28 L 190.43,409.78 L 190.40,409.27 L 190.38,408.75 L 190.35,408.22 L 190.33,407.68 L 190.30,407.13 L 190.27,406.57 L 190.24,406.01 L 190.22,405.44 L 190.19,404.86 L 190.16,404.28 L 190.13,403.69 L 190.10,403.09 L 190.07,402.49 L 190.04,401.88 L 190.01,401.27 L 189.98,400.65 L 189.95,400.03 L 189.92,399.40 L 189.89,398.77 L 189.85,398.13 L 189.82,397.50 L 189.79,396.86 L 189.76,396.22 L 189.73,395.58 L 189.70,394.93 L 189.66,394.29"
     style="stroke:black;stroke-width:0.71;stroke-linecap:round;fill:none;stroke-dasharray: 5.67 5.67"
     id="path102" />
  <path
     d="M 163.92,418.79 L 164.53,418.73 L 165.14,418.67 L 165.76,418.60 L 166.38,418.54 L 167.00,418.48 L 167.63,418.41 L 168.26,418.35 L 168.89,418.28 L 169.53,418.22 L 170.16,418.15 L 170.80,418.09 L 171.45,418.02 L 172.10,417.95 L 172.75,417.89 L 173.40,417.82 L 174.05,417.75 L 174.71,417.68 L 175.38,417.61 L 176.04,417.55 L 176.71,417.48 L 177.38,417.41 L 178.06,417.34 L 178.73,417.27 L 179.41,417.19 L 180.10,417.12 L 180.78,417.05 L 181.47,416.98 L 182.17,416.91 L 182.86,416.83 L 183.56,416.76 L 184.27,416.69 L 184.97,416.61 L 185.68,416.54 L 186.39,416.46 L 187.11,416.38 L 187.83,416.31 L 188.55,416.23 L 189.28,416.15 L 190.01,416.08 L 190.74,416.00"
     style="stroke:black;stroke-width:0.71;stroke-linecap:round;fill:none;stroke-dasharray: 5.67 5.67"
     id="path104" />
  <path
     d="M 163.92,418.79 L 163.91,418.52 L 163.90,418.24 L 163.89,417.96 L 163.88,417.67 L 163.87,417.37 L 163.86,417.07 L 163.85,416.76 L 163.84,416.44 L 163.83,416.11 L 163.82,415.78 L 163.81,415.45 L 163.80,415.10 L 163.79,414.75 L 163.78,414.40 L 163.77,414.03 L 163.75,413.67 L 163.74,413.29 L 163.73,412.91 L 163.72,412.52 L 163.71,412.13 L 163.69,411.73 L 163.68,411.33 L 163.67,410.92 L 163.65,410.51 L 163.64,410.09 L 163.63,409.67 L 163.61,409.24 L 163.60,408.81 L 163.59,408.38 L 163.57,407.94 L 163.56,407.50 L 163.55,407.06 L 163.53,406.61 L 163.52,406.17 L 163.50,405.72 L 163.49,405.26 L 163.47,404.81 L 163.46,404.36 L 163.45,403.90 L 163.43,403.45"
     style="stroke:black;stroke-width:0.71;stroke-linecap:round;fill:none;stroke-dasharray: 5.67 5.67"
     id="path106" />
  <!-- Render block 4
 -->
  <text
     x="206.97176"
     y="422.74274"
     style="font-size:8px;font-style:normal;font-variant:normal;font-weight:normal;font-stretch:normal;text-align:center;line-height:125%;writing-mode:lr-tb;text-anchor:middle;fill:#000000;stroke:none;font-family:Sans;-inkscape-font-specification:Sans"
     id="text108"
     sodipodi:linespacing="125%">
    <tspan
       sodipodi:role="line"
       id="tspan3368"
       x="206.97176"
       y="422.74274">2-0</tspan>
  </text>
  <path
     d="M 190.74,416.00 L 191.47,415.92 L 192.21,415.84 L 192.95,415.76 L 193.70,415.68 L 194.45,415.60 L 195.20,415.52 L 195.95,415.43 L 196.71,415.35 L 197.47,415.27 L 198.24,415.19 L 199.01,415.10 L 199.78,415.02 L 200.55,414.93 L 201.33,414.85 L 202.11,414.76 L 202.90,414.67 L 203.69,414.58 L 204.48,414.50 L 205.27,414.41 L 206.07,414.32 L 206.88,414.23 L 207.68,414.14 L 208.49,414.05 L 209.30,413.95 L 210.12,413.86 L 210.94,413.77 L 211.76,413.68 L 212.59,413.58 L 213.42,413.49 L 214.25,413.39 L 215.09,413.29 L 215.93,413.20 L 216.77,413.10 L 217.62,413.00 L 218.47,412.90 L 219.33,412.80 L 220.19,412.70 L 221.05,412.60 L 221.91,412.50 L 222.78,412.39"
     style="stroke:black;stroke-width:0.71;stroke-linecap:round;fill:none;stroke-dasharray: 5.67 5.67"
     id="path110" />
  <path
     d="M 223.52,424.49 L 223.51,424.34 L 223.50,424.18 L 223.49,424.02 L 223.48,423.85 L 223.47,423.68 L 223.46,423.50 L 223.45,423.31 L 223.44,423.12 L 223.43,422.92 L 223.41,422.71 L 223.40,422.50 L 223.39,422.28 L 223.37,422.05 L 223.36,421.81 L 223.34,421.57 L 223.33,421.32 L 223.31,421.06 L 223.30,420.79 L 223.28,420.52 L 223.26,420.23 L 223.24,419.94 L 223.23,419.64 L 223.21,419.32 L 223.19,419.00 L 223.17,418.67 L 223.15,418.33 L 223.12,417.98 L 223.10,417.62 L 223.08,417.24 L 223.06,416.86 L 223.03,416.46 L 223.01,416.06 L 222.98,415.64 L 222.96,415.21 L 222.93,414.77 L 222.90,414.32 L 222.87,413.86 L 222.84,413.38 L 222.81,412.89 L 222.78,412.39"
     style="stroke:black;stroke-width:0.71;stroke-linecap:round;fill:none;stroke-dasharray: 5.67 5.67"
     id="path112" />
  <path
     d="M 191.18,425.04 L 191.93,425.03 L 192.67,425.03 L 193.42,425.02 L 194.17,425.01 L 194.93,425.00 L 195.69,424.99 L 196.45,424.99 L 197.21,424.98 L 197.98,424.97 L 198.75,424.96 L 199.53,424.95 L 200.31,424.94 L 201.09,424.93 L 201.88,424.92 L 202.66,424.91 L 203.46,424.89 L 204.25,424.88 L 205.05,424.87 L 205.85,424.86 L 206.66,424.84 L 207.47,424.83 L 208.28,424.82 L 209.10,424.80 L 209.92,424.79 L 210.74,424.77 L 211.57,424.76 L 212.40,424.74 L 213.24,424.73 L 214.07,424.71 L 214.91,424.69 L 215.76,424.68 L 216.61,424.66 L 217.46,424.64 L 218.32,424.62 L 219.17,424.60 L 220.04,424.58 L 220.90,424.56 L 221.77,424.54 L 222.65,424.52 L 223.52,424.49"
     style="stroke:black;stroke-width:0.71;stroke-linecap:round;fill:none"
     id="path116" />
  <path
     d="M 191.18,425.04 L 191.18,424.93 L 191.17,424.81 L 191.17,424.69 L 191.16,424.56 L 191.15,424.43 L 191.15,424.30 L 191.14,424.16 L 191.13,424.01 L 191.13,423.86 L 191.12,423.71 L 191.11,423.55 L 191.10,423.39 L 191.09,423.22 L 191.09,423.04 L 191.08,422.86 L 191.07,422.67 L 191.06,422.48 L 191.05,422.28 L 191.04,422.07 L 191.03,421.86 L 191.02,421.64 L 191.01,421.41 L 190.99,421.18 L 190.98,420.94 L 190.97,420.69 L 190.96,420.43 L 190.94,420.17 L 190.93,419.90 L 190.92,419.62 L 190.90,419.34 L 190.89,419.04 L 190.87,418.74 L 190.86,418.43 L 190.84,418.11 L 190.83,417.78 L 190.81,417.44 L 190.79,417.09 L 190.77,416.74 L 190.76,416.37 L 190.74,416.00"
     style="stroke:black;stroke-width:0.71;stroke-linecap:round;fill:none;stroke-dasharray: 5.67 5.67"
     id="path118" />
  <!-- Render block 5
 -->
  <text
     x="206.66745"
     y="404.80582"
     style="font-size:8px;font-style:normal;font-variant:normal;font-weight:normal;font-stretch:normal;text-align:center;line-height:125%;writing-mode:lr-tb;text-anchor:middle;fill:#000000;stroke:none;font-family:Sans;-inkscape-font-specification:Sans"
     id="text120"
     sodipodi:linespacing="125%">
    <tspan
       sodipodi:role="line"
       id="tspan3362"
       x="206.66745"
       y="404.80582">2-1</tspan>
  </text>
  <path
     d="M 189.66,394.29 L 190.38,394.04 L 191.11,393.79 L 191.83,393.53 L 192.56,393.28 L 193.29,393.02 L 194.03,392.77 L 194.76,392.51 L 195.51,392.25 L 196.25,391.99 L 197.00,391.73 L 197.75,391.46 L 198.51,391.20 L 199.26,390.94 L 200.03,390.67 L 200.79,390.40 L 201.56,390.14 L 202.33,389.87 L 203.10,389.60 L 203.88,389.32 L 204.66,389.05 L 205.45,388.78 L 206.24,388.50 L 207.03,388.23 L 207.82,387.95 L 208.62,387.67 L 209.42,387.39 L 210.23,387.11 L 211.04,386.83 L 211.85,386.54 L 212.66,386.26 L 213.48,385.97 L 214.30,385.69 L 215.13,385.40 L 215.96,385.11 L 216.79,384.82 L 217.63,384.52 L 218.47,384.23 L 219.31,383.94 L 220.16,383.64 L 221.01,383.35"
     style="stroke:black;stroke-width:0.71;stroke-linecap:round;fill:none"
     id="path124" />
  <path
     d="M 222.78,412.39 L 222.75,411.88 L 222.72,411.35 L 222.69,410.82 L 222.65,410.27 L 222.62,409.70 L 222.58,409.13 L 222.55,408.54 L 222.51,407.94 L 222.47,407.33 L 222.44,406.70 L 222.40,406.06 L 222.36,405.41 L 222.32,404.75 L 222.27,404.07 L 222.23,403.39 L 222.19,402.69 L 222.15,401.98 L 222.10,401.26 L 222.06,400.53 L 222.01,399.78 L 221.97,399.03 L 221.92,398.27 L 221.87,397.50 L 221.82,396.72 L 221.78,395.92 L 221.73,395.13 L 221.68,394.32 L 221.63,393.50 L 221.58,392.68 L 221.53,391.86 L 221.48,391.02 L 221.43,390.18 L 221.37,389.34 L 221.32,388.49 L 221.27,387.64 L 221.22,386.78 L 221.17,385.93 L 221.11,385.07 L 221.06,384.21 L 221.01,383.35"
     style="stroke:black;stroke-width:0.71;stroke-linecap:round;fill:none;stroke-dasharray: 5.67 5.67"
     id="path126" />
  <path
     d="M 190.74,416.00 L 191.47,415.92 L 192.21,415.84 L 192.95,415.76 L 193.70,415.68 L 194.45,415.60 L 195.20,415.52 L 195.95,415.43 L 196.71,415.35 L 197.47,415.27 L 198.24,415.19 L 199.01,415.10 L 199.78,415.02 L 200.55,414.93 L 201.33,414.85 L 202.11,414.76 L 202.90,414.67 L 203.69,414.58 L 204.48,414.50 L 205.27,414.41 L 206.07,414.32 L 206.88,414.23 L 207.68,414.14 L 208.49,414.05 L 209.30,413.95 L 210.12,413.86 L 210.94,413.77 L 211.76,413.68 L 212.59,413.58 L 213.42,413.49 L 214.25,413.39 L 215.09,413.29 L 215.93,413.20 L 216.77,413.10 L 217.62,413.00 L 218.47,412.90 L 219.33,412.80 L 220.19,412.70 L 221.05,412.60 L 221.91,412.50 L 222.78,412.39"
     style="stroke:black;stroke-width:0.71;stroke-linecap:round;fill:none;stroke-dasharray: 5.67 5.67"
     id="path128" />
  <path
     d="M 190.74,416.00 L 190.72,415.61 L 190.70,415.22 L 190.68,414.82 L 190.66,414.41 L 190.64,413.99 L 190.62,413.56 L 190.60,413.12 L 190.57,412.67 L 190.55,412.21 L 190.53,411.74 L 190.50,411.27 L 190.48,410.78 L 190.45,410.28 L 190.43,409.78 L 190.40,409.27 L 190.38,408.75 L 190.35,408.22 L 190.33,407.68 L 190.30,407.13 L 190.27,406.57 L 190.24,406.01 L 190.22,405.44 L 190.19,404.86 L 190.16,404.28 L 190.13,403.69 L 190.10,403.09 L 190.07,402.49 L 190.04,401.88 L 190.01,401.27 L 189.98,400.65 L 189.95,400.03 L 189.92,399.40 L 189.89,398.77 L 189.85,398.13 L 189.82,397.50 L 189.79,396.86 L 189.76,396.22 L 189.73,395.58 L 189.70,394.93 L 189.66,394.29"
     style="stroke:black;stroke-width:0.71;stroke-linecap:round;fill:none;stroke-dasharray: 5.67 5.67"
     id="path130" />
  <!-- Render block 6
 -->
  <text
     x="242.18567"
     y="419.75488"
     style="font-size:8px;font-style:normal;font-variant:normal;font-weight:normal;font-stretch:normal;text-align:center;line-height:125%;writing-mode:lr-tb;text-anchor:middle;fill:#000000;stroke:none;font-family:Sans;-inkscape-font-specification:Sans"
     id="text132"
     sodipodi:linespacing="125%">
    <tspan
       sodipodi:role="line"
       id="tspan3358"
       x="242.18567"
       y="419.75488">3-0</tspan>
  </text>
  <path
     d="M 222.78,412.39 L 223.66,412.29 L 224.53,412.18 L 225.41,412.08 L 226.30,411.97 L 227.18,411.87 L 228.07,411.76 L 228.97,411.65 L 229.86,411.54 L 230.77,411.43 L 231.67,411.32 L 232.58,411.21 L 233.49,411.09 L 234.41,410.98 L 235.33,410.86 L 236.25,410.75 L 237.18,410.63 L 238.11,410.51 L 239.04,410.40 L 239.98,410.28 L 240.92,410.16 L 241.87,410.04 L 242.82,409.91 L 243.77,409.79 L 244.73,409.67 L 245.69,409.54 L 246.65,409.41 L 247.62,409.29 L 248.59,409.16 L 249.57,409.03 L 250.54,408.90 L 251.53,408.77 L 252.51,408.63 L 253.50,408.50 L 254.50,408.37 L 255.49,408.23 L 256.50,408.09 L 257.50,407.95 L 258.51,407.82 L 259.52,407.67 L 260.54,407.53"
     style="stroke:black;stroke-width:0.71;stroke-linecap:round;fill:none;stroke-dasharray: 5.67 5.67"
     id="path134" />
  <path
     d="M 261.62,422.98 L 261.61,422.79 L 261.59,422.59 L 261.58,422.38 L 261.57,422.16 L 261.55,421.94 L 261.53,421.71 L 261.52,421.47 L 261.50,421.22 L 261.48,420.97 L 261.46,420.71 L 261.44,420.43 L 261.42,420.15 L 261.40,419.86 L 261.38,419.56 L 261.36,419.25 L 261.34,418.93 L 261.31,418.60 L 261.29,418.26 L 261.27,417.91 L 261.24,417.54 L 261.21,417.17 L 261.19,416.78 L 261.16,416.38 L 261.13,415.97 L 261.10,415.55 L 261.07,415.11 L 261.04,414.66 L 261.01,414.20 L 260.97,413.72 L 260.94,413.23 L 260.90,412.73 L 260.87,412.21 L 260.83,411.68 L 260.79,411.13 L 260.75,410.57 L 260.71,409.99 L 260.67,409.40 L 260.63,408.79 L 260.58,408.17 L 260.54,407.53"
     style="stroke:black;stroke-width:0.71;stroke-linecap:round;fill:none;stroke-dasharray: 5.67 5.67"
     id="path136" />
  <path
     d="M 223.52,424.49 L 224.40,424.47 L 225.29,424.45 L 226.18,424.42 L 227.07,424.40 L 227.96,424.37 L 228.86,424.35 L 229.76,424.32 L 230.67,424.29 L 231.58,424.26 L 232.49,424.24 L 233.41,424.21 L 234.33,424.18 L 235.25,424.14 L 236.18,424.11 L 237.11,424.08 L 238.05,424.05 L 238.99,424.01 L 239.93,423.98 L 240.88,423.94 L 241.83,423.91 L 242.78,423.87 L 243.74,423.83 L 244.70,423.79 L 245.67,423.75 L 246.64,423.71 L 247.61,423.67 L 248.59,423.63 L 249.57,423.58 L 250.55,423.54 L 251.54,423.49 L 252.53,423.45 L 253.52,423.40 L 254.52,423.35 L 255.53,423.30 L 256.53,423.25 L 257.54,423.20 L 258.56,423.15 L 259.58,423.09 L 260.60,423.04 L 261.62,422.98"
     style="stroke:black;stroke-width:0.71;stroke-linecap:round;fill:none"
     id="path140" />
  <path
     d="M 223.52,424.49 L 223.51,424.34 L 223.50,424.18 L 223.49,424.02 L 223.48,423.85 L 223.47,423.68 L 223.46,423.50 L 223.45,423.31 L 223.44,423.12 L 223.43,422.92 L 223.41,422.71 L 223.40,422.50 L 223.39,422.28 L 223.37,422.05 L 223.36,421.81 L 223.34,421.57 L 223.33,421.32 L 223.31,421.06 L 223.30,420.79 L 223.28,420.52 L 223.26,420.23 L 223.24,419.94 L 223.23,419.64 L 223.21,419.32 L 223.19,419.00 L 223.17,418.67 L 223.15,418.33 L 223.12,417.98 L 223.10,417.62 L 223.08,417.24 L 223.06,416.86 L 223.03,416.46 L 223.01,416.06 L 222.98,415.64 L 222.96,415.21 L 222.93,414.77 L 222.90,414.32 L 222.87,413.86 L 222.84,413.38 L 222.81,412.89 L 222.78,412.39"
     style="stroke:black;stroke-width:0.71;stroke-linecap:round;fill:none;stroke-dasharray: 5.67 5.67"
     id="path142" />
  <!-- Render block 7
 -->
  <text
     x="240.44569"
     y="397.26935"
     style="font-size:8px;font-style:normal;font-variant:normal;font-weight:normal;font-stretch:normal;text-align:center;line-height:125%;writing-mode:lr-tb;text-anchor:middle;fill:#000000;stroke:none;font-family:Sans;-inkscape-font-specification:Sans"
     id="text144"
     sodipodi:linespacing="125%">
    <tspan
       sodipodi:role="line"
       id="tspan3360"
       x="240.44569"
       y="397.26935">3-1</tspan>
  </text>
  <path
     d="M 221.01,383.35 L 221.86,383.05 L 222.72,382.75 L 223.58,382.45 L 224.44,382.15 L 225.31,381.84 L 226.18,381.54 L 227.06,381.23 L 227.93,380.93 L 228.82,380.62 L 229.70,380.31 L 230.59,380.00 L 231.48,379.69 L 232.38,379.38 L 233.28,379.06 L 234.18,378.75 L 235.09,378.43 L 236.00,378.11 L 236.91,377.79 L 237.83,377.47 L 238.75,377.15 L 239.67,376.83 L 240.60,376.50 L 241.53,376.18 L 242.47,375.85 L 243.41,375.52 L 244.35,375.19 L 245.30,374.86 L 246.25,374.53 L 247.20,374.20 L 248.16,373.87 L 249.12,373.53 L 250.09,373.19 L 251.05,372.85 L 252.03,372.52 L 253.00,372.17 L 253.98,371.83 L 254.96,371.49 L 255.95,371.15 L 256.94,370.80 L 257.93,370.45"
     style="stroke:black;stroke-width:0.71;stroke-linecap:round;fill:none"
     id="path148" />
  <path
     d="M 260.54,407.53 L 260.49,406.88 L 260.44,406.21 L 260.40,405.52 L 260.35,404.82 L 260.30,404.10 L 260.25,403.37 L 260.19,402.61 L 260.14,401.85 L 260.08,401.07 L 260.03,400.27 L 259.97,399.45 L 259.91,398.62 L 259.85,397.78 L 259.79,396.91 L 259.73,396.04 L 259.67,395.15 L 259.60,394.24 L 259.54,393.32 L 259.47,392.39 L 259.41,391.44 L 259.34,390.48 L 259.27,389.50 L 259.20,388.52 L 259.13,387.52 L 259.06,386.51 L 258.99,385.49 L 258.92,384.46 L 258.85,383.42 L 258.77,382.37 L 258.70,381.32 L 258.62,380.25 L 258.55,379.18 L 258.47,378.10 L 258.40,377.02 L 258.32,375.93 L 258.24,374.84 L 258.17,373.75 L 258.09,372.65 L 258.01,371.55 L 257.93,370.45"
     style="stroke:black;stroke-width:0.71;stroke-linecap:round;fill:none;stroke-dasharray: 5.67 5.67"
     id="path150" />
  <path
     d="M 222.78,412.39 L 223.66,412.29 L 224.53,412.18 L 225.41,412.08 L 226.30,411.97 L 227.18,411.87 L 228.07,411.76 L 228.97,411.65 L 229.86,411.54 L 230.77,411.43 L 231.67,411.32 L 232.58,411.21 L 233.49,411.09 L 234.41,410.98 L 235.33,410.86 L 236.25,410.75 L 237.18,410.63 L 238.11,410.51 L 239.04,410.40 L 239.98,410.28 L 240.92,410.16 L 241.87,410.04 L 242.82,409.91 L 243.77,409.79 L 244.73,409.67 L 245.69,409.54 L 246.65,409.41 L 247.62,409.29 L 248.59,409.16 L 249.57,409.03 L 250.54,408.90 L 251.53,408.77 L 252.51,408.63 L 253.50,408.50 L 254.50,408.37 L 255.49,408.23 L 256.50,408.09 L 257.50,407.95 L 258.51,407.82 L 259.52,407.67 L 260.54,407.53"
     style="stroke:black;stroke-width:0.71;stroke-linecap:round;fill:none;stroke-dasharray: 5.67 5.67"
     id="path152" />
  <path
     d="M 222.78,412.39 L 222.75,411.88 L 222.72,411.35 L 222.69,410.82 L 222.65,410.27 L 222.62,409.70 L 222.58,409.13 L 222.55,408.54 L 222.51,407.94 L 222.47,407.33 L 222.44,406.70 L 222.40,406.06 L 222.36,405.41 L 222.32,404.75 L 222.27,404.07 L 222.23,403.39 L 222.19,402.69 L 222.15,401.98 L 222.10,401.26 L 222.06,400.53 L 222.01,399.78 L 221.97,399.03 L 221.92,398.27 L 221.87,397.50 L 221.82,396.72 L 221.78,395.92 L 221.73,395.13 L 221.68,394.32 L 221.63,393.50 L 221.58,392.68 L 221.53,391.86 L 221.48,391.02 L 221.43,390.18 L 221.37,389.34 L 221.32,388.49 L 221.27,387.64 L 221.22,386.78 L 221.17,385.93 L 221.11,385.07 L 221.06,384.21 L 221.01,383.35"
     style="stroke:black;stroke-width:0.71;stroke-linecap:round;fill:none;stroke-dasharray: 5.67 5.67"
     id="path154" />
  <!-- Render block 8
 -->
  <text
     x="283.29959"
     y="416.51056"
     style="font-size:8px;font-style:normal;font-variant:normal;font-weight:normal;font-stretch:normal;text-align:center;line-height:125%;writing-mode:lr-tb;text-anchor:middle;fill:#000000;stroke:none;font-family:Sans;-inkscape-font-specification:Sans"
     id="text156"
     sodipodi:linespacing="125%">
    <tspan
       sodipodi:role="line"
       id="tspan3356"
       x="283.29959"
       y="416.51056">4-0</tspan>
  </text>
  <path
     d="M 260.54,407.53 L 261.56,407.39 L 262.58,407.25 L 263.61,407.10 L 264.64,406.95 L 265.68,406.81 L 266.71,406.66 L 267.76,406.51 L 268.80,406.35 L 269.85,406.20 L 270.91,406.05 L 271.97,405.89 L 273.03,405.73 L 274.09,405.57 L 275.16,405.41 L 276.23,405.25 L 277.31,405.09 L 278.39,404.92 L 279.48,404.76 L 280.56,404.59 L 281.66,404.42 L 282.75,404.25 L 283.85,404.08 L 284.95,403.90 L 286.06,403.73 L 287.17,403.55 L 288.29,403.37 L 289.41,403.19 L 290.53,403.01 L 291.65,402.83 L 292.78,402.64 L 293.92,402.46 L 295.05,402.27 L 296.20,402.08 L 297.34,401.89 L 298.49,401.69 L 299.64,401.50 L 300.80,401.30 L 301.96,401.10 L 303.12,400.90 L 304.29,400.70"
     style="stroke:black;stroke-width:0.71;stroke-linecap:round;fill:none;stroke-dasharray: 5.67 5.67"
     id="path158" />
  <path
     d="M 305.77,419.52 L 305.75,419.28 L 305.73,419.04 L 305.71,418.79 L 305.69,418.52 L 305.67,418.25 L 305.65,417.97 L 305.63,417.68 L 305.60,417.38 L 305.58,417.07 L 305.55,416.75 L 305.53,416.42 L 305.50,416.07 L 305.47,415.72 L 305.44,415.35 L 305.41,414.98 L 305.38,414.59 L 305.35,414.18 L 305.32,413.77 L 305.29,413.34 L 305.25,412.89 L 305.21,412.44 L 305.18,411.97 L 305.14,411.48 L 305.10,410.98 L 305.06,410.46 L 305.02,409.93 L 304.97,409.38 L 304.93,408.82 L 304.88,408.24 L 304.84,407.64 L 304.79,407.03 L 304.74,406.40 L 304.69,405.75 L 304.63,405.08 L 304.58,404.40 L 304.53,403.70 L 304.47,402.97 L 304.41,402.23 L 304.35,401.47 L 304.29,400.70"
     style="stroke:black;stroke-width:0.71;stroke-linecap:round;fill:none;stroke-dasharray: 5.67 5.67"
     id="path160" />
  <path
     d="M 261.62,422.98 L 262.65,422.92 L 263.68,422.86 L 264.72,422.80 L 265.76,422.74 L 266.81,422.68 L 267.86,422.62 L 268.91,422.55 L 269.96,422.49 L 271.02,422.42 L 272.09,422.35 L 273.15,422.28 L 274.23,422.21 L 275.30,422.13 L 276.38,422.06 L 277.46,421.98 L 278.55,421.90 L 279.64,421.82 L 280.73,421.74 L 281.83,421.66 L 282.93,421.58 L 284.04,421.49 L 285.15,421.40 L 286.26,421.31 L 287.38,421.22 L 288.50,421.13 L 289.62,421.04 L 290.75,420.94 L 291.89,420.84 L 293.02,420.74 L 294.16,420.64 L 295.31,420.54 L 296.45,420.43 L 297.61,420.33 L 298.76,420.22 L 299.92,420.11 L 301.08,419.99 L 302.25,419.88 L 303.42,419.76 L 304.59,419.64 L 305.77,419.52"
     style="stroke:black;stroke-width:0.71;stroke-linecap:round;fill:none"
     id="path164" />
  <path
     d="M 261.62,422.98 L 261.61,422.79 L 261.59,422.59 L 261.58,422.38 L 261.57,422.16 L 261.55,421.94 L 261.53,421.71 L 261.52,421.47 L 261.50,421.22 L 261.48,420.97 L 261.46,420.71 L 261.44,420.43 L 261.42,420.15 L 261.40,419.86 L 261.38,419.56 L 261.36,419.25 L 261.34,418.93 L 261.31,418.60 L 261.29,418.26 L 261.27,417.91 L 261.24,417.54 L 261.21,417.17 L 261.19,416.78 L 261.16,416.38 L 261.13,415.97 L 261.10,415.55 L 261.07,415.11 L 261.04,414.66 L 261.01,414.20 L 260.97,413.72 L 260.94,413.23 L 260.90,412.73 L 260.87,412.21 L 260.83,411.68 L 260.79,411.13 L 260.75,410.57 L 260.71,409.99 L 260.67,409.40 L 260.63,408.79 L 260.58,408.17 L 260.54,407.53"
     style="stroke:black;stroke-width:0.71;stroke-linecap:round;fill:none;stroke-dasharray: 5.67 5.67"
     id="path166" />
  <!-- Render block 9
 -->
  <text
     x="281.25742"
     y="388.50464"
     style="font-size:8px;font-weight:normal;text-align:center;line-height:125%;writing-mode:lr;text-anchor:middle;fill:#000000;stroke:none;font-family:Sans;-inkscape-font-specification:Sans;font-style:normal;font-stretch:normal;font-variant:normal"
     id="text168"
     sodipodi:linespacing="125%">
    <tspan
       sodipodi:role="line"
       id="tspan3354"
       x="281.25742"
       y="388.50464">4-1</tspan>
  </text>
  <text
     x="199.32513"
     y="429.72095"
     transform="matrix(0.94408902,-0.32969065,0.32969065,0.94408902,0,0)"
     style="font-size:10px;font-weight:normal;text-anchor:middle;fill:#000000;stroke:none;font-family:sanserif"
     id="text170">SUP_IN</text>
  <path
     d="M 257.93,370.45 L 258.93,370.10 L 259.93,369.75 L 260.94,369.40 L 261.95,369.05 L 262.96,368.70 L 263.98,368.34 L 265.00,367.99 L 266.02,367.63 L 267.05,367.27 L 268.08,366.91 L 269.11,366.55 L 270.15,366.19 L 271.19,365.82 L 272.24,365.46 L 273.29,365.09 L 274.34,364.72 L 275.40,364.36 L 276.46,363.98 L 277.52,363.61 L 278.59,363.24 L 279.66,362.87 L 280.74,362.49 L 281.82,362.11 L 282.90,361.74 L 283.99,361.36 L 285.08,360.98 L 286.17,360.59 L 287.27,360.21 L 288.37,359.83 L 289.47,359.44 L 290.58,359.05 L 291.69,358.67 L 292.81,358.28 L 293.93,357.88 L 295.05,357.49 L 296.18,357.10 L 297.31,356.70 L 298.45,356.31 L 299.59,355.91 L 300.73,355.51"
     style="stroke:black;stroke-width:0.71;stroke-linecap:round;fill:none"
     id="path172" />
  <path
     d="M 304.29,400.70 L 304.23,399.90 L 304.16,399.08 L 304.10,398.25 L 304.03,397.39 L 303.96,396.51 L 303.89,395.62 L 303.82,394.70 L 303.74,393.77 L 303.67,392.82 L 303.59,391.84 L 303.51,390.85 L 303.43,389.84 L 303.35,388.81 L 303.27,387.76 L 303.18,386.69 L 303.10,385.60 L 303.01,384.50 L 302.92,383.38 L 302.83,382.24 L 302.74,381.08 L 302.65,379.91 L 302.56,378.73 L 302.46,377.53 L 302.37,376.31 L 302.27,375.08 L 302.17,373.84 L 302.07,372.58 L 301.97,371.32 L 301.87,370.04 L 301.77,368.75 L 301.67,367.45 L 301.57,366.15 L 301.46,364.83 L 301.36,363.52 L 301.25,362.19 L 301.15,360.86 L 301.04,359.53 L 300.94,358.19 L 300.83,356.85 L 300.73,355.51"
     style="stroke:black;stroke-width:0.71;stroke-linecap:round;fill:none;stroke-dasharray: 5.67 5.67"
     id="path174" />
  <path
     d="M 260.54,407.53 L 261.56,407.39 L 262.58,407.25 L 263.61,407.10 L 264.64,406.95 L 265.68,406.81 L 266.71,406.66 L 267.76,406.51 L 268.80,406.35 L 269.85,406.20 L 270.91,406.05 L 271.97,405.89 L 273.03,405.73 L 274.09,405.57 L 275.16,405.41 L 276.23,405.25 L 277.31,405.09 L 278.39,404.92 L 279.48,404.76 L 280.56,404.59 L 281.66,404.42 L 282.75,404.25 L 283.85,404.08 L 284.95,403.90 L 286.06,403.73 L 287.17,403.55 L 288.29,403.37 L 289.41,403.19 L 290.53,403.01 L 291.65,402.83 L 292.78,402.64 L 293.92,402.46 L 295.05,402.27 L 296.20,402.08 L 297.34,401.89 L 298.49,401.69 L 299.64,401.50 L 300.80,401.30 L 301.96,401.10 L 303.12,400.90 L 304.29,400.70"
     style="stroke:black;stroke-width:0.71;stroke-linecap:round;fill:none;stroke-dasharray: 5.67 5.67"
     id="path176" />
  <path
     d="M 260.54,407.53 L 260.49,406.88 L 260.44,406.21 L 260.40,405.52 L 260.35,404.82 L 260.30,404.10 L 260.25,403.37 L 260.19,402.61 L 260.14,401.85 L 260.08,401.07 L 260.03,400.27 L 259.97,399.45 L 259.91,398.62 L 259.85,397.78 L 259.79,396.91 L 259.73,396.04 L 259.67,395.15 L 259.60,394.24 L 259.54,393.32 L 259.47,392.39 L 259.41,391.44 L 259.34,390.48 L 259.27,389.50 L 259.20,388.52 L 259.13,387.52 L 259.06,386.51 L 258.99,385.49 L 258.92,384.46 L 258.85,383.42 L 258.77,382.37 L 258.70,381.32 L 258.62,380.25 L 258.55,379.18 L 258.47,378.10 L 258.40,377.02 L 258.32,375.93 L 258.24,374.84 L 258.17,373.75 L 258.09,372.65 L 258.01,371.55 L 257.93,370.45"
     style="stroke:black;stroke-width:0.71;stroke-linecap:round;fill:none;stroke-dasharray: 5.67 5.67"
     id="path178" />
  <!-- Render block 10
 -->
  <text
     x="331.09528"
     y="409.67664"
     style="font-size:8px;font-style:normal;font-variant:normal;font-weight:normal;font-stretch:normal;text-align:center;line-height:125%;writing-mode:lr-tb;text-anchor:middle;fill:#000000;stroke:none;font-family:Sans;-inkscape-font-specification:Sans"
     id="text180"
     sodipodi:linespacing="125%">
    <tspan
       sodipodi:role="line"
       id="tspan3352"
       x="331.09528"
       y="409.67664">5-0</tspan>
  </text>
  <path
     d="M 304.29,400.70 L 305.46,400.49 L 306.63,400.28 L 307.81,400.08 L 309.00,399.87 L 310.18,399.65 L 311.37,399.44 L 312.57,399.22 L 313.76,399.00 L 314.97,398.78 L 316.17,398.56 L 317.38,398.33 L 318.59,398.11 L 319.81,397.88 L 321.03,397.65 L 322.25,397.41 L 323.48,397.18 L 324.71,396.94 L 325.94,396.70 L 327.18,396.45 L 328.42,396.21 L 329.67,395.96 L 330.92,395.71 L 332.17,395.46 L 333.43,395.21 L 334.69,394.95 L 335.95,394.69 L 337.22,394.43 L 338.49,394.16 L 339.77,393.90 L 341.04,393.63 L 342.33,393.35 L 343.61,393.08 L 344.90,392.80 L 346.19,392.52 L 347.49,392.24 L 348.79,391.95 L 350.09,391.66 L 351.40,391.37 L 352.71,391.08 L 354.03,390.78"
     style="stroke:black;stroke-width:0.71;stroke-linecap:round;fill:none;stroke-dasharray: 5.67 5.67"
     id="path182" />
  <path
     d="M 355.96,412.55 L 355.94,412.28 L 355.91,412.00 L 355.89,411.70 L 355.86,411.40 L 355.83,411.09 L 355.80,410.76 L 355.77,410.43 L 355.74,410.08 L 355.71,409.72 L 355.68,409.35 L 355.64,408.96 L 355.61,408.57 L 355.57,408.16 L 355.53,407.73 L 355.50,407.30 L 355.46,406.85 L 355.41,406.38 L 355.37,405.90 L 355.33,405.40 L 355.28,404.89 L 355.23,404.36 L 355.19,403.82 L 355.14,403.25 L 355.08,402.68 L 355.03,402.08 L 354.98,401.46 L 354.92,400.83 L 354.86,400.18 L 354.80,399.51 L 354.74,398.82 L 354.68,398.11 L 354.61,397.38 L 354.55,396.63 L 354.48,395.86 L 354.41,395.07 L 354.33,394.25 L 354.26,393.42 L 354.18,392.56 L 354.11,391.68 L 354.03,390.78"
     style="stroke:black;stroke-width:0.71;stroke-linecap:round;fill:none;stroke-dasharray: 5.67 5.67"
     id="path184" />
  <path
     d="M 305.77,419.52 L 306.95,419.40 L 308.14,419.27 L 309.33,419.14 L 310.52,419.01 L 311.72,418.88 L 312.92,418.75 L 314.13,418.61 L 315.33,418.47 L 316.55,418.33 L 317.76,418.18 L 318.98,418.04 L 320.21,417.89 L 321.43,417.73 L 322.66,417.58 L 323.90,417.42 L 325.14,417.26 L 326.38,417.10 L 327.62,416.94 L 328.87,416.77 L 330.13,416.60 L 331.38,416.42 L 332.65,416.25 L 333.91,416.07 L 335.18,415.89 L 336.45,415.70 L 337.73,415.51 L 339.00,415.32 L 340.29,415.13 L 341.57,414.93 L 342.86,414.73 L 344.16,414.53 L 345.46,414.32 L 346.76,414.11 L 348.06,413.90 L 349.37,413.68 L 350.68,413.47 L 352.00,413.24 L 353.32,413.02 L 354.64,412.79 L 355.96,412.55"
     style="stroke:black;stroke-width:0.71;stroke-linecap:round;fill:none"
     id="path188" />
  <path
     d="M 305.77,419.52 L 305.75,419.28 L 305.73,419.04 L 305.71,418.79 L 305.69,418.52 L 305.67,418.25 L 305.65,417.97 L 305.63,417.68 L 305.60,417.38 L 305.58,417.07 L 305.55,416.75 L 305.53,416.42 L 305.50,416.07 L 305.47,415.72 L 305.44,415.35 L 305.41,414.98 L 305.38,414.59 L 305.35,414.18 L 305.32,413.77 L 305.29,413.34 L 305.25,412.89 L 305.21,412.44 L 305.18,411.97 L 305.14,411.48 L 305.10,410.98 L 305.06,410.46 L 305.02,409.93 L 304.97,409.38 L 304.93,408.82 L 304.88,408.24 L 304.84,407.64 L 304.79,407.03 L 304.74,406.40 L 304.69,405.75 L 304.63,405.08 L 304.58,404.40 L 304.53,403.70 L 304.47,402.97 L 304.41,402.23 L 304.35,401.47 L 304.29,400.70"
     style="stroke:black;stroke-width:0.71;stroke-linecap:round;fill:none;stroke-dasharray: 5.67 5.67"
     id="path190" />
  <!-- Render block 11
 -->
  <text
     x="326.60175"
     y="376.50031"
     style="font-size:10px;font-weight:normal;text-align:center;line-height:125%;writing-mode:lr-tb;text-anchor:middle;fill:#000000;stroke:none;font-family:sanserif"
     id="text192"
     sodipodi:linespacing="125%">
    <tspan
       sodipodi:role="line"
       id="tspan3350"
       x="326.60175"
       y="376.50031">5-1</tspan>
  </text>
  <path
     d="M 300.73,355.51 L 301.87,355.11 L 303.02,354.71 L 304.17,354.31 L 305.33,353.90 L 306.49,353.50 L 307.66,353.09 L 308.82,352.68 L 309.99,352.28 L 311.17,351.87 L 312.35,351.45 L 313.53,351.04 L 314.72,350.63 L 315.91,350.21 L 317.10,349.80 L 318.30,349.38 L 319.50,348.96 L 320.70,348.54 L 321.91,348.12 L 323.12,347.69 L 324.33,347.27 L 325.55,346.84 L 326.77,346.42 L 328.00,345.99 L 329.23,345.56 L 330.46,345.13 L 331.70,344.70 L 332.94,344.27 L 334.18,343.83 L 335.43,343.40 L 336.68,342.96 L 337.93,342.52 L 339.19,342.08 L 340.45,341.64 L 341.71,341.20 L 342.98,340.76 L 344.25,340.31 L 345.53,339.87 L 346.81,339.42 L 348.09,338.98 L 349.37,338.53"
     style="stroke:black;stroke-width:0.71;stroke-linecap:round;fill:none"
     id="path196" />
  <path
     d="M 354.03,390.78 L 353.94,389.86 L 353.86,388.92 L 353.77,387.95 L 353.69,386.96 L 353.60,385.95 L 353.50,384.91 L 353.41,383.85 L 353.31,382.77 L 353.21,381.67 L 353.11,380.54 L 353.01,379.39 L 352.91,378.22 L 352.80,377.03 L 352.69,375.82 L 352.58,374.58 L 352.47,373.33 L 352.36,372.05 L 352.24,370.75 L 352.13,369.44 L 352.01,368.10 L 351.89,366.75 L 351.76,365.37 L 351.64,363.99 L 351.52,362.58 L 351.39,361.16 L 351.26,359.72 L 351.13,358.27 L 351.00,356.80 L 350.87,355.33 L 350.74,353.84 L 350.60,352.34 L 350.47,350.83 L 350.33,349.31 L 350.20,347.78 L 350.06,346.25 L 349.93,344.71 L 349.79,343.17 L 349.65,341.62 L 349.51,340.08 L 349.37,338.53"
     style="stroke:black;stroke-width:0.71;stroke-linecap:round;fill:none;stroke-dasharray: 5.67 5.67"
     id="path198" />
  <path
     d="M 304.29,400.70 L 305.46,400.49 L 306.63,400.28 L 307.81,400.08 L 309.00,399.87 L 310.18,399.65 L 311.37,399.44 L 312.57,399.22 L 313.76,399.00 L 314.97,398.78 L 316.17,398.56 L 317.38,398.33 L 318.59,398.11 L 319.81,397.88 L 321.03,397.65 L 322.25,397.41 L 323.48,397.18 L 324.71,396.94 L 325.94,396.70 L 327.18,396.45 L 328.42,396.21 L 329.67,395.96 L 330.92,395.71 L 332.17,395.46 L 333.43,395.21 L 334.69,394.95 L 335.95,394.69 L 337.22,394.43 L 338.49,394.16 L 339.77,393.90 L 341.04,393.63 L 342.33,393.35 L 343.61,393.08 L 344.90,392.80 L 346.19,392.52 L 347.49,392.24 L 348.79,391.95 L 350.09,391.66 L 351.40,391.37 L 352.71,391.08 L 354.03,390.78"
     style="stroke:black;stroke-width:0.71;stroke-linecap:round;fill:none;stroke-dasharray: 5.67 5.67"
     id="path200" />
  <path
     d="M 304.29,400.70 L 304.23,399.90 L 304.16,399.08 L 304.10,398.25 L 304.03,397.39 L 303.96,396.51 L 303.89,395.62 L 303.82,394.70 L 303.74,393.77 L 303.67,392.82 L 303.59,391.84 L 303.51,390.85 L 303.43,389.84 L 303.35,388.81 L 303.27,387.76 L 303.18,386.69 L 303.10,385.60 L 303.01,384.50 L 302.92,383.38 L 302.83,382.24 L 302.74,381.08 L 302.65,379.91 L 302.56,378.73 L 302.46,377.53 L 302.37,376.31 L 302.27,375.08 L 302.17,373.84 L 302.07,372.58 L 301.97,371.32 L 301.87,370.04 L 301.77,368.75 L 301.67,367.45 L 301.57,366.15 L 301.46,364.83 L 301.36,363.52 L 301.25,362.19 L 301.15,360.86 L 301.04,359.53 L 300.94,358.19 L 300.83,356.85 L 300.73,355.51"
     style="stroke:black;stroke-width:0.71;stroke-linecap:round;fill:none;stroke-dasharray: 5.67 5.67"
     id="path202" />
  <!-- Render block 12
 -->
  <text
     x="382.10001"
     y="398.70273"
     style="font-size:10px;font-weight:normal;text-align:center;line-height:125%;writing-mode:lr-tb;text-anchor:middle;fill:#000000;stroke:none;font-family:sanserif"
     id="text204"
     sodipodi:linespacing="125%">
    <tspan
       sodipodi:role="line"
       id="tspan3348"
       x="382.10001"
       y="398.70273">6-0</tspan>
  </text>
  <path
     d="M 354.03,390.78 L 355.34,390.48 L 356.66,390.18 L 357.99,389.88 L 359.32,389.57 L 360.65,389.26 L 361.98,388.94 L 363.32,388.62 L 364.66,388.30 L 366.01,387.98 L 367.36,387.65 L 368.71,387.32 L 370.07,386.99 L 371.43,386.66 L 372.79,386.32 L 374.15,385.97 L 375.52,385.63 L 376.90,385.28 L 378.27,384.93 L 379.65,384.57 L 381.03,384.21 L 382.42,383.85 L 383.81,383.48 L 385.20,383.11 L 386.60,382.74 L 387.99,382.36 L 389.40,381.98 L 390.80,381.60 L 392.21,381.21 L 393.62,380.82 L 395.04,380.43 L 396.45,380.03 L 397.87,379.63 L 399.30,379.22 L 400.73,378.81 L 402.16,378.40 L 403.59,377.98 L 405.03,377.56 L 406.47,377.13 L 407.91,376.70 L 409.35,376.27"
     style="stroke:black;stroke-width:0.71;stroke-linecap:round;fill:none;stroke-dasharray: 5.67 5.67"
     id="path206" />
  <path
     d="M 411.80,399.87 L 411.77,399.57 L 411.73,399.26 L 411.70,398.95 L 411.67,398.62 L 411.63,398.28 L 411.60,397.92 L 411.56,397.56 L 411.52,397.18 L 411.48,396.79 L 411.44,396.39 L 411.39,395.98 L 411.35,395.55 L 411.30,395.10 L 411.26,394.64 L 411.21,394.17 L 411.16,393.68 L 411.10,393.18 L 411.05,392.65 L 410.99,392.12 L 410.94,391.56 L 410.88,390.99 L 410.82,390.40 L 410.75,389.79 L 410.69,389.16 L 410.62,388.51 L 410.55,387.85 L 410.48,387.16 L 410.41,386.46 L 410.33,385.73 L 410.26,384.98 L 410.18,384.21 L 410.09,383.42 L 410.01,382.61 L 409.92,381.77 L 409.83,380.91 L 409.74,380.03 L 409.65,379.13 L 409.55,378.20 L 409.45,377.25 L 409.35,376.27"
     style="stroke:black;stroke-width:0.71;stroke-linecap:round;fill:none;stroke-dasharray: 5.67 5.67"
     id="path208" />
  <path
     d="M 355.96,412.55 L 357.29,412.32 L 358.63,412.08 L 359.96,411.83 L 361.30,411.58 L 362.65,411.33 L 363.99,411.08 L 365.35,410.82 L 366.70,410.55 L 368.06,410.29 L 369.42,410.02 L 370.78,409.74 L 372.15,409.46 L 373.52,409.18 L 374.90,408.90 L 376.28,408.60 L 377.66,408.31 L 379.04,408.01 L 380.43,407.71 L 381.82,407.40 L 383.22,407.09 L 384.62,406.77 L 386.02,406.45 L 387.42,406.12 L 388.83,405.79 L 390.24,405.46 L 391.66,405.12 L 393.07,404.78 L 394.50,404.43 L 395.92,404.08 L 397.35,403.72 L 398.78,403.36 L 400.21,402.99 L 401.65,402.62 L 403.09,402.24 L 404.53,401.86 L 405.98,401.47 L 407.43,401.08 L 408.88,400.68 L 410.34,400.27 L 411.80,399.87"
     style="stroke:black;stroke-width:0.71;stroke-linecap:round;fill:none"
     id="path212" />
  <path
     d="M 355.96,412.55 L 355.94,412.28 L 355.91,412.00 L 355.89,411.70 L 355.86,411.40 L 355.83,411.09 L 355.80,410.76 L 355.77,410.43 L 355.74,410.08 L 355.71,409.72 L 355.68,409.35 L 355.64,408.96 L 355.61,408.57 L 355.57,408.16 L 355.53,407.73 L 355.50,407.30 L 355.46,406.85 L 355.41,406.38 L 355.37,405.90 L 355.33,405.40 L 355.28,404.89 L 355.23,404.36 L 355.19,403.82 L 355.14,403.25 L 355.08,402.68 L 355.03,402.08 L 354.98,401.46 L 354.92,400.83 L 354.86,400.18 L 354.80,399.51 L 354.74,398.82 L 354.68,398.11 L 354.61,397.38 L 354.55,396.63 L 354.48,395.86 L 354.41,395.07 L 354.33,394.25 L 354.26,393.42 L 354.18,392.56 L 354.11,391.68 L 354.03,390.78"
     style="stroke:black;stroke-width:0.71;stroke-linecap:round;fill:none;stroke-dasharray: 5.67 5.67"
     id="path214" />
  <!-- Render block 13
 -->
  <text
     x="377.71609"
     y="361.35815"
     style="font-size:10px;font-weight:normal;text-align:center;line-height:125%;writing-mode:lr-tb;text-anchor:middle;fill:#000000;stroke:none;font-family:sanserif"
     id="text216"
     sodipodi:linespacing="125%">
    <tspan
       sodipodi:role="line"
       id="tspan3346"
       x="377.71609"
       y="361.35815">6-1</tspan>
  </text>
  <path
     d="M 349.37,338.53 L 350.66,338.08 L 351.96,337.63 L 353.25,337.17 L 354.55,336.72 L 355.85,336.26 L 357.16,335.81 L 358.47,335.35 L 359.78,334.89 L 361.10,334.43 L 362.42,333.97 L 363.74,333.51 L 365.06,333.05 L 366.39,332.58 L 367.73,332.12 L 369.06,331.65 L 370.40,331.19 L 371.74,330.72 L 373.09,330.25 L 374.44,329.78 L 375.79,329.30 L 377.15,328.83 L 378.50,328.36 L 379.87,327.88 L 381.23,327.40 L 382.60,326.93 L 383.97,326.45 L 385.34,325.97 L 386.72,325.49 L 388.10,325.01 L 389.49,324.52 L 390.87,324.04 L 392.26,323.55 L 393.66,323.07 L 395.05,322.58 L 396.45,322.09 L 397.85,321.60 L 399.26,321.11 L 400.67,320.62 L 402.08,320.13 L 403.49,319.63"
     style="stroke:black;stroke-width:0.71;stroke-linecap:round;fill:none"
     id="path220" />
  <path
     d="M 409.35,376.27 L 409.25,375.27 L 409.14,374.25 L 409.04,373.20 L 408.92,372.13 L 408.81,371.03 L 408.69,369.91 L 408.58,368.76 L 408.45,367.59 L 408.33,366.39 L 408.20,365.17 L 408.08,363.93 L 407.94,362.66 L 407.81,361.37 L 407.67,360.05 L 407.54,358.71 L 407.39,357.35 L 407.25,355.97 L 407.11,354.56 L 406.96,353.14 L 406.81,351.69 L 406.66,350.22 L 406.50,348.73 L 406.35,347.23 L 406.19,345.70 L 406.03,344.16 L 405.87,342.60 L 405.71,341.03 L 405.54,339.44 L 405.37,337.84 L 405.21,336.23 L 405.04,334.60 L 404.87,332.96 L 404.70,331.32 L 404.53,329.67 L 404.36,328.00 L 404.18,326.34 L 404.01,324.67 L 403.84,322.99 L 403.66,321.31 L 403.49,319.63"
     style="stroke:black;stroke-width:0.71;stroke-linecap:round;fill:none;stroke-dasharray: 5.67 5.67"
     id="path222" />
  <path
     d="M 354.03,390.78 L 355.34,390.48 L 356.66,390.18 L 357.99,389.88 L 359.32,389.57 L 360.65,389.26 L 361.98,388.94 L 363.32,388.62 L 364.66,388.30 L 366.01,387.98 L 367.36,387.65 L 368.71,387.32 L 370.07,386.99 L 371.43,386.66 L 372.79,386.32 L 374.15,385.97 L 375.52,385.63 L 376.90,385.28 L 378.27,384.93 L 379.65,384.57 L 381.03,384.21 L 382.42,383.85 L 383.81,383.48 L 385.20,383.11 L 386.60,382.74 L 387.99,382.36 L 389.40,381.98 L 390.80,381.60 L 392.21,381.21 L 393.62,380.82 L 395.04,380.43 L 396.45,380.03 L 397.87,379.63 L 399.30,379.22 L 400.73,378.81 L 402.16,378.40 L 403.59,377.98 L 405.03,377.56 L 406.47,377.13 L 407.91,376.70 L 409.35,376.27"
     style="stroke:black;stroke-width:0.71;stroke-linecap:round;fill:none;stroke-dasharray: 5.67 5.67"
     id="path224" />
  <path
     d="M 354.03,390.78 L 353.94,389.86 L 353.86,388.92 L 353.77,387.95 L 353.69,386.96 L 353.60,385.95 L 353.50,384.91 L 353.41,383.85 L 353.31,382.77 L 353.21,381.67 L 353.11,380.54 L 353.01,379.39 L 352.91,378.22 L 352.80,377.03 L 352.69,375.82 L 352.58,374.58 L 352.47,373.33 L 352.36,372.05 L 352.24,370.75 L 352.13,369.44 L 352.01,368.10 L 351.89,366.75 L 351.76,365.37 L 351.64,363.99 L 351.52,362.58 L 351.39,361.16 L 351.26,359.72 L 351.13,358.27 L 351.00,356.80 L 350.87,355.33 L 350.74,353.84 L 350.60,352.34 L 350.47,350.83 L 350.33,349.31 L 350.20,347.78 L 350.06,346.25 L 349.93,344.71 L 349.79,343.17 L 349.65,341.62 L 349.51,340.08 L 349.37,338.53"
     style="stroke:black;stroke-width:0.71;stroke-linecap:round;fill:none;stroke-dasharray: 5.67 5.67"
     id="path226" />
  <!-- Render block 14
 -->
  <text
     x="440.20001"
     y="382.27448"
     style="font-size:10px;font-weight:normal;text-align:center;line-height:125%;writing-mode:lr-tb;text-anchor:middle;fill:#000000;stroke:none;font-family:sanserif"
     id="text228"
     sodipodi:linespacing="125%">
    <tspan
       sodipodi:role="line"
       id="tspan3344"
       x="440.20001"
       y="382.27448">7-0</tspan>
  </text>
  <path
     d="M 409.35,376.27 L 410.80,375.83 L 412.25,375.39 L 413.71,374.95 L 415.17,374.50 L 416.63,374.04 L 418.09,373.58 L 419.56,373.12 L 421.02,372.66 L 422.50,372.19 L 423.97,371.71 L 425.45,371.23 L 426.93,370.75 L 428.41,370.26 L 429.90,369.77 L 431.39,369.27 L 432.88,368.77 L 434.37,368.26 L 435.87,367.75 L 437.37,367.23 L 438.87,366.71 L 440.37,366.19 L 441.88,365.66 L 443.39,365.13 L 444.90,364.59 L 446.42,364.04 L 447.94,363.49 L 449.46,362.94 L 450.98,362.38 L 452.50,361.82 L 454.03,361.25 L 455.56,360.68 L 457.09,360.10 L 458.63,359.52 L 460.16,358.93 L 461.70,358.33 L 463.24,357.74 L 464.79,357.13 L 466.33,356.52 L 467.88,355.91 L 469.43,355.29"
     style="stroke:black;stroke-width:0.71;stroke-linecap:round;fill:none;stroke-dasharray: 5.67 5.67"
     id="path230" />
  <path
     d="M 472.42,378.69 L 472.38,378.40 L 472.35,378.09 L 472.31,377.78 L 472.26,377.45 L 472.22,377.11 L 472.18,376.77 L 472.13,376.40 L 472.08,376.03 L 472.03,375.64 L 471.98,375.25 L 471.93,374.83 L 471.87,374.41 L 471.82,373.97 L 471.76,373.51 L 471.70,373.04 L 471.64,372.56 L 471.57,372.06 L 471.51,371.54 L 471.44,371.00 L 471.37,370.45 L 471.30,369.89 L 471.22,369.30 L 471.14,368.70 L 471.07,368.07 L 470.98,367.43 L 470.90,366.77 L 470.81,366.09 L 470.72,365.39 L 470.63,364.67 L 470.54,363.93 L 470.44,363.16 L 470.34,362.38 L 470.23,361.57 L 470.13,360.74 L 470.02,359.89 L 469.91,359.02 L 469.79,358.12 L 469.68,357.20 L 469.55,356.26 L 469.43,355.29"
     style="stroke:black;stroke-width:0.71;stroke-linecap:round;fill:none;stroke-dasharray: 5.67 5.67"
     id="path232" />
  <text
     x="291.92566"
     y="525.37067"
     transform="matrix(0.94529106,-0.32622817,0.32622817,0.94529106,0,0)"
     style="font-size:10px;font-weight:normal;text-anchor:middle;fill:#000000;stroke:none;font-family:sanserif"
     id="text234">FIXED_T</text>
  <path
     d="M 411.80,399.87 L 413.26,399.45 L 414.72,399.03 L 416.19,398.61 L 417.66,398.18 L 419.14,397.74 L 420.61,397.30 L 422.09,396.86 L 423.57,396.41 L 425.06,395.95 L 426.55,395.48 L 428.04,395.02 L 429.53,394.54 L 431.03,394.06 L 432.53,393.57 L 434.03,393.08 L 435.53,392.58 L 437.04,392.08 L 438.55,391.57 L 440.07,391.05 L 441.58,390.53 L 443.10,390.00 L 444.62,389.46 L 446.14,388.92 L 447.67,388.37 L 449.20,387.82 L 450.73,387.26 L 452.26,386.69 L 453.80,386.11 L 455.34,385.53 L 456.88,384.94 L 458.42,384.35 L 459.97,383.75 L 461.52,383.14 L 463.07,382.53 L 464.62,381.90 L 466.18,381.28 L 467.74,380.64 L 469.30,380.00 L 470.86,379.35 L 472.42,378.69"
     style="stroke:black;stroke-width:0.71;stroke-linecap:round;fill:none"
     id="path236" />
  <path
     d="M 411.80,399.87 L 411.77,399.57 L 411.73,399.26 L 411.70,398.95 L 411.67,398.62 L 411.63,398.28 L 411.60,397.92 L 411.56,397.56 L 411.52,397.18 L 411.48,396.79 L 411.44,396.39 L 411.39,395.98 L 411.35,395.55 L 411.30,395.10 L 411.26,394.64 L 411.21,394.17 L 411.16,393.68 L 411.10,393.18 L 411.05,392.65 L 410.99,392.12 L 410.94,391.56 L 410.88,390.99 L 410.82,390.40 L 410.75,389.79 L 410.69,389.16 L 410.62,388.51 L 410.55,387.85 L 410.48,387.16 L 410.41,386.46 L 410.33,385.73 L 410.26,384.98 L 410.18,384.21 L 410.09,383.42 L 410.01,382.61 L 409.92,381.77 L 409.83,380.91 L 409.74,380.03 L 409.65,379.13 L 409.55,378.20 L 409.45,377.25 L 409.35,376.27"
     style="stroke:black;stroke-width:0.71;stroke-linecap:round;fill:none;stroke-dasharray: 5.67 5.67"
     id="path238" />
  <!-- Render block 15
 -->
  <text
     x="434.79608"
     y="342.32422"
     style="font-size:10px;font-weight:normal;text-align:center;line-height:125%;writing-mode:lr-tb;text-anchor:middle;fill:#000000;stroke:none;font-family:sanserif"
     id="text240"
     sodipodi:linespacing="125%">
    <tspan
       sodipodi:role="line"
       id="tspan3342"
       x="434.79608"
       y="342.32422">7-1</tspan>
  </text>
  <path
     d="M 403.49,319.63 L 404.91,319.14 L 406.33,318.64 L 407.75,318.15 L 409.17,317.65 L 410.60,317.15 L 412.03,316.65 L 413.47,316.15 L 414.90,315.65 L 416.34,315.14 L 417.79,314.64 L 419.23,314.14 L 420.68,313.63 L 422.13,313.12 L 423.58,312.62 L 425.04,312.11 L 426.50,311.60 L 427.96,311.09 L 429.42,310.58 L 430.89,310.07 L 432.36,309.55 L 433.83,309.04 L 435.30,308.52 L 436.78,308.01 L 438.26,307.49 L 439.74,306.98 L 441.23,306.46 L 442.71,305.94 L 444.20,305.42 L 445.69,304.90 L 447.19,304.38 L 448.68,303.85 L 450.18,303.33 L 451.68,302.81 L 453.19,302.28 L 454.69,301.76 L 456.20,301.23 L 457.71,300.70 L 459.22,300.17 L 460.73,299.65 L 462.25,299.12"
     style="stroke:black;stroke-width:0.71;stroke-linecap:round;fill:none"
     id="path244" />
  <path
     d="M 469.43,355.29 L 469.30,354.30 L 469.17,353.28 L 469.04,352.24 L 468.91,351.18 L 468.77,350.09 L 468.62,348.98 L 468.48,347.84 L 468.33,346.68 L 468.18,345.49 L 468.02,344.28 L 467.87,343.05 L 467.71,341.79 L 467.54,340.51 L 467.38,339.20 L 467.21,337.88 L 467.03,336.53 L 466.86,335.15 L 466.68,333.76 L 466.50,332.34 L 466.31,330.91 L 466.13,329.45 L 465.94,327.98 L 465.75,326.48 L 465.56,324.97 L 465.36,323.44 L 465.16,321.90 L 464.96,320.34 L 464.76,318.76 L 464.56,317.17 L 464.35,315.57 L 464.15,313.96 L 463.94,312.34 L 463.73,310.71 L 463.52,309.07 L 463.31,307.42 L 463.10,305.77 L 462.89,304.11 L 462.68,302.45 L 462.46,300.78 L 462.25,299.12"
     style="stroke:black;stroke-width:0.71;stroke-linecap:round;fill:none;stroke-dasharray: 5.67 5.67"
     id="path246" />
  <path
     d="M 409.35,376.27 L 410.80,375.83 L 412.25,375.39 L 413.71,374.95 L 415.17,374.50 L 416.63,374.04 L 418.09,373.58 L 419.56,373.12 L 421.02,372.66 L 422.50,372.19 L 423.97,371.71 L 425.45,371.23 L 426.93,370.75 L 428.41,370.26 L 429.90,369.77 L 431.39,369.27 L 432.88,368.77 L 434.37,368.26 L 435.87,367.75 L 437.37,367.23 L 438.87,366.71 L 440.37,366.19 L 441.88,365.66 L 443.39,365.13 L 444.90,364.59 L 446.42,364.04 L 447.94,363.49 L 449.46,362.94 L 450.98,362.38 L 452.50,361.82 L 454.03,361.25 L 455.56,360.68 L 457.09,360.10 L 458.63,359.52 L 460.16,358.93 L 461.70,358.33 L 463.24,357.74 L 464.79,357.13 L 466.33,356.52 L 467.88,355.91 L 469.43,355.29"
     style="stroke:black;stroke-width:0.71;stroke-linecap:round;fill:none;stroke-dasharray: 5.67 5.67"
     id="path248" />
  <path
     d="M 409.35,376.27 L 409.25,375.27 L 409.14,374.25 L 409.04,373.20 L 408.92,372.13 L 408.81,371.03 L 408.69,369.91 L 408.58,368.76 L 408.45,367.59 L 408.33,366.39 L 408.20,365.17 L 408.08,363.93 L 407.94,362.66 L 407.81,361.37 L 407.67,360.05 L 407.54,358.71 L 407.39,357.35 L 407.25,355.97 L 407.11,354.56 L 406.96,353.14 L 406.81,351.69 L 406.66,350.22 L 406.50,348.73 L 406.35,347.23 L 406.19,345.70 L 406.03,344.16 L 405.87,342.60 L 405.71,341.03 L 405.54,339.44 L 405.37,337.84 L 405.21,336.23 L 405.04,334.60 L 404.87,332.96 L 404.70,331.32 L 404.53,329.67 L 404.36,328.00 L 404.18,326.34 L 404.01,324.67 L 403.84,322.99 L 403.66,321.31 L 403.49,319.63"
     style="stroke:black;stroke-width:0.71;stroke-linecap:round;fill:none;stroke-dasharray: 5.67 5.67"
     id="path250" />
  <!-- Render block 16
 -->
  <text
     x="502.27609"
     y="355.92273"
     style="font-size:10px;font-weight:normal;text-align:center;line-height:125%;writing-mode:lr-tb;text-anchor:middle;fill:#000000;stroke:none;font-family:sanserif"
     id="text252"
     sodipodi:linespacing="125%">
    <tspan
       sodipodi:role="line"
       id="tspan3338"
       x="502.27609"
       y="355.92273">8-0</tspan>
  </text>
  <path
     d="M 469.43,355.29 L 470.98,354.66 L 472.54,354.03 L 474.10,353.40 L 475.65,352.76 L 477.22,352.11 L 478.78,351.46 L 480.34,350.80 L 481.91,350.14 L 483.48,349.47 L 485.05,348.80 L 486.62,348.12 L 488.20,347.43 L 489.78,346.74 L 491.36,346.05 L 492.94,345.35 L 494.52,344.64 L 496.10,343.92 L 497.69,343.21 L 499.28,342.48 L 500.87,341.75 L 502.46,341.01 L 504.05,340.27 L 505.65,339.52 L 507.24,338.77 L 508.84,338.01 L 510.44,337.24 L 512.04,336.47 L 513.64,335.71 L 515.25,334.94 L 516.85,334.17 L 518.46,333.40 L 520.07,332.63 L 521.68,331.86 L 523.29,331.08 L 524.90,330.31 L 526.51,329.54 L 528.13,328.76 L 529.74,327.99 L 531.36,327.21 L 532.98,326.44"
     style="stroke:black;stroke-width:0.71;stroke-linecap:round;fill:none;stroke-dasharray: 5.67 5.67"
     id="path254" />
  <path
     d="M 536.55,346.86 L 536.51,346.61 L 536.46,346.34 L 536.41,346.07 L 536.36,345.78 L 536.31,345.49 L 536.26,345.18 L 536.20,344.87 L 536.15,344.54 L 536.09,344.20 L 536.03,343.86 L 535.96,343.50 L 535.90,343.12 L 535.83,342.74 L 535.76,342.34 L 535.69,341.93 L 535.61,341.51 L 535.54,341.07 L 535.46,340.62 L 535.38,340.15 L 535.29,339.67 L 535.21,339.18 L 535.12,338.67 L 535.03,338.14 L 534.93,337.60 L 534.83,337.04 L 534.73,336.46 L 534.63,335.87 L 534.52,335.25 L 534.41,334.63 L 534.30,333.98 L 534.18,333.31 L 534.06,332.63 L 533.94,331.92 L 533.81,331.20 L 533.68,330.46 L 533.55,329.69 L 533.41,328.91 L 533.27,328.11 L 533.13,327.28 L 532.98,326.44"
     style="stroke:black;stroke-width:0.71;stroke-linecap:round;fill:none;stroke-dasharray: 5.67 5.67"
     id="path256" />
  <path
     d="M 472.42,378.69 L 473.99,378.03 L 475.56,377.36 L 477.13,376.68 L 478.70,375.99 L 480.28,375.30 L 481.86,374.60 L 483.43,373.89 L 485.02,373.17 L 486.60,372.45 L 488.19,371.72 L 489.77,370.98 L 491.36,370.23 L 492.95,369.48 L 494.55,368.72 L 496.14,367.95 L 497.74,367.17 L 499.34,366.39 L 500.94,365.59 L 502.54,364.79 L 504.15,363.98 L 505.75,363.16 L 507.36,362.34 L 508.97,361.51 L 510.58,360.66 L 512.19,359.81 L 513.80,358.96 L 515.42,358.10 L 517.04,357.24 L 518.66,356.38 L 520.28,355.52 L 521.90,354.65 L 523.52,353.79 L 525.14,352.93 L 526.77,352.06 L 528.40,351.20 L 530.03,350.33 L 531.66,349.47 L 533.29,348.60 L 534.92,347.73 L 536.55,346.86"
     style="stroke:black;stroke-width:0.71;stroke-linecap:round;fill:none"
     id="path260" />
  <path
     d="M 472.42,378.69 L 472.38,378.40 L 472.35,378.09 L 472.31,377.78 L 472.26,377.45 L 472.22,377.11 L 472.18,376.77 L 472.13,376.40 L 472.08,376.03 L 472.03,375.64 L 471.98,375.25 L 471.93,374.83 L 471.87,374.41 L 471.82,373.97 L 471.76,373.51 L 471.70,373.04 L 471.64,372.56 L 471.57,372.06 L 471.51,371.54 L 471.44,371.00 L 471.37,370.45 L 471.30,369.89 L 471.22,369.30 L 471.14,368.70 L 471.07,368.07 L 470.98,367.43 L 470.90,366.77 L 470.81,366.09 L 470.72,365.39 L 470.63,364.67 L 470.54,363.93 L 470.44,363.16 L 470.34,362.38 L 470.23,361.57 L 470.13,360.74 L 470.02,359.89 L 469.91,359.02 L 469.79,358.12 L 469.68,357.20 L 469.55,356.26 L 469.43,355.29"
     style="stroke:black;stroke-width:0.71;stroke-linecap:round;fill:none;stroke-dasharray: 5.67 5.67"
     id="path262" />
  <!-- Render block 17
 -->
  <text
     x="495.78217"
     y="318.59464"
     style="font-size:10px;font-weight:normal;text-align:center;line-height:125%;writing-mode:lr-tb;text-anchor:middle;fill:#000000;stroke:none;font-family:sanserif"
     id="text264"
     sodipodi:linespacing="125%">
    <tspan
       sodipodi:role="line"
       id="tspan3340"
       x="495.78217"
       y="318.59464">8-1</tspan>
  </text>
  <path
     d="M 462.25,299.12 L 463.77,298.59 L 465.29,298.06 L 466.81,297.52 L 468.34,296.99 L 469.86,296.46 L 471.39,295.92 L 472.92,295.39 L 474.46,294.85 L 475.99,294.32 L 477.53,293.78 L 479.07,293.24 L 480.61,292.71 L 482.15,292.17 L 483.70,291.63 L 485.24,291.09 L 486.79,290.55 L 488.34,290.01 L 489.89,289.47 L 491.44,288.92 L 493.00,288.38 L 494.55,287.84 L 496.11,287.29 L 497.67,286.75 L 499.23,286.20 L 500.80,285.66 L 502.36,285.11 L 503.93,284.57 L 505.49,284.02 L 507.06,283.47 L 508.63,282.92 L 510.20,282.37 L 511.78,281.82 L 513.35,281.28 L 514.93,280.72 L 516.50,280.17 L 518.08,279.62 L 519.66,279.07 L 521.24,278.52 L 522.82,277.97 L 524.41,277.42"
     style="stroke:black;stroke-width:0.71;stroke-linecap:round;fill:none"
     id="path268" />
  <path
     d="M 532.98,326.44 L 532.83,325.57 L 532.67,324.69 L 532.51,323.78 L 532.35,322.85 L 532.19,321.90 L 532.02,320.93 L 531.84,319.94 L 531.67,318.92 L 531.48,317.89 L 531.30,316.83 L 531.11,315.75 L 530.92,314.66 L 530.72,313.54 L 530.52,312.40 L 530.32,311.24 L 530.12,310.06 L 529.91,308.87 L 529.69,307.65 L 529.48,306.41 L 529.26,305.16 L 529.04,303.89 L 528.81,302.60 L 528.58,301.30 L 528.35,299.98 L 528.12,298.65 L 527.88,297.30 L 527.65,295.94 L 527.41,294.56 L 527.16,293.18 L 526.92,291.78 L 526.67,290.37 L 526.43,288.95 L 526.18,287.53 L 525.93,286.10 L 525.67,284.66 L 525.42,283.22 L 525.17,281.77 L 524.92,280.32 L 524.66,278.87 L 524.41,277.42"
     style="stroke:black;stroke-width:0.71;stroke-linecap:round;fill:none;stroke-dasharray: 5.67 5.67"
     id="path270" />
  <path
     d="M 469.43,355.29 L 470.98,354.66 L 472.54,354.03 L 474.10,353.40 L 475.65,352.76 L 477.22,352.11 L 478.78,351.46 L 480.34,350.80 L 481.91,350.14 L 483.48,349.47 L 485.05,348.80 L 486.62,348.12 L 488.20,347.43 L 489.78,346.74 L 491.36,346.05 L 492.94,345.35 L 494.52,344.64 L 496.10,343.92 L 497.69,343.21 L 499.28,342.48 L 500.87,341.75 L 502.46,341.01 L 504.05,340.27 L 505.65,339.52 L 507.24,338.77 L 508.84,338.01 L 510.44,337.24 L 512.04,336.47 L 513.64,335.71 L 515.25,334.94 L 516.85,334.17 L 518.46,333.40 L 520.07,332.63 L 521.68,331.86 L 523.29,331.08 L 524.90,330.31 L 526.51,329.54 L 528.13,328.76 L 529.74,327.99 L 531.36,327.21 L 532.98,326.44"
     style="stroke:black;stroke-width:0.71;stroke-linecap:round;fill:none;stroke-dasharray: 5.67 5.67"
     id="path272" />
  <path
     d="M 469.43,355.29 L 469.30,354.30 L 469.17,353.28 L 469.04,352.24 L 468.91,351.18 L 468.77,350.09 L 468.62,348.98 L 468.48,347.84 L 468.33,346.68 L 468.18,345.49 L 468.02,344.28 L 467.87,343.05 L 467.71,341.79 L 467.54,340.51 L 467.38,339.20 L 467.21,337.88 L 467.03,336.53 L 466.86,335.15 L 466.68,333.76 L 466.50,332.34 L 466.31,330.91 L 466.13,329.45 L 465.94,327.98 L 465.75,326.48 L 465.56,324.97 L 465.36,323.44 L 465.16,321.90 L 464.96,320.34 L 464.76,318.76 L 464.56,317.17 L 464.35,315.57 L 464.15,313.96 L 463.94,312.34 L 463.73,310.71 L 463.52,309.07 L 463.31,307.42 L 463.10,305.77 L 462.89,304.11 L 462.68,302.45 L 462.46,300.78 L 462.25,299.12"
     style="stroke:black;stroke-width:0.71;stroke-linecap:round;fill:none;stroke-dasharray: 5.67 5.67"
     id="path274" />
  <!-- Render block 18
 -->
  <text
     x="567.65393"
     y="323.60056"
     style="font-size:10px;font-weight:normal;text-align:center;line-height:125%;writing-mode:lr-tb;text-anchor:middle;fill:#000000;stroke:none;font-family:sanserif"
     id="text276"
     sodipodi:linespacing="125%">
    <tspan
       sodipodi:role="line"
       id="tspan3334"
       x="567.65393"
       y="323.60056">9-0</tspan>
  </text>
  <path
     d="M 532.98,326.44 L 534.60,325.66 L 536.22,324.89 L 537.84,324.11 L 539.47,323.33 L 541.09,322.55 L 542.71,321.77 L 544.34,321.00 L 545.97,320.22 L 547.59,319.44 L 549.22,318.66 L 550.85,317.87 L 552.48,317.09 L 554.12,316.31 L 555.75,315.53 L 557.38,314.75 L 559.01,313.96 L 560.65,313.18 L 562.28,312.40 L 563.92,311.61 L 565.55,310.83 L 567.19,310.04 L 568.83,309.26 L 570.47,308.48 L 572.11,307.69 L 573.74,306.90 L 575.38,306.12 L 577.02,305.33 L 578.66,304.55 L 580.30,303.76 L 581.94,302.98 L 583.59,302.19 L 585.23,301.40 L 586.87,300.62 L 588.51,299.83 L 590.15,299.04 L 591.79,298.26 L 593.44,297.47 L 595.08,296.68 L 596.72,295.89 L 598.36,295.11"
     style="stroke:black;stroke-width:0.71;stroke-linecap:round;fill:none;stroke-dasharray: 5.67 5.67"
     id="path278" />
  <path
     d="M 602.53,311.78 L 602.48,311.57 L 602.43,311.35 L 602.37,311.13 L 602.31,310.90 L 602.25,310.66 L 602.19,310.41 L 602.12,310.15 L 602.06,309.88 L 601.99,309.61 L 601.92,309.33 L 601.85,309.03 L 601.77,308.73 L 601.69,308.41 L 601.61,308.09 L 601.53,307.75 L 601.44,307.41 L 601.35,307.05 L 601.26,306.68 L 601.16,306.30 L 601.07,305.91 L 600.96,305.51 L 600.86,305.09 L 600.75,304.66 L 600.64,304.22 L 600.53,303.76 L 600.41,303.29 L 600.29,302.80 L 600.16,302.30 L 600.03,301.79 L 599.90,301.26 L 599.77,300.72 L 599.63,300.16 L 599.48,299.58 L 599.34,298.99 L 599.18,298.39 L 599.03,297.76 L 598.87,297.12 L 598.70,296.47 L 598.54,295.80 L 598.36,295.11"
     style="stroke:black;stroke-width:0.71;stroke-linecap:round;fill:none;stroke-dasharray: 5.67 5.67"
     id="path280" />
  <path
     d="M 536.55,346.86 L 538.19,345.99 L 539.82,345.12 L 541.46,344.25 L 543.10,343.38 L 544.73,342.51 L 546.37,341.64 L 548.01,340.77 L 549.66,339.89 L 551.30,339.02 L 552.94,338.15 L 554.59,337.27 L 556.23,336.40 L 557.88,335.52 L 559.53,334.65 L 561.17,333.77 L 562.82,332.89 L 564.47,332.02 L 566.12,331.14 L 567.77,330.26 L 569.42,329.38 L 571.08,328.51 L 572.73,327.63 L 574.38,326.75 L 576.03,325.87 L 577.69,324.99 L 579.34,324.11 L 581.00,323.23 L 582.65,322.35 L 584.31,321.47 L 585.96,320.59 L 587.62,319.71 L 589.28,318.83 L 590.93,317.95 L 592.59,317.07 L 594.25,316.19 L 595.90,315.30 L 597.56,314.42 L 599.22,313.54 L 600.87,312.66 L 602.53,311.78"
     style="stroke:black;stroke-width:0.71;stroke-linecap:round;fill:none"
     id="path284" />
  <path
     d="M 536.55,346.86 L 536.51,346.61 L 536.46,346.34 L 536.41,346.07 L 536.36,345.78 L 536.31,345.49 L 536.26,345.18 L 536.20,344.87 L 536.15,344.54 L 536.09,344.20 L 536.03,343.86 L 535.96,343.50 L 535.90,343.12 L 535.83,342.74 L 535.76,342.34 L 535.69,341.93 L 535.61,341.51 L 535.54,341.07 L 535.46,340.62 L 535.38,340.15 L 535.29,339.67 L 535.21,339.18 L 535.12,338.67 L 535.03,338.14 L 534.93,337.60 L 534.83,337.04 L 534.73,336.46 L 534.63,335.87 L 534.52,335.25 L 534.41,334.63 L 534.30,333.98 L 534.18,333.31 L 534.06,332.63 L 533.94,331.92 L 533.81,331.20 L 533.68,330.46 L 533.55,329.69 L 533.41,328.91 L 533.27,328.11 L 533.13,327.28 L 532.98,326.44"
     style="stroke:black;stroke-width:0.71;stroke-linecap:round;fill:none;stroke-dasharray: 5.67 5.67"
     id="path286" />
  <!-- Render block 19
 -->
  <text
     x="562.06921"
     y="290.05975"
     style="font-size:10px;font-weight:normal;text-align:center;line-height:125%;writing-mode:lr;text-anchor:middle;fill:#000000;stroke:none;font-family:sanserif"
     id="text288"
     sodipodi:linespacing="125%">
    <tspan
       sodipodi:role="line"
       id="tspan3336">9-1</tspan>
  </text>
  <path
     d="M 524.41,277.42 L 525.99,276.86 L 527.58,276.31 L 529.16,275.75 L 530.75,275.20 L 532.34,274.65 L 533.93,274.09 L 535.52,273.54 L 537.11,272.98 L 538.70,272.42 L 540.30,271.87 L 541.89,271.31 L 543.48,270.75 L 545.08,270.20 L 546.68,269.64 L 548.27,269.08 L 549.87,268.52 L 551.47,267.97 L 553.07,267.41 L 554.67,266.85 L 556.27,266.29 L 557.87,265.73 L 559.47,265.17 L 561.07,264.61 L 562.68,264.05 L 564.28,263.49 L 565.88,262.93 L 567.49,262.37 L 569.09,261.81 L 570.69,261.25 L 572.30,260.69 L 573.90,260.13 L 575.51,259.57 L 577.12,259.01 L 578.72,258.45 L 580.33,257.89 L 581.93,257.33 L 583.54,256.77 L 585.15,256.21 L 586.75,255.65 L 588.36,255.09"
     style="stroke:black;stroke-width:0.71;stroke-linecap:round;fill:none"
     id="path292" />
  <path
     d="M 598.36,295.11 L 598.19,294.40 L 598.01,293.68 L 597.82,292.94 L 597.63,292.18 L 597.44,291.40 L 597.24,290.61 L 597.04,289.80 L 596.83,288.97 L 596.62,288.13 L 596.40,287.26 L 596.18,286.39 L 595.96,285.49 L 595.73,284.58 L 595.50,283.65 L 595.26,282.70 L 595.02,281.74 L 594.78,280.76 L 594.53,279.77 L 594.28,278.76 L 594.02,277.74 L 593.76,276.70 L 593.50,275.65 L 593.23,274.58 L 592.96,273.51 L 592.69,272.42 L 592.42,271.32 L 592.14,270.21 L 591.86,269.08 L 591.58,267.95 L 591.29,266.81 L 591.00,265.66 L 590.71,264.51 L 590.42,263.34 L 590.13,262.18 L 589.84,261.00 L 589.54,259.82 L 589.25,258.64 L 588.95,257.46 L 588.66,256.27 L 588.36,255.09"
     style="stroke:black;stroke-width:0.71;stroke-linecap:round;fill:none;stroke-dasharray: 5.67 5.67"
     id="path294" />
  <path
     d="M 532.98,326.44 L 534.60,325.66 L 536.22,324.89 L 537.84,324.11 L 539.47,323.33 L 541.09,322.55 L 542.71,321.77 L 544.34,321.00 L 545.97,320.22 L 547.59,319.44 L 549.22,318.66 L 550.85,317.87 L 552.48,317.09 L 554.12,316.31 L 555.75,315.53 L 557.38,314.75 L 559.01,313.96 L 560.65,313.18 L 562.28,312.40 L 563.92,311.61 L 565.55,310.83 L 567.19,310.04 L 568.83,309.26 L 570.47,308.48 L 572.11,307.69 L 573.74,306.90 L 575.38,306.12 L 577.02,305.33 L 578.66,304.55 L 580.30,303.76 L 581.94,302.98 L 583.59,302.19 L 585.23,301.40 L 586.87,300.62 L 588.51,299.83 L 590.15,299.04 L 591.79,298.26 L 593.44,297.47 L 595.08,296.68 L 596.72,295.89 L 598.36,295.11"
     style="stroke:black;stroke-width:0.71;stroke-linecap:round;fill:none;stroke-dasharray: 5.67 5.67"
     id="path296" />
  <path
     d="M 532.98,326.44 L 532.83,325.57 L 532.67,324.69 L 532.51,323.78 L 532.35,322.85 L 532.19,321.90 L 532.02,320.93 L 531.84,319.94 L 531.67,318.92 L 531.48,317.89 L 531.30,316.83 L 531.11,315.75 L 530.92,314.66 L 530.72,313.54 L 530.52,312.40 L 530.32,311.24 L 530.12,310.06 L 529.91,308.87 L 529.69,307.65 L 529.48,306.41 L 529.26,305.16 L 529.04,303.89 L 528.81,302.60 L 528.58,301.30 L 528.35,299.98 L 528.12,298.65 L 527.88,297.30 L 527.65,295.94 L 527.41,294.56 L 527.16,293.18 L 526.92,291.78 L 526.67,290.37 L 526.43,288.95 L 526.18,287.53 L 525.93,286.10 L 525.67,284.66 L 525.42,283.22 L 525.17,281.77 L 524.92,280.32 L 524.66,278.87 L 524.41,277.42"
     style="stroke:black;stroke-width:0.71;stroke-linecap:round;fill:none;stroke-dasharray: 5.67 5.67"
     id="path298" />
  <!-- Render block 20
 -->
  <text
     x="616.45569"
     y="306.96057"
     style="font-size:10px;font-weight:normal;text-align:center;line-height:125%;writing-mode:lr-tb;text-anchor:middle;fill:#000000;stroke:none;font-family:sanserif"
     id="text300"
     sodipodi:linespacing="125%">
    <tspan
       sodipodi:role="line"
       id="tspan3330"
       x="616.45569"
       y="306.96057">t-0-0</tspan>
  </text>
  <path
     d="M 598.36,295.11 L 599.18,295.11 L 599.99,295.11 L 600.80,295.11 L 601.62,295.11 L 602.43,295.11 L 603.24,295.11 L 604.05,295.11 L 604.87,295.11 L 605.68,295.11 L 606.49,295.11 L 607.31,295.11 L 608.12,295.11 L 608.93,295.11 L 609.74,295.11 L 610.56,295.11 L 611.37,295.11 L 612.18,295.11 L 613.00,295.11 L 613.81,295.11 L 614.62,295.11 L 615.43,295.11 L 616.25,295.11 L 617.06,295.11 L 617.87,295.11 L 618.69,295.11 L 619.50,295.11 L 620.31,295.11 L 621.12,295.11 L 621.94,295.11 L 622.75,295.11 L 623.56,295.11 L 624.38,295.11 L 625.19,295.11 L 626.00,295.11 L 626.81,295.11 L 627.63,295.11 L 628.44,295.11 L 629.25,295.11 L 630.07,295.11 L 630.88,295.11"
     style="stroke:black;stroke-width:0.71;stroke-linecap:round;fill:none;stroke-dasharray: 5.67 5.67"
     id="path302" />
  <text
     x="-284.29056"
     y="653.51508"
     transform="matrix(0,-1,1,0,0,0)"
     style="font-size:10px;font-weight:normal;text-anchor:middle;fill:#000000;stroke:none;font-family:sanserif"
     id="text304">FIXED_P_OUT</text>
  <path
     d="M 630.88,311.78 L 630.88,311.57 L 630.88,311.35 L 630.88,311.13 L 630.88,310.90 L 630.88,310.66 L 630.88,310.41 L 630.88,310.15 L 630.88,309.88 L 630.88,309.61 L 630.88,309.33 L 630.88,309.03 L 630.88,308.73 L 630.88,308.41 L 630.88,308.09 L 630.88,307.75 L 630.88,307.41 L 630.88,307.05 L 630.88,306.68 L 630.88,306.30 L 630.88,305.91 L 630.88,305.51 L 630.88,305.09 L 630.88,304.66 L 630.88,304.22 L 630.88,303.76 L 630.88,303.29 L 630.88,302.80 L 630.88,302.30 L 630.88,301.79 L 630.88,301.26 L 630.88,300.72 L 630.88,300.16 L 630.88,299.58 L 630.88,298.99 L 630.88,298.39 L 630.88,297.76 L 630.88,297.12 L 630.88,296.47 L 630.88,295.80 L 630.88,295.11"
     style="stroke:black;stroke-width:0.71;stroke-linecap:round;fill:none"
     id="path306" />
  <text
     x="613.17755"
     y="326.02158"
     style="font-size:10px;font-weight:normal;text-anchor:middle;fill:#000000;stroke:none;font-family:sanserif"
     id="text308">FIXED_T</text>
  <path
     d="M 602.53,311.78 L 603.24,311.78 L 603.95,311.78 L 604.66,311.78 L 605.37,311.78 L 606.08,311.78 L 606.78,311.78 L 607.49,311.78 L 608.20,311.78 L 608.91,311.78 L 609.62,311.78 L 610.33,311.78 L 611.04,311.78 L 611.74,311.78 L 612.45,311.78 L 613.16,311.78 L 613.87,311.78 L 614.58,311.78 L 615.29,311.78 L 616.00,311.78 L 616.71,311.78 L 617.41,311.78 L 618.12,311.78 L 618.83,311.78 L 619.54,311.78 L 620.25,311.78 L 620.96,311.78 L 621.67,311.78 L 622.37,311.78 L 623.08,311.78 L 623.79,311.78 L 624.50,311.78 L 625.21,311.78 L 625.92,311.78 L 626.63,311.78 L 627.34,311.78 L 628.04,311.78 L 628.75,311.78 L 629.46,311.78 L 630.17,311.78 L 630.88,311.78"
     style="stroke:black;stroke-width:0.71;stroke-linecap:round;fill:none"
     id="path310" />
  <path
     d="M 602.53,311.78 L 602.48,311.57 L 602.43,311.35 L 602.37,311.13 L 602.31,310.90 L 602.25,310.66 L 602.19,310.41 L 602.12,310.15 L 602.06,309.88 L 601.99,309.61 L 601.92,309.33 L 601.85,309.03 L 601.77,308.73 L 601.69,308.41 L 601.61,308.09 L 601.53,307.75 L 601.44,307.41 L 601.35,307.05 L 601.26,306.68 L 601.16,306.30 L 601.07,305.91 L 600.96,305.51 L 600.86,305.09 L 600.75,304.66 L 600.64,304.22 L 600.53,303.76 L 600.41,303.29 L 600.29,302.80 L 600.16,302.30 L 600.03,301.79 L 599.90,301.26 L 599.77,300.72 L 599.63,300.16 L 599.48,299.58 L 599.34,298.99 L 599.18,298.39 L 599.03,297.76 L 598.87,297.12 L 598.70,296.47 L 598.54,295.80 L 598.36,295.11"
     style="stroke:black;stroke-width:0.71;stroke-linecap:round;fill:none;stroke-dasharray: 5.67 5.67"
     id="path312" />
  <!-- Render block 21
 -->
  <text
     x="612.66962"
     y="277.64151"
     style="font-size:10px;font-weight:normal;text-align:center;line-height:125%;writing-mode:lr-tb;text-anchor:middle;fill:#000000;stroke:none;font-family:sanserif"
     id="text314"
     sodipodi:linespacing="125%">
    <tspan
       sodipodi:role="line"
       id="tspan3328"
       x="612.66962"
       y="277.64151">t-0-1</tspan>
  </text>
  <text
     x="610.10962"
     y="251.41943"
     style="font-size:10px;font-weight:normal;text-anchor:middle;fill:#000000;stroke:none;font-family:sanserif"
     id="text316">SUP_IN</text>
  <path
     d="M 588.36,255.09 L 589.42,255.09 L 590.49,255.09 L 591.55,255.09 L 592.61,255.09 L 593.67,255.09 L 594.74,255.09 L 595.80,255.09 L 596.86,255.09 L 597.93,255.09 L 598.99,255.09 L 600.05,255.09 L 601.11,255.09 L 602.18,255.09 L 603.24,255.09 L 604.30,255.09 L 605.37,255.09 L 606.43,255.09 L 607.49,255.09 L 608.56,255.09 L 609.62,255.09 L 610.68,255.09 L 611.74,255.09 L 612.81,255.09 L 613.87,255.09 L 614.93,255.09 L 616.00,255.09 L 617.06,255.09 L 618.12,255.09 L 619.19,255.09 L 620.25,255.09 L 621.31,255.09 L 622.37,255.09 L 623.44,255.09 L 624.50,255.09 L 625.56,255.09 L 626.63,255.09 L 627.69,255.09 L 628.75,255.09 L 629.82,255.09 L 630.88,255.09"
     style="stroke:black;stroke-width:0.71;stroke-linecap:round;fill:none"
     id="path318" />
  <path
     d="M 630.88,295.11 L 630.88,294.40 L 630.88,293.68 L 630.88,292.94 L 630.88,292.18 L 630.88,291.40 L 630.88,290.61 L 630.88,289.80 L 630.88,288.97 L 630.88,288.13 L 630.88,287.26 L 630.88,286.39 L 630.88,285.49 L 630.88,284.58 L 630.88,283.65 L 630.88,282.70 L 630.88,281.74 L 630.88,280.76 L 630.88,279.77 L 630.88,278.76 L 630.88,277.74 L 630.88,276.70 L 630.88,275.65 L 630.88,274.58 L 630.88,273.51 L 630.88,272.42 L 630.88,271.32 L 630.88,270.21 L 630.88,269.08 L 630.88,267.95 L 630.88,266.81 L 630.88,265.66 L 630.88,264.51 L 630.88,263.34 L 630.88,262.18 L 630.88,261.00 L 630.88,259.82 L 630.88,258.64 L 630.88,257.46 L 630.88,256.27 L 630.88,255.09"
     style="stroke:black;stroke-width:0.71;stroke-linecap:round;fill:none"
     id="path322" />
  <path
     d="M 598.36,295.11 L 599.18,295.11 L 599.99,295.11 L 600.80,295.11 L 601.62,295.11 L 602.43,295.11 L 603.24,295.11 L 604.05,295.11 L 604.87,295.11 L 605.68,295.11 L 606.49,295.11 L 607.31,295.11 L 608.12,295.11 L 608.93,295.11 L 609.74,295.11 L 610.56,295.11 L 611.37,295.11 L 612.18,295.11 L 613.00,295.11 L 613.81,295.11 L 614.62,295.11 L 615.43,295.11 L 616.25,295.11 L 617.06,295.11 L 617.87,295.11 L 618.69,295.11 L 619.50,295.11 L 620.31,295.11 L 621.12,295.11 L 621.94,295.11 L 622.75,295.11 L 623.56,295.11 L 624.38,295.11 L 625.19,295.11 L 626.00,295.11 L 626.81,295.11 L 627.63,295.11 L 628.44,295.11 L 629.25,295.11 L 630.07,295.11 L 630.88,295.11"
     style="stroke:black;stroke-width:0.71;stroke-linecap:round;fill:none;stroke-dasharray: 5.67 5.67"
     id="path324" />
  <path
     d="M 598.36,295.11 L 598.19,294.40 L 598.01,293.68 L 597.82,292.94 L 597.63,292.18 L 597.44,291.40 L 597.24,290.61 L 597.04,289.80 L 596.83,288.97 L 596.62,288.13 L 596.40,287.26 L 596.18,286.39 L 595.96,285.49 L 595.73,284.58 L 595.50,283.65 L 595.26,282.70 L 595.02,281.74 L 594.78,280.76 L 594.53,279.77 L 594.28,278.76 L 594.02,277.74 L 593.76,276.70 L 593.50,275.65 L 593.23,274.58 L 592.96,273.51 L 592.69,272.42 L 592.42,271.32 L 592.14,270.21 L 591.86,269.08 L 591.58,267.95 L 591.29,266.81 L 591.00,265.66 L 590.71,264.51 L 590.42,263.34 L 590.13,262.18 L 589.84,261.00 L 589.54,259.82 L 589.25,258.64 L 588.95,257.46 L 588.66,256.27 L 588.36,255.09"
     style="stroke:black;stroke-width:0.71;stroke-linecap:round;fill:none;stroke-dasharray: 5.67 5.67"
     id="path326" />
  <!-- end of drawing -->
</svg>
