<?xml version="1.0"?>
<!DOCTYPE svg PUBLIC "-//W3C//DTD SVG 1.0//EN"
"http://www.w3.org/TR/2001/REC-SVG-20010904/DTD/svg10.dtd">
<svg xmlns:svg="http://www.w3.org/2000/svg"
     xmlns:xlink="http://www.w3.org/1999/xlink"
     width="566.93" height="566.93"
     version="1.0">
<title>Inviscid Euler Simulation for 2D sc10</title>
<desc>SVG file written by e3prep.py</desc>
<!-- drawing begins here -->
<line x1="56.69" y1="526.18" x2="535.04" y2="526.18" style="stroke:black;stroke-width:1.42;stroke-linecap:round;fill:none" />
<text x="295.87" y="551.69" style="font-size:10;text-anchor:start;fill:black;stroke:none;font-weight:normal;font-family:sanserif" >x</text>
<line x1="56.69" y1="526.18" x2="56.69" y2="520.51" style="stroke:black;stroke-width:1.42;stroke-linecap:round;fill:none" />
<text x="56.69" y="540.35" style="font-size:10;text-anchor:middle;fill:black;stroke:none;font-weight:normal;font-family:sanserif" >-1</text>
<line x1="136.42" y1="526.18" x2="136.42" y2="520.51" style="stroke:black;stroke-width:1.42;stroke-linecap:round;fill:none" />
<text x="136.42" y="540.35" style="font-size:10;text-anchor:middle;fill:black;stroke:none;font-weight:normal;font-family:sanserif" >-0.5</text>
<line x1="216.14" y1="526.18" x2="216.14" y2="520.51" style="stroke:black;stroke-width:1.42;stroke-linecap:round;fill:none" />
<text x="216.14" y="540.35" style="font-size:10;text-anchor:middle;fill:black;stroke:none;font-weight:normal;font-family:sanserif" >0</text>
<line x1="295.87" y1="526.18" x2="295.87" y2="520.51" style="stroke:black;stroke-width:1.42;stroke-linecap:round;fill:none" />
<text x="295.87" y="540.35" style="font-size:10;text-anchor:middle;fill:black;stroke:none;font-weight:normal;font-family:sanserif" >0.5</text>
<line x1="375.59" y1="526.18" x2="375.59" y2="520.51" style="stroke:black;stroke-width:1.42;stroke-linecap:round;fill:none" />
<text x="375.59" y="540.35" style="font-size:10;text-anchor:middle;fill:black;stroke:none;font-weight:normal;font-family:sanserif" >1</text>
<line x1="455.31" y1="526.18" x2="455.31" y2="520.51" style="stroke:black;stroke-width:1.42;stroke-linecap:round;fill:none" />
<text x="455.31" y="540.35" style="font-size:10;text-anchor:middle;fill:black;stroke:none;font-weight:normal;font-family:sanserif" >1.5</text>
<line x1="535.04" y1="526.18" x2="535.04" y2="520.51" style="stroke:black;stroke-width:1.42;stroke-linecap:round;fill:none" />
<text x="535.04" y="540.35" style="font-size:10;text-anchor:middle;fill:black;stroke:none;font-weight:normal;font-family:sanserif" >2</text>
<line x1="40.75" y1="510.24" x2="40.75" y2="191.34" style="stroke:black;stroke-width:1.42;stroke-linecap:round;fill:none" />
<text x="18.07" y="350.79" style="font-size:10;text-anchor:end;fill:black;stroke:none;font-weight:normal;font-family:sanserif" >y</text>
<line x1="40.75" y1="510.24" x2="46.42" y2="510.24" style="stroke:black;stroke-width:1.42;stroke-linecap:round;fill:none" />
<text x="32.24" y="510.24" style="font-size:10;text-anchor:end;fill:black;stroke:none;font-weight:normal;font-family:sanserif" >-0.5</text>
<line x1="40.75" y1="430.51" x2="46.42" y2="430.51" style="stroke:black;stroke-width:1.42;stroke-linecap:round;fill:none" />
<text x="32.24" y="430.51" style="font-size:10;text-anchor:end;fill:black;stroke:none;font-weight:normal;font-family:sanserif" >0</text>
<line x1="40.75" y1="350.79" x2="46.42" y2="350.79" style="stroke:black;stroke-width:1.42;stroke-linecap:round;fill:none" />
<text x="32.24" y="350.79" style="font-size:10;text-anchor:end;fill:black;stroke:none;font-weight:normal;font-family:sanserif" >0.5</text>
<line x1="40.75" y1="271.06" x2="46.42" y2="271.06" style="stroke:black;stroke-width:1.42;stroke-linecap:round;fill:none" />
<text x="32.24" y="271.06" style="font-size:10;text-anchor:end;fill:black;stroke:none;font-weight:normal;font-family:sanserif" >1</text>
<line x1="40.75" y1="191.34" x2="46.42" y2="191.34" style="stroke:black;stroke-width:1.42;stroke-linecap:round;fill:none" />
<text x="32.24" y="191.34" style="font-size:10;text-anchor:end;fill:black;stroke:none;font-weight:normal;font-family:sanserif" >1.5</text>
<!-- There are 0 nodes
 -->
<!-- There are 14 blocks
 -->
<!-- Render block 0
 -->
<text x="259.58" y="354.84" style="font-size:10;text-anchor:middle;fill:black;stroke:none;font-weight:normal;font-family:sanserif" >inner1</text>
<path d="M 205.72,413.92 L 207.65,411.18 L 209.58,408.45 L 211.52,405.72 L 213.46,402.99 L 215.41,400.26 L 217.38,397.54 L 219.35,394.83 L 221.34,392.12 L 223.34,389.42 L 225.36,386.72 L 227.40,384.04 L 229.46,381.36 L 231.55,378.70 L 233.66,376.05 L 235.80,373.41 L 237.97,370.78 L 240.17,368.17 L 242.41,365.57 L 244.68,362.99 L 246.98,360.42 L 249.33,357.88 L 251.72,355.35 L 254.15,352.84 L 256.47,350.52 L 258.80,348.23 L 261.17,345.95 L 263.58,343.69 L 266.02,341.45 L 268.49,339.22 L 270.99,337.01 L 273.51,334.80 L 276.07,332.61 L 278.65,330.43 L 281.26,328.26 L 283.88,326.11 L 286.53,323.96 L 289.20,321.82 L 291.88,319.68 L 294.58,317.56 L 297.29,315.44 L 300.02,313.33 L 302.76,311.22 L 305.50,309.11 L 308.26,307.01 L 311.02,304.91 L 313.78,302.82 L 316.55,300.72 L 319.32,298.63" style="stroke:black;stroke-width:0.71;stroke-linecap:round;fill:none;stroke-dasharray: 5.67 5.67"/>
<path d="M 328.89,317.76 L 327.29,314.58 L 325.70,311.39 L 324.11,308.20 L 322.51,305.01 L 320.92,301.82 L 319.32,298.63" style="stroke:black;stroke-width:0.71;stroke-linecap:round;fill:none;stroke-dasharray: 5.67 5.67"/>
<text x="265.73" y="363.94" transform="rotate(-42.77,265.73,363.94)"  style="font-size:10;text-anchor:middle;fill:black;stroke:none;font-weight:normal;font-family:sanserif" >SLIP_WALL</text>
<path d="M 216.99,425.19 L 218.39,422.15 L 219.93,419.20 L 221.56,416.32 L 223.28,413.50 L 225.05,410.72 L 226.88,407.98 L 228.75,405.27 L 230.67,402.60 L 232.63,399.97 L 234.63,397.37 L 236.66,394.80 L 238.72,392.25 L 240.82,389.74 L 242.95,387.26 L 245.10,384.80 L 247.29,382.37 L 249.50,379.97 L 251.73,377.59 L 254.00,375.24 L 256.28,372.92 L 258.59,370.62 L 260.93,368.34 L 263.29,366.10 L 265.67,363.87 L 268.07,361.67 L 270.49,359.50 L 272.94,357.35 L 275.41,355.22 L 277.89,353.12 L 280.40,351.04 L 282.93,348.99 L 285.48,346.96 L 288.04,344.95 L 290.63,342.97 L 293.24,341.01 L 295.86,339.07 L 298.51,337.16 L 301.18,335.27 L 303.86,333.41 L 306.56,331.57 L 309.29,329.76 L 312.03,327.97 L 314.79,326.21 L 317.57,324.47 L 320.37,322.75 L 323.19,321.06 L 326.03,319.40 L 328.89,317.76" style="stroke:black;stroke-width:0.71;stroke-linecap:round;fill:none"/>
<path d="M 216.99,425.19 L 215.11,423.31 L 213.23,421.43 L 211.35,419.55 L 209.47,417.68 L 207.60,415.80 L 205.72,413.92" style="stroke:black;stroke-width:0.71;stroke-linecap:round;fill:none;stroke-dasharray: 5.67 5.67"/>
<!-- Render block 1
 -->
<text x="209.01" y="425.26" style="font-size:10;text-anchor:middle;fill:black;stroke:none;font-weight:normal;font-family:sanserif" >inner2</text>
<path d="M 205.72,413.92 L 207.60,415.80 L 209.47,417.68 L 211.35,419.55 L 213.23,421.43 L 215.11,423.31 L 216.99,425.19" style="stroke:black;stroke-width:0.71;stroke-linecap:round;fill:none;stroke-dasharray: 5.67 5.67"/>
<text x="216.13" y="427.57" transform="rotate(-73.60,216.13,427.57)"  style="font-size:10;text-anchor:middle;fill:black;stroke:none;font-weight:normal;font-family:sanserif" >SLIP_WALL</text>
<path d="M 216.14,430.51 L 215.78,429.62 L 215.81,428.99 L 215.92,428.40 L 216.05,427.84 L 216.21,427.29 L 216.39,426.76 L 216.58,426.23 L 216.78,425.71 L 216.99,425.19" style="stroke:black;stroke-width:0.71;stroke-linecap:round;fill:none"/>
<path d="M 204.87,441.79 L 206.75,439.91 L 208.63,438.03 L 210.50,436.15 L 212.38,434.27 L 214.26,432.39 L 216.14,430.51" style="stroke:black;stroke-width:0.71;stroke-linecap:round;fill:none;stroke-dasharray: 5.67 5.67"/>
<path d="M 204.87,441.79 L 202.98,439.10 L 201.39,436.25 L 200.39,433.10 L 200.24,429.79 L 200.71,426.95 L 201.59,423.88 L 202.79,420.65 L 204.20,417.31 L 205.72,413.92" style="stroke:black;stroke-width:0.71;stroke-linecap:round;fill:none;stroke-dasharray: 5.67 5.67"/>
<!-- Render block 2
 -->
<text x="218.64" y="434.90" style="font-size:10;text-anchor:middle;fill:black;stroke:none;font-weight:normal;font-family:sanserif" >inner3</text>
<text x="218.86" y="429.40" transform="rotate(-38.41,218.86,429.40)"  style="font-size:10;text-anchor:middle;fill:black;stroke:none;font-weight:normal;font-family:sanserif" >SLIP_WALL</text>
<path d="M 216.14,430.51 L 217.11,430.50 L 217.67,430.23 L 218.17,429.91 L 218.64,429.58 L 219.08,429.23 L 219.51,428.86 L 219.93,428.50 L 220.33,428.12 L 220.73,427.74" style="stroke:black;stroke-width:0.71;stroke-linecap:round;fill:none"/>
<path d="M 232.01,439.02 L 230.13,437.14 L 228.25,435.26 L 226.37,433.38 L 224.49,431.50 L 222.61,429.62 L 220.73,427.74" style="stroke:black;stroke-width:0.71;stroke-linecap:round;fill:none;stroke-dasharray: 5.67 5.67"/>
<path d="M 204.87,441.79 L 207.60,443.79 L 210.46,445.44 L 213.59,446.40 L 216.83,446.37 L 219.58,445.64 L 222.52,444.42 L 225.60,442.83 L 228.78,440.99 L 232.01,439.02" style="stroke:black;stroke-width:0.71;stroke-linecap:round;fill:none;stroke-dasharray: 5.67 5.67"/>
<path d="M 204.87,441.79 L 206.75,439.91 L 208.63,438.03 L 210.50,436.15 L 212.38,434.27 L 214.26,432.39 L 216.14,430.51" style="stroke:black;stroke-width:0.71;stroke-linecap:round;fill:none;stroke-dasharray: 5.67 5.67"/>
<!-- Render block 3
 -->
<text x="275.25" y="374.90" style="font-size:10;text-anchor:middle;fill:black;stroke:none;font-weight:normal;font-family:sanserif" >inner4</text>
<text x="271.52" y="369.79" transform="rotate(-46.59,271.52,369.79)"  style="font-size:10;text-anchor:middle;fill:black;stroke:none;font-weight:normal;font-family:sanserif" >SLIP_WALL</text>
<path d="M 220.73,427.74 L 223.37,425.04 L 225.88,422.27 L 228.32,419.47 L 230.73,416.65 L 233.10,413.83 L 235.46,411.01 L 237.82,408.19 L 240.17,405.37 L 242.52,402.56 L 244.87,399.76 L 247.23,396.97 L 249.60,394.19 L 251.97,391.42 L 254.36,388.67 L 256.76,385.92 L 259.17,383.19 L 261.60,380.48 L 264.05,377.77 L 266.51,375.09 L 268.99,372.41 L 271.48,369.76 L 274.00,367.11 L 276.53,364.49 L 279.09,361.88 L 281.66,359.29 L 284.26,356.71 L 286.87,354.15 L 289.51,351.60 L 292.17,349.08 L 294.86,346.57 L 297.56,344.07 L 300.29,341.60 L 303.04,339.14 L 305.82,336.70 L 308.62,334.27 L 311.44,331.86 L 314.29,329.47 L 317.16,327.10 L 320.06,324.74 L 322.97,322.40 L 325.92,320.07 L 328.89,317.76" style="stroke:black;stroke-width:0.71;stroke-linecap:round;fill:none"/>
<path d="M 338.46,336.90 L 336.86,333.71 L 335.27,330.52 L 333.67,327.33 L 332.08,324.14 L 330.48,320.95 L 328.89,317.76" style="stroke:black;stroke-width:0.71;stroke-linecap:round;fill:none;stroke-dasharray: 5.67 5.67"/>
<path d="M 232.01,439.02 L 234.43,436.36 L 236.84,433.71 L 239.26,431.06 L 241.68,428.41 L 244.10,425.77 L 246.52,423.14 L 248.94,420.51 L 251.36,417.89 L 253.78,415.29 L 256.20,412.69 L 258.62,410.11 L 261.04,407.55 L 263.47,405.00 L 265.89,402.46 L 268.32,399.95 L 270.74,397.46 L 273.17,394.98 L 275.60,392.53 L 278.03,390.11 L 280.46,387.71 L 282.89,385.33 L 285.35,382.96 L 287.99,380.45 L 290.64,377.97 L 293.29,375.51 L 295.94,373.09 L 298.59,370.70 L 301.24,368.33 L 303.90,365.98 L 306.55,363.66 L 309.20,361.36 L 311.86,359.07 L 314.52,356.81 L 317.18,354.55 L 319.83,352.32 L 322.49,350.09 L 325.15,347.88 L 327.81,345.67 L 330.47,343.47 L 333.13,341.28 L 335.80,339.09 L 338.46,336.90" style="stroke:black;stroke-width:0.71;stroke-linecap:round;fill:none;stroke-dasharray: 5.67 5.67"/>
<path d="M 232.01,439.02 L 230.13,437.14 L 228.25,435.26 L 226.37,433.38 L 224.49,431.50 L 222.61,429.62 L 220.73,427.74" style="stroke:black;stroke-width:0.71;stroke-linecap:round;fill:none;stroke-dasharray: 5.67 5.67"/>
<!-- Render block 4
 -->
<text x="118.67" y="370.41" style="font-size:10;text-anchor:middle;fill:black;stroke:none;font-weight:normal;font-family:sanserif" >inflow1</text>
<text x="112.50" y="350.79" style="font-size:10;text-anchor:middle;fill:black;stroke:none;font-weight:normal;font-family:sanserif" >USER_DEFINED</text>
<path d="M 56.69,350.79 L 59.79,350.79 L 62.89,350.79 L 65.99,350.79 L 69.09,350.79 L 72.19,350.79 L 75.30,350.79 L 78.40,350.79 L 81.50,350.79 L 84.60,350.79 L 87.70,350.79 L 90.80,350.79 L 93.90,350.79 L 97.00,350.79 L 100.10,350.79 L 103.20,350.79 L 106.30,350.79 L 109.40,350.79 L 112.50,350.79 L 115.60,350.79 L 118.70,350.79 L 121.80,350.79 L 124.90,350.79 L 128.00,350.79 L 131.10,350.79 L 134.20,350.79 L 137.30,350.79 L 140.40,350.79 L 143.50,350.79 L 146.60,350.79 L 149.70,350.79 L 152.81,350.79 L 155.91,350.79 L 159.01,350.79 L 162.11,350.79 L 165.21,350.79 L 168.31,350.79" style="stroke:black;stroke-width:0.71;stroke-linecap:round;fill:none"/>
<path d="M 205.72,413.92 L 202.60,408.66 L 199.48,403.40 L 196.36,398.14 L 193.25,392.87 L 190.13,387.61 L 187.01,382.35 L 183.89,377.09 L 180.78,371.83 L 177.66,366.57 L 174.54,361.31 L 171.42,356.05 L 168.31,350.79" style="stroke:black;stroke-width:0.71;stroke-linecap:round;fill:none;stroke-dasharray: 5.67 5.67"/>
<path d="M 56.69,406.59 L 60.83,406.80 L 64.97,407.00 L 69.11,407.20 L 73.25,407.41 L 77.39,407.61 L 81.53,407.81 L 85.67,408.02 L 89.81,408.22 L 93.95,408.43 L 98.09,408.63 L 102.23,408.83 L 106.37,409.04 L 110.51,409.24 L 114.65,409.44 L 118.79,409.65 L 122.93,409.85 L 127.07,410.05 L 131.20,410.26 L 135.34,410.46 L 139.48,410.66 L 143.62,410.87 L 147.76,411.07 L 151.90,411.27 L 156.04,411.48 L 160.18,411.68 L 164.32,411.88 L 168.46,412.09 L 172.60,412.29 L 176.74,412.49 L 180.88,412.70 L 185.02,412.90 L 189.16,413.10 L 193.30,413.31 L 197.44,413.51 L 201.58,413.71 L 205.72,413.92" style="stroke:black;stroke-width:0.71;stroke-linecap:round;fill:none;stroke-dasharray: 5.67 5.67"/>
<text x="56.69" y="378.69" transform="rotate(-90.00,56.69,378.69)"  style="font-size:10;text-anchor:middle;fill:black;stroke:none;font-weight:normal;font-family:sanserif" >USER_DEFINED</text>
<path d="M 56.69,406.59 L 56.69,401.94 L 56.69,397.29 L 56.69,392.64 L 56.69,387.99 L 56.69,383.34 L 56.69,378.69 L 56.69,374.04 L 56.69,369.39 L 56.69,364.74 L 56.69,360.09 L 56.69,355.44 L 56.69,350.79" style="stroke:black;stroke-width:0.71;stroke-linecap:round;fill:none"/>
<!-- Render block 5
 -->
<text x="129.16" y="423.08" style="font-size:10;text-anchor:middle;fill:black;stroke:none;font-weight:normal;font-family:sanserif" >inflow2</text>
<path d="M 56.69,406.59 L 60.83,406.80 L 64.97,407.00 L 69.11,407.20 L 73.25,407.41 L 77.39,407.61 L 81.53,407.81 L 85.67,408.02 L 89.81,408.22 L 93.95,408.43 L 98.09,408.63 L 102.23,408.83 L 106.37,409.04 L 110.51,409.24 L 114.65,409.44 L 118.79,409.65 L 122.93,409.85 L 127.07,410.05 L 131.20,410.26 L 135.34,410.46 L 139.48,410.66 L 143.62,410.87 L 147.76,411.07 L 151.90,411.27 L 156.04,411.48 L 160.18,411.68 L 164.32,411.88 L 168.46,412.09 L 172.60,412.29 L 176.74,412.49 L 180.88,412.70 L 185.02,412.90 L 189.16,413.10 L 193.30,413.31 L 197.44,413.51 L 201.58,413.71 L 205.72,413.92" style="stroke:black;stroke-width:0.71;stroke-linecap:round;fill:none;stroke-dasharray: 5.67 5.67"/>
<path d="M 204.87,441.79 L 202.98,439.10 L 201.39,436.25 L 200.39,433.10 L 200.24,429.79 L 200.71,426.95 L 201.59,423.88 L 202.79,420.65 L 204.20,417.31 L 205.72,413.92" style="stroke:black;stroke-width:0.71;stroke-linecap:round;fill:none;stroke-dasharray: 5.67 5.67"/>
<path d="M 56.69,454.43 L 60.81,454.08 L 64.92,453.73 L 69.04,453.38 L 73.16,453.02 L 77.27,452.67 L 81.39,452.32 L 85.50,451.97 L 89.62,451.62 L 93.74,451.27 L 97.85,450.92 L 101.97,450.57 L 106.08,450.21 L 110.20,449.86 L 114.32,449.51 L 118.43,449.16 L 122.55,448.81 L 126.66,448.46 L 130.78,448.11 L 134.90,447.76 L 139.01,447.41 L 143.13,447.05 L 147.24,446.70 L 151.36,446.35 L 155.48,446.00 L 159.59,445.65 L 163.71,445.30 L 167.82,444.95 L 171.94,444.60 L 176.06,444.24 L 180.17,443.89 L 184.29,443.54 L 188.40,443.19 L 192.52,442.84 L 196.64,442.49 L 200.75,442.14 L 204.87,441.79" style="stroke:black;stroke-width:0.71;stroke-linecap:round;fill:none;stroke-dasharray: 5.67 5.67"/>
<text x="56.69" y="430.51" transform="rotate(-90.00,56.69,430.51)"  style="font-size:10;text-anchor:middle;fill:black;stroke:none;font-weight:normal;font-family:sanserif" >USER_DEFINED</text>
<path d="M 56.69,454.43 L 56.69,449.11 L 56.69,443.80 L 56.69,438.48 L 56.69,433.17 L 56.69,427.85 L 56.69,422.54 L 56.69,417.22 L 56.69,411.91 L 56.69,406.59" style="stroke:black;stroke-width:0.71;stroke-linecap:round;fill:none"/>
<!-- Render block 6
 -->
<text x="132.64" y="468.61" style="font-size:10;text-anchor:middle;fill:black;stroke:none;font-weight:normal;font-family:sanserif" >inflow3</text>
<path d="M 56.69,454.43 L 60.81,454.08 L 64.92,453.73 L 69.04,453.38 L 73.16,453.02 L 77.27,452.67 L 81.39,452.32 L 85.50,451.97 L 89.62,451.62 L 93.74,451.27 L 97.85,450.92 L 101.97,450.57 L 106.08,450.21 L 110.20,449.86 L 114.32,449.51 L 118.43,449.16 L 122.55,448.81 L 126.66,448.46 L 130.78,448.11 L 134.90,447.76 L 139.01,447.41 L 143.13,447.05 L 147.24,446.70 L 151.36,446.35 L 155.48,446.00 L 159.59,445.65 L 163.71,445.30 L 167.82,444.95 L 171.94,444.60 L 176.06,444.24 L 180.17,443.89 L 184.29,443.54 L 188.40,443.19 L 192.52,442.84 L 196.64,442.49 L 200.75,442.14 L 204.87,441.79" style="stroke:black;stroke-width:0.71;stroke-linecap:round;fill:none;stroke-dasharray: 5.67 5.67"/>
<path d="M 216.14,510.24 L 215.20,504.53 L 214.26,498.83 L 213.32,493.12 L 212.38,487.42 L 211.44,481.72 L 210.50,476.01 L 209.56,470.31 L 208.63,464.60 L 207.69,458.90 L 206.75,453.19 L 205.81,447.49 L 204.87,441.79" style="stroke:black;stroke-width:0.71;stroke-linecap:round;fill:none;stroke-dasharray: 5.67 5.67"/>
<text x="136.42" y="510.24" style="font-size:10;text-anchor:middle;fill:black;stroke:none;font-weight:normal;font-family:sanserif" >USER_DEFINED</text>
<path d="M 56.69,510.24 L 61.12,510.24 L 65.55,510.24 L 69.98,510.24 L 74.41,510.24 L 78.84,510.24 L 83.27,510.24 L 87.70,510.24 L 92.13,510.24 L 96.56,510.24 L 100.98,510.24 L 105.41,510.24 L 109.84,510.24 L 114.27,510.24 L 118.70,510.24 L 123.13,510.24 L 127.56,510.24 L 131.99,510.24 L 136.42,510.24 L 140.85,510.24 L 145.28,510.24 L 149.70,510.24 L 154.13,510.24 L 158.56,510.24 L 162.99,510.24 L 167.42,510.24 L 171.85,510.24 L 176.28,510.24 L 180.71,510.24 L 185.14,510.24 L 189.57,510.24 L 194.00,510.24 L 198.43,510.24 L 202.85,510.24 L 207.28,510.24 L 211.71,510.24 L 216.14,510.24" style="stroke:black;stroke-width:0.71;stroke-linecap:round;fill:none"/>
<text x="56.69" y="482.33" transform="rotate(-90.00,56.69,482.33)"  style="font-size:10;text-anchor:middle;fill:black;stroke:none;font-weight:normal;font-family:sanserif" >USER_DEFINED</text>
<path d="M 56.69,510.24 L 56.69,505.59 L 56.69,500.94 L 56.69,496.28 L 56.69,491.63 L 56.69,486.98 L 56.69,482.33 L 56.69,477.68 L 56.69,473.03 L 56.69,468.38 L 56.69,463.73 L 56.69,459.08 L 56.69,454.43" style="stroke:black;stroke-width:0.71;stroke-linecap:round;fill:none"/>
<!-- Render block 7
 -->
<text x="248.33" y="331.81" style="font-size:10;text-anchor:middle;fill:black;stroke:none;font-weight:normal;font-family:sanserif" >outer1</text>
<text x="244.33" y="322.60" transform="rotate(-45.00,244.33,322.60)"  style="font-size:10;text-anchor:middle;fill:black;stroke:none;font-weight:normal;font-family:sanserif" >USER_DEFINED</text>
<path d="M 168.31,350.79 L 171.96,350.79 L 175.62,350.79 L 179.27,350.79 L 182.92,350.79 L 186.58,350.79 L 190.23,350.79 L 193.89,350.79 L 197.54,350.79 L 201.19,350.79 L 204.85,350.79 L 208.50,350.79 L 212.16,350.79 L 215.81,350.79 L 218.49,348.44 L 221.07,345.85 L 223.66,343.27 L 226.24,340.69 L 228.83,338.10 L 231.41,335.52 L 233.99,332.94 L 236.58,330.35 L 239.16,327.77 L 241.74,325.18 L 244.33,322.60 L 246.91,320.02 L 249.50,317.43 L 252.08,314.85 L 254.66,312.27 L 257.25,309.68 L 259.83,307.10 L 262.42,304.51 L 265.00,301.93 L 267.58,299.35 L 270.17,296.76 L 272.75,294.18 L 275.33,291.60 L 277.92,289.01 L 280.50,286.43 L 283.09,283.84 L 285.67,281.26 L 288.25,278.68 L 290.84,276.09 L 293.42,273.51 L 296.00,270.92 L 298.59,268.34 L 301.17,265.76 L 303.76,263.17 L 306.34,260.59" style="stroke:black;stroke-width:0.71;stroke-linecap:round;fill:none"/>
<path d="M 319.32,298.63 L 318.24,295.46 L 317.16,292.29 L 316.08,289.12 L 314.99,285.95 L 313.91,282.78 L 312.83,279.61 L 311.75,276.44 L 310.67,273.27 L 309.59,270.10 L 308.50,266.93 L 307.42,263.76 L 306.34,260.59" style="stroke:black;stroke-width:0.71;stroke-linecap:round;fill:none;stroke-dasharray: 5.67 5.67"/>
<path d="M 205.72,413.92 L 207.65,411.18 L 209.58,408.45 L 211.52,405.72 L 213.46,402.99 L 215.41,400.26 L 217.38,397.54 L 219.35,394.83 L 221.34,392.12 L 223.34,389.42 L 225.36,386.72 L 227.40,384.04 L 229.46,381.36 L 231.55,378.70 L 233.66,376.05 L 235.80,373.41 L 237.97,370.78 L 240.17,368.17 L 242.41,365.57 L 244.68,362.99 L 246.98,360.42 L 249.33,357.88 L 251.72,355.35 L 254.15,352.84 L 256.47,350.52 L 258.80,348.23 L 261.17,345.95 L 263.58,343.69 L 266.02,341.45 L 268.49,339.22 L 270.99,337.01 L 273.51,334.80 L 276.07,332.61 L 278.65,330.43 L 281.26,328.26 L 283.88,326.11 L 286.53,323.96 L 289.20,321.82 L 291.88,319.68 L 294.58,317.56 L 297.29,315.44 L 300.02,313.33 L 302.76,311.22 L 305.50,309.11 L 308.26,307.01 L 311.02,304.91 L 313.78,302.82 L 316.55,300.72 L 319.32,298.63" style="stroke:black;stroke-width:0.71;stroke-linecap:round;fill:none;stroke-dasharray: 5.67 5.67"/>
<path d="M 205.72,413.92 L 202.60,408.66 L 199.48,403.40 L 196.36,398.14 L 193.25,392.87 L 190.13,387.61 L 187.01,382.35 L 183.89,377.09 L 180.78,371.83 L 177.66,366.57 L 174.54,361.31 L 171.42,356.05 L 168.31,350.79" style="stroke:black;stroke-width:0.71;stroke-linecap:round;fill:none;stroke-dasharray: 5.67 5.67"/>
<!-- Render block 8
 -->
<text x="223.09" y="461.67" style="font-size:10;text-anchor:middle;fill:black;stroke:none;font-weight:normal;font-family:sanserif" >outer2</text>
<path d="M 204.87,441.79 L 207.60,443.79 L 210.46,445.44 L 213.59,446.40 L 216.83,446.37 L 219.58,445.64 L 222.52,444.42 L 225.60,442.83 L 228.78,440.99 L 232.01,439.02" style="stroke:black;stroke-width:0.71;stroke-linecap:round;fill:none;stroke-dasharray: 5.67 5.67"/>
<path d="M 249.97,476.41 L 248.47,473.30 L 246.97,470.18 L 245.48,467.06 L 243.98,463.95 L 242.48,460.83 L 240.99,457.71 L 239.49,454.60 L 237.99,451.48 L 236.50,448.37 L 235.00,445.25 L 233.50,442.13 L 232.01,439.02" style="stroke:black;stroke-width:0.71;stroke-linecap:round;fill:none;stroke-dasharray: 5.67 5.67"/>
<text x="233.05" y="493.32" transform="rotate(-45.00,233.05,493.32)"  style="font-size:10;text-anchor:middle;fill:black;stroke:none;font-weight:normal;font-family:sanserif" >USER_DEFINED</text>
<path d="M 216.14,510.24 L 219.90,506.48 L 223.66,502.72 L 227.42,498.96 L 231.17,495.20 L 234.93,491.44 L 238.69,487.69 L 242.45,483.93 L 246.21,480.17 L 249.97,476.41" style="stroke:black;stroke-width:0.71;stroke-linecap:round;fill:none"/>
<path d="M 216.14,510.24 L 215.20,504.53 L 214.26,498.83 L 213.32,493.12 L 212.38,487.42 L 211.44,481.72 L 210.50,476.01 L 209.56,470.31 L 208.63,464.60 L 207.69,458.90 L 206.75,453.19 L 205.81,447.49 L 204.87,441.79" style="stroke:black;stroke-width:0.71;stroke-linecap:round;fill:none;stroke-dasharray: 5.67 5.67"/>
<!-- Render block 9
 -->
<text x="288.77" y="398.65" style="font-size:10;text-anchor:middle;fill:black;stroke:none;font-weight:normal;font-family:sanserif" >outer3</text>
<path d="M 232.01,439.02 L 234.43,436.36 L 236.84,433.71 L 239.26,431.06 L 241.68,428.41 L 244.10,425.77 L 246.52,423.14 L 248.94,420.51 L 251.36,417.89 L 253.78,415.29 L 256.20,412.69 L 258.62,410.11 L 261.04,407.55 L 263.47,405.00 L 265.89,402.46 L 268.32,399.95 L 270.74,397.46 L 273.17,394.98 L 275.60,392.53 L 278.03,390.11 L 280.46,387.71 L 282.89,385.33 L 285.35,382.96 L 287.99,380.45 L 290.64,377.97 L 293.29,375.51 L 295.94,373.09 L 298.59,370.70 L 301.24,368.33 L 303.90,365.98 L 306.55,363.66 L 309.20,361.36 L 311.86,359.07 L 314.52,356.81 L 317.18,354.55 L 319.83,352.32 L 322.49,350.09 L 325.15,347.88 L 327.81,345.67 L 330.47,343.47 L 333.13,341.28 L 335.80,339.09 L 338.46,336.90" style="stroke:black;stroke-width:0.71;stroke-linecap:round;fill:none;stroke-dasharray: 5.67 5.67"/>
<path d="M 360.78,397.49 L 358.92,392.44 L 357.06,387.39 L 355.20,382.34 L 353.34,377.29 L 351.48,372.24 L 349.62,367.19 L 347.76,362.14 L 345.90,357.10 L 344.04,352.05 L 342.18,347.00 L 340.32,341.95 L 338.46,336.90" style="stroke:black;stroke-width:0.71;stroke-linecap:round;fill:none;stroke-dasharray: 5.67 5.67"/>
<text x="300.70" y="425.68" transform="rotate(-45.00,300.70,425.68)"  style="font-size:10;text-anchor:middle;fill:black;stroke:none;font-weight:normal;font-family:sanserif" >USER_DEFINED</text>
<path d="M 249.97,476.41 L 252.38,474.00 L 254.80,471.58 L 257.21,469.16 L 259.63,466.75 L 262.05,464.33 L 264.46,461.92 L 266.88,459.50 L 269.29,457.08 L 271.71,454.67 L 274.13,452.25 L 276.54,449.84 L 278.96,447.42 L 281.37,445.00 L 283.79,442.59 L 286.21,440.17 L 288.62,437.76 L 291.04,435.34 L 293.45,432.92 L 295.87,430.51 L 298.29,428.09 L 300.70,425.68 L 303.12,423.26 L 305.53,420.84 L 307.95,418.43 L 310.37,416.01 L 312.78,413.60 L 315.20,411.18 L 317.61,408.76 L 320.03,406.35 L 322.45,403.93 L 324.86,401.52 L 327.28,399.10 L 330.03,397.49 L 333.44,397.49 L 336.86,397.49 L 340.28,397.49 L 343.70,397.49 L 347.11,397.49 L 350.53,397.49 L 353.95,397.49 L 357.36,397.49 L 360.78,397.49" style="stroke:black;stroke-width:0.71;stroke-linecap:round;fill:none"/>
<path d="M 249.97,476.41 L 248.47,473.30 L 246.97,470.18 L 245.48,467.06 L 243.98,463.95 L 242.48,460.83 L 240.99,457.71 L 239.49,454.60 L 237.99,451.48 L 236.50,448.37 L 235.00,445.25 L 233.50,442.13 L 232.01,439.02" style="stroke:black;stroke-width:0.71;stroke-linecap:round;fill:none;stroke-dasharray: 5.67 5.67"/>
<!-- Render block 10
 -->
<text x="396.35" y="255.93" style="font-size:10;text-anchor:middle;fill:black;stroke:none;font-weight:normal;font-family:sanserif" >outflow1</text>
<text x="392.67" y="238.04" transform="rotate(-0.00,392.67,238.04)"  style="font-size:10;text-anchor:middle;fill:black;stroke:none;font-weight:normal;font-family:sanserif" >USER_DEFINED</text>
<path d="M 306.34,260.59 L 309.16,257.77 L 311.98,254.95 L 314.80,252.13 L 317.61,249.31 L 320.43,246.50 L 323.25,243.68 L 326.07,240.86 L 328.89,238.04 L 332.88,238.04 L 336.86,238.04 L 340.85,238.04 L 344.83,238.04 L 348.82,238.04 L 352.81,238.04 L 356.79,238.04 L 360.78,238.04 L 364.77,238.04 L 368.75,238.04 L 372.74,238.04 L 376.72,238.04 L 380.71,238.04 L 384.70,238.04 L 388.68,238.04 L 392.67,238.04 L 396.65,238.04 L 400.64,238.04 L 404.63,238.04 L 408.61,238.04 L 412.60,238.04 L 416.59,238.04 L 420.57,238.04 L 424.56,238.04 L 428.54,238.04 L 432.53,238.04 L 436.52,238.04 L 440.50,238.04 L 444.49,238.04 L 448.48,238.04 L 452.46,238.04 L 456.45,238.04 L 460.43,238.04 L 464.42,238.04 L 468.41,238.04 L 472.39,238.04 L 476.38,238.04 L 480.37,238.04 L 484.35,238.04 L 488.34,238.04" style="stroke:black;stroke-width:0.71;stroke-linecap:round;fill:none"/>
<text x="488.34" y="261.96" transform="rotate(-90.00,488.34,261.96)"  style="font-size:10;text-anchor:middle;fill:black;stroke:none;font-weight:normal;font-family:sanserif" >FIXED_P_OUT</text>
<path d="M 488.34,285.87 L 488.34,281.89 L 488.34,277.90 L 488.34,273.92 L 488.34,269.93 L 488.34,265.94 L 488.34,261.96 L 488.34,257.97 L 488.34,253.98 L 488.34,250.00 L 488.34,246.01 L 488.34,242.03 L 488.34,238.04" style="stroke:black;stroke-width:0.71;stroke-linecap:round;fill:none"/>
<path d="M 319.32,298.63 L 322.84,298.36 L 326.36,298.10 L 329.89,297.83 L 333.41,297.57 L 336.93,297.30 L 340.45,297.04 L 343.97,296.77 L 347.49,296.50 L 351.01,296.24 L 354.53,295.97 L 358.05,295.71 L 361.58,295.44 L 365.10,295.18 L 368.62,294.91 L 372.14,294.64 L 375.66,294.38 L 379.18,294.11 L 382.70,293.85 L 386.22,293.58 L 389.75,293.32 L 393.27,293.05 L 396.79,292.78 L 400.31,292.52 L 403.83,292.25 L 407.35,291.99 L 410.87,291.72 L 414.39,291.46 L 417.91,291.19 L 421.44,290.92 L 424.96,290.66 L 428.48,290.39 L 432.00,290.13 L 435.52,289.86 L 439.04,289.60 L 442.56,289.33 L 446.08,289.06 L 449.61,288.80 L 453.13,288.53 L 456.65,288.27 L 460.17,288.00 L 463.69,287.73 L 467.21,287.47 L 470.73,287.20 L 474.25,286.94 L 477.77,286.67 L 481.30,286.41 L 484.82,286.14 L 488.34,285.87" style="stroke:black;stroke-width:0.71;stroke-linecap:round;fill:none;stroke-dasharray: 5.67 5.67"/>
<path d="M 319.32,298.63 L 318.24,295.46 L 317.16,292.29 L 316.08,289.12 L 314.99,285.95 L 313.91,282.78 L 312.83,279.61 L 311.75,276.44 L 310.67,273.27 L 309.59,270.10 L 308.50,266.93 L 307.42,263.76 L 306.34,260.59" style="stroke:black;stroke-width:0.71;stroke-linecap:round;fill:none;stroke-dasharray: 5.67 5.67"/>
<!-- Render block 11
 -->
<text x="405.41" y="300.67" style="font-size:10;text-anchor:middle;fill:black;stroke:none;font-weight:normal;font-family:sanserif" >outflow2</text>
<path d="M 319.32,298.63 L 322.84,298.36 L 326.36,298.10 L 329.89,297.83 L 333.41,297.57 L 336.93,297.30 L 340.45,297.04 L 343.97,296.77 L 347.49,296.50 L 351.01,296.24 L 354.53,295.97 L 358.05,295.71 L 361.58,295.44 L 365.10,295.18 L 368.62,294.91 L 372.14,294.64 L 375.66,294.38 L 379.18,294.11 L 382.70,293.85 L 386.22,293.58 L 389.75,293.32 L 393.27,293.05 L 396.79,292.78 L 400.31,292.52 L 403.83,292.25 L 407.35,291.99 L 410.87,291.72 L 414.39,291.46 L 417.91,291.19 L 421.44,290.92 L 424.96,290.66 L 428.48,290.39 L 432.00,290.13 L 435.52,289.86 L 439.04,289.60 L 442.56,289.33 L 446.08,289.06 L 449.61,288.80 L 453.13,288.53 L 456.65,288.27 L 460.17,288.00 L 463.69,287.73 L 467.21,287.47 L 470.73,287.20 L 474.25,286.94 L 477.77,286.67 L 481.30,286.41 L 484.82,286.14 L 488.34,285.87" style="stroke:black;stroke-width:0.71;stroke-linecap:round;fill:none;stroke-dasharray: 5.67 5.67"/>
<text x="488.34" y="301.82" transform="rotate(-90.00,488.34,301.82)"  style="font-size:10;text-anchor:middle;fill:black;stroke:none;font-weight:normal;font-family:sanserif" >FIXED_P_OUT</text>
<path d="M 488.34,317.76 L 488.34,312.45 L 488.34,307.13 L 488.34,301.82 L 488.34,296.50 L 488.34,291.19 L 488.34,285.87" style="stroke:black;stroke-width:0.71;stroke-linecap:round;fill:none"/>
<path d="M 328.89,317.76 L 332.21,317.76 L 335.53,317.76 L 338.85,317.76 L 342.18,317.76 L 345.50,317.76 L 348.82,317.76 L 352.14,317.76 L 355.46,317.76 L 358.79,317.76 L 362.11,317.76 L 365.43,317.76 L 368.75,317.76 L 372.07,317.76 L 375.39,317.76 L 378.72,317.76 L 382.04,317.76 L 385.36,317.76 L 388.68,317.76 L 392.00,317.76 L 395.33,317.76 L 398.65,317.76 L 401.97,317.76 L 405.29,317.76 L 408.61,317.76 L 411.94,317.76 L 415.26,317.76 L 418.58,317.76 L 421.90,317.76 L 425.22,317.76 L 428.54,317.76 L 431.87,317.76 L 435.19,317.76 L 438.51,317.76 L 441.83,317.76 L 445.15,317.76 L 448.48,317.76 L 451.80,317.76 L 455.12,317.76 L 458.44,317.76 L 461.76,317.76 L 465.08,317.76 L 468.41,317.76 L 471.73,317.76 L 475.05,317.76 L 478.37,317.76 L 481.69,317.76 L 485.02,317.76 L 488.34,317.76" style="stroke:black;stroke-width:0.71;stroke-linecap:round;fill:none;stroke-dasharray: 5.67 5.67"/>
<path d="M 328.89,317.76 L 327.29,314.58 L 325.70,311.39 L 324.11,308.20 L 322.51,305.01 L 320.92,301.82 L 319.32,298.63" style="stroke:black;stroke-width:0.71;stroke-linecap:round;fill:none;stroke-dasharray: 5.67 5.67"/>
<!-- Render block 12
 -->
<text x="410.52" y="325.88" style="font-size:10;text-anchor:middle;fill:black;stroke:none;font-weight:normal;font-family:sanserif" >outflow3</text>
<path d="M 328.89,317.76 L 332.21,317.76 L 335.53,317.76 L 338.85,317.76 L 342.18,317.76 L 345.50,317.76 L 348.82,317.76 L 352.14,317.76 L 355.46,317.76 L 358.79,317.76 L 362.11,317.76 L 365.43,317.76 L 368.75,317.76 L 372.07,317.76 L 375.39,317.76 L 378.72,317.76 L 382.04,317.76 L 385.36,317.76 L 388.68,317.76 L 392.00,317.76 L 395.33,317.76 L 398.65,317.76 L 401.97,317.76 L 405.29,317.76 L 408.61,317.76 L 411.94,317.76 L 415.26,317.76 L 418.58,317.76 L 421.90,317.76 L 425.22,317.76 L 428.54,317.76 L 431.87,317.76 L 435.19,317.76 L 438.51,317.76 L 441.83,317.76 L 445.15,317.76 L 448.48,317.76 L 451.80,317.76 L 455.12,317.76 L 458.44,317.76 L 461.76,317.76 L 465.08,317.76 L 468.41,317.76 L 471.73,317.76 L 475.05,317.76 L 478.37,317.76 L 481.69,317.76 L 485.02,317.76 L 488.34,317.76" style="stroke:black;stroke-width:0.71;stroke-linecap:round;fill:none;stroke-dasharray: 5.67 5.67"/>
<text x="488.34" y="333.71" transform="rotate(-90.00,488.34,333.71)"  style="font-size:10;text-anchor:middle;fill:black;stroke:none;font-weight:normal;font-family:sanserif" >FIXED_P_OUT</text>
<path d="M 488.34,349.65 L 488.34,344.34 L 488.34,339.02 L 488.34,333.71 L 488.34,328.39 L 488.34,323.08 L 488.34,317.76" style="stroke:black;stroke-width:0.71;stroke-linecap:round;fill:none"/>
<path d="M 338.46,336.90 L 341.58,337.16 L 344.70,337.43 L 347.82,337.70 L 350.95,337.96 L 354.07,338.23 L 357.19,338.49 L 360.31,338.76 L 363.44,339.02 L 366.56,339.29 L 369.68,339.56 L 372.80,339.82 L 375.93,340.09 L 379.05,340.35 L 382.17,340.62 L 385.29,340.88 L 388.42,341.15 L 391.54,341.42 L 394.66,341.68 L 397.78,341.95 L 400.91,342.21 L 404.03,342.48 L 407.15,342.74 L 410.27,343.01 L 413.40,343.28 L 416.52,343.54 L 419.64,343.81 L 422.76,344.07 L 425.89,344.34 L 429.01,344.61 L 432.13,344.87 L 435.25,345.14 L 438.38,345.40 L 441.50,345.67 L 444.62,345.93 L 447.74,346.20 L 450.87,346.47 L 453.99,346.73 L 457.11,347.00 L 460.24,347.26 L 463.36,347.53 L 466.48,347.79 L 469.60,348.06 L 472.73,348.33 L 475.85,348.59 L 478.97,348.86 L 482.09,349.12 L 485.22,349.39 L 488.34,349.65" style="stroke:black;stroke-width:0.71;stroke-linecap:round;fill:none;stroke-dasharray: 5.67 5.67"/>
<path d="M 338.46,336.90 L 336.86,333.71 L 335.27,330.52 L 333.67,327.33 L 332.08,324.14 L 330.48,320.95 L 328.89,317.76" style="stroke:black;stroke-width:0.71;stroke-linecap:round;fill:none;stroke-dasharray: 5.67 5.67"/>
<!-- Render block 13
 -->
<text x="417.08" y="361.17" style="font-size:10;text-anchor:middle;fill:black;stroke:none;font-weight:normal;font-family:sanserif" >outflow4</text>
<path d="M 338.46,336.90 L 341.58,337.16 L 344.70,337.43 L 347.82,337.70 L 350.95,337.96 L 354.07,338.23 L 357.19,338.49 L 360.31,338.76 L 363.44,339.02 L 366.56,339.29 L 369.68,339.56 L 372.80,339.82 L 375.93,340.09 L 379.05,340.35 L 382.17,340.62 L 385.29,340.88 L 388.42,341.15 L 391.54,341.42 L 394.66,341.68 L 397.78,341.95 L 400.91,342.21 L 404.03,342.48 L 407.15,342.74 L 410.27,343.01 L 413.40,343.28 L 416.52,343.54 L 419.64,343.81 L 422.76,344.07 L 425.89,344.34 L 429.01,344.61 L 432.13,344.87 L 435.25,345.14 L 438.38,345.40 L 441.50,345.67 L 444.62,345.93 L 447.74,346.20 L 450.87,346.47 L 453.99,346.73 L 457.11,347.00 L 460.24,347.26 L 463.36,347.53 L 466.48,347.79 L 469.60,348.06 L 472.73,348.33 L 475.85,348.59 L 478.97,348.86 L 482.09,349.12 L 485.22,349.39 L 488.34,349.65" style="stroke:black;stroke-width:0.71;stroke-linecap:round;fill:none;stroke-dasharray: 5.67 5.67"/>
<text x="488.34" y="373.57" transform="rotate(-90.00,488.34,373.57)"  style="font-size:10;text-anchor:middle;fill:black;stroke:none;font-weight:normal;font-family:sanserif" >FIXED_P_OUT</text>
<path d="M 488.34,397.49 L 488.34,393.50 L 488.34,389.52 L 488.34,385.53 L 488.34,381.54 L 488.34,377.56 L 488.34,373.57 L 488.34,369.59 L 488.34,365.60 L 488.34,361.61 L 488.34,357.63 L 488.34,353.64 L 488.34,349.65" style="stroke:black;stroke-width:0.71;stroke-linecap:round;fill:none"/>
<text x="424.56" y="397.49" style="font-size:10;text-anchor:middle;fill:black;stroke:none;font-weight:normal;font-family:sanserif" >USER_DEFINED</text>
<path d="M 360.78,397.49 L 363.44,397.49 L 366.09,397.49 L 368.75,397.49 L 371.41,397.49 L 374.07,397.49 L 376.72,397.49 L 379.38,397.49 L 382.04,397.49 L 384.70,397.49 L 387.35,397.49 L 390.01,397.49 L 392.67,397.49 L 395.33,397.49 L 397.98,397.49 L 400.64,397.49 L 403.30,397.49 L 405.96,397.49 L 408.61,397.49 L 411.27,397.49 L 413.93,397.49 L 416.59,397.49 L 419.24,397.49 L 421.90,397.49 L 424.56,397.49 L 427.22,397.49 L 429.87,397.49 L 432.53,397.49 L 435.19,397.49 L 437.85,397.49 L 440.50,397.49 L 443.16,397.49 L 445.82,397.49 L 448.48,397.49 L 451.13,397.49 L 453.79,397.49 L 456.45,397.49 L 459.11,397.49 L 461.76,397.49 L 464.42,397.49 L 467.08,397.49 L 469.74,397.49 L 472.39,397.49 L 475.05,397.49 L 477.71,397.49 L 480.37,397.49 L 483.02,397.49 L 485.68,397.49 L 488.34,397.49" style="stroke:black;stroke-width:0.71;stroke-linecap:round;fill:none"/>
<path d="M 360.78,397.49 L 358.92,392.44 L 357.06,387.39 L 355.20,382.34 L 353.34,377.29 L 351.48,372.24 L 349.62,367.19 L 347.76,362.14 L 345.90,357.10 L 344.04,352.05 L 342.18,347.00 L 340.32,341.95 L 338.46,336.90" style="stroke:black;stroke-width:0.71;stroke-linecap:round;fill:none;stroke-dasharray: 5.67 5.67"/>
<!-- end of drawing -->
</svg>
