<?xml version="1.0" encoding="UTF-8" standalone="no"?>
<svg
   xmlns:dc="http://purl.org/dc/elements/1.1/"
   xmlns:cc="http://creativecommons.org/ns#"
   xmlns:rdf="http://www.w3.org/1999/02/22-rdf-syntax-ns#"
   xmlns:svg="http://www.w3.org/2000/svg"
   xmlns="http://www.w3.org/2000/svg"
   xmlns:sodipodi="http://sodipodi.sourceforge.net/DTD/sodipodi-0.dtd"
   xmlns:inkscape="http://www.inkscape.org/namespaces/inkscape"
   width="566.93"
   height="566.93"
   version="1.0"
   id="svg2"
   inkscape:version="0.48.4 r9939"
   sodipodi:docname="cavity-edited.svg">
  <metadata
     id="metadata124">
    <rdf:RDF>
      <cc:Work
         rdf:about="">
        <dc:format>image/svg+xml</dc:format>
        <dc:type
           rdf:resource="http://purl.org/dc/dcmitype/StillImage" />
      </cc:Work>
    </rdf:RDF>
  </metadata>
  <defs
     id="defs122" />
  <sodipodi:namedview
     pagecolor="#ffffff"
     bordercolor="#666666"
     borderopacity="1"
     objecttolerance="10"
     gridtolerance="10"
     guidetolerance="10"
     inkscape:pageopacity="0"
     inkscape:pageshadow="2"
     inkscape:window-width="1426"
     inkscape:window-height="977"
     id="namedview120"
     showgrid="false"
     inkscape:zoom="2.1957821"
     inkscape:cx="256.27288"
     inkscape:cy="249.3972"
     inkscape:window-x="0"
     inkscape:window-y="0"
     inkscape:window-maximized="0"
     inkscape:current-layer="svg2" />
  <title
     id="title4">Shear-driven cavity flow Ghia et al. 1982</title>
  <desc
     id="desc6">SVG file written by e3prep.py</desc>
  <!-- drawing begins here -->
  <line
     x1="141.73"
     y1="453.54"
     x2="425.20"
     y2="453.54"
     style="stroke:black;stroke-width:1.42;stroke-linecap:round;fill:none"
     id="line8" />
  <text
     x="283.46"
     y="479.06"
     style="font-size:10;text-anchor:start;fill:black;stroke:none;font-weight:normal;font-family:sanserif"
     id="text10">x</text>
  <line
     x1="141.73"
     y1="453.54"
     x2="141.73"
     y2="447.87"
     style="stroke:black;stroke-width:1.42;stroke-linecap:round;fill:none"
     id="line12" />
  <text
     x="141.73"
     y="467.72"
     style="font-size:10;text-anchor:middle;fill:black;stroke:none;font-weight:normal;font-family:sanserif"
     id="text14">0</text>
  <line
     x1="198.43"
     y1="453.54"
     x2="198.43"
     y2="447.87"
     style="stroke:black;stroke-width:1.42;stroke-linecap:round;fill:none"
     id="line16" />
  <text
     x="198.43"
     y="467.72"
     style="font-size:10;text-anchor:middle;fill:black;stroke:none;font-weight:normal;font-family:sanserif"
     id="text18">0.2</text>
  <line
     x1="255.12"
     y1="453.54"
     x2="255.12"
     y2="447.87"
     style="stroke:black;stroke-width:1.42;stroke-linecap:round;fill:none"
     id="line20" />
  <text
     x="255.12"
     y="467.72"
     style="font-size:10;text-anchor:middle;fill:black;stroke:none;font-weight:normal;font-family:sanserif"
     id="text22">0.4</text>
  <line
     x1="311.81"
     y1="453.54"
     x2="311.81"
     y2="447.87"
     style="stroke:black;stroke-width:1.42;stroke-linecap:round;fill:none"
     id="line24" />
  <text
     x="311.81"
     y="467.72"
     style="font-size:10;text-anchor:middle;fill:black;stroke:none;font-weight:normal;font-family:sanserif"
     id="text26">0.6</text>
  <line
     x1="368.50"
     y1="453.54"
     x2="368.50"
     y2="447.87"
     style="stroke:black;stroke-width:1.42;stroke-linecap:round;fill:none"
     id="line28" />
  <text
     x="368.50"
     y="467.72"
     style="font-size:10;text-anchor:middle;fill:black;stroke:none;font-weight:normal;font-family:sanserif"
     id="text30">0.8</text>
  <line
     x1="425.20"
     y1="453.54"
     x2="425.20"
     y2="447.87"
     style="stroke:black;stroke-width:1.42;stroke-linecap:round;fill:none"
     id="line32" />
  <text
     x="425.20"
     y="467.72"
     style="font-size:10;text-anchor:middle;fill:black;stroke:none;font-weight:normal;font-family:sanserif"
     id="text34">1</text>
  <line
     x1="113.39"
     y1="425.20"
     x2="113.39"
     y2="141.73"
     style="stroke:black;stroke-width:1.42;stroke-linecap:round;fill:none"
     id="line36" />
  <text
     x="90.71"
     y="283.46"
     style="font-size:10;text-anchor:end;fill:black;stroke:none;font-weight:normal;font-family:sanserif"
     id="text38">y</text>
  <line
     x1="113.39"
     y1="425.20"
     x2="119.06"
     y2="425.20"
     style="stroke:black;stroke-width:1.42;stroke-linecap:round;fill:none"
     id="line40" />
  <text
     x="104.88"
     y="425.20"
     style="font-size:10;text-anchor:end;fill:black;stroke:none;font-weight:normal;font-family:sanserif"
     id="text42">0</text>
  <line
     x1="113.39"
     y1="368.50"
     x2="119.06"
     y2="368.50"
     style="stroke:black;stroke-width:1.42;stroke-linecap:round;fill:none"
     id="line44" />
  <text
     x="104.88"
     y="368.50"
     style="font-size:10;text-anchor:end;fill:black;stroke:none;font-weight:normal;font-family:sanserif"
     id="text46">0.2</text>
  <line
     x1="113.39"
     y1="311.81"
     x2="119.06"
     y2="311.81"
     style="stroke:black;stroke-width:1.42;stroke-linecap:round;fill:none"
     id="line48" />
  <text
     x="104.88"
     y="311.81"
     style="font-size:10;text-anchor:end;fill:black;stroke:none;font-weight:normal;font-family:sanserif"
     id="text50">0.4</text>
  <line
     x1="113.39"
     y1="255.12"
     x2="119.06"
     y2="255.12"
     style="stroke:black;stroke-width:1.42;stroke-linecap:round;fill:none"
     id="line52" />
  <text
     x="104.88"
     y="255.12"
     style="font-size:10;text-anchor:end;fill:black;stroke:none;font-weight:normal;font-family:sanserif"
     id="text54">0.6</text>
  <line
     x1="113.39"
     y1="198.43"
     x2="119.06"
     y2="198.43"
     style="stroke:black;stroke-width:1.42;stroke-linecap:round;fill:none"
     id="line56" />
  <text
     x="104.88"
     y="198.43"
     style="font-size:10;text-anchor:end;fill:black;stroke:none;font-weight:normal;font-family:sanserif"
     id="text58">0.8</text>
  <line
     x1="113.39"
     y1="141.73"
     x2="119.06"
     y2="141.73"
     style="stroke:black;stroke-width:1.42;stroke-linecap:round;fill:none"
     id="line60" />
  <text
     x="104.88"
     y="141.73"
     style="font-size:10;text-anchor:end;fill:black;stroke:none;font-weight:normal;font-family:sanserif"
     id="text62">1</text>
  <!-- There are 0 nodes
 -->
  <!-- There are 4 blocks
 -->
  <!-- Render block 0
 -->
  <text
     x="208.91345"
     y="358.32999"
     style="font-size:10px;font-weight:normal;text-anchor:middle;fill:#000000;stroke:none;font-family:sanserif"
     id="text64">sblk-0-0</text>
  <path
     d="M 141.73,283.46 L 143.08,283.46 L 144.54,283.46 L 146.14,283.46 L 147.87,283.46 L 149.75,283.46 L 151.79,283.46 L 154.01,283.46 L 156.40,283.46 L 158.99,283.46 L 161.79,283.46 L 164.79,283.46 L 168.03,283.46 L 171.50,283.46 L 175.21,283.46 L 179.18,283.46 L 183.41,283.46 L 187.91,283.46 L 192.68,283.46 L 197.71,283.46 L 203.02,283.46 L 208.59,283.46 L 214.43,283.46 L 220.52,283.46 L 226.84,283.46 L 233.39,283.46 L 240.14,283.46 L 247.07,283.46 L 254.15,283.46 L 261.36,283.46 L 268.68,283.46 L 276.05,283.46 L 283.46,283.46"
     style="stroke:black;stroke-width:0.71;stroke-linecap:round;fill:none;stroke-dasharray: 5.67 5.67"
     id="path66" />
  <path
     d="M 283.46,425.20 L 283.46,423.85 L 283.46,422.39 L 283.46,420.79 L 283.46,419.06 L 283.46,417.18 L 283.46,415.13 L 283.46,412.92 L 283.46,410.53 L 283.46,407.94 L 283.46,405.14 L 283.46,402.13 L 283.46,398.90 L 283.46,395.43 L 283.46,391.71 L 283.46,387.75 L 283.46,383.52 L 283.46,379.02 L 283.46,374.25 L 283.46,369.22 L 283.46,363.91 L 283.46,358.33 L 283.46,352.50 L 283.46,346.41 L 283.46,340.09 L 283.46,333.54 L 283.46,326.79 L 283.46,319.86 L 283.46,312.78 L 283.46,305.56 L 283.46,298.25 L 283.46,290.88 L 283.46,283.46"
     style="stroke:black;stroke-width:0.71;stroke-linecap:round;fill:none;stroke-dasharray: 5.67 5.67"
     id="path68" />
  <path
     d="M 141.73,425.20 L 143.08,425.20 L 144.54,425.20 L 146.14,425.20 L 147.87,425.20 L 149.75,425.20 L 151.79,425.20 L 154.01,425.20 L 156.40,425.20 L 158.99,425.20 L 161.79,425.20 L 164.79,425.20 L 168.03,425.20 L 171.50,425.20 L 175.21,425.20 L 179.18,425.20 L 183.41,425.20 L 187.91,425.20 L 192.68,425.20 L 197.71,425.20 L 203.02,425.20 L 208.59,425.20 L 214.43,425.20 L 220.52,425.20 L 226.84,425.20 L 233.39,425.20 L 240.14,425.20 L 247.07,425.20 L 254.15,425.20 L 261.36,425.20 L 268.68,425.20 L 276.05,425.20 L 283.46,425.20"
     style="stroke:black;stroke-width:0.71;stroke-linecap:round;fill:none"
     id="path72" />
  <text
     x="-283.16083"
     y="138.08665"
     transform="matrix(0,-1,1,0,0,0)"
     style="font-size:10px;font-weight:normal;text-anchor:middle;fill:#000000;stroke:none;font-family:sanserif"
     id="text74">ADIABATIC</text>
  <path
     d="M 141.73,425.20 L 141.73,423.85 L 141.73,422.39 L 141.73,420.79 L 141.73,419.06 L 141.73,417.18 L 141.73,415.13 L 141.73,412.92 L 141.73,410.53 L 141.73,407.94 L 141.73,405.14 L 141.73,402.13 L 141.73,398.90 L 141.73,395.43 L 141.73,391.71 L 141.73,387.75 L 141.73,383.52 L 141.73,379.02 L 141.73,374.25 L 141.73,369.22 L 141.73,363.91 L 141.73,358.33 L 141.73,352.50 L 141.73,346.41 L 141.73,340.09 L 141.73,333.54 L 141.73,326.79 L 141.73,319.86 L 141.73,312.78 L 141.73,305.56 L 141.73,298.25 L 141.73,290.88 L 141.73,283.46"
     style="stroke:black;stroke-width:0.71;stroke-linecap:round;fill:none"
     id="path76" />
  <!-- Render block 1
 -->
  <text
     x="209.36887"
     y="211.6981"
     style="font-size:10px;font-weight:normal;text-anchor:middle;fill:#000000;stroke:none;font-family:sanserif"
     id="text78">sblk-0-1</text>
  <text
     x="280.12582"
     y="135.80956"
     style="font-size:10px;font-weight:normal;text-anchor:middle;fill:#000000;stroke:none;font-family:sanserif"
     id="text80">MOVING_WALL</text>
  <path
     d="M 141.73,141.73 L 143.08,141.73 L 144.54,141.73 L 146.14,141.73 L 147.87,141.73 L 149.75,141.73 L 151.79,141.73 L 154.01,141.73 L 156.40,141.73 L 158.99,141.73 L 161.79,141.73 L 164.79,141.73 L 168.03,141.73 L 171.50,141.73 L 175.21,141.73 L 179.18,141.73 L 183.41,141.73 L 187.91,141.73 L 192.68,141.73 L 197.71,141.73 L 203.02,141.73 L 208.59,141.73 L 214.43,141.73 L 220.52,141.73 L 226.84,141.73 L 233.39,141.73 L 240.14,141.73 L 247.07,141.73 L 254.15,141.73 L 261.36,141.73 L 268.68,141.73 L 276.05,141.73 L 283.46,141.73"
     style="stroke:black;stroke-width:0.71;stroke-linecap:round;fill:none"
     id="path82" />
  <path
     d="M 283.46,283.46 L 283.46,276.05 L 283.46,268.68 L 283.46,261.36 L 283.46,254.15 L 283.46,247.07 L 283.46,240.14 L 283.46,233.39 L 283.46,226.84 L 283.46,220.52 L 283.46,214.43 L 283.46,208.59 L 283.46,203.02 L 283.46,197.71 L 283.46,192.68 L 283.46,187.91 L 283.46,183.41 L 283.46,179.18 L 283.46,175.21 L 283.46,171.50 L 283.46,168.03 L 283.46,164.79 L 283.46,161.79 L 283.46,158.99 L 283.46,156.40 L 283.46,154.01 L 283.46,151.79 L 283.46,149.75 L 283.46,147.87 L 283.46,146.14 L 283.46,144.54 L 283.46,143.08 L 283.46,141.73"
     style="stroke:black;stroke-width:0.71;stroke-linecap:round;fill:none;stroke-dasharray: 5.67 5.67"
     id="path84" />
  <path
     d="M 141.73,283.46 L 143.08,283.46 L 144.54,283.46 L 146.14,283.46 L 147.87,283.46 L 149.75,283.46 L 151.79,283.46 L 154.01,283.46 L 156.40,283.46 L 158.99,283.46 L 161.79,283.46 L 164.79,283.46 L 168.03,283.46 L 171.50,283.46 L 175.21,283.46 L 179.18,283.46 L 183.41,283.46 L 187.91,283.46 L 192.68,283.46 L 197.71,283.46 L 203.02,283.46 L 208.59,283.46 L 214.43,283.46 L 220.52,283.46 L 226.84,283.46 L 233.39,283.46 L 240.14,283.46 L 247.07,283.46 L 254.15,283.46 L 261.36,283.46 L 268.68,283.46 L 276.05,283.46 L 283.46,283.46"
     style="stroke:black;stroke-width:0.71;stroke-linecap:round;fill:none;stroke-dasharray: 5.67 5.67"
     id="path86" />
  <path
     d="M 141.73,283.46 L 141.73,276.05 L 141.73,268.68 L 141.73,261.36 L 141.73,254.15 L 141.73,247.07 L 141.73,240.14 L 141.73,233.39 L 141.73,226.84 L 141.73,220.52 L 141.73,214.43 L 141.73,208.59 L 141.73,203.02 L 141.73,197.71 L 141.73,192.68 L 141.73,187.91 L 141.73,183.41 L 141.73,179.18 L 141.73,175.21 L 141.73,171.50 L 141.73,168.03 L 141.73,164.79 L 141.73,161.79 L 141.73,158.99 L 141.73,156.40 L 141.73,154.01 L 141.73,151.79 L 141.73,149.75 L 141.73,147.87 L 141.73,146.14 L 141.73,144.54 L 141.73,143.08 L 141.73,141.73"
     style="stroke:black;stroke-width:0.71;stroke-linecap:round;fill:none"
     id="path90" />
  <!-- Render block 2
 -->
  <text
     x="354.82861"
     y="357.87457"
     style="font-size:10px;font-weight:normal;text-anchor:middle;fill:#000000;stroke:none;font-family:sanserif"
     id="text92">sblk-1-0</text>
  <path
     d="M 283.46,283.46 L 290.88,283.46 L 298.25,283.46 L 305.56,283.46 L 312.78,283.46 L 319.86,283.46 L 326.79,283.46 L 333.54,283.46 L 340.09,283.46 L 346.41,283.46 L 352.50,283.46 L 358.33,283.46 L 363.91,283.46 L 369.22,283.46 L 374.25,283.46 L 379.02,283.46 L 383.52,283.46 L 387.75,283.46 L 391.71,283.46 L 395.43,283.46 L 398.90,283.46 L 402.13,283.46 L 405.14,283.46 L 407.94,283.46 L 410.53,283.46 L 412.92,283.46 L 415.13,283.46 L 417.18,283.46 L 419.06,283.46 L 420.79,283.46 L 422.39,283.46 L 423.85,283.46 L 425.20,283.46"
     style="stroke:black;stroke-width:0.71;stroke-linecap:round;fill:none;stroke-dasharray: 5.67 5.67"
     id="path94" />
  <text
     x="-283.61621"
     y="437.49631"
     transform="matrix(0,-1,1,0,0,0)"
     style="font-size:10px;font-weight:normal;text-anchor:middle;fill:#000000;stroke:none;font-family:sanserif"
     id="text96">ADIABATIC</text>
  <path
     d="M 425.20,425.20 L 425.20,423.85 L 425.20,422.39 L 425.20,420.79 L 425.20,419.06 L 425.20,417.18 L 425.20,415.13 L 425.20,412.92 L 425.20,410.53 L 425.20,407.94 L 425.20,405.14 L 425.20,402.13 L 425.20,398.90 L 425.20,395.43 L 425.20,391.71 L 425.20,387.75 L 425.20,383.52 L 425.20,379.02 L 425.20,374.25 L 425.20,369.22 L 425.20,363.91 L 425.20,358.33 L 425.20,352.50 L 425.20,346.41 L 425.20,340.09 L 425.20,333.54 L 425.20,326.79 L 425.20,319.86 L 425.20,312.78 L 425.20,305.56 L 425.20,298.25 L 425.20,290.88 L 425.20,283.46"
     style="stroke:black;stroke-width:0.71;stroke-linecap:round;fill:none"
     id="path98" />
  <text
     x="284.26584"
     y="437.95172"
     style="font-size:10px;font-weight:normal;text-anchor:middle;fill:#000000;stroke:none;font-family:sanserif"
     id="text100">ADIABATIC</text>
  <path
     d="M 283.46,425.20 L 290.88,425.20 L 298.25,425.20 L 305.56,425.20 L 312.78,425.20 L 319.86,425.20 L 326.79,425.20 L 333.54,425.20 L 340.09,425.20 L 346.41,425.20 L 352.50,425.20 L 358.33,425.20 L 363.91,425.20 L 369.22,425.20 L 374.25,425.20 L 379.02,425.20 L 383.52,425.20 L 387.75,425.20 L 391.71,425.20 L 395.43,425.20 L 398.90,425.20 L 402.13,425.20 L 405.14,425.20 L 407.94,425.20 L 410.53,425.20 L 412.92,425.20 L 415.13,425.20 L 417.18,425.20 L 419.06,425.20 L 420.79,425.20 L 422.39,425.20 L 423.85,425.20 L 425.20,425.20"
     style="stroke:black;stroke-width:0.71;stroke-linecap:round;fill:none"
     id="path102" />
  <path
     d="M 283.46,425.20 L 283.46,423.85 L 283.46,422.39 L 283.46,420.79 L 283.46,419.06 L 283.46,417.18 L 283.46,415.13 L 283.46,412.92 L 283.46,410.53 L 283.46,407.94 L 283.46,405.14 L 283.46,402.13 L 283.46,398.90 L 283.46,395.43 L 283.46,391.71 L 283.46,387.75 L 283.46,383.52 L 283.46,379.02 L 283.46,374.25 L 283.46,369.22 L 283.46,363.91 L 283.46,358.33 L 283.46,352.50 L 283.46,346.41 L 283.46,340.09 L 283.46,333.54 L 283.46,326.79 L 283.46,319.86 L 283.46,312.78 L 283.46,305.56 L 283.46,298.25 L 283.46,290.88 L 283.46,283.46"
     style="stroke:black;stroke-width:0.71;stroke-linecap:round;fill:none;stroke-dasharray: 5.67 5.67"
     id="path104" />
  <!-- Render block 3
 -->
  <text
     x="352.0961"
     y="213.06436"
     style="font-size:10px;font-weight:normal;text-anchor:middle;fill:#000000;stroke:none;font-family:sanserif"
     id="text106">sblk-1-1</text>
  <path
     d="M 283.46,141.73 L 290.88,141.73 L 298.25,141.73 L 305.56,141.73 L 312.78,141.73 L 319.86,141.73 L 326.79,141.73 L 333.54,141.73 L 340.09,141.73 L 346.41,141.73 L 352.50,141.73 L 358.33,141.73 L 363.91,141.73 L 369.22,141.73 L 374.25,141.73 L 379.02,141.73 L 383.52,141.73 L 387.75,141.73 L 391.71,141.73 L 395.43,141.73 L 398.90,141.73 L 402.13,141.73 L 405.14,141.73 L 407.94,141.73 L 410.53,141.73 L 412.92,141.73 L 415.13,141.73 L 417.18,141.73 L 419.06,141.73 L 420.79,141.73 L 422.39,141.73 L 423.85,141.73 L 425.20,141.73"
     style="stroke:black;stroke-width:0.71;stroke-linecap:round;fill:none"
     id="path110" />
  <path
     d="M 425.20,283.46 L 425.20,276.05 L 425.20,268.68 L 425.20,261.36 L 425.20,254.15 L 425.20,247.07 L 425.20,240.14 L 425.20,233.39 L 425.20,226.84 L 425.20,220.52 L 425.20,214.43 L 425.20,208.59 L 425.20,203.02 L 425.20,197.71 L 425.20,192.68 L 425.20,187.91 L 425.20,183.41 L 425.20,179.18 L 425.20,175.21 L 425.20,171.50 L 425.20,168.03 L 425.20,164.79 L 425.20,161.79 L 425.20,158.99 L 425.20,156.40 L 425.20,154.01 L 425.20,151.79 L 425.20,149.75 L 425.20,147.87 L 425.20,146.14 L 425.20,144.54 L 425.20,143.08 L 425.20,141.73"
     style="stroke:black;stroke-width:0.71;stroke-linecap:round;fill:none"
     id="path114" />
  <path
     d="M 283.46,283.46 L 290.88,283.46 L 298.25,283.46 L 305.56,283.46 L 312.78,283.46 L 319.86,283.46 L 326.79,283.46 L 333.54,283.46 L 340.09,283.46 L 346.41,283.46 L 352.50,283.46 L 358.33,283.46 L 363.91,283.46 L 369.22,283.46 L 374.25,283.46 L 379.02,283.46 L 383.52,283.46 L 387.75,283.46 L 391.71,283.46 L 395.43,283.46 L 398.90,283.46 L 402.13,283.46 L 405.14,283.46 L 407.94,283.46 L 410.53,283.46 L 412.92,283.46 L 415.13,283.46 L 417.18,283.46 L 419.06,283.46 L 420.79,283.46 L 422.39,283.46 L 423.85,283.46 L 425.20,283.46"
     style="stroke:black;stroke-width:0.71;stroke-linecap:round;fill:none;stroke-dasharray: 5.67 5.67"
     id="path116" />
  <path
     d="M 283.46,283.46 L 283.46,276.05 L 283.46,268.68 L 283.46,261.36 L 283.46,254.15 L 283.46,247.07 L 283.46,240.14 L 283.46,233.39 L 283.46,226.84 L 283.46,220.52 L 283.46,214.43 L 283.46,208.59 L 283.46,203.02 L 283.46,197.71 L 283.46,192.68 L 283.46,187.91 L 283.46,183.41 L 283.46,179.18 L 283.46,175.21 L 283.46,171.50 L 283.46,168.03 L 283.46,164.79 L 283.46,161.79 L 283.46,158.99 L 283.46,156.40 L 283.46,154.01 L 283.46,151.79 L 283.46,149.75 L 283.46,147.87 L 283.46,146.14 L 283.46,144.54 L 283.46,143.08 L 283.46,141.73"
     style="stroke:black;stroke-width:0.71;stroke-linecap:round;fill:none;stroke-dasharray: 5.67 5.67"
     id="path118" />
  <!-- end of drawing -->
</svg>
