<?xml version="1.0" encoding="UTF-8" standalone="no"?>
<svg
   xmlns:dc="http://purl.org/dc/elements/1.1/"
   xmlns:cc="http://creativecommons.org/ns#"
   xmlns:rdf="http://www.w3.org/1999/02/22-rdf-syntax-ns#"
   xmlns:svg="http://www.w3.org/2000/svg"
   xmlns="http://www.w3.org/2000/svg"
   xmlns:sodipodi="http://sodipodi.sourceforge.net/DTD/sodipodi-0.dtd"
   xmlns:inkscape="http://www.inkscape.org/namespaces/inkscape"
   width="566.93"
   height="566.93"
   version="1.0"
   id="svg2"
   inkscape:version="0.47pre4 r22446"
   sodipodi:docname="ss3.svg">
  <metadata
     id="metadata130">
    <rdf:RDF>
      <cc:Work
         rdf:about="">
        <dc:format>image/svg+xml</dc:format>
        <dc:type
           rdf:resource="http://purl.org/dc/dcmitype/StillImage" />
        <dc:title>Blunt Body ss3: R=0.0318, gas='equilibrium air', p=20000.0, v=4680.0, T=296.0, viscous=0</dc:title>
      </cc:Work>
    </rdf:RDF>
  </metadata>
  <defs
     id="defs128">
    <inkscape:perspective
       sodipodi:type="inkscape:persp3d"
       inkscape:vp_x="0 : 283.465 : 1"
       inkscape:vp_y="0 : 1000 : 0"
       inkscape:vp_z="566.92999 : 283.465 : 1"
       inkscape:persp3d-origin="283.465 : 188.97666 : 1"
       id="perspective132" />
  </defs>
  <sodipodi:namedview
     pagecolor="#ffffff"
     bordercolor="#666666"
     borderopacity="1"
     objecttolerance="10"
     gridtolerance="10"
     guidetolerance="10"
     inkscape:pageopacity="0"
     inkscape:pageshadow="2"
     inkscape:window-width="1212"
     inkscape:window-height="801"
     id="namedview126"
     showgrid="false"
     inkscape:zoom="1.377654"
     inkscape:cx="255.35078"
     inkscape:cy="285.39882"
     inkscape:window-x="0"
     inkscape:window-y="25"
     inkscape:window-maximized="0"
     inkscape:current-layer="svg2" />
  <title
     id="title4">Blunt Body ss3: R=0.0318, gas='equilibrium air', p=20000.0, v=4680.0, T=296.0, viscous=0</title>
  <desc
     id="desc6">SVG file written by e3prep.py</desc>
  <!-- drawing begins here -->
  <line
     x1="105.18"
     y1="454.91"
     x2="432.03"
     y2="454.91"
     style="stroke:black;stroke-width:1.42;stroke-linecap:round;fill:none"
     id="line8" />
  <text
     x="268.61"
     y="480.42"
     style="font-size:10;text-anchor:start;fill:black;stroke:none;font-weight:normal;font-family:sanserif"
     id="text10">x</text>
  <line
     x1="105.18"
     y1="454.91"
     x2="105.18"
     y2="449.24"
     style="stroke:black;stroke-width:1.42;stroke-linecap:round;fill:none"
     id="line12" />
  <text
     x="105.18"
     y="469.08"
     style="font-size:10;text-anchor:middle;fill:black;stroke:none;font-weight:normal;font-family:sanserif"
     id="text14">-0.06</text>
  <line
     x1="164.61"
     y1="454.91"
     x2="164.61"
     y2="449.24"
     style="stroke:black;stroke-width:1.42;stroke-linecap:round;fill:none"
     id="line16" />
  <text
     x="164.61"
     y="469.08"
     style="font-size:10;text-anchor:middle;fill:black;stroke:none;font-weight:normal;font-family:sanserif"
     id="text18">-0.04</text>
  <line
     x1="224.04"
     y1="454.91"
     x2="224.04"
     y2="449.24"
     style="stroke:black;stroke-width:1.42;stroke-linecap:round;fill:none"
     id="line20" />
  <text
     x="224.04"
     y="469.08"
     style="font-size:10;text-anchor:middle;fill:black;stroke:none;font-weight:normal;font-family:sanserif"
     id="text22">-0.02</text>
  <line
     x1="283.46"
     y1="454.91"
     x2="283.46"
     y2="449.24"
     style="stroke:black;stroke-width:1.42;stroke-linecap:round;fill:none"
     id="line24" />
  <text
     x="283.46"
     y="469.08"
     style="font-size:10;text-anchor:middle;fill:black;stroke:none;font-weight:normal;font-family:sanserif"
     id="text26">0</text>
  <line
     x1="342.89"
     y1="454.91"
     x2="342.89"
     y2="449.24"
     style="stroke:black;stroke-width:1.42;stroke-linecap:round;fill:none"
     id="line28" />
  <text
     x="342.89"
     y="469.08"
     style="font-size:10;text-anchor:middle;fill:black;stroke:none;font-weight:normal;font-family:sanserif"
     id="text30">0.02</text>
  <line
     x1="402.32"
     y1="454.91"
     x2="402.32"
     y2="449.24"
     style="stroke:black;stroke-width:1.42;stroke-linecap:round;fill:none"
     id="line32" />
  <text
     x="402.32"
     y="469.08"
     style="font-size:10;text-anchor:middle;fill:black;stroke:none;font-weight:normal;font-family:sanserif"
     id="text34">0.04</text>
  <line
     x1="105.18"
     y1="425.20"
     x2="105.18"
     y2="98.35"
     style="stroke:black;stroke-width:1.42;stroke-linecap:round;fill:none"
     id="line36" />
  <text
     x="59.951622"
     y="264.72845"
     style="font-size:10px;font-weight:normal;text-anchor:end;fill:#000000;stroke:none;font-family:sanserif"
     id="text38">y</text>
  <line
     x1="105.18"
     y1="425.20"
     x2="110.85"
     y2="425.20"
     style="stroke:black;stroke-width:1.42;stroke-linecap:round;fill:none"
     id="line40" />
  <text
     x="96.68"
     y="425.20"
     style="font-size:10;text-anchor:end;fill:black;stroke:none;font-weight:normal;font-family:sanserif"
     id="text42">0</text>
  <line
     x1="105.18"
     y1="365.77"
     x2="110.85"
     y2="365.77"
     style="stroke:black;stroke-width:1.42;stroke-linecap:round;fill:none"
     id="line44" />
  <text
     x="96.68"
     y="365.77"
     style="font-size:10;text-anchor:end;fill:black;stroke:none;font-weight:normal;font-family:sanserif"
     id="text46">0.02</text>
  <line
     x1="105.18"
     y1="306.34"
     x2="110.85"
     y2="306.34"
     style="stroke:black;stroke-width:1.42;stroke-linecap:round;fill:none"
     id="line48" />
  <text
     x="96.68"
     y="306.34"
     style="font-size:10;text-anchor:end;fill:black;stroke:none;font-weight:normal;font-family:sanserif"
     id="text50">0.04</text>
  <line
     x1="105.18"
     y1="246.92"
     x2="110.85"
     y2="246.92"
     style="stroke:black;stroke-width:1.42;stroke-linecap:round;fill:none"
     id="line52" />
  <text
     x="96.68"
     y="246.92"
     style="font-size:10;text-anchor:end;fill:black;stroke:none;font-weight:normal;font-family:sanserif"
     id="text54">0.06</text>
  <line
     x1="105.18"
     y1="187.49"
     x2="110.85"
     y2="187.49"
     style="stroke:black;stroke-width:1.42;stroke-linecap:round;fill:none"
     id="line56" />
  <text
     x="96.68"
     y="187.49"
     style="font-size:10;text-anchor:end;fill:black;stroke:none;font-weight:normal;font-family:sanserif"
     id="text58">0.08</text>
  <line
     x1="105.18"
     y1="128.06"
     x2="110.85"
     y2="128.06"
     style="stroke:black;stroke-width:1.42;stroke-linecap:round;fill:none"
     id="line60" />
  <text
     x="96.68"
     y="128.06"
     style="font-size:10;text-anchor:end;fill:black;stroke:none;font-weight:normal;font-family:sanserif"
     id="text62">0.1</text>
  <!-- There are 11 nodes
 -->
  <circle
     cx="283.46"
     cy="425.20"
     r="2.83"
     style="fill:black"
     id="circle64" />
  <text
     x="283.46"
     y="420.94"
     style="font-size:10;text-anchor:end;fill:black;stroke:none;font-weight:normal;font-family:sanserif"
     id="text66">a</text>
  <circle
     cx="188.98"
     cy="425.20"
     r="2.83"
     style="fill:black"
     id="circle68" />
  <text
     x="186.69421"
     y="421.39716"
     style="font-size:10px;font-weight:normal;text-anchor:end;fill:#000000;stroke:none;font-family:sanserif"
     id="text70">b</text>
  <circle
     cx="216.65"
     cy="358.38"
     r="2.83"
     style="fill:black"
     id="circle72" />
  <text
     x="216.65"
     y="354.13"
     style="font-size:10;text-anchor:end;fill:black;stroke:none;font-weight:normal;font-family:sanserif"
     id="text74">c</text>
  <circle
     cx="283.46"
     cy="330.71"
     r="2.83"
     style="fill:black"
     id="circle76" />
  <text
     x="283.46"
     y="326.46"
     style="font-size:10;text-anchor:end;fill:black;stroke:none;font-weight:normal;font-family:sanserif"
     id="text78">d</text>
  <circle
     cx="343.18"
     cy="351.97"
     r="2.83"
     style="fill:black"
     id="circle80" />
  <text
     x="345.49396"
     y="346.35477"
     style="font-size:10px;font-weight:normal;text-anchor:end;fill:#000000;stroke:none;font-family:sanserif"
     id="text82">e</text>
  <circle
     cx="415.75"
     cy="283.46"
     r="2.83"
     style="fill:black"
     id="circle84" />
  <text
     x="410.86084"
     y="282.73019"
     style="font-size:10px;font-weight:normal;text-anchor:end;fill:#000000;stroke:none;font-family:sanserif"
     id="text86">f</text>
  <circle
     cx="425.20"
     cy="188.98"
     r="2.83"
     style="fill:black"
     id="circle88" />
  <text
     x="431.84927"
     y="182.17763"
     style="font-size:10px;font-weight:normal;text-anchor:end;fill:#000000;stroke:none;font-family:sanserif"
     id="text90">g</text>
  <circle
     cx="425.20"
     cy="94.49"
     r="2.83"
     style="fill:black"
     id="circle92" />
  <text
     x="425.20"
     y="90.24"
     style="font-size:10;text-anchor:end;fill:black;stroke:none;font-weight:normal;font-family:sanserif"
     id="text94">h</text>
  <circle
     cx="141.73"
     cy="425.20"
     r="2.83"
     style="fill:black"
     id="circle96" />
  <text
     x="139.49501"
     y="420.83841"
     style="font-size:10px;font-weight:normal;text-anchor:end;fill:#000000;stroke:none;font-family:sanserif"
     id="text98">i</text>
  <circle
     cx="141.73"
     cy="283.46"
     r="2.83"
     style="fill:black"
     id="circle100" />
  <text
     x="138.03191"
     y="277.60748"
     style="font-size:10px;font-weight:normal;text-anchor:end;fill:#000000;stroke:none;font-family:sanserif"
     id="text102">j</text>
  <circle
     cx="188.98"
     cy="160.63"
     r="2.83"
     style="fill:black"
     id="circle104" />
  <text
     x="188.98"
     y="156.38"
     style="font-size:10;text-anchor:end;fill:black;stroke:none;font-weight:normal;font-family:sanserif"
     id="text106">k</text>
  <!-- There are 1 blocks
 -->
  <!-- Render block 0
 -->
  <text
     x="281.12"
     y="260.53"
     style="font-size:10;text-anchor:middle;fill:black;stroke:none;font-weight:normal;font-family:sanserif"
     id="text108">BLOCK-0</text>
  <text
     x="116.0018"
     y="-440.89023"
     transform="matrix(-0.25206936,0.96770917,-0.96770917,-0.25206936,0,0)"
     style="font-size:10px;font-weight:normal;text-anchor:middle;fill:#000000;stroke:none;font-family:sanserif"
     id="text110">EXTRAPOLATE_OUT</text>
  <path
     d="M 425.20,94.49 L 425.19,99.21 L 425.16,103.94 L 425.12,108.66 L 425.05,113.38 L 424.97,118.10 L 424.86,122.81 L 424.73,127.52 L 424.57,132.22 L 424.38,136.92 L 424.16,141.61 L 423.91,146.30 L 423.63,150.97 L 423.32,155.64 L 422.97,160.30 L 422.59,164.95 L 422.16,169.59 L 421.70,174.21 L 421.20,178.83 L 420.65,183.43 L 420.06,188.01 L 419.42,192.59 L 418.74,197.14 L 418.01,201.69 L 417.23,206.21 L 416.39,210.72 L 415.51,215.21 L 414.57,219.68 L 413.57,224.13 L 412.52,228.56 L 411.40,232.97 L 410.23,237.36 L 408.99,241.73 L 407.69,246.07 L 406.33,250.39 L 404.90,254.69 L 403.40,258.96 L 401.83,263.20 L 400.19,267.42 L 398.48,271.61 L 396.70,275.77 L 394.84,279.90 L 392.90,284.00 L 390.88,288.08 L 388.79,292.12 L 386.61,296.13 L 384.35,300.10 L 382.01,304.05 L 379.58,307.96 L 377.06,311.83 L 374.45,315.67 L 371.76,319.48 L 368.97,323.25 L 366.09,326.98 L 363.11,330.67 L 360.04,334.32 L 356.87,337.93 L 353.60,341.51 L 350.23,345.04 L 346.76,348.53 L 343.18,351.97"
     style="stroke:black;stroke-width:0.71;stroke-linecap:round;fill:none"
     id="path112" />
  <text
     x="76.535004"
     y="424.39478"
     transform="matrix(0.90333529,-0.42893513,0.42893513,0.90333529,0,0)"
     style="font-size:10px;font-weight:normal;text-anchor:middle;fill:#000000;stroke:none;font-family:sanserif"
     id="text114">FIXED_T</text>
  <path
     d="M 188.98,425.20 L 189.04,421.65 L 189.24,418.10 L 189.58,414.57 L 190.04,411.05 L 190.64,407.55 L 191.37,404.07 L 192.23,400.62 L 193.22,397.21 L 194.33,393.84 L 195.57,390.52 L 196.94,387.24 L 198.42,384.01 L 200.03,380.85 L 201.76,377.74 L 203.60,374.71 L 205.55,371.74 L 207.61,368.85 L 209.79,366.04 L 212.06,363.31 L 214.44,360.68 L 216.91,358.13 L 219.48,355.67 L 222.13,353.32 L 224.88,351.07 L 227.70,348.92 L 230.61,346.87 L 233.59,344.94 L 236.64,343.13 L 239.76,341.43 L 242.94,339.84 L 246.17,338.38 L 249.46,337.04 L 252.80,335.82 L 256.18,334.74 L 259.59,333.77 L 263.05,332.94 L 266.53,332.24 L 270.03,331.67 L 273.56,331.23 L 277.09,330.92 L 280.64,330.75 L 284.19,330.71 L 287.74,330.81 L 291.28,331.03 L 294.82,331.39 L 298.33,331.89 L 301.83,332.51 L 305.30,333.27 L 308.74,334.15 L 312.14,335.16 L 315.50,336.31 L 318.82,337.57 L 322.09,338.96 L 325.30,340.47 L 328.45,342.11 L 331.54,343.86 L 334.57,345.72 L 337.52,347.70 L 340.39,349.78 L 343.18,351.97"
     style="stroke:black;stroke-width:0.71;stroke-linecap:round;fill:none"
     id="path116" />
  <text
     x="165.49287"
     y="438.81976"
     style="font-size:10px;font-weight:normal;text-anchor:middle;fill:#000000;stroke:none;font-family:sanserif"
     id="text118">SLIP_WALL</text>
  <path
     d="M 141.73,425.20 L 142.52,425.20 L 143.31,425.20 L 144.09,425.20 L 144.88,425.20 L 145.67,425.20 L 146.46,425.20 L 147.24,425.20 L 148.03,425.20 L 148.82,425.20 L 149.61,425.20 L 150.39,425.20 L 151.18,425.20 L 151.97,425.20 L 152.76,425.20 L 153.54,425.20 L 154.33,425.20 L 155.12,425.20 L 155.91,425.20 L 156.69,425.20 L 157.48,425.20 L 158.27,425.20 L 159.06,425.20 L 159.84,425.20 L 160.63,425.20 L 161.42,425.20 L 162.20,425.20 L 162.99,425.20 L 163.78,425.20 L 164.57,425.20 L 165.35,425.20 L 166.14,425.20 L 166.93,425.20 L 167.72,425.20 L 168.50,425.20 L 169.29,425.20 L 170.08,425.20 L 170.87,425.20 L 171.65,425.20 L 172.44,425.20 L 173.23,425.20 L 174.02,425.20 L 174.80,425.20 L 175.59,425.20 L 176.38,425.20 L 177.17,425.20 L 177.95,425.20 L 178.74,425.20 L 179.53,425.20 L 180.31,425.20 L 181.10,425.20 L 181.89,425.20 L 182.68,425.20 L 183.46,425.20 L 184.25,425.20 L 185.04,425.20 L 185.83,425.20 L 186.61,425.20 L 187.40,425.20 L 188.19,425.20 L 188.98,425.20"
     style="stroke:black;stroke-width:0.71;stroke-linecap:round;fill:none"
     id="path120" />
  <text
     x="-62.676659"
     y="288.84381"
     transform="matrix(0.5897603,-0.80757835,0.80757835,0.5897603,0,0)"
     style="font-size:10px;font-weight:normal;text-anchor:middle;fill:#000000;stroke:none;font-family:sanserif"
     id="text122">SUP_IN</text>
  <path
     d="M 141.73,425.20 L 141.77,418.13 L 141.90,411.09 L 142.10,404.08 L 142.40,397.11 L 142.80,390.18 L 143.29,383.28 L 143.89,376.42 L 144.59,369.60 L 145.40,362.82 L 146.33,356.08 L 147.37,349.38 L 148.54,342.73 L 149.83,336.12 L 151.25,329.55 L 152.81,323.03 L 154.50,316.56 L 156.33,310.14 L 158.31,303.76 L 160.45,297.44 L 162.73,291.16 L 165.17,284.94 L 167.77,278.78 L 170.54,272.66 L 173.48,266.61 L 176.59,260.61 L 179.88,254.67 L 183.35,248.78 L 187.00,242.96 L 190.85,237.20 L 194.88,231.50 L 199.11,225.86 L 203.55,220.28 L 208.19,214.78 L 213.03,209.33 L 218.09,203.96 L 223.37,198.65 L 228.87,193.41 L 234.59,188.25 L 240.54,183.15 L 246.72,178.13 L 253.14,173.18 L 259.80,168.30 L 266.70,163.50 L 273.85,158.78 L 281.25,154.13 L 288.91,149.57 L 296.83,145.08 L 305.01,140.67 L 313.46,136.35 L 322.18,132.11 L 331.18,127.95 L 340.45,123.88 L 350.01,119.89 L 359.86,115.99 L 370.00,112.18 L 380.43,108.46 L 391.16,104.83 L 402.20,101.29 L 413.54,97.84 L 425.20,94.49"
     style="stroke:black;stroke-width:0.71;stroke-linecap:round;fill:none"
     id="path124" />
  <!-- end of drawing -->
</svg>
