<?xml version="1.0" encoding="UTF-8" standalone="no"?>
<svg
   xmlns:dc="http://purl.org/dc/elements/1.1/"
   xmlns:cc="http://creativecommons.org/ns#"
   xmlns:rdf="http://www.w3.org/1999/02/22-rdf-syntax-ns#"
   xmlns:svg="http://www.w3.org/2000/svg"
   xmlns="http://www.w3.org/2000/svg"
   xmlns:sodipodi="http://sodipodi.sourceforge.net/DTD/sodipodi-0.dtd"
   xmlns:inkscape="http://www.inkscape.org/namespaces/inkscape"
   width="566.93"
   height="566.93"
   version="1.0"
   id="svg2"
   inkscape:version="0.48.3.1 r9886"
   sodipodi:docname="cyl-flare.svg">
  <metadata
     id="metadata364">
    <rdf:RDF>
      <cc:Work
         rdf:about="">
        <dc:format>image/svg+xml</dc:format>
        <dc:type
           rdf:resource="http://purl.org/dc/dcmitype/StillImage" />
        <dc:title>Hollow cylinder with extended flare.</dc:title>
      </cc:Work>
    </rdf:RDF>
  </metadata>
  <defs
     id="defs362" />
  <sodipodi:namedview
     pagecolor="#ffffff"
     bordercolor="#666666"
     borderopacity="1"
     objecttolerance="10"
     gridtolerance="10"
     guidetolerance="10"
     inkscape:pageopacity="0"
     inkscape:pageshadow="2"
     inkscape:window-width="1326"
     inkscape:window-height="685"
     id="namedview360"
     showgrid="false"
     inkscape:zoom="0.80155249"
     inkscape:cx="403.92384"
     inkscape:cy="404.81092"
     inkscape:window-x="0"
     inkscape:window-y="0"
     inkscape:window-maximized="0"
     inkscape:current-layer="svg2" />
  <title
     id="title4">Hollow cylinder with extended flare.</title>
  <desc
     id="desc6">SVG file written by e3prep.py</desc>
  <!-- drawing begins here -->
  <line
     x1="141.73"
     y1="447.87"
     x2="708.66"
     y2="447.87"
     style="stroke:black;stroke-width:1.42;stroke-linecap:round;fill:none"
     id="line8" />
  <text
     x="425.20"
     y="473.39"
     style="font-size:10;text-anchor:start;fill:black;stroke:none;font-weight:normal;font-family:sanserif"
     id="text10">x</text>
  <line
     x1="141.73"
     y1="447.87"
     x2="141.73"
     y2="442.20"
     style="stroke:black;stroke-width:1.42;stroke-linecap:round;fill:none"
     id="line12" />
  <text
     x="141.73"
     y="462.05"
     style="font-size:10;text-anchor:middle;fill:black;stroke:none;font-weight:normal;font-family:sanserif"
     id="text14">0</text>
  <line
     x1="255.12"
     y1="447.87"
     x2="255.12"
     y2="442.20"
     style="stroke:black;stroke-width:1.42;stroke-linecap:round;fill:none"
     id="line16" />
  <text
     x="255.12"
     y="462.05"
     style="font-size:10;text-anchor:middle;fill:black;stroke:none;font-weight:normal;font-family:sanserif"
     id="text18">0.05</text>
  <line
     x1="368.50"
     y1="447.87"
     x2="368.50"
     y2="442.20"
     style="stroke:black;stroke-width:1.42;stroke-linecap:round;fill:none"
     id="line20" />
  <text
     x="368.50"
     y="462.05"
     style="font-size:10;text-anchor:middle;fill:black;stroke:none;font-weight:normal;font-family:sanserif"
     id="text22">0.1</text>
  <line
     x1="481.89"
     y1="447.87"
     x2="481.89"
     y2="442.20"
     style="stroke:black;stroke-width:1.42;stroke-linecap:round;fill:none"
     id="line24" />
  <text
     x="481.89"
     y="462.05"
     style="font-size:10;text-anchor:middle;fill:black;stroke:none;font-weight:normal;font-family:sanserif"
     id="text26">0.15</text>
  <line
     x1="595.28"
     y1="447.87"
     x2="595.28"
     y2="442.20"
     style="stroke:black;stroke-width:1.42;stroke-linecap:round;fill:none"
     id="line28" />
  <text
     x="595.28"
     y="462.05"
     style="font-size:10;text-anchor:middle;fill:black;stroke:none;font-weight:normal;font-family:sanserif"
     id="text30">0.2</text>
  <line
     x1="708.66"
     y1="447.87"
     x2="708.66"
     y2="442.20"
     style="stroke:black;stroke-width:1.42;stroke-linecap:round;fill:none"
     id="line32" />
  <text
     x="708.66"
     y="462.05"
     style="font-size:10;text-anchor:middle;fill:black;stroke:none;font-weight:normal;font-family:sanserif"
     id="text34">0.25</text>
  <line
     x1="119.06"
     y1="425.20"
     x2="119.06"
     y2="-141.73"
     style="stroke:black;stroke-width:1.42;stroke-linecap:round;fill:none"
     id="line36" />
  <text
     x="78.913895"
     y="250.26936"
     style="font-size:10px;font-weight:normal;text-anchor:end;fill:#000000;stroke:none;font-family:sanserif"
     id="text38">y</text>
  <line
     x1="119.06"
     y1="425.20"
     x2="124.72"
     y2="425.20"
     style="stroke:black;stroke-width:1.42;stroke-linecap:round;fill:none"
     id="line40" />
  <text
     x="110.55"
     y="425.20"
     style="font-size:10;text-anchor:end;fill:black;stroke:none;font-weight:normal;font-family:sanserif"
     id="text42">0</text>
  <line
     x1="119.06"
     y1="311.81"
     x2="124.72"
     y2="311.81"
     style="stroke:black;stroke-width:1.42;stroke-linecap:round;fill:none"
     id="line44" />
  <text
     x="110.55"
     y="311.81"
     style="font-size:10;text-anchor:end;fill:black;stroke:none;font-weight:normal;font-family:sanserif"
     id="text46">0.05</text>
  <line
     x1="119.06"
     y1="198.43"
     x2="124.72"
     y2="198.43"
     style="stroke:black;stroke-width:1.42;stroke-linecap:round;fill:none"
     id="line48" />
  <text
     x="110.55"
     y="198.43"
     style="font-size:10;text-anchor:end;fill:black;stroke:none;font-weight:normal;font-family:sanserif"
     id="text50">0.1</text>
  <line
     x1="119.06"
     y1="85.04"
     x2="124.72"
     y2="85.04"
     style="stroke:black;stroke-width:1.42;stroke-linecap:round;fill:none"
     id="line52" />
  <text
     x="110.55"
     y="85.04"
     style="font-size:10;text-anchor:end;fill:black;stroke:none;font-weight:normal;font-family:sanserif"
     id="text54">0.15</text>
  <line
     x1="119.06"
     y1="-28.35"
     x2="124.72"
     y2="-28.35"
     style="stroke:black;stroke-width:1.42;stroke-linecap:round;fill:none"
     id="line56" />
  <text
     x="110.55"
     y="-28.35"
     style="font-size:10;text-anchor:end;fill:black;stroke:none;font-weight:normal;font-family:sanserif"
     id="text58">0.2</text>
  <line
     x1="119.06"
     y1="-141.73"
     x2="124.72"
     y2="-141.73"
     style="stroke:black;stroke-width:1.42;stroke-linecap:round;fill:none"
     id="line60" />
  <text
     x="110.55"
     y="-141.73"
     style="font-size:10;text-anchor:end;fill:black;stroke:none;font-weight:normal;font-family:sanserif"
     id="text62">0.25</text>
  <!-- There are 0 nodes
 -->
  <!-- There are 24 blocks
 -->
  <!-- Render block 0
 -->
  <text
     x="151.09717"
     y="361.89636"
     style="font-size:10px;font-weight:normal;text-anchor:middle;fill:#000000;stroke:none;font-family:sanserif"
     id="text64">cyl-0-0</text>
  <path
     d="M 141.73,348.16 L 142.23,348.14 L 142.74,348.12 L 143.25,348.09 L 143.77,348.07 L 144.29,348.05 L 144.82,348.03 L 145.35,348.00 L 145.89,347.98 L 146.44,347.95 L 146.98,347.93 L 147.54,347.91 L 148.10,347.88 L 148.66,347.86 L 149.23,347.83 L 149.81,347.81 L 150.39,347.78 L 150.98,347.75 L 151.57,347.73 L 152.17,347.70 L 152.77,347.68 L 153.38,347.65 L 154.00,347.62 L 154.62,347.59 L 155.25,347.57 L 155.88,347.54 L 156.52,347.51 L 157.17,347.48 L 157.82,347.45 L 158.48,347.42 L 159.14,347.40 L 159.81,347.37 L 160.49,347.34 L 161.17,347.31"
     style="stroke:black;stroke-width:0.71;stroke-linecap:round;fill:none;stroke-dasharray: 5.67 5.67"
     id="path66" />
  <path
     d="M 161.46,351.50 L 161.45,351.44 L 161.45,351.39 L 161.44,351.33 L 161.44,351.27 L 161.44,351.21 L 161.43,351.15 L 161.43,351.09 L 161.42,351.02 L 161.42,350.95 L 161.41,350.88 L 161.41,350.81 L 161.40,350.73 L 161.40,350.65 L 161.39,350.57 L 161.39,350.48 L 161.38,350.40 L 161.38,350.31 L 161.37,350.22 L 161.36,350.12 L 161.36,350.02 L 161.35,349.92 L 161.34,349.81 L 161.33,349.71 L 161.33,349.59 L 161.32,349.48 L 161.31,349.36 L 161.30,349.24 L 161.29,349.11 L 161.29,348.99 L 161.28,348.85 L 161.27,348.72 L 161.26,348.58 L 161.25,348.43 L 161.24,348.28 L 161.23,348.13 L 161.22,347.97 L 161.21,347.81 L 161.19,347.65 L 161.18,347.48 L 161.17,347.31"
     style="stroke:black;stroke-width:0.71;stroke-linecap:round;fill:none;stroke-dasharray: 5.67 5.67"
     id="path68" />
  <path
     d="M 141.73,351.50 L 142.24,351.50 L 142.76,351.50 L 143.28,351.50 L 143.80,351.50 L 144.33,351.50 L 144.87,351.50 L 145.41,351.50 L 145.95,351.50 L 146.50,351.50 L 147.06,351.50 L 147.62,351.50 L 148.19,351.50 L 148.76,351.50 L 149.34,351.50 L 149.93,351.50 L 150.52,351.50 L 151.11,351.50 L 151.72,351.50 L 152.32,351.50 L 152.94,351.50 L 153.56,351.50 L 154.18,351.50 L 154.81,351.50 L 155.45,351.50 L 156.09,351.50 L 156.74,351.50 L 157.40,351.50 L 158.06,351.50 L 158.72,351.50 L 159.40,351.50 L 160.08,351.50 L 160.76,351.50 L 161.46,351.50"
     style="stroke:black;stroke-width:0.71;stroke-linecap:round;fill:none"
     id="path72" />
  <text
     x="-346.15335"
     y="128.94824"
     transform="matrix(0,-1,1,0,0,0)"
     style="font-size:10px;font-weight:normal;text-anchor:middle;fill:#000000;stroke:none;font-family:sanserif"
     id="text74">SUP_IN</text>
  <path
     d="M 141.73,351.50 L 141.73,351.45 L 141.73,351.41 L 141.73,351.37 L 141.73,351.32 L 141.73,351.27 L 141.73,351.22 L 141.73,351.17 L 141.73,351.12 L 141.73,351.06 L 141.73,351.01 L 141.73,350.95 L 141.73,350.89 L 141.73,350.82 L 141.73,350.76 L 141.73,350.69 L 141.73,350.62 L 141.73,350.55 L 141.73,350.48 L 141.73,350.40 L 141.73,350.32 L 141.73,350.24 L 141.73,350.16 L 141.73,350.07 L 141.73,349.98 L 141.73,349.89 L 141.73,349.80 L 141.73,349.70 L 141.73,349.60 L 141.73,349.50 L 141.73,349.39 L 141.73,349.28 L 141.73,349.17 L 141.73,349.06 L 141.73,348.94 L 141.73,348.82 L 141.73,348.69 L 141.73,348.57 L 141.73,348.43 L 141.73,348.30 L 141.73,348.16"
     style="stroke:black;stroke-width:0.71;stroke-linecap:round;fill:none"
     id="path76" />
  <!-- Render block 1
 -->
  <text
     x="150.47043"
     y="335.33417"
     style="font-size:10px;font-weight:normal;text-anchor:middle;fill:#000000;stroke:none;font-family:sanserif"
     id="text78">cyl-0-1</text>
  <path
     d="M 141.73,340.16 L 142.22,340.08 L 142.71,340.01 L 143.20,339.93 L 143.70,339.85 L 144.20,339.77 L 144.71,339.70 L 145.23,339.62 L 145.75,339.53 L 146.27,339.45 L 146.80,339.37 L 147.33,339.29 L 147.87,339.20 L 148.42,339.12 L 148.97,339.03 L 149.53,338.95 L 150.09,338.86 L 150.65,338.77 L 151.23,338.68 L 151.80,338.60 L 152.39,338.50 L 152.97,338.41 L 153.57,338.32 L 154.17,338.23 L 154.77,338.13 L 155.39,338.04 L 156.00,337.94 L 156.63,337.85 L 157.25,337.75 L 157.89,337.65 L 158.53,337.55 L 159.18,337.45 L 159.83,337.35 L 160.49,337.25"
     style="stroke:black;stroke-width:0.71;stroke-linecap:round;fill:none"
     id="path82" />
  <path
     d="M 161.17,347.31 L 161.16,347.13 L 161.15,346.95 L 161.13,346.76 L 161.12,346.57 L 161.11,346.38 L 161.09,346.18 L 161.08,345.97 L 161.07,345.76 L 161.05,345.55 L 161.04,345.34 L 161.02,345.11 L 161.01,344.89 L 160.99,344.66 L 160.97,344.43 L 160.96,344.19 L 160.94,343.95 L 160.93,343.70 L 160.91,343.45 L 160.89,343.20 L 160.87,342.94 L 160.86,342.68 L 160.84,342.42 L 160.82,342.15 L 160.80,341.88 L 160.78,341.60 L 160.76,341.33 L 160.74,341.05 L 160.73,340.77 L 160.71,340.48 L 160.69,340.20 L 160.67,339.91 L 160.65,339.62 L 160.63,339.32 L 160.61,339.03 L 160.59,338.73 L 160.57,338.44 L 160.55,338.14 L 160.53,337.84 L 160.51,337.55 L 160.49,337.25"
     style="stroke:black;stroke-width:0.71;stroke-linecap:round;fill:none;stroke-dasharray: 5.67 5.67"
     id="path84" />
  <path
     d="M 141.73,348.16 L 142.23,348.14 L 142.74,348.12 L 143.25,348.09 L 143.77,348.07 L 144.29,348.05 L 144.82,348.03 L 145.35,348.00 L 145.89,347.98 L 146.44,347.95 L 146.98,347.93 L 147.54,347.91 L 148.10,347.88 L 148.66,347.86 L 149.23,347.83 L 149.81,347.81 L 150.39,347.78 L 150.98,347.75 L 151.57,347.73 L 152.17,347.70 L 152.77,347.68 L 153.38,347.65 L 154.00,347.62 L 154.62,347.59 L 155.25,347.57 L 155.88,347.54 L 156.52,347.51 L 157.17,347.48 L 157.82,347.45 L 158.48,347.42 L 159.14,347.40 L 159.81,347.37 L 160.49,347.34 L 161.17,347.31"
     style="stroke:black;stroke-width:0.71;stroke-linecap:round;fill:none;stroke-dasharray: 5.67 5.67"
     id="path86" />
  <path
     d="M 141.73,348.16 L 141.73,348.02 L 141.73,347.88 L 141.73,347.73 L 141.73,347.58 L 141.73,347.42 L 141.73,347.26 L 141.73,347.10 L 141.73,346.93 L 141.73,346.77 L 141.73,346.59 L 141.73,346.42 L 141.73,346.24 L 141.73,346.06 L 141.73,345.87 L 141.73,345.68 L 141.73,345.49 L 141.73,345.29 L 141.73,345.09 L 141.73,344.89 L 141.73,344.69 L 141.73,344.48 L 141.73,344.27 L 141.73,344.06 L 141.73,343.84 L 141.73,343.62 L 141.73,343.40 L 141.73,343.18 L 141.73,342.96 L 141.73,342.73 L 141.73,342.50 L 141.73,342.27 L 141.73,342.04 L 141.73,341.81 L 141.73,341.58 L 141.73,341.34 L 141.73,341.10 L 141.73,340.87 L 141.73,340.63 L 141.73,340.39 L 141.73,340.16"
     style="stroke:black;stroke-width:0.71;stroke-linecap:round;fill:none"
     id="path90" />
  <!-- Render block 2
 -->
  <text
     x="174.16077"
     y="372.39838"
     style="font-size:10px;font-weight:normal;text-anchor:middle;fill:#000000;stroke:none;font-family:sanserif"
     id="text92">cyl-1-0</text>
  <path
     d="M 161.17,347.31 L 161.86,347.28 L 162.55,347.25 L 163.26,347.21 L 163.96,347.18 L 164.68,347.15 L 165.40,347.12 L 166.12,347.09 L 166.86,347.06 L 167.60,347.02 L 168.35,346.99 L 169.10,346.96 L 169.86,346.92 L 170.62,346.89 L 171.40,346.86 L 172.18,346.82 L 172.97,346.79 L 173.76,346.75 L 174.56,346.72 L 175.37,346.68 L 176.18,346.65 L 177.00,346.61 L 177.83,346.57 L 178.67,346.54 L 179.51,346.50 L 180.36,346.46 L 181.21,346.42 L 182.08,346.39 L 182.95,346.35 L 183.82,346.31 L 184.71,346.27 L 185.60,346.23 L 186.50,346.19 L 187.41,346.15"
     style="stroke:black;stroke-width:0.71;stroke-linecap:round;fill:none;stroke-dasharray: 5.67 5.67"
     id="path94" />
  <path
     d="M 188.08,351.50 L 188.07,351.43 L 188.06,351.36 L 188.05,351.29 L 188.04,351.21 L 188.03,351.14 L 188.02,351.06 L 188.01,350.97 L 188.00,350.89 L 187.99,350.80 L 187.98,350.71 L 187.97,350.62 L 187.95,350.52 L 187.94,350.42 L 187.93,350.31 L 187.92,350.21 L 187.90,350.09 L 187.89,349.98 L 187.87,349.86 L 187.86,349.74 L 187.84,349.61 L 187.82,349.49 L 187.81,349.35 L 187.79,349.21 L 187.77,349.07 L 187.75,348.92 L 187.74,348.77 L 187.72,348.62 L 187.70,348.46 L 187.68,348.29 L 187.65,348.12 L 187.63,347.95 L 187.61,347.77 L 187.59,347.59 L 187.56,347.40 L 187.54,347.20 L 187.51,347.00 L 187.49,346.80 L 187.46,346.59 L 187.43,346.37 L 187.41,346.15"
     style="stroke:black;stroke-width:0.71;stroke-linecap:round;fill:none;stroke-dasharray: 5.67 5.67"
     id="path96" />
  <path
     d="M 161.46,351.50 L 162.15,351.50 L 162.86,351.50 L 163.57,351.50 L 164.29,351.50 L 165.01,351.50 L 165.75,351.50 L 166.48,351.50 L 167.23,351.50 L 167.98,351.50 L 168.74,351.50 L 169.50,351.50 L 170.27,351.50 L 171.05,351.50 L 171.83,351.50 L 172.62,351.50 L 173.42,351.50 L 174.23,351.50 L 175.04,351.50 L 175.86,351.50 L 176.69,351.50 L 177.52,351.50 L 178.36,351.50 L 179.21,351.50 L 180.06,351.50 L 180.92,351.50 L 181.79,351.50 L 182.67,351.50 L 183.55,351.50 L 184.44,351.50 L 185.34,351.50 L 186.24,351.50 L 187.16,351.50 L 188.08,351.50"
     style="stroke:black;stroke-width:0.71;stroke-linecap:round;fill:none"
     id="path100" />
  <path
     d="M 161.46,351.50 L 161.45,351.44 L 161.45,351.39 L 161.44,351.33 L 161.44,351.27 L 161.44,351.21 L 161.43,351.15 L 161.43,351.09 L 161.42,351.02 L 161.42,350.95 L 161.41,350.88 L 161.41,350.81 L 161.40,350.73 L 161.40,350.65 L 161.39,350.57 L 161.39,350.48 L 161.38,350.40 L 161.38,350.31 L 161.37,350.22 L 161.36,350.12 L 161.36,350.02 L 161.35,349.92 L 161.34,349.81 L 161.33,349.71 L 161.33,349.59 L 161.32,349.48 L 161.31,349.36 L 161.30,349.24 L 161.29,349.11 L 161.29,348.99 L 161.28,348.85 L 161.27,348.72 L 161.26,348.58 L 161.25,348.43 L 161.24,348.28 L 161.23,348.13 L 161.22,347.97 L 161.21,347.81 L 161.19,347.65 L 161.18,347.48 L 161.17,347.31"
     style="stroke:black;stroke-width:0.71;stroke-linecap:round;fill:none;stroke-dasharray: 5.67 5.67"
     id="path102" />
  <!-- Render block 3
 -->
  <text
     x="174.57472"
     y="325.30194"
     style="font-size:10px;font-weight:normal;text-anchor:middle;fill:#000000;stroke:none;font-family:sanserif"
     id="text104">cyl-1-1</text>
  <path
     d="M 160.49,337.25 L 161.15,337.15 L 161.82,337.04 L 162.50,336.94 L 163.18,336.83 L 163.87,336.72 L 164.56,336.62 L 165.27,336.51 L 165.97,336.40 L 166.69,336.29 L 167.41,336.17 L 168.13,336.06 L 168.87,335.95 L 169.61,335.83 L 170.35,335.72 L 171.11,335.60 L 171.87,335.48 L 172.63,335.36 L 173.40,335.24 L 174.18,335.12 L 174.97,335.00 L 175.76,334.88 L 176.56,334.76 L 177.36,334.63 L 178.18,334.50 L 179.00,334.38 L 179.82,334.25 L 180.66,334.12 L 181.50,333.99 L 182.34,333.86 L 183.20,333.73 L 184.06,333.59 L 184.92,333.46 L 185.80,333.32"
     style="stroke:black;stroke-width:0.71;stroke-linecap:round;fill:none"
     id="path108" />
  <path
     d="M 187.41,346.15 L 187.38,345.92 L 187.35,345.69 L 187.32,345.46 L 187.29,345.21 L 187.26,344.96 L 187.23,344.71 L 187.19,344.45 L 187.16,344.18 L 187.13,343.91 L 187.09,343.64 L 187.06,343.36 L 187.02,343.07 L 186.98,342.78 L 186.95,342.48 L 186.91,342.17 L 186.87,341.87 L 186.83,341.55 L 186.79,341.23 L 186.75,340.91 L 186.71,340.58 L 186.67,340.25 L 186.62,339.91 L 186.58,339.57 L 186.54,339.23 L 186.49,338.88 L 186.45,338.53 L 186.41,338.17 L 186.36,337.81 L 186.32,337.45 L 186.27,337.08 L 186.22,336.71 L 186.18,336.34 L 186.13,335.97 L 186.08,335.59 L 186.04,335.22 L 185.99,334.84 L 185.94,334.46 L 185.89,334.08 L 185.85,333.70 L 185.80,333.32"
     style="stroke:black;stroke-width:0.71;stroke-linecap:round;fill:none;stroke-dasharray: 5.67 5.67"
     id="path110" />
  <path
     d="M 161.17,347.31 L 161.86,347.28 L 162.55,347.25 L 163.26,347.21 L 163.96,347.18 L 164.68,347.15 L 165.40,347.12 L 166.12,347.09 L 166.86,347.06 L 167.60,347.02 L 168.35,346.99 L 169.10,346.96 L 169.86,346.92 L 170.62,346.89 L 171.40,346.86 L 172.18,346.82 L 172.97,346.79 L 173.76,346.75 L 174.56,346.72 L 175.37,346.68 L 176.18,346.65 L 177.00,346.61 L 177.83,346.57 L 178.67,346.54 L 179.51,346.50 L 180.36,346.46 L 181.21,346.42 L 182.08,346.39 L 182.95,346.35 L 183.82,346.31 L 184.71,346.27 L 185.60,346.23 L 186.50,346.19 L 187.41,346.15"
     style="stroke:black;stroke-width:0.71;stroke-linecap:round;fill:none;stroke-dasharray: 5.67 5.67"
     id="path112" />
  <path
     d="M 161.17,347.31 L 161.16,347.13 L 161.15,346.95 L 161.13,346.76 L 161.12,346.57 L 161.11,346.38 L 161.09,346.18 L 161.08,345.97 L 161.07,345.76 L 161.05,345.55 L 161.04,345.34 L 161.02,345.11 L 161.01,344.89 L 160.99,344.66 L 160.97,344.43 L 160.96,344.19 L 160.94,343.95 L 160.93,343.70 L 160.91,343.45 L 160.89,343.20 L 160.87,342.94 L 160.86,342.68 L 160.84,342.42 L 160.82,342.15 L 160.80,341.88 L 160.78,341.60 L 160.76,341.33 L 160.74,341.05 L 160.73,340.77 L 160.71,340.48 L 160.69,340.20 L 160.67,339.91 L 160.65,339.62 L 160.63,339.32 L 160.61,339.03 L 160.59,338.73 L 160.57,338.44 L 160.55,338.14 L 160.53,337.84 L 160.51,337.55 L 160.49,337.25"
     style="stroke:black;stroke-width:0.71;stroke-linecap:round;fill:none;stroke-dasharray: 5.67 5.67"
     id="path114" />
  <!-- Render block 4
 -->
  <text
     x="203.99718"
     y="362.82968"
     style="font-size:10px;font-weight:normal;text-anchor:middle;fill:#000000;stroke:none;font-family:sanserif"
     id="text116">cyl-2-0</text>
  <path
     d="M 187.41,346.15 L 188.32,346.11 L 189.24,346.07 L 190.17,346.03 L 191.11,345.99 L 192.05,345.95 L 193.00,345.91 L 193.96,345.86 L 194.92,345.82 L 195.89,345.78 L 196.87,345.73 L 197.86,345.69 L 198.86,345.65 L 199.86,345.60 L 200.87,345.56 L 201.89,345.51 L 202.91,345.47 L 203.94,345.42 L 204.98,345.38 L 206.03,345.33 L 207.09,345.29 L 208.15,345.24 L 209.22,345.19 L 210.30,345.14 L 211.38,345.10 L 212.47,345.05 L 213.57,345.00 L 214.68,344.95 L 215.80,344.90 L 216.92,344.85 L 218.05,344.80 L 219.19,344.75 L 220.33,344.70 L 221.49,344.65"
     style="stroke:black;stroke-width:0.71;stroke-linecap:round;fill:none;stroke-dasharray: 5.67 5.67"
     id="path118" />
  <path
     d="M 222.66,351.50 L 222.64,351.41 L 222.63,351.32 L 222.61,351.23 L 222.59,351.13 L 222.58,351.03 L 222.56,350.93 L 222.54,350.83 L 222.52,350.72 L 222.50,350.61 L 222.48,350.49 L 222.46,350.37 L 222.44,350.24 L 222.42,350.11 L 222.40,349.98 L 222.37,349.84 L 222.35,349.70 L 222.32,349.56 L 222.30,349.40 L 222.27,349.25 L 222.24,349.09 L 222.22,348.92 L 222.19,348.75 L 222.16,348.57 L 222.12,348.39 L 222.09,348.20 L 222.06,348.01 L 222.03,347.81 L 221.99,347.61 L 221.95,347.39 L 221.92,347.18 L 221.88,346.95 L 221.84,346.73 L 221.80,346.49 L 221.76,346.25 L 221.72,346.00 L 221.67,345.74 L 221.63,345.48 L 221.58,345.21 L 221.53,344.93 L 221.49,344.65"
     style="stroke:black;stroke-width:0.71;stroke-linecap:round;fill:none;stroke-dasharray: 5.67 5.67"
     id="path120" />
  <path
     d="M 188.08,351.50 L 189.00,351.50 L 189.94,351.50 L 190.88,351.50 L 191.83,351.50 L 192.79,351.50 L 193.75,351.50 L 194.72,351.50 L 195.70,351.50 L 196.69,351.50 L 197.68,351.50 L 198.69,351.50 L 199.69,351.50 L 200.71,351.50 L 201.74,351.50 L 202.77,351.50 L 203.81,351.50 L 204.86,351.50 L 205.91,351.50 L 206.97,351.50 L 208.04,351.50 L 209.12,351.50 L 210.21,351.50 L 211.30,351.50 L 212.40,351.50 L 213.51,351.50 L 214.63,351.50 L 215.75,351.50 L 216.88,351.50 L 218.02,351.50 L 219.17,351.50 L 220.32,351.50 L 221.49,351.50 L 222.66,351.50"
     style="stroke:black;stroke-width:0.71;stroke-linecap:round;fill:none"
     id="path124" />
  <path
     d="M 188.08,351.50 L 188.07,351.43 L 188.06,351.36 L 188.05,351.29 L 188.04,351.21 L 188.03,351.14 L 188.02,351.06 L 188.01,350.97 L 188.00,350.89 L 187.99,350.80 L 187.98,350.71 L 187.97,350.62 L 187.95,350.52 L 187.94,350.42 L 187.93,350.31 L 187.92,350.21 L 187.90,350.09 L 187.89,349.98 L 187.87,349.86 L 187.86,349.74 L 187.84,349.61 L 187.82,349.49 L 187.81,349.35 L 187.79,349.21 L 187.77,349.07 L 187.75,348.92 L 187.74,348.77 L 187.72,348.62 L 187.70,348.46 L 187.68,348.29 L 187.65,348.12 L 187.63,347.95 L 187.61,347.77 L 187.59,347.59 L 187.56,347.40 L 187.54,347.20 L 187.51,347.00 L 187.49,346.80 L 187.46,346.59 L 187.43,346.37 L 187.41,346.15"
     style="stroke:black;stroke-width:0.71;stroke-linecap:round;fill:none;stroke-dasharray: 5.67 5.67"
     id="path126" />
  <!-- Render block 5
 -->
  <text
     x="201.67482"
     y="312.92484"
     style="font-size:10px;font-weight:normal;text-anchor:middle;fill:#000000;stroke:none;font-family:sanserif"
     id="text128">cyl-2-1</text>
  <path
     d="M 185.80,333.32 L 186.68,333.19 L 187.57,333.05 L 188.46,332.91 L 189.37,332.77 L 190.28,332.63 L 191.19,332.49 L 192.12,332.34 L 193.05,332.20 L 193.99,332.05 L 194.93,331.91 L 195.89,331.76 L 196.84,331.61 L 197.81,331.46 L 198.79,331.31 L 199.77,331.16 L 200.76,331.00 L 201.75,330.85 L 202.76,330.69 L 203.77,330.53 L 204.78,330.38 L 205.81,330.22 L 206.84,330.06 L 207.88,329.90 L 208.93,329.73 L 209.98,329.57 L 211.04,329.41 L 212.11,329.24 L 213.19,329.07 L 214.27,328.91 L 215.36,328.74 L 216.46,328.57 L 217.56,328.39 L 218.68,328.22"
     style="stroke:black;stroke-width:0.71;stroke-linecap:round;fill:none"
     id="path132" />
  <path
     d="M 221.49,344.65 L 221.44,344.36 L 221.39,344.06 L 221.33,343.76 L 221.28,343.45 L 221.23,343.13 L 221.17,342.81 L 221.11,342.47 L 221.06,342.13 L 221.00,341.79 L 220.94,341.43 L 220.87,341.07 L 220.81,340.70 L 220.75,340.33 L 220.68,339.95 L 220.62,339.56 L 220.55,339.16 L 220.48,338.76 L 220.41,338.35 L 220.34,337.94 L 220.27,337.52 L 220.19,337.09 L 220.12,336.66 L 220.05,336.23 L 219.97,335.78 L 219.89,335.34 L 219.82,334.89 L 219.74,334.43 L 219.66,333.97 L 219.58,333.50 L 219.50,333.04 L 219.42,332.56 L 219.34,332.09 L 219.26,331.61 L 219.17,331.13 L 219.09,330.65 L 219.01,330.17 L 218.93,329.68 L 218.84,329.20 L 218.76,328.71 L 218.68,328.22"
     style="stroke:black;stroke-width:0.71;stroke-linecap:round;fill:none;stroke-dasharray: 5.67 5.67"
     id="path134" />
  <path
     d="M 187.41,346.15 L 188.32,346.11 L 189.24,346.07 L 190.17,346.03 L 191.11,345.99 L 192.05,345.95 L 193.00,345.91 L 193.96,345.86 L 194.92,345.82 L 195.89,345.78 L 196.87,345.73 L 197.86,345.69 L 198.86,345.65 L 199.86,345.60 L 200.87,345.56 L 201.89,345.51 L 202.91,345.47 L 203.94,345.42 L 204.98,345.38 L 206.03,345.33 L 207.09,345.29 L 208.15,345.24 L 209.22,345.19 L 210.30,345.14 L 211.38,345.10 L 212.47,345.05 L 213.57,345.00 L 214.68,344.95 L 215.80,344.90 L 216.92,344.85 L 218.05,344.80 L 219.19,344.75 L 220.33,344.70 L 221.49,344.65"
     style="stroke:black;stroke-width:0.71;stroke-linecap:round;fill:none;stroke-dasharray: 5.67 5.67"
     id="path136" />
  <path
     d="M 187.41,346.15 L 187.38,345.92 L 187.35,345.69 L 187.32,345.46 L 187.29,345.21 L 187.26,344.96 L 187.23,344.71 L 187.19,344.45 L 187.16,344.18 L 187.13,343.91 L 187.09,343.64 L 187.06,343.36 L 187.02,343.07 L 186.98,342.78 L 186.95,342.48 L 186.91,342.17 L 186.87,341.87 L 186.83,341.55 L 186.79,341.23 L 186.75,340.91 L 186.71,340.58 L 186.67,340.25 L 186.62,339.91 L 186.58,339.57 L 186.54,339.23 L 186.49,338.88 L 186.45,338.53 L 186.41,338.17 L 186.36,337.81 L 186.32,337.45 L 186.27,337.08 L 186.22,336.71 L 186.18,336.34 L 186.13,335.97 L 186.08,335.59 L 186.04,335.22 L 185.99,334.84 L 185.94,334.46 L 185.89,334.08 L 185.85,333.70 L 185.80,333.32"
     style="stroke:black;stroke-width:0.71;stroke-linecap:round;fill:none;stroke-dasharray: 5.67 5.67"
     id="path138" />
  <!-- Render block 6
 -->
  <text
     x="243.27794"
     y="361.48431"
     style="font-size:10px;font-weight:normal;text-anchor:middle;fill:#000000;stroke:none;font-family:sanserif"
     id="text140">cyl-3-0</text>
  <path
     d="M 221.49,344.65 L 222.65,344.60 L 223.81,344.55 L 224.99,344.50 L 226.17,344.45 L 227.36,344.39 L 228.56,344.34 L 229.77,344.29 L 230.98,344.23 L 232.20,344.18 L 233.42,344.13 L 234.66,344.07 L 235.90,344.02 L 237.15,343.96 L 238.41,343.91 L 239.67,343.85 L 240.94,343.80 L 242.22,343.74 L 243.51,343.68 L 244.80,343.63 L 246.10,343.57 L 247.40,343.51 L 248.72,343.45 L 250.04,343.39 L 251.36,343.34 L 252.70,343.28 L 254.04,343.22 L 255.39,343.16 L 256.74,343.10 L 258.10,343.04 L 259.47,342.98 L 260.85,342.92 L 262.23,342.86 L 263.61,342.80"
     style="stroke:black;stroke-width:0.71;stroke-linecap:round;fill:none;stroke-dasharray: 5.67 5.67"
     id="path142" />
  <path
     d="M 265.40,351.50 L 265.38,351.39 L 265.36,351.27 L 265.33,351.16 L 265.31,351.04 L 265.28,350.91 L 265.26,350.78 L 265.23,350.65 L 265.20,350.51 L 265.17,350.36 L 265.14,350.22 L 265.11,350.06 L 265.08,349.90 L 265.04,349.74 L 265.01,349.57 L 264.97,349.40 L 264.93,349.22 L 264.90,349.03 L 264.86,348.84 L 264.82,348.64 L 264.77,348.43 L 264.73,348.22 L 264.69,348.01 L 264.64,347.78 L 264.59,347.55 L 264.54,347.31 L 264.49,347.07 L 264.44,346.81 L 264.39,346.55 L 264.33,346.28 L 264.27,346.01 L 264.22,345.72 L 264.16,345.43 L 264.09,345.13 L 264.03,344.82 L 263.97,344.51 L 263.90,344.18 L 263.83,343.85 L 263.76,343.51 L 263.69,343.16 L 263.61,342.80"
     style="stroke:black;stroke-width:0.71;stroke-linecap:round;fill:none;stroke-dasharray: 5.67 5.67"
     id="path144" />
  <path
     d="M 222.66,351.50 L 223.83,351.50 L 225.02,351.50 L 226.21,351.50 L 227.41,351.50 L 228.62,351.50 L 229.83,351.50 L 231.06,351.50 L 232.29,351.50 L 233.52,351.50 L 234.77,351.50 L 236.02,351.50 L 237.28,351.50 L 238.55,351.50 L 239.83,351.50 L 241.11,351.50 L 242.40,351.50 L 243.69,351.50 L 245.00,351.50 L 246.31,351.50 L 247.63,351.50 L 248.95,351.50 L 250.29,351.50 L 251.63,351.50 L 252.97,351.50 L 254.33,351.50 L 255.69,351.50 L 257.06,351.50 L 258.43,351.50 L 259.81,351.50 L 261.20,351.50 L 262.59,351.50 L 263.99,351.50 L 265.40,351.50"
     style="stroke:black;stroke-width:0.71;stroke-linecap:round;fill:none"
     id="path148" />
  <path
     d="M 222.66,351.50 L 222.64,351.41 L 222.63,351.32 L 222.61,351.23 L 222.59,351.13 L 222.58,351.03 L 222.56,350.93 L 222.54,350.83 L 222.52,350.72 L 222.50,350.61 L 222.48,350.49 L 222.46,350.37 L 222.44,350.24 L 222.42,350.11 L 222.40,349.98 L 222.37,349.84 L 222.35,349.70 L 222.32,349.56 L 222.30,349.40 L 222.27,349.25 L 222.24,349.09 L 222.22,348.92 L 222.19,348.75 L 222.16,348.57 L 222.12,348.39 L 222.09,348.20 L 222.06,348.01 L 222.03,347.81 L 221.99,347.61 L 221.95,347.39 L 221.92,347.18 L 221.88,346.95 L 221.84,346.73 L 221.80,346.49 L 221.76,346.25 L 221.72,346.00 L 221.67,345.74 L 221.63,345.48 L 221.58,345.21 L 221.53,344.93 L 221.49,344.65"
     style="stroke:black;stroke-width:0.71;stroke-linecap:round;fill:none;stroke-dasharray: 5.67 5.67"
     id="path150" />
  <!-- Render block 7
 -->
  <text
     x="237.61945"
     y="319.98343"
     style="font-size:10px;font-weight:normal;text-anchor:middle;fill:#000000;stroke:none;font-family:sanserif"
     id="text152">cyl-3-1</text>
  <path
     d="M 218.68,328.22 L 219.80,328.05 L 220.92,327.87 L 222.06,327.70 L 223.20,327.52 L 224.35,327.34 L 225.50,327.16 L 226.67,326.98 L 227.83,326.80 L 229.01,326.62 L 230.20,326.44 L 231.39,326.25 L 232.59,326.06 L 233.79,325.88 L 235.00,325.69 L 236.22,325.50 L 237.45,325.31 L 238.68,325.12 L 239.92,324.93 L 241.17,324.73 L 242.42,324.54 L 243.68,324.34 L 244.95,324.15 L 246.22,323.95 L 247.50,323.75 L 248.79,323.55 L 250.08,323.35 L 251.39,323.15 L 252.69,322.95 L 254.01,322.74 L 255.33,322.54 L 256.65,322.33 L 257.98,322.12 L 259.32,321.92"
     style="stroke:black;stroke-width:0.71;stroke-linecap:round;fill:none"
     id="path156" />
  <path
     d="M 263.61,342.80 L 263.54,342.43 L 263.46,342.05 L 263.38,341.66 L 263.30,341.27 L 263.22,340.86 L 263.13,340.45 L 263.05,340.03 L 262.96,339.60 L 262.87,339.16 L 262.77,338.71 L 262.68,338.25 L 262.58,337.78 L 262.49,337.30 L 262.39,336.82 L 262.28,336.32 L 262.18,335.82 L 262.08,335.31 L 261.97,334.79 L 261.86,334.27 L 261.75,333.73 L 261.64,333.19 L 261.53,332.64 L 261.41,332.09 L 261.30,331.53 L 261.18,330.96 L 261.06,330.39 L 260.94,329.81 L 260.82,329.22 L 260.70,328.63 L 260.58,328.03 L 260.46,327.44 L 260.33,326.83 L 260.21,326.23 L 260.08,325.62 L 259.96,325.00 L 259.83,324.39 L 259.70,323.77 L 259.58,323.15 L 259.45,322.54 L 259.32,321.92"
     style="stroke:black;stroke-width:0.71;stroke-linecap:round;fill:none;stroke-dasharray: 5.67 5.67"
     id="path158" />
  <path
     d="M 221.49,344.65 L 222.65,344.60 L 223.81,344.55 L 224.99,344.50 L 226.17,344.45 L 227.36,344.39 L 228.56,344.34 L 229.77,344.29 L 230.98,344.23 L 232.20,344.18 L 233.42,344.13 L 234.66,344.07 L 235.90,344.02 L 237.15,343.96 L 238.41,343.91 L 239.67,343.85 L 240.94,343.80 L 242.22,343.74 L 243.51,343.68 L 244.80,343.63 L 246.10,343.57 L 247.40,343.51 L 248.72,343.45 L 250.04,343.39 L 251.36,343.34 L 252.70,343.28 L 254.04,343.22 L 255.39,343.16 L 256.74,343.10 L 258.10,343.04 L 259.47,342.98 L 260.85,342.92 L 262.23,342.86 L 263.61,342.80"
     style="stroke:black;stroke-width:0.71;stroke-linecap:round;fill:none;stroke-dasharray: 5.67 5.67"
     id="path160" />
  <path
     d="M 221.49,344.65 L 221.44,344.36 L 221.39,344.06 L 221.33,343.76 L 221.28,343.45 L 221.23,343.13 L 221.17,342.81 L 221.11,342.47 L 221.06,342.13 L 221.00,341.79 L 220.94,341.43 L 220.87,341.07 L 220.81,340.70 L 220.75,340.33 L 220.68,339.95 L 220.62,339.56 L 220.55,339.16 L 220.48,338.76 L 220.41,338.35 L 220.34,337.94 L 220.27,337.52 L 220.19,337.09 L 220.12,336.66 L 220.05,336.23 L 219.97,335.78 L 219.89,335.34 L 219.82,334.89 L 219.74,334.43 L 219.66,333.97 L 219.58,333.50 L 219.50,333.04 L 219.42,332.56 L 219.34,332.09 L 219.26,331.61 L 219.17,331.13 L 219.09,330.65 L 219.01,330.17 L 218.93,329.68 L 218.84,329.20 L 218.76,328.71 L 218.68,328.22"
     style="stroke:black;stroke-width:0.71;stroke-linecap:round;fill:none;stroke-dasharray: 5.67 5.67"
     id="path162" />
  <!-- Render block 8
 -->
  <text
     x="289.67538"
     y="360.91968"
     style="font-size:10px;font-weight:normal;text-anchor:middle;fill:#000000;stroke:none;font-family:sanserif"
     id="text164">cyl-4-0</text>
  <path
     d="M 263.61,342.80 L 265.01,342.74 L 266.41,342.67 L 267.82,342.61 L 269.23,342.55 L 270.65,342.49 L 272.07,342.43 L 273.51,342.36 L 274.94,342.30 L 276.39,342.24 L 277.84,342.17 L 279.29,342.11 L 280.75,342.04 L 282.22,341.98 L 283.69,341.91 L 285.17,341.85 L 286.65,341.78 L 288.14,341.72 L 289.63,341.65 L 291.13,341.59 L 292.64,341.52 L 294.15,341.45 L 295.66,341.39 L 297.18,341.32 L 298.70,341.25 L 300.23,341.19 L 301.77,341.12 L 303.30,341.05 L 304.85,340.98 L 306.39,340.91 L 307.94,340.85 L 309.50,340.78 L 311.06,340.71 L 312.62,340.64 L 314.19,340.57"
     style="stroke:black;stroke-width:0.71;stroke-linecap:round;fill:none;stroke-dasharray: 5.67 5.67"
     id="path166" />
  <path
     d="M 316.72,351.50 L 316.69,351.36 L 316.65,351.22 L 316.62,351.07 L 316.59,350.92 L 316.55,350.76 L 316.51,350.60 L 316.47,350.43 L 316.43,350.25 L 316.39,350.07 L 316.35,349.89 L 316.30,349.70 L 316.26,349.50 L 316.21,349.29 L 316.16,349.08 L 316.11,348.86 L 316.06,348.63 L 316.00,348.40 L 315.95,348.16 L 315.89,347.91 L 315.83,347.65 L 315.77,347.39 L 315.70,347.11 L 315.64,346.83 L 315.57,346.54 L 315.50,346.24 L 315.43,345.93 L 315.36,345.61 L 315.28,345.29 L 315.20,344.95 L 315.12,344.60 L 315.04,344.25 L 314.96,343.88 L 314.87,343.50 L 314.78,343.12 L 314.69,342.72 L 314.59,342.31 L 314.50,341.89 L 314.40,341.46 L 314.29,341.02 L 314.19,340.57"
     style="stroke:black;stroke-width:0.71;stroke-linecap:round;fill:none;stroke-dasharray: 5.67 5.67"
     id="path168" />
  <path
     d="M 265.40,351.50 L 266.82,351.50 L 268.24,351.50 L 269.67,351.50 L 271.10,351.50 L 272.54,351.50 L 273.99,351.50 L 275.44,351.50 L 276.90,351.50 L 278.36,351.50 L 279.83,351.50 L 281.31,351.50 L 282.79,351.50 L 284.28,351.50 L 285.77,351.50 L 287.27,351.50 L 288.78,351.50 L 290.29,351.50 L 291.80,351.50 L 293.33,351.50 L 294.85,351.50 L 296.38,351.50 L 297.92,351.50 L 299.46,351.50 L 301.01,351.50 L 302.56,351.50 L 304.11,351.50 L 305.68,351.50 L 307.24,351.50 L 308.81,351.50 L 310.38,351.50 L 311.96,351.50 L 313.54,351.50 L 315.13,351.50 L 316.72,351.50"
     style="stroke:black;stroke-width:0.71;stroke-linecap:round;fill:none"
     id="path172" />
  <path
     d="M 265.40,351.50 L 265.38,351.39 L 265.36,351.27 L 265.33,351.16 L 265.31,351.04 L 265.28,350.91 L 265.26,350.78 L 265.23,350.65 L 265.20,350.51 L 265.17,350.36 L 265.14,350.22 L 265.11,350.06 L 265.08,349.90 L 265.04,349.74 L 265.01,349.57 L 264.97,349.40 L 264.93,349.22 L 264.90,349.03 L 264.86,348.84 L 264.82,348.64 L 264.77,348.43 L 264.73,348.22 L 264.69,348.01 L 264.64,347.78 L 264.59,347.55 L 264.54,347.31 L 264.49,347.07 L 264.44,346.81 L 264.39,346.55 L 264.33,346.28 L 264.27,346.01 L 264.22,345.72 L 264.16,345.43 L 264.09,345.13 L 264.03,344.82 L 263.97,344.51 L 263.90,344.18 L 263.83,343.85 L 263.76,343.51 L 263.69,343.16 L 263.61,342.80"
     style="stroke:black;stroke-width:0.71;stroke-linecap:round;fill:none;stroke-dasharray: 5.67 5.67"
     id="path174" />
  <!-- Render block 9
 -->
  <text
     x="285.88895"
     y="333.10919"
     style="font-size:10px;font-weight:normal;text-anchor:middle;fill:#000000;stroke:none;font-family:sanserif"
     id="text176">cyl-4-1</text>
  <text
     x="197.89952"
     y="331.94501"
     transform="matrix(0.98817492,-0.15333078,0.15333078,0.98817492,0,0)"
     style="font-size:10px;font-weight:normal;text-anchor:middle;fill:#000000;stroke:none;font-family:sanserif"
     id="text178">SUP_IN</text>
  <path
     d="M 259.32,321.92 L 260.67,321.71 L 262.02,321.50 L 263.38,321.29 L 264.74,321.08 L 266.11,320.86 L 267.48,320.65 L 268.87,320.44 L 270.25,320.22 L 271.64,320.01 L 273.04,319.79 L 274.45,319.57 L 275.86,319.35 L 277.27,319.13 L 278.69,318.91 L 280.12,318.69 L 281.55,318.47 L 282.98,318.25 L 284.43,318.02 L 285.87,317.80 L 287.32,317.57 L 288.78,317.35 L 290.24,317.12 L 291.71,316.89 L 293.18,316.67 L 294.65,316.44 L 296.13,316.21 L 297.62,315.98 L 299.10,315.75 L 300.60,315.51 L 302.09,315.28 L 303.59,315.05 L 305.10,314.82 L 306.60,314.58 L 308.12,314.35"
     style="stroke:black;stroke-width:0.71;stroke-linecap:round;fill:none"
     id="path180" />
  <path
     d="M 314.19,340.57 L 314.08,340.11 L 313.97,339.63 L 313.86,339.15 L 313.74,338.65 L 313.63,338.14 L 313.51,337.62 L 313.38,337.09 L 313.26,336.55 L 313.13,336.00 L 313.00,335.43 L 312.87,334.86 L 312.73,334.27 L 312.59,333.67 L 312.45,333.06 L 312.31,332.44 L 312.16,331.81 L 312.01,331.17 L 311.86,330.52 L 311.71,329.86 L 311.55,329.19 L 311.40,328.51 L 311.24,327.82 L 311.08,327.12 L 310.91,326.42 L 310.75,325.70 L 310.58,324.98 L 310.41,324.26 L 310.24,323.52 L 310.07,322.78 L 309.90,322.03 L 309.72,321.28 L 309.55,320.52 L 309.37,319.76 L 309.19,318.99 L 309.01,318.22 L 308.84,317.45 L 308.66,316.68 L 308.48,315.90 L 308.30,315.13 L 308.12,314.35"
     style="stroke:black;stroke-width:0.71;stroke-linecap:round;fill:none;stroke-dasharray: 5.67 5.67"
     id="path182" />
  <path
     d="M 263.61,342.80 L 265.01,342.74 L 266.41,342.67 L 267.82,342.61 L 269.23,342.55 L 270.65,342.49 L 272.07,342.43 L 273.51,342.36 L 274.94,342.30 L 276.39,342.24 L 277.84,342.17 L 279.29,342.11 L 280.75,342.04 L 282.22,341.98 L 283.69,341.91 L 285.17,341.85 L 286.65,341.78 L 288.14,341.72 L 289.63,341.65 L 291.13,341.59 L 292.64,341.52 L 294.15,341.45 L 295.66,341.39 L 297.18,341.32 L 298.70,341.25 L 300.23,341.19 L 301.77,341.12 L 303.30,341.05 L 304.85,340.98 L 306.39,340.91 L 307.94,340.85 L 309.50,340.78 L 311.06,340.71 L 312.62,340.64 L 314.19,340.57"
     style="stroke:black;stroke-width:0.71;stroke-linecap:round;fill:none;stroke-dasharray: 5.67 5.67"
     id="path184" />
  <path
     d="M 263.61,342.80 L 263.54,342.43 L 263.46,342.05 L 263.38,341.66 L 263.30,341.27 L 263.22,340.86 L 263.13,340.45 L 263.05,340.03 L 262.96,339.60 L 262.87,339.16 L 262.77,338.71 L 262.68,338.25 L 262.58,337.78 L 262.49,337.30 L 262.39,336.82 L 262.28,336.32 L 262.18,335.82 L 262.08,335.31 L 261.97,334.79 L 261.86,334.27 L 261.75,333.73 L 261.64,333.19 L 261.53,332.64 L 261.41,332.09 L 261.30,331.53 L 261.18,330.96 L 261.06,330.39 L 260.94,329.81 L 260.82,329.22 L 260.70,328.63 L 260.58,328.03 L 260.46,327.44 L 260.33,326.83 L 260.21,326.23 L 260.08,325.62 L 259.96,325.00 L 259.83,324.39 L 259.70,323.77 L 259.58,323.15 L 259.45,322.54 L 259.32,321.92"
     style="stroke:black;stroke-width:0.71;stroke-linecap:round;fill:none;stroke-dasharray: 5.67 5.67"
     id="path186" />
  <!-- Render block 10
 -->
  <text
     x="343.28125"
     y="360.50909"
     style="font-size:10px;font-weight:normal;text-anchor:middle;fill:#000000;stroke:none;font-family:sanserif"
     id="text188">cyl-5-0</text>
  <path
     d="M 314.19,340.57 L 315.76,340.50 L 317.33,340.43 L 318.91,340.36 L 320.49,340.29 L 322.08,340.22 L 323.67,340.15 L 325.26,340.08 L 326.85,340.01 L 328.45,339.94 L 330.05,339.87 L 331.65,339.80 L 333.26,339.73 L 334.87,339.66 L 336.48,339.59 L 338.09,339.52 L 339.71,339.45 L 341.32,339.38 L 342.94,339.31 L 344.56,339.23 L 346.19,339.16 L 347.81,339.09 L 349.44,339.02 L 351.06,338.95 L 352.69,338.88 L 354.32,338.81 L 355.95,338.73 L 357.59,338.66 L 359.22,338.59 L 360.85,338.52 L 362.49,338.45 L 364.12,338.37 L 365.75,338.30 L 367.39,338.23 L 369.02,338.16"
     style="stroke:black;stroke-width:0.71;stroke-linecap:round;fill:none;stroke-dasharray: 5.67 5.67"
     id="path190" />
  <path
     d="M 372.36,351.50 L 372.32,351.33 L 372.27,351.15 L 372.23,350.98 L 372.18,350.79 L 372.13,350.60 L 372.08,350.40 L 372.03,350.19 L 371.98,349.98 L 371.93,349.76 L 371.87,349.53 L 371.81,349.30 L 371.75,349.05 L 371.69,348.80 L 371.62,348.54 L 371.55,348.28 L 371.48,348.00 L 371.41,347.71 L 371.34,347.42 L 371.26,347.11 L 371.19,346.80 L 371.10,346.48 L 371.02,346.14 L 370.93,345.80 L 370.85,345.44 L 370.75,345.08 L 370.66,344.70 L 370.56,344.31 L 370.46,343.92 L 370.36,343.50 L 370.26,343.08 L 370.15,342.65 L 370.03,342.20 L 369.92,341.74 L 369.80,341.27 L 369.68,340.78 L 369.56,340.28 L 369.43,339.77 L 369.30,339.25 L 369.16,338.71 L 369.02,338.16"
     style="stroke:black;stroke-width:0.71;stroke-linecap:round;fill:none;stroke-dasharray: 5.67 5.67"
     id="path192" />
  <text
     x="258.87143"
     y="385.05582"
     style="font-size:10px;font-weight:normal;text-anchor:middle;fill:#000000;stroke:none;font-family:sanserif"
     id="text194">FIXED_T</text>
  <path
     d="M 316.72,351.50 L 318.31,351.50 L 319.91,351.50 L 321.51,351.50 L 323.12,351.50 L 324.73,351.50 L 326.34,351.50 L 327.95,351.50 L 329.57,351.50 L 331.19,351.50 L 332.81,351.50 L 334.44,351.50 L 336.07,351.50 L 337.70,351.50 L 339.34,351.50 L 340.97,351.50 L 342.61,351.50 L 344.25,351.50 L 345.90,351.50 L 347.54,351.50 L 349.19,351.50 L 350.83,351.50 L 352.48,351.50 L 354.14,351.50 L 355.79,351.50 L 357.44,351.50 L 359.10,351.50 L 360.75,351.50 L 362.41,351.50 L 364.07,351.50 L 365.72,351.50 L 367.38,351.50 L 369.04,351.50 L 370.70,351.50 L 372.36,351.50"
     style="stroke:black;stroke-width:0.71;stroke-linecap:round;fill:none"
     id="path196" />
  <path
     d="M 316.72,351.50 L 316.69,351.36 L 316.65,351.22 L 316.62,351.07 L 316.59,350.92 L 316.55,350.76 L 316.51,350.60 L 316.47,350.43 L 316.43,350.25 L 316.39,350.07 L 316.35,349.89 L 316.30,349.70 L 316.26,349.50 L 316.21,349.29 L 316.16,349.08 L 316.11,348.86 L 316.06,348.63 L 316.00,348.40 L 315.95,348.16 L 315.89,347.91 L 315.83,347.65 L 315.77,347.39 L 315.70,347.11 L 315.64,346.83 L 315.57,346.54 L 315.50,346.24 L 315.43,345.93 L 315.36,345.61 L 315.28,345.29 L 315.20,344.95 L 315.12,344.60 L 315.04,344.25 L 314.96,343.88 L 314.87,343.50 L 314.78,343.12 L 314.69,342.72 L 314.59,342.31 L 314.50,341.89 L 314.40,341.46 L 314.29,341.02 L 314.19,340.57"
     style="stroke:black;stroke-width:0.71;stroke-linecap:round;fill:none;stroke-dasharray: 5.67 5.67"
     id="path198" />
  <!-- Render block 11
 -->
  <text
     x="337.63538"
     y="328.07639"
     style="font-size:10px;font-weight:normal;text-anchor:middle;fill:#000000;stroke:none;font-family:sanserif"
     id="text200">cyl-5-1</text>
  <path
     d="M 308.12,314.35 L 309.63,314.11 L 311.15,313.88 L 312.67,313.64 L 314.20,313.40 L 315.73,313.17 L 317.26,312.93 L 318.80,312.69 L 320.33,312.45 L 321.88,312.21 L 323.42,311.97 L 324.97,311.73 L 326.52,311.49 L 328.07,311.25 L 329.62,311.01 L 331.18,310.77 L 332.74,310.53 L 334.30,310.29 L 335.86,310.04 L 337.42,309.80 L 338.99,309.56 L 340.55,309.32 L 342.12,309.07 L 343.69,308.83 L 345.26,308.59 L 346.84,308.34 L 348.41,308.10 L 349.98,307.85 L 351.56,307.61 L 353.14,307.36 L 354.71,307.12 L 356.29,306.88 L 357.87,306.63 L 359.44,306.39 L 361.02,306.14"
     style="stroke:black;stroke-width:0.71;stroke-linecap:round;fill:none"
     id="path204" />
  <path
     d="M 369.02,338.16 L 368.88,337.59 L 368.74,337.01 L 368.59,336.42 L 368.44,335.81 L 368.28,335.19 L 368.13,334.56 L 367.96,333.91 L 367.80,333.25 L 367.63,332.57 L 367.46,331.88 L 367.28,331.18 L 367.10,330.46 L 366.92,329.73 L 366.73,328.99 L 366.54,328.23 L 366.35,327.46 L 366.16,326.68 L 365.96,325.89 L 365.76,325.08 L 365.55,324.26 L 365.34,323.43 L 365.13,322.59 L 364.92,321.74 L 364.70,320.88 L 364.49,320.01 L 364.27,319.13 L 364.04,318.24 L 363.82,317.34 L 363.59,316.43 L 363.37,315.52 L 363.14,314.60 L 362.90,313.68 L 362.67,312.75 L 362.44,311.81 L 362.20,310.87 L 361.97,309.93 L 361.73,308.99 L 361.49,308.04 L 361.26,307.09 L 361.02,306.14"
     style="stroke:black;stroke-width:0.71;stroke-linecap:round;fill:none;stroke-dasharray: 5.67 5.67"
     id="path206" />
  <path
     d="M 314.19,340.57 L 315.76,340.50 L 317.33,340.43 L 318.91,340.36 L 320.49,340.29 L 322.08,340.22 L 323.67,340.15 L 325.26,340.08 L 326.85,340.01 L 328.45,339.94 L 330.05,339.87 L 331.65,339.80 L 333.26,339.73 L 334.87,339.66 L 336.48,339.59 L 338.09,339.52 L 339.71,339.45 L 341.32,339.38 L 342.94,339.31 L 344.56,339.23 L 346.19,339.16 L 347.81,339.09 L 349.44,339.02 L 351.06,338.95 L 352.69,338.88 L 354.32,338.81 L 355.95,338.73 L 357.59,338.66 L 359.22,338.59 L 360.85,338.52 L 362.49,338.45 L 364.12,338.37 L 365.75,338.30 L 367.39,338.23 L 369.02,338.16"
     style="stroke:black;stroke-width:0.71;stroke-linecap:round;fill:none;stroke-dasharray: 5.67 5.67"
     id="path208" />
  <path
     d="M 314.19,340.57 L 314.08,340.11 L 313.97,339.63 L 313.86,339.15 L 313.74,338.65 L 313.63,338.14 L 313.51,337.62 L 313.38,337.09 L 313.26,336.55 L 313.13,336.00 L 313.00,335.43 L 312.87,334.86 L 312.73,334.27 L 312.59,333.67 L 312.45,333.06 L 312.31,332.44 L 312.16,331.81 L 312.01,331.17 L 311.86,330.52 L 311.71,329.86 L 311.55,329.19 L 311.40,328.51 L 311.24,327.82 L 311.08,327.12 L 310.91,326.42 L 310.75,325.70 L 310.58,324.98 L 310.41,324.26 L 310.24,323.52 L 310.07,322.78 L 309.90,322.03 L 309.72,321.28 L 309.55,320.52 L 309.37,319.76 L 309.19,318.99 L 309.01,318.22 L 308.84,317.45 L 308.66,316.68 L 308.48,315.90 L 308.30,315.13 L 308.12,314.35"
     style="stroke:black;stroke-width:0.71;stroke-linecap:round;fill:none;stroke-dasharray: 5.67 5.67"
     id="path210" />
  <!-- Render block 12
 -->
  <text
     x="407.95404"
     y="347.22687"
     style="font-size:10px;font-weight:normal;text-anchor:middle;fill:#000000;stroke:none;font-family:sanserif"
     id="text212">fl-0-0</text>
  <path
     d="M 369.02,338.16 L 370.38,337.37 L 371.74,336.58 L 373.10,335.78 L 374.46,334.99 L 375.81,334.20 L 377.17,333.41 L 378.53,332.62 L 379.89,331.83 L 381.25,331.04 L 382.60,330.25 L 383.96,329.46 L 385.32,328.66 L 386.68,327.87 L 388.04,327.08 L 389.39,326.29 L 390.75,325.50 L 392.11,324.71 L 393.47,323.92 L 394.83,323.13 L 396.19,322.34 L 397.54,321.54 L 398.90,320.75 L 400.26,319.96 L 401.62,319.17 L 402.98,318.38 L 404.33,317.59 L 405.69,316.80 L 407.05,316.01 L 408.41,315.22 L 409.77,314.42 L 411.12,313.63 L 412.48,312.84 L 413.84,312.05"
     style="stroke:black;stroke-width:0.71;stroke-linecap:round;fill:none;stroke-dasharray: 5.67 5.67"
     id="path214" />
  <path
     d="M 416.62,325.94 L 416.59,325.77 L 416.55,325.58 L 416.52,325.40 L 416.48,325.20 L 416.44,325.00 L 416.39,324.80 L 416.35,324.58 L 416.31,324.36 L 416.26,324.13 L 416.21,323.90 L 416.16,323.65 L 416.11,323.40 L 416.06,323.14 L 416.01,322.87 L 415.95,322.59 L 415.89,322.30 L 415.83,322.00 L 415.77,321.69 L 415.71,321.38 L 415.64,321.05 L 415.58,320.71 L 415.51,320.37 L 415.43,320.01 L 415.36,319.64 L 415.28,319.26 L 415.21,318.87 L 415.12,318.46 L 415.04,318.05 L 414.96,317.62 L 414.87,317.18 L 414.78,316.72 L 414.68,316.26 L 414.59,315.78 L 414.49,315.29 L 414.39,314.78 L 414.28,314.26 L 414.18,313.73 L 414.07,313.19 L 413.95,312.63 L 413.84,312.05"
     style="stroke:black;stroke-width:0.71;stroke-linecap:round;fill:none;stroke-dasharray: 5.67 5.67"
     id="path216" />
  <path
     d="M 372.36,351.50 L 373.70,350.72 L 375.04,349.95 L 376.38,349.17 L 377.72,348.40 L 379.07,347.62 L 380.41,346.85 L 381.75,346.08 L 383.09,345.30 L 384.43,344.53 L 385.77,343.75 L 387.11,342.98 L 388.46,342.20 L 389.80,341.43 L 391.14,340.65 L 392.48,339.88 L 393.82,339.11 L 395.16,338.33 L 396.50,337.56 L 397.84,336.78 L 399.19,336.01 L 400.53,335.23 L 401.87,334.46 L 403.21,333.68 L 404.55,332.91 L 405.89,332.14 L 407.23,331.36 L 408.58,330.59 L 409.92,329.81 L 411.26,329.04 L 412.60,328.26 L 413.94,327.49 L 415.28,326.71 L 416.62,325.94"
     style="stroke:black;stroke-width:0.71;stroke-linecap:round;fill:none"
     id="path220" />
  <path
     d="M 372.36,351.50 L 372.32,351.33 L 372.27,351.15 L 372.23,350.98 L 372.18,350.79 L 372.13,350.60 L 372.08,350.40 L 372.03,350.19 L 371.98,349.98 L 371.93,349.76 L 371.87,349.53 L 371.81,349.30 L 371.75,349.05 L 371.69,348.80 L 371.62,348.54 L 371.55,348.28 L 371.48,348.00 L 371.41,347.71 L 371.34,347.42 L 371.26,347.11 L 371.19,346.80 L 371.10,346.48 L 371.02,346.14 L 370.93,345.80 L 370.85,345.44 L 370.75,345.08 L 370.66,344.70 L 370.56,344.31 L 370.46,343.92 L 370.36,343.50 L 370.26,343.08 L 370.15,342.65 L 370.03,342.20 L 369.92,341.74 L 369.80,341.27 L 369.68,340.78 L 369.56,340.28 L 369.43,339.77 L 369.30,339.25 L 369.16,338.71 L 369.02,338.16"
     style="stroke:black;stroke-width:0.71;stroke-linecap:round;fill:none;stroke-dasharray: 5.67 5.67"
     id="path222" />
  <!-- Render block 13
 -->
  <text
     x="388.15973"
     y="313.04715"
     style="font-size:10px;font-weight:normal;text-anchor:middle;fill:#000000;stroke:none;font-family:sanserif"
     id="text224">fl-0-1</text>
  <path
     d="M 361.02,306.14 L 362.42,305.31 L 363.82,304.48 L 365.21,303.65 L 366.61,302.82 L 368.01,301.99 L 369.41,301.15 L 370.81,300.32 L 372.20,299.49 L 373.60,298.66 L 375.00,297.83 L 376.40,297.00 L 377.80,296.17 L 379.20,295.34 L 380.59,294.51 L 381.99,293.67 L 383.39,292.84 L 384.79,292.01 L 386.19,291.18 L 387.58,290.35 L 388.98,289.52 L 390.38,288.69 L 391.78,287.86 L 393.18,287.03 L 394.57,286.19 L 395.97,285.36 L 397.37,284.53 L 398.77,283.70 L 400.17,282.87 L 401.56,282.04 L 402.96,281.21 L 404.36,280.38 L 405.76,279.55 L 407.16,278.71"
     style="stroke:black;stroke-width:0.71;stroke-linecap:round;fill:none"
     id="path228" />
  <path
     d="M 413.84,312.05 L 413.72,311.46 L 413.60,310.86 L 413.48,310.24 L 413.35,309.61 L 413.22,308.97 L 413.09,308.31 L 412.95,307.63 L 412.81,306.94 L 412.67,306.24 L 412.53,305.52 L 412.38,304.79 L 412.23,304.04 L 412.08,303.28 L 411.93,302.50 L 411.77,301.72 L 411.61,300.92 L 411.44,300.10 L 411.28,299.27 L 411.11,298.43 L 410.94,297.58 L 410.77,296.72 L 410.59,295.84 L 410.41,294.96 L 410.23,294.06 L 410.05,293.15 L 409.87,292.23 L 409.68,291.31 L 409.49,290.37 L 409.30,289.43 L 409.11,288.48 L 408.92,287.52 L 408.73,286.56 L 408.54,285.59 L 408.34,284.62 L 408.14,283.64 L 407.95,282.66 L 407.75,281.68 L 407.55,280.69 L 407.35,279.70 L 407.16,278.71"
     style="stroke:black;stroke-width:0.71;stroke-linecap:round;fill:none;stroke-dasharray: 5.67 5.67"
     id="path230" />
  <path
     d="M 369.02,338.16 L 370.38,337.37 L 371.74,336.58 L 373.10,335.78 L 374.46,334.99 L 375.81,334.20 L 377.17,333.41 L 378.53,332.62 L 379.89,331.83 L 381.25,331.04 L 382.60,330.25 L 383.96,329.46 L 385.32,328.66 L 386.68,327.87 L 388.04,327.08 L 389.39,326.29 L 390.75,325.50 L 392.11,324.71 L 393.47,323.92 L 394.83,323.13 L 396.19,322.34 L 397.54,321.54 L 398.90,320.75 L 400.26,319.96 L 401.62,319.17 L 402.98,318.38 L 404.33,317.59 L 405.69,316.80 L 407.05,316.01 L 408.41,315.22 L 409.77,314.42 L 411.12,313.63 L 412.48,312.84 L 413.84,312.05"
     style="stroke:black;stroke-width:0.71;stroke-linecap:round;fill:none;stroke-dasharray: 5.67 5.67"
     id="path232" />
  <path
     d="M 369.02,338.16 L 368.88,337.59 L 368.74,337.01 L 368.59,336.42 L 368.44,335.81 L 368.28,335.19 L 368.13,334.56 L 367.96,333.91 L 367.80,333.25 L 367.63,332.57 L 367.46,331.88 L 367.28,331.18 L 367.10,330.46 L 366.92,329.73 L 366.73,328.99 L 366.54,328.23 L 366.35,327.46 L 366.16,326.68 L 365.96,325.89 L 365.76,325.08 L 365.55,324.26 L 365.34,323.43 L 365.13,322.59 L 364.92,321.74 L 364.70,320.88 L 364.49,320.01 L 364.27,319.13 L 364.04,318.24 L 363.82,317.34 L 363.59,316.43 L 363.37,315.52 L 363.14,314.60 L 362.90,313.68 L 362.67,312.75 L 362.44,311.81 L 362.20,310.87 L 361.97,309.93 L 361.73,308.99 L 361.49,308.04 L 361.26,307.09 L 361.02,306.14"
     style="stroke:black;stroke-width:0.71;stroke-linecap:round;fill:none;stroke-dasharray: 5.67 5.67"
     id="path234" />
  <!-- Render block 14
 -->
  <text
     x="446.18405"
     y="324.78455"
     style="font-size:10px;font-weight:normal;text-anchor:middle;fill:#000000;stroke:none;font-family:sanserif"
     id="text236">fl-1-0</text>
  <path
     d="M 413.84,312.05 L 415.20,311.26 L 416.56,310.47 L 417.91,309.68 L 419.27,308.89 L 420.63,308.10 L 421.99,307.31 L 423.35,306.51 L 424.70,305.72 L 426.06,304.93 L 427.42,304.14 L 428.78,303.35 L 430.14,302.56 L 431.49,301.77 L 432.85,300.98 L 434.21,300.19 L 435.57,299.39 L 436.93,298.60 L 438.28,297.81 L 439.64,297.02 L 441.00,296.23 L 442.36,295.44 L 443.72,294.65 L 445.07,293.86 L 446.43,293.07 L 447.79,292.27 L 449.15,291.48 L 450.51,290.69 L 451.86,289.90 L 453.22,289.11 L 454.58,288.32 L 455.94,287.53 L 457.30,286.74 L 458.65,285.95"
     style="stroke:black;stroke-width:0.71;stroke-linecap:round;fill:none;stroke-dasharray: 5.67 5.67"
     id="path238" />
  <path
     d="M 460.89,300.38 L 460.86,300.20 L 460.83,300.01 L 460.80,299.82 L 460.77,299.62 L 460.74,299.41 L 460.70,299.20 L 460.67,298.97 L 460.63,298.74 L 460.60,298.50 L 460.56,298.26 L 460.52,298.00 L 460.48,297.74 L 460.44,297.47 L 460.39,297.19 L 460.35,296.90 L 460.30,296.60 L 460.25,296.29 L 460.21,295.97 L 460.15,295.64 L 460.10,295.30 L 460.05,294.95 L 459.99,294.59 L 459.93,294.22 L 459.87,293.83 L 459.81,293.44 L 459.75,293.03 L 459.69,292.61 L 459.62,292.18 L 459.55,291.73 L 459.48,291.27 L 459.41,290.80 L 459.33,290.32 L 459.25,289.82 L 459.18,289.31 L 459.09,288.79 L 459.01,288.25 L 458.92,287.69 L 458.84,287.12 L 458.75,286.54 L 458.65,285.95"
     style="stroke:black;stroke-width:0.71;stroke-linecap:round;fill:none;stroke-dasharray: 5.67 5.67"
     id="path240" />
  <path
     d="M 416.62,325.94 L 417.97,325.17 L 419.31,324.39 L 420.65,323.62 L 421.99,322.84 L 423.33,322.07 L 424.67,321.29 L 426.01,320.52 L 427.35,319.74 L 428.70,318.97 L 430.04,318.20 L 431.38,317.42 L 432.72,316.65 L 434.06,315.87 L 435.40,315.10 L 436.74,314.32 L 438.09,313.55 L 439.43,312.77 L 440.77,312.00 L 442.11,311.23 L 443.45,310.45 L 444.79,309.68 L 446.13,308.90 L 447.47,308.13 L 448.82,307.35 L 450.16,306.58 L 451.50,305.80 L 452.84,305.03 L 454.18,304.26 L 455.52,303.48 L 456.86,302.71 L 458.21,301.93 L 459.55,301.16 L 460.89,300.38"
     style="stroke:black;stroke-width:0.71;stroke-linecap:round;fill:none"
     id="path244" />
  <path
     d="M 416.62,325.94 L 416.59,325.77 L 416.55,325.58 L 416.52,325.40 L 416.48,325.20 L 416.44,325.00 L 416.39,324.80 L 416.35,324.58 L 416.31,324.36 L 416.26,324.13 L 416.21,323.90 L 416.16,323.65 L 416.11,323.40 L 416.06,323.14 L 416.01,322.87 L 415.95,322.59 L 415.89,322.30 L 415.83,322.00 L 415.77,321.69 L 415.71,321.38 L 415.64,321.05 L 415.58,320.71 L 415.51,320.37 L 415.43,320.01 L 415.36,319.64 L 415.28,319.26 L 415.21,318.87 L 415.12,318.46 L 415.04,318.05 L 414.96,317.62 L 414.87,317.18 L 414.78,316.72 L 414.68,316.26 L 414.59,315.78 L 414.49,315.29 L 414.39,314.78 L 414.28,314.26 L 414.18,313.73 L 414.07,313.19 L 413.95,312.63 L 413.84,312.05"
     style="stroke:black;stroke-width:0.71;stroke-linecap:round;fill:none;stroke-dasharray: 5.67 5.67"
     id="path246" />
  <!-- Render block 15
 -->
  <text
     x="433.11258"
     y="285.83359"
     style="font-size:10px;font-weight:normal;text-anchor:middle;fill:#000000;stroke:none;font-family:sanserif"
     id="text248">fl-1-1</text>
  <text
     x="312.13638"
     y="432.771"
     transform="matrix(0.85958483,-0.51099307,0.51099307,0.85958483,0,0)"
     style="font-size:10px;font-weight:normal;text-anchor:middle;fill:#000000;stroke:none;font-family:sanserif"
     id="text250">SUP_IN</text>
  <path
     d="M 407.16,278.71 L 408.55,277.88 L 409.95,277.05 L 411.35,276.22 L 412.75,275.39 L 414.15,274.56 L 415.54,273.73 L 416.94,272.90 L 418.34,272.07 L 419.74,271.23 L 421.14,270.40 L 422.53,269.57 L 423.93,268.74 L 425.33,267.91 L 426.73,267.08 L 428.13,266.25 L 429.52,265.42 L 430.92,264.59 L 432.32,263.75 L 433.72,262.92 L 435.12,262.09 L 436.52,261.26 L 437.91,260.43 L 439.31,259.60 L 440.71,258.77 L 442.11,257.94 L 443.51,257.11 L 444.90,256.27 L 446.30,255.44 L 447.70,254.61 L 449.10,253.78 L 450.50,252.95 L 451.89,252.12 L 453.29,251.29"
     style="stroke:black;stroke-width:0.71;stroke-linecap:round;fill:none"
     id="path252" />
  <path
     d="M 458.65,285.95 L 458.56,285.33 L 458.46,284.71 L 458.36,284.07 L 458.26,283.41 L 458.16,282.74 L 458.05,282.05 L 457.94,281.35 L 457.83,280.63 L 457.72,279.90 L 457.60,279.15 L 457.49,278.39 L 457.37,277.62 L 457.24,276.83 L 457.12,276.02 L 456.99,275.20 L 456.86,274.37 L 456.73,273.52 L 456.60,272.66 L 456.46,271.79 L 456.33,270.90 L 456.19,270.00 L 456.05,269.09 L 455.90,268.17 L 455.76,267.24 L 455.61,266.30 L 455.47,265.34 L 455.32,264.38 L 455.17,263.41 L 455.02,262.43 L 454.86,261.44 L 454.71,260.45 L 454.55,259.45 L 454.40,258.44 L 454.24,257.43 L 454.08,256.41 L 453.93,255.39 L 453.77,254.37 L 453.61,253.34 L 453.45,252.32 L 453.29,251.29"
     style="stroke:black;stroke-width:0.71;stroke-linecap:round;fill:none;stroke-dasharray: 5.67 5.67"
     id="path254" />
  <path
     d="M 413.84,312.05 L 415.20,311.26 L 416.56,310.47 L 417.91,309.68 L 419.27,308.89 L 420.63,308.10 L 421.99,307.31 L 423.35,306.51 L 424.70,305.72 L 426.06,304.93 L 427.42,304.14 L 428.78,303.35 L 430.14,302.56 L 431.49,301.77 L 432.85,300.98 L 434.21,300.19 L 435.57,299.39 L 436.93,298.60 L 438.28,297.81 L 439.64,297.02 L 441.00,296.23 L 442.36,295.44 L 443.72,294.65 L 445.07,293.86 L 446.43,293.07 L 447.79,292.27 L 449.15,291.48 L 450.51,290.69 L 451.86,289.90 L 453.22,289.11 L 454.58,288.32 L 455.94,287.53 L 457.30,286.74 L 458.65,285.95"
     style="stroke:black;stroke-width:0.71;stroke-linecap:round;fill:none;stroke-dasharray: 5.67 5.67"
     id="path256" />
  <path
     d="M 413.84,312.05 L 413.72,311.46 L 413.60,310.86 L 413.48,310.24 L 413.35,309.61 L 413.22,308.97 L 413.09,308.31 L 412.95,307.63 L 412.81,306.94 L 412.67,306.24 L 412.53,305.52 L 412.38,304.79 L 412.23,304.04 L 412.08,303.28 L 411.93,302.50 L 411.77,301.72 L 411.61,300.92 L 411.44,300.10 L 411.28,299.27 L 411.11,298.43 L 410.94,297.58 L 410.77,296.72 L 410.59,295.84 L 410.41,294.96 L 410.23,294.06 L 410.05,293.15 L 409.87,292.23 L 409.68,291.31 L 409.49,290.37 L 409.30,289.43 L 409.11,288.48 L 408.92,287.52 L 408.73,286.56 L 408.54,285.59 L 408.34,284.62 L 408.14,283.64 L 407.95,282.66 L 407.75,281.68 L 407.55,280.69 L 407.35,279.70 L 407.16,278.71"
     style="stroke:black;stroke-width:0.71;stroke-linecap:round;fill:none;stroke-dasharray: 5.67 5.67"
     id="path258" />
  <!-- Render block 16
 -->
  <text
     x="492.19022"
     y="298.78275"
     style="font-size:10px;font-weight:normal;text-anchor:middle;fill:#000000;stroke:none;font-family:sanserif"
     id="text260">fl-2-0</text>
  <path
     d="M 458.65,285.95 L 460.01,285.15 L 461.37,284.36 L 462.73,283.57 L 464.09,282.78 L 465.44,281.99 L 466.80,281.20 L 468.16,280.41 L 469.52,279.62 L 470.88,278.83 L 472.23,278.03 L 473.59,277.24 L 474.95,276.45 L 476.31,275.66 L 477.67,274.87 L 479.02,274.08 L 480.38,273.29 L 481.74,272.50 L 483.10,271.71 L 484.46,270.91 L 485.81,270.12 L 487.17,269.33 L 488.53,268.54 L 489.89,267.75 L 491.25,266.96 L 492.61,266.17 L 493.96,265.38 L 495.32,264.59 L 496.68,263.79 L 498.04,263.00 L 499.40,262.21 L 500.75,261.42 L 502.11,260.63 L 503.47,259.84"
     style="stroke:black;stroke-width:0.71;stroke-linecap:round;fill:none;stroke-dasharray: 5.67 5.67"
     id="path262" />
  <path
     d="M 505.15,274.83 L 505.13,274.64 L 505.11,274.44 L 505.09,274.24 L 505.06,274.03 L 505.04,273.82 L 505.01,273.59 L 504.99,273.36 L 504.96,273.12 L 504.93,272.88 L 504.91,272.62 L 504.88,272.36 L 504.84,272.08 L 504.81,271.80 L 504.78,271.51 L 504.75,271.21 L 504.71,270.90 L 504.68,270.58 L 504.64,270.25 L 504.60,269.90 L 504.56,269.55 L 504.52,269.19 L 504.48,268.81 L 504.43,268.43 L 504.39,268.03 L 504.34,267.62 L 504.30,267.19 L 504.25,266.76 L 504.20,266.31 L 504.14,265.85 L 504.09,265.37 L 504.04,264.88 L 503.98,264.38 L 503.92,263.86 L 503.86,263.33 L 503.80,262.79 L 503.74,262.23 L 503.67,261.65 L 503.61,261.06 L 503.54,260.46 L 503.47,259.84"
     style="stroke:black;stroke-width:0.71;stroke-linecap:round;fill:none;stroke-dasharray: 5.67 5.67"
     id="path264" />
  <text
     x="297.26071"
     y="530.11182"
     transform="matrix(0.8660254,-0.5,0.5,0.8660254,0,0)"
     style="font-size:10px;font-weight:normal;text-anchor:middle;fill:#000000;stroke:none;font-family:sanserif"
     id="text266">FIXED_T</text>
  <path
     d="M 460.89,300.38 L 462.23,299.61 L 463.57,298.83 L 464.91,298.06 L 466.25,297.29 L 467.60,296.51 L 468.94,295.74 L 470.28,294.96 L 471.62,294.19 L 472.96,293.41 L 474.30,292.64 L 475.64,291.86 L 476.98,291.09 L 478.33,290.32 L 479.67,289.54 L 481.01,288.77 L 482.35,287.99 L 483.69,287.22 L 485.03,286.44 L 486.37,285.67 L 487.72,284.89 L 489.06,284.12 L 490.40,283.35 L 491.74,282.57 L 493.08,281.80 L 494.42,281.02 L 495.76,280.25 L 497.11,279.47 L 498.45,278.70 L 499.79,277.93 L 501.13,277.15 L 502.47,276.38 L 503.81,275.60 L 505.15,274.83"
     style="stroke:black;stroke-width:0.71;stroke-linecap:round;fill:none"
     id="path268" />
  <path
     d="M 460.89,300.38 L 460.86,300.20 L 460.83,300.01 L 460.80,299.82 L 460.77,299.62 L 460.74,299.41 L 460.70,299.20 L 460.67,298.97 L 460.63,298.74 L 460.60,298.50 L 460.56,298.26 L 460.52,298.00 L 460.48,297.74 L 460.44,297.47 L 460.39,297.19 L 460.35,296.90 L 460.30,296.60 L 460.25,296.29 L 460.21,295.97 L 460.15,295.64 L 460.10,295.30 L 460.05,294.95 L 459.99,294.59 L 459.93,294.22 L 459.87,293.83 L 459.81,293.44 L 459.75,293.03 L 459.69,292.61 L 459.62,292.18 L 459.55,291.73 L 459.48,291.27 L 459.41,290.80 L 459.33,290.32 L 459.25,289.82 L 459.18,289.31 L 459.09,288.79 L 459.01,288.25 L 458.92,287.69 L 458.84,287.12 L 458.75,286.54 L 458.65,285.95"
     style="stroke:black;stroke-width:0.71;stroke-linecap:round;fill:none;stroke-dasharray: 5.67 5.67"
     id="path270" />
  <!-- Render block 17
 -->
  <text
     x="478.82758"
     y="257.30032"
     style="font-size:10px;font-weight:normal;text-anchor:middle;fill:#000000;stroke:none;font-family:sanserif"
     id="text272">fl-2-1</text>
  <path
     d="M 453.29,251.29 L 454.69,250.46 L 456.09,249.63 L 457.49,248.79 L 458.88,247.96 L 460.28,247.13 L 461.68,246.30 L 463.08,245.47 L 464.48,244.64 L 465.87,243.81 L 467.27,242.98 L 468.67,242.15 L 470.07,241.31 L 471.47,240.48 L 472.86,239.65 L 474.26,238.82 L 475.66,237.99 L 477.06,237.16 L 478.46,236.33 L 479.85,235.50 L 481.25,234.67 L 482.65,233.83 L 484.05,233.00 L 485.45,232.17 L 486.84,231.34 L 488.24,230.51 L 489.64,229.68 L 491.04,228.85 L 492.44,228.02 L 493.83,227.18 L 495.23,226.35 L 496.63,225.52 L 498.03,224.69 L 499.43,223.86"
     style="stroke:black;stroke-width:0.71;stroke-linecap:round;fill:none"
     id="path276" />
  <path
     d="M 503.47,259.84 L 503.40,259.20 L 503.32,258.55 L 503.25,257.89 L 503.17,257.21 L 503.10,256.51 L 503.01,255.80 L 502.93,255.07 L 502.85,254.32 L 502.76,253.56 L 502.68,252.79 L 502.59,252.00 L 502.50,251.19 L 502.41,250.37 L 502.31,249.54 L 502.22,248.69 L 502.12,247.82 L 502.02,246.94 L 501.92,246.05 L 501.82,245.14 L 501.71,244.22 L 501.61,243.29 L 501.50,242.35 L 501.40,241.39 L 501.29,240.42 L 501.18,239.44 L 501.07,238.45 L 500.95,237.45 L 500.84,236.44 L 500.73,235.43 L 500.61,234.40 L 500.50,233.37 L 500.38,232.33 L 500.26,231.28 L 500.14,230.23 L 500.02,229.18 L 499.91,228.12 L 499.79,227.06 L 499.67,225.99 L 499.55,224.93 L 499.43,223.86"
     style="stroke:black;stroke-width:0.71;stroke-linecap:round;fill:none;stroke-dasharray: 5.67 5.67"
     id="path278" />
  <path
     d="M 458.65,285.95 L 460.01,285.15 L 461.37,284.36 L 462.73,283.57 L 464.09,282.78 L 465.44,281.99 L 466.80,281.20 L 468.16,280.41 L 469.52,279.62 L 470.88,278.83 L 472.23,278.03 L 473.59,277.24 L 474.95,276.45 L 476.31,275.66 L 477.67,274.87 L 479.02,274.08 L 480.38,273.29 L 481.74,272.50 L 483.10,271.71 L 484.46,270.91 L 485.81,270.12 L 487.17,269.33 L 488.53,268.54 L 489.89,267.75 L 491.25,266.96 L 492.61,266.17 L 493.96,265.38 L 495.32,264.59 L 496.68,263.79 L 498.04,263.00 L 499.40,262.21 L 500.75,261.42 L 502.11,260.63 L 503.47,259.84"
     style="stroke:black;stroke-width:0.71;stroke-linecap:round;fill:none;stroke-dasharray: 5.67 5.67"
     id="path280" />
  <path
     d="M 458.65,285.95 L 458.56,285.33 L 458.46,284.71 L 458.36,284.07 L 458.26,283.41 L 458.16,282.74 L 458.05,282.05 L 457.94,281.35 L 457.83,280.63 L 457.72,279.90 L 457.60,279.15 L 457.49,278.39 L 457.37,277.62 L 457.24,276.83 L 457.12,276.02 L 456.99,275.20 L 456.86,274.37 L 456.73,273.52 L 456.60,272.66 L 456.46,271.79 L 456.33,270.90 L 456.19,270.00 L 456.05,269.09 L 455.90,268.17 L 455.76,267.24 L 455.61,266.30 L 455.47,265.34 L 455.32,264.38 L 455.17,263.41 L 455.02,262.43 L 454.86,261.44 L 454.71,260.45 L 454.55,259.45 L 454.40,258.44 L 454.24,257.43 L 454.08,256.41 L 453.93,255.39 L 453.77,254.37 L 453.61,253.34 L 453.45,252.32 L 453.29,251.29"
     style="stroke:black;stroke-width:0.71;stroke-linecap:round;fill:none;stroke-dasharray: 5.67 5.67"
     id="path282" />
  <!-- Render block 18
 -->
  <text
     x="539.31891"
     y="271.0112"
     style="font-size:10px;font-weight:normal;text-anchor:middle;fill:#000000;stroke:none;font-family:sanserif"
     id="text284">fl-3-0</text>
  <path
     d="M 503.47,259.84 L 504.83,259.05 L 506.19,258.26 L 507.54,257.47 L 508.90,256.67 L 510.26,255.88 L 511.62,255.09 L 512.98,254.30 L 514.33,253.51 L 515.69,252.72 L 517.05,251.93 L 518.41,251.14 L 519.77,250.35 L 521.12,249.55 L 522.48,248.76 L 523.84,247.97 L 525.20,247.18 L 526.56,246.39 L 527.91,245.60 L 529.27,244.81 L 530.63,244.02 L 531.99,243.23 L 533.35,242.43 L 534.70,241.64 L 536.06,240.85 L 537.42,240.06 L 538.78,239.27 L 540.14,238.48 L 541.49,237.69 L 542.85,236.90 L 544.21,236.11 L 545.57,235.31 L 546.93,234.52 L 548.28,233.73"
     style="stroke:black;stroke-width:0.71;stroke-linecap:round;fill:none;stroke-dasharray: 5.67 5.67"
     id="path286" />
  <path
     d="M 549.42,249.27 L 549.40,249.08 L 549.39,248.87 L 549.37,248.66 L 549.36,248.45 L 549.34,248.22 L 549.32,247.99 L 549.31,247.75 L 549.29,247.50 L 549.27,247.25 L 549.25,246.98 L 549.23,246.71 L 549.21,246.43 L 549.19,246.13 L 549.17,245.83 L 549.14,245.52 L 549.12,245.20 L 549.10,244.87 L 549.07,244.52 L 549.05,244.17 L 549.02,243.80 L 548.99,243.42 L 548.96,243.04 L 548.93,242.63 L 548.90,242.22 L 548.87,241.80 L 548.84,241.36 L 548.81,240.90 L 548.77,240.44 L 548.74,239.96 L 548.70,239.47 L 548.67,238.96 L 548.63,238.44 L 548.59,237.90 L 548.55,237.35 L 548.51,236.79 L 548.46,236.21 L 548.42,235.61 L 548.38,235.00 L 548.33,234.37 L 548.28,233.73"
     style="stroke:black;stroke-width:0.71;stroke-linecap:round;fill:none;stroke-dasharray: 5.67 5.67"
     id="path288" />
  <path
     d="M 505.15,274.83 L 506.49,274.05 L 507.84,273.28 L 509.18,272.50 L 510.52,271.73 L 511.86,270.96 L 513.20,270.18 L 514.54,269.41 L 515.88,268.63 L 517.23,267.86 L 518.57,267.08 L 519.91,266.31 L 521.25,265.53 L 522.59,264.76 L 523.93,263.99 L 525.27,263.21 L 526.61,262.44 L 527.96,261.66 L 529.30,260.89 L 530.64,260.11 L 531.98,259.34 L 533.32,258.56 L 534.66,257.79 L 536.00,257.02 L 537.35,256.24 L 538.69,255.47 L 540.03,254.69 L 541.37,253.92 L 542.71,253.14 L 544.05,252.37 L 545.39,251.59 L 546.74,250.82 L 548.08,250.05 L 549.42,249.27"
     style="stroke:black;stroke-width:0.71;stroke-linecap:round;fill:none"
     id="path292" />
  <path
     d="M 505.15,274.83 L 505.13,274.64 L 505.11,274.44 L 505.09,274.24 L 505.06,274.03 L 505.04,273.82 L 505.01,273.59 L 504.99,273.36 L 504.96,273.12 L 504.93,272.88 L 504.91,272.62 L 504.88,272.36 L 504.84,272.08 L 504.81,271.80 L 504.78,271.51 L 504.75,271.21 L 504.71,270.90 L 504.68,270.58 L 504.64,270.25 L 504.60,269.90 L 504.56,269.55 L 504.52,269.19 L 504.48,268.81 L 504.43,268.43 L 504.39,268.03 L 504.34,267.62 L 504.30,267.19 L 504.25,266.76 L 504.20,266.31 L 504.14,265.85 L 504.09,265.37 L 504.04,264.88 L 503.98,264.38 L 503.92,263.86 L 503.86,263.33 L 503.80,262.79 L 503.74,262.23 L 503.67,261.65 L 503.61,261.06 L 503.54,260.46 L 503.47,259.84"
     style="stroke:black;stroke-width:0.71;stroke-linecap:round;fill:none;stroke-dasharray: 5.67 5.67"
     id="path294" />
  <!-- Render block 19
 -->
  <text
     x="522.37103"
     y="233.01433"
     style="font-size:10px;font-weight:normal;text-anchor:middle;fill:#000000;stroke:none;font-family:sanserif"
     id="text296">fl-3-1</text>
  <path
     d="M 499.43,223.86 L 500.83,223.03 L 502.22,222.20 L 503.62,221.37 L 505.02,220.54 L 506.42,219.70 L 507.82,218.87 L 509.21,218.04 L 510.61,217.21 L 512.01,216.38 L 513.41,215.55 L 514.81,214.72 L 516.20,213.89 L 517.60,213.06 L 519.00,212.22 L 520.40,211.39 L 521.80,210.56 L 523.19,209.73 L 524.59,208.90 L 525.99,208.07 L 527.39,207.24 L 528.79,206.41 L 530.18,205.58 L 531.58,204.74 L 532.98,203.91 L 534.38,203.08 L 535.78,202.25 L 537.17,201.42 L 538.57,200.59 L 539.97,199.76 L 541.37,198.93 L 542.77,198.10 L 544.16,197.26 L 545.56,196.43"
     style="stroke:black;stroke-width:0.71;stroke-linecap:round;fill:none"
     id="path300" />
  <path
     d="M 548.28,233.73 L 548.24,233.07 L 548.19,232.40 L 548.14,231.71 L 548.08,231.00 L 548.03,230.28 L 547.98,229.54 L 547.92,228.79 L 547.87,228.01 L 547.81,227.23 L 547.75,226.42 L 547.69,225.60 L 547.63,224.77 L 547.57,223.92 L 547.50,223.05 L 547.44,222.17 L 547.38,221.27 L 547.31,220.36 L 547.24,219.44 L 547.17,218.50 L 547.10,217.54 L 547.03,216.58 L 546.96,215.60 L 546.89,214.61 L 546.82,213.60 L 546.74,212.59 L 546.67,211.56 L 546.59,210.52 L 546.51,209.48 L 546.44,208.42 L 546.36,207.36 L 546.28,206.29 L 546.20,205.21 L 546.12,204.13 L 546.04,203.04 L 545.96,201.95 L 545.88,200.85 L 545.80,199.75 L 545.72,198.64 L 545.64,197.54 L 545.56,196.43"
     style="stroke:black;stroke-width:0.71;stroke-linecap:round;fill:none;stroke-dasharray: 5.67 5.67"
     id="path302" />
  <path
     d="M 503.47,259.84 L 504.83,259.05 L 506.19,258.26 L 507.54,257.47 L 508.90,256.67 L 510.26,255.88 L 511.62,255.09 L 512.98,254.30 L 514.33,253.51 L 515.69,252.72 L 517.05,251.93 L 518.41,251.14 L 519.77,250.35 L 521.12,249.55 L 522.48,248.76 L 523.84,247.97 L 525.20,247.18 L 526.56,246.39 L 527.91,245.60 L 529.27,244.81 L 530.63,244.02 L 531.99,243.23 L 533.35,242.43 L 534.70,241.64 L 536.06,240.85 L 537.42,240.06 L 538.78,239.27 L 540.14,238.48 L 541.49,237.69 L 542.85,236.90 L 544.21,236.11 L 545.57,235.31 L 546.93,234.52 L 548.28,233.73"
     style="stroke:black;stroke-width:0.71;stroke-linecap:round;fill:none;stroke-dasharray: 5.67 5.67"
     id="path304" />
  <path
     d="M 503.47,259.84 L 503.40,259.20 L 503.32,258.55 L 503.25,257.89 L 503.17,257.21 L 503.10,256.51 L 503.01,255.80 L 502.93,255.07 L 502.85,254.32 L 502.76,253.56 L 502.68,252.79 L 502.59,252.00 L 502.50,251.19 L 502.41,250.37 L 502.31,249.54 L 502.22,248.69 L 502.12,247.82 L 502.02,246.94 L 501.92,246.05 L 501.82,245.14 L 501.71,244.22 L 501.61,243.29 L 501.50,242.35 L 501.40,241.39 L 501.29,240.42 L 501.18,239.44 L 501.07,238.45 L 500.95,237.45 L 500.84,236.44 L 500.73,235.43 L 500.61,234.40 L 500.50,233.37 L 500.38,232.33 L 500.26,231.28 L 500.14,230.23 L 500.02,229.18 L 499.91,228.12 L 499.79,227.06 L 499.67,225.99 L 499.55,224.93 L 499.43,223.86"
     style="stroke:black;stroke-width:0.71;stroke-linecap:round;fill:none;stroke-dasharray: 5.67 5.67"
     id="path306" />
  <!-- Render block 20
 -->
  <text
     x="582.9538"
     y="247.30351"
     style="font-size:10px;font-weight:normal;text-anchor:middle;fill:#000000;stroke:none;font-family:sanserif"
     id="text308">fl-4-0</text>
  <path
     d="M 548.28,233.73 L 549.64,232.94 L 551.00,232.15 L 552.36,231.36 L 553.72,230.57 L 555.07,229.78 L 556.43,228.99 L 557.79,228.19 L 559.15,227.40 L 560.51,226.61 L 561.86,225.82 L 563.22,225.03 L 564.58,224.24 L 565.94,223.45 L 567.30,222.66 L 568.65,221.87 L 570.01,221.07 L 571.37,220.28 L 572.73,219.49 L 574.09,218.70 L 575.44,217.91 L 576.80,217.12 L 578.16,216.33 L 579.52,215.54 L 580.88,214.75 L 582.23,213.95 L 583.59,213.16 L 584.95,212.37 L 586.31,211.58 L 587.67,210.79 L 589.02,210.00 L 590.38,209.21 L 591.74,208.42 L 593.10,207.63 L 594.46,206.83"
     style="stroke:black;stroke-width:0.71;stroke-linecap:round;fill:none;stroke-dasharray: 5.67 5.67"
     id="path310" />
  <path
     d="M 595.02,222.94 L 595.02,222.74 L 595.01,222.53 L 595.00,222.31 L 594.99,222.09 L 594.99,221.86 L 594.98,221.61 L 594.97,221.37 L 594.96,221.11 L 594.95,220.84 L 594.94,220.57 L 594.93,220.29 L 594.92,219.99 L 594.91,219.69 L 594.90,219.38 L 594.89,219.05 L 594.88,218.72 L 594.86,218.37 L 594.85,218.02 L 594.84,217.65 L 594.82,217.27 L 594.81,216.88 L 594.80,216.48 L 594.78,216.06 L 594.77,215.63 L 594.75,215.19 L 594.74,214.74 L 594.72,214.27 L 594.70,213.79 L 594.68,213.29 L 594.67,212.78 L 594.65,212.25 L 594.63,211.71 L 594.61,211.16 L 594.59,210.59 L 594.57,210.00 L 594.55,209.40 L 594.53,208.78 L 594.50,208.15 L 594.48,207.50 L 594.46,206.83"
     style="stroke:black;stroke-width:0.71;stroke-linecap:round;fill:none;stroke-dasharray: 5.67 5.67"
     id="path312" />
  <path
     d="M 549.42,249.27 L 550.76,248.50 L 552.10,247.72 L 553.44,246.95 L 554.78,246.17 L 556.12,245.40 L 557.47,244.62 L 558.81,243.85 L 560.15,243.08 L 561.49,242.30 L 562.83,241.53 L 564.17,240.75 L 565.51,239.98 L 566.86,239.20 L 568.20,238.43 L 569.54,237.65 L 570.88,236.88 L 572.22,236.11 L 573.56,235.33 L 574.90,234.56 L 576.24,233.78 L 577.59,233.01 L 578.93,232.23 L 580.27,231.46 L 581.61,230.68 L 582.95,229.91 L 584.29,229.14 L 585.63,228.36 L 586.98,227.59 L 588.32,226.81 L 589.66,226.04 L 591.00,225.26 L 592.34,224.49 L 593.68,223.71 L 595.02,222.94"
     style="stroke:black;stroke-width:0.71;stroke-linecap:round;fill:none"
     id="path316" />
  <path
     d="M 549.42,249.27 L 549.40,249.08 L 549.39,248.87 L 549.37,248.66 L 549.36,248.45 L 549.34,248.22 L 549.32,247.99 L 549.31,247.75 L 549.29,247.50 L 549.27,247.25 L 549.25,246.98 L 549.23,246.71 L 549.21,246.43 L 549.19,246.13 L 549.17,245.83 L 549.14,245.52 L 549.12,245.20 L 549.10,244.87 L 549.07,244.52 L 549.05,244.17 L 549.02,243.80 L 548.99,243.42 L 548.96,243.04 L 548.93,242.63 L 548.90,242.22 L 548.87,241.80 L 548.84,241.36 L 548.81,240.90 L 548.77,240.44 L 548.74,239.96 L 548.70,239.47 L 548.67,238.96 L 548.63,238.44 L 548.59,237.90 L 548.55,237.35 L 548.51,236.79 L 548.46,236.21 L 548.42,235.61 L 548.38,235.00 L 548.33,234.37 L 548.28,233.73"
     style="stroke:black;stroke-width:0.71;stroke-linecap:round;fill:none;stroke-dasharray: 5.67 5.67"
     id="path318" />
  <!-- Render block 21
 -->
  <text
     x="570.80713"
     y="205.15254"
     style="font-size:10px;font-weight:normal;text-anchor:middle;fill:#000000;stroke:none;font-family:sanserif"
     id="text320">fl-4-1</text>
  <path
     d="M 545.56,196.43 L 546.96,195.60 L 548.36,194.77 L 549.76,193.94 L 551.15,193.11 L 552.55,192.28 L 553.95,191.45 L 555.35,190.62 L 556.75,189.78 L 558.15,188.95 L 559.54,188.12 L 560.94,187.29 L 562.34,186.46 L 563.74,185.63 L 565.14,184.80 L 566.53,183.97 L 567.93,183.14 L 569.33,182.30 L 570.73,181.47 L 572.13,180.64 L 573.52,179.81 L 574.92,178.98 L 576.32,178.15 L 577.72,177.32 L 579.12,176.49 L 580.51,175.66 L 581.91,174.82 L 583.31,173.99 L 584.71,173.16 L 586.11,172.33 L 587.50,171.50 L 588.90,170.67 L 590.30,169.84 L 591.70,169.01 L 593.10,168.18"
     style="stroke:black;stroke-width:0.71;stroke-linecap:round;fill:none"
     id="path324" />
  <path
     d="M 594.46,206.83 L 594.43,206.15 L 594.41,205.45 L 594.38,204.74 L 594.36,204.01 L 594.33,203.26 L 594.30,202.49 L 594.28,201.71 L 594.25,200.91 L 594.22,200.09 L 594.19,199.26 L 594.16,198.41 L 594.13,197.54 L 594.10,196.66 L 594.07,195.76 L 594.04,194.85 L 594.00,193.92 L 593.97,192.98 L 593.94,192.02 L 593.90,191.04 L 593.87,190.05 L 593.83,189.05 L 593.80,188.04 L 593.76,187.01 L 593.72,185.97 L 593.69,184.92 L 593.65,183.85 L 593.61,182.78 L 593.57,181.70 L 593.53,180.60 L 593.49,179.50 L 593.46,178.39 L 593.42,177.28 L 593.38,176.15 L 593.34,175.02 L 593.30,173.89 L 593.26,172.75 L 593.22,171.61 L 593.18,170.47 L 593.14,169.32 L 593.10,168.18"
     style="stroke:black;stroke-width:0.71;stroke-linecap:round;fill:none;stroke-dasharray: 5.67 5.67"
     id="path326" />
  <path
     d="M 548.28,233.73 L 549.64,232.94 L 551.00,232.15 L 552.36,231.36 L 553.72,230.57 L 555.07,229.78 L 556.43,228.99 L 557.79,228.19 L 559.15,227.40 L 560.51,226.61 L 561.86,225.82 L 563.22,225.03 L 564.58,224.24 L 565.94,223.45 L 567.30,222.66 L 568.65,221.87 L 570.01,221.07 L 571.37,220.28 L 572.73,219.49 L 574.09,218.70 L 575.44,217.91 L 576.80,217.12 L 578.16,216.33 L 579.52,215.54 L 580.88,214.75 L 582.23,213.95 L 583.59,213.16 L 584.95,212.37 L 586.31,211.58 L 587.67,210.79 L 589.02,210.00 L 590.38,209.21 L 591.74,208.42 L 593.10,207.63 L 594.46,206.83"
     style="stroke:black;stroke-width:0.71;stroke-linecap:round;fill:none;stroke-dasharray: 5.67 5.67"
     id="path328" />
  <path
     d="M 548.28,233.73 L 548.24,233.07 L 548.19,232.40 L 548.14,231.71 L 548.08,231.00 L 548.03,230.28 L 547.98,229.54 L 547.92,228.79 L 547.87,228.01 L 547.81,227.23 L 547.75,226.42 L 547.69,225.60 L 547.63,224.77 L 547.57,223.92 L 547.50,223.05 L 547.44,222.17 L 547.38,221.27 L 547.31,220.36 L 547.24,219.44 L 547.17,218.50 L 547.10,217.54 L 547.03,216.58 L 546.96,215.60 L 546.89,214.61 L 546.82,213.60 L 546.74,212.59 L 546.67,211.56 L 546.59,210.52 L 546.51,209.48 L 546.44,208.42 L 546.36,207.36 L 546.28,206.29 L 546.20,205.21 L 546.12,204.13 L 546.04,203.04 L 545.96,201.95 L 545.88,200.85 L 545.80,199.75 L 545.72,198.64 L 545.64,197.54 L 545.56,196.43"
     style="stroke:black;stroke-width:0.71;stroke-linecap:round;fill:none;stroke-dasharray: 5.67 5.67"
     id="path330" />
  <!-- Render block 22
 -->
  <text
     x="622.69562"
     y="223.59579"
     style="font-size:10px;font-weight:normal;text-anchor:middle;fill:#000000;stroke:none;font-family:sanserif"
     id="text332">fl-5-0</text>
  <path
     d="M 594.46,206.83 L 595.82,206.04 L 597.17,205.25 L 598.53,204.46 L 599.89,203.67 L 601.25,202.88 L 602.61,202.09 L 603.96,201.30 L 605.32,200.51 L 606.68,199.71 L 608.04,198.92 L 609.40,198.13 L 610.75,197.34 L 612.11,196.55 L 613.47,195.76 L 614.83,194.97 L 616.19,194.18 L 617.54,193.39 L 618.90,192.60 L 620.26,191.80 L 621.62,191.01 L 622.98,190.22 L 624.33,189.43 L 625.69,188.64 L 627.05,187.85 L 628.41,187.06 L 629.77,186.27 L 631.12,185.48 L 632.48,184.68 L 633.84,183.89 L 635.20,183.10 L 636.56,182.31 L 637.91,181.52 L 639.27,180.73 L 640.63,179.94"
     style="stroke:black;stroke-width:0.71;stroke-linecap:round;fill:none;stroke-dasharray: 5.67 5.67"
     id="path334" />
  <text
     x="-168.59859"
     y="658.15057"
     transform="matrix(0,-1,1,0,0,0)"
     style="font-size:10px;font-weight:normal;text-anchor:middle;fill:#000000;stroke:none;font-family:sanserif"
     id="text336">FIXED_P_OUT</text>
  <path
     d="M 640.63,196.61 L 640.63,196.40 L 640.63,196.18 L 640.63,195.96 L 640.63,195.73 L 640.63,195.49 L 640.63,195.24 L 640.63,194.98 L 640.63,194.71 L 640.63,194.44 L 640.63,194.16 L 640.63,193.86 L 640.63,193.56 L 640.63,193.24 L 640.63,192.92 L 640.63,192.58 L 640.63,192.24 L 640.63,191.88 L 640.63,191.51 L 640.63,191.13 L 640.63,190.74 L 640.63,190.34 L 640.63,189.92 L 640.63,189.49 L 640.63,189.05 L 640.63,188.59 L 640.63,188.12 L 640.63,187.63 L 640.63,187.13 L 640.63,186.62 L 640.63,186.09 L 640.63,185.55 L 640.63,184.99 L 640.63,184.41 L 640.63,183.82 L 640.63,183.22 L 640.63,182.59 L 640.63,181.96 L 640.63,181.30 L 640.63,180.63 L 640.63,179.94"
     style="stroke:black;stroke-width:0.71;stroke-linecap:round;fill:none"
     id="path338" />
  <path
     d="M 595.02,222.94 L 596.37,222.17 L 597.71,221.39 L 599.05,220.62 L 600.39,219.84 L 601.73,219.07 L 603.07,218.29 L 604.41,217.52 L 605.75,216.75 L 607.10,215.97 L 608.44,215.20 L 609.78,214.42 L 611.12,213.65 L 612.46,212.87 L 613.80,212.10 L 615.14,211.32 L 616.49,210.55 L 617.83,209.78 L 619.17,209.00 L 620.51,208.23 L 621.85,207.45 L 623.19,206.68 L 624.53,205.90 L 625.88,205.13 L 627.22,204.35 L 628.56,203.58 L 629.90,202.81 L 631.24,202.03 L 632.58,201.26 L 633.92,200.48 L 635.26,199.71 L 636.61,198.93 L 637.95,198.16 L 639.29,197.38 L 640.63,196.61"
     style="stroke:black;stroke-width:0.71;stroke-linecap:round;fill:none"
     id="path342" />
  <path
     d="M 595.02,222.94 L 595.02,222.74 L 595.01,222.53 L 595.00,222.31 L 594.99,222.09 L 594.99,221.86 L 594.98,221.61 L 594.97,221.37 L 594.96,221.11 L 594.95,220.84 L 594.94,220.57 L 594.93,220.29 L 594.92,219.99 L 594.91,219.69 L 594.90,219.38 L 594.89,219.05 L 594.88,218.72 L 594.86,218.37 L 594.85,218.02 L 594.84,217.65 L 594.82,217.27 L 594.81,216.88 L 594.80,216.48 L 594.78,216.06 L 594.77,215.63 L 594.75,215.19 L 594.74,214.74 L 594.72,214.27 L 594.70,213.79 L 594.68,213.29 L 594.67,212.78 L 594.65,212.25 L 594.63,211.71 L 594.61,211.16 L 594.59,210.59 L 594.57,210.00 L 594.55,209.40 L 594.53,208.78 L 594.50,208.15 L 594.48,207.50 L 594.46,206.83"
     style="stroke:black;stroke-width:0.71;stroke-linecap:round;fill:none;stroke-dasharray: 5.67 5.67"
     id="path344" />
  <!-- Render block 23
 -->
  <text
     x="619.24335"
     y="177.92792"
     style="font-size:10px;font-weight:normal;text-anchor:middle;fill:#000000;stroke:none;font-family:sanserif"
     id="text346">fl-5-1</text>
  <path
     d="M 593.10,168.18 L 594.49,167.34 L 595.89,166.51 L 597.29,165.68 L 598.69,164.85 L 600.09,164.02 L 601.48,163.19 L 602.88,162.36 L 604.28,161.53 L 605.68,160.69 L 607.08,159.86 L 608.47,159.03 L 609.87,158.20 L 611.27,157.37 L 612.67,156.54 L 614.07,155.71 L 615.47,154.88 L 616.86,154.05 L 618.26,153.21 L 619.66,152.38 L 621.06,151.55 L 622.46,150.72 L 623.85,149.89 L 625.25,149.06 L 626.65,148.23 L 628.05,147.40 L 629.45,146.57 L 630.84,145.73 L 632.24,144.90 L 633.64,144.07 L 635.04,143.24 L 636.44,142.41 L 637.83,141.58 L 639.23,140.75 L 640.63,139.92"
     style="stroke:black;stroke-width:0.71;stroke-linecap:round;fill:none"
     id="path350" />
  <path
     d="M 640.63,179.94 L 640.63,179.23 L 640.63,178.51 L 640.63,177.77 L 640.63,177.01 L 640.63,176.23 L 640.63,175.44 L 640.63,174.63 L 640.63,173.80 L 640.63,172.96 L 640.63,172.09 L 640.63,171.22 L 640.63,170.32 L 640.63,169.41 L 640.63,168.48 L 640.63,167.53 L 640.63,166.57 L 640.63,165.59 L 640.63,164.60 L 640.63,163.59 L 640.63,162.57 L 640.63,161.53 L 640.63,160.48 L 640.63,159.41 L 640.63,158.34 L 640.63,157.25 L 640.63,156.15 L 640.63,155.04 L 640.63,153.91 L 640.63,152.78 L 640.63,151.64 L 640.63,150.49 L 640.63,149.34 L 640.63,148.17 L 640.63,147.01 L 640.63,145.83 L 640.63,144.65 L 640.63,143.47 L 640.63,142.29 L 640.63,141.10 L 640.63,139.92"
     style="stroke:black;stroke-width:0.71;stroke-linecap:round;fill:none"
     id="path354" />
  <path
     d="M 594.46,206.83 L 595.82,206.04 L 597.17,205.25 L 598.53,204.46 L 599.89,203.67 L 601.25,202.88 L 602.61,202.09 L 603.96,201.30 L 605.32,200.51 L 606.68,199.71 L 608.04,198.92 L 609.40,198.13 L 610.75,197.34 L 612.11,196.55 L 613.47,195.76 L 614.83,194.97 L 616.19,194.18 L 617.54,193.39 L 618.90,192.60 L 620.26,191.80 L 621.62,191.01 L 622.98,190.22 L 624.33,189.43 L 625.69,188.64 L 627.05,187.85 L 628.41,187.06 L 629.77,186.27 L 631.12,185.48 L 632.48,184.68 L 633.84,183.89 L 635.20,183.10 L 636.56,182.31 L 637.91,181.52 L 639.27,180.73 L 640.63,179.94"
     style="stroke:black;stroke-width:0.71;stroke-linecap:round;fill:none;stroke-dasharray: 5.67 5.67"
     id="path356" />
  <path
     d="M 594.46,206.83 L 594.43,206.15 L 594.41,205.45 L 594.38,204.74 L 594.36,204.01 L 594.33,203.26 L 594.30,202.49 L 594.28,201.71 L 594.25,200.91 L 594.22,200.09 L 594.19,199.26 L 594.16,198.41 L 594.13,197.54 L 594.10,196.66 L 594.07,195.76 L 594.04,194.85 L 594.00,193.92 L 593.97,192.98 L 593.94,192.02 L 593.90,191.04 L 593.87,190.05 L 593.83,189.05 L 593.80,188.04 L 593.76,187.01 L 593.72,185.97 L 593.69,184.92 L 593.65,183.85 L 593.61,182.78 L 593.57,181.70 L 593.53,180.60 L 593.49,179.50 L 593.46,178.39 L 593.42,177.28 L 593.38,176.15 L 593.34,175.02 L 593.30,173.89 L 593.26,172.75 L 593.22,171.61 L 593.18,170.47 L 593.14,169.32 L 593.10,168.18"
     style="stroke:black;stroke-width:0.71;stroke-linecap:round;fill:none;stroke-dasharray: 5.67 5.67"
     id="path358" />
  <!-- end of drawing -->
</svg>
