<?xml version="1.0" encoding="UTF-8" standalone="no"?>
<svg
   xmlns:dc="http://purl.org/dc/elements/1.1/"
   xmlns:cc="http://creativecommons.org/ns#"
   xmlns:rdf="http://www.w3.org/1999/02/22-rdf-syntax-ns#"
   xmlns:svg="http://www.w3.org/2000/svg"
   xmlns="http://www.w3.org/2000/svg"
   xmlns:sodipodi="http://sodipodi.sourceforge.net/DTD/sodipodi-0.dtd"
   xmlns:inkscape="http://www.inkscape.org/namespaces/inkscape"
   width="566.93"
   height="566.93"
   version="1.0"
   id="svg2"
   inkscape:version="0.47pre4 r22446"
   sodipodi:docname="psl-layout.pdf">
  <metadata
     id="metadata124">
    <rdf:RDF>
      <cc:Work
         rdf:about="">
        <dc:format>image/svg+xml</dc:format>
        <dc:type
           rdf:resource="http://purl.org/dc/dcmitype/StillImage" />
        <dc:title>Periodic shear layer</dc:title>
      </cc:Work>
    </rdf:RDF>
  </metadata>
  <defs
     id="defs122">
    <inkscape:perspective
       sodipodi:type="inkscape:persp3d"
       inkscape:vp_x="0 : 283.465 : 1"
       inkscape:vp_y="0 : 1000 : 0"
       inkscape:vp_z="566.92999 : 283.465 : 1"
       inkscape:persp3d-origin="283.465 : 188.97666 : 1"
       id="perspective126" />
    <inkscape:perspective
       id="perspective2944"
       inkscape:persp3d-origin="0.5 : 0.33333333 : 1"
       inkscape:vp_z="1 : 0.5 : 1"
       inkscape:vp_y="0 : 1000 : 0"
       inkscape:vp_x="0 : 0.5 : 1"
       sodipodi:type="inkscape:persp3d" />
    <inkscape:perspective
       id="perspective2944-7"
       inkscape:persp3d-origin="0.5 : 0.33333333 : 1"
       inkscape:vp_z="1 : 0.5 : 1"
       inkscape:vp_y="0 : 1000 : 0"
       inkscape:vp_x="0 : 0.5 : 1"
       sodipodi:type="inkscape:persp3d" />
    <inkscape:perspective
       id="perspective2984"
       inkscape:persp3d-origin="0.5 : 0.33333333 : 1"
       inkscape:vp_z="1 : 0.5 : 1"
       inkscape:vp_y="0 : 1000 : 0"
       inkscape:vp_x="0 : 0.5 : 1"
       sodipodi:type="inkscape:persp3d" />
  </defs>
  <sodipodi:namedview
     pagecolor="#ffffff"
     bordercolor="#666666"
     borderopacity="1"
     objecttolerance="10"
     gridtolerance="10"
     guidetolerance="10"
     inkscape:pageopacity="0"
     inkscape:pageshadow="2"
     inkscape:window-width="1198"
     inkscape:window-height="809"
     id="namedview120"
     showgrid="false"
     inkscape:zoom="0.98072074"
     inkscape:cx="283.465"
     inkscape:cy="283.465"
     inkscape:window-x="0"
     inkscape:window-y="25"
     inkscape:window-maximized="0"
     inkscape:current-layer="svg2" />
  <title
     id="title4">Periodic shear layer</title>
  <desc
     id="desc6">SVG file written by e3prep.py</desc>
  <!-- drawing begins here -->
  <line
     x1="198.43"
     y1="459.21"
     x2="425.20"
     y2="459.21"
     style="stroke:black;stroke-width:1.42;stroke-linecap:round;fill:none"
     id="line8" />
  <text
     x="309.6134"
     y="487.6488"
     style="font-size:10px;font-weight:normal;text-anchor:start;fill:#000000;stroke:none;font-family:sanserif"
     id="text10">x</text>
  <line
     x1="198.43"
     y1="459.21"
     x2="198.43"
     y2="453.54"
     style="stroke:black;stroke-width:1.42;stroke-linecap:round;fill:none"
     id="line12" />
  <text
     x="198.43"
     y="473.39"
     style="font-size:10;text-anchor:middle;fill:black;stroke:none;font-weight:normal;font-family:sanserif"
     id="text14">-0.1</text>
  <line
     x1="255.12"
     y1="459.21"
     x2="255.12"
     y2="453.54"
     style="stroke:black;stroke-width:1.42;stroke-linecap:round;fill:none"
     id="line16" />
  <text
     x="255.12"
     y="473.39"
     style="font-size:10;text-anchor:middle;fill:black;stroke:none;font-weight:normal;font-family:sanserif"
     id="text18">-0.05</text>
  <line
     x1="311.81"
     y1="459.21"
     x2="311.81"
     y2="453.54"
     style="stroke:black;stroke-width:1.42;stroke-linecap:round;fill:none"
     id="line20" />
  <text
     x="311.81"
     y="473.39"
     style="font-size:10;text-anchor:middle;fill:black;stroke:none;font-weight:normal;font-family:sanserif"
     id="text22">0</text>
  <line
     x1="368.50"
     y1="459.21"
     x2="368.50"
     y2="453.54"
     style="stroke:black;stroke-width:1.42;stroke-linecap:round;fill:none"
     id="line24" />
  <text
     x="368.50"
     y="473.39"
     style="font-size:10;text-anchor:middle;fill:black;stroke:none;font-weight:normal;font-family:sanserif"
     id="text26">0.05</text>
  <line
     x1="425.20"
     y1="459.21"
     x2="425.20"
     y2="453.54"
     style="stroke:black;stroke-width:1.42;stroke-linecap:round;fill:none"
     id="line28" />
  <text
     x="425.20"
     y="473.39"
     style="font-size:10;text-anchor:middle;fill:black;stroke:none;font-weight:normal;font-family:sanserif"
     id="text30">0.1</text>
  <line
     x1="164.41"
     y1="425.20"
     x2="164.41"
     y2="85.04"
     style="stroke:black;stroke-width:1.42;stroke-linecap:round;fill:none"
     id="line32" />
  <text
     x="122.69286"
     y="254.3878"
     style="font-size:10px;font-weight:normal;text-anchor:end;fill:#000000;stroke:none;font-family:sanserif"
     id="text34">y</text>
  <line
     x1="164.41"
     y1="425.20"
     x2="170.08"
     y2="425.20"
     style="stroke:black;stroke-width:1.42;stroke-linecap:round;fill:none"
     id="line36" />
  <text
     x="155.91"
     y="425.20"
     style="font-size:10;text-anchor:end;fill:black;stroke:none;font-weight:normal;font-family:sanserif"
     id="text38">-0.15</text>
  <line
     x1="164.41"
     y1="368.50"
     x2="170.08"
     y2="368.50"
     style="stroke:black;stroke-width:1.42;stroke-linecap:round;fill:none"
     id="line40" />
  <text
     x="155.91"
     y="368.50"
     style="font-size:10;text-anchor:end;fill:black;stroke:none;font-weight:normal;font-family:sanserif"
     id="text42">-0.1</text>
  <line
     x1="164.41"
     y1="311.81"
     x2="170.08"
     y2="311.81"
     style="stroke:black;stroke-width:1.42;stroke-linecap:round;fill:none"
     id="line44" />
  <text
     x="155.91"
     y="311.81"
     style="font-size:10;text-anchor:end;fill:black;stroke:none;font-weight:normal;font-family:sanserif"
     id="text46">-0.05</text>
  <line
     x1="164.41"
     y1="255.12"
     x2="170.08"
     y2="255.12"
     style="stroke:black;stroke-width:1.42;stroke-linecap:round;fill:none"
     id="line48" />
  <text
     x="155.91"
     y="255.12"
     style="font-size:10;text-anchor:end;fill:black;stroke:none;font-weight:normal;font-family:sanserif"
     id="text50">0</text>
  <line
     x1="164.41"
     y1="198.43"
     x2="170.08"
     y2="198.43"
     style="stroke:black;stroke-width:1.42;stroke-linecap:round;fill:none"
     id="line52" />
  <text
     x="155.91"
     y="198.43"
     style="font-size:10;text-anchor:end;fill:black;stroke:none;font-weight:normal;font-family:sanserif"
     id="text54">0.05</text>
  <line
     x1="164.41"
     y1="141.73"
     x2="170.08"
     y2="141.73"
     style="stroke:black;stroke-width:1.42;stroke-linecap:round;fill:none"
     id="line56" />
  <text
     x="155.91"
     y="141.73"
     style="font-size:10;text-anchor:end;fill:black;stroke:none;font-weight:normal;font-family:sanserif"
     id="text58">0.1</text>
  <line
     x1="164.41"
     y1="85.04"
     x2="170.08"
     y2="85.04"
     style="stroke:black;stroke-width:1.42;stroke-linecap:round;fill:none"
     id="line60" />
  <text
     x="155.91"
     y="85.04"
     style="font-size:10;text-anchor:end;fill:black;stroke:none;font-weight:normal;font-family:sanserif"
     id="text62">0.15</text>
  <!-- There are 4 nodes
 -->
  <circle
     cx="198.43"
     cy="425.20"
     r="2.83"
     style="fill:black"
     id="circle64" />
  <circle
     cx="198.43"
     cy="85.04"
     r="2.83"
     style="fill:black"
     id="circle66" />
  <circle
     cx="425.20"
     cy="425.20"
     r="2.83"
     style="fill:black"
     id="circle68" />
  <circle
     cx="425.20"
     cy="85.04"
     r="2.83"
     style="fill:black"
     id="circle70" />
  <!-- There are 4 blocks
 -->
  <!-- Render block 0
 -->
  <text
     x="252.8956"
     y="342.56229"
     style="font-size:10px;font-weight:normal;text-anchor:middle;fill:#000000;stroke:none;font-family:sanserif"
     id="text72">blk-0-0</text>
  <path
     d="M 198.43,255.12 L 199.94,255.12 L 201.45,255.12 L 202.96,255.12 L 204.47,255.12 L 205.98,255.12 L 207.50,255.12 L 209.01,255.12 L 210.52,255.12 L 212.03,255.12 L 213.54,255.12 L 215.06,255.12 L 216.57,255.12 L 218.08,255.12 L 219.59,255.12 L 221.10,255.12 L 222.61,255.12 L 224.13,255.12 L 225.64,255.12 L 227.15,255.12 L 228.66,255.12 L 230.17,255.12 L 231.69,255.12 L 233.20,255.12 L 234.71,255.12 L 236.22,255.12 L 237.73,255.12 L 239.24,255.12 L 240.76,255.12 L 242.27,255.12 L 243.78,255.12 L 245.29,255.12 L 246.80,255.12 L 248.31,255.12 L 249.83,255.12 L 251.34,255.12 L 252.85,255.12 L 254.36,255.12 L 255.87,255.12 L 257.39,255.12 L 258.90,255.12 L 260.41,255.12 L 261.92,255.12 L 263.43,255.12 L 264.94,255.12 L 266.46,255.12 L 267.97,255.12 L 269.48,255.12 L 270.99,255.12 L 272.50,255.12 L 274.02,255.12 L 275.53,255.12 L 277.04,255.12 L 278.55,255.12 L 280.06,255.12 L 281.57,255.12 L 283.09,255.12 L 284.60,255.12 L 286.11,255.12 L 287.62,255.12 L 289.13,255.12 L 290.65,255.12 L 292.16,255.12 L 293.67,255.12 L 295.18,255.12 L 296.69,255.12 L 298.20,255.12 L 299.72,255.12 L 301.23,255.12 L 302.74,255.12 L 304.25,255.12 L 305.76,255.12 L 307.28,255.12 L 308.79,255.12 L 310.30,255.12 L 311.81,255.12"
     style="stroke:black;stroke-width:0.71;stroke-linecap:round;fill:none;stroke-dasharray: 5.67 5.67"
     id="path74" />
  <path
     d="M 311.81,425.20 L 311.81,424.06 L 311.81,422.93 L 311.81,421.80 L 311.81,420.66 L 311.81,419.53 L 311.81,418.39 L 311.81,417.26 L 311.81,416.13 L 311.81,414.99 L 311.81,413.86 L 311.81,412.72 L 311.81,411.59 L 311.81,410.46 L 311.81,409.32 L 311.81,408.19 L 311.81,407.06 L 311.81,405.92 L 311.81,404.79 L 311.81,403.65 L 311.81,402.52 L 311.81,401.39 L 311.81,400.25 L 311.81,399.12 L 311.81,397.98 L 311.81,396.85 L 311.81,395.72 L 311.81,394.58 L 311.81,393.45 L 311.81,392.31 L 311.81,391.18 L 311.81,390.05 L 311.81,388.91 L 311.81,387.78 L 311.81,386.65 L 311.81,385.51 L 311.81,384.38 L 311.81,383.24 L 311.81,382.11 L 311.81,380.98 L 311.81,379.84 L 311.81,378.71 L 311.81,377.57 L 311.81,376.44 L 311.81,375.31 L 311.81,374.17 L 311.81,373.04 L 311.81,371.91 L 311.81,370.77 L 311.81,369.64 L 311.81,368.50 L 311.81,367.37 L 311.81,366.24 L 311.81,365.10 L 311.81,363.97 L 311.81,362.83 L 311.81,361.70 L 311.81,360.57 L 311.81,359.43 L 311.81,358.30 L 311.81,357.17 L 311.81,356.03 L 311.81,354.90 L 311.81,353.76 L 311.81,352.63 L 311.81,351.50 L 311.81,350.36 L 311.81,349.23 L 311.81,348.09 L 311.81,346.96 L 311.81,345.83 L 311.81,344.69 L 311.81,343.56 L 311.81,342.43 L 311.81,341.29 L 311.81,340.16 L 311.81,339.02 L 311.81,337.89 L 311.81,336.76 L 311.81,335.62 L 311.81,334.49 L 311.81,333.35 L 311.81,332.22 L 311.81,331.09 L 311.81,329.95 L 311.81,328.82 L 311.81,327.69 L 311.81,326.55 L 311.81,325.42 L 311.81,324.28 L 311.81,323.15 L 311.81,322.02 L 311.81,320.88 L 311.81,319.75 L 311.81,318.61 L 311.81,317.48 L 311.81,316.35 L 311.81,315.21 L 311.81,314.08 L 311.81,312.94 L 311.81,311.81 L 311.81,310.68 L 311.81,309.54 L 311.81,308.41 L 311.81,307.28 L 311.81,306.14 L 311.81,305.01 L 311.81,303.87 L 311.81,302.74 L 311.81,301.61 L 311.81,300.47 L 311.81,299.34 L 311.81,298.20 L 311.81,297.07 L 311.81,295.94 L 311.81,294.80 L 311.81,293.67 L 311.81,292.54 L 311.81,291.40 L 311.81,290.27 L 311.81,289.13 L 311.81,288.00 L 311.81,286.87 L 311.81,285.73 L 311.81,284.60 L 311.81,283.46 L 311.81,282.33 L 311.81,281.20 L 311.81,280.06 L 311.81,278.93 L 311.81,277.80 L 311.81,276.66 L 311.81,275.53 L 311.81,274.39 L 311.81,273.26 L 311.81,272.13 L 311.81,270.99 L 311.81,269.86 L 311.81,268.72 L 311.81,267.59 L 311.81,266.46 L 311.81,265.32 L 311.81,264.19 L 311.81,263.06 L 311.81,261.92 L 311.81,260.79 L 311.81,259.65 L 311.81,258.52 L 311.81,257.39 L 311.81,256.25 L 311.81,255.12"
     style="stroke:black;stroke-width:0.71;stroke-linecap:round;fill:none;stroke-dasharray: 5.67 5.67"
     id="path76" />
  <text
     x="254.27354"
     y="436.25909"
     style="font-size:10px;font-weight:normal;text-anchor:middle;fill:#000000;stroke:none;font-family:sanserif"
     id="text78">SLIP_WALL</text>
  <path
     d="M 198.43,425.20 L 199.94,425.20 L 201.45,425.20 L 202.96,425.20 L 204.47,425.20 L 205.98,425.20 L 207.50,425.20 L 209.01,425.20 L 210.52,425.20 L 212.03,425.20 L 213.54,425.20 L 215.06,425.20 L 216.57,425.20 L 218.08,425.20 L 219.59,425.20 L 221.10,425.20 L 222.61,425.20 L 224.13,425.20 L 225.64,425.20 L 227.15,425.20 L 228.66,425.20 L 230.17,425.20 L 231.69,425.20 L 233.20,425.20 L 234.71,425.20 L 236.22,425.20 L 237.73,425.20 L 239.24,425.20 L 240.76,425.20 L 242.27,425.20 L 243.78,425.20 L 245.29,425.20 L 246.80,425.20 L 248.31,425.20 L 249.83,425.20 L 251.34,425.20 L 252.85,425.20 L 254.36,425.20 L 255.87,425.20 L 257.39,425.20 L 258.90,425.20 L 260.41,425.20 L 261.92,425.20 L 263.43,425.20 L 264.94,425.20 L 266.46,425.20 L 267.97,425.20 L 269.48,425.20 L 270.99,425.20 L 272.50,425.20 L 274.02,425.20 L 275.53,425.20 L 277.04,425.20 L 278.55,425.20 L 280.06,425.20 L 281.57,425.20 L 283.09,425.20 L 284.60,425.20 L 286.11,425.20 L 287.62,425.20 L 289.13,425.20 L 290.65,425.20 L 292.16,425.20 L 293.67,425.20 L 295.18,425.20 L 296.69,425.20 L 298.20,425.20 L 299.72,425.20 L 301.23,425.20 L 302.74,425.20 L 304.25,425.20 L 305.76,425.20 L 307.28,425.20 L 308.79,425.20 L 310.30,425.20 L 311.81,425.20"
     style="stroke:black;stroke-width:0.71;stroke-linecap:round;fill:none"
     id="path80" />
  <path
     d="M 198.43,425.20 L 198.43,424.06 L 198.43,422.93 L 198.43,421.80 L 198.43,420.66 L 198.43,419.53 L 198.43,418.39 L 198.43,417.26 L 198.43,416.13 L 198.43,414.99 L 198.43,413.86 L 198.43,412.72 L 198.43,411.59 L 198.43,410.46 L 198.43,409.32 L 198.43,408.19 L 198.43,407.06 L 198.43,405.92 L 198.43,404.79 L 198.43,403.65 L 198.43,402.52 L 198.43,401.39 L 198.43,400.25 L 198.43,399.12 L 198.43,397.98 L 198.43,396.85 L 198.43,395.72 L 198.43,394.58 L 198.43,393.45 L 198.43,392.31 L 198.43,391.18 L 198.43,390.05 L 198.43,388.91 L 198.43,387.78 L 198.43,386.65 L 198.43,385.51 L 198.43,384.38 L 198.43,383.24 L 198.43,382.11 L 198.43,380.98 L 198.43,379.84 L 198.43,378.71 L 198.43,377.57 L 198.43,376.44 L 198.43,375.31 L 198.43,374.17 L 198.43,373.04 L 198.43,371.91 L 198.43,370.77 L 198.43,369.64 L 198.43,368.50 L 198.43,367.37 L 198.43,366.24 L 198.43,365.10 L 198.43,363.97 L 198.43,362.83 L 198.43,361.70 L 198.43,360.57 L 198.43,359.43 L 198.43,358.30 L 198.43,357.17 L 198.43,356.03 L 198.43,354.90 L 198.43,353.76 L 198.43,352.63 L 198.43,351.50 L 198.43,350.36 L 198.43,349.23 L 198.43,348.09 L 198.43,346.96 L 198.43,345.83 L 198.43,344.69 L 198.43,343.56 L 198.43,342.43 L 198.43,341.29 L 198.43,340.16 L 198.43,339.02 L 198.43,337.89 L 198.43,336.76 L 198.43,335.62 L 198.43,334.49 L 198.43,333.35 L 198.43,332.22 L 198.43,331.09 L 198.43,329.95 L 198.43,328.82 L 198.43,327.69 L 198.43,326.55 L 198.43,325.42 L 198.43,324.28 L 198.43,323.15 L 198.43,322.02 L 198.43,320.88 L 198.43,319.75 L 198.43,318.61 L 198.43,317.48 L 198.43,316.35 L 198.43,315.21 L 198.43,314.08 L 198.43,312.94 L 198.43,311.81 L 198.43,310.68 L 198.43,309.54 L 198.43,308.41 L 198.43,307.28 L 198.43,306.14 L 198.43,305.01 L 198.43,303.87 L 198.43,302.74 L 198.43,301.61 L 198.43,300.47 L 198.43,299.34 L 198.43,298.20 L 198.43,297.07 L 198.43,295.94 L 198.43,294.80 L 198.43,293.67 L 198.43,292.54 L 198.43,291.40 L 198.43,290.27 L 198.43,289.13 L 198.43,288.00 L 198.43,286.87 L 198.43,285.73 L 198.43,284.60 L 198.43,283.46 L 198.43,282.33 L 198.43,281.20 L 198.43,280.06 L 198.43,278.93 L 198.43,277.80 L 198.43,276.66 L 198.43,275.53 L 198.43,274.39 L 198.43,273.26 L 198.43,272.13 L 198.43,270.99 L 198.43,269.86 L 198.43,268.72 L 198.43,267.59 L 198.43,266.46 L 198.43,265.32 L 198.43,264.19 L 198.43,263.06 L 198.43,261.92 L 198.43,260.79 L 198.43,259.65 L 198.43,258.52 L 198.43,257.39 L 198.43,256.25 L 198.43,255.12"
     style="stroke:black;stroke-width:0.71;stroke-linecap:round;fill:none;stroke-dasharray: 5.67 5.67"
     id="path82" />
  <!-- Render block 1
 -->
  <text
     x="254.36"
     y="166.62471"
     style="font-size:10px;font-weight:normal;text-anchor:middle;fill:#000000;stroke:none;font-family:sanserif"
     id="text84">blk-0-1</text>
  <text
     x="253.24538"
     y="79.388283"
     style="font-size:10px;font-weight:normal;text-anchor:middle;fill:#000000;stroke:none;font-family:sanserif"
     id="text86">SLIP_WALL</text>
  <path
     d="M 198.43,85.04 L 199.94,85.04 L 201.45,85.04 L 202.96,85.04 L 204.47,85.04 L 205.98,85.04 L 207.50,85.04 L 209.01,85.04 L 210.52,85.04 L 212.03,85.04 L 213.54,85.04 L 215.06,85.04 L 216.57,85.04 L 218.08,85.04 L 219.59,85.04 L 221.10,85.04 L 222.61,85.04 L 224.13,85.04 L 225.64,85.04 L 227.15,85.04 L 228.66,85.04 L 230.17,85.04 L 231.69,85.04 L 233.20,85.04 L 234.71,85.04 L 236.22,85.04 L 237.73,85.04 L 239.24,85.04 L 240.76,85.04 L 242.27,85.04 L 243.78,85.04 L 245.29,85.04 L 246.80,85.04 L 248.31,85.04 L 249.83,85.04 L 251.34,85.04 L 252.85,85.04 L 254.36,85.04 L 255.87,85.04 L 257.39,85.04 L 258.90,85.04 L 260.41,85.04 L 261.92,85.04 L 263.43,85.04 L 264.94,85.04 L 266.46,85.04 L 267.97,85.04 L 269.48,85.04 L 270.99,85.04 L 272.50,85.04 L 274.02,85.04 L 275.53,85.04 L 277.04,85.04 L 278.55,85.04 L 280.06,85.04 L 281.57,85.04 L 283.09,85.04 L 284.60,85.04 L 286.11,85.04 L 287.62,85.04 L 289.13,85.04 L 290.65,85.04 L 292.16,85.04 L 293.67,85.04 L 295.18,85.04 L 296.69,85.04 L 298.20,85.04 L 299.72,85.04 L 301.23,85.04 L 302.74,85.04 L 304.25,85.04 L 305.76,85.04 L 307.28,85.04 L 308.79,85.04 L 310.30,85.04 L 311.81,85.04"
     style="stroke:black;stroke-width:0.71;stroke-linecap:round;fill:none"
     id="path88" />
  <path
     d="M 311.81,255.12 L 311.81,253.98 L 311.81,252.85 L 311.81,251.72 L 311.81,250.58 L 311.81,249.45 L 311.81,248.31 L 311.81,247.18 L 311.81,246.05 L 311.81,244.91 L 311.81,243.78 L 311.81,242.65 L 311.81,241.51 L 311.81,240.38 L 311.81,239.24 L 311.81,238.11 L 311.81,236.98 L 311.81,235.84 L 311.81,234.71 L 311.81,233.57 L 311.81,232.44 L 311.81,231.31 L 311.81,230.17 L 311.81,229.04 L 311.81,227.91 L 311.81,226.77 L 311.81,225.64 L 311.81,224.50 L 311.81,223.37 L 311.81,222.24 L 311.81,221.10 L 311.81,219.97 L 311.81,218.83 L 311.81,217.70 L 311.81,216.57 L 311.81,215.43 L 311.81,214.30 L 311.81,213.17 L 311.81,212.03 L 311.81,210.90 L 311.81,209.76 L 311.81,208.63 L 311.81,207.50 L 311.81,206.36 L 311.81,205.23 L 311.81,204.09 L 311.81,202.96 L 311.81,201.83 L 311.81,200.69 L 311.81,199.56 L 311.81,198.43 L 311.81,197.29 L 311.81,196.16 L 311.81,195.02 L 311.81,193.89 L 311.81,192.76 L 311.81,191.62 L 311.81,190.49 L 311.81,189.35 L 311.81,188.22 L 311.81,187.09 L 311.81,185.95 L 311.81,184.82 L 311.81,183.69 L 311.81,182.55 L 311.81,181.42 L 311.81,180.28 L 311.81,179.15 L 311.81,178.02 L 311.81,176.88 L 311.81,175.75 L 311.81,174.61 L 311.81,173.48 L 311.81,172.35 L 311.81,171.21 L 311.81,170.08 L 311.81,168.94 L 311.81,167.81 L 311.81,166.68 L 311.81,165.54 L 311.81,164.41 L 311.81,163.28 L 311.81,162.14 L 311.81,161.01 L 311.81,159.87 L 311.81,158.74 L 311.81,157.61 L 311.81,156.47 L 311.81,155.34 L 311.81,154.20 L 311.81,153.07 L 311.81,151.94 L 311.81,150.80 L 311.81,149.67 L 311.81,148.54 L 311.81,147.40 L 311.81,146.27 L 311.81,145.13 L 311.81,144.00 L 311.81,142.87 L 311.81,141.73 L 311.81,140.60 L 311.81,139.46 L 311.81,138.33 L 311.81,137.20 L 311.81,136.06 L 311.81,134.93 L 311.81,133.80 L 311.81,132.66 L 311.81,131.53 L 311.81,130.39 L 311.81,129.26 L 311.81,128.13 L 311.81,126.99 L 311.81,125.86 L 311.81,124.72 L 311.81,123.59 L 311.81,122.46 L 311.81,121.32 L 311.81,120.19 L 311.81,119.06 L 311.81,117.92 L 311.81,116.79 L 311.81,115.65 L 311.81,114.52 L 311.81,113.39 L 311.81,112.25 L 311.81,111.12 L 311.81,109.98 L 311.81,108.85 L 311.81,107.72 L 311.81,106.58 L 311.81,105.45 L 311.81,104.31 L 311.81,103.18 L 311.81,102.05 L 311.81,100.91 L 311.81,99.78 L 311.81,98.65 L 311.81,97.51 L 311.81,96.38 L 311.81,95.24 L 311.81,94.11 L 311.81,92.98 L 311.81,91.84 L 311.81,90.71 L 311.81,89.57 L 311.81,88.44 L 311.81,87.31 L 311.81,86.17 L 311.81,85.04"
     style="stroke:black;stroke-width:0.71;stroke-linecap:round;fill:none;stroke-dasharray: 5.67 5.67"
     id="path90" />
  <path
     d="M 198.43,255.12 L 199.94,255.12 L 201.45,255.12 L 202.96,255.12 L 204.47,255.12 L 205.98,255.12 L 207.50,255.12 L 209.01,255.12 L 210.52,255.12 L 212.03,255.12 L 213.54,255.12 L 215.06,255.12 L 216.57,255.12 L 218.08,255.12 L 219.59,255.12 L 221.10,255.12 L 222.61,255.12 L 224.13,255.12 L 225.64,255.12 L 227.15,255.12 L 228.66,255.12 L 230.17,255.12 L 231.69,255.12 L 233.20,255.12 L 234.71,255.12 L 236.22,255.12 L 237.73,255.12 L 239.24,255.12 L 240.76,255.12 L 242.27,255.12 L 243.78,255.12 L 245.29,255.12 L 246.80,255.12 L 248.31,255.12 L 249.83,255.12 L 251.34,255.12 L 252.85,255.12 L 254.36,255.12 L 255.87,255.12 L 257.39,255.12 L 258.90,255.12 L 260.41,255.12 L 261.92,255.12 L 263.43,255.12 L 264.94,255.12 L 266.46,255.12 L 267.97,255.12 L 269.48,255.12 L 270.99,255.12 L 272.50,255.12 L 274.02,255.12 L 275.53,255.12 L 277.04,255.12 L 278.55,255.12 L 280.06,255.12 L 281.57,255.12 L 283.09,255.12 L 284.60,255.12 L 286.11,255.12 L 287.62,255.12 L 289.13,255.12 L 290.65,255.12 L 292.16,255.12 L 293.67,255.12 L 295.18,255.12 L 296.69,255.12 L 298.20,255.12 L 299.72,255.12 L 301.23,255.12 L 302.74,255.12 L 304.25,255.12 L 305.76,255.12 L 307.28,255.12 L 308.79,255.12 L 310.30,255.12 L 311.81,255.12"
     style="stroke:black;stroke-width:0.71;stroke-linecap:round;fill:none;stroke-dasharray: 5.67 5.67"
     id="path92" />
  <path
     d="M 198.43,255.12 L 198.43,253.98 L 198.43,252.85 L 198.43,251.72 L 198.43,250.58 L 198.43,249.45 L 198.43,248.31 L 198.43,247.18 L 198.43,246.05 L 198.43,244.91 L 198.43,243.78 L 198.43,242.65 L 198.43,241.51 L 198.43,240.38 L 198.43,239.24 L 198.43,238.11 L 198.43,236.98 L 198.43,235.84 L 198.43,234.71 L 198.43,233.57 L 198.43,232.44 L 198.43,231.31 L 198.43,230.17 L 198.43,229.04 L 198.43,227.91 L 198.43,226.77 L 198.43,225.64 L 198.43,224.50 L 198.43,223.37 L 198.43,222.24 L 198.43,221.10 L 198.43,219.97 L 198.43,218.83 L 198.43,217.70 L 198.43,216.57 L 198.43,215.43 L 198.43,214.30 L 198.43,213.17 L 198.43,212.03 L 198.43,210.90 L 198.43,209.76 L 198.43,208.63 L 198.43,207.50 L 198.43,206.36 L 198.43,205.23 L 198.43,204.09 L 198.43,202.96 L 198.43,201.83 L 198.43,200.69 L 198.43,199.56 L 198.43,198.43 L 198.43,197.29 L 198.43,196.16 L 198.43,195.02 L 198.43,193.89 L 198.43,192.76 L 198.43,191.62 L 198.43,190.49 L 198.43,189.35 L 198.43,188.22 L 198.43,187.09 L 198.43,185.95 L 198.43,184.82 L 198.43,183.69 L 198.43,182.55 L 198.43,181.42 L 198.43,180.28 L 198.43,179.15 L 198.43,178.02 L 198.43,176.88 L 198.43,175.75 L 198.43,174.61 L 198.43,173.48 L 198.43,172.35 L 198.43,171.21 L 198.43,170.08 L 198.43,168.94 L 198.43,167.81 L 198.43,166.68 L 198.43,165.54 L 198.43,164.41 L 198.43,163.28 L 198.43,162.14 L 198.43,161.01 L 198.43,159.87 L 198.43,158.74 L 198.43,157.61 L 198.43,156.47 L 198.43,155.34 L 198.43,154.20 L 198.43,153.07 L 198.43,151.94 L 198.43,150.80 L 198.43,149.67 L 198.43,148.54 L 198.43,147.40 L 198.43,146.27 L 198.43,145.13 L 198.43,144.00 L 198.43,142.87 L 198.43,141.73 L 198.43,140.60 L 198.43,139.46 L 198.43,138.33 L 198.43,137.20 L 198.43,136.06 L 198.43,134.93 L 198.43,133.80 L 198.43,132.66 L 198.43,131.53 L 198.43,130.39 L 198.43,129.26 L 198.43,128.13 L 198.43,126.99 L 198.43,125.86 L 198.43,124.72 L 198.43,123.59 L 198.43,122.46 L 198.43,121.32 L 198.43,120.19 L 198.43,119.06 L 198.43,117.92 L 198.43,116.79 L 198.43,115.65 L 198.43,114.52 L 198.43,113.39 L 198.43,112.25 L 198.43,111.12 L 198.43,109.98 L 198.43,108.85 L 198.43,107.72 L 198.43,106.58 L 198.43,105.45 L 198.43,104.31 L 198.43,103.18 L 198.43,102.05 L 198.43,100.91 L 198.43,99.78 L 198.43,98.65 L 198.43,97.51 L 198.43,96.38 L 198.43,95.24 L 198.43,94.11 L 198.43,92.98 L 198.43,91.84 L 198.43,90.71 L 198.43,89.57 L 198.43,88.44 L 198.43,87.31 L 198.43,86.17 L 198.43,85.04"
     style="stroke:black;stroke-width:0.71;stroke-linecap:round;fill:none;stroke-dasharray: 5.67 5.67"
     id="path94" />
  <!-- Render block 2
 -->
  <text
     x="367.01779"
     y="342.56229"
     style="font-size:10px;font-weight:normal;text-anchor:middle;fill:#000000;stroke:none;font-family:sanserif"
     id="text96">blk-1-0</text>
  <path
     d="M 311.81,255.12 L 313.32,255.12 L 314.83,255.12 L 316.35,255.12 L 317.86,255.12 L 319.37,255.12 L 320.88,255.12 L 322.39,255.12 L 323.91,255.12 L 325.42,255.12 L 326.93,255.12 L 328.44,255.12 L 329.95,255.12 L 331.46,255.12 L 332.98,255.12 L 334.49,255.12 L 336.00,255.12 L 337.51,255.12 L 339.02,255.12 L 340.54,255.12 L 342.05,255.12 L 343.56,255.12 L 345.07,255.12 L 346.58,255.12 L 348.09,255.12 L 349.61,255.12 L 351.12,255.12 L 352.63,255.12 L 354.14,255.12 L 355.65,255.12 L 357.17,255.12 L 358.68,255.12 L 360.19,255.12 L 361.70,255.12 L 363.21,255.12 L 364.72,255.12 L 366.24,255.12 L 367.75,255.12 L 369.26,255.12 L 370.77,255.12 L 372.28,255.12 L 373.80,255.12 L 375.31,255.12 L 376.82,255.12 L 378.33,255.12 L 379.84,255.12 L 381.35,255.12 L 382.87,255.12 L 384.38,255.12 L 385.89,255.12 L 387.40,255.12 L 388.91,255.12 L 390.43,255.12 L 391.94,255.12 L 393.45,255.12 L 394.96,255.12 L 396.47,255.12 L 397.98,255.12 L 399.50,255.12 L 401.01,255.12 L 402.52,255.12 L 404.03,255.12 L 405.54,255.12 L 407.06,255.12 L 408.57,255.12 L 410.08,255.12 L 411.59,255.12 L 413.10,255.12 L 414.61,255.12 L 416.13,255.12 L 417.64,255.12 L 419.15,255.12 L 420.66,255.12 L 422.17,255.12 L 423.69,255.12 L 425.20,255.12"
     style="stroke:black;stroke-width:0.71;stroke-linecap:round;fill:none;stroke-dasharray: 5.67 5.67"
     id="path98" />
  <path
     d="M 425.20,425.20 L 425.20,424.06 L 425.20,422.93 L 425.20,421.80 L 425.20,420.66 L 425.20,419.53 L 425.20,418.39 L 425.20,417.26 L 425.20,416.13 L 425.20,414.99 L 425.20,413.86 L 425.20,412.72 L 425.20,411.59 L 425.20,410.46 L 425.20,409.32 L 425.20,408.19 L 425.20,407.06 L 425.20,405.92 L 425.20,404.79 L 425.20,403.65 L 425.20,402.52 L 425.20,401.39 L 425.20,400.25 L 425.20,399.12 L 425.20,397.98 L 425.20,396.85 L 425.20,395.72 L 425.20,394.58 L 425.20,393.45 L 425.20,392.31 L 425.20,391.18 L 425.20,390.05 L 425.20,388.91 L 425.20,387.78 L 425.20,386.65 L 425.20,385.51 L 425.20,384.38 L 425.20,383.24 L 425.20,382.11 L 425.20,380.98 L 425.20,379.84 L 425.20,378.71 L 425.20,377.57 L 425.20,376.44 L 425.20,375.31 L 425.20,374.17 L 425.20,373.04 L 425.20,371.91 L 425.20,370.77 L 425.20,369.64 L 425.20,368.50 L 425.20,367.37 L 425.20,366.24 L 425.20,365.10 L 425.20,363.97 L 425.20,362.83 L 425.20,361.70 L 425.20,360.57 L 425.20,359.43 L 425.20,358.30 L 425.20,357.17 L 425.20,356.03 L 425.20,354.90 L 425.20,353.76 L 425.20,352.63 L 425.20,351.50 L 425.20,350.36 L 425.20,349.23 L 425.20,348.09 L 425.20,346.96 L 425.20,345.83 L 425.20,344.69 L 425.20,343.56 L 425.20,342.43 L 425.20,341.29 L 425.20,340.16 L 425.20,339.02 L 425.20,337.89 L 425.20,336.76 L 425.20,335.62 L 425.20,334.49 L 425.20,333.35 L 425.20,332.22 L 425.20,331.09 L 425.20,329.95 L 425.20,328.82 L 425.20,327.69 L 425.20,326.55 L 425.20,325.42 L 425.20,324.28 L 425.20,323.15 L 425.20,322.02 L 425.20,320.88 L 425.20,319.75 L 425.20,318.61 L 425.20,317.48 L 425.20,316.35 L 425.20,315.21 L 425.20,314.08 L 425.20,312.94 L 425.20,311.81 L 425.20,310.68 L 425.20,309.54 L 425.20,308.41 L 425.20,307.28 L 425.20,306.14 L 425.20,305.01 L 425.20,303.87 L 425.20,302.74 L 425.20,301.61 L 425.20,300.47 L 425.20,299.34 L 425.20,298.20 L 425.20,297.07 L 425.20,295.94 L 425.20,294.80 L 425.20,293.67 L 425.20,292.54 L 425.20,291.40 L 425.20,290.27 L 425.20,289.13 L 425.20,288.00 L 425.20,286.87 L 425.20,285.73 L 425.20,284.60 L 425.20,283.46 L 425.20,282.33 L 425.20,281.20 L 425.20,280.06 L 425.20,278.93 L 425.20,277.80 L 425.20,276.66 L 425.20,275.53 L 425.20,274.39 L 425.20,273.26 L 425.20,272.13 L 425.20,270.99 L 425.20,269.86 L 425.20,268.72 L 425.20,267.59 L 425.20,266.46 L 425.20,265.32 L 425.20,264.19 L 425.20,263.06 L 425.20,261.92 L 425.20,260.79 L 425.20,259.65 L 425.20,258.52 L 425.20,257.39 L 425.20,256.25 L 425.20,255.12"
     style="stroke:black;stroke-width:0.71;stroke-linecap:round;fill:none;stroke-dasharray: 5.67 5.67"
     id="path100" />
  <text
     x="367.43234"
     y="435.81674"
     style="font-size:10px;font-weight:normal;text-anchor:middle;fill:#000000;stroke:none;font-family:sanserif"
     id="text102">SLIP_WALL</text>
  <path
     d="M 311.81,425.20 L 313.32,425.20 L 314.83,425.20 L 316.35,425.20 L 317.86,425.20 L 319.37,425.20 L 320.88,425.20 L 322.39,425.20 L 323.91,425.20 L 325.42,425.20 L 326.93,425.20 L 328.44,425.20 L 329.95,425.20 L 331.46,425.20 L 332.98,425.20 L 334.49,425.20 L 336.00,425.20 L 337.51,425.20 L 339.02,425.20 L 340.54,425.20 L 342.05,425.20 L 343.56,425.20 L 345.07,425.20 L 346.58,425.20 L 348.09,425.20 L 349.61,425.20 L 351.12,425.20 L 352.63,425.20 L 354.14,425.20 L 355.65,425.20 L 357.17,425.20 L 358.68,425.20 L 360.19,425.20 L 361.70,425.20 L 363.21,425.20 L 364.72,425.20 L 366.24,425.20 L 367.75,425.20 L 369.26,425.20 L 370.77,425.20 L 372.28,425.20 L 373.80,425.20 L 375.31,425.20 L 376.82,425.20 L 378.33,425.20 L 379.84,425.20 L 381.35,425.20 L 382.87,425.20 L 384.38,425.20 L 385.89,425.20 L 387.40,425.20 L 388.91,425.20 L 390.43,425.20 L 391.94,425.20 L 393.45,425.20 L 394.96,425.20 L 396.47,425.20 L 397.98,425.20 L 399.50,425.20 L 401.01,425.20 L 402.52,425.20 L 404.03,425.20 L 405.54,425.20 L 407.06,425.20 L 408.57,425.20 L 410.08,425.20 L 411.59,425.20 L 413.10,425.20 L 414.61,425.20 L 416.13,425.20 L 417.64,425.20 L 419.15,425.20 L 420.66,425.20 L 422.17,425.20 L 423.69,425.20 L 425.20,425.20"
     style="stroke:black;stroke-width:0.71;stroke-linecap:round;fill:none"
     id="path104" />
  <path
     d="M 311.81,425.20 L 311.81,424.06 L 311.81,422.93 L 311.81,421.80 L 311.81,420.66 L 311.81,419.53 L 311.81,418.39 L 311.81,417.26 L 311.81,416.13 L 311.81,414.99 L 311.81,413.86 L 311.81,412.72 L 311.81,411.59 L 311.81,410.46 L 311.81,409.32 L 311.81,408.19 L 311.81,407.06 L 311.81,405.92 L 311.81,404.79 L 311.81,403.65 L 311.81,402.52 L 311.81,401.39 L 311.81,400.25 L 311.81,399.12 L 311.81,397.98 L 311.81,396.85 L 311.81,395.72 L 311.81,394.58 L 311.81,393.45 L 311.81,392.31 L 311.81,391.18 L 311.81,390.05 L 311.81,388.91 L 311.81,387.78 L 311.81,386.65 L 311.81,385.51 L 311.81,384.38 L 311.81,383.24 L 311.81,382.11 L 311.81,380.98 L 311.81,379.84 L 311.81,378.71 L 311.81,377.57 L 311.81,376.44 L 311.81,375.31 L 311.81,374.17 L 311.81,373.04 L 311.81,371.91 L 311.81,370.77 L 311.81,369.64 L 311.81,368.50 L 311.81,367.37 L 311.81,366.24 L 311.81,365.10 L 311.81,363.97 L 311.81,362.83 L 311.81,361.70 L 311.81,360.57 L 311.81,359.43 L 311.81,358.30 L 311.81,357.17 L 311.81,356.03 L 311.81,354.90 L 311.81,353.76 L 311.81,352.63 L 311.81,351.50 L 311.81,350.36 L 311.81,349.23 L 311.81,348.09 L 311.81,346.96 L 311.81,345.83 L 311.81,344.69 L 311.81,343.56 L 311.81,342.43 L 311.81,341.29 L 311.81,340.16 L 311.81,339.02 L 311.81,337.89 L 311.81,336.76 L 311.81,335.62 L 311.81,334.49 L 311.81,333.35 L 311.81,332.22 L 311.81,331.09 L 311.81,329.95 L 311.81,328.82 L 311.81,327.69 L 311.81,326.55 L 311.81,325.42 L 311.81,324.28 L 311.81,323.15 L 311.81,322.02 L 311.81,320.88 L 311.81,319.75 L 311.81,318.61 L 311.81,317.48 L 311.81,316.35 L 311.81,315.21 L 311.81,314.08 L 311.81,312.94 L 311.81,311.81 L 311.81,310.68 L 311.81,309.54 L 311.81,308.41 L 311.81,307.28 L 311.81,306.14 L 311.81,305.01 L 311.81,303.87 L 311.81,302.74 L 311.81,301.61 L 311.81,300.47 L 311.81,299.34 L 311.81,298.20 L 311.81,297.07 L 311.81,295.94 L 311.81,294.80 L 311.81,293.67 L 311.81,292.54 L 311.81,291.40 L 311.81,290.27 L 311.81,289.13 L 311.81,288.00 L 311.81,286.87 L 311.81,285.73 L 311.81,284.60 L 311.81,283.46 L 311.81,282.33 L 311.81,281.20 L 311.81,280.06 L 311.81,278.93 L 311.81,277.80 L 311.81,276.66 L 311.81,275.53 L 311.81,274.39 L 311.81,273.26 L 311.81,272.13 L 311.81,270.99 L 311.81,269.86 L 311.81,268.72 L 311.81,267.59 L 311.81,266.46 L 311.81,265.32 L 311.81,264.19 L 311.81,263.06 L 311.81,261.92 L 311.81,260.79 L 311.81,259.65 L 311.81,258.52 L 311.81,257.39 L 311.81,256.25 L 311.81,255.12"
     style="stroke:black;stroke-width:0.71;stroke-linecap:round;fill:none;stroke-dasharray: 5.67 5.67"
     id="path106" />
  <!-- Render block 3
 -->
  <text
     x="365.55341"
     y="167.35692"
     style="font-size:10px;font-weight:normal;text-anchor:middle;fill:#000000;stroke:none;font-family:sanserif"
     id="text108">blk-1-1</text>
  <text
     x="366.98999"
     y="79.205971"
     style="font-size:10px;font-weight:normal;text-anchor:middle;fill:#000000;stroke:none;font-family:sanserif"
     id="text110">SLIP_WALL</text>
  <path
     d="M 311.81,85.04 L 313.32,85.04 L 314.83,85.04 L 316.35,85.04 L 317.86,85.04 L 319.37,85.04 L 320.88,85.04 L 322.39,85.04 L 323.91,85.04 L 325.42,85.04 L 326.93,85.04 L 328.44,85.04 L 329.95,85.04 L 331.46,85.04 L 332.98,85.04 L 334.49,85.04 L 336.00,85.04 L 337.51,85.04 L 339.02,85.04 L 340.54,85.04 L 342.05,85.04 L 343.56,85.04 L 345.07,85.04 L 346.58,85.04 L 348.09,85.04 L 349.61,85.04 L 351.12,85.04 L 352.63,85.04 L 354.14,85.04 L 355.65,85.04 L 357.17,85.04 L 358.68,85.04 L 360.19,85.04 L 361.70,85.04 L 363.21,85.04 L 364.72,85.04 L 366.24,85.04 L 367.75,85.04 L 369.26,85.04 L 370.77,85.04 L 372.28,85.04 L 373.80,85.04 L 375.31,85.04 L 376.82,85.04 L 378.33,85.04 L 379.84,85.04 L 381.35,85.04 L 382.87,85.04 L 384.38,85.04 L 385.89,85.04 L 387.40,85.04 L 388.91,85.04 L 390.43,85.04 L 391.94,85.04 L 393.45,85.04 L 394.96,85.04 L 396.47,85.04 L 397.98,85.04 L 399.50,85.04 L 401.01,85.04 L 402.52,85.04 L 404.03,85.04 L 405.54,85.04 L 407.06,85.04 L 408.57,85.04 L 410.08,85.04 L 411.59,85.04 L 413.10,85.04 L 414.61,85.04 L 416.13,85.04 L 417.64,85.04 L 419.15,85.04 L 420.66,85.04 L 422.17,85.04 L 423.69,85.04 L 425.20,85.04"
     style="stroke:black;stroke-width:0.71;stroke-linecap:round;fill:none"
     id="path112" />
  <path
     d="M 425.20,255.12 L 425.20,253.98 L 425.20,252.85 L 425.20,251.72 L 425.20,250.58 L 425.20,249.45 L 425.20,248.31 L 425.20,247.18 L 425.20,246.05 L 425.20,244.91 L 425.20,243.78 L 425.20,242.65 L 425.20,241.51 L 425.20,240.38 L 425.20,239.24 L 425.20,238.11 L 425.20,236.98 L 425.20,235.84 L 425.20,234.71 L 425.20,233.57 L 425.20,232.44 L 425.20,231.31 L 425.20,230.17 L 425.20,229.04 L 425.20,227.91 L 425.20,226.77 L 425.20,225.64 L 425.20,224.50 L 425.20,223.37 L 425.20,222.24 L 425.20,221.10 L 425.20,219.97 L 425.20,218.83 L 425.20,217.70 L 425.20,216.57 L 425.20,215.43 L 425.20,214.30 L 425.20,213.17 L 425.20,212.03 L 425.20,210.90 L 425.20,209.76 L 425.20,208.63 L 425.20,207.50 L 425.20,206.36 L 425.20,205.23 L 425.20,204.09 L 425.20,202.96 L 425.20,201.83 L 425.20,200.69 L 425.20,199.56 L 425.20,198.43 L 425.20,197.29 L 425.20,196.16 L 425.20,195.02 L 425.20,193.89 L 425.20,192.76 L 425.20,191.62 L 425.20,190.49 L 425.20,189.35 L 425.20,188.22 L 425.20,187.09 L 425.20,185.95 L 425.20,184.82 L 425.20,183.69 L 425.20,182.55 L 425.20,181.42 L 425.20,180.28 L 425.20,179.15 L 425.20,178.02 L 425.20,176.88 L 425.20,175.75 L 425.20,174.61 L 425.20,173.48 L 425.20,172.35 L 425.20,171.21 L 425.20,170.08 L 425.20,168.94 L 425.20,167.81 L 425.20,166.68 L 425.20,165.54 L 425.20,164.41 L 425.20,163.28 L 425.20,162.14 L 425.20,161.01 L 425.20,159.87 L 425.20,158.74 L 425.20,157.61 L 425.20,156.47 L 425.20,155.34 L 425.20,154.20 L 425.20,153.07 L 425.20,151.94 L 425.20,150.80 L 425.20,149.67 L 425.20,148.54 L 425.20,147.40 L 425.20,146.27 L 425.20,145.13 L 425.20,144.00 L 425.20,142.87 L 425.20,141.73 L 425.20,140.60 L 425.20,139.46 L 425.20,138.33 L 425.20,137.20 L 425.20,136.06 L 425.20,134.93 L 425.20,133.80 L 425.20,132.66 L 425.20,131.53 L 425.20,130.39 L 425.20,129.26 L 425.20,128.13 L 425.20,126.99 L 425.20,125.86 L 425.20,124.72 L 425.20,123.59 L 425.20,122.46 L 425.20,121.32 L 425.20,120.19 L 425.20,119.06 L 425.20,117.92 L 425.20,116.79 L 425.20,115.65 L 425.20,114.52 L 425.20,113.39 L 425.20,112.25 L 425.20,111.12 L 425.20,109.98 L 425.20,108.85 L 425.20,107.72 L 425.20,106.58 L 425.20,105.45 L 425.20,104.31 L 425.20,103.18 L 425.20,102.05 L 425.20,100.91 L 425.20,99.78 L 425.20,98.65 L 425.20,97.51 L 425.20,96.38 L 425.20,95.24 L 425.20,94.11 L 425.20,92.98 L 425.20,91.84 L 425.20,90.71 L 425.20,89.57 L 425.20,88.44 L 425.20,87.31 L 425.20,86.17 L 425.20,85.04"
     style="stroke:black;stroke-width:0.71;stroke-linecap:round;fill:none;stroke-dasharray: 5.67 5.67"
     id="path114" />
  <path
     d="M 311.81,255.12 L 313.32,255.12 L 314.83,255.12 L 316.35,255.12 L 317.86,255.12 L 319.37,255.12 L 320.88,255.12 L 322.39,255.12 L 323.91,255.12 L 325.42,255.12 L 326.93,255.12 L 328.44,255.12 L 329.95,255.12 L 331.46,255.12 L 332.98,255.12 L 334.49,255.12 L 336.00,255.12 L 337.51,255.12 L 339.02,255.12 L 340.54,255.12 L 342.05,255.12 L 343.56,255.12 L 345.07,255.12 L 346.58,255.12 L 348.09,255.12 L 349.61,255.12 L 351.12,255.12 L 352.63,255.12 L 354.14,255.12 L 355.65,255.12 L 357.17,255.12 L 358.68,255.12 L 360.19,255.12 L 361.70,255.12 L 363.21,255.12 L 364.72,255.12 L 366.24,255.12 L 367.75,255.12 L 369.26,255.12 L 370.77,255.12 L 372.28,255.12 L 373.80,255.12 L 375.31,255.12 L 376.82,255.12 L 378.33,255.12 L 379.84,255.12 L 381.35,255.12 L 382.87,255.12 L 384.38,255.12 L 385.89,255.12 L 387.40,255.12 L 388.91,255.12 L 390.43,255.12 L 391.94,255.12 L 393.45,255.12 L 394.96,255.12 L 396.47,255.12 L 397.98,255.12 L 399.50,255.12 L 401.01,255.12 L 402.52,255.12 L 404.03,255.12 L 405.54,255.12 L 407.06,255.12 L 408.57,255.12 L 410.08,255.12 L 411.59,255.12 L 413.10,255.12 L 414.61,255.12 L 416.13,255.12 L 417.64,255.12 L 419.15,255.12 L 420.66,255.12 L 422.17,255.12 L 423.69,255.12 L 425.20,255.12"
     style="stroke:black;stroke-width:0.71;stroke-linecap:round;fill:none;stroke-dasharray: 5.67 5.67"
     id="path116" />
  <path
     d="M 311.81,255.12 L 311.81,253.98 L 311.81,252.85 L 311.81,251.72 L 311.81,250.58 L 311.81,249.45 L 311.81,248.31 L 311.81,247.18 L 311.81,246.05 L 311.81,244.91 L 311.81,243.78 L 311.81,242.65 L 311.81,241.51 L 311.81,240.38 L 311.81,239.24 L 311.81,238.11 L 311.81,236.98 L 311.81,235.84 L 311.81,234.71 L 311.81,233.57 L 311.81,232.44 L 311.81,231.31 L 311.81,230.17 L 311.81,229.04 L 311.81,227.91 L 311.81,226.77 L 311.81,225.64 L 311.81,224.50 L 311.81,223.37 L 311.81,222.24 L 311.81,221.10 L 311.81,219.97 L 311.81,218.83 L 311.81,217.70 L 311.81,216.57 L 311.81,215.43 L 311.81,214.30 L 311.81,213.17 L 311.81,212.03 L 311.81,210.90 L 311.81,209.76 L 311.81,208.63 L 311.81,207.50 L 311.81,206.36 L 311.81,205.23 L 311.81,204.09 L 311.81,202.96 L 311.81,201.83 L 311.81,200.69 L 311.81,199.56 L 311.81,198.43 L 311.81,197.29 L 311.81,196.16 L 311.81,195.02 L 311.81,193.89 L 311.81,192.76 L 311.81,191.62 L 311.81,190.49 L 311.81,189.35 L 311.81,188.22 L 311.81,187.09 L 311.81,185.95 L 311.81,184.82 L 311.81,183.69 L 311.81,182.55 L 311.81,181.42 L 311.81,180.28 L 311.81,179.15 L 311.81,178.02 L 311.81,176.88 L 311.81,175.75 L 311.81,174.61 L 311.81,173.48 L 311.81,172.35 L 311.81,171.21 L 311.81,170.08 L 311.81,168.94 L 311.81,167.81 L 311.81,166.68 L 311.81,165.54 L 311.81,164.41 L 311.81,163.28 L 311.81,162.14 L 311.81,161.01 L 311.81,159.87 L 311.81,158.74 L 311.81,157.61 L 311.81,156.47 L 311.81,155.34 L 311.81,154.20 L 311.81,153.07 L 311.81,151.94 L 311.81,150.80 L 311.81,149.67 L 311.81,148.54 L 311.81,147.40 L 311.81,146.27 L 311.81,145.13 L 311.81,144.00 L 311.81,142.87 L 311.81,141.73 L 311.81,140.60 L 311.81,139.46 L 311.81,138.33 L 311.81,137.20 L 311.81,136.06 L 311.81,134.93 L 311.81,133.80 L 311.81,132.66 L 311.81,131.53 L 311.81,130.39 L 311.81,129.26 L 311.81,128.13 L 311.81,126.99 L 311.81,125.86 L 311.81,124.72 L 311.81,123.59 L 311.81,122.46 L 311.81,121.32 L 311.81,120.19 L 311.81,119.06 L 311.81,117.92 L 311.81,116.79 L 311.81,115.65 L 311.81,114.52 L 311.81,113.39 L 311.81,112.25 L 311.81,111.12 L 311.81,109.98 L 311.81,108.85 L 311.81,107.72 L 311.81,106.58 L 311.81,105.45 L 311.81,104.31 L 311.81,103.18 L 311.81,102.05 L 311.81,100.91 L 311.81,99.78 L 311.81,98.65 L 311.81,97.51 L 311.81,96.38 L 311.81,95.24 L 311.81,94.11 L 311.81,92.98 L 311.81,91.84 L 311.81,90.71 L 311.81,89.57 L 311.81,88.44 L 311.81,87.31 L 311.81,86.17 L 311.81,85.04"
     style="stroke:black;stroke-width:0.71;stroke-linecap:round;fill:none;stroke-dasharray: 5.67 5.67"
     id="path118" />
  <!-- end of drawing -->
  <text
     xml:space="preserve"
     style="font-size:12px;font-style:normal;font-variant:normal;font-weight:normal;font-stretch:normal;text-align:start;line-height:100%;writing-mode:lr-tb;text-anchor:start;fill:#000000;fill-opacity:1;stroke:none;font-family:Graph;-inkscape-font-specification:Graph"
     x="-235.95442"
     y="438.58954"
     id="text2932"
     sodipodi:linespacing="100%"
     transform="matrix(0,-1,1,0,0,0)"><tspan
       sodipodi:role="line"
       id="tspan2934"
       x="-235.95442"
       y="438.58954">connect to blk-0-1 WEST</tspan></text>
  <text
     xml:space="preserve"
     style="font-size:12px;font-style:normal;font-variant:normal;font-weight:normal;font-stretch:normal;text-align:start;line-height:100%;writing-mode:lr;text-anchor:start;fill:#000000;fill-opacity:1;stroke:none;font-family:Graph;-inkscape-font-specification:Graph"
     x="-235.57211"
     y="192.04749"
     id="text2932-8"
     sodipodi:linespacing="100%"
     transform="matrix(0,-1,1,0,0,0)"><tspan
       sodipodi:role="line"
       id="tspan2961">connect to blk-1-1 EAST</tspan></text>
  <text
     xml:space="preserve"
     style="font-size:12px;font-style:normal;font-variant:normal;font-weight:normal;font-stretch:normal;text-align:start;line-height:100%;writing-mode:lr-tb;text-anchor:start;fill:#000000;fill-opacity:1;stroke:none;font-family:Graph;-inkscape-font-specification:Graph"
     x="-405.08691"
     y="438.87366"
     id="text2932-2"
     sodipodi:linespacing="100%"
     transform="matrix(0,-1,1,0,0,0)"><tspan
       sodipodi:role="line"
       id="tspan2974"
       x="-405.08691"
       y="438.87366">connect to blk-0-0 WEST</tspan></text>
  <text
     xml:space="preserve"
     style="font-size:12px;font-style:normal;font-variant:normal;font-weight:normal;font-stretch:normal;text-align:start;line-height:100%;writing-mode:lr;text-anchor:start;fill:#000000;fill-opacity:1;stroke:none;font-family:Graph;-inkscape-font-specification:Graph"
     x="-401.45065"
     y="192.79544"
     id="text2932-8-3"
     sodipodi:linespacing="100%"
     transform="matrix(0,-1,1,0,0,0)"><tspan
       sodipodi:role="line"
       id="tspan3001">connect to blk-1-0 EAST</tspan></text>
</svg>
