<?xml version="1.0" encoding="UTF-8" standalone="no"?>
<svg
   xmlns:dc="http://purl.org/dc/elements/1.1/"
   xmlns:cc="http://creativecommons.org/ns#"
   xmlns:rdf="http://www.w3.org/1999/02/22-rdf-syntax-ns#"
   xmlns:svg="http://www.w3.org/2000/svg"
   xmlns="http://www.w3.org/2000/svg"
   xmlns:sodipodi="http://sodipodi.sourceforge.net/DTD/sodipodi-0.dtd"
   xmlns:inkscape="http://www.inkscape.org/namespaces/inkscape"
   width="566.93"
   height="566.93"
   version="1.0"
   id="svg2"
   inkscape:version="0.48.2 r9819"
   sodipodi:docname="cst-edited.pdf">
  <metadata
     id="metadata96">
    <rdf:RDF>
      <cc:Work
         rdf:about="">
        <dc:format>image/svg+xml</dc:format>
        <dc:type
           rdf:resource="http://purl.org/dc/dcmitype/StillImage" />
        <dc:title>High-performance shock tube with helium driving air.</dc:title>
      </cc:Work>
    </rdf:RDF>
  </metadata>
  <defs
     id="defs94">
    <marker
       inkscape:stockid="Arrow1Send"
       orient="auto"
       refY="0.0"
       refX="0.0"
       id="Arrow1Send"
       style="overflow:visible;">
      <path
         id="path3863"
         d="M 0.0,0.0 L 5.0,-5.0 L -12.5,0.0 L 5.0,5.0 L 0.0,0.0 z "
         style="fill-rule:evenodd;stroke:#000000;stroke-width:1.0pt;marker-start:none;"
         transform="scale(0.2) rotate(180) translate(6,0)" />
    </marker>
    <marker
       inkscape:stockid="Arrow1Mend"
       orient="auto"
       refY="0.0"
       refX="0.0"
       id="Arrow1Mend"
       style="overflow:visible;">
      <path
         id="path3857"
         d="M 0.0,0.0 L 5.0,-5.0 L -12.5,0.0 L 5.0,5.0 L 0.0,0.0 z "
         style="fill-rule:evenodd;stroke:#000000;stroke-width:1.0pt;marker-start:none;"
         transform="scale(0.4) rotate(180) translate(10,0)" />
    </marker>
  </defs>
  <sodipodi:namedview
     pagecolor="#ffffff"
     bordercolor="#666666"
     borderopacity="1"
     objecttolerance="10"
     gridtolerance="10"
     guidetolerance="10"
     inkscape:pageopacity="0"
     inkscape:pageshadow="2"
     inkscape:window-width="1471"
     inkscape:window-height="886"
     id="namedview92"
     showgrid="false"
     inkscape:zoom="1.2117898"
     inkscape:cx="283.465"
     inkscape:cy="283.465"
     inkscape:window-x="0"
     inkscape:window-y="30"
     inkscape:window-maximized="0"
     inkscape:current-layer="svg2" />
  <title
     id="title4">High-performance shock tube with helium driving air.</title>
  <desc
     id="desc6">SVG file written by e3prep.py</desc>
  <!-- drawing begins here -->
  <line
     x1="56.69"
     y1="531.50"
     x2="481.89"
     y2="531.50"
     style="stroke:black;stroke-width:1.42;stroke-linecap:round;fill:none"
     id="line8" />
  <text
     x="269.29"
     y="557.01"
     style="font-size:10;text-anchor:start;fill:black;stroke:none;font-weight:normal;font-family:sanserif"
     id="text10">x</text>
  <line
     x1="56.69"
     y1="531.50"
     x2="56.69"
     y2="525.83"
     style="stroke:black;stroke-width:1.42;stroke-linecap:round;fill:none"
     id="line12" />
  <text
     x="56.69"
     y="545.67"
     style="font-size:10;text-anchor:middle;fill:black;stroke:none;font-weight:normal;font-family:sanserif"
     id="text14">0</text>
  <line
     x1="269.29"
     y1="531.50"
     x2="269.29"
     y2="525.83"
     style="stroke:black;stroke-width:1.42;stroke-linecap:round;fill:none"
     id="line16" />
  <text
     x="269.29"
     y="545.67"
     style="font-size:10;text-anchor:middle;fill:black;stroke:none;font-weight:normal;font-family:sanserif"
     id="text18">0.5</text>
  <line
     x1="481.89"
     y1="531.50"
     x2="481.89"
     y2="525.83"
     style="stroke:black;stroke-width:1.42;stroke-linecap:round;fill:none"
     id="line20" />
  <text
     x="481.89"
     y="545.67"
     style="font-size:10;text-anchor:middle;fill:black;stroke:none;font-weight:normal;font-family:sanserif"
     id="text22">1</text>
  <line
     x1="35.43"
     y1="510.24"
     x2="35.43"
     y2="467.72"
     style="stroke:black;stroke-width:1.42;stroke-linecap:round;fill:none"
     id="line24" />
  <text
     x="12.76"
     y="488.98"
     style="font-size:10;text-anchor:end;fill:black;stroke:none;font-weight:normal;font-family:sanserif"
     id="text26">y</text>
  <line
     x1="35.43"
     y1="510.24"
     x2="41.10"
     y2="510.24"
     style="stroke:black;stroke-width:1.42;stroke-linecap:round;fill:none"
     id="line28" />
  <text
     x="26.93"
     y="510.24"
     style="font-size:10;text-anchor:end;fill:black;stroke:none;font-weight:normal;font-family:sanserif"
     id="text30">0</text>
  <line
     x1="35.43"
     y1="467.72"
     x2="41.10"
     y2="467.72"
     style="stroke:black;stroke-width:1.42;stroke-linecap:round;fill:none"
     id="line32" />
  <text
     x="26.93"
     y="467.72"
     style="font-size:10;text-anchor:end;fill:black;stroke:none;font-weight:normal;font-family:sanserif"
     id="text34">0.1</text>
  <!-- There are 6 nodes
 -->
  <circle
     cx="269.29"
     cy="510.24"
     r="2.83"
     style="fill:black"
     id="circle36" />
  <text
     x="269.29"
     y="505.98"
     style="font-size:10;text-anchor:end;fill:black;stroke:none;font-weight:normal;font-family:sanserif"
     id="text38">a</text>
  <circle
     cx="269.29"
     cy="467.72"
     r="2.83"
     style="fill:black"
     id="circle40" />
  <text
     x="269.29"
     y="463.46"
     style="font-size:10;text-anchor:end;fill:black;stroke:none;font-weight:normal;font-family:sanserif"
     id="text42">b</text>
  <circle
     cx="56.69"
     cy="467.72"
     r="2.83"
     style="fill:black"
     id="circle44" />
  <text
     x="56.69"
     y="463.46"
     style="font-size:10;text-anchor:end;fill:black;stroke:none;font-weight:normal;font-family:sanserif"
     id="text46">c</text>
  <circle
     cx="56.69"
     cy="510.24"
     r="2.83"
     style="fill:black"
     id="circle48" />
  <text
     x="56.69"
     y="505.98"
     style="font-size:10;text-anchor:end;fill:black;stroke:none;font-weight:normal;font-family:sanserif"
     id="text50">d</text>
  <circle
     cx="481.89"
     cy="510.24"
     r="2.83"
     style="fill:black"
     id="circle52" />
  <text
     x="481.89"
     y="505.98"
     style="font-size:10;text-anchor:end;fill:black;stroke:none;font-weight:normal;font-family:sanserif"
     id="text54">e</text>
  <circle
     cx="481.89"
     cy="467.72"
     r="2.83"
     style="fill:black"
     id="circle56" />
  <text
     x="481.89"
     y="463.46"
     style="font-size:10;text-anchor:end;fill:black;stroke:none;font-weight:normal;font-family:sanserif"
     id="text58">f</text>
  <!-- There are 2 blocks
 -->
  <!-- Render block 0
 -->
  <text
     x="161.22119"
     y="490.24033"
     style="font-size:10px;font-weight:normal;text-anchor:middle;fill:#000000;stroke:none;font-family:sanserif"
     id="text60">driver</text>
  <text
     x="161.57495"
     y="463.47485"
     style="font-size:10px;font-weight:normal;text-anchor:middle;fill:#000000;stroke:none;font-family:sanserif"
     id="text62">SLIP_WALL</text>
  <path
     d="M 56.69,467.72 L 57.22,467.72 L 57.76,467.72 L 58.29,467.72 L 58.82,467.72 L 59.35,467.72 L 59.88,467.72 L 60.41,467.72 L 60.94,467.72 L 61.48,467.72 L 62.01,467.72 L 62.54,467.72 L 63.07,467.72 L 63.60,467.72 L 64.13,467.72 L 64.67,467.72 L 65.20,467.72 L 65.73,467.72 L 66.26,467.72 L 66.79,467.72 L 67.32,467.72 L 67.85,467.72 L 68.39,467.72 L 68.92,467.72 L 69.45,467.72 L 69.98,467.72 L 70.51,467.72 L 71.04,467.72 L 71.57,467.72 L 72.11,467.72 L 72.64,467.72 L 73.17,467.72 L 73.70,467.72 L 74.23,467.72 L 74.76,467.72 L 75.30,467.72 L 75.83,467.72 L 76.36,467.72 L 76.89,467.72 L 77.42,467.72 L 77.95,467.72 L 78.48,467.72 L 79.02,467.72 L 79.55,467.72 L 80.08,467.72 L 80.61,467.72 L 81.14,467.72 L 81.67,467.72 L 82.20,467.72 L 82.74,467.72 L 83.27,467.72 L 83.80,467.72 L 84.33,467.72 L 84.86,467.72 L 85.39,467.72 L 85.93,467.72 L 86.46,467.72 L 86.99,467.72 L 87.52,467.72 L 88.05,467.72 L 88.58,467.72 L 89.11,467.72 L 89.65,467.72 L 90.18,467.72 L 90.71,467.72 L 91.24,467.72 L 91.77,467.72 L 92.30,467.72 L 92.83,467.72 L 93.37,467.72 L 93.90,467.72 L 94.43,467.72 L 94.96,467.72 L 95.49,467.72 L 96.02,467.72 L 96.56,467.72 L 97.09,467.72 L 97.62,467.72 L 98.15,467.72 L 98.68,467.72 L 99.21,467.72 L 99.74,467.72 L 100.28,467.72 L 100.81,467.72 L 101.34,467.72 L 101.87,467.72 L 102.40,467.72 L 102.93,467.72 L 103.46,467.72 L 104.00,467.72 L 104.53,467.72 L 105.06,467.72 L 105.59,467.72 L 106.12,467.72 L 106.65,467.72 L 107.19,467.72 L 107.72,467.72 L 108.25,467.72 L 108.78,467.72 L 109.31,467.72 L 109.84,467.72 L 110.37,467.72 L 110.91,467.72 L 111.44,467.72 L 111.97,467.72 L 112.50,467.72 L 113.03,467.72 L 113.56,467.72 L 114.09,467.72 L 114.63,467.72 L 115.16,467.72 L 115.69,467.72 L 116.22,467.72 L 116.75,467.72 L 117.28,467.72 L 117.81,467.72 L 118.35,467.72 L 118.88,467.72 L 119.41,467.72 L 119.94,467.72 L 120.47,467.72 L 121.00,467.72 L 121.54,467.72 L 122.07,467.72 L 122.60,467.72 L 123.13,467.72 L 123.66,467.72 L 124.19,467.72 L 124.72,467.72 L 125.26,467.72 L 125.79,467.72 L 126.32,467.72 L 126.85,467.72 L 127.38,467.72 L 127.91,467.72 L 128.44,467.72 L 128.98,467.72 L 129.51,467.72 L 130.04,467.72 L 130.57,467.72 L 131.10,467.72 L 131.63,467.72 L 132.17,467.72 L 132.70,467.72 L 133.23,467.72 L 133.76,467.72 L 134.29,467.72 L 134.82,467.72 L 135.35,467.72 L 135.89,467.72 L 136.42,467.72 L 136.95,467.72 L 137.48,467.72 L 138.01,467.72 L 138.54,467.72 L 139.07,467.72 L 139.61,467.72 L 140.14,467.72 L 140.67,467.72 L 141.20,467.72 L 141.73,467.72 L 142.26,467.72 L 142.80,467.72 L 143.33,467.72 L 143.86,467.72 L 144.39,467.72 L 144.92,467.72 L 145.45,467.72 L 145.98,467.72 L 146.52,467.72 L 147.05,467.72 L 147.58,467.72 L 148.11,467.72 L 148.64,467.72 L 149.17,467.72 L 149.70,467.72 L 150.24,467.72 L 150.77,467.72 L 151.30,467.72 L 151.83,467.72 L 152.36,467.72 L 152.89,467.72 L 153.43,467.72 L 153.96,467.72 L 154.49,467.72 L 155.02,467.72 L 155.55,467.72 L 156.08,467.72 L 156.61,467.72 L 157.15,467.72 L 157.68,467.72 L 158.21,467.72 L 158.74,467.72 L 159.27,467.72 L 159.80,467.72 L 160.33,467.72 L 160.87,467.72 L 161.40,467.72 L 161.93,467.72 L 162.46,467.72 L 162.99,467.72 L 163.52,467.72 L 164.06,467.72 L 164.59,467.72 L 165.12,467.72 L 165.65,467.72 L 166.18,467.72 L 166.71,467.72 L 167.24,467.72 L 167.78,467.72 L 168.31,467.72 L 168.84,467.72 L 169.37,467.72 L 169.90,467.72 L 170.43,467.72 L 170.96,467.72 L 171.50,467.72 L 172.03,467.72 L 172.56,467.72 L 173.09,467.72 L 173.62,467.72 L 174.15,467.72 L 174.69,467.72 L 175.22,467.72 L 175.75,467.72 L 176.28,467.72 L 176.81,467.72 L 177.34,467.72 L 177.87,467.72 L 178.41,467.72 L 178.94,467.72 L 179.47,467.72 L 180.00,467.72 L 180.53,467.72 L 181.06,467.72 L 181.59,467.72 L 182.13,467.72 L 182.66,467.72 L 183.19,467.72 L 183.72,467.72 L 184.25,467.72 L 184.78,467.72 L 185.31,467.72 L 185.85,467.72 L 186.38,467.72 L 186.91,467.72 L 187.44,467.72 L 187.97,467.72 L 188.50,467.72 L 189.04,467.72 L 189.57,467.72 L 190.10,467.72 L 190.63,467.72 L 191.16,467.72 L 191.69,467.72 L 192.22,467.72 L 192.76,467.72 L 193.29,467.72 L 193.82,467.72 L 194.35,467.72 L 194.88,467.72 L 195.41,467.72 L 195.94,467.72 L 196.48,467.72 L 197.01,467.72 L 197.54,467.72 L 198.07,467.72 L 198.60,467.72 L 199.13,467.72 L 199.67,467.72 L 200.20,467.72 L 200.73,467.72 L 201.26,467.72 L 201.79,467.72 L 202.32,467.72 L 202.85,467.72 L 203.39,467.72 L 203.92,467.72 L 204.45,467.72 L 204.98,467.72 L 205.51,467.72 L 206.04,467.72 L 206.57,467.72 L 207.11,467.72 L 207.64,467.72 L 208.17,467.72 L 208.70,467.72 L 209.23,467.72 L 209.76,467.72 L 210.30,467.72 L 210.83,467.72 L 211.36,467.72 L 211.89,467.72 L 212.42,467.72 L 212.95,467.72 L 213.48,467.72 L 214.02,467.72 L 214.55,467.72 L 215.08,467.72 L 215.61,467.72 L 216.14,467.72 L 216.67,467.72 L 217.20,467.72 L 217.74,467.72 L 218.27,467.72 L 218.80,467.72 L 219.33,467.72 L 219.86,467.72 L 220.39,467.72 L 220.93,467.72 L 221.46,467.72 L 221.99,467.72 L 222.52,467.72 L 223.05,467.72 L 223.58,467.72 L 224.11,467.72 L 224.65,467.72 L 225.18,467.72 L 225.71,467.72 L 226.24,467.72 L 226.77,467.72 L 227.30,467.72 L 227.83,467.72 L 228.37,467.72 L 228.90,467.72 L 229.43,467.72 L 229.96,467.72 L 230.49,467.72 L 231.02,467.72 L 231.56,467.72 L 232.09,467.72 L 232.62,467.72 L 233.15,467.72 L 233.68,467.72 L 234.21,467.72 L 234.74,467.72 L 235.28,467.72 L 235.81,467.72 L 236.34,467.72 L 236.87,467.72 L 237.40,467.72 L 237.93,467.72 L 238.46,467.72 L 239.00,467.72 L 239.53,467.72 L 240.06,467.72 L 240.59,467.72 L 241.12,467.72 L 241.65,467.72 L 242.19,467.72 L 242.72,467.72 L 243.25,467.72 L 243.78,467.72 L 244.31,467.72 L 244.84,467.72 L 245.37,467.72 L 245.91,467.72 L 246.44,467.72 L 246.97,467.72 L 247.50,467.72 L 248.03,467.72 L 248.56,467.72 L 249.09,467.72 L 249.63,467.72 L 250.16,467.72 L 250.69,467.72 L 251.22,467.72 L 251.75,467.72 L 252.28,467.72 L 252.81,467.72 L 253.35,467.72 L 253.88,467.72 L 254.41,467.72 L 254.94,467.72 L 255.47,467.72 L 256.00,467.72 L 256.54,467.72 L 257.07,467.72 L 257.60,467.72 L 258.13,467.72 L 258.66,467.72 L 259.19,467.72 L 259.72,467.72 L 260.26,467.72 L 260.79,467.72 L 261.32,467.72 L 261.85,467.72 L 262.38,467.72 L 262.91,467.72 L 263.44,467.72 L 263.98,467.72 L 264.51,467.72 L 265.04,467.72 L 265.57,467.72 L 266.10,467.72 L 266.63,467.72 L 267.17,467.72 L 267.70,467.72 L 268.23,467.72 L 268.76,467.72 L 269.29,467.72"
     style="stroke:black;stroke-width:0.71;stroke-linecap:round;fill:none"
     id="path64" />
  <path
     d="M 269.29,510.24 L 269.29,488.98 L 269.29,467.72"
     style="stroke:black;stroke-width:0.71;stroke-linecap:round;fill:none;stroke-dasharray: 5.67 5.67"
     id="path66" />
  <text
     x="161.22119"
     y="520.14539"
     style="font-size:10px;font-weight:normal;text-anchor:middle;fill:#000000;stroke:none;font-family:sanserif"
     id="text68">SLIP_WALL</text>
  <path
     d="M 56.69,510.24 L 57.22,510.24 L 57.76,510.24 L 58.29,510.24 L 58.82,510.24 L 59.35,510.24 L 59.88,510.24 L 60.41,510.24 L 60.94,510.24 L 61.48,510.24 L 62.01,510.24 L 62.54,510.24 L 63.07,510.24 L 63.60,510.24 L 64.13,510.24 L 64.67,510.24 L 65.20,510.24 L 65.73,510.24 L 66.26,510.24 L 66.79,510.24 L 67.32,510.24 L 67.85,510.24 L 68.39,510.24 L 68.92,510.24 L 69.45,510.24 L 69.98,510.24 L 70.51,510.24 L 71.04,510.24 L 71.57,510.24 L 72.11,510.24 L 72.64,510.24 L 73.17,510.24 L 73.70,510.24 L 74.23,510.24 L 74.76,510.24 L 75.30,510.24 L 75.83,510.24 L 76.36,510.24 L 76.89,510.24 L 77.42,510.24 L 77.95,510.24 L 78.48,510.24 L 79.02,510.24 L 79.55,510.24 L 80.08,510.24 L 80.61,510.24 L 81.14,510.24 L 81.67,510.24 L 82.20,510.24 L 82.74,510.24 L 83.27,510.24 L 83.80,510.24 L 84.33,510.24 L 84.86,510.24 L 85.39,510.24 L 85.93,510.24 L 86.46,510.24 L 86.99,510.24 L 87.52,510.24 L 88.05,510.24 L 88.58,510.24 L 89.11,510.24 L 89.65,510.24 L 90.18,510.24 L 90.71,510.24 L 91.24,510.24 L 91.77,510.24 L 92.30,510.24 L 92.83,510.24 L 93.37,510.24 L 93.90,510.24 L 94.43,510.24 L 94.96,510.24 L 95.49,510.24 L 96.02,510.24 L 96.56,510.24 L 97.09,510.24 L 97.62,510.24 L 98.15,510.24 L 98.68,510.24 L 99.21,510.24 L 99.74,510.24 L 100.28,510.24 L 100.81,510.24 L 101.34,510.24 L 101.87,510.24 L 102.40,510.24 L 102.93,510.24 L 103.46,510.24 L 104.00,510.24 L 104.53,510.24 L 105.06,510.24 L 105.59,510.24 L 106.12,510.24 L 106.65,510.24 L 107.19,510.24 L 107.72,510.24 L 108.25,510.24 L 108.78,510.24 L 109.31,510.24 L 109.84,510.24 L 110.37,510.24 L 110.91,510.24 L 111.44,510.24 L 111.97,510.24 L 112.50,510.24 L 113.03,510.24 L 113.56,510.24 L 114.09,510.24 L 114.63,510.24 L 115.16,510.24 L 115.69,510.24 L 116.22,510.24 L 116.75,510.24 L 117.28,510.24 L 117.81,510.24 L 118.35,510.24 L 118.88,510.24 L 119.41,510.24 L 119.94,510.24 L 120.47,510.24 L 121.00,510.24 L 121.54,510.24 L 122.07,510.24 L 122.60,510.24 L 123.13,510.24 L 123.66,510.24 L 124.19,510.24 L 124.72,510.24 L 125.26,510.24 L 125.79,510.24 L 126.32,510.24 L 126.85,510.24 L 127.38,510.24 L 127.91,510.24 L 128.44,510.24 L 128.98,510.24 L 129.51,510.24 L 130.04,510.24 L 130.57,510.24 L 131.10,510.24 L 131.63,510.24 L 132.17,510.24 L 132.70,510.24 L 133.23,510.24 L 133.76,510.24 L 134.29,510.24 L 134.82,510.24 L 135.35,510.24 L 135.89,510.24 L 136.42,510.24 L 136.95,510.24 L 137.48,510.24 L 138.01,510.24 L 138.54,510.24 L 139.07,510.24 L 139.61,510.24 L 140.14,510.24 L 140.67,510.24 L 141.20,510.24 L 141.73,510.24 L 142.26,510.24 L 142.80,510.24 L 143.33,510.24 L 143.86,510.24 L 144.39,510.24 L 144.92,510.24 L 145.45,510.24 L 145.98,510.24 L 146.52,510.24 L 147.05,510.24 L 147.58,510.24 L 148.11,510.24 L 148.64,510.24 L 149.17,510.24 L 149.70,510.24 L 150.24,510.24 L 150.77,510.24 L 151.30,510.24 L 151.83,510.24 L 152.36,510.24 L 152.89,510.24 L 153.43,510.24 L 153.96,510.24 L 154.49,510.24 L 155.02,510.24 L 155.55,510.24 L 156.08,510.24 L 156.61,510.24 L 157.15,510.24 L 157.68,510.24 L 158.21,510.24 L 158.74,510.24 L 159.27,510.24 L 159.80,510.24 L 160.33,510.24 L 160.87,510.24 L 161.40,510.24 L 161.93,510.24 L 162.46,510.24 L 162.99,510.24 L 163.52,510.24 L 164.06,510.24 L 164.59,510.24 L 165.12,510.24 L 165.65,510.24 L 166.18,510.24 L 166.71,510.24 L 167.24,510.24 L 167.78,510.24 L 168.31,510.24 L 168.84,510.24 L 169.37,510.24 L 169.90,510.24 L 170.43,510.24 L 170.96,510.24 L 171.50,510.24 L 172.03,510.24 L 172.56,510.24 L 173.09,510.24 L 173.62,510.24 L 174.15,510.24 L 174.69,510.24 L 175.22,510.24 L 175.75,510.24 L 176.28,510.24 L 176.81,510.24 L 177.34,510.24 L 177.87,510.24 L 178.41,510.24 L 178.94,510.24 L 179.47,510.24 L 180.00,510.24 L 180.53,510.24 L 181.06,510.24 L 181.59,510.24 L 182.13,510.24 L 182.66,510.24 L 183.19,510.24 L 183.72,510.24 L 184.25,510.24 L 184.78,510.24 L 185.31,510.24 L 185.85,510.24 L 186.38,510.24 L 186.91,510.24 L 187.44,510.24 L 187.97,510.24 L 188.50,510.24 L 189.04,510.24 L 189.57,510.24 L 190.10,510.24 L 190.63,510.24 L 191.16,510.24 L 191.69,510.24 L 192.22,510.24 L 192.76,510.24 L 193.29,510.24 L 193.82,510.24 L 194.35,510.24 L 194.88,510.24 L 195.41,510.24 L 195.94,510.24 L 196.48,510.24 L 197.01,510.24 L 197.54,510.24 L 198.07,510.24 L 198.60,510.24 L 199.13,510.24 L 199.67,510.24 L 200.20,510.24 L 200.73,510.24 L 201.26,510.24 L 201.79,510.24 L 202.32,510.24 L 202.85,510.24 L 203.39,510.24 L 203.92,510.24 L 204.45,510.24 L 204.98,510.24 L 205.51,510.24 L 206.04,510.24 L 206.57,510.24 L 207.11,510.24 L 207.64,510.24 L 208.17,510.24 L 208.70,510.24 L 209.23,510.24 L 209.76,510.24 L 210.30,510.24 L 210.83,510.24 L 211.36,510.24 L 211.89,510.24 L 212.42,510.24 L 212.95,510.24 L 213.48,510.24 L 214.02,510.24 L 214.55,510.24 L 215.08,510.24 L 215.61,510.24 L 216.14,510.24 L 216.67,510.24 L 217.20,510.24 L 217.74,510.24 L 218.27,510.24 L 218.80,510.24 L 219.33,510.24 L 219.86,510.24 L 220.39,510.24 L 220.93,510.24 L 221.46,510.24 L 221.99,510.24 L 222.52,510.24 L 223.05,510.24 L 223.58,510.24 L 224.11,510.24 L 224.65,510.24 L 225.18,510.24 L 225.71,510.24 L 226.24,510.24 L 226.77,510.24 L 227.30,510.24 L 227.83,510.24 L 228.37,510.24 L 228.90,510.24 L 229.43,510.24 L 229.96,510.24 L 230.49,510.24 L 231.02,510.24 L 231.56,510.24 L 232.09,510.24 L 232.62,510.24 L 233.15,510.24 L 233.68,510.24 L 234.21,510.24 L 234.74,510.24 L 235.28,510.24 L 235.81,510.24 L 236.34,510.24 L 236.87,510.24 L 237.40,510.24 L 237.93,510.24 L 238.46,510.24 L 239.00,510.24 L 239.53,510.24 L 240.06,510.24 L 240.59,510.24 L 241.12,510.24 L 241.65,510.24 L 242.19,510.24 L 242.72,510.24 L 243.25,510.24 L 243.78,510.24 L 244.31,510.24 L 244.84,510.24 L 245.37,510.24 L 245.91,510.24 L 246.44,510.24 L 246.97,510.24 L 247.50,510.24 L 248.03,510.24 L 248.56,510.24 L 249.09,510.24 L 249.63,510.24 L 250.16,510.24 L 250.69,510.24 L 251.22,510.24 L 251.75,510.24 L 252.28,510.24 L 252.81,510.24 L 253.35,510.24 L 253.88,510.24 L 254.41,510.24 L 254.94,510.24 L 255.47,510.24 L 256.00,510.24 L 256.54,510.24 L 257.07,510.24 L 257.60,510.24 L 258.13,510.24 L 258.66,510.24 L 259.19,510.24 L 259.72,510.24 L 260.26,510.24 L 260.79,510.24 L 261.32,510.24 L 261.85,510.24 L 262.38,510.24 L 262.91,510.24 L 263.44,510.24 L 263.98,510.24 L 264.51,510.24 L 265.04,510.24 L 265.57,510.24 L 266.10,510.24 L 266.63,510.24 L 267.17,510.24 L 267.70,510.24 L 268.23,510.24 L 268.76,510.24 L 269.29,510.24"
     style="stroke:black;stroke-width:0.71;stroke-linecap:round;fill:none"
     id="path70" />
  <text
     x="-427.07147"
     y="49.260986"
     transform="matrix(0,-1,1,0,0,0)"
     style="font-size:10px;font-weight:normal;text-anchor:middle;fill:#000000;stroke:none;font-family:sanserif"
     id="text72">SLIP_WALL</text>
  <path
     d="M 56.69,510.24 L 56.69,488.98 L 56.69,467.72"
     style="stroke:black;stroke-width:0.71;stroke-linecap:round;fill:none"
     id="path74" />
  <!-- Render block 1
 -->
  <text
     x="375.23624"
     y="491.65536"
     style="font-size:10px;font-weight:normal;text-anchor:middle;fill:#000000;stroke:none;font-family:sanserif"
     id="text76">driven</text>
  <text
     x="375.23624"
     y="464.53613"
     style="font-size:10px;font-weight:normal;text-anchor:middle;fill:#000000;stroke:none;font-family:sanserif"
     id="text78">SLIP_WALL</text>
  <path
     d="M 269.29,467.72 L 269.82,467.72 L 270.35,467.72 L 270.89,467.72 L 271.42,467.72 L 271.95,467.72 L 272.48,467.72 L 273.01,467.72 L 273.54,467.72 L 274.07,467.72 L 274.61,467.72 L 275.14,467.72 L 275.67,467.72 L 276.20,467.72 L 276.73,467.72 L 277.26,467.72 L 277.80,467.72 L 278.33,467.72 L 278.86,467.72 L 279.39,467.72 L 279.92,467.72 L 280.45,467.72 L 280.98,467.72 L 281.52,467.72 L 282.05,467.72 L 282.58,467.72 L 283.11,467.72 L 283.64,467.72 L 284.17,467.72 L 284.70,467.72 L 285.24,467.72 L 285.77,467.72 L 286.30,467.72 L 286.83,467.72 L 287.36,467.72 L 287.89,467.72 L 288.43,467.72 L 288.96,467.72 L 289.49,467.72 L 290.02,467.72 L 290.55,467.72 L 291.08,467.72 L 291.61,467.72 L 292.15,467.72 L 292.68,467.72 L 293.21,467.72 L 293.74,467.72 L 294.27,467.72 L 294.80,467.72 L 295.33,467.72 L 295.87,467.72 L 296.40,467.72 L 296.93,467.72 L 297.46,467.72 L 297.99,467.72 L 298.52,467.72 L 299.06,467.72 L 299.59,467.72 L 300.12,467.72 L 300.65,467.72 L 301.18,467.72 L 301.71,467.72 L 302.24,467.72 L 302.78,467.72 L 303.31,467.72 L 303.84,467.72 L 304.37,467.72 L 304.90,467.72 L 305.43,467.72 L 305.96,467.72 L 306.50,467.72 L 307.03,467.72 L 307.56,467.72 L 308.09,467.72 L 308.62,467.72 L 309.15,467.72 L 309.69,467.72 L 310.22,467.72 L 310.75,467.72 L 311.28,467.72 L 311.81,467.72 L 312.34,467.72 L 312.87,467.72 L 313.41,467.72 L 313.94,467.72 L 314.47,467.72 L 315.00,467.72 L 315.53,467.72 L 316.06,467.72 L 316.59,467.72 L 317.13,467.72 L 317.66,467.72 L 318.19,467.72 L 318.72,467.72 L 319.25,467.72 L 319.78,467.72 L 320.31,467.72 L 320.85,467.72 L 321.38,467.72 L 321.91,467.72 L 322.44,467.72 L 322.97,467.72 L 323.50,467.72 L 324.04,467.72 L 324.57,467.72 L 325.10,467.72 L 325.63,467.72 L 326.16,467.72 L 326.69,467.72 L 327.22,467.72 L 327.76,467.72 L 328.29,467.72 L 328.82,467.72 L 329.35,467.72 L 329.88,467.72 L 330.41,467.72 L 330.94,467.72 L 331.48,467.72 L 332.01,467.72 L 332.54,467.72 L 333.07,467.72 L 333.60,467.72 L 334.13,467.72 L 334.67,467.72 L 335.20,467.72 L 335.73,467.72 L 336.26,467.72 L 336.79,467.72 L 337.32,467.72 L 337.85,467.72 L 338.39,467.72 L 338.92,467.72 L 339.45,467.72 L 339.98,467.72 L 340.51,467.72 L 341.04,467.72 L 341.57,467.72 L 342.11,467.72 L 342.64,467.72 L 343.17,467.72 L 343.70,467.72 L 344.23,467.72 L 344.76,467.72 L 345.30,467.72 L 345.83,467.72 L 346.36,467.72 L 346.89,467.72 L 347.42,467.72 L 347.95,467.72 L 348.48,467.72 L 349.02,467.72 L 349.55,467.72 L 350.08,467.72 L 350.61,467.72 L 351.14,467.72 L 351.67,467.72 L 352.20,467.72 L 352.74,467.72 L 353.27,467.72 L 353.80,467.72 L 354.33,467.72 L 354.86,467.72 L 355.39,467.72 L 355.93,467.72 L 356.46,467.72 L 356.99,467.72 L 357.52,467.72 L 358.05,467.72 L 358.58,467.72 L 359.11,467.72 L 359.65,467.72 L 360.18,467.72 L 360.71,467.72 L 361.24,467.72 L 361.77,467.72 L 362.30,467.72 L 362.83,467.72 L 363.37,467.72 L 363.90,467.72 L 364.43,467.72 L 364.96,467.72 L 365.49,467.72 L 366.02,467.72 L 366.56,467.72 L 367.09,467.72 L 367.62,467.72 L 368.15,467.72 L 368.68,467.72 L 369.21,467.72 L 369.74,467.72 L 370.28,467.72 L 370.81,467.72 L 371.34,467.72 L 371.87,467.72 L 372.40,467.72 L 372.93,467.72 L 373.46,467.72 L 374.00,467.72 L 374.53,467.72 L 375.06,467.72 L 375.59,467.72 L 376.12,467.72 L 376.65,467.72 L 377.19,467.72 L 377.72,467.72 L 378.25,467.72 L 378.78,467.72 L 379.31,467.72 L 379.84,467.72 L 380.37,467.72 L 380.91,467.72 L 381.44,467.72 L 381.97,467.72 L 382.50,467.72 L 383.03,467.72 L 383.56,467.72 L 384.09,467.72 L 384.63,467.72 L 385.16,467.72 L 385.69,467.72 L 386.22,467.72 L 386.75,467.72 L 387.28,467.72 L 387.81,467.72 L 388.35,467.72 L 388.88,467.72 L 389.41,467.72 L 389.94,467.72 L 390.47,467.72 L 391.00,467.72 L 391.54,467.72 L 392.07,467.72 L 392.60,467.72 L 393.13,467.72 L 393.66,467.72 L 394.19,467.72 L 394.72,467.72 L 395.26,467.72 L 395.79,467.72 L 396.32,467.72 L 396.85,467.72 L 397.38,467.72 L 397.91,467.72 L 398.44,467.72 L 398.98,467.72 L 399.51,467.72 L 400.04,467.72 L 400.57,467.72 L 401.10,467.72 L 401.63,467.72 L 402.17,467.72 L 402.70,467.72 L 403.23,467.72 L 403.76,467.72 L 404.29,467.72 L 404.82,467.72 L 405.35,467.72 L 405.89,467.72 L 406.42,467.72 L 406.95,467.72 L 407.48,467.72 L 408.01,467.72 L 408.54,467.72 L 409.07,467.72 L 409.61,467.72 L 410.14,467.72 L 410.67,467.72 L 411.20,467.72 L 411.73,467.72 L 412.26,467.72 L 412.80,467.72 L 413.33,467.72 L 413.86,467.72 L 414.39,467.72 L 414.92,467.72 L 415.45,467.72 L 415.98,467.72 L 416.52,467.72 L 417.05,467.72 L 417.58,467.72 L 418.11,467.72 L 418.64,467.72 L 419.17,467.72 L 419.70,467.72 L 420.24,467.72 L 420.77,467.72 L 421.30,467.72 L 421.83,467.72 L 422.36,467.72 L 422.89,467.72 L 423.43,467.72 L 423.96,467.72 L 424.49,467.72 L 425.02,467.72 L 425.55,467.72 L 426.08,467.72 L 426.61,467.72 L 427.15,467.72 L 427.68,467.72 L 428.21,467.72 L 428.74,467.72 L 429.27,467.72 L 429.80,467.72 L 430.33,467.72 L 430.87,467.72 L 431.40,467.72 L 431.93,467.72 L 432.46,467.72 L 432.99,467.72 L 433.52,467.72 L 434.06,467.72 L 434.59,467.72 L 435.12,467.72 L 435.65,467.72 L 436.18,467.72 L 436.71,467.72 L 437.24,467.72 L 437.78,467.72 L 438.31,467.72 L 438.84,467.72 L 439.37,467.72 L 439.90,467.72 L 440.43,467.72 L 440.96,467.72 L 441.50,467.72 L 442.03,467.72 L 442.56,467.72 L 443.09,467.72 L 443.62,467.72 L 444.15,467.72 L 444.69,467.72 L 445.22,467.72 L 445.75,467.72 L 446.28,467.72 L 446.81,467.72 L 447.34,467.72 L 447.87,467.72 L 448.41,467.72 L 448.94,467.72 L 449.47,467.72 L 450.00,467.72 L 450.53,467.72 L 451.06,467.72 L 451.59,467.72 L 452.13,467.72 L 452.66,467.72 L 453.19,467.72 L 453.72,467.72 L 454.25,467.72 L 454.78,467.72 L 455.31,467.72 L 455.85,467.72 L 456.38,467.72 L 456.91,467.72 L 457.44,467.72 L 457.97,467.72 L 458.50,467.72 L 459.04,467.72 L 459.57,467.72 L 460.10,467.72 L 460.63,467.72 L 461.16,467.72 L 461.69,467.72 L 462.22,467.72 L 462.76,467.72 L 463.29,467.72 L 463.82,467.72 L 464.35,467.72 L 464.88,467.72 L 465.41,467.72 L 465.94,467.72 L 466.48,467.72 L 467.01,467.72 L 467.54,467.72 L 468.07,467.72 L 468.60,467.72 L 469.13,467.72 L 469.67,467.72 L 470.20,467.72 L 470.73,467.72 L 471.26,467.72 L 471.79,467.72 L 472.32,467.72 L 472.85,467.72 L 473.39,467.72 L 473.92,467.72 L 474.45,467.72 L 474.98,467.72 L 475.51,467.72 L 476.04,467.72 L 476.57,467.72 L 477.11,467.72 L 477.64,467.72 L 478.17,467.72 L 478.70,467.72 L 479.23,467.72 L 479.76,467.72 L 480.30,467.72 L 480.83,467.72 L 481.36,467.72 L 481.89,467.72"
     style="stroke:black;stroke-width:0.71;stroke-linecap:round;fill:none"
     id="path80" />
  <text
     x="-488.62622"
     y="496.39429"
     transform="matrix(0,-1,1,0,0,0)"
     style="font-size:10px;font-weight:normal;text-anchor:middle;fill:#000000;stroke:none;font-family:sanserif"
     id="text82">SLIP_WALL</text>
  <path
     d="M 481.89,510.24 L 481.89,488.98 L 481.89,467.72"
     style="stroke:black;stroke-width:0.71;stroke-linecap:round;fill:none"
     id="path84" />
  <text
     x="375.59"
     y="519.79156"
     style="font-size:10px;font-weight:normal;text-anchor:middle;fill:#000000;stroke:none;font-family:sanserif"
     id="text86">SLIP_WALL</text>
  <path
     d="M 269.29,510.24 L 269.82,510.24 L 270.35,510.24 L 270.89,510.24 L 271.42,510.24 L 271.95,510.24 L 272.48,510.24 L 273.01,510.24 L 273.54,510.24 L 274.07,510.24 L 274.61,510.24 L 275.14,510.24 L 275.67,510.24 L 276.20,510.24 L 276.73,510.24 L 277.26,510.24 L 277.80,510.24 L 278.33,510.24 L 278.86,510.24 L 279.39,510.24 L 279.92,510.24 L 280.45,510.24 L 280.98,510.24 L 281.52,510.24 L 282.05,510.24 L 282.58,510.24 L 283.11,510.24 L 283.64,510.24 L 284.17,510.24 L 284.70,510.24 L 285.24,510.24 L 285.77,510.24 L 286.30,510.24 L 286.83,510.24 L 287.36,510.24 L 287.89,510.24 L 288.43,510.24 L 288.96,510.24 L 289.49,510.24 L 290.02,510.24 L 290.55,510.24 L 291.08,510.24 L 291.61,510.24 L 292.15,510.24 L 292.68,510.24 L 293.21,510.24 L 293.74,510.24 L 294.27,510.24 L 294.80,510.24 L 295.33,510.24 L 295.87,510.24 L 296.40,510.24 L 296.93,510.24 L 297.46,510.24 L 297.99,510.24 L 298.52,510.24 L 299.06,510.24 L 299.59,510.24 L 300.12,510.24 L 300.65,510.24 L 301.18,510.24 L 301.71,510.24 L 302.24,510.24 L 302.78,510.24 L 303.31,510.24 L 303.84,510.24 L 304.37,510.24 L 304.90,510.24 L 305.43,510.24 L 305.96,510.24 L 306.50,510.24 L 307.03,510.24 L 307.56,510.24 L 308.09,510.24 L 308.62,510.24 L 309.15,510.24 L 309.69,510.24 L 310.22,510.24 L 310.75,510.24 L 311.28,510.24 L 311.81,510.24 L 312.34,510.24 L 312.87,510.24 L 313.41,510.24 L 313.94,510.24 L 314.47,510.24 L 315.00,510.24 L 315.53,510.24 L 316.06,510.24 L 316.59,510.24 L 317.13,510.24 L 317.66,510.24 L 318.19,510.24 L 318.72,510.24 L 319.25,510.24 L 319.78,510.24 L 320.31,510.24 L 320.85,510.24 L 321.38,510.24 L 321.91,510.24 L 322.44,510.24 L 322.97,510.24 L 323.50,510.24 L 324.04,510.24 L 324.57,510.24 L 325.10,510.24 L 325.63,510.24 L 326.16,510.24 L 326.69,510.24 L 327.22,510.24 L 327.76,510.24 L 328.29,510.24 L 328.82,510.24 L 329.35,510.24 L 329.88,510.24 L 330.41,510.24 L 330.94,510.24 L 331.48,510.24 L 332.01,510.24 L 332.54,510.24 L 333.07,510.24 L 333.60,510.24 L 334.13,510.24 L 334.67,510.24 L 335.20,510.24 L 335.73,510.24 L 336.26,510.24 L 336.79,510.24 L 337.32,510.24 L 337.85,510.24 L 338.39,510.24 L 338.92,510.24 L 339.45,510.24 L 339.98,510.24 L 340.51,510.24 L 341.04,510.24 L 341.57,510.24 L 342.11,510.24 L 342.64,510.24 L 343.17,510.24 L 343.70,510.24 L 344.23,510.24 L 344.76,510.24 L 345.30,510.24 L 345.83,510.24 L 346.36,510.24 L 346.89,510.24 L 347.42,510.24 L 347.95,510.24 L 348.48,510.24 L 349.02,510.24 L 349.55,510.24 L 350.08,510.24 L 350.61,510.24 L 351.14,510.24 L 351.67,510.24 L 352.20,510.24 L 352.74,510.24 L 353.27,510.24 L 353.80,510.24 L 354.33,510.24 L 354.86,510.24 L 355.39,510.24 L 355.93,510.24 L 356.46,510.24 L 356.99,510.24 L 357.52,510.24 L 358.05,510.24 L 358.58,510.24 L 359.11,510.24 L 359.65,510.24 L 360.18,510.24 L 360.71,510.24 L 361.24,510.24 L 361.77,510.24 L 362.30,510.24 L 362.83,510.24 L 363.37,510.24 L 363.90,510.24 L 364.43,510.24 L 364.96,510.24 L 365.49,510.24 L 366.02,510.24 L 366.56,510.24 L 367.09,510.24 L 367.62,510.24 L 368.15,510.24 L 368.68,510.24 L 369.21,510.24 L 369.74,510.24 L 370.28,510.24 L 370.81,510.24 L 371.34,510.24 L 371.87,510.24 L 372.40,510.24 L 372.93,510.24 L 373.46,510.24 L 374.00,510.24 L 374.53,510.24 L 375.06,510.24 L 375.59,510.24 L 376.12,510.24 L 376.65,510.24 L 377.19,510.24 L 377.72,510.24 L 378.25,510.24 L 378.78,510.24 L 379.31,510.24 L 379.84,510.24 L 380.37,510.24 L 380.91,510.24 L 381.44,510.24 L 381.97,510.24 L 382.50,510.24 L 383.03,510.24 L 383.56,510.24 L 384.09,510.24 L 384.63,510.24 L 385.16,510.24 L 385.69,510.24 L 386.22,510.24 L 386.75,510.24 L 387.28,510.24 L 387.81,510.24 L 388.35,510.24 L 388.88,510.24 L 389.41,510.24 L 389.94,510.24 L 390.47,510.24 L 391.00,510.24 L 391.54,510.24 L 392.07,510.24 L 392.60,510.24 L 393.13,510.24 L 393.66,510.24 L 394.19,510.24 L 394.72,510.24 L 395.26,510.24 L 395.79,510.24 L 396.32,510.24 L 396.85,510.24 L 397.38,510.24 L 397.91,510.24 L 398.44,510.24 L 398.98,510.24 L 399.51,510.24 L 400.04,510.24 L 400.57,510.24 L 401.10,510.24 L 401.63,510.24 L 402.17,510.24 L 402.70,510.24 L 403.23,510.24 L 403.76,510.24 L 404.29,510.24 L 404.82,510.24 L 405.35,510.24 L 405.89,510.24 L 406.42,510.24 L 406.95,510.24 L 407.48,510.24 L 408.01,510.24 L 408.54,510.24 L 409.07,510.24 L 409.61,510.24 L 410.14,510.24 L 410.67,510.24 L 411.20,510.24 L 411.73,510.24 L 412.26,510.24 L 412.80,510.24 L 413.33,510.24 L 413.86,510.24 L 414.39,510.24 L 414.92,510.24 L 415.45,510.24 L 415.98,510.24 L 416.52,510.24 L 417.05,510.24 L 417.58,510.24 L 418.11,510.24 L 418.64,510.24 L 419.17,510.24 L 419.70,510.24 L 420.24,510.24 L 420.77,510.24 L 421.30,510.24 L 421.83,510.24 L 422.36,510.24 L 422.89,510.24 L 423.43,510.24 L 423.96,510.24 L 424.49,510.24 L 425.02,510.24 L 425.55,510.24 L 426.08,510.24 L 426.61,510.24 L 427.15,510.24 L 427.68,510.24 L 428.21,510.24 L 428.74,510.24 L 429.27,510.24 L 429.80,510.24 L 430.33,510.24 L 430.87,510.24 L 431.40,510.24 L 431.93,510.24 L 432.46,510.24 L 432.99,510.24 L 433.52,510.24 L 434.06,510.24 L 434.59,510.24 L 435.12,510.24 L 435.65,510.24 L 436.18,510.24 L 436.71,510.24 L 437.24,510.24 L 437.78,510.24 L 438.31,510.24 L 438.84,510.24 L 439.37,510.24 L 439.90,510.24 L 440.43,510.24 L 440.96,510.24 L 441.50,510.24 L 442.03,510.24 L 442.56,510.24 L 443.09,510.24 L 443.62,510.24 L 444.15,510.24 L 444.69,510.24 L 445.22,510.24 L 445.75,510.24 L 446.28,510.24 L 446.81,510.24 L 447.34,510.24 L 447.87,510.24 L 448.41,510.24 L 448.94,510.24 L 449.47,510.24 L 450.00,510.24 L 450.53,510.24 L 451.06,510.24 L 451.59,510.24 L 452.13,510.24 L 452.66,510.24 L 453.19,510.24 L 453.72,510.24 L 454.25,510.24 L 454.78,510.24 L 455.31,510.24 L 455.85,510.24 L 456.38,510.24 L 456.91,510.24 L 457.44,510.24 L 457.97,510.24 L 458.50,510.24 L 459.04,510.24 L 459.57,510.24 L 460.10,510.24 L 460.63,510.24 L 461.16,510.24 L 461.69,510.24 L 462.22,510.24 L 462.76,510.24 L 463.29,510.24 L 463.82,510.24 L 464.35,510.24 L 464.88,510.24 L 465.41,510.24 L 465.94,510.24 L 466.48,510.24 L 467.01,510.24 L 467.54,510.24 L 468.07,510.24 L 468.60,510.24 L 469.13,510.24 L 469.67,510.24 L 470.20,510.24 L 470.73,510.24 L 471.26,510.24 L 471.79,510.24 L 472.32,510.24 L 472.85,510.24 L 473.39,510.24 L 473.92,510.24 L 474.45,510.24 L 474.98,510.24 L 475.51,510.24 L 476.04,510.24 L 476.57,510.24 L 477.11,510.24 L 477.64,510.24 L 478.17,510.24 L 478.70,510.24 L 479.23,510.24 L 479.76,510.24 L 480.30,510.24 L 480.83,510.24 L 481.36,510.24 L 481.89,510.24"
     style="stroke:black;stroke-width:0.71;stroke-linecap:round;fill:none"
     id="path88" />
  <path
     d="M 269.29,510.24 L 269.29,488.98 L 269.29,467.72"
     style="stroke:black;stroke-width:0.71;stroke-linecap:round;fill:none;stroke-dasharray: 5.67 5.67"
     id="path90" />
  <!-- end of drawing -->
  <path
     style="fill:none;stroke:#000000;stroke-width:0.7;stroke-linecap:butt;stroke-linejoin:miter;stroke-opacity:1;marker-end:url(#Arrow1Mend);stroke-miterlimit:4;stroke-dasharray:none"
     d="m 47.278021,455.11372 0.250148,26.51572 8.755189,7.2543"
     id="path3075"
     inkscape:connector-curvature="0" />
</svg>
