<?xml version="1.0"?>
<!DOCTYPE svg PUBLIC "-//W3C//DTD SVG 1.0//EN"
"http://www.w3.org/TR/2001/REC-SVG-20010904/DTD/svg10.dtd">
<svg xmlns:svg="http://www.w3.org/2000/svg"
     xmlns:xlink="http://www.w3.org/1999/xlink"
     width="566.93" height="566.93"
     version="1.0">
<title>Porous test case.</title>
<desc>SVG file written by e3prep.py</desc>
<!-- drawing begins here -->
<line x1="141.73" y1="442.20" x2="481.89" y2="442.20" style="stroke:black;stroke-width:1.42;stroke-linecap:round;fill:none" />
<text x="311.81" y="467.72" style="font-size:10;text-anchor:start;fill:black;stroke:none;font-weight:normal;font-family:sanserif" >x</text>
<line x1="141.73" y1="442.20" x2="141.73" y2="436.54" style="stroke:black;stroke-width:1.42;stroke-linecap:round;fill:none" />
<text x="141.73" y="456.38" style="font-size:10;text-anchor:middle;fill:black;stroke:none;font-weight:normal;font-family:sanserif" >0</text>
<line x1="209.76" y1="442.20" x2="209.76" y2="436.54" style="stroke:black;stroke-width:1.42;stroke-linecap:round;fill:none" />
<text x="209.76" y="456.38" style="font-size:10;text-anchor:middle;fill:black;stroke:none;font-weight:normal;font-family:sanserif" >0.2</text>
<line x1="277.80" y1="442.20" x2="277.80" y2="436.54" style="stroke:black;stroke-width:1.42;stroke-linecap:round;fill:none" />
<text x="277.80" y="456.38" style="font-size:10;text-anchor:middle;fill:black;stroke:none;font-weight:normal;font-family:sanserif" >0.4</text>
<line x1="345.83" y1="442.20" x2="345.83" y2="436.54" style="stroke:black;stroke-width:1.42;stroke-linecap:round;fill:none" />
<text x="345.83" y="456.38" style="font-size:10;text-anchor:middle;fill:black;stroke:none;font-weight:normal;font-family:sanserif" >0.6</text>
<line x1="413.86" y1="442.20" x2="413.86" y2="436.54" style="stroke:black;stroke-width:1.42;stroke-linecap:round;fill:none" />
<text x="413.86" y="456.38" style="font-size:10;text-anchor:middle;fill:black;stroke:none;font-weight:normal;font-family:sanserif" >0.8</text>
<line x1="481.89" y1="442.20" x2="481.89" y2="436.54" style="stroke:black;stroke-width:1.42;stroke-linecap:round;fill:none" />
<text x="481.89" y="456.38" style="font-size:10;text-anchor:middle;fill:black;stroke:none;font-weight:normal;font-family:sanserif" >1</text>
<line x1="128.13" y1="425.20" x2="128.13" y2="221.10" style="stroke:black;stroke-width:1.42;stroke-linecap:round;fill:none" />
<text x="105.45" y="323.15" style="font-size:10;text-anchor:end;fill:black;stroke:none;font-weight:normal;font-family:sanserif" >y</text>
<line x1="128.13" y1="425.20" x2="133.80" y2="425.20" style="stroke:black;stroke-width:1.42;stroke-linecap:round;fill:none" />
<text x="119.62" y="425.20" style="font-size:10;text-anchor:end;fill:black;stroke:none;font-weight:normal;font-family:sanserif" >0</text>
<line x1="128.13" y1="357.17" x2="133.80" y2="357.17" style="stroke:black;stroke-width:1.42;stroke-linecap:round;fill:none" />
<text x="119.62" y="357.17" style="font-size:10;text-anchor:end;fill:black;stroke:none;font-weight:normal;font-family:sanserif" >0.2</text>
<line x1="128.13" y1="289.13" x2="133.80" y2="289.13" style="stroke:black;stroke-width:1.42;stroke-linecap:round;fill:none" />
<text x="119.62" y="289.13" style="font-size:10;text-anchor:end;fill:black;stroke:none;font-weight:normal;font-family:sanserif" >0.4</text>
<line x1="128.13" y1="221.10" x2="133.80" y2="221.10" style="stroke:black;stroke-width:1.42;stroke-linecap:round;fill:none" />
<text x="119.62" y="221.10" style="font-size:10;text-anchor:end;fill:black;stroke:none;font-weight:normal;font-family:sanserif" >0.6</text>
<!-- There are 10 nodes
 -->
<circle cx="141.73" cy="391.18" r="2.83" style="fill:black" />
<text x="141.73" y="386.93" style="font-size:10;text-anchor:end;fill:black;stroke:none;font-weight:normal;font-family:sanserif" >o</text>
<circle cx="243.78" cy="391.18" r="2.83" style="fill:black" />
<text x="243.78" y="386.93" style="font-size:10;text-anchor:end;fill:black;stroke:none;font-weight:normal;font-family:sanserif" >a</text>
<circle cx="345.83" cy="391.18" r="2.83" style="fill:black" />
<text x="345.83" y="386.93" style="font-size:10;text-anchor:end;fill:black;stroke:none;font-weight:normal;font-family:sanserif" >b</text>
<circle cx="447.87" cy="391.18" r="2.83" style="fill:black" />
<text x="447.87" y="386.93" style="font-size:10;text-anchor:end;fill:black;stroke:none;font-weight:normal;font-family:sanserif" >c</text>
<circle cx="447.87" cy="289.13" r="2.83" style="fill:black" />
<text x="447.87" y="284.88" style="font-size:10;text-anchor:end;fill:black;stroke:none;font-weight:normal;font-family:sanserif" >d</text>
<circle cx="345.83" cy="289.13" r="2.83" style="fill:black" />
<text x="345.83" y="284.88" style="font-size:10;text-anchor:end;fill:black;stroke:none;font-weight:normal;font-family:sanserif" >e</text>
<circle cx="243.78" cy="289.13" r="2.83" style="fill:black" />
<text x="243.78" y="284.88" style="font-size:10;text-anchor:end;fill:black;stroke:none;font-weight:normal;font-family:sanserif" >f</text>
<circle cx="141.73" cy="289.13" r="2.83" style="fill:black" />
<text x="141.73" y="284.88" style="font-size:10;text-anchor:end;fill:black;stroke:none;font-weight:normal;font-family:sanserif" >g</text>
<circle cx="243.78" cy="397.98" r="2.83" style="fill:black" />
<text x="243.78" y="393.73" style="font-size:10;text-anchor:end;fill:black;stroke:none;font-weight:normal;font-family:sanserif" >h</text>
<circle cx="345.83" cy="397.98" r="2.83" style="fill:black" />
<text x="345.83" y="393.73" style="font-size:10;text-anchor:end;fill:black;stroke:none;font-weight:normal;font-family:sanserif" >i</text>
<!-- There are 4 blocks
 -->
<!-- Render block 0
 -->
<text x="192.76" y="322.81" style="font-size:10;text-anchor:middle;fill:black;stroke:none;font-weight:normal;font-family:sanserif" >BLOCK-0</text>
<text x="192.76" y="289.13" transform="rotate(0.00,192.76,289.13)"  style="font-size:10;text-anchor:middle;fill:black;stroke:none;font-weight:normal;font-family:sanserif" >SLIP_WALL</text>
<path d="M 141.73,289.13 L 146.83,289.13 L 151.94,289.13 L 157.04,289.13 L 162.14,289.13 L 167.24,289.13 L 172.35,289.13 L 177.45,289.13 L 182.55,289.13 L 187.65,289.13 L 192.76,289.13 L 197.86,289.13 L 202.96,289.13 L 208.06,289.13 L 213.17,289.13 L 218.27,289.13 L 223.37,289.13 L 228.47,289.13 L 233.57,289.13 L 238.68,289.13 L 243.78,289.13" style="stroke:black;stroke-width:0.71;stroke-linecap:round;fill:none"/>
<path d="M 243.78,391.18 L 243.78,386.08 L 243.78,380.98 L 243.78,375.87 L 243.78,370.77 L 243.78,365.67 L 243.78,360.57 L 243.78,355.46 L 243.78,350.36 L 243.78,345.26 L 243.78,340.16 L 243.78,335.06 L 243.78,329.95 L 243.78,324.85 L 243.78,319.75 L 243.78,314.65 L 243.78,309.54 L 243.78,304.44 L 243.78,299.34 L 243.78,294.24 L 243.78,289.13" style="stroke:black;stroke-width:0.71;stroke-linecap:round;fill:none;stroke-dasharray: 5.67 5.67"/>
<text x="192.76" y="391.18" transform="rotate(0.00,192.76,391.18)"  style="font-size:10;text-anchor:middle;fill:black;stroke:none;font-weight:normal;font-family:sanserif" >SLIP_WALL</text>
<path d="M 141.73,391.18 L 146.83,391.18 L 151.94,391.18 L 157.04,391.18 L 162.14,391.18 L 167.24,391.18 L 172.35,391.18 L 177.45,391.18 L 182.55,391.18 L 187.65,391.18 L 192.76,391.18 L 197.86,391.18 L 202.96,391.18 L 208.06,391.18 L 213.17,391.18 L 218.27,391.18 L 223.37,391.18 L 228.47,391.18 L 233.57,391.18 L 238.68,391.18 L 243.78,391.18" style="stroke:black;stroke-width:0.71;stroke-linecap:round;fill:none"/>
<text x="141.73" y="340.16" transform="rotate(-90.00,141.73,340.16)"  style="font-size:10;text-anchor:middle;fill:black;stroke:none;font-weight:normal;font-family:sanserif" >SUP_IN</text>
<path d="M 141.73,391.18 L 141.73,386.08 L 141.73,380.98 L 141.73,375.87 L 141.73,370.77 L 141.73,365.67 L 141.73,360.57 L 141.73,355.46 L 141.73,350.36 L 141.73,345.26 L 141.73,340.16 L 141.73,335.06 L 141.73,329.95 L 141.73,324.85 L 141.73,319.75 L 141.73,314.65 L 141.73,309.54 L 141.73,304.44 L 141.73,299.34 L 141.73,294.24 L 141.73,289.13" style="stroke:black;stroke-width:0.71;stroke-linecap:round;fill:none"/>
<!-- Render block 1
 -->
<text x="294.80" y="322.81" style="font-size:10;text-anchor:middle;fill:black;stroke:none;font-weight:normal;font-family:sanserif" >BLOCK-1</text>
<text x="294.80" y="289.13" transform="rotate(0.00,294.80,289.13)"  style="font-size:10;text-anchor:middle;fill:black;stroke:none;font-weight:normal;font-family:sanserif" >SLIP_WALL</text>
<path d="M 243.78,289.13 L 248.88,289.13 L 253.98,289.13 L 259.09,289.13 L 264.19,289.13 L 269.29,289.13 L 274.39,289.13 L 279.50,289.13 L 284.60,289.13 L 289.70,289.13 L 294.80,289.13 L 299.91,289.13 L 305.01,289.13 L 310.11,289.13 L 315.21,289.13 L 320.31,289.13 L 325.42,289.13 L 330.52,289.13 L 335.62,289.13 L 340.72,289.13 L 345.83,289.13" style="stroke:black;stroke-width:0.71;stroke-linecap:round;fill:none"/>
<path d="M 345.83,391.18 L 345.83,386.08 L 345.83,380.98 L 345.83,375.87 L 345.83,370.77 L 345.83,365.67 L 345.83,360.57 L 345.83,355.46 L 345.83,350.36 L 345.83,345.26 L 345.83,340.16 L 345.83,335.06 L 345.83,329.95 L 345.83,324.85 L 345.83,319.75 L 345.83,314.65 L 345.83,309.54 L 345.83,304.44 L 345.83,299.34 L 345.83,294.24 L 345.83,289.13" style="stroke:black;stroke-width:0.71;stroke-linecap:round;fill:none;stroke-dasharray: 5.67 5.67"/>
<path d="M 243.78,391.18 L 248.88,391.18 L 253.98,391.18 L 259.09,391.18 L 264.19,391.18 L 269.29,391.18 L 274.39,391.18 L 279.50,391.18 L 284.60,391.18 L 289.70,391.18 L 294.80,391.18 L 299.91,391.18 L 305.01,391.18 L 310.11,391.18 L 315.21,391.18 L 320.31,391.18 L 325.42,391.18 L 330.52,391.18 L 335.62,391.18 L 340.72,391.18 L 345.83,391.18" style="stroke:black;stroke-width:0.71;stroke-linecap:round;fill:none;stroke-dasharray: 5.67 5.67"/>
<path d="M 243.78,391.18 L 243.78,386.08 L 243.78,380.98 L 243.78,375.87 L 243.78,370.77 L 243.78,365.67 L 243.78,360.57 L 243.78,355.46 L 243.78,350.36 L 243.78,345.26 L 243.78,340.16 L 243.78,335.06 L 243.78,329.95 L 243.78,324.85 L 243.78,319.75 L 243.78,314.65 L 243.78,309.54 L 243.78,304.44 L 243.78,299.34 L 243.78,294.24 L 243.78,289.13" style="stroke:black;stroke-width:0.71;stroke-linecap:round;fill:none;stroke-dasharray: 5.67 5.67"/>
<!-- Render block 2
 -->
<text x="396.85" y="322.81" style="font-size:10;text-anchor:middle;fill:black;stroke:none;font-weight:normal;font-family:sanserif" >BLOCK-2</text>
<text x="396.85" y="289.13" transform="rotate(0.00,396.85,289.13)"  style="font-size:10;text-anchor:middle;fill:black;stroke:none;font-weight:normal;font-family:sanserif" >SLIP_WALL</text>
<path d="M 345.83,289.13 L 350.93,289.13 L 356.03,289.13 L 361.13,289.13 L 366.24,289.13 L 371.34,289.13 L 376.44,289.13 L 381.54,289.13 L 386.65,289.13 L 391.75,289.13 L 396.85,289.13 L 401.95,289.13 L 407.06,289.13 L 412.16,289.13 L 417.26,289.13 L 422.36,289.13 L 427.46,289.13 L 432.57,289.13 L 437.67,289.13 L 442.77,289.13 L 447.87,289.13" style="stroke:black;stroke-width:0.71;stroke-linecap:round;fill:none"/>
<text x="447.87" y="340.16" transform="rotate(-90.00,447.87,340.16)"  style="font-size:10;text-anchor:middle;fill:black;stroke:none;font-weight:normal;font-family:sanserif" >EXTRAPOLATE_OUT</text>
<path d="M 447.87,391.18 L 447.87,386.08 L 447.87,380.98 L 447.87,375.87 L 447.87,370.77 L 447.87,365.67 L 447.87,360.57 L 447.87,355.46 L 447.87,350.36 L 447.87,345.26 L 447.87,340.16 L 447.87,335.06 L 447.87,329.95 L 447.87,324.85 L 447.87,319.75 L 447.87,314.65 L 447.87,309.54 L 447.87,304.44 L 447.87,299.34 L 447.87,294.24 L 447.87,289.13" style="stroke:black;stroke-width:0.71;stroke-linecap:round;fill:none"/>
<text x="396.85" y="391.18" transform="rotate(0.00,396.85,391.18)"  style="font-size:10;text-anchor:middle;fill:black;stroke:none;font-weight:normal;font-family:sanserif" >SLIP_WALL</text>
<path d="M 345.83,391.18 L 350.93,391.18 L 356.03,391.18 L 361.13,391.18 L 366.24,391.18 L 371.34,391.18 L 376.44,391.18 L 381.54,391.18 L 386.65,391.18 L 391.75,391.18 L 396.85,391.18 L 401.95,391.18 L 407.06,391.18 L 412.16,391.18 L 417.26,391.18 L 422.36,391.18 L 427.46,391.18 L 432.57,391.18 L 437.67,391.18 L 442.77,391.18 L 447.87,391.18" style="stroke:black;stroke-width:0.71;stroke-linecap:round;fill:none"/>
<path d="M 345.83,391.18 L 345.83,386.08 L 345.83,380.98 L 345.83,375.87 L 345.83,370.77 L 345.83,365.67 L 345.83,360.57 L 345.83,355.46 L 345.83,350.36 L 345.83,345.26 L 345.83,340.16 L 345.83,335.06 L 345.83,329.95 L 345.83,324.85 L 345.83,319.75 L 345.83,314.65 L 345.83,309.54 L 345.83,304.44 L 345.83,299.34 L 345.83,294.24 L 345.83,289.13" style="stroke:black;stroke-width:0.71;stroke-linecap:round;fill:none;stroke-dasharray: 5.67 5.67"/>
<!-- Render block 3
 -->
<text x="294.80" y="393.43" style="font-size:10;text-anchor:middle;fill:black;stroke:none;font-weight:normal;font-family:sanserif" >BLOCK-3</text>
<path d="M 243.78,391.18 L 248.88,391.18 L 253.98,391.18 L 259.09,391.18 L 264.19,391.18 L 269.29,391.18 L 274.39,391.18 L 279.50,391.18 L 284.60,391.18 L 289.70,391.18 L 294.80,391.18 L 299.91,391.18 L 305.01,391.18 L 310.11,391.18 L 315.21,391.18 L 320.31,391.18 L 325.42,391.18 L 330.52,391.18 L 335.62,391.18 L 340.72,391.18 L 345.83,391.18" style="stroke:black;stroke-width:0.71;stroke-linecap:round;fill:none;stroke-dasharray: 5.67 5.67"/>
<text x="345.83" y="394.58" transform="rotate(-90.00,345.83,394.58)"  style="font-size:10;text-anchor:middle;fill:black;stroke:none;font-weight:normal;font-family:sanserif" >SLIP_WALL</text>
<path d="M 345.83,397.98 L 345.83,396.62 L 345.83,395.26 L 345.83,393.90 L 345.83,392.54 L 345.83,391.18" style="stroke:black;stroke-width:0.71;stroke-linecap:round;fill:none"/>
<text x="294.80" y="397.98" transform="rotate(0.00,294.80,397.98)"  style="font-size:10;text-anchor:middle;fill:black;stroke:none;font-weight:normal;font-family:sanserif" >SUP_IN</text>
<path d="M 243.78,397.98 L 248.88,397.98 L 253.98,397.98 L 259.09,397.98 L 264.19,397.98 L 269.29,397.98 L 274.39,397.98 L 279.50,397.98 L 284.60,397.98 L 289.70,397.98 L 294.80,397.98 L 299.91,397.98 L 305.01,397.98 L 310.11,397.98 L 315.21,397.98 L 320.31,397.98 L 325.42,397.98 L 330.52,397.98 L 335.62,397.98 L 340.72,397.98 L 345.83,397.98" style="stroke:black;stroke-width:0.71;stroke-linecap:round;fill:none"/>
<text x="243.78" y="394.58" transform="rotate(-90.00,243.78,394.58)"  style="font-size:10;text-anchor:middle;fill:black;stroke:none;font-weight:normal;font-family:sanserif" >SLIP_WALL</text>
<path d="M 243.78,397.98 L 243.78,396.62 L 243.78,395.26 L 243.78,393.90 L 243.78,392.54 L 243.78,391.18" style="stroke:black;stroke-width:0.71;stroke-linecap:round;fill:none"/>
<!-- end of drawing -->
</svg>
