<?xml version="1.0" encoding="UTF-8" standalone="no"?>
<svg
   xmlns:dc="http://purl.org/dc/elements/1.1/"
   xmlns:cc="http://creativecommons.org/ns#"
   xmlns:rdf="http://www.w3.org/1999/02/22-rdf-syntax-ns#"
   xmlns:svg="http://www.w3.org/2000/svg"
   xmlns="http://www.w3.org/2000/svg"
   xmlns:sodipodi="http://sodipodi.sourceforge.net/DTD/sodipodi-0.dtd"
   xmlns:inkscape="http://www.inkscape.org/namespaces/inkscape"
   width="566.93"
   height="566.93"
   version="1.0"
   id="svg2"
   inkscape:version="0.48.3.1 r9886"
   sodipodi:docname="the_clustered_bottle_edited.svg">
  <metadata
     id="metadata236">
    <rdf:RDF>
      <cc:Work
         rdf:about="">
        <dc:format>image/svg+xml</dc:format>
        <dc:type
           rdf:resource="http://purl.org/dc/dcmitype/StillImage" />
      </cc:Work>
    </rdf:RDF>
  </metadata>
  <defs
     id="defs234" />
  <sodipodi:namedview
     pagecolor="#ffffff"
     bordercolor="#666666"
     borderopacity="1"
     objecttolerance="10"
     gridtolerance="10"
     guidetolerance="10"
     inkscape:pageopacity="0"
     inkscape:pageshadow="2"
     inkscape:window-width="1231"
     inkscape:window-height="714"
     id="namedview232"
     showgrid="false"
     inkscape:zoom="1.6076434"
     inkscape:cx="297.26569"
     inkscape:cy="165.55786"
     inkscape:window-x="0"
     inkscape:window-y="0"
     inkscape:window-maximized="0"
     inkscape:current-layer="svg2" />
  <title
     id="title4">Another Eilmer3 Simulation.</title>
  <desc
     id="desc6">SVG file written by e3prep.py</desc>
  <!-- drawing begins here -->
  <line
     x1="43.627399"
     y1="480.27161"
     x2="553.86737"
     y2="480.27161"
     style="fill:none;stroke:#000000;stroke-width:1.41999996;stroke-linecap:round"
     id="line8" />
  <text
     x="325.45627"
     y="509.42368"
     style="font-size:10px;font-weight:normal;text-anchor:start;fill:#000000;stroke:none;font-family:sanserif"
     id="text10">x</text>
  <line
     x1="43.627399"
     y1="480.27161"
     x2="43.627399"
     y2="474.60159"
     style="fill:none;stroke:#000000;stroke-width:1.41999996;stroke-linecap:round"
     id="line12" />
  <text
     x="43.627399"
     y="494.44159"
     style="font-size:10px;font-weight:normal;text-anchor:middle;fill:#000000;stroke:none;font-family:sanserif"
     id="text14">-0.1</text>
  <line
     x1="107.4074"
     y1="480.27161"
     x2="107.4074"
     y2="474.60159"
     style="fill:none;stroke:#000000;stroke-width:1.41999996;stroke-linecap:round"
     id="line16" />
  <text
     x="107.4074"
     y="494.44159"
     style="font-size:10px;font-weight:normal;text-anchor:middle;fill:#000000;stroke:none;font-family:sanserif"
     id="text18">-0.05</text>
  <line
     x1="171.18741"
     y1="480.27161"
     x2="171.18741"
     y2="474.60159"
     style="fill:none;stroke:#000000;stroke-width:1.41999996;stroke-linecap:round"
     id="line20" />
  <text
     x="171.18741"
     y="494.44159"
     style="font-size:10px;font-weight:normal;text-anchor:middle;fill:#000000;stroke:none;font-family:sanserif"
     id="text22">0</text>
  <line
     x1="234.96741"
     y1="480.27161"
     x2="234.96741"
     y2="474.60159"
     style="fill:none;stroke:#000000;stroke-width:1.41999996;stroke-linecap:round"
     id="line24" />
  <text
     x="234.96741"
     y="494.44159"
     style="font-size:10px;font-weight:normal;text-anchor:middle;fill:#000000;stroke:none;font-family:sanserif"
     id="text26">0.05</text>
  <line
     x1="298.74741"
     y1="480.27161"
     x2="298.74741"
     y2="474.60159"
     style="fill:none;stroke:#000000;stroke-width:1.41999996;stroke-linecap:round"
     id="line28" />
  <text
     x="298.74741"
     y="494.44159"
     style="font-size:10px;font-weight:normal;text-anchor:middle;fill:#000000;stroke:none;font-family:sanserif"
     id="text30">0.1</text>
  <line
     x1="362.5274"
     y1="480.27161"
     x2="362.5274"
     y2="474.60159"
     style="fill:none;stroke:#000000;stroke-width:1.41999996;stroke-linecap:round"
     id="line32" />
  <text
     x="362.5274"
     y="494.44159"
     style="font-size:10px;font-weight:normal;text-anchor:middle;fill:#000000;stroke:none;font-family:sanserif"
     id="text34">0.15</text>
  <line
     x1="426.3074"
     y1="480.27161"
     x2="426.3074"
     y2="474.60159"
     style="fill:none;stroke:#000000;stroke-width:1.41999996;stroke-linecap:round"
     id="line36" />
  <text
     x="426.3074"
     y="494.44159"
     style="font-size:10px;font-weight:normal;text-anchor:middle;fill:#000000;stroke:none;font-family:sanserif"
     id="text38">0.2</text>
  <line
     x1="490.0874"
     y1="480.27161"
     x2="490.0874"
     y2="474.60159"
     style="fill:none;stroke:#000000;stroke-width:1.41999996;stroke-linecap:round"
     id="line40" />
  <text
     x="490.0874"
     y="494.44159"
     style="font-size:10px;font-weight:normal;text-anchor:middle;fill:#000000;stroke:none;font-family:sanserif"
     id="text42">0.25</text>
  <line
     x1="553.86737"
     y1="480.27161"
     x2="553.86737"
     y2="474.60159"
     style="fill:none;stroke:#000000;stroke-width:1.41999996;stroke-linecap:round"
     id="line44" />
  <text
     x="553.86737"
     y="494.44159"
     style="font-size:10px;font-weight:normal;text-anchor:middle;fill:#000000;stroke:none;font-family:sanserif"
     id="text46">0.3</text>
  <line
     x1="30.877399"
     y1="416.49161"
     x2="30.877399"
     y2="288.93161"
     style="fill:none;stroke:#000000;stroke-width:1.41999996;stroke-linecap:round"
     id="line48" />
  <text
     x="-5.3293166"
     y="320.508"
     style="font-size:10px;font-weight:normal;text-anchor:end;fill:#000000;stroke:none;font-family:sanserif"
     id="text50">y</text>
  <line
     x1="30.877399"
     y1="416.49161"
     x2="36.547401"
     y2="416.49161"
     style="fill:none;stroke:#000000;stroke-width:1.41999996;stroke-linecap:round"
     id="line52" />
  <text
     x="22.367401"
     y="416.49161"
     style="font-size:10px;font-weight:normal;text-anchor:end;fill:#000000;stroke:none;font-family:sanserif"
     id="text54">0</text>
  <line
     x1="30.877399"
     y1="352.71161"
     x2="36.547401"
     y2="352.71161"
     style="fill:none;stroke:#000000;stroke-width:1.41999996;stroke-linecap:round"
     id="line56" />
  <text
     x="22.367401"
     y="352.71161"
     style="font-size:10px;font-weight:normal;text-anchor:end;fill:#000000;stroke:none;font-family:sanserif"
     id="text58">0.05</text>
  <line
     x1="30.877399"
     y1="288.93161"
     x2="36.547401"
     y2="288.93161"
     style="fill:none;stroke:#000000;stroke-width:1.41999996;stroke-linecap:round"
     id="line60" />
  <text
     x="22.367401"
     y="288.93161"
     style="font-size:10px;font-weight:normal;text-anchor:end;fill:#000000;stroke:none;font-family:sanserif"
     id="text62">0.1</text>
  <!-- There are 20 nodes
 -->
  <circle
     cx="94.959999"
     cy="425.20001"
     r="2.8299999"
     style="fill:#000000"
     id="circle64"
     sodipodi:cx="94.959999"
     sodipodi:cy="425.20001"
     sodipodi:rx="2.8299999"
     sodipodi:ry="2.8299999"
     transform="translate(-13.062598,-8.7083989)" />
  <text
     x="78.757034"
     y="413.46045"
     style="font-size:10px;font-weight:normal;text-anchor:end;fill:#000000;stroke:none;font-family:sanserif"
     id="text66">A</text>
  <circle
     cx="120.47"
     cy="425.20001"
     r="2.8299999"
     style="fill:#000000"
     id="circle68"
     sodipodi:cx="120.47"
     sodipodi:cy="425.20001"
     sodipodi:rx="2.8299999"
     sodipodi:ry="2.8299999"
     transform="translate(-13.062598,-8.7083989)" />
  <text
     x="104.54011"
     y="412.77774"
     style="font-size:10px;font-weight:normal;text-anchor:end;fill:#000000;stroke:none;font-family:sanserif"
     id="text70">B</text>
  <circle
     cx="184.25"
     cy="425.20001"
     r="2.8299999"
     style="fill:#000000"
     id="circle72"
     sodipodi:cx="184.25"
     sodipodi:cy="425.20001"
     sodipodi:rx="2.8299999"
     sodipodi:ry="2.8299999"
     transform="translate(-13.062598,-8.7083989)" />
  <text
     x="178.96071"
     y="428.16049"
     style="font-size:10px;font-weight:normal;text-anchor:end;fill:#000000;stroke:none;font-family:sanserif"
     id="text74">C</text>
  <circle
     cx="190.63"
     cy="409.89001"
     r="2.8299999"
     style="fill:#000000"
     id="circle76"
     sodipodi:cx="190.63"
     sodipodi:cy="409.89001"
     sodipodi:rx="2.8299999"
     sodipodi:ry="2.8299999"
     transform="translate(-13.062598,-8.7083989)" />
  <text
     x="172.97989"
     y="396.54932"
     style="font-size:10px;font-weight:normal;text-anchor:end;fill:#000000;stroke:none;font-family:sanserif"
     id="text78">D</text>
  <circle
     cx="311.81"
     cy="386.92999"
     r="2.8299999"
     style="fill:#000000"
     id="circle80"
     sodipodi:cx="311.81"
     sodipodi:cy="386.92999"
     sodipodi:rx="2.8299999"
     sodipodi:ry="2.8299999"
     transform="translate(-13.062598,-8.7083989)" />
  <text
     x="295.93466"
     y="374.75134"
     style="font-size:10px;font-weight:normal;text-anchor:end;fill:#000000;stroke:none;font-family:sanserif"
     id="text82">E</text>
  <circle
     cx="441.92001"
     cy="386.92999"
     r="2.8299999"
     style="fill:#000000"
     id="circle84"
     sodipodi:cx="441.92001"
     sodipodi:cy="386.92999"
     sodipodi:rx="2.8299999"
     sodipodi:ry="2.8299999"
     transform="translate(-13.062598,-8.7083989)" />
  <text
     x="425.46112"
     y="374.30026"
     style="font-size:10px;font-weight:normal;text-anchor:end;fill:#000000;stroke:none;font-family:sanserif"
     id="text86">F</text>
  <circle
     cx="448.29999"
     cy="425.20001"
     r="2.8299999"
     style="fill:#000000"
     id="circle88"
     sodipodi:cx="448.29999"
     sodipodi:cy="425.20001"
     sodipodi:rx="2.8299999"
     sodipodi:ry="2.8299999"
     transform="translate(-13.062598,-8.7083989)" />
  <text
     x="446.41235"
     y="412.12204"
     style="font-size:10px;font-weight:normal;text-anchor:end;fill:#000000;stroke:none;font-family:sanserif"
     id="text90">G</text>
  <circle
     cx="566.92999"
     cy="425.20001"
     r="2.8299999"
     style="fill:#000000"
     id="circle92"
     sodipodi:cx="566.92999"
     sodipodi:cy="425.20001"
     sodipodi:rx="2.8299999"
     sodipodi:ry="2.8299999"
     transform="translate(-13.062598,-8.7083989)" />
  <text
     x="551.39185"
     y="412.50665"
     style="font-size:10px;font-weight:normal;text-anchor:end;fill:#000000;stroke:none;font-family:sanserif"
     id="text94">H</text>
  <circle
     cx="94.959999"
     cy="297.64001"
     r="2.8299999"
     style="fill:#000000"
     id="circle96"
     sodipodi:cx="94.959999"
     sodipodi:cy="297.64001"
     sodipodi:rx="2.8299999"
     sodipodi:ry="2.8299999"
     transform="translate(-13.062598,-8.7083989)" />
  <text
     x="79.38205"
     y="284.38913"
     style="font-size:10px;font-weight:normal;text-anchor:end;fill:#000000;stroke:none;font-family:sanserif"
     id="text98">I</text>
  <circle
     cx="120.47"
     cy="297.64001"
     r="2.8299999"
     style="fill:#000000"
     id="circle100"
     sodipodi:cx="120.47"
     sodipodi:cy="297.64001"
     sodipodi:rx="2.8299999"
     sodipodi:ry="2.8299999"
     transform="translate(-13.062598,-8.7083989)" />
  <text
     x="105.711"
     y="283.97964"
     style="font-size:10px;font-weight:normal;text-anchor:end;fill:#000000;stroke:none;font-family:sanserif"
     id="text102">J</text>
  <circle
     cx="311.81"
     cy="297.64001"
     r="2.8299999"
     style="fill:#000000"
     id="circle104"
     sodipodi:cx="311.81"
     sodipodi:cy="297.64001"
     sodipodi:rx="2.8299999"
     sodipodi:ry="2.8299999"
     transform="translate(-13.062598,-8.7083989)" />
  <text
     x="298.74741"
     y="284.68161"
     style="font-size:10px;font-weight:normal;text-anchor:end;fill:#000000;stroke:none;font-family:sanserif"
     id="text106">K</text>
  <circle
     cx="441.92001"
     cy="297.64001"
     r="2.8299999"
     style="fill:#000000"
     id="circle108"
     sodipodi:cx="441.92001"
     sodipodi:cy="297.64001"
     sodipodi:rx="2.8299999"
     sodipodi:ry="2.8299999"
     transform="translate(-13.062598,-8.7083989)" />
  <text
     x="428.85742"
     y="284.68161"
     style="font-size:10px;font-weight:normal;text-anchor:end;fill:#000000;stroke:none;font-family:sanserif"
     id="text110">L</text>
  <circle
     cx="566.92999"
     cy="297.64001"
     r="2.8299999"
     style="fill:#000000"
     id="circle112"
     sodipodi:cx="566.92999"
     sodipodi:cy="297.64001"
     sodipodi:rx="2.8299999"
     sodipodi:ry="2.8299999"
     transform="translate(-13.062598,-8.7083989)" />
  <text
     x="550.84174"
     y="285.23172"
     style="font-size:10px;font-weight:normal;text-anchor:end;fill:#000000;stroke:none;font-family:sanserif"
     id="text114">M</text>
  <circle
     cx="566.92999"
     cy="386.92999"
     r="2.8299999"
     style="fill:#000000"
     id="circle116"
     sodipodi:cx="566.92999"
     sodipodi:cy="386.92999"
     sodipodi:rx="2.8299999"
     sodipodi:ry="2.8299999"
     transform="translate(-13.062598,-8.7083989)" />
  <text
     x="550.84174"
     y="374.24664"
     style="font-size:10px;font-weight:normal;text-anchor:end;fill:#000000;stroke:none;font-family:sanserif"
     id="text118">N</text>
  <circle
     cx="184.25"
     cy="417.54001"
     r="2.8299999"
     style="fill:#000000"
     id="circle120"
     sodipodi:cx="184.25"
     sodipodi:cy="417.54001"
     sodipodi:rx="2.8299999"
     sodipodi:ry="2.8299999"
     transform="translate(-13.062598,-8.7083989)" />
  <text
     x="166.98218"
     y="408.2771"
     style="font-size:10px;font-weight:normal;text-anchor:end;fill:#000000;stroke:none;font-family:sanserif"
     id="text122">CD-b1</text>
  <circle
     cx="174.05"
     cy="329.53"
     r="2.8299999"
     style="fill:#000000"
     id="circle124"
     sodipodi:cx="174.05"
     sodipodi:cy="329.53"
     sodipodi:rx="2.8299999"
     sodipodi:ry="2.8299999"
     transform="translate(-13.062598,-8.7083989)" />
  <text
     x="173.44511"
     y="312.83429"
     style="font-size:10px;font-weight:normal;text-anchor:end;fill:#000000;stroke:none;font-family:sanserif"
     id="text126">DJ-b1</text>
  <circle
     cx="448.29999"
     cy="390.76001"
     r="2.8299999"
     style="fill:#000000"
     id="circle128"
     sodipodi:cx="448.29999"
     sodipodi:cy="390.76001"
     sodipodi:rx="2.8299999"
     sodipodi:ry="2.8299999"
     transform="translate(-13.062598,-8.7083989)" />
  <text
     x="469.31006"
     y="390.17169"
     style="font-size:10px;font-weight:normal;text-anchor:end;fill:#000000;stroke:none;font-family:sanserif"
     id="text130">GF-b1</text>
  <circle
     cx="192.42"
     cy="409.89001"
     r="2.8299999"
     style="fill:#000000"
     id="circle132"
     sodipodi:cx="192.42"
     sodipodi:cy="409.89001"
     sodipodi:rx="2.8299999"
     sodipodi:ry="2.8299999"
     transform="translate(-13.062598,-8.7083989)" />
  <text
     x="212.10722"
     y="395.27499"
     style="font-size:10px;font-weight:normal;text-anchor:end;fill:#000000;stroke:none;font-family:sanserif"
     id="text134">DE-b1</text>
  <circle
     cx="268.19"
     cy="404.28"
     r="2.8299999"
     style="fill:#000000"
     id="circle136"
     sodipodi:cx="268.19"
     sodipodi:cy="404.28"
     sodipodi:rx="2.8299999"
     sodipodi:ry="2.8299999"
     transform="translate(-13.062598,-8.7083989)" />
  <text
     x="257.04446"
     y="388.20618"
     style="font-size:10px;font-weight:normal;text-anchor:end;fill:#000000;stroke:none;font-family:sanserif"
     id="text138">DE-b2</text>
  <circle
     cx="276.98999"
     cy="403.13"
     r="2.8299999"
     style="fill:#000000"
     id="circle140"
     sodipodi:cx="276.98999"
     sodipodi:cy="403.13"
     sodipodi:rx="2.8299999"
     sodipodi:ry="2.8299999"
     transform="translate(-13.062598,-8.7083989)" />
  <text
     x="294.08292"
     y="407.05737"
     style="font-size:10px;font-weight:normal;text-anchor:end;fill:#000000;stroke:none;font-family:sanserif"
     id="text142">DE-b3</text>
  <!-- There are 6 blocks
 -->
  <!-- Render block 0
 -->
  <text
     x="94.657402"
     y="354.06836"
     style="font-size:10px;font-weight:normal;text-anchor:middle;fill:#000000;stroke:none;font-family:sanserif"
     id="text144">[0]</text>
  <path
     d="m 81.897402,288.9316 6.38,0 6.38,0 6.369998,0 6.38,0"
     style="fill:none;stroke:#000000;stroke-width:0.70999998;stroke-linecap:round"
     id="path148"
     inkscape:connector-curvature="0" />
  <path
     d="m 107.4074,416.4916 0,-12.76 0,-12.75 0,-12.76 0,-12.76 0,-12.75 0,-12.76 0,-12.75 0,-12.76 0,-12.76 0,-12.75"
     style="fill:none;stroke:#000000;stroke-width:0.70999998;stroke-linecap:round;stroke-dasharray:5.67, 5.67"
     id="path150"
     inkscape:connector-curvature="0" />
  <path
     d="m 81.897402,416.4916 6.38,0 6.38,0 6.369998,0 6.38,0"
     style="fill:none;stroke:#000000;stroke-width:0.70999998;stroke-linecap:round"
     id="path154"
     inkscape:connector-curvature="0" />
  <text
     x="-352.71161"
     y="75.668564"
     transform="matrix(0,-1,1,0,0,0)"
     style="font-size:10px;font-weight:normal;text-anchor:middle;fill:#000000;stroke:none;font-family:sanserif"
     id="text156">SLIP_WALL</text>
  <path
     d="m 81.897402,416.4916 0,-12.76 0,-12.75 0,-12.76 0,-12.76 0,-12.75 0,-12.76 0,-12.75 0,-12.76 0,-12.76 0,-12.75"
     style="fill:none;stroke:#000000;stroke-width:0.70999998;stroke-linecap:round"
     id="path158"
     inkscape:connector-curvature="0" />
  <!-- Render block 1
 -->
  <text
     x="134.46971"
     y="368.6091"
     style="font-size:10px;font-weight:normal;text-anchor:middle;fill:#000000;stroke:none;font-family:sanserif"
     id="text160">[1]</text>
  <path
     d="m 107.4074,288.9316 5.27,3.31 5.08,3.55 4.89,3.8 4.71,4.03 4.53,4.28 4.34,4.52 4.15,4.77 3.97,5.01 3.79,5.24 3.6,5.5 3.41,5.73 3.24,5.98 3.04,6.21 2.86,6.46 2.68,6.71 2.49,6.94 2.3,7.19 2.12,7.43 1.94,7.67 1.75,7.92"
     style="fill:none;stroke:#000000;stroke-width:0.70999998;stroke-linecap:round;stroke-dasharray:5.67, 5.67"
     id="path162"
     inkscape:connector-curvature="0" />
  <path
     d="m 171.1874,416.4916 0.07,-1.53 0.19,-1.53 0.32,-1.54 0.44,-1.53 0.58,-1.53 0.7,-1.53 0.83,-1.53 0.95,-1.53 1.09,-1.53 1.21,-1.53"
     style="fill:none;stroke:#000000;stroke-width:0.70999998;stroke-linecap:round"
     id="path166"
     inkscape:connector-curvature="0" />
  <text
     x="122.11275"
     y="433.2688"
     style="font-size:10px;font-weight:normal;text-anchor:middle;fill:#000000;stroke:none;font-family:sanserif"
     id="text168">SLIP_WALL</text>
  <path
     d="m 107.4074,416.4916 3.19,0 3.19,0 3.19,0 3.19,0 3.19,0 3.19,0 3.19,0 3.18,0 3.19,0 3.19,0 3.19,0 3.19,0 3.19,0 3.19,0 3.19,0 3.19,0 3.19,0 3.18,0 3.19,0 3.19,0"
     style="fill:none;stroke:#000000;stroke-width:0.70999998;stroke-linecap:round"
     id="path170"
     inkscape:connector-curvature="0" />
  <path
     d="m 107.4074,416.4916 0,-12.76 0,-12.75 0,-12.76 0,-12.76 0,-12.75 0,-12.76 0,-12.75 0,-12.76 0,-12.76 0,-12.75"
     style="fill:none;stroke:#000000;stroke-width:0.70999998;stroke-linecap:round;stroke-dasharray:5.67, 5.67"
     id="path172"
     inkscape:connector-curvature="0" />
  <!-- Render block 2
 -->
  <text
     x="224.34625"
     y="336.95529"
     style="font-size:10px;font-weight:normal;text-anchor:middle;fill:#000000;stroke:none;font-family:sanserif"
     id="text174">[2]</text>
  <text
     x="178.16199"
     y="283.32565"
     style="font-size:10px;font-weight:normal;text-anchor:middle;fill:#000000;stroke:none;font-family:sanserif"
     id="text176">SLIP_WALL</text>
  <path
     d="m 107.4074,288.9316 9.57,0 9.57,0 9.56,0 9.57,0 9.57,0 9.56,0 9.57,0 9.57,0 9.56,0 9.57,0 9.57,0 9.57,0 9.56,0 9.57,0 9.57,0 9.56,0 9.57,0 9.57,0 9.56,0 9.57,0"
     style="fill:none;stroke:#000000;stroke-width:0.70999998;stroke-linecap:round"
     id="path178"
     inkscape:connector-curvature="0" />
  <path
     d="m 298.7474,378.2216 0,-4.47 0,-4.46 0,-4.46 0,-4.47 0,-4.46 0,-4.47 0,-4.46 0,-4.47 0,-4.46 0,-4.47 0,-4.46 0,-4.47 0,-4.46 0,-4.46 0,-4.47 0,-4.46 0,-4.47 0,-4.46 0,-4.47 0,-4.46"
     style="fill:none;stroke:#000000;stroke-width:0.70999998;stroke-linecap:round;stroke-dasharray:5.67, 5.67"
     id="path180"
     inkscape:connector-curvature="0" />
  <text
     x="161.87306"
     y="434.86646"
     transform="matrix(0.99213656,-0.12516007,0.12516007,0.99213656,0,0)"
     style="font-size:10px;font-weight:normal;text-anchor:middle;fill:#000000;stroke:none;font-family:sanserif"
     id="text182">SLIP_WALL</text>
  <path
     d="m 177.5674,401.1816 1.4,-0.08 3.21,-0.22 4.66,-0.34 5.78,-0.43 6.58,-0.52 7.14,-0.59 7.45,-0.66 7.57,-0.73 7.53,-0.79 7.37,-0.87 7.12,-0.96 6.82,-1.06 6.49,-1.19 6.18,-1.34 5.92,-1.52 5.75,-1.74 5.69,-1.98 5.8,-2.29 6.1,-2.63 6.62,-3.02"
     style="fill:none;stroke:#000000;stroke-width:0.70999998;stroke-linecap:round"
     id="path184"
     inkscape:connector-curvature="0" />
  <path
     d="m 177.5674,401.1816 -1.75,-7.92 -1.94,-7.67 -2.12,-7.43 -2.3,-7.19 -2.49,-6.94 -2.68,-6.71 -2.86,-6.46 -3.04,-6.21 -3.24,-5.98 -3.41,-5.73 -3.6,-5.5 -3.79,-5.24 -3.97,-5.01 -4.15,-4.77 -4.34,-4.52 -4.53,-4.28 -4.71,-4.03 -4.89,-3.8 -5.08,-3.55 -5.27,-3.31"
     style="fill:none;stroke:#000000;stroke-width:0.70999998;stroke-linecap:round;stroke-dasharray:5.67, 5.67"
     id="path186"
     inkscape:connector-curvature="0" />
  <!-- Render block 3
 -->
  <text
     x="364.4303"
     y="332.09509"
     style="font-size:10px;font-weight:normal;text-anchor:middle;fill:#000000;stroke:none;font-family:sanserif"
     id="text188">[3]</text>
  <text
     x="361.31586"
     y="283.32565"
     style="font-size:10px;font-weight:normal;text-anchor:middle;fill:#000000;stroke:none;font-family:sanserif"
     id="text190">SLIP_WALL</text>
  <path
     d="m 298.7474,288.9316 6.51,0 6.5,0 6.51,0 6.5,0 6.51,0 6.5,0 6.51,0 6.51,0 6.5,0 6.51,0 6.5,0 6.51,0 6.5,0 6.51,0 6.5,0 6.51,0 6.5,0 6.51,0 6.51,0 6.5,0"
     style="fill:none;stroke:#000000;stroke-width:0.70999998;stroke-linecap:round"
     id="path192"
     inkscape:connector-curvature="0" />
  <path
     d="m 428.8574,378.2216 0,-4.47 0,-4.46 0,-4.46 0,-4.47 0,-4.46 0,-4.47 0,-4.46 0,-4.47 0,-4.46 0,-4.47 0,-4.46 0,-4.47 0,-4.46 0,-4.46 0,-4.47 0,-4.46 0,-4.47 0,-4.46 0,-4.47 0,-4.46"
     style="fill:none;stroke:#000000;stroke-width:0.70999998;stroke-linecap:round;stroke-dasharray:5.67, 5.67"
     id="path194"
     inkscape:connector-curvature="0" />
  <text
     x="364.4303"
     y="391.92508"
     style="font-size:10px;font-weight:normal;text-anchor:middle;fill:#000000;stroke:none;font-family:sanserif"
     id="text196">SLIP_WALL</text>
  <path
     d="m 298.7474,378.2216 6.51,0 6.5,0 6.51,0 6.5,0 6.51,0 6.5,0 6.51,0 6.51,0 6.5,0 6.51,0 6.5,0 6.51,0 6.5,0 6.51,0 6.5,0 6.51,0 6.5,0 6.51,0 6.51,0 6.5,0"
     style="fill:none;stroke:#000000;stroke-width:0.70999998;stroke-linecap:round"
     id="path198"
     inkscape:connector-curvature="0" />
  <path
     d="m 298.7474,378.2216 0,-4.47 0,-4.46 0,-4.46 0,-4.47 0,-4.46 0,-4.47 0,-4.46 0,-4.47 0,-4.46 0,-4.47 0,-4.46 0,-4.47 0,-4.46 0,-4.46 0,-4.47 0,-4.46 0,-4.47 0,-4.46 0,-4.47 0,-4.46"
     style="fill:none;stroke:#000000;stroke-width:0.70999998;stroke-linecap:round;stroke-dasharray:5.67, 5.67"
     id="path200"
     inkscape:connector-curvature="0" />
  <!-- Render block 4
 -->
  <text
     x="491.9903"
     y="333.96375"
     style="font-size:10px;font-weight:normal;text-anchor:middle;fill:#000000;stroke:none;font-family:sanserif"
     id="text202">[4]</text>
  <text
     x="489.49875"
     y="283.32565"
     style="font-size:10px;font-weight:normal;text-anchor:middle;fill:#000000;stroke:none;font-family:sanserif"
     id="text204">SLIP_WALL</text>
  <path
     d="m 428.8574,288.9316 10.42,0 10.42,0 10.41,0 10.42,0 10.42,0 10.42,0 10.41,0 10.42,0 10.42,0 10.41,0 10.42,0 10.42,0"
     style="fill:none;stroke:#000000;stroke-width:0.70999998;stroke-linecap:round"
     id="path206"
     inkscape:connector-curvature="0" />
  <text
     x="-350.73907"
     y="568.91083"
     transform="matrix(0,-1,1,0,0,0)"
     style="font-size:10px;font-weight:normal;text-anchor:middle;fill:#000000;stroke:none;font-family:sanserif"
     id="text208">SLIP_WALL</text>
  <path
     d="m 553.8674,378.2216 0,-4.47 0,-4.46 0,-4.46 0,-4.47 0,-4.46 0,-4.47 0,-4.46 0,-4.47 0,-4.46 0,-4.47 0,-4.46 0,-4.47 0,-4.46 0,-4.46 0,-4.47 0,-4.46 0,-4.47 0,-4.46 0,-4.47 0,-4.46"
     style="fill:none;stroke:#000000;stroke-width:0.70999998;stroke-linecap:round"
     id="path210"
     inkscape:connector-curvature="0" />
  <path
     d="m 428.8574,378.2216 10.42,0 10.42,0 10.41,0 10.42,0 10.42,0 10.42,0 10.41,0 10.42,0 10.42,0 10.41,0 10.42,0 10.42,0"
     style="fill:none;stroke:#000000;stroke-width:0.70999998;stroke-linecap:round;stroke-dasharray:5.67, 5.67"
     id="path212"
     inkscape:connector-curvature="0" />
  <path
     d="m 428.8574,378.2216 0,-4.47 0,-4.46 0,-4.46 0,-4.47 0,-4.46 0,-4.47 0,-4.46 0,-4.47 0,-4.46 0,-4.47 0,-4.46 0,-4.47 0,-4.46 0,-4.46 0,-4.47 0,-4.46 0,-4.47 0,-4.46 0,-4.47 0,-4.46"
     style="fill:none;stroke:#000000;stroke-width:0.70999998;stroke-linecap:round;stroke-dasharray:5.67, 5.67"
     id="path214"
     inkscape:connector-curvature="0" />
  <!-- Render block 5
 -->
  <text
     x="493.21188"
     y="400.90359"
     style="font-size:10px;font-weight:normal;text-anchor:middle;fill:#000000;stroke:none;font-family:sanserif"
     id="text216">[5]</text>
  <path
     d="m 428.8574,378.2216 10.42,0 10.42,0 10.41,0 10.42,0 10.42,0 10.42,0 10.41,0 10.42,0 10.42,0 10.41,0 10.42,0 10.42,0"
     style="fill:none;stroke:#000000;stroke-width:0.70999998;stroke-linecap:round;stroke-dasharray:5.67, 5.67"
     id="path218"
     inkscape:connector-curvature="0" />
  <path
     d="m 553.8674,416.4916 0,-4.79 0,-4.78 0,-4.78 0,-4.79 0,-4.78 0,-4.78 0,-4.79 0,-4.78"
     style="fill:none;stroke:#000000;stroke-width:0.70999998;stroke-linecap:round"
     id="path222"
     inkscape:connector-curvature="0" />
  <text
     x="491.15433"
     y="429.21567"
     style="font-size:10px;font-weight:normal;text-anchor:middle;fill:#000000;stroke:none;font-family:sanserif"
     id="text224">SLIP_WALL</text>
  <path
     d="m 435.2374,416.4916 9.89,0 9.88,0 9.89,0 9.88,0 9.89,0 9.88,0 9.89,0 9.89,0 9.88,0 9.89,0 9.88,0 9.89,0"
     style="fill:none;stroke:#000000;stroke-width:0.70999998;stroke-linecap:round"
     id="path226"
     inkscape:connector-curvature="0" />
  <path
     d="m 435.2374,416.4916 -0.04,-4.95 -0.11,-4.95 -0.22,-4.95 -0.36,-4.93 -0.55,-4.92 -0.85,-4.88 -1.41,-4.74 -2.84,-3.95"
     style="fill:none;stroke:#000000;stroke-width:0.70999998;stroke-linecap:round"
     id="path230"
     inkscape:connector-curvature="0" />
  <!-- end of drawing -->
</svg>
