<?xml version="1.0" encoding="UTF-8" standalone="no"?>
<svg
   xmlns:dc="http://purl.org/dc/elements/1.1/"
   xmlns:cc="http://creativecommons.org/ns#"
   xmlns:rdf="http://www.w3.org/1999/02/22-rdf-syntax-ns#"
   xmlns:svg="http://www.w3.org/2000/svg"
   xmlns="http://www.w3.org/2000/svg"
   xmlns:sodipodi="http://sodipodi.sourceforge.net/DTD/sodipodi-0.dtd"
   xmlns:inkscape="http://www.inkscape.org/namespaces/inkscape"
   width="566.93"
   height="566.93"
   version="1.0"
   id="svg2"
   inkscape:version="0.48.3.1 r9886"
   sodipodi:docname="the_minimal_grid.svg">
  <metadata
     id="metadata78">
    <rdf:RDF>
      <cc:Work
         rdf:about="">
        <dc:format>image/svg+xml</dc:format>
        <dc:type
           rdf:resource="http://purl.org/dc/dcmitype/StillImage" />
        <dc:title>Another Eilmer3 Simulation.</dc:title>
      </cc:Work>
    </rdf:RDF>
  </metadata>
  <defs
     id="defs76" />
  <sodipodi:namedview
     pagecolor="#ffffff"
     bordercolor="#666666"
     borderopacity="1"
     objecttolerance="10"
     gridtolerance="10"
     guidetolerance="10"
     inkscape:pageopacity="0"
     inkscape:pageshadow="2"
     inkscape:window-width="1156"
     inkscape:window-height="658"
     id="namedview74"
     showgrid="false"
     inkscape:zoom="2.4461022"
     inkscape:cx="184.79902"
     inkscape:cy="198.53001"
     inkscape:window-x="0"
     inkscape:window-y="0"
     inkscape:window-maximized="0"
     inkscape:current-layer="svg2" />
  <title
     id="title4">Another Eilmer3 Simulation.</title>
  <desc
     id="desc6">SVG file written by e3prep.py</desc>
  <!-- drawing begins here -->
  <line
     x1="141.73"
     y1="439.37"
     x2="283.46"
     y2="439.37"
     style="stroke:black;stroke-width:1.42;stroke-linecap:round;fill:none"
     id="line8" />
  <text
     x="240.39934"
     y="467.33289"
     style="font-size:10px;font-weight:normal;text-anchor:start;fill:#000000;stroke:none;font-family:sanserif"
     id="text10">x</text>
  <line
     x1="141.73"
     y1="439.37"
     x2="141.73"
     y2="433.70"
     style="stroke:black;stroke-width:1.42;stroke-linecap:round;fill:none"
     id="line12" />
  <text
     x="141.73"
     y="453.54"
     style="font-size:10;text-anchor:middle;fill:black;stroke:none;font-weight:normal;font-family:sanserif"
     id="text14">0.1</text>
  <line
     x1="212.60"
     y1="439.37"
     x2="212.60"
     y2="433.70"
     style="stroke:black;stroke-width:1.42;stroke-linecap:round;fill:none"
     id="line16" />
  <text
     x="212.60"
     y="453.54"
     style="font-size:10;text-anchor:middle;fill:black;stroke:none;font-weight:normal;font-family:sanserif"
     id="text18">0.15</text>
  <line
     x1="283.46"
     y1="439.37"
     x2="283.46"
     y2="433.70"
     style="stroke:black;stroke-width:1.42;stroke-linecap:round;fill:none"
     id="line20" />
  <text
     x="283.46"
     y="453.54"
     style="font-size:10;text-anchor:middle;fill:black;stroke:none;font-weight:normal;font-family:sanserif"
     id="text22">0.2</text>
  <line
     x1="99.21"
     y1="425.20"
     x2="99.21"
     y2="283.46"
     style="stroke:black;stroke-width:1.42;stroke-linecap:round;fill:none"
     id="line24" />
  <text
     x="59.592049"
     y="318.47556"
     style="font-size:10px;font-weight:normal;text-anchor:end;fill:#000000;stroke:none;font-family:sanserif"
     id="text26">y</text>
  <line
     x1="99.21"
     y1="425.20"
     x2="104.88"
     y2="425.20"
     style="stroke:black;stroke-width:1.42;stroke-linecap:round;fill:none"
     id="line28" />
  <text
     x="90.71"
     y="425.20"
     style="font-size:10;text-anchor:end;fill:black;stroke:none;font-weight:normal;font-family:sanserif"
     id="text30">0</text>
  <line
     x1="99.21"
     y1="354.33"
     x2="104.88"
     y2="354.33"
     style="stroke:black;stroke-width:1.42;stroke-linecap:round;fill:none"
     id="line32" />
  <text
     x="90.71"
     y="354.33"
     style="font-size:10;text-anchor:end;fill:black;stroke:none;font-weight:normal;font-family:sanserif"
     id="text34">0.05</text>
  <line
     x1="99.21"
     y1="283.46"
     x2="104.88"
     y2="283.46"
     style="stroke:black;stroke-width:1.42;stroke-linecap:round;fill:none"
     id="line36" />
  <text
     x="90.71"
     y="283.46"
     style="font-size:10;text-anchor:end;fill:black;stroke:none;font-weight:normal;font-family:sanserif"
     id="text38">0.1</text>
  <!-- There are 4 nodes
 -->
  <circle
     cx="141.73"
     cy="382.68"
     r="2.83"
     style="fill:black"
     id="circle40" />
  <text
     x="138.53326"
     y="379.43469"
     style="font-size:10px;font-weight:normal;text-anchor:end;fill:#000000;stroke:none;font-family:sanserif"
     id="text42">E</text>
  <circle
     cx="286.30"
     cy="382.68"
     r="2.83"
     style="fill:black"
     id="circle44" />
  <text
     x="284.10794"
     y="379.09979"
     style="font-size:10px;font-weight:normal;text-anchor:end;fill:#000000;stroke:none;font-family:sanserif"
     id="text46">F</text>
  <circle
     cx="141.73"
     cy="283.46"
     r="2.83"
     style="fill:black"
     id="circle48" />
  <text
     x="141.73"
     y="279.21"
     style="font-size:10;text-anchor:end;fill:black;stroke:none;font-weight:normal;font-family:sanserif"
     id="text50">K</text>
  <circle
     cx="286.30"
     cy="283.46"
     r="2.83"
     style="fill:black"
     id="circle52" />
  <text
     x="286.30"
     y="279.21"
     style="font-size:10;text-anchor:end;fill:black;stroke:none;font-weight:normal;font-family:sanserif"
     id="text54">L</text>
  <!-- There are 1 blocks
 -->
  <!-- Render block 0
 -->
  <text
     x="211.56712"
     y="334.59662"
     style="font-size:10px;font-weight:normal;text-anchor:middle;fill:#000000;stroke:none;font-family:sanserif"
     id="text56">[3]</text>
  <text
     x="214.02"
     y="279.78067"
     style="font-size:10px;font-weight:normal;text-anchor:middle;fill:#000000;stroke:none;font-family:sanserif"
     id="text58">SLIP_WALL</text>
  <path
     d="M 141.73,283.46 L 148.96,283.46 L 156.19,283.46 L 163.42,283.46 L 170.65,283.46 L 177.87,283.46 L 185.10,283.46 L 192.33,283.46 L 199.56,283.46 L 206.79,283.46 L 214.02,283.46 L 221.24,283.46 L 228.47,283.46 L 235.70,283.46 L 242.93,283.46 L 250.16,283.46 L 257.39,283.46 L 264.61,283.46 L 271.84,283.46 L 279.07,283.46 L 286.30,283.46"
     style="stroke:black;stroke-width:0.71;stroke-linecap:round;fill:none"
     id="path60" />
  <text
     x="-332.25238"
     y="298.15561"
     transform="matrix(0,-1,1,0,0,0)"
     style="font-size:10px;font-weight:normal;text-anchor:middle;fill:#000000;stroke:none;font-family:sanserif"
     id="text62">SLIP_WALL</text>
  <path
     d="M 286.30,382.68 L 286.30,377.72 L 286.30,372.76 L 286.30,367.80 L 286.30,362.83 L 286.30,357.87 L 286.30,352.91 L 286.30,347.95 L 286.30,342.99 L 286.30,338.03 L 286.30,333.07 L 286.30,328.11 L 286.30,323.15 L 286.30,318.19 L 286.30,313.23 L 286.30,308.27 L 286.30,303.31 L 286.30,298.35 L 286.30,293.39 L 286.30,288.43 L 286.30,283.46"
     style="stroke:black;stroke-width:0.71;stroke-linecap:round;fill:none"
     id="path64" />
  <text
     x="212.79356"
     y="393.71796"
     style="font-size:10px;font-weight:normal;text-anchor:middle;fill:#000000;stroke:none;font-family:sanserif"
     id="text66">SLIP_WALL</text>
  <path
     d="M 141.73,382.68 L 148.96,382.68 L 156.19,382.68 L 163.42,382.68 L 170.65,382.68 L 177.87,382.68 L 185.10,382.68 L 192.33,382.68 L 199.56,382.68 L 206.79,382.68 L 214.02,382.68 L 221.24,382.68 L 228.47,382.68 L 235.70,382.68 L 242.93,382.68 L 250.16,382.68 L 257.39,382.68 L 264.61,382.68 L 271.84,382.68 L 279.07,382.68 L 286.30,382.68"
     style="stroke:black;stroke-width:0.71;stroke-linecap:round;fill:none"
     id="path68" />
  <text
     x="-332.66119"
     y="136.41544"
     transform="matrix(0,-1,1,0,0,0)"
     style="font-size:10px;font-weight:normal;text-anchor:middle;fill:#000000;stroke:none;font-family:sanserif"
     id="text70">SLIP_WALL</text>
  <path
     d="M 141.73,382.68 L 141.73,377.72 L 141.73,372.76 L 141.73,367.80 L 141.73,362.83 L 141.73,357.87 L 141.73,352.91 L 141.73,347.95 L 141.73,342.99 L 141.73,338.03 L 141.73,333.07 L 141.73,328.11 L 141.73,323.15 L 141.73,318.19 L 141.73,313.23 L 141.73,308.27 L 141.73,303.31 L 141.73,298.35 L 141.73,293.39 L 141.73,288.43 L 141.73,283.46"
     style="stroke:black;stroke-width:0.71;stroke-linecap:round;fill:none"
     id="path72" />
  <!-- end of drawing -->
</svg>
