<?xml version="1.0"?>
<!DOCTYPE svg PUBLIC "-//W3C//DTD SVG 1.0//EN"
"http://www.w3.org/TR/2001/REC-SVG-20010904/DTD/svg10.dtd">
<svg xmlns:svg="http://www.w3.org/2000/svg"
     xmlns:xlink="http://www.w3.org/1999/xlink"
     width="566.93" height="566.93"
     version="1.0">
<title>Viscous Simulation for Kiock turbine cascade</title>
<desc>SVG file written by e3prep.py</desc>
<!-- drawing begins here -->
<line x1="56.69" y1="520.44" x2="439.37" y2="520.44" style="stroke:black;stroke-width:1.42;stroke-linecap:round;fill:none" />
<text x="248.03" y="545.95" style="font-size:10;text-anchor:start;fill:black;stroke:none;font-weight:normal;font-family:sanserif" >x</text>
<line x1="56.69" y1="520.44" x2="56.69" y2="514.77" style="stroke:black;stroke-width:1.42;stroke-linecap:round;fill:none" />
<text x="56.69" y="534.61" style="font-size:10;text-anchor:middle;fill:black;stroke:none;font-weight:normal;font-family:sanserif" >-1</text>
<line x1="120.47" y1="520.44" x2="120.47" y2="514.77" style="stroke:black;stroke-width:1.42;stroke-linecap:round;fill:none" />
<text x="120.47" y="534.61" style="font-size:10;text-anchor:middle;fill:black;stroke:none;font-weight:normal;font-family:sanserif" >-0.5</text>
<line x1="184.25" y1="520.44" x2="184.25" y2="514.77" style="stroke:black;stroke-width:1.42;stroke-linecap:round;fill:none" />
<text x="184.25" y="534.61" style="font-size:10;text-anchor:middle;fill:black;stroke:none;font-weight:normal;font-family:sanserif" >0</text>
<line x1="248.03" y1="520.44" x2="248.03" y2="514.77" style="stroke:black;stroke-width:1.42;stroke-linecap:round;fill:none" />
<text x="248.03" y="534.61" style="font-size:10;text-anchor:middle;fill:black;stroke:none;font-weight:normal;font-family:sanserif" >0.5</text>
<line x1="311.81" y1="520.44" x2="311.81" y2="514.77" style="stroke:black;stroke-width:1.42;stroke-linecap:round;fill:none" />
<text x="311.81" y="534.61" style="font-size:10;text-anchor:middle;fill:black;stroke:none;font-weight:normal;font-family:sanserif" >1</text>
<line x1="375.59" y1="520.44" x2="375.59" y2="514.77" style="stroke:black;stroke-width:1.42;stroke-linecap:round;fill:none" />
<text x="375.59" y="534.61" style="font-size:10;text-anchor:middle;fill:black;stroke:none;font-weight:normal;font-family:sanserif" >1.5</text>
<line x1="439.37" y1="520.44" x2="439.37" y2="514.77" style="stroke:black;stroke-width:1.42;stroke-linecap:round;fill:none" />
<text x="439.37" y="534.61" style="font-size:10;text-anchor:middle;fill:black;stroke:none;font-weight:normal;font-family:sanserif" >2</text>
<line x1="43.94" y1="510.24" x2="43.94" y2="204.09" style="stroke:black;stroke-width:1.42;stroke-linecap:round;fill:none" />
<text x="21.26" y="357.17" style="font-size:10;text-anchor:end;fill:black;stroke:none;font-weight:normal;font-family:sanserif" >y</text>
<line x1="43.94" y1="510.24" x2="49.61" y2="510.24" style="stroke:black;stroke-width:1.42;stroke-linecap:round;fill:none" />
<text x="35.43" y="510.24" style="font-size:10;text-anchor:end;fill:black;stroke:none;font-weight:normal;font-family:sanserif" >-2</text>
<line x1="43.94" y1="459.21" x2="49.61" y2="459.21" style="stroke:black;stroke-width:1.42;stroke-linecap:round;fill:none" />
<text x="35.43" y="459.21" style="font-size:10;text-anchor:end;fill:black;stroke:none;font-weight:normal;font-family:sanserif" >-1.5</text>
<line x1="43.94" y1="408.19" x2="49.61" y2="408.19" style="stroke:black;stroke-width:1.42;stroke-linecap:round;fill:none" />
<text x="35.43" y="408.19" style="font-size:10;text-anchor:end;fill:black;stroke:none;font-weight:normal;font-family:sanserif" >-1</text>
<line x1="43.94" y1="357.17" x2="49.61" y2="357.17" style="stroke:black;stroke-width:1.42;stroke-linecap:round;fill:none" />
<text x="35.43" y="357.17" style="font-size:10;text-anchor:end;fill:black;stroke:none;font-weight:normal;font-family:sanserif" >-0.5</text>
<line x1="43.94" y1="306.14" x2="49.61" y2="306.14" style="stroke:black;stroke-width:1.42;stroke-linecap:round;fill:none" />
<text x="35.43" y="306.14" style="font-size:10;text-anchor:end;fill:black;stroke:none;font-weight:normal;font-family:sanserif" >0</text>
<line x1="43.94" y1="255.12" x2="49.61" y2="255.12" style="stroke:black;stroke-width:1.42;stroke-linecap:round;fill:none" />
<text x="35.43" y="255.12" style="font-size:10;text-anchor:end;fill:black;stroke:none;font-weight:normal;font-family:sanserif" >0.5</text>
<line x1="43.94" y1="204.09" x2="49.61" y2="204.09" style="stroke:black;stroke-width:1.42;stroke-linecap:round;fill:none" />
<text x="35.43" y="204.09" style="font-size:10;text-anchor:end;fill:black;stroke:none;font-weight:normal;font-family:sanserif" >1</text>
<!-- There are 0 nodes
 -->
<!-- There are 16 blocks
 -->
<!-- Render block 0
 -->
<text x="245.12" y="289.03" style="font-size:10;text-anchor:middle;fill:black;stroke:none;font-weight:normal;font-family:sanserif" >suct_front</text>
<path d="M 184.46,298.46 L 186.95,295.59 L 189.89,292.76 L 193.74,290.02 L 198.44,287.62 L 202.37,286.09 L 206.81,284.73 L 211.66,283.62 L 216.80,282.83 L 222.11,282.45 L 227.38,282.56 L 231.80,283.07 L 236.18,283.99 L 240.52,285.34 L 244.80,287.13 L 249.01,289.38 L 253.14,292.10 L 257.19,295.33 L 260.29,298.21 L 262.98,301.00 L 265.64,304.01 L 268.25,307.19 L 270.83,310.55 L 273.39,314.04 L 275.92,317.64 L 278.44,321.34 L 280.94,325.11 L 283.43,328.93 L 285.92,332.77" style="stroke:black;stroke-width:0.71;stroke-linecap:round;fill:none;stroke-dasharray: 5.67 5.67"/>
<path d="M 282.05,335.62 L 282.54,335.26 L 283.02,334.90 L 283.50,334.55 L 283.99,334.19 L 284.47,333.84 L 284.95,333.48 L 285.44,333.12 L 285.92,332.77" style="stroke:black;stroke-width:0.71;stroke-linecap:round;fill:none;stroke-dasharray: 5.67 5.67"/>
<text x="245.61" y="293.10" transform="rotate(35.35,245.61,293.10)"  style="font-size:10;text-anchor:middle;fill:black;stroke:none;font-weight:normal;font-family:sanserif" >ADIABATIC</text>
<path d="M 188.72,300.70 L 191.75,297.82 L 194.89,295.04 L 198.42,292.57 L 202.33,290.53 L 206.40,288.79 L 210.71,287.37 L 215.20,286.42 L 219.82,286.00 L 224.48,285.97 L 229.10,286.45 L 233.58,287.50 L 237.84,289.00 L 241.90,290.84 L 245.78,292.90 L 249.51,295.15 L 252.99,297.64 L 256.19,300.35 L 259.20,303.20 L 262.03,306.17 L 264.71,309.23 L 267.24,312.36 L 269.70,315.54 L 272.01,318.78 L 274.20,322.07 L 276.26,325.42 L 278.24,328.80 L 280.18,332.20 L 282.05,335.62" style="stroke:black;stroke-width:0.71;stroke-linecap:round;fill:none"/>
<path d="M 188.72,300.70 L 188.19,300.42 L 187.65,300.14 L 187.12,299.86 L 186.59,299.58 L 186.05,299.30 L 185.52,299.02 L 184.99,298.74 L 184.46,298.46" style="stroke:black;stroke-width:0.71;stroke-linecap:round;fill:none;stroke-dasharray: 5.67 5.67"/>
<!-- Render block 1
 -->
<text x="289.70" y="344.45" style="font-size:10;text-anchor:middle;fill:black;stroke:none;font-weight:normal;font-family:sanserif" >suct_mid</text>
<path d="M 285.92,332.77 L 286.72,334.54 L 287.53,336.32 L 288.33,338.10 L 289.13,339.88 L 289.94,341.66 L 290.74,343.43 L 291.54,345.21 L 292.35,346.99 L 293.15,348.77 L 293.95,350.54 L 294.76,352.32 L 295.56,354.10" style="stroke:black;stroke-width:0.71;stroke-linecap:round;fill:none;stroke-dasharray: 5.67 5.67"/>
<path d="M 292.76,357.51 L 293.11,357.08 L 293.46,356.66 L 293.81,356.23 L 294.16,355.81 L 294.51,355.38 L 294.86,354.95 L 295.21,354.53 L 295.56,354.10" style="stroke:black;stroke-width:0.71;stroke-linecap:round;fill:none;stroke-dasharray: 5.67 5.67"/>
<text x="287.58" y="346.51" transform="rotate(69.04,287.58,346.51)"  style="font-size:10;text-anchor:middle;fill:black;stroke:none;font-weight:normal;font-family:sanserif" >ADIABATIC</text>
<path d="M 282.05,335.62 L 283.01,337.42 L 283.94,339.23 L 284.88,341.04 L 285.78,342.87 L 286.69,344.69 L 287.59,346.51 L 288.46,348.34 L 289.34,350.16 L 290.24,352.04 L 291.10,353.87 L 291.93,355.71 L 292.76,357.51" style="stroke:black;stroke-width:0.71;stroke-linecap:round;fill:none"/>
<path d="M 282.05,335.62 L 282.54,335.26 L 283.02,334.90 L 283.50,334.55 L 283.99,334.19 L 284.47,333.84 L 284.95,333.48 L 285.44,333.12 L 285.92,332.77" style="stroke:black;stroke-width:0.71;stroke-linecap:round;fill:none;stroke-dasharray: 5.67 5.67"/>
<!-- Render block 2
 -->
<text x="295.72" y="358.90" style="font-size:10;text-anchor:middle;fill:black;stroke:none;font-weight:normal;font-family:sanserif" >suct_rear</text>
<path d="M 295.56,354.10 L 296.73,356.51 L 297.11,358.98 L 296.36,361.36 L 295.02,363.80" style="stroke:black;stroke-width:0.71;stroke-linecap:round;fill:none;stroke-dasharray: 5.67 5.67"/>
<path d="M 292.58,360.08 L 292.89,360.54 L 293.19,361.01 L 293.50,361.47 L 293.80,361.94 L 294.11,362.41 L 294.41,362.87 L 294.72,363.34 L 295.02,363.80" style="stroke:black;stroke-width:0.71;stroke-linecap:round;fill:none;stroke-dasharray: 5.67 5.67"/>
<text x="292.91" y="358.75" transform="rotate(97.46,292.91,358.75)"  style="font-size:10;text-anchor:middle;fill:black;stroke:none;font-weight:normal;font-family:sanserif" >ADIABATIC</text>
<path d="M 292.76,357.51 L 292.94,358.09 L 292.92,358.75 L 292.78,359.38 L 292.58,360.08" style="stroke:black;stroke-width:0.71;stroke-linecap:round;fill:none"/>
<path d="M 292.76,357.51 L 293.11,357.08 L 293.46,356.66 L 293.81,356.23 L 294.16,355.81 L 294.51,355.38 L 294.86,354.95 L 295.21,354.53 L 295.56,354.10" style="stroke:black;stroke-width:0.71;stroke-linecap:round;fill:none;stroke-dasharray: 5.67 5.67"/>
<!-- Render block 3
 -->
<text x="184.32" y="303.64" style="font-size:10;text-anchor:middle;fill:black;stroke:none;font-weight:normal;font-family:sanserif" >pres_front</text>
<path d="M 184.46,298.46 L 184.99,298.74 L 185.52,299.02 L 186.05,299.30 L 186.59,299.58 L 187.12,299.86 L 187.65,300.14 L 188.19,300.42 L 188.72,300.70" style="stroke:black;stroke-width:0.71;stroke-linecap:round;fill:none;stroke-dasharray: 5.67 5.67"/>
<text x="186.55" y="305.03" transform="rotate(-86.54,186.55,305.03)"  style="font-size:10;text-anchor:middle;fill:black;stroke:none;font-weight:normal;font-family:sanserif" >ADIABATIC</text>
<path d="M 189.29,308.78 L 188.21,308.08 L 187.37,307.09 L 186.76,306.05 L 186.48,305.09 L 186.84,303.96 L 187.35,303.00 L 188.00,301.89 L 188.72,300.70" style="stroke:black;stroke-width:0.71;stroke-linecap:round;fill:none"/>
<path d="M 187.55,312.75 L 187.77,312.26 L 187.98,311.76 L 188.20,311.26 L 188.42,310.77 L 188.63,310.27 L 188.85,309.78 L 189.07,309.28 L 189.29,308.78" style="stroke:black;stroke-width:0.71;stroke-linecap:round;fill:none;stroke-dasharray: 5.67 5.67"/>
<path d="M 187.55,312.75 L 185.64,311.60 L 183.74,310.01 L 182.40,308.36 L 181.51,306.35 L 181.47,304.31 L 182.11,302.42 L 183.18,300.46 L 184.46,298.46" style="stroke:black;stroke-width:0.71;stroke-linecap:round;fill:none;stroke-dasharray: 5.67 5.67"/>
<!-- Render block 4
 -->
<text x="248.05" y="321.58" style="font-size:10;text-anchor:middle;fill:black;stroke:none;font-weight:normal;font-family:sanserif" >pres_mid</text>
<text x="249.14" y="320.68" transform="rotate(38.19,249.14,320.68)"  style="font-size:10;text-anchor:middle;fill:black;stroke:none;font-weight:normal;font-family:sanserif" >ADIABATIC</text>
<path d="M 189.29,308.78 L 193.13,309.47 L 197.11,309.22 L 201.08,308.99 L 205.06,308.77 L 209.05,308.66 L 213.03,308.74 L 217.00,308.97 L 220.96,309.39 L 224.85,310.09 L 228.66,311.01 L 232.37,312.16 L 235.94,313.58 L 239.42,315.15 L 242.79,316.84 L 246.10,318.62 L 249.28,320.54 L 252.36,322.57 L 255.34,324.69 L 258.13,326.97 L 260.81,329.33 L 263.44,331.73 L 265.99,334.18 L 268.43,336.70 L 270.82,339.25 L 273.16,341.83 L 275.35,344.50 L 277.63,347.11 L 279.79,349.79 L 281.91,352.50 L 283.97,355.23 L 286.01,358.04 L 288.09,360.70" style="stroke:black;stroke-width:0.71;stroke-linecap:round;fill:none"/>
<path d="M 285.29,364.12 L 285.64,363.69 L 285.99,363.26 L 286.34,362.84 L 286.69,362.41 L 287.04,361.98 L 287.39,361.56 L 287.74,361.13 L 288.09,360.70" style="stroke:black;stroke-width:0.71;stroke-linecap:round;fill:none;stroke-dasharray: 5.67 5.67"/>
<path d="M 187.55,312.75 L 191.45,312.60 L 195.36,312.46 L 199.25,312.37 L 203.13,312.34 L 207.00,312.41 L 210.86,312.58 L 214.69,312.89 L 218.50,313.36 L 222.29,314.00 L 226.05,314.85 L 229.77,315.91 L 233.45,317.22 L 237.10,318.80 L 240.30,320.45 L 242.93,321.99 L 245.54,323.68 L 248.13,325.52 L 250.70,327.49 L 253.25,329.58 L 255.78,331.79 L 258.29,334.11 L 260.79,336.53 L 263.28,339.03 L 265.76,341.62 L 268.22,344.27 L 270.68,346.99 L 273.13,349.76 L 275.57,352.58 L 278.00,355.43 L 280.44,358.31 L 282.86,361.21 L 285.29,364.12" style="stroke:black;stroke-width:0.71;stroke-linecap:round;fill:none;stroke-dasharray: 5.67 5.67"/>
<path d="M 187.55,312.75 L 187.77,312.26 L 187.98,311.76 L 188.20,311.26 L 188.42,310.77 L 188.63,310.27 L 188.85,309.78 L 189.07,309.28 L 189.29,308.78" style="stroke:black;stroke-width:0.71;stroke-linecap:round;fill:none;stroke-dasharray: 5.67 5.67"/>
<!-- Render block 5
 -->
<text x="290.39" y="362.71" style="font-size:10;text-anchor:middle;fill:black;stroke:none;font-weight:normal;font-family:sanserif" >pres_rear</text>
<text x="290.42" y="361.15" transform="rotate(-8.26,290.42,361.15)"  style="font-size:10;text-anchor:middle;fill:black;stroke:none;font-weight:normal;font-family:sanserif" >ADIABATIC</text>
<path d="M 288.09,360.70 L 289.24,361.05 L 290.40,361.18 L 291.48,360.75 L 292.58,360.08" style="stroke:black;stroke-width:0.71;stroke-linecap:round;fill:none"/>
<path d="M 295.02,363.80 L 294.72,363.34 L 294.41,362.87 L 294.11,362.41 L 293.80,361.94 L 293.50,361.47 L 293.19,361.01 L 292.89,360.54 L 292.58,360.08" style="stroke:black;stroke-width:0.71;stroke-linecap:round;fill:none;stroke-dasharray: 5.67 5.67"/>
<path d="M 285.29,364.12 L 287.93,365.24 L 290.39,365.81 L 292.81,365.25 L 295.02,363.80" style="stroke:black;stroke-width:0.71;stroke-linecap:round;fill:none;stroke-dasharray: 5.67 5.67"/>
<path d="M 285.29,364.12 L 285.64,363.69 L 285.99,363.26 L 286.34,362.84 L 286.69,362.41 L 287.04,361.98 L 287.39,361.56 L 287.74,361.13 L 288.09,360.70" style="stroke:black;stroke-width:0.71;stroke-linecap:round;fill:none;stroke-dasharray: 5.67 5.67"/>
<!-- Render block 6
 -->
<text x="133.11" y="278.19" style="font-size:10;text-anchor:middle;fill:black;stroke:none;font-weight:normal;font-family:sanserif" >in1</text>
<text x="131.95" y="269.91" style="font-size:10;text-anchor:middle;fill:black;stroke:none;font-weight:normal;font-family:sanserif" >USER_DEFINED</text>
<path d="M 82.20,269.91 L 87.18,269.91 L 92.15,269.91 L 97.13,269.91 L 102.10,269.91 L 107.08,269.91 L 112.05,269.91 L 117.03,269.91 L 122.00,269.91 L 126.98,269.91 L 131.95,269.91 L 136.93,269.91 L 141.90,269.91 L 146.88,269.91 L 151.85,269.91 L 156.83,269.91 L 161.80,269.91 L 166.78,269.91 L 171.75,269.91 L 176.73,269.91 L 181.70,269.91" style="stroke:black;stroke-width:0.71;stroke-linecap:round;fill:none"/>
<path d="M 184.46,298.46 L 184.11,294.89 L 183.77,291.32 L 183.42,287.76 L 183.08,284.19 L 182.73,280.62 L 182.39,277.05 L 182.05,273.48 L 181.70,269.91" style="stroke:black;stroke-width:0.71;stroke-linecap:round;fill:none;stroke-dasharray: 5.67 5.67"/>
<path d="M 82.20,290.32 L 87.32,290.73 L 92.43,291.14 L 97.54,291.54 L 102.65,291.95 L 107.77,292.36 L 112.88,292.76 L 117.99,293.17 L 123.11,293.58 L 128.22,293.99 L 133.33,294.39 L 138.44,294.80 L 143.56,295.21 L 148.67,295.61 L 153.78,296.02 L 158.89,296.43 L 164.01,296.83 L 169.12,297.24 L 174.23,297.65 L 179.34,298.05 L 184.46,298.46" style="stroke:black;stroke-width:0.71;stroke-linecap:round;fill:none;stroke-dasharray: 5.67 5.67"/>
<text x="82.20" y="280.12" transform="rotate(-90.00,82.20,280.12)"  style="font-size:10;text-anchor:middle;fill:black;stroke:none;font-weight:normal;font-family:sanserif" >USER_DEFINED</text>
<path d="M 82.20,290.32 L 82.20,287.77 L 82.20,285.22 L 82.20,282.67 L 82.20,280.12 L 82.20,277.57 L 82.20,275.02 L 82.20,272.47 L 82.20,269.91" style="stroke:black;stroke-width:0.71;stroke-linecap:round;fill:none"/>
<!-- Render block 7
 -->
<text x="131.36" y="303.90" style="font-size:10;text-anchor:middle;fill:black;stroke:none;font-weight:normal;font-family:sanserif" >in2</text>
<path d="M 82.20,290.32 L 87.32,290.73 L 92.43,291.14 L 97.54,291.54 L 102.65,291.95 L 107.77,292.36 L 112.88,292.76 L 117.99,293.17 L 123.11,293.58 L 128.22,293.99 L 133.33,294.39 L 138.44,294.80 L 143.56,295.21 L 148.67,295.61 L 153.78,296.02 L 158.89,296.43 L 164.01,296.83 L 169.12,297.24 L 174.23,297.65 L 179.34,298.05 L 184.46,298.46" style="stroke:black;stroke-width:0.71;stroke-linecap:round;fill:none;stroke-dasharray: 5.67 5.67"/>
<path d="M 187.55,312.75 L 185.64,311.60 L 183.74,310.01 L 182.40,308.36 L 181.51,306.35 L 181.47,304.31 L 182.11,302.42 L 183.18,300.46 L 184.46,298.46" style="stroke:black;stroke-width:0.71;stroke-linecap:round;fill:none;stroke-dasharray: 5.67 5.67"/>
<path d="M 82.20,331.14 L 87.47,330.22 L 92.74,329.30 L 98.01,328.38 L 103.27,327.47 L 108.54,326.55 L 113.81,325.63 L 119.08,324.71 L 124.34,323.79 L 129.61,322.87 L 134.88,321.95 L 140.14,321.03 L 145.41,320.11 L 150.68,319.19 L 155.95,318.27 L 161.21,317.35 L 166.48,316.43 L 171.75,315.51 L 177.02,314.59 L 182.28,313.67 L 187.55,312.75" style="stroke:black;stroke-width:0.71;stroke-linecap:round;fill:none;stroke-dasharray: 5.67 5.67"/>
<text x="82.20" y="310.73" transform="rotate(-90.00,82.20,310.73)"  style="font-size:10;text-anchor:middle;fill:black;stroke:none;font-weight:normal;font-family:sanserif" >USER_DEFINED</text>
<path d="M 82.20,331.14 L 82.20,326.04 L 82.20,320.94 L 82.20,315.84 L 82.20,310.73 L 82.20,305.63 L 82.20,300.53 L 82.20,295.43 L 82.20,290.32" style="stroke:black;stroke-width:0.71;stroke-linecap:round;fill:none"/>
<!-- Render block 8
 -->
<text x="135.19" y="328.23" style="font-size:10;text-anchor:middle;fill:black;stroke:none;font-weight:normal;font-family:sanserif" >in3</text>
<path d="M 82.20,331.14 L 87.47,330.22 L 92.74,329.30 L 98.01,328.38 L 103.27,327.47 L 108.54,326.55 L 113.81,325.63 L 119.08,324.71 L 124.34,323.79 L 129.61,322.87 L 134.88,321.95 L 140.14,321.03 L 145.41,320.11 L 150.68,319.19 L 155.95,318.27 L 161.21,317.35 L 166.48,316.43 L 171.75,315.51 L 177.02,314.59 L 182.28,313.67 L 187.55,312.75" style="stroke:black;stroke-width:0.71;stroke-linecap:round;fill:none;stroke-dasharray: 5.67 5.67"/>
<path d="M 181.70,342.37 L 182.43,338.67 L 183.16,334.96 L 183.89,331.26 L 184.63,327.56 L 185.36,323.86 L 186.09,320.16 L 186.82,316.46 L 187.55,312.75" style="stroke:black;stroke-width:0.71;stroke-linecap:round;fill:none;stroke-dasharray: 5.67 5.67"/>
<text x="131.95" y="342.37" style="font-size:10;text-anchor:middle;fill:black;stroke:none;font-weight:normal;font-family:sanserif" >USER_DEFINED</text>
<path d="M 82.20,342.37 L 87.18,342.37 L 92.15,342.37 L 97.13,342.37 L 102.10,342.37 L 107.08,342.37 L 112.05,342.37 L 117.03,342.37 L 122.00,342.37 L 126.98,342.37 L 131.95,342.37 L 136.93,342.37 L 141.90,342.37 L 146.88,342.37 L 151.85,342.37 L 156.83,342.37 L 161.80,342.37 L 166.78,342.37 L 171.75,342.37 L 176.73,342.37 L 181.70,342.37" style="stroke:black;stroke-width:0.71;stroke-linecap:round;fill:none"/>
<text x="82.20" y="336.76" transform="rotate(-90.00,82.20,336.76)"  style="font-size:10;text-anchor:middle;fill:black;stroke:none;font-weight:normal;font-family:sanserif" >USER_DEFINED</text>
<path d="M 82.20,342.37 L 82.20,340.97 L 82.20,339.56 L 82.20,338.16 L 82.20,336.76 L 82.20,335.35 L 82.20,333.95 L 82.20,332.55 L 82.20,331.14" style="stroke:black;stroke-width:0.71;stroke-linecap:round;fill:none"/>
<!-- Render block 9
 -->
<text x="356.12" y="322.64" style="font-size:10;text-anchor:middle;fill:black;stroke:none;font-weight:normal;font-family:sanserif" >out1</text>
<text x="357.64" y="316.61" style="font-size:10;text-anchor:middle;fill:black;stroke:none;font-weight:normal;font-family:sanserif" >USER_DEFINED</text>
<path d="M 295.13,316.61 L 301.38,316.61 L 307.63,316.61 L 313.88,316.61 L 320.14,316.61 L 326.39,316.61 L 332.64,316.61 L 338.89,316.61 L 345.14,316.61 L 351.39,316.61 L 357.64,316.61 L 363.89,316.61 L 370.14,316.61 L 376.39,316.61 L 382.64,316.61 L 388.89,316.61 L 395.14,316.61 L 401.39,316.61 L 407.64,316.61 L 413.89,316.61 L 420.14,316.61" style="stroke:black;stroke-width:0.71;stroke-linecap:round;fill:none"/>
<text x="420.14" y="326.81" transform="rotate(-90.00,420.14,326.81)"  style="font-size:10;text-anchor:middle;fill:black;stroke:none;font-weight:normal;font-family:sanserif" >FIXED_P_OUT</text>
<path d="M 420.14,337.02 L 420.14,334.46 L 420.14,331.91 L 420.14,329.36 L 420.14,326.81 L 420.14,324.26 L 420.14,321.71 L 420.14,319.16 L 420.14,316.61" style="stroke:black;stroke-width:0.71;stroke-linecap:round;fill:none"/>
<path d="M 285.92,332.77 L 292.63,332.98 L 299.34,333.19 L 306.05,333.40 L 312.76,333.62 L 319.48,333.83 L 326.19,334.04 L 332.90,334.25 L 339.61,334.47 L 346.32,334.68 L 353.03,334.89 L 359.74,335.10 L 366.45,335.32 L 373.16,335.53 L 379.88,335.74 L 386.59,335.95 L 393.30,336.17 L 400.01,336.38 L 406.72,336.59 L 413.43,336.80 L 420.14,337.02" style="stroke:black;stroke-width:0.71;stroke-linecap:round;fill:none;stroke-dasharray: 5.67 5.67"/>
<path d="M 285.92,332.77 L 287.07,330.75 L 288.22,328.73 L 289.37,326.71 L 290.53,324.69 L 291.68,322.67 L 292.83,320.65 L 293.98,318.63 L 295.13,316.61" style="stroke:black;stroke-width:0.71;stroke-linecap:round;fill:none;stroke-dasharray: 5.67 5.67"/>
<!-- Render block 10
 -->
<text x="354.42" y="341.44" style="font-size:10;text-anchor:middle;fill:black;stroke:none;font-weight:normal;font-family:sanserif" >out2</text>
<path d="M 285.92,332.77 L 292.63,332.98 L 299.34,333.19 L 306.05,333.40 L 312.76,333.62 L 319.48,333.83 L 326.19,334.04 L 332.90,334.25 L 339.61,334.47 L 346.32,334.68 L 353.03,334.89 L 359.74,335.10 L 366.45,335.32 L 373.16,335.53 L 379.88,335.74 L 386.59,335.95 L 393.30,336.17 L 400.01,336.38 L 406.72,336.59 L 413.43,336.80 L 420.14,337.02" style="stroke:black;stroke-width:0.71;stroke-linecap:round;fill:none;stroke-dasharray: 5.67 5.67"/>
<text x="420.14" y="347.22" transform="rotate(-90.00,420.14,347.22)"  style="font-size:10;text-anchor:middle;fill:black;stroke:none;font-weight:normal;font-family:sanserif" >FIXED_P_OUT</text>
<path d="M 420.14,357.43 L 420.14,355.72 L 420.14,354.02 L 420.14,352.32 L 420.14,350.62 L 420.14,348.92 L 420.14,347.22 L 420.14,345.52 L 420.14,343.82 L 420.14,342.12 L 420.14,340.42 L 420.14,338.72 L 420.14,337.02" style="stroke:black;stroke-width:0.71;stroke-linecap:round;fill:none"/>
<path d="M 295.56,354.10 L 301.79,354.27 L 308.02,354.43 L 314.25,354.60 L 320.48,354.76 L 326.71,354.93 L 332.93,355.10 L 339.16,355.26 L 345.39,355.43 L 351.62,355.60 L 357.85,355.76 L 364.08,355.93 L 370.31,356.09 L 376.54,356.26 L 382.77,356.43 L 389.00,356.59 L 395.23,356.76 L 401.45,356.93 L 407.68,357.09 L 413.91,357.26 L 420.14,357.43" style="stroke:black;stroke-width:0.71;stroke-linecap:round;fill:none;stroke-dasharray: 5.67 5.67"/>
<path d="M 295.56,354.10 L 294.76,352.32 L 293.95,350.54 L 293.15,348.77 L 292.35,346.99 L 291.54,345.21 L 290.74,343.43 L 289.94,341.66 L 289.13,339.88 L 288.33,338.10 L 287.53,336.32 L 286.72,334.54 L 285.92,332.77" style="stroke:black;stroke-width:0.71;stroke-linecap:round;fill:none;stroke-dasharray: 5.67 5.67"/>
<!-- Render block 11
 -->
<text x="357.78" y="359.06" style="font-size:10;text-anchor:middle;fill:black;stroke:none;font-weight:normal;font-family:sanserif" >out2low</text>
<path d="M 295.56,354.10 L 301.79,354.27 L 308.02,354.43 L 314.25,354.60 L 320.48,354.76 L 326.71,354.93 L 332.93,355.10 L 339.16,355.26 L 345.39,355.43 L 351.62,355.60 L 357.85,355.76 L 364.08,355.93 L 370.31,356.09 L 376.54,356.26 L 382.77,356.43 L 389.00,356.59 L 395.23,356.76 L 401.45,356.93 L 407.68,357.09 L 413.91,357.26 L 420.14,357.43" style="stroke:black;stroke-width:0.71;stroke-linecap:round;fill:none;stroke-dasharray: 5.67 5.67"/>
<text x="420.14" y="362.53" transform="rotate(-90.00,420.14,362.53)"  style="font-size:10;text-anchor:middle;fill:black;stroke:none;font-weight:normal;font-family:sanserif" >FIXED_P_OUT</text>
<path d="M 420.14,367.63 L 420.14,365.08 L 420.14,362.53 L 420.14,359.98 L 420.14,357.43" style="stroke:black;stroke-width:0.71;stroke-linecap:round;fill:none"/>
<path d="M 295.02,363.80 L 301.28,363.99 L 307.53,364.18 L 313.79,364.38 L 320.04,364.57 L 326.30,364.76 L 332.56,364.95 L 338.81,365.14 L 345.07,365.33 L 351.32,365.52 L 357.58,365.72 L 363.84,365.91 L 370.09,366.10 L 376.35,366.29 L 382.61,366.48 L 388.86,366.67 L 395.12,366.86 L 401.37,367.06 L 407.63,367.25 L 413.89,367.44 L 420.14,367.63" style="stroke:black;stroke-width:0.71;stroke-linecap:round;fill:none;stroke-dasharray: 5.67 5.67"/>
<path d="M 295.02,363.80 L 296.36,361.36 L 297.11,358.98 L 296.73,356.51 L 295.56,354.10" style="stroke:black;stroke-width:0.71;stroke-linecap:round;fill:none;stroke-dasharray: 5.67 5.67"/>
<!-- Render block 12
 -->
<text x="357.36" y="373.41" style="font-size:10;text-anchor:middle;fill:black;stroke:none;font-weight:normal;font-family:sanserif" >out3</text>
<path d="M 295.02,363.80 L 301.28,363.99 L 307.53,364.18 L 313.79,364.38 L 320.04,364.57 L 326.30,364.76 L 332.56,364.95 L 338.81,365.14 L 345.07,365.33 L 351.32,365.52 L 357.58,365.72 L 363.84,365.91 L 370.09,366.10 L 376.35,366.29 L 382.61,366.48 L 388.86,366.67 L 395.12,366.86 L 401.37,367.06 L 407.63,367.25 L 413.89,367.44 L 420.14,367.63" style="stroke:black;stroke-width:0.71;stroke-linecap:round;fill:none;stroke-dasharray: 5.67 5.67"/>
<text x="420.14" y="378.34" transform="rotate(-90.00,420.14,378.34)"  style="font-size:10;text-anchor:middle;fill:black;stroke:none;font-weight:normal;font-family:sanserif" >FIXED_P_OUT</text>
<path d="M 420.14,389.06 L 420.14,386.38 L 420.14,383.70 L 420.14,381.02 L 420.14,378.34 L 420.14,375.67 L 420.14,372.99 L 420.14,370.31 L 420.14,367.63" style="stroke:black;stroke-width:0.71;stroke-linecap:round;fill:none"/>
<text x="357.64" y="389.06" style="font-size:10;text-anchor:middle;fill:black;stroke:none;font-weight:normal;font-family:sanserif" >USER_DEFINED</text>
<path d="M 295.13,389.06 L 301.38,389.06 L 307.63,389.06 L 313.88,389.06 L 320.14,389.06 L 326.39,389.06 L 332.64,389.06 L 338.89,389.06 L 345.14,389.06 L 351.39,389.06 L 357.64,389.06 L 363.89,389.06 L 370.14,389.06 L 376.39,389.06 L 382.64,389.06 L 388.89,389.06 L 395.14,389.06 L 401.39,389.06 L 407.64,389.06 L 413.89,389.06 L 420.14,389.06" style="stroke:black;stroke-width:0.71;stroke-linecap:round;fill:none"/>
<path d="M 295.13,389.06 L 295.12,385.90 L 295.11,382.75 L 295.09,379.59 L 295.08,376.43 L 295.06,373.27 L 295.05,370.12 L 295.03,366.96 L 295.02,363.80" style="stroke:black;stroke-width:0.71;stroke-linecap:round;fill:none;stroke-dasharray: 5.67 5.67"/>
<!-- Render block 13
 -->
<text x="245.88" y="279.06" style="font-size:10;text-anchor:middle;fill:black;stroke:none;font-weight:normal;font-family:sanserif" >top</text>
<text x="246.55" y="273.51" transform="rotate(36.41,246.55,273.51)"  style="font-size:10;text-anchor:middle;fill:black;stroke:none;font-weight:normal;font-family:sanserif" >USER_DEFINED</text>
<path d="M 181.70,269.91 L 186.57,268.77 L 191.44,267.68 L 196.32,266.68 L 201.19,265.83 L 206.07,265.17 L 210.96,264.75 L 215.86,264.63 L 220.76,264.84 L 225.67,265.44 L 230.59,266.48 L 235.53,268.01 L 239.66,269.69 L 243.10,271.37 L 246.54,273.29 L 249.99,275.44 L 253.44,277.80 L 256.90,280.35 L 260.36,283.08 L 263.83,285.97 L 267.30,289.01 L 270.77,292.17 L 274.25,295.45 L 277.72,298.83 L 281.20,302.29 L 284.68,305.81 L 288.17,309.38 L 291.65,312.99 L 295.13,316.61" style="stroke:black;stroke-width:0.71;stroke-linecap:round;fill:none"/>
<path d="M 285.92,332.77 L 287.07,330.75 L 288.22,328.73 L 289.37,326.71 L 290.53,324.69 L 291.68,322.67 L 292.83,320.65 L 293.98,318.63 L 295.13,316.61" style="stroke:black;stroke-width:0.71;stroke-linecap:round;fill:none;stroke-dasharray: 5.67 5.67"/>
<path d="M 184.46,298.46 L 186.95,295.59 L 189.89,292.76 L 193.74,290.02 L 198.44,287.62 L 202.37,286.09 L 206.81,284.73 L 211.66,283.62 L 216.80,282.83 L 222.11,282.45 L 227.38,282.56 L 231.80,283.07 L 236.18,283.99 L 240.52,285.34 L 244.80,287.13 L 249.01,289.38 L 253.14,292.10 L 257.19,295.33 L 260.29,298.21 L 262.98,301.00 L 265.64,304.01 L 268.25,307.19 L 270.83,310.55 L 273.39,314.04 L 275.92,317.64 L 278.44,321.34 L 280.94,325.11 L 283.43,328.93 L 285.92,332.77" style="stroke:black;stroke-width:0.71;stroke-linecap:round;fill:none;stroke-dasharray: 5.67 5.67"/>
<path d="M 184.46,298.46 L 184.11,294.89 L 183.77,291.32 L 183.42,287.76 L 183.08,284.19 L 182.73,280.62 L 182.39,277.05 L 182.05,273.48 L 181.70,269.91" style="stroke:black;stroke-width:0.71;stroke-linecap:round;fill:none;stroke-dasharray: 5.67 5.67"/>
<!-- Render block 14
 -->
<text x="241.94" y="329.68" style="font-size:10;text-anchor:middle;fill:black;stroke:none;font-weight:normal;font-family:sanserif" >low1</text>
<path d="M 187.55,312.75 L 191.45,312.60 L 195.36,312.46 L 199.25,312.37 L 203.13,312.34 L 207.00,312.41 L 210.86,312.58 L 214.69,312.89 L 218.50,313.36 L 222.29,314.00 L 226.05,314.85 L 229.77,315.91 L 233.45,317.22 L 237.10,318.80 L 240.30,320.45 L 242.93,321.99 L 245.54,323.68 L 248.13,325.52 L 250.70,327.49 L 253.25,329.58 L 255.78,331.79 L 258.29,334.11 L 260.79,336.53 L 263.28,339.03 L 265.76,341.62 L 268.22,344.27 L 270.68,346.99 L 273.13,349.76 L 275.57,352.58 L 278.00,355.43 L 280.44,358.31 L 282.86,361.21 L 285.29,364.12" style="stroke:black;stroke-width:0.71;stroke-linecap:round;fill:none;stroke-dasharray: 5.67 5.67"/>
<path d="M 281.97,375.51 L 282.38,374.09 L 282.80,372.66 L 283.22,371.24 L 283.63,369.81 L 284.05,368.39 L 284.46,366.96 L 284.88,365.54 L 285.29,364.12" style="stroke:black;stroke-width:0.71;stroke-linecap:round;fill:none;stroke-dasharray: 5.67 5.67"/>
<text x="239.62" y="342.35" transform="rotate(29.36,239.62,342.35)"  style="font-size:10;text-anchor:middle;fill:black;stroke:none;font-weight:normal;font-family:sanserif" >USER_DEFINED</text>
<path d="M 181.70,342.37 L 185.39,341.50 L 189.07,340.65 L 192.76,339.85 L 196.45,339.11 L 200.14,338.45 L 203.83,337.90 L 207.53,337.47 L 211.23,337.19 L 214.93,337.08 L 218.64,337.16 L 222.36,337.45 L 226.08,337.97 L 229.80,338.74 L 233.53,339.78 L 237.27,341.12 L 240.04,342.31 L 242.64,343.58 L 245.25,344.99 L 247.85,346.53 L 250.46,348.20 L 253.08,349.99 L 255.69,351.89 L 258.31,353.90 L 260.93,356.00 L 263.56,358.19 L 266.18,360.47 L 268.81,362.83 L 271.44,365.25 L 274.07,367.74 L 276.70,370.28 L 279.34,372.88 L 281.97,375.51" style="stroke:black;stroke-width:0.71;stroke-linecap:round;fill:none"/>
<path d="M 181.70,342.37 L 182.43,338.67 L 183.16,334.96 L 183.89,331.26 L 184.63,327.56 L 185.36,323.86 L 186.09,320.16 L 186.82,316.46 L 187.55,312.75" style="stroke:black;stroke-width:0.71;stroke-linecap:round;fill:none;stroke-dasharray: 5.67 5.67"/>
<!-- Render block 15
 -->
<text x="289.78" y="371.23" style="font-size:10;text-anchor:middle;fill:black;stroke:none;font-weight:normal;font-family:sanserif" >low2</text>
<path d="M 285.29,364.12 L 287.93,365.24 L 290.39,365.81 L 292.81,365.25 L 295.02,363.80" style="stroke:black;stroke-width:0.71;stroke-linecap:round;fill:none;stroke-dasharray: 5.67 5.67"/>
<path d="M 295.13,389.06 L 295.12,385.90 L 295.11,382.75 L 295.09,379.59 L 295.08,376.43 L 295.06,373.27 L 295.05,370.12 L 295.03,366.96 L 295.02,363.80" style="stroke:black;stroke-width:0.71;stroke-linecap:round;fill:none;stroke-dasharray: 5.67 5.67"/>
<text x="288.55" y="382.23" transform="rotate(52.21,288.55,382.23)"  style="font-size:10;text-anchor:middle;fill:black;stroke:none;font-weight:normal;font-family:sanserif" >USER_DEFINED</text>
<path d="M 281.97,375.51 L 285.26,378.85 L 288.55,382.23 L 291.84,385.64 L 295.13,389.06" style="stroke:black;stroke-width:0.71;stroke-linecap:round;fill:none"/>
<path d="M 281.97,375.51 L 282.38,374.09 L 282.80,372.66 L 283.22,371.24 L 283.63,369.81 L 284.05,368.39 L 284.46,366.96 L 284.88,365.54 L 285.29,364.12" style="stroke:black;stroke-width:0.71;stroke-linecap:round;fill:none;stroke-dasharray: 5.67 5.67"/>
<!-- end of drawing -->
</svg>
