<?xml version="1.0" encoding="UTF-8" standalone="no"?>
<svg
   xmlns:dc="http://purl.org/dc/elements/1.1/"
   xmlns:cc="http://creativecommons.org/ns#"
   xmlns:rdf="http://www.w3.org/1999/02/22-rdf-syntax-ns#"
   xmlns:svg="http://www.w3.org/2000/svg"
   xmlns="http://www.w3.org/2000/svg"
   xmlns:sodipodi="http://sodipodi.sourceforge.net/DTD/sodipodi-0.dtd"
   xmlns:inkscape="http://www.inkscape.org/namespaces/inkscape"
   width="566.93"
   height="566.93"
   version="1.0"
   id="svg2"
   sodipodi:version="0.32"
   inkscape:version="0.46"
   sodipodi:docname="bar-layout.svg"
   inkscape:output_extension="org.inkscape.output.svg.inkscape">
  <metadata
     id="metadata133">
    <rdf:RDF>
      <cc:Work
         rdf:about="">
        <dc:format>image/svg+xml</dc:format>
        <dc:type
           rdf:resource="http://purl.org/dc/dcmitype/StillImage" />
      </cc:Work>
    </rdf:RDF>
  </metadata>
  <defs
     id="defs131">
    <inkscape:perspective
       sodipodi:type="inkscape:persp3d"
       inkscape:vp_x="0 : 283.465 : 1"
       inkscape:vp_y="0 : 1000 : 0"
       inkscape:vp_z="566.92999 : 283.465 : 1"
       inkscape:persp3d-origin="283.465 : 188.97666 : 1"
       id="perspective135" />
  </defs>
  <sodipodi:namedview
     inkscape:window-height="874"
     inkscape:window-width="1395"
     inkscape:pageshadow="2"
     inkscape:pageopacity="0.0"
     guidetolerance="10.0"
     gridtolerance="10.0"
     objecttolerance="10.0"
     borderopacity="1.0"
     bordercolor="#666666"
     pagecolor="#ffffff"
     id="base"
     showgrid="false"
     inkscape:zoom="1.132415"
     inkscape:cx="283.465"
     inkscape:cy="283.465"
     inkscape:window-x="0"
     inkscape:window-y="25"
     inkscape:current-layer="svg2" />
  <title
     id="title4">Bar gauge M=4.76 in air.</title>
  <desc
     id="desc6">SVG file written by e3prep.py</desc>
<!-- drawing begins here -->  <line
     x1="141.73"
     y1="442.20"
     x2="481.89"
     y2="442.20"
     style="stroke:black;stroke-width:1.42;stroke-linecap:round;fill:none"
     id="line8" />
  <text
     x="311.81"
     y="467.72"
     style="font-size:10;text-anchor:start;fill:black;stroke:none;font-weight:normal;font-family:sanserif"
     id="text10">x</text>
  <line
     x1="141.73"
     y1="442.20"
     x2="141.73"
     y2="436.54"
     style="stroke:black;stroke-width:1.42;stroke-linecap:round;fill:none"
     id="line12" />
  <text
     x="141.73"
     y="456.38"
     style="font-size:10;text-anchor:middle;fill:black;stroke:none;font-weight:normal;font-family:sanserif"
     id="text14">-0.01</text>
  <line
     x1="226.77"
     y1="442.20"
     x2="226.77"
     y2="436.54"
     style="stroke:black;stroke-width:1.42;stroke-linecap:round;fill:none"
     id="line16" />
  <text
     x="226.77"
     y="456.38"
     style="font-size:10;text-anchor:middle;fill:black;stroke:none;font-weight:normal;font-family:sanserif"
     id="text18">0</text>
  <line
     x1="311.81"
     y1="442.20"
     x2="311.81"
     y2="436.54"
     style="stroke:black;stroke-width:1.42;stroke-linecap:round;fill:none"
     id="line20" />
  <text
     x="311.81"
     y="456.38"
     style="font-size:10;text-anchor:middle;fill:black;stroke:none;font-weight:normal;font-family:sanserif"
     id="text22">0.01</text>
  <line
     x1="396.85"
     y1="442.20"
     x2="396.85"
     y2="436.54"
     style="stroke:black;stroke-width:1.42;stroke-linecap:round;fill:none"
     id="line24" />
  <text
     x="396.85"
     y="456.38"
     style="font-size:10;text-anchor:middle;fill:black;stroke:none;font-weight:normal;font-family:sanserif"
     id="text26">0.02</text>
  <line
     x1="481.89"
     y1="442.20"
     x2="481.89"
     y2="436.54"
     style="stroke:black;stroke-width:1.42;stroke-linecap:round;fill:none"
     id="line28" />
  <text
     x="481.89"
     y="456.38"
     style="font-size:10;text-anchor:middle;fill:black;stroke:none;font-weight:normal;font-family:sanserif"
     id="text30">0.03</text>
  <line
     x1="124.72"
     y1="425.20"
     x2="124.72"
     y2="170.08"
     style="stroke:black;stroke-width:1.42;stroke-linecap:round;fill:none"
     id="line32" />
  <text
     x="102.05"
     y="297.64"
     style="font-size:10;text-anchor:end;fill:black;stroke:none;font-weight:normal;font-family:sanserif"
     id="text34">y</text>
  <line
     x1="124.72"
     y1="425.20"
     x2="130.39"
     y2="425.20"
     style="stroke:black;stroke-width:1.42;stroke-linecap:round;fill:none"
     id="line36" />
  <text
     x="116.22"
     y="425.20"
     style="font-size:10;text-anchor:end;fill:black;stroke:none;font-weight:normal;font-family:sanserif"
     id="text38">0</text>
  <line
     x1="124.72"
     y1="340.16"
     x2="130.39"
     y2="340.16"
     style="stroke:black;stroke-width:1.42;stroke-linecap:round;fill:none"
     id="line40" />
  <text
     x="116.22"
     y="340.16"
     style="font-size:10;text-anchor:end;fill:black;stroke:none;font-weight:normal;font-family:sanserif"
     id="text42">0.01</text>
  <line
     x1="124.72"
     y1="255.12"
     x2="130.39"
     y2="255.12"
     style="stroke:black;stroke-width:1.42;stroke-linecap:round;fill:none"
     id="line44" />
  <text
     x="116.22"
     y="255.12"
     style="font-size:10;text-anchor:end;fill:black;stroke:none;font-weight:normal;font-family:sanserif"
     id="text46">0.02</text>
  <line
     x1="124.72"
     y1="170.08"
     x2="130.39"
     y2="170.08"
     style="stroke:black;stroke-width:1.42;stroke-linecap:round;fill:none"
     id="line48" />
  <text
     x="116.22"
     y="170.08"
     style="font-size:10;text-anchor:end;fill:black;stroke:none;font-weight:normal;font-family:sanserif"
     id="text50">0.03</text>
<!-- There are 8 nodes
 -->  <circle
     cx="141.73"
     cy="425.20"
     r="2.83"
     style="fill:black"
     id="circle52" />
  <text
     x="152.81671"
     y="419.4939"
     style="font-size:10px;font-weight:normal;text-anchor:end;fill:#000000;stroke:none;font-family:sanserif"
     id="text54">A</text>
  <circle
     cx="141.73"
     cy="382.68"
     r="2.83"
     style="fill:black"
     id="circle56" />
  <text
     x="141.73"
     y="378.43"
     style="font-size:10;text-anchor:end;fill:black;stroke:none;font-weight:normal;font-family:sanserif"
     id="text58">B</text>
  <circle
     cx="141.73"
     cy="170.08"
     r="2.83"
     style="fill:black"
     id="circle60" />
  <text
     x="141.73"
     y="165.83"
     style="font-size:10;text-anchor:end;fill:black;stroke:none;font-weight:normal;font-family:sanserif"
     id="text62">C</text>
  <circle
     cx="226.77"
     cy="425.20"
     r="2.83"
     style="fill:black"
     id="circle64" />
  <text
     x="223.87782"
     y="419.97595"
     style="font-size:10px;font-weight:normal;text-anchor:end;fill:#000000;stroke:none;font-family:sanserif"
     id="text66">D</text>
  <circle
     cx="226.77"
     cy="382.68"
     r="2.83"
     style="fill:black"
     id="circle68" />
  <text
     x="223.87782"
     y="377.94797"
     style="font-size:10px;font-weight:normal;text-anchor:end;fill:#000000;stroke:none;font-family:sanserif"
     id="text70">E</text>
  <circle
     cx="226.77"
     cy="170.08"
     r="2.83"
     style="fill:black"
     id="circle72" />
  <text
     x="226.77"
     y="165.83"
     style="font-size:10;text-anchor:end;fill:black;stroke:none;font-weight:normal;font-family:sanserif"
     id="text74">F</text>
  <circle
     cx="481.89"
     cy="382.68"
     r="2.83"
     style="fill:black"
     id="circle76" />
  <text
     x="481.89"
     y="378.43"
     style="font-size:10;text-anchor:end;fill:black;stroke:none;font-weight:normal;font-family:sanserif"
     id="text78">G</text>
  <circle
     cx="481.89"
     cy="170.08"
     r="2.83"
     style="fill:black"
     id="circle80" />
  <text
     x="481.89"
     y="165.83"
     style="font-size:10;text-anchor:end;fill:black;stroke:none;font-weight:normal;font-family:sanserif"
     id="text82">H</text>
<!-- There are 3 blocks
 --><!-- Render block 0
 -->  <text
     x="182.32187"
     y="404.90451"
     style="font-size:10px;font-weight:normal;text-anchor:middle;fill:#000000;stroke:none;font-family:sanserif"
     id="text84">Front</text>
  <path
     d="M 141.73,382.68 L 142.44,382.68 L 143.15,382.68 L 143.86,382.68 L 144.57,382.68 L 145.28,382.68 L 145.98,382.68 L 146.69,382.68 L 147.40,382.68 L 148.11,382.68 L 148.82,382.68 L 149.53,382.68 L 150.24,382.68 L 150.94,382.68 L 151.65,382.68 L 152.36,382.68 L 153.07,382.68 L 153.78,382.68 L 154.49,382.68 L 155.20,382.68 L 155.91,382.68 L 156.61,382.68 L 157.32,382.68 L 158.03,382.68 L 158.74,382.68 L 159.45,382.68 L 160.16,382.68 L 160.87,382.68 L 161.57,382.68 L 162.28,382.68 L 162.99,382.68 L 163.70,382.68 L 164.41,382.68 L 165.12,382.68 L 165.83,382.68 L 166.54,382.68 L 167.24,382.68 L 167.95,382.68 L 168.66,382.68 L 169.37,382.68 L 170.08,382.68 L 170.79,382.68 L 171.50,382.68 L 172.20,382.68 L 172.91,382.68 L 173.62,382.68 L 174.33,382.68 L 175.04,382.68 L 175.75,382.68 L 176.46,382.68 L 177.17,382.68 L 177.87,382.68 L 178.58,382.68 L 179.29,382.68 L 180.00,382.68 L 180.71,382.68 L 181.42,382.68 L 182.13,382.68 L 182.83,382.68 L 183.54,382.68 L 184.25,382.68 L 184.96,382.68 L 185.67,382.68 L 186.38,382.68 L 187.09,382.68 L 187.80,382.68 L 188.50,382.68 L 189.21,382.68 L 189.92,382.68 L 190.63,382.68 L 191.34,382.68 L 192.05,382.68 L 192.76,382.68 L 193.46,382.68 L 194.17,382.68 L 194.88,382.68 L 195.59,382.68 L 196.30,382.68 L 197.01,382.68 L 197.72,382.68 L 198.43,382.68 L 199.13,382.68 L 199.84,382.68 L 200.55,382.68 L 201.26,382.68 L 201.97,382.68 L 202.68,382.68 L 203.39,382.68 L 204.09,382.68 L 204.80,382.68 L 205.51,382.68 L 206.22,382.68 L 206.93,382.68 L 207.64,382.68 L 208.35,382.68 L 209.06,382.68 L 209.76,382.68 L 210.47,382.68 L 211.18,382.68 L 211.89,382.68 L 212.60,382.68 L 213.31,382.68 L 214.02,382.68 L 214.72,382.68 L 215.43,382.68 L 216.14,382.68 L 216.85,382.68 L 217.56,382.68 L 218.27,382.68 L 218.98,382.68 L 219.69,382.68 L 220.39,382.68 L 221.10,382.68 L 221.81,382.68 L 222.52,382.68 L 223.23,382.68 L 223.94,382.68 L 224.65,382.68 L 225.35,382.68 L 226.06,382.68 L 226.77,382.68"
     style="stroke:black;stroke-width:0.71;stroke-linecap:round;fill:none;stroke-dasharray: 5.67 5.67"
     id="path86" />
  <text
     x="-412.13452"
     y="239.30281"
     transform="matrix(0,-1,1,0,0,0)"
     style="font-size:10px;font-weight:normal;text-anchor:middle;fill:#000000;stroke:none;font-family:sanserif"
     id="text88">SLIP_WALL</text>
  <path
     d="M 226.77,425.20 L 226.77,424.13 L 226.77,423.07 L 226.77,422.01 L 226.77,420.94 L 226.77,419.88 L 226.77,418.82 L 226.77,417.76 L 226.77,416.69 L 226.77,415.63 L 226.77,414.57 L 226.77,413.50 L 226.77,412.44 L 226.77,411.38 L 226.77,410.31 L 226.77,409.25 L 226.77,408.19 L 226.77,407.13 L 226.77,406.06 L 226.77,405.00 L 226.77,403.94 L 226.77,402.87 L 226.77,401.81 L 226.77,400.75 L 226.77,399.69 L 226.77,398.62 L 226.77,397.56 L 226.77,396.50 L 226.77,395.43 L 226.77,394.37 L 226.77,393.31 L 226.77,392.24 L 226.77,391.18 L 226.77,390.12 L 226.77,389.06 L 226.77,387.99 L 226.77,386.93 L 226.77,385.87 L 226.77,384.80 L 226.77,383.74 L 226.77,382.68"
     style="stroke:black;stroke-width:0.71;stroke-linecap:round;fill:none"
     id="path90" />
  <text
     x="183.28593"
     y="434.84064"
     style="font-size:10px;font-weight:normal;text-anchor:middle;fill:#000000;stroke:none;font-family:sanserif"
     id="text92">SLIP_WALL</text>
  <path
     d="M 141.73,425.20 L 142.44,425.20 L 143.15,425.20 L 143.86,425.20 L 144.57,425.20 L 145.28,425.20 L 145.98,425.20 L 146.69,425.20 L 147.40,425.20 L 148.11,425.20 L 148.82,425.20 L 149.53,425.20 L 150.24,425.20 L 150.94,425.20 L 151.65,425.20 L 152.36,425.20 L 153.07,425.20 L 153.78,425.20 L 154.49,425.20 L 155.20,425.20 L 155.91,425.20 L 156.61,425.20 L 157.32,425.20 L 158.03,425.20 L 158.74,425.20 L 159.45,425.20 L 160.16,425.20 L 160.87,425.20 L 161.57,425.20 L 162.28,425.20 L 162.99,425.20 L 163.70,425.20 L 164.41,425.20 L 165.12,425.20 L 165.83,425.20 L 166.54,425.20 L 167.24,425.20 L 167.95,425.20 L 168.66,425.20 L 169.37,425.20 L 170.08,425.20 L 170.79,425.20 L 171.50,425.20 L 172.20,425.20 L 172.91,425.20 L 173.62,425.20 L 174.33,425.20 L 175.04,425.20 L 175.75,425.20 L 176.46,425.20 L 177.17,425.20 L 177.87,425.20 L 178.58,425.20 L 179.29,425.20 L 180.00,425.20 L 180.71,425.20 L 181.42,425.20 L 182.13,425.20 L 182.83,425.20 L 183.54,425.20 L 184.25,425.20 L 184.96,425.20 L 185.67,425.20 L 186.38,425.20 L 187.09,425.20 L 187.80,425.20 L 188.50,425.20 L 189.21,425.20 L 189.92,425.20 L 190.63,425.20 L 191.34,425.20 L 192.05,425.20 L 192.76,425.20 L 193.46,425.20 L 194.17,425.20 L 194.88,425.20 L 195.59,425.20 L 196.30,425.20 L 197.01,425.20 L 197.72,425.20 L 198.43,425.20 L 199.13,425.20 L 199.84,425.20 L 200.55,425.20 L 201.26,425.20 L 201.97,425.20 L 202.68,425.20 L 203.39,425.20 L 204.09,425.20 L 204.80,425.20 L 205.51,425.20 L 206.22,425.20 L 206.93,425.20 L 207.64,425.20 L 208.35,425.20 L 209.06,425.20 L 209.76,425.20 L 210.47,425.20 L 211.18,425.20 L 211.89,425.20 L 212.60,425.20 L 213.31,425.20 L 214.02,425.20 L 214.72,425.20 L 215.43,425.20 L 216.14,425.20 L 216.85,425.20 L 217.56,425.20 L 218.27,425.20 L 218.98,425.20 L 219.69,425.20 L 220.39,425.20 L 221.10,425.20 L 221.81,425.20 L 222.52,425.20 L 223.23,425.20 L 223.94,425.20 L 224.65,425.20 L 225.35,425.20 L 226.06,425.20 L 226.77,425.20"
     style="stroke:black;stroke-width:0.71;stroke-linecap:round;fill:none"
     id="path94" />
  <text
     x="-403.45798"
     y="135.46361"
     transform="matrix(0,-1,1,0,0,0)"
     style="font-size:10px;font-weight:normal;text-anchor:middle;fill:#000000;stroke:none;font-family:sanserif"
     id="text96">SUP_IN</text>
  <path
     d="M 141.73,425.20 L 141.73,424.13 L 141.73,423.07 L 141.73,422.01 L 141.73,420.94 L 141.73,419.88 L 141.73,418.82 L 141.73,417.76 L 141.73,416.69 L 141.73,415.63 L 141.73,414.57 L 141.73,413.50 L 141.73,412.44 L 141.73,411.38 L 141.73,410.31 L 141.73,409.25 L 141.73,408.19 L 141.73,407.13 L 141.73,406.06 L 141.73,405.00 L 141.73,403.94 L 141.73,402.87 L 141.73,401.81 L 141.73,400.75 L 141.73,399.69 L 141.73,398.62 L 141.73,397.56 L 141.73,396.50 L 141.73,395.43 L 141.73,394.37 L 141.73,393.31 L 141.73,392.24 L 141.73,391.18 L 141.73,390.12 L 141.73,389.06 L 141.73,387.99 L 141.73,386.93 L 141.73,385.87 L 141.73,384.80 L 141.73,383.74 L 141.73,382.68"
     style="stroke:black;stroke-width:0.71;stroke-linecap:round;fill:none"
     id="path98" />
<!-- Render block 1
 -->  <text
     x="183.14944"
     y="270.17526"
     style="font-size:10px;font-weight:normal;text-anchor:middle;fill:#000000;stroke:none;font-family:sanserif"
     id="text100">Outer</text>
  <text
     x="183.58966"
     y="165.67776"
     style="font-size:10px;font-weight:normal;text-anchor:middle;fill:#000000;stroke:none;font-family:sanserif"
     id="text102">SLIP_WALL</text>
  <path
     d="M 141.73,170.08 L 142.44,170.08 L 143.15,170.08 L 143.86,170.08 L 144.57,170.08 L 145.28,170.08 L 145.98,170.08 L 146.69,170.08 L 147.40,170.08 L 148.11,170.08 L 148.82,170.08 L 149.53,170.08 L 150.24,170.08 L 150.94,170.08 L 151.65,170.08 L 152.36,170.08 L 153.07,170.08 L 153.78,170.08 L 154.49,170.08 L 155.20,170.08 L 155.91,170.08 L 156.61,170.08 L 157.32,170.08 L 158.03,170.08 L 158.74,170.08 L 159.45,170.08 L 160.16,170.08 L 160.87,170.08 L 161.57,170.08 L 162.28,170.08 L 162.99,170.08 L 163.70,170.08 L 164.41,170.08 L 165.12,170.08 L 165.83,170.08 L 166.54,170.08 L 167.24,170.08 L 167.95,170.08 L 168.66,170.08 L 169.37,170.08 L 170.08,170.08 L 170.79,170.08 L 171.50,170.08 L 172.20,170.08 L 172.91,170.08 L 173.62,170.08 L 174.33,170.08 L 175.04,170.08 L 175.75,170.08 L 176.46,170.08 L 177.17,170.08 L 177.87,170.08 L 178.58,170.08 L 179.29,170.08 L 180.00,170.08 L 180.71,170.08 L 181.42,170.08 L 182.13,170.08 L 182.83,170.08 L 183.54,170.08 L 184.25,170.08 L 184.96,170.08 L 185.67,170.08 L 186.38,170.08 L 187.09,170.08 L 187.80,170.08 L 188.50,170.08 L 189.21,170.08 L 189.92,170.08 L 190.63,170.08 L 191.34,170.08 L 192.05,170.08 L 192.76,170.08 L 193.46,170.08 L 194.17,170.08 L 194.88,170.08 L 195.59,170.08 L 196.30,170.08 L 197.01,170.08 L 197.72,170.08 L 198.43,170.08 L 199.13,170.08 L 199.84,170.08 L 200.55,170.08 L 201.26,170.08 L 201.97,170.08 L 202.68,170.08 L 203.39,170.08 L 204.09,170.08 L 204.80,170.08 L 205.51,170.08 L 206.22,170.08 L 206.93,170.08 L 207.64,170.08 L 208.35,170.08 L 209.06,170.08 L 209.76,170.08 L 210.47,170.08 L 211.18,170.08 L 211.89,170.08 L 212.60,170.08 L 213.31,170.08 L 214.02,170.08 L 214.72,170.08 L 215.43,170.08 L 216.14,170.08 L 216.85,170.08 L 217.56,170.08 L 218.27,170.08 L 218.98,170.08 L 219.69,170.08 L 220.39,170.08 L 221.10,170.08 L 221.81,170.08 L 222.52,170.08 L 223.23,170.08 L 223.94,170.08 L 224.65,170.08 L 225.35,170.08 L 226.06,170.08 L 226.77,170.08"
     style="stroke:black;stroke-width:0.71;stroke-linecap:round;fill:none"
     id="path104" />
  <path
     d="M 226.77,382.68 L 226.77,380.02 L 226.77,377.36 L 226.77,374.70 L 226.77,372.05 L 226.77,369.39 L 226.77,366.73 L 226.77,364.07 L 226.77,361.42 L 226.77,358.76 L 226.77,356.10 L 226.77,353.44 L 226.77,350.79 L 226.77,348.13 L 226.77,345.47 L 226.77,342.81 L 226.77,340.16 L 226.77,337.50 L 226.77,334.84 L 226.77,332.19 L 226.77,329.53 L 226.77,326.87 L 226.77,324.21 L 226.77,321.56 L 226.77,318.90 L 226.77,316.24 L 226.77,313.58 L 226.77,310.93 L 226.77,308.27 L 226.77,305.61 L 226.77,302.95 L 226.77,300.30 L 226.77,297.64 L 226.77,294.98 L 226.77,292.32 L 226.77,289.67 L 226.77,287.01 L 226.77,284.35 L 226.77,281.69 L 226.77,279.04 L 226.77,276.38 L 226.77,273.72 L 226.77,271.06 L 226.77,268.41 L 226.77,265.75 L 226.77,263.09 L 226.77,260.43 L 226.77,257.78 L 226.77,255.12 L 226.77,252.46 L 226.77,249.80 L 226.77,247.15 L 226.77,244.49 L 226.77,241.83 L 226.77,239.17 L 226.77,236.52 L 226.77,233.86 L 226.77,231.20 L 226.77,228.54 L 226.77,225.89 L 226.77,223.23 L 226.77,220.57 L 226.77,217.91 L 226.77,215.26 L 226.77,212.60 L 226.77,209.94 L 226.77,207.28 L 226.77,204.63 L 226.77,201.97 L 226.77,199.31 L 226.77,196.65 L 226.77,194.00 L 226.77,191.34 L 226.77,188.68 L 226.77,186.02 L 226.77,183.37 L 226.77,180.71 L 226.77,178.05 L 226.77,175.39 L 226.77,172.74 L 226.77,170.08"
     style="stroke:black;stroke-width:0.71;stroke-linecap:round;fill:none;stroke-dasharray: 5.67 5.67"
     id="path106" />
  <path
     d="M 141.73,382.68 L 142.44,382.68 L 143.15,382.68 L 143.86,382.68 L 144.57,382.68 L 145.28,382.68 L 145.98,382.68 L 146.69,382.68 L 147.40,382.68 L 148.11,382.68 L 148.82,382.68 L 149.53,382.68 L 150.24,382.68 L 150.94,382.68 L 151.65,382.68 L 152.36,382.68 L 153.07,382.68 L 153.78,382.68 L 154.49,382.68 L 155.20,382.68 L 155.91,382.68 L 156.61,382.68 L 157.32,382.68 L 158.03,382.68 L 158.74,382.68 L 159.45,382.68 L 160.16,382.68 L 160.87,382.68 L 161.57,382.68 L 162.28,382.68 L 162.99,382.68 L 163.70,382.68 L 164.41,382.68 L 165.12,382.68 L 165.83,382.68 L 166.54,382.68 L 167.24,382.68 L 167.95,382.68 L 168.66,382.68 L 169.37,382.68 L 170.08,382.68 L 170.79,382.68 L 171.50,382.68 L 172.20,382.68 L 172.91,382.68 L 173.62,382.68 L 174.33,382.68 L 175.04,382.68 L 175.75,382.68 L 176.46,382.68 L 177.17,382.68 L 177.87,382.68 L 178.58,382.68 L 179.29,382.68 L 180.00,382.68 L 180.71,382.68 L 181.42,382.68 L 182.13,382.68 L 182.83,382.68 L 183.54,382.68 L 184.25,382.68 L 184.96,382.68 L 185.67,382.68 L 186.38,382.68 L 187.09,382.68 L 187.80,382.68 L 188.50,382.68 L 189.21,382.68 L 189.92,382.68 L 190.63,382.68 L 191.34,382.68 L 192.05,382.68 L 192.76,382.68 L 193.46,382.68 L 194.17,382.68 L 194.88,382.68 L 195.59,382.68 L 196.30,382.68 L 197.01,382.68 L 197.72,382.68 L 198.43,382.68 L 199.13,382.68 L 199.84,382.68 L 200.55,382.68 L 201.26,382.68 L 201.97,382.68 L 202.68,382.68 L 203.39,382.68 L 204.09,382.68 L 204.80,382.68 L 205.51,382.68 L 206.22,382.68 L 206.93,382.68 L 207.64,382.68 L 208.35,382.68 L 209.06,382.68 L 209.76,382.68 L 210.47,382.68 L 211.18,382.68 L 211.89,382.68 L 212.60,382.68 L 213.31,382.68 L 214.02,382.68 L 214.72,382.68 L 215.43,382.68 L 216.14,382.68 L 216.85,382.68 L 217.56,382.68 L 218.27,382.68 L 218.98,382.68 L 219.69,382.68 L 220.39,382.68 L 221.10,382.68 L 221.81,382.68 L 222.52,382.68 L 223.23,382.68 L 223.94,382.68 L 224.65,382.68 L 225.35,382.68 L 226.06,382.68 L 226.77,382.68"
     style="stroke:black;stroke-width:0.71;stroke-linecap:round;fill:none;stroke-dasharray: 5.67 5.67"
     id="path108" />
  <text
     x="-277.70068"
     y="137.54788"
     transform="matrix(0,-1,1,0,0,0)"
     style="font-size:10px;font-weight:normal;text-anchor:middle;fill:#000000;stroke:none;font-family:sanserif"
     id="text110">SUP_IN</text>
  <path
     d="M 141.73,382.68 L 141.73,380.02 L 141.73,377.36 L 141.73,374.70 L 141.73,372.05 L 141.73,369.39 L 141.73,366.73 L 141.73,364.07 L 141.73,361.42 L 141.73,358.76 L 141.73,356.10 L 141.73,353.44 L 141.73,350.79 L 141.73,348.13 L 141.73,345.47 L 141.73,342.81 L 141.73,340.16 L 141.73,337.50 L 141.73,334.84 L 141.73,332.19 L 141.73,329.53 L 141.73,326.87 L 141.73,324.21 L 141.73,321.56 L 141.73,318.90 L 141.73,316.24 L 141.73,313.58 L 141.73,310.93 L 141.73,308.27 L 141.73,305.61 L 141.73,302.95 L 141.73,300.30 L 141.73,297.64 L 141.73,294.98 L 141.73,292.32 L 141.73,289.67 L 141.73,287.01 L 141.73,284.35 L 141.73,281.69 L 141.73,279.04 L 141.73,276.38 L 141.73,273.72 L 141.73,271.06 L 141.73,268.41 L 141.73,265.75 L 141.73,263.09 L 141.73,260.43 L 141.73,257.78 L 141.73,255.12 L 141.73,252.46 L 141.73,249.80 L 141.73,247.15 L 141.73,244.49 L 141.73,241.83 L 141.73,239.17 L 141.73,236.52 L 141.73,233.86 L 141.73,231.20 L 141.73,228.54 L 141.73,225.89 L 141.73,223.23 L 141.73,220.57 L 141.73,217.91 L 141.73,215.26 L 141.73,212.60 L 141.73,209.94 L 141.73,207.28 L 141.73,204.63 L 141.73,201.97 L 141.73,199.31 L 141.73,196.65 L 141.73,194.00 L 141.73,191.34 L 141.73,188.68 L 141.73,186.02 L 141.73,183.37 L 141.73,180.71 L 141.73,178.05 L 141.73,175.39 L 141.73,172.74 L 141.73,170.08"
     style="stroke:black;stroke-width:0.71;stroke-linecap:round;fill:none"
     id="path112" />
<!-- Render block 2
 -->  <text
     x="350.95578"
     y="272.05408"
     style="font-size:10px;font-weight:normal;text-anchor:middle;fill:#000000;stroke:none;font-family:sanserif"
     id="text114">After</text>
  <text
     x="352.40186"
     y="166.22375"
     style="font-size:10px;font-weight:normal;text-anchor:middle;fill:#000000;stroke:none;font-family:sanserif"
     id="text116">SLIP_WALL</text>
  <path
     d="M 226.77,170.08 L 228.90,170.08 L 231.02,170.08 L 233.15,170.08 L 235.28,170.08 L 237.40,170.08 L 239.53,170.08 L 241.65,170.08 L 243.78,170.08 L 245.91,170.08 L 248.03,170.08 L 250.16,170.08 L 252.28,170.08 L 254.41,170.08 L 256.54,170.08 L 258.66,170.08 L 260.79,170.08 L 262.91,170.08 L 265.04,170.08 L 267.17,170.08 L 269.29,170.08 L 271.42,170.08 L 273.54,170.08 L 275.67,170.08 L 277.80,170.08 L 279.92,170.08 L 282.05,170.08 L 284.17,170.08 L 286.30,170.08 L 288.43,170.08 L 290.55,170.08 L 292.68,170.08 L 294.80,170.08 L 296.93,170.08 L 299.06,170.08 L 301.18,170.08 L 303.31,170.08 L 305.43,170.08 L 307.56,170.08 L 309.69,170.08 L 311.81,170.08 L 313.94,170.08 L 316.06,170.08 L 318.19,170.08 L 320.31,170.08 L 322.44,170.08 L 324.57,170.08 L 326.69,170.08 L 328.82,170.08 L 330.94,170.08 L 333.07,170.08 L 335.20,170.08 L 337.32,170.08 L 339.45,170.08 L 341.57,170.08 L 343.70,170.08 L 345.83,170.08 L 347.95,170.08 L 350.08,170.08 L 352.20,170.08 L 354.33,170.08 L 356.46,170.08 L 358.58,170.08 L 360.71,170.08 L 362.83,170.08 L 364.96,170.08 L 367.09,170.08 L 369.21,170.08 L 371.34,170.08 L 373.46,170.08 L 375.59,170.08 L 377.72,170.08 L 379.84,170.08 L 381.97,170.08 L 384.09,170.08 L 386.22,170.08 L 388.35,170.08 L 390.47,170.08 L 392.60,170.08 L 394.72,170.08 L 396.85,170.08 L 398.98,170.08 L 401.10,170.08 L 403.23,170.08 L 405.35,170.08 L 407.48,170.08 L 409.61,170.08 L 411.73,170.08 L 413.86,170.08 L 415.98,170.08 L 418.11,170.08 L 420.24,170.08 L 422.36,170.08 L 424.49,170.08 L 426.61,170.08 L 428.74,170.08 L 430.87,170.08 L 432.99,170.08 L 435.12,170.08 L 437.24,170.08 L 439.37,170.08 L 441.50,170.08 L 443.62,170.08 L 445.75,170.08 L 447.87,170.08 L 450.00,170.08 L 452.13,170.08 L 454.25,170.08 L 456.38,170.08 L 458.50,170.08 L 460.63,170.08 L 462.76,170.08 L 464.88,170.08 L 467.01,170.08 L 469.13,170.08 L 471.26,170.08 L 473.39,170.08 L 475.51,170.08 L 477.64,170.08 L 479.76,170.08 L 481.89,170.08"
     style="stroke:black;stroke-width:0.71;stroke-linecap:round;fill:none"
     id="path118" />
  <text
     x="-275.89795"
     y="492.49469"
     transform="matrix(0,-1,1,0,0,0)"
     style="font-size:10px;font-weight:normal;text-anchor:middle;fill:#000000;stroke:none;font-family:sanserif"
     id="text120">EXTRAPOLATE_OUT</text>
  <path
     d="M 481.89,382.68 L 481.89,380.02 L 481.89,377.36 L 481.89,374.70 L 481.89,372.05 L 481.89,369.39 L 481.89,366.73 L 481.89,364.07 L 481.89,361.42 L 481.89,358.76 L 481.89,356.10 L 481.89,353.44 L 481.89,350.79 L 481.89,348.13 L 481.89,345.47 L 481.89,342.81 L 481.89,340.16 L 481.89,337.50 L 481.89,334.84 L 481.89,332.19 L 481.89,329.53 L 481.89,326.87 L 481.89,324.21 L 481.89,321.56 L 481.89,318.90 L 481.89,316.24 L 481.89,313.58 L 481.89,310.93 L 481.89,308.27 L 481.89,305.61 L 481.89,302.95 L 481.89,300.30 L 481.89,297.64 L 481.89,294.98 L 481.89,292.32 L 481.89,289.67 L 481.89,287.01 L 481.89,284.35 L 481.89,281.69 L 481.89,279.04 L 481.89,276.38 L 481.89,273.72 L 481.89,271.06 L 481.89,268.41 L 481.89,265.75 L 481.89,263.09 L 481.89,260.43 L 481.89,257.78 L 481.89,255.12 L 481.89,252.46 L 481.89,249.80 L 481.89,247.15 L 481.89,244.49 L 481.89,241.83 L 481.89,239.17 L 481.89,236.52 L 481.89,233.86 L 481.89,231.20 L 481.89,228.54 L 481.89,225.89 L 481.89,223.23 L 481.89,220.57 L 481.89,217.91 L 481.89,215.26 L 481.89,212.60 L 481.89,209.94 L 481.89,207.28 L 481.89,204.63 L 481.89,201.97 L 481.89,199.31 L 481.89,196.65 L 481.89,194.00 L 481.89,191.34 L 481.89,188.68 L 481.89,186.02 L 481.89,183.37 L 481.89,180.71 L 481.89,178.05 L 481.89,175.39 L 481.89,172.74 L 481.89,170.08"
     style="stroke:black;stroke-width:0.71;stroke-linecap:round;fill:none"
     id="path122" />
  <text
     x="351.91983"
     y="392.80264"
     style="font-size:10px;font-weight:normal;text-anchor:middle;fill:#000000;stroke:none;font-family:sanserif"
     id="text124">SLIP_WALL</text>
  <path
     d="M 226.77,382.68 L 228.90,382.68 L 231.02,382.68 L 233.15,382.68 L 235.28,382.68 L 237.40,382.68 L 239.53,382.68 L 241.65,382.68 L 243.78,382.68 L 245.91,382.68 L 248.03,382.68 L 250.16,382.68 L 252.28,382.68 L 254.41,382.68 L 256.54,382.68 L 258.66,382.68 L 260.79,382.68 L 262.91,382.68 L 265.04,382.68 L 267.17,382.68 L 269.29,382.68 L 271.42,382.68 L 273.54,382.68 L 275.67,382.68 L 277.80,382.68 L 279.92,382.68 L 282.05,382.68 L 284.17,382.68 L 286.30,382.68 L 288.43,382.68 L 290.55,382.68 L 292.68,382.68 L 294.80,382.68 L 296.93,382.68 L 299.06,382.68 L 301.18,382.68 L 303.31,382.68 L 305.43,382.68 L 307.56,382.68 L 309.69,382.68 L 311.81,382.68 L 313.94,382.68 L 316.06,382.68 L 318.19,382.68 L 320.31,382.68 L 322.44,382.68 L 324.57,382.68 L 326.69,382.68 L 328.82,382.68 L 330.94,382.68 L 333.07,382.68 L 335.20,382.68 L 337.32,382.68 L 339.45,382.68 L 341.57,382.68 L 343.70,382.68 L 345.83,382.68 L 347.95,382.68 L 350.08,382.68 L 352.20,382.68 L 354.33,382.68 L 356.46,382.68 L 358.58,382.68 L 360.71,382.68 L 362.83,382.68 L 364.96,382.68 L 367.09,382.68 L 369.21,382.68 L 371.34,382.68 L 373.46,382.68 L 375.59,382.68 L 377.72,382.68 L 379.84,382.68 L 381.97,382.68 L 384.09,382.68 L 386.22,382.68 L 388.35,382.68 L 390.47,382.68 L 392.60,382.68 L 394.72,382.68 L 396.85,382.68 L 398.98,382.68 L 401.10,382.68 L 403.23,382.68 L 405.35,382.68 L 407.48,382.68 L 409.61,382.68 L 411.73,382.68 L 413.86,382.68 L 415.98,382.68 L 418.11,382.68 L 420.24,382.68 L 422.36,382.68 L 424.49,382.68 L 426.61,382.68 L 428.74,382.68 L 430.87,382.68 L 432.99,382.68 L 435.12,382.68 L 437.24,382.68 L 439.37,382.68 L 441.50,382.68 L 443.62,382.68 L 445.75,382.68 L 447.87,382.68 L 450.00,382.68 L 452.13,382.68 L 454.25,382.68 L 456.38,382.68 L 458.50,382.68 L 460.63,382.68 L 462.76,382.68 L 464.88,382.68 L 467.01,382.68 L 469.13,382.68 L 471.26,382.68 L 473.39,382.68 L 475.51,382.68 L 477.64,382.68 L 479.76,382.68 L 481.89,382.68"
     style="stroke:black;stroke-width:0.71;stroke-linecap:round;fill:none"
     id="path126" />
  <path
     d="M 226.77,382.68 L 226.77,380.02 L 226.77,377.36 L 226.77,374.70 L 226.77,372.05 L 226.77,369.39 L 226.77,366.73 L 226.77,364.07 L 226.77,361.42 L 226.77,358.76 L 226.77,356.10 L 226.77,353.44 L 226.77,350.79 L 226.77,348.13 L 226.77,345.47 L 226.77,342.81 L 226.77,340.16 L 226.77,337.50 L 226.77,334.84 L 226.77,332.19 L 226.77,329.53 L 226.77,326.87 L 226.77,324.21 L 226.77,321.56 L 226.77,318.90 L 226.77,316.24 L 226.77,313.58 L 226.77,310.93 L 226.77,308.27 L 226.77,305.61 L 226.77,302.95 L 226.77,300.30 L 226.77,297.64 L 226.77,294.98 L 226.77,292.32 L 226.77,289.67 L 226.77,287.01 L 226.77,284.35 L 226.77,281.69 L 226.77,279.04 L 226.77,276.38 L 226.77,273.72 L 226.77,271.06 L 226.77,268.41 L 226.77,265.75 L 226.77,263.09 L 226.77,260.43 L 226.77,257.78 L 226.77,255.12 L 226.77,252.46 L 226.77,249.80 L 226.77,247.15 L 226.77,244.49 L 226.77,241.83 L 226.77,239.17 L 226.77,236.52 L 226.77,233.86 L 226.77,231.20 L 226.77,228.54 L 226.77,225.89 L 226.77,223.23 L 226.77,220.57 L 226.77,217.91 L 226.77,215.26 L 226.77,212.60 L 226.77,209.94 L 226.77,207.28 L 226.77,204.63 L 226.77,201.97 L 226.77,199.31 L 226.77,196.65 L 226.77,194.00 L 226.77,191.34 L 226.77,188.68 L 226.77,186.02 L 226.77,183.37 L 226.77,180.71 L 226.77,178.05 L 226.77,175.39 L 226.77,172.74 L 226.77,170.08"
     style="stroke:black;stroke-width:0.71;stroke-linecap:round;fill:none;stroke-dasharray: 5.67 5.67"
     id="path128" />
<!-- end of drawing --></svg>
