<?xml version="1.0" encoding="UTF-8" standalone="no"?>
<svg
   xmlns:dc="http://purl.org/dc/elements/1.1/"
   xmlns:cc="http://creativecommons.org/ns#"
   xmlns:rdf="http://www.w3.org/1999/02/22-rdf-syntax-ns#"
   xmlns:svg="http://www.w3.org/2000/svg"
   xmlns="http://www.w3.org/2000/svg"
   xmlns:sodipodi="http://sodipodi.sourceforge.net/DTD/sodipodi-0.dtd"
   xmlns:inkscape="http://www.inkscape.org/namespaces/inkscape"
   width="566.93"
   height="566.93"
   version="1.0"
   id="svg2"
   inkscape:version="0.47 r22583"
   sodipodi:docname="lam_flat_plate-edited.svg">
  <metadata
     id="metadata272">
    <rdf:RDF>
      <cc:Work
         rdf:about="">
        <dc:format>image/svg+xml</dc:format>
        <dc:type
           rdf:resource="http://purl.org/dc/dcmitype/StillImage" />
        <dc:title>Schetz's Mach 4 laminar flow over a flat plate</dc:title>
      </cc:Work>
    </rdf:RDF>
  </metadata>
  <defs
     id="defs270">
    <marker
       inkscape:stockid="Arrow1Send"
       orient="auto"
       refY="0.0"
       refX="0.0"
       id="Arrow1Send"
       style="overflow:visible;">
      <path
         id="path4228"
         d="M 0.0,0.0 L 5.0,-5.0 L -12.5,0.0 L 5.0,5.0 L 0.0,0.0 z "
         style="fill-rule:evenodd;stroke:#000000;stroke-width:1.0pt;marker-start:none;"
         transform="scale(0.2) rotate(180) translate(6,0)" />
    </marker>
    <marker
       inkscape:stockid="Arrow1Mend"
       orient="auto"
       refY="0.0"
       refX="0.0"
       id="Arrow1Mend"
       style="overflow:visible;">
      <path
         id="path4222"
         d="M 0.0,0.0 L 5.0,-5.0 L -12.5,0.0 L 5.0,5.0 L 0.0,0.0 z "
         style="fill-rule:evenodd;stroke:#000000;stroke-width:1.0pt;marker-start:none;"
         transform="scale(0.4) rotate(180) translate(10,0)" />
    </marker>
    <inkscape:perspective
       sodipodi:type="inkscape:persp3d"
       inkscape:vp_x="0 : 283.465 : 1"
       inkscape:vp_y="0 : 1000 : 0"
       inkscape:vp_z="566.92999 : 283.465 : 1"
       inkscape:persp3d-origin="283.465 : 188.97666 : 1"
       id="perspective274" />
  </defs>
  <sodipodi:namedview
     pagecolor="#ffffff"
     bordercolor="#666666"
     borderopacity="1"
     objecttolerance="10"
     gridtolerance="10"
     guidetolerance="10"
     inkscape:pageopacity="0"
     inkscape:pageshadow="2"
     inkscape:window-width="1551"
     inkscape:window-height="924"
     id="namedview268"
     showgrid="false"
     inkscape:zoom="2.5822515"
     inkscape:cx="321.29276"
     inkscape:cy="226.23093"
     inkscape:window-x="0"
     inkscape:window-y="24"
     inkscape:window-maximized="0"
     inkscape:current-layer="svg2" />
  <title
     id="title4">Schetz's Mach 4 laminar flow over a flat plate</title>
  <desc
     id="desc6">SVG file written by e3prep.py</desc>
  <!-- drawing begins here -->
  <line
     x1="141.73"
     y1="442.20"
     x2="549.92"
     y2="442.20"
     style="stroke:black;stroke-width:1.42;stroke-linecap:round;fill:none"
     id="line8" />
  <text
     x="345.83"
     y="467.72"
     style="font-size:10;text-anchor:start;fill:black;stroke:none;font-weight:normal;font-family:sanserif"
     id="text10">x</text>
  <line
     x1="141.73"
     y1="442.20"
     x2="141.73"
     y2="436.54"
     style="stroke:black;stroke-width:1.42;stroke-linecap:round;fill:none"
     id="line12" />
  <text
     x="141.73"
     y="456.38"
     style="font-size:10;text-anchor:middle;fill:black;stroke:none;font-weight:normal;font-family:sanserif"
     id="text14">0</text>
  <line
     x1="209.76"
     y1="442.20"
     x2="209.76"
     y2="436.54"
     style="stroke:black;stroke-width:1.42;stroke-linecap:round;fill:none"
     id="line16" />
  <text
     x="209.76"
     y="456.38"
     style="font-size:10;text-anchor:middle;fill:black;stroke:none;font-weight:normal;font-family:sanserif"
     id="text18">0.2</text>
  <line
     x1="277.80"
     y1="442.20"
     x2="277.80"
     y2="436.54"
     style="stroke:black;stroke-width:1.42;stroke-linecap:round;fill:none"
     id="line20" />
  <text
     x="277.80"
     y="456.38"
     style="font-size:10;text-anchor:middle;fill:black;stroke:none;font-weight:normal;font-family:sanserif"
     id="text22">0.4</text>
  <line
     x1="345.83"
     y1="442.20"
     x2="345.83"
     y2="436.54"
     style="stroke:black;stroke-width:1.42;stroke-linecap:round;fill:none"
     id="line24" />
  <text
     x="345.83"
     y="456.38"
     style="font-size:10;text-anchor:middle;fill:black;stroke:none;font-weight:normal;font-family:sanserif"
     id="text26">0.6</text>
  <line
     x1="413.86"
     y1="442.20"
     x2="413.86"
     y2="436.54"
     style="stroke:black;stroke-width:1.42;stroke-linecap:round;fill:none"
     id="line28" />
  <text
     x="413.86"
     y="456.38"
     style="font-size:10;text-anchor:middle;fill:black;stroke:none;font-weight:normal;font-family:sanserif"
     id="text30">0.8</text>
  <line
     x1="481.89"
     y1="442.20"
     x2="481.89"
     y2="436.54"
     style="stroke:black;stroke-width:1.42;stroke-linecap:round;fill:none"
     id="line32" />
  <text
     x="481.89"
     y="456.38"
     style="font-size:10;text-anchor:middle;fill:black;stroke:none;font-weight:normal;font-family:sanserif"
     id="text34">1</text>
  <line
     x1="549.92"
     y1="442.20"
     x2="549.92"
     y2="436.54"
     style="stroke:black;stroke-width:1.42;stroke-linecap:round;fill:none"
     id="line36" />
  <text
     x="549.92"
     y="456.38"
     style="font-size:10;text-anchor:middle;fill:black;stroke:none;font-weight:normal;font-family:sanserif"
     id="text38">1.2</text>
  <line
     x1="128.13"
     y1="425.20"
     x2="133.80"
     y2="425.20"
     style="stroke:black;stroke-width:1.42;stroke-linecap:round;fill:none"
     id="line44" />
  <line
     x1="128.13"
     y1="357.17"
     x2="133.80"
     y2="357.17"
     style="stroke:black;stroke-width:1.42;stroke-linecap:round;fill:none"
     id="line48" />
  <line
     x1="128.13"
     y1="289.13"
     x2="133.80"
     y2="289.13"
     style="stroke:black;stroke-width:1.42;stroke-linecap:round;fill:none"
     id="line52" />
  <line
     x1="128.13"
     y1="221.10"
     x2="133.80"
     y2="221.10"
     style="stroke:black;stroke-width:1.42;stroke-linecap:round;fill:none"
     id="line56" />
  <line
     x1="128.13"
     y1="425.20001"
     x2="128.13"
     y2="221.10001"
     style="fill:none;stroke:#000000;stroke-width:1.41999996;stroke-linecap:round"
     id="line40" />
  <text
     x="105.45"
     y="323.14999"
     style="font-size:10px;font-weight:normal;text-anchor:end;fill:#000000;stroke:none;font-family:sanserif"
     id="text42">y</text>
  <text
     x="119.62"
     y="425.20001"
     style="font-size:10px;font-weight:normal;text-anchor:end;fill:#000000;stroke:none;font-family:sanserif"
     id="text46">0</text>
  <text
     x="119.62"
     y="357.17001"
     style="font-size:10px;font-weight:normal;text-anchor:end;fill:#000000;stroke:none;font-family:sanserif"
     id="text50">0.2</text>
  <text
     x="119.62"
     y="289.13"
     style="font-size:10px;font-weight:normal;text-anchor:end;fill:#000000;stroke:none;font-family:sanserif"
     id="text54">0.4</text>
  <text
     x="119.62"
     y="221.10001"
     style="font-size:10px;font-weight:normal;text-anchor:end;fill:#000000;stroke:none;font-family:sanserif"
     id="text58">0.6</text>
  <!-- There are 4 nodes
 -->
  <circle
     cx="515.91"
     cy="425.20"
     r="2.83"
     style="fill:black"
     id="circle60" />
  <text
     x="526.74542"
     y="422.55069"
     style="font-size:10px;font-weight:normal;text-anchor:end;fill:#000000;stroke:none;font-family:sanserif"
     id="text62">a</text>
  <circle
     cx="515.91"
     cy="275.53"
     r="2.83"
     style="fill:black"
     id="circle64" />
  <text
     x="527.20801"
     y="274.97754"
     style="font-size:10px;font-weight:normal;text-anchor:end;fill:#000000;stroke:none;font-family:sanserif"
     id="text66">b</text>
  <circle
     cx="141.73"
     cy="275.53"
     r="2.83"
     style="fill:black"
     id="circle68" />
  <text
     x="139.0274"
     y="271.58029"
     style="font-size:10px;font-weight:normal;text-anchor:end;fill:#000000;stroke:none;font-family:sanserif"
     id="text70">c</text>
  <circle
     cx="141.73"
     cy="312.94"
     r="2.83"
     style="fill:black"
     id="circle72" />
  <text
     x="137.6761"
     y="321.30212"
     style="font-size:10px;font-weight:normal;text-anchor:end;fill:#000000;stroke:none;font-family:sanserif"
     id="text74">d</text>
  <!-- There are 16 blocks
 -->
  <!-- Render block 0
 -->
  <text
     x="152.87915"
     y="345.84769"
     style="font-size:10px;font-weight:normal;text-anchor:middle;fill:#000000;stroke:none;font-family:sanserif"
     id="text76">sblk-0-0</text>
  <path
     d="M 141.73,295.91 L 142.04,295.95 L 142.36,295.98 L 142.68,296.02 L 143.01,296.06 L 143.34,296.10 L 143.67,296.13 L 144.02,296.17 L 144.36,296.21 L 144.72,296.25 L 145.08,296.30 L 145.44,296.34 L 145.81,296.38 L 146.19,296.43 L 146.57,296.47 L 146.96,296.52 L 147.35,296.57 L 147.75,296.61 L 148.16,296.66 L 148.58,296.71 L 149.00,296.76 L 149.42,296.82 L 149.86,296.87 L 150.30,296.92 L 150.75,296.98 L 151.20,297.03 L 151.66,297.09 L 152.13,297.15 L 152.61,297.21 L 153.10,297.27 L 153.59,297.33 L 154.09,297.39 L 154.59,297.45 L 155.11,297.52 L 155.63,297.58 L 156.17,297.65 L 156.71,297.72 L 157.25,297.79 L 157.81,297.86 L 158.38,297.93 L 158.95,298.00 L 159.53,298.08 L 160.13,298.15 L 160.73,298.23 L 161.34,298.31 L 161.96,298.39 L 162.59,298.47 L 163.23,298.55 L 163.87,298.63 L 164.53,298.72 L 165.20,298.80 L 165.88,298.89 L 166.57,298.98 L 167.27,299.07 L 167.98,299.16 L 168.70,299.25"
     style="stroke:black;stroke-width:0.71;stroke-linecap:round;fill:none;stroke-dasharray: 5.67 5.67"
     id="path78" />
  <path
     d="M 168.70,321.04 L 168.70,320.54 L 168.70,320.05 L 168.70,319.56 L 168.70,319.07 L 168.70,318.58 L 168.70,318.09 L 168.70,317.60 L 168.70,317.11 L 168.70,316.62 L 168.70,316.13 L 168.70,315.65 L 168.70,315.16 L 168.70,314.68 L 168.70,314.20 L 168.70,313.71 L 168.70,313.24 L 168.70,312.76 L 168.70,312.28 L 168.70,311.81 L 168.70,311.34 L 168.70,310.87 L 168.70,310.40 L 168.70,309.94 L 168.70,309.47 L 168.70,309.01 L 168.70,308.55 L 168.70,308.10 L 168.70,307.65 L 168.70,307.20 L 168.70,306.75 L 168.70,306.31 L 168.70,305.86 L 168.70,305.43 L 168.70,304.99 L 168.70,304.56 L 168.70,304.13 L 168.70,303.71 L 168.70,303.28 L 168.70,302.86 L 168.70,302.45 L 168.70,302.04 L 168.70,301.63 L 168.70,301.22 L 168.70,300.82 L 168.70,300.43 L 168.70,300.03 L 168.70,299.64 L 168.70,299.25"
     style="stroke:black;stroke-width:0.71;stroke-linecap:round;fill:none;stroke-dasharray: 5.67 5.67"
     id="path80" />
  <path
     d="M 141.73,312.94 L 142.04,313.04 L 142.36,313.13 L 142.68,313.23 L 143.01,313.33 L 143.34,313.43 L 143.67,313.53 L 144.02,313.63 L 144.36,313.73 L 144.72,313.84 L 145.08,313.95 L 145.44,314.06 L 145.81,314.17 L 146.19,314.28 L 146.57,314.40 L 146.96,314.51 L 147.35,314.63 L 147.75,314.75 L 148.16,314.87 L 148.58,315.00 L 149.00,315.12 L 149.42,315.25 L 149.86,315.38 L 150.30,315.51 L 150.75,315.65 L 151.20,315.79 L 151.66,315.92 L 152.13,316.07 L 152.61,316.21 L 153.10,316.35 L 153.59,316.50 L 154.09,316.65 L 154.59,316.80 L 155.11,316.96 L 155.63,317.12 L 156.17,317.27 L 156.71,317.44 L 157.25,317.60 L 157.81,317.77 L 158.38,317.94 L 158.95,318.11 L 159.53,318.29 L 160.13,318.46 L 160.73,318.64 L 161.34,318.83 L 161.96,319.01 L 162.59,319.20 L 163.23,319.39 L 163.87,319.59 L 164.53,319.79 L 165.20,319.99 L 165.88,320.19 L 166.57,320.40 L 167.27,320.61 L 167.98,320.82 L 168.70,321.04"
     style="stroke:black;stroke-width:0.71;stroke-linecap:round;fill:none"
     id="path84" />
  <path
     d="M 141.73,312.94 L 141.73,312.56 L 141.73,312.19 L 141.73,311.81 L 141.73,311.43 L 141.73,311.05 L 141.73,310.67 L 141.73,310.29 L 141.73,309.91 L 141.73,309.53 L 141.73,309.16 L 141.73,308.78 L 141.73,308.41 L 141.73,308.03 L 141.73,307.66 L 141.73,307.29 L 141.73,306.91 L 141.73,306.54 L 141.73,306.17 L 141.73,305.81 L 141.73,305.44 L 141.73,305.07 L 141.73,304.71 L 141.73,304.35 L 141.73,303.99 L 141.73,303.63 L 141.73,303.27 L 141.73,302.91 L 141.73,302.56 L 141.73,302.21 L 141.73,301.86 L 141.73,301.51 L 141.73,301.16 L 141.73,300.82 L 141.73,300.47 L 141.73,300.13 L 141.73,299.79 L 141.73,299.46 L 141.73,299.12 L 141.73,298.79 L 141.73,298.46 L 141.73,298.14 L 141.73,297.81 L 141.73,297.49 L 141.73,297.17 L 141.73,296.85 L 141.73,296.54 L 141.73,296.22 L 141.73,295.91"
     style="stroke:black;stroke-width:0.71;stroke-linecap:round;fill:none"
     id="path88" />
  <!-- Render block 1
 -->
  <text
     x="164.90752"
     y="336.22336"
     style="font-size:10px;font-weight:normal;text-align:center;line-height:125%;writing-mode:lr-tb;text-anchor:middle;fill:#000000;stroke:none;font-family:sanserif"
     id="text90"
     sodipodi:linespacing="125%">
    <tspan
       sodipodi:role="line"
       id="tspan3084"
       x="164.90752"
       y="336.22336">0-1</tspan>
  </text>
  <path
     d="M 141.73,284.27 L 142.04,284.28 L 142.36,284.29 L 142.68,284.29 L 143.01,284.30 L 143.34,284.31 L 143.67,284.32 L 144.02,284.33 L 144.36,284.34 L 144.72,284.35 L 145.08,284.36 L 145.44,284.37 L 145.81,284.38 L 146.19,284.39 L 146.57,284.40 L 146.96,284.42 L 147.35,284.43 L 147.75,284.44 L 148.16,284.45 L 148.58,284.47 L 149.00,284.48 L 149.42,284.49 L 149.86,284.51 L 150.30,284.52 L 150.75,284.54 L 151.20,284.55 L 151.66,284.57 L 152.13,284.58 L 152.61,284.60 L 153.10,284.62 L 153.59,284.64 L 154.09,284.65 L 154.59,284.67 L 155.11,284.69 L 155.63,284.71 L 156.17,284.73 L 156.71,284.75 L 157.25,284.77 L 157.81,284.79 L 158.38,284.81 L 158.95,284.83 L 159.53,284.85 L 160.13,284.88 L 160.73,284.90 L 161.34,284.92 L 161.96,284.95 L 162.59,284.97 L 163.23,285.00 L 163.87,285.02 L 164.53,285.05 L 165.20,285.07 L 165.88,285.10 L 166.57,285.13 L 167.27,285.15 L 167.98,285.18 L 168.70,285.21"
     style="stroke:black;stroke-width:0.71;stroke-linecap:round;fill:none;stroke-dasharray: 5.67 5.67"
     id="path92" />
  <path
     d="M 168.70,299.25 L 168.70,298.87 L 168.70,298.49 L 168.70,298.12 L 168.70,297.75 L 168.70,297.38 L 168.70,297.02 L 168.70,296.66 L 168.70,296.30 L 168.70,295.95 L 168.70,295.60 L 168.70,295.26 L 168.70,294.92 L 168.70,294.58 L 168.70,294.25 L 168.70,293.92 L 168.70,293.60 L 168.70,293.28 L 168.70,292.96 L 168.70,292.65 L 168.70,292.34 L 168.70,292.03 L 168.70,291.73 L 168.70,291.44 L 168.70,291.14 L 168.70,290.85 L 168.70,290.57 L 168.70,290.29 L 168.70,290.01 L 168.70,289.73 L 168.70,289.46 L 168.70,289.20 L 168.70,288.94 L 168.70,288.68 L 168.70,288.42 L 168.70,288.17 L 168.70,287.92 L 168.70,287.68 L 168.70,287.43 L 168.70,287.20 L 168.70,286.96 L 168.70,286.73 L 168.70,286.50 L 168.70,286.28 L 168.70,286.06 L 168.70,285.84 L 168.70,285.63 L 168.70,285.42 L 168.70,285.21"
     style="stroke:black;stroke-width:0.71;stroke-linecap:round;fill:none;stroke-dasharray: 5.67 5.67"
     id="path94" />
  <path
     d="M 141.73,295.91 L 142.04,295.95 L 142.36,295.98 L 142.68,296.02 L 143.01,296.06 L 143.34,296.10 L 143.67,296.13 L 144.02,296.17 L 144.36,296.21 L 144.72,296.25 L 145.08,296.30 L 145.44,296.34 L 145.81,296.38 L 146.19,296.43 L 146.57,296.47 L 146.96,296.52 L 147.35,296.57 L 147.75,296.61 L 148.16,296.66 L 148.58,296.71 L 149.00,296.76 L 149.42,296.82 L 149.86,296.87 L 150.30,296.92 L 150.75,296.98 L 151.20,297.03 L 151.66,297.09 L 152.13,297.15 L 152.61,297.21 L 153.10,297.27 L 153.59,297.33 L 154.09,297.39 L 154.59,297.45 L 155.11,297.52 L 155.63,297.58 L 156.17,297.65 L 156.71,297.72 L 157.25,297.79 L 157.81,297.86 L 158.38,297.93 L 158.95,298.00 L 159.53,298.08 L 160.13,298.15 L 160.73,298.23 L 161.34,298.31 L 161.96,298.39 L 162.59,298.47 L 163.23,298.55 L 163.87,298.63 L 164.53,298.72 L 165.20,298.80 L 165.88,298.89 L 166.57,298.98 L 167.27,299.07 L 167.98,299.16 L 168.70,299.25"
     style="stroke:black;stroke-width:0.71;stroke-linecap:round;fill:none;stroke-dasharray: 5.67 5.67"
     id="path96" />
  <text
     x="-291.81152"
     y="93.134277"
     transform="matrix(0,-1,1,0,0,0)"
     style="font-size:10px;font-weight:normal;text-anchor:middle;fill:#000000;stroke:none;font-family:sanserif"
     id="text98">SUP_IN</text>
  <path
     d="M 141.73,295.91 L 141.73,295.61 L 141.73,295.30 L 141.73,295.00 L 141.73,294.70 L 141.73,294.40 L 141.73,294.11 L 141.73,293.82 L 141.73,293.53 L 141.73,293.24 L 141.73,292.96 L 141.73,292.68 L 141.73,292.40 L 141.73,292.13 L 141.73,291.86 L 141.73,291.59 L 141.73,291.32 L 141.73,291.06 L 141.73,290.80 L 141.73,290.54 L 141.73,290.28 L 141.73,290.03 L 141.73,289.78 L 141.73,289.54 L 141.73,289.29 L 141.73,289.05 L 141.73,288.81 L 141.73,288.58 L 141.73,288.35 L 141.73,288.12 L 141.73,287.89 L 141.73,287.67 L 141.73,287.44 L 141.73,287.23 L 141.73,287.01 L 141.73,286.80 L 141.73,286.59 L 141.73,286.38 L 141.73,286.17 L 141.73,285.97 L 141.73,285.77 L 141.73,285.58 L 141.73,285.38 L 141.73,285.19 L 141.73,285.00 L 141.73,284.81 L 141.73,284.63 L 141.73,284.45 L 141.73,284.27"
     style="stroke:black;stroke-width:0.71;stroke-linecap:round;fill:none"
     id="path100" />
  <!-- Render block 2
 -->
  <text
     x="166.59705"
     y="261.63959"
     style="font-size:10px;font-weight:normal;text-align:center;line-height:125%;writing-mode:lr-tb;text-anchor:middle;fill:#000000;stroke:none;font-family:sanserif"
     id="text102"
     sodipodi:linespacing="125%">
    <tspan
       sodipodi:role="line"
       id="tspan3082"
       x="166.59705"
       y="261.63959">0-2</tspan>
  </text>
  <path
     d="M 141.73,278.22 L 142.04,278.23 L 142.36,278.23 L 142.68,278.23 L 143.01,278.23 L 143.34,278.23 L 143.67,278.23 L 144.02,278.23 L 144.36,278.23 L 144.72,278.23 L 145.08,278.23 L 145.44,278.24 L 145.81,278.24 L 146.19,278.24 L 146.57,278.24 L 146.96,278.24 L 147.35,278.25 L 147.75,278.25 L 148.16,278.25 L 148.58,278.25 L 149.00,278.25 L 149.42,278.26 L 149.86,278.26 L 150.30,278.26 L 150.75,278.26 L 151.20,278.27 L 151.66,278.27 L 152.13,278.27 L 152.61,278.28 L 153.10,278.28 L 153.59,278.28 L 154.09,278.29 L 154.59,278.29 L 155.11,278.29 L 155.63,278.30 L 156.17,278.30 L 156.71,278.31 L 157.25,278.31 L 157.81,278.31 L 158.38,278.32 L 158.95,278.32 L 159.53,278.33 L 160.13,278.33 L 160.73,278.34 L 161.34,278.34 L 161.96,278.35 L 162.59,278.35 L 163.23,278.36 L 163.87,278.36 L 164.53,278.37 L 165.20,278.37 L 165.88,278.38 L 166.57,278.39 L 167.27,278.39 L 167.98,278.40 L 168.70,278.40"
     style="stroke:black;stroke-width:0.71;stroke-linecap:round;fill:none;stroke-dasharray: 5.67 5.67"
     id="path104" />
  <path
     d="M 168.70,285.21 L 168.70,285.01 L 168.70,284.81 L 168.70,284.61 L 168.70,284.41 L 168.70,284.22 L 168.70,284.03 L 168.70,283.85 L 168.70,283.67 L 168.70,283.49 L 168.70,283.31 L 168.70,283.14 L 168.70,282.96 L 168.70,282.80 L 168.70,282.63 L 168.70,282.47 L 168.70,282.31 L 168.70,282.15 L 168.70,282.00 L 168.70,281.84 L 168.70,281.69 L 168.70,281.55 L 168.70,281.40 L 168.70,281.26 L 168.70,281.12 L 168.70,280.98 L 168.70,280.85 L 168.70,280.71 L 168.70,280.58 L 168.70,280.46 L 168.70,280.33 L 168.70,280.21 L 168.70,280.08 L 168.70,279.96 L 168.70,279.85 L 168.70,279.73 L 168.70,279.62 L 168.70,279.51 L 168.70,279.40 L 168.70,279.29 L 168.70,279.18 L 168.70,279.08 L 168.70,278.98 L 168.70,278.88 L 168.70,278.78 L 168.70,278.68 L 168.70,278.59 L 168.70,278.50 L 168.70,278.40"
     style="stroke:black;stroke-width:0.71;stroke-linecap:round;fill:none;stroke-dasharray: 5.67 5.67"
     id="path106" />
  <path
     d="M 141.73,284.27 L 142.04,284.28 L 142.36,284.29 L 142.68,284.29 L 143.01,284.30 L 143.34,284.31 L 143.67,284.32 L 144.02,284.33 L 144.36,284.34 L 144.72,284.35 L 145.08,284.36 L 145.44,284.37 L 145.81,284.38 L 146.19,284.39 L 146.57,284.40 L 146.96,284.42 L 147.35,284.43 L 147.75,284.44 L 148.16,284.45 L 148.58,284.47 L 149.00,284.48 L 149.42,284.49 L 149.86,284.51 L 150.30,284.52 L 150.75,284.54 L 151.20,284.55 L 151.66,284.57 L 152.13,284.58 L 152.61,284.60 L 153.10,284.62 L 153.59,284.64 L 154.09,284.65 L 154.59,284.67 L 155.11,284.69 L 155.63,284.71 L 156.17,284.73 L 156.71,284.75 L 157.25,284.77 L 157.81,284.79 L 158.38,284.81 L 158.95,284.83 L 159.53,284.85 L 160.13,284.88 L 160.73,284.90 L 161.34,284.92 L 161.96,284.95 L 162.59,284.97 L 163.23,285.00 L 163.87,285.02 L 164.53,285.05 L 165.20,285.07 L 165.88,285.10 L 166.57,285.13 L 167.27,285.15 L 167.98,285.18 L 168.70,285.21"
     style="stroke:black;stroke-width:0.71;stroke-linecap:round;fill:none;stroke-dasharray: 5.67 5.67"
     id="path108" />
  <path
     d="M 141.73,284.27 L 141.73,284.09 L 141.73,283.92 L 141.73,283.75 L 141.73,283.58 L 141.73,283.41 L 141.73,283.25 L 141.73,283.09 L 141.73,282.93 L 141.73,282.77 L 141.73,282.62 L 141.73,282.46 L 141.73,282.31 L 141.73,282.17 L 141.73,282.02 L 141.73,281.88 L 141.73,281.74 L 141.73,281.60 L 141.73,281.46 L 141.73,281.33 L 141.73,281.19 L 141.73,281.06 L 141.73,280.93 L 141.73,280.81 L 141.73,280.68 L 141.73,280.56 L 141.73,280.44 L 141.73,280.32 L 141.73,280.20 L 141.73,280.09 L 141.73,279.97 L 141.73,279.86 L 141.73,279.75 L 141.73,279.64 L 141.73,279.54 L 141.73,279.43 L 141.73,279.33 L 141.73,279.23 L 141.73,279.13 L 141.73,279.03 L 141.73,278.94 L 141.73,278.84 L 141.73,278.75 L 141.73,278.66 L 141.73,278.57 L 141.73,278.48 L 141.73,278.39 L 141.73,278.31 L 141.73,278.22"
     style="stroke:black;stroke-width:0.71;stroke-linecap:round;fill:none"
     id="path112" />
  <!-- Render block 3
 -->
  <text
     x="166.21936"
     y="248.10426"
     style="font-size:10px;font-weight:normal;text-align:center;line-height:125%;writing-mode:lr-tb;text-anchor:middle;fill:#000000;stroke:none;font-family:sanserif"
     id="text114"
     sodipodi:linespacing="125%">
    <tspan
       sodipodi:role="line"
       id="tspan3080"
       x="166.21936"
       y="248.10426">0-3</tspan>
  </text>
  <path
     d="M 141.73,275.53 L 142.04,275.53 L 142.36,275.53 L 142.68,275.53 L 143.01,275.53 L 143.34,275.53 L 143.67,275.53 L 144.02,275.53 L 144.36,275.53 L 144.72,275.53 L 145.08,275.53 L 145.44,275.53 L 145.81,275.53 L 146.19,275.53 L 146.57,275.53 L 146.96,275.53 L 147.35,275.53 L 147.75,275.53 L 148.16,275.53 L 148.58,275.53 L 149.00,275.53 L 149.42,275.53 L 149.86,275.53 L 150.30,275.53 L 150.75,275.53 L 151.20,275.53 L 151.66,275.53 L 152.13,275.53 L 152.61,275.53 L 153.10,275.53 L 153.59,275.53 L 154.09,275.53 L 154.59,275.53 L 155.11,275.53 L 155.63,275.53 L 156.17,275.53 L 156.71,275.53 L 157.25,275.53 L 157.81,275.53 L 158.38,275.53 L 158.95,275.53 L 159.53,275.53 L 160.13,275.53 L 160.73,275.53 L 161.34,275.53 L 161.96,275.53 L 162.59,275.53 L 163.23,275.53 L 163.87,275.53 L 164.53,275.53 L 165.20,275.53 L 165.88,275.53 L 166.57,275.53 L 167.27,275.53 L 167.98,275.53 L 168.70,275.53"
     style="stroke:black;stroke-width:0.71;stroke-linecap:round;fill:none"
     id="path118" />
  <path
     d="M 168.70,278.40 L 168.70,278.31 L 168.70,278.23 L 168.70,278.14 L 168.70,278.05 L 168.70,277.97 L 168.70,277.89 L 168.70,277.81 L 168.70,277.73 L 168.70,277.65 L 168.70,277.58 L 168.70,277.50 L 168.70,277.43 L 168.70,277.36 L 168.70,277.29 L 168.70,277.22 L 168.70,277.15 L 168.70,277.08 L 168.70,277.02 L 168.70,276.95 L 168.70,276.89 L 168.70,276.83 L 168.70,276.77 L 168.70,276.71 L 168.70,276.65 L 168.70,276.59 L 168.70,276.53 L 168.70,276.48 L 168.70,276.42 L 168.70,276.37 L 168.70,276.32 L 168.70,276.27 L 168.70,276.22 L 168.70,276.17 L 168.70,276.12 L 168.70,276.07 L 168.70,276.02 L 168.70,275.98 L 168.70,275.93 L 168.70,275.89 L 168.70,275.85 L 168.70,275.80 L 168.70,275.76 L 168.70,275.72 L 168.70,275.68 L 168.70,275.64 L 168.70,275.60 L 168.70,275.56 L 168.70,275.53"
     style="stroke:black;stroke-width:0.71;stroke-linecap:round;fill:none;stroke-dasharray: 5.67 5.67"
     id="path120" />
  <path
     d="M 141.73,278.22 L 142.04,278.23 L 142.36,278.23 L 142.68,278.23 L 143.01,278.23 L 143.34,278.23 L 143.67,278.23 L 144.02,278.23 L 144.36,278.23 L 144.72,278.23 L 145.08,278.23 L 145.44,278.24 L 145.81,278.24 L 146.19,278.24 L 146.57,278.24 L 146.96,278.24 L 147.35,278.25 L 147.75,278.25 L 148.16,278.25 L 148.58,278.25 L 149.00,278.25 L 149.42,278.26 L 149.86,278.26 L 150.30,278.26 L 150.75,278.26 L 151.20,278.27 L 151.66,278.27 L 152.13,278.27 L 152.61,278.28 L 153.10,278.28 L 153.59,278.28 L 154.09,278.29 L 154.59,278.29 L 155.11,278.29 L 155.63,278.30 L 156.17,278.30 L 156.71,278.31 L 157.25,278.31 L 157.81,278.31 L 158.38,278.32 L 158.95,278.32 L 159.53,278.33 L 160.13,278.33 L 160.73,278.34 L 161.34,278.34 L 161.96,278.35 L 162.59,278.35 L 163.23,278.36 L 163.87,278.36 L 164.53,278.37 L 165.20,278.37 L 165.88,278.38 L 166.57,278.39 L 167.27,278.39 L 167.98,278.40 L 168.70,278.40"
     style="stroke:black;stroke-width:0.71;stroke-linecap:round;fill:none;stroke-dasharray: 5.67 5.67"
     id="path122" />
  <path
     d="M 141.73,278.22 L 141.73,278.14 L 141.73,278.06 L 141.73,277.98 L 141.73,277.90 L 141.73,277.83 L 141.73,277.75 L 141.73,277.68 L 141.73,277.60 L 141.73,277.53 L 141.73,277.46 L 141.73,277.39 L 141.73,277.32 L 141.73,277.26 L 141.73,277.19 L 141.73,277.12 L 141.73,277.06 L 141.73,277.00 L 141.73,276.94 L 141.73,276.88 L 141.73,276.82 L 141.73,276.76 L 141.73,276.70 L 141.73,276.65 L 141.73,276.59 L 141.73,276.54 L 141.73,276.48 L 141.73,276.43 L 141.73,276.38 L 141.73,276.33 L 141.73,276.28 L 141.73,276.23 L 141.73,276.18 L 141.73,276.14 L 141.73,276.09 L 141.73,276.05 L 141.73,276.00 L 141.73,275.96 L 141.73,275.92 L 141.73,275.87 L 141.73,275.83 L 141.73,275.79 L 141.73,275.75 L 141.73,275.71 L 141.73,275.67 L 141.73,275.64 L 141.73,275.60 L 141.73,275.56 L 141.73,275.53"
     style="stroke:black;stroke-width:0.71;stroke-linecap:round;fill:none"
     id="path126" />
  <!-- Render block 4
 -->
  <text
     x="198.68695"
     y="317.99146"
     style="font-size:10px;font-weight:normal;text-anchor:middle;fill:#000000;stroke:none;font-family:sanserif"
     id="text128">sblk-1-0</text>
  <path
     d="M 168.70,299.25 L 169.43,299.35 L 170.17,299.45 L 170.93,299.54 L 171.69,299.64 L 172.47,299.75 L 173.26,299.85 L 174.06,299.95 L 174.87,300.06 L 175.69,300.17 L 176.53,300.28 L 177.38,300.39 L 178.24,300.50 L 179.11,300.61 L 179.99,300.73 L 180.89,300.85 L 181.80,300.97 L 182.73,301.09 L 183.67,301.21 L 184.62,301.34 L 185.58,301.46 L 186.56,301.59 L 187.55,301.72 L 188.56,301.86 L 189.58,301.99 L 190.62,302.13 L 191.67,302.27 L 192.73,302.41 L 193.81,302.55 L 194.91,302.69 L 196.02,302.84 L 197.14,302.99 L 198.28,303.14 L 199.44,303.29 L 200.61,303.45 L 201.80,303.61 L 203.01,303.76 L 204.23,303.93 L 205.46,304.09 L 206.72,304.26 L 207.99,304.42 L 209.28,304.59 L 210.58,304.77 L 211.90,304.94 L 213.24,305.12 L 214.60,305.30 L 215.97,305.48 L 217.37,305.66 L 218.78,305.85 L 220.20,306.04 L 221.65,306.23 L 223.12,306.42 L 224.60,306.62 L 226.10,306.82 L 227.62,307.02 L 229.16,307.22"
     style="stroke:black;stroke-width:0.71;stroke-linecap:round;fill:none;stroke-dasharray: 5.67 5.67"
     id="path130" />
  <path
     d="M 229.16,339.17 L 229.16,338.44 L 229.16,337.71 L 229.16,336.98 L 229.16,336.25 L 229.16,335.53 L 229.16,334.80 L 229.16,334.07 L 229.16,333.35 L 229.16,332.62 L 229.16,331.90 L 229.16,331.18 L 229.16,330.46 L 229.16,329.75 L 229.16,329.03 L 229.16,328.32 L 229.16,327.62 L 229.16,326.91 L 229.16,326.21 L 229.16,325.51 L 229.16,324.81 L 229.16,324.12 L 229.16,323.43 L 229.16,322.75 L 229.16,322.07 L 229.16,321.39 L 229.16,320.72 L 229.16,320.05 L 229.16,319.39 L 229.16,318.73 L 229.16,318.08 L 229.16,317.43 L 229.16,316.78 L 229.16,316.14 L 229.16,315.51 L 229.16,314.88 L 229.16,314.26 L 229.16,313.64 L 229.16,313.03 L 229.16,312.42 L 229.16,311.82 L 229.16,311.22 L 229.16,310.63 L 229.16,310.05 L 229.16,309.47 L 229.16,308.90 L 229.16,308.33 L 229.16,307.77 L 229.16,307.22"
     style="stroke:black;stroke-width:0.71;stroke-linecap:round;fill:none;stroke-dasharray: 5.67 5.67"
     id="path132" />
  <path
     d="M 168.70,321.04 L 169.43,321.25 L 170.17,321.48 L 170.93,321.70 L 171.69,321.93 L 172.47,322.17 L 173.26,322.40 L 174.06,322.64 L 174.87,322.89 L 175.69,323.13 L 176.53,323.38 L 177.38,323.64 L 178.24,323.90 L 179.11,324.16 L 179.99,324.42 L 180.89,324.69 L 181.80,324.97 L 182.73,325.24 L 183.67,325.53 L 184.62,325.81 L 185.58,326.10 L 186.56,326.39 L 187.55,326.69 L 188.56,326.99 L 189.58,327.30 L 190.62,327.61 L 191.67,327.93 L 192.73,328.25 L 193.81,328.57 L 194.91,328.90 L 196.02,329.23 L 197.14,329.57 L 198.28,329.91 L 199.44,330.26 L 200.61,330.61 L 201.80,330.97 L 203.01,331.33 L 204.23,331.69 L 205.46,332.06 L 206.72,332.44 L 207.99,332.82 L 209.28,333.21 L 210.58,333.60 L 211.90,334.00 L 213.24,334.40 L 214.60,334.80 L 215.97,335.22 L 217.37,335.63 L 218.78,336.06 L 220.20,336.49 L 221.65,336.92 L 223.12,337.36 L 224.60,337.81 L 226.10,338.26 L 227.62,338.71 L 229.16,339.17"
     style="stroke:black;stroke-width:0.71;stroke-linecap:round;fill:none"
     id="path136" />
  <path
     d="M 168.70,321.04 L 168.70,320.54 L 168.70,320.05 L 168.70,319.56 L 168.70,319.07 L 168.70,318.58 L 168.70,318.09 L 168.70,317.60 L 168.70,317.11 L 168.70,316.62 L 168.70,316.13 L 168.70,315.65 L 168.70,315.16 L 168.70,314.68 L 168.70,314.20 L 168.70,313.71 L 168.70,313.24 L 168.70,312.76 L 168.70,312.28 L 168.70,311.81 L 168.70,311.34 L 168.70,310.87 L 168.70,310.40 L 168.70,309.94 L 168.70,309.47 L 168.70,309.01 L 168.70,308.55 L 168.70,308.10 L 168.70,307.65 L 168.70,307.20 L 168.70,306.75 L 168.70,306.31 L 168.70,305.86 L 168.70,305.43 L 168.70,304.99 L 168.70,304.56 L 168.70,304.13 L 168.70,303.71 L 168.70,303.28 L 168.70,302.86 L 168.70,302.45 L 168.70,302.04 L 168.70,301.63 L 168.70,301.22 L 168.70,300.82 L 168.70,300.43 L 168.70,300.03 L 168.70,299.64 L 168.70,299.25"
     style="stroke:black;stroke-width:0.71;stroke-linecap:round;fill:none;stroke-dasharray: 5.67 5.67"
     id="path138" />
  <!-- Render block 5
 -->
  <text
     x="211.22374"
     y="299.04395"
     style="font-size:10px;font-weight:normal;text-align:center;line-height:125%;writing-mode:lr-tb;text-anchor:middle;fill:#000000;stroke:none;font-family:sanserif"
     id="text140"
     sodipodi:linespacing="125%">
    <tspan
       sodipodi:role="line"
       id="tspan3086"
       x="211.22374"
       y="299.04395">1-1</tspan>
  </text>
  <path
     d="M 168.70,285.21 L 169.43,285.24 L 170.17,285.27 L 170.93,285.30 L 171.69,285.33 L 172.47,285.36 L 173.26,285.40 L 174.06,285.43 L 174.87,285.46 L 175.69,285.50 L 176.53,285.53 L 177.38,285.56 L 178.24,285.60 L 179.11,285.64 L 179.99,285.67 L 180.89,285.71 L 181.80,285.75 L 182.73,285.79 L 183.67,285.83 L 184.62,285.87 L 185.58,285.91 L 186.56,285.95 L 187.55,285.99 L 188.56,286.03 L 189.58,286.07 L 190.62,286.12 L 191.67,286.16 L 192.73,286.21 L 193.81,286.25 L 194.91,286.30 L 196.02,286.34 L 197.14,286.39 L 198.28,286.44 L 199.44,286.49 L 200.61,286.54 L 201.80,286.59 L 203.01,286.64 L 204.23,286.69 L 205.46,286.74 L 206.72,286.80 L 207.99,286.85 L 209.28,286.91 L 210.58,286.96 L 211.90,287.02 L 213.24,287.07 L 214.60,287.13 L 215.97,287.19 L 217.37,287.25 L 218.78,287.31 L 220.20,287.37 L 221.65,287.43 L 223.12,287.49 L 224.60,287.55 L 226.10,287.62 L 227.62,287.68 L 229.16,287.74"
     style="stroke:black;stroke-width:0.71;stroke-linecap:round;fill:none;stroke-dasharray: 5.67 5.67"
     id="path142" />
  <path
     d="M 229.16,307.22 L 229.16,306.67 L 229.16,306.13 L 229.16,305.60 L 229.16,305.07 L 229.16,304.54 L 229.16,304.03 L 229.16,303.52 L 229.16,303.01 L 229.16,302.51 L 229.16,302.02 L 229.16,301.54 L 229.16,301.06 L 229.16,300.59 L 229.16,300.12 L 229.16,299.66 L 229.16,299.20 L 229.16,298.76 L 229.16,298.31 L 229.16,297.88 L 229.16,297.45 L 229.16,297.03 L 229.16,296.61 L 229.16,296.20 L 229.16,295.79 L 229.16,295.39 L 229.16,295.00 L 229.16,294.61 L 229.16,294.23 L 229.16,293.85 L 229.16,293.48 L 229.16,293.12 L 229.16,292.76 L 229.16,292.41 L 229.16,292.06 L 229.16,291.72 L 229.16,291.38 L 229.16,291.05 L 229.16,290.72 L 229.16,290.40 L 229.16,290.09 L 229.16,289.78 L 229.16,289.47 L 229.16,289.17 L 229.16,288.88 L 229.16,288.59 L 229.16,288.30 L 229.16,288.02 L 229.16,287.74"
     style="stroke:black;stroke-width:0.71;stroke-linecap:round;fill:none;stroke-dasharray: 5.67 5.67"
     id="path144" />
  <path
     d="M 168.70,299.25 L 169.43,299.35 L 170.17,299.45 L 170.93,299.54 L 171.69,299.64 L 172.47,299.75 L 173.26,299.85 L 174.06,299.95 L 174.87,300.06 L 175.69,300.17 L 176.53,300.28 L 177.38,300.39 L 178.24,300.50 L 179.11,300.61 L 179.99,300.73 L 180.89,300.85 L 181.80,300.97 L 182.73,301.09 L 183.67,301.21 L 184.62,301.34 L 185.58,301.46 L 186.56,301.59 L 187.55,301.72 L 188.56,301.86 L 189.58,301.99 L 190.62,302.13 L 191.67,302.27 L 192.73,302.41 L 193.81,302.55 L 194.91,302.69 L 196.02,302.84 L 197.14,302.99 L 198.28,303.14 L 199.44,303.29 L 200.61,303.45 L 201.80,303.61 L 203.01,303.76 L 204.23,303.93 L 205.46,304.09 L 206.72,304.26 L 207.99,304.42 L 209.28,304.59 L 210.58,304.77 L 211.90,304.94 L 213.24,305.12 L 214.60,305.30 L 215.97,305.48 L 217.37,305.66 L 218.78,305.85 L 220.20,306.04 L 221.65,306.23 L 223.12,306.42 L 224.60,306.62 L 226.10,306.82 L 227.62,307.02 L 229.16,307.22"
     style="stroke:black;stroke-width:0.71;stroke-linecap:round;fill:none;stroke-dasharray: 5.67 5.67"
     id="path146" />
  <path
     d="M 168.70,299.25 L 168.70,298.87 L 168.70,298.49 L 168.70,298.12 L 168.70,297.75 L 168.70,297.38 L 168.70,297.02 L 168.70,296.66 L 168.70,296.30 L 168.70,295.95 L 168.70,295.60 L 168.70,295.26 L 168.70,294.92 L 168.70,294.58 L 168.70,294.25 L 168.70,293.92 L 168.70,293.60 L 168.70,293.28 L 168.70,292.96 L 168.70,292.65 L 168.70,292.34 L 168.70,292.03 L 168.70,291.73 L 168.70,291.44 L 168.70,291.14 L 168.70,290.85 L 168.70,290.57 L 168.70,290.29 L 168.70,290.01 L 168.70,289.73 L 168.70,289.46 L 168.70,289.20 L 168.70,288.94 L 168.70,288.68 L 168.70,288.42 L 168.70,288.17 L 168.70,287.92 L 168.70,287.68 L 168.70,287.43 L 168.70,287.20 L 168.70,286.96 L 168.70,286.73 L 168.70,286.50 L 168.70,286.28 L 168.70,286.06 L 168.70,285.84 L 168.70,285.63 L 168.70,285.42 L 168.70,285.21"
     style="stroke:black;stroke-width:0.71;stroke-linecap:round;fill:none;stroke-dasharray: 5.67 5.67"
     id="path148" />
  <!-- Render block 6
 -->
  <text
     x="222.43591"
     y="261.70511"
     style="font-size:10px;font-weight:normal;text-anchor:middle;fill:#000000;stroke:none;font-family:sanserif;text-align:center;writing-mode:lr;line-height:125%"
     id="text150"
     sodipodi:linespacing="125%">
    <tspan
       sodipodi:role="line"
       id="tspan3088">1-2</tspan>
  </text>
  <path
     d="M 168.70,278.40 L 169.43,278.41 L 170.17,278.42 L 170.93,278.42 L 171.69,278.43 L 172.47,278.44 L 173.26,278.45 L 174.06,278.45 L 174.87,278.46 L 175.69,278.47 L 176.53,278.48 L 177.38,278.48 L 178.24,278.49 L 179.11,278.50 L 179.99,278.51 L 180.89,278.52 L 181.80,278.53 L 182.73,278.53 L 183.67,278.54 L 184.62,278.55 L 185.58,278.56 L 186.56,278.57 L 187.55,278.58 L 188.56,278.59 L 189.58,278.60 L 190.62,278.61 L 191.67,278.62 L 192.73,278.63 L 193.81,278.64 L 194.91,278.65 L 196.02,278.66 L 197.14,278.67 L 198.28,278.68 L 199.44,278.70 L 200.61,278.71 L 201.80,278.72 L 203.01,278.73 L 204.23,278.74 L 205.46,278.76 L 206.72,278.77 L 207.99,278.78 L 209.28,278.79 L 210.58,278.81 L 211.90,278.82 L 213.24,278.83 L 214.60,278.84 L 215.97,278.86 L 217.37,278.87 L 218.78,278.89 L 220.20,278.90 L 221.65,278.91 L 223.12,278.93 L 224.60,278.94 L 226.10,278.96 L 227.62,278.97 L 229.16,278.99"
     style="stroke:black;stroke-width:0.71;stroke-linecap:round;fill:none;stroke-dasharray: 5.67 5.67"
     id="path152" />
  <path
     d="M 229.16,287.74 L 229.16,287.47 L 229.16,287.21 L 229.16,286.94 L 229.16,286.69 L 229.16,286.43 L 229.16,286.19 L 229.16,285.94 L 229.16,285.70 L 229.16,285.47 L 229.16,285.24 L 229.16,285.01 L 229.16,284.79 L 229.16,284.57 L 229.16,284.35 L 229.16,284.14 L 229.16,283.93 L 229.16,283.73 L 229.16,283.53 L 229.16,283.33 L 229.16,283.14 L 229.16,282.95 L 229.16,282.76 L 229.16,282.58 L 229.16,282.40 L 229.16,282.23 L 229.16,282.05 L 229.16,281.89 L 229.16,281.72 L 229.16,281.56 L 229.16,281.40 L 229.16,281.24 L 229.16,281.09 L 229.16,280.94 L 229.16,280.79 L 229.16,280.64 L 229.16,280.50 L 229.16,280.36 L 229.16,280.22 L 229.16,280.09 L 229.16,279.96 L 229.16,279.83 L 229.16,279.70 L 229.16,279.57 L 229.16,279.45 L 229.16,279.33 L 229.16,279.22 L 229.16,279.10 L 229.16,278.99"
     style="stroke:black;stroke-width:0.71;stroke-linecap:round;fill:none;stroke-dasharray: 5.67 5.67"
     id="path154" />
  <path
     d="M 168.70,285.21 L 169.43,285.24 L 170.17,285.27 L 170.93,285.30 L 171.69,285.33 L 172.47,285.36 L 173.26,285.40 L 174.06,285.43 L 174.87,285.46 L 175.69,285.50 L 176.53,285.53 L 177.38,285.56 L 178.24,285.60 L 179.11,285.64 L 179.99,285.67 L 180.89,285.71 L 181.80,285.75 L 182.73,285.79 L 183.67,285.83 L 184.62,285.87 L 185.58,285.91 L 186.56,285.95 L 187.55,285.99 L 188.56,286.03 L 189.58,286.07 L 190.62,286.12 L 191.67,286.16 L 192.73,286.21 L 193.81,286.25 L 194.91,286.30 L 196.02,286.34 L 197.14,286.39 L 198.28,286.44 L 199.44,286.49 L 200.61,286.54 L 201.80,286.59 L 203.01,286.64 L 204.23,286.69 L 205.46,286.74 L 206.72,286.80 L 207.99,286.85 L 209.28,286.91 L 210.58,286.96 L 211.90,287.02 L 213.24,287.07 L 214.60,287.13 L 215.97,287.19 L 217.37,287.25 L 218.78,287.31 L 220.20,287.37 L 221.65,287.43 L 223.12,287.49 L 224.60,287.55 L 226.10,287.62 L 227.62,287.68 L 229.16,287.74"
     style="stroke:black;stroke-width:0.71;stroke-linecap:round;fill:none;stroke-dasharray: 5.67 5.67"
     id="path156" />
  <path
     d="M 168.70,285.21 L 168.70,285.01 L 168.70,284.81 L 168.70,284.61 L 168.70,284.41 L 168.70,284.22 L 168.70,284.03 L 168.70,283.85 L 168.70,283.67 L 168.70,283.49 L 168.70,283.31 L 168.70,283.14 L 168.70,282.96 L 168.70,282.80 L 168.70,282.63 L 168.70,282.47 L 168.70,282.31 L 168.70,282.15 L 168.70,282.00 L 168.70,281.84 L 168.70,281.69 L 168.70,281.55 L 168.70,281.40 L 168.70,281.26 L 168.70,281.12 L 168.70,280.98 L 168.70,280.85 L 168.70,280.71 L 168.70,280.58 L 168.70,280.46 L 168.70,280.33 L 168.70,280.21 L 168.70,280.08 L 168.70,279.96 L 168.70,279.85 L 168.70,279.73 L 168.70,279.62 L 168.70,279.51 L 168.70,279.40 L 168.70,279.29 L 168.70,279.18 L 168.70,279.08 L 168.70,278.98 L 168.70,278.88 L 168.70,278.78 L 168.70,278.68 L 168.70,278.59 L 168.70,278.50 L 168.70,278.40"
     style="stroke:black;stroke-width:0.71;stroke-linecap:round;fill:none;stroke-dasharray: 5.67 5.67"
     id="path158" />
  <!-- Render block 7
 -->
  <text
     x="223.31007"
     y="248.62802"
     style="font-size:10px;font-weight:normal;text-anchor:middle;fill:#000000;stroke:none;font-family:sanserif;text-align:center;writing-mode:lr;line-height:125%"
     id="text160"
     sodipodi:linespacing="125%">
    <tspan
       sodipodi:role="line"
       id="tspan3090">1-3</tspan>
  </text>
  <path
     d="M 168.70,275.53 L 169.43,275.53 L 170.17,275.53 L 170.93,275.53 L 171.69,275.53 L 172.47,275.53 L 173.26,275.53 L 174.06,275.53 L 174.87,275.53 L 175.69,275.53 L 176.53,275.53 L 177.38,275.53 L 178.24,275.53 L 179.11,275.53 L 179.99,275.53 L 180.89,275.53 L 181.80,275.53 L 182.73,275.53 L 183.67,275.53 L 184.62,275.53 L 185.58,275.53 L 186.56,275.53 L 187.55,275.53 L 188.56,275.53 L 189.58,275.53 L 190.62,275.53 L 191.67,275.53 L 192.73,275.53 L 193.81,275.53 L 194.91,275.53 L 196.02,275.53 L 197.14,275.53 L 198.28,275.53 L 199.44,275.53 L 200.61,275.53 L 201.80,275.53 L 203.01,275.53 L 204.23,275.53 L 205.46,275.53 L 206.72,275.53 L 207.99,275.53 L 209.28,275.53 L 210.58,275.53 L 211.90,275.53 L 213.24,275.53 L 214.60,275.53 L 215.97,275.53 L 217.37,275.53 L 218.78,275.53 L 220.20,275.53 L 221.65,275.53 L 223.12,275.53 L 224.60,275.53 L 226.10,275.53 L 227.62,275.53 L 229.16,275.53"
     style="stroke:black;stroke-width:0.71;stroke-linecap:round;fill:none"
     id="path164" />
  <path
     d="M 229.16,278.99 L 229.16,278.88 L 229.16,278.77 L 229.16,278.66 L 229.16,278.56 L 229.16,278.45 L 229.16,278.35 L 229.16,278.26 L 229.16,278.16 L 229.16,278.06 L 229.16,277.97 L 229.16,277.88 L 229.16,277.79 L 229.16,277.70 L 229.16,277.62 L 229.16,277.53 L 229.16,277.45 L 229.16,277.37 L 229.16,277.29 L 229.16,277.21 L 229.16,277.14 L 229.16,277.06 L 229.16,276.99 L 229.16,276.92 L 229.16,276.85 L 229.16,276.78 L 229.16,276.71 L 229.16,276.65 L 229.16,276.58 L 229.16,276.52 L 229.16,276.46 L 229.16,276.40 L 229.16,276.34 L 229.16,276.28 L 229.16,276.22 L 229.16,276.16 L 229.16,276.11 L 229.16,276.05 L 229.16,276.00 L 229.16,275.95 L 229.16,275.90 L 229.16,275.85 L 229.16,275.80 L 229.16,275.75 L 229.16,275.71 L 229.16,275.66 L 229.16,275.61 L 229.16,275.57 L 229.16,275.53"
     style="stroke:black;stroke-width:0.71;stroke-linecap:round;fill:none;stroke-dasharray: 5.67 5.67"
     id="path166" />
  <path
     d="M 168.70,278.40 L 169.43,278.41 L 170.17,278.42 L 170.93,278.42 L 171.69,278.43 L 172.47,278.44 L 173.26,278.45 L 174.06,278.45 L 174.87,278.46 L 175.69,278.47 L 176.53,278.48 L 177.38,278.48 L 178.24,278.49 L 179.11,278.50 L 179.99,278.51 L 180.89,278.52 L 181.80,278.53 L 182.73,278.53 L 183.67,278.54 L 184.62,278.55 L 185.58,278.56 L 186.56,278.57 L 187.55,278.58 L 188.56,278.59 L 189.58,278.60 L 190.62,278.61 L 191.67,278.62 L 192.73,278.63 L 193.81,278.64 L 194.91,278.65 L 196.02,278.66 L 197.14,278.67 L 198.28,278.68 L 199.44,278.70 L 200.61,278.71 L 201.80,278.72 L 203.01,278.73 L 204.23,278.74 L 205.46,278.76 L 206.72,278.77 L 207.99,278.78 L 209.28,278.79 L 210.58,278.81 L 211.90,278.82 L 213.24,278.83 L 214.60,278.84 L 215.97,278.86 L 217.37,278.87 L 218.78,278.89 L 220.20,278.90 L 221.65,278.91 L 223.12,278.93 L 224.60,278.94 L 226.10,278.96 L 227.62,278.97 L 229.16,278.99"
     style="stroke:black;stroke-width:0.71;stroke-linecap:round;fill:none;stroke-dasharray: 5.67 5.67"
     id="path168" />
  <path
     d="M 168.70,278.40 L 168.70,278.31 L 168.70,278.23 L 168.70,278.14 L 168.70,278.05 L 168.70,277.97 L 168.70,277.89 L 168.70,277.81 L 168.70,277.73 L 168.70,277.65 L 168.70,277.58 L 168.70,277.50 L 168.70,277.43 L 168.70,277.36 L 168.70,277.29 L 168.70,277.22 L 168.70,277.15 L 168.70,277.08 L 168.70,277.02 L 168.70,276.95 L 168.70,276.89 L 168.70,276.83 L 168.70,276.77 L 168.70,276.71 L 168.70,276.65 L 168.70,276.59 L 168.70,276.53 L 168.70,276.48 L 168.70,276.42 L 168.70,276.37 L 168.70,276.32 L 168.70,276.27 L 168.70,276.22 L 168.70,276.17 L 168.70,276.12 L 168.70,276.07 L 168.70,276.02 L 168.70,275.98 L 168.70,275.93 L 168.70,275.89 L 168.70,275.85 L 168.70,275.80 L 168.70,275.76 L 168.70,275.72 L 168.70,275.68 L 168.70,275.64 L 168.70,275.60 L 168.70,275.56 L 168.70,275.53"
     style="stroke:black;stroke-width:0.71;stroke-linecap:round;fill:none;stroke-dasharray: 5.67 5.67"
     id="path170" />
  <!-- Render block 8
 -->
  <text
     x="284.48267"
     y="336.99881"
     style="font-size:10px;font-weight:normal;text-anchor:middle;fill:#000000;stroke:none;font-family:sanserif"
     id="text172">sblk-2-0</text>
  <path
     d="M 229.16,307.22 L 230.72,307.43 L 232.30,307.63 L 233.90,307.85 L 235.52,308.06 L 237.15,308.27 L 238.81,308.49 L 240.49,308.71 L 242.18,308.94 L 243.90,309.16 L 245.63,309.39 L 247.39,309.62 L 249.17,309.85 L 250.97,310.09 L 252.78,310.33 L 254.62,310.57 L 256.48,310.81 L 258.36,311.06 L 260.27,311.31 L 262.19,311.56 L 264.13,311.81 L 266.10,312.07 L 268.08,312.33 L 270.09,312.59 L 272.12,312.86 L 274.17,313.12 L 276.24,313.39 L 278.33,313.66 L 280.45,313.94 L 282.58,314.22 L 284.74,314.50 L 286.92,314.78 L 289.12,315.06 L 291.34,315.35 L 293.58,315.64 L 295.85,315.94 L 298.13,316.23 L 300.44,316.53 L 302.77,316.83 L 305.12,317.13 L 307.49,317.44 L 309.89,317.75 L 312.30,318.06 L 314.74,318.37 L 317.20,318.68 L 319.67,319.00 L 322.17,319.32 L 324.69,319.64 L 327.23,319.97 L 329.80,320.29 L 332.38,320.62 L 334.98,320.96 L 337.60,321.29 L 340.25,321.63 L 342.91,321.96 L 345.59,322.30"
     style="stroke:black;stroke-width:0.71;stroke-linecap:round;fill:none;stroke-dasharray: 5.67 5.67"
     id="path174" />
  <path
     d="M 345.59,374.10 L 345.59,372.91 L 345.59,371.71 L 345.59,370.52 L 345.59,369.32 L 345.59,368.13 L 345.59,366.94 L 345.59,365.75 L 345.59,364.56 L 345.59,363.38 L 345.59,362.20 L 345.59,361.02 L 345.59,359.85 L 345.59,358.68 L 345.59,357.51 L 345.59,356.35 L 345.59,355.20 L 345.59,354.05 L 345.59,352.90 L 345.59,351.76 L 345.59,350.63 L 345.59,349.50 L 345.59,348.38 L 345.59,347.27 L 345.59,346.17 L 345.59,345.07 L 345.59,343.98 L 345.59,342.89 L 345.59,341.82 L 345.59,340.75 L 345.59,339.70 L 345.59,338.65 L 345.59,337.61 L 345.59,336.58 L 345.59,335.56 L 345.59,334.54 L 345.59,333.54 L 345.59,332.55 L 345.59,331.57 L 345.59,330.59 L 345.59,329.63 L 345.59,328.68 L 345.59,327.74 L 345.59,326.80 L 345.59,325.88 L 345.59,324.97 L 345.59,324.07 L 345.59,323.18 L 345.59,322.30"
     style="stroke:black;stroke-width:0.71;stroke-linecap:round;fill:none;stroke-dasharray: 5.67 5.67"
     id="path176" />
  <text
     x="384.24597"
     y="274.03979"
     transform="matrix(0.95782249,0.28736052,-0.28736052,0.95782249,0,0)"
     style="font-size:10px;font-weight:normal;text-anchor:middle;fill:#000000;stroke:none;font-family:sanserif"
     id="text178">SUP_IN</text>
  <path
     d="M 229.16,339.17 L 230.72,339.64 L 232.30,340.12 L 233.90,340.59 L 235.52,341.08 L 237.15,341.57 L 238.81,342.07 L 240.49,342.57 L 242.18,343.08 L 243.90,343.59 L 245.63,344.12 L 247.39,344.64 L 249.17,345.18 L 250.97,345.72 L 252.78,346.26 L 254.62,346.81 L 256.48,347.37 L 258.36,347.93 L 260.27,348.50 L 262.19,349.08 L 264.13,349.66 L 266.10,350.25 L 268.08,350.85 L 270.09,351.45 L 272.12,352.06 L 274.17,352.68 L 276.24,353.30 L 278.33,353.92 L 280.45,354.56 L 282.58,355.20 L 284.74,355.85 L 286.92,356.50 L 289.12,357.16 L 291.34,357.83 L 293.58,358.50 L 295.85,359.18 L 298.13,359.87 L 300.44,360.56 L 302.77,361.26 L 305.12,361.96 L 307.49,362.67 L 309.89,363.39 L 312.30,364.12 L 314.74,364.85 L 317.20,365.58 L 319.67,366.33 L 322.17,367.08 L 324.69,367.83 L 327.23,368.60 L 329.80,369.36 L 332.38,370.14 L 334.98,370.92 L 337.60,371.71 L 340.25,372.50 L 342.91,373.30 L 345.59,374.10"
     style="stroke:black;stroke-width:0.71;stroke-linecap:round;fill:none"
     id="path180" />
  <path
     d="M 229.16,339.17 L 229.16,338.44 L 229.16,337.71 L 229.16,336.98 L 229.16,336.25 L 229.16,335.53 L 229.16,334.80 L 229.16,334.07 L 229.16,333.35 L 229.16,332.62 L 229.16,331.90 L 229.16,331.18 L 229.16,330.46 L 229.16,329.75 L 229.16,329.03 L 229.16,328.32 L 229.16,327.62 L 229.16,326.91 L 229.16,326.21 L 229.16,325.51 L 229.16,324.81 L 229.16,324.12 L 229.16,323.43 L 229.16,322.75 L 229.16,322.07 L 229.16,321.39 L 229.16,320.72 L 229.16,320.05 L 229.16,319.39 L 229.16,318.73 L 229.16,318.08 L 229.16,317.43 L 229.16,316.78 L 229.16,316.14 L 229.16,315.51 L 229.16,314.88 L 229.16,314.26 L 229.16,313.64 L 229.16,313.03 L 229.16,312.42 L 229.16,311.82 L 229.16,311.22 L 229.16,310.63 L 229.16,310.05 L 229.16,309.47 L 229.16,308.90 L 229.16,308.33 L 229.16,307.77 L 229.16,307.22"
     style="stroke:black;stroke-width:0.71;stroke-linecap:round;fill:none;stroke-dasharray: 5.67 5.67"
     id="path182" />
  <!-- Render block 9
 -->
  <text
     x="284.09396"
     y="306.056"
     style="font-size:10px;font-weight:normal;text-anchor:middle;fill:#000000;stroke:none;font-family:sanserif"
     id="text184">sblk-2-1</text>
  <path
     d="M 229.16,287.74 L 230.72,287.81 L 232.30,287.88 L 233.90,287.94 L 235.52,288.01 L 237.15,288.08 L 238.81,288.15 L 240.49,288.22 L 242.18,288.29 L 243.90,288.36 L 245.63,288.43 L 247.39,288.51 L 249.17,288.58 L 250.97,288.65 L 252.78,288.73 L 254.62,288.80 L 256.48,288.88 L 258.36,288.96 L 260.27,289.04 L 262.19,289.12 L 264.13,289.20 L 266.10,289.28 L 268.08,289.36 L 270.09,289.44 L 272.12,289.52 L 274.17,289.60 L 276.24,289.69 L 278.33,289.77 L 280.45,289.86 L 282.58,289.94 L 284.74,290.03 L 286.92,290.12 L 289.12,290.21 L 291.34,290.29 L 293.58,290.38 L 295.85,290.47 L 298.13,290.56 L 300.44,290.65 L 302.77,290.75 L 305.12,290.84 L 307.49,290.93 L 309.89,291.03 L 312.30,291.12 L 314.74,291.21 L 317.20,291.31 L 319.67,291.41 L 322.17,291.50 L 324.69,291.60 L 327.23,291.70 L 329.80,291.79 L 332.38,291.89 L 334.98,291.99 L 337.60,292.09 L 340.25,292.19 L 342.91,292.29 L 345.59,292.39"
     style="stroke:black;stroke-width:0.71;stroke-linecap:round;fill:none;stroke-dasharray: 5.67 5.67"
     id="path186" />
  <path
     d="M 345.59,322.30 L 345.59,321.44 L 345.59,320.58 L 345.59,319.73 L 345.59,318.90 L 345.59,318.07 L 345.59,317.26 L 345.59,316.46 L 345.59,315.67 L 345.59,314.89 L 345.59,314.12 L 345.59,313.36 L 345.59,312.61 L 345.59,311.88 L 345.59,311.15 L 345.59,310.43 L 345.59,309.73 L 345.59,309.04 L 345.59,308.35 L 345.59,307.68 L 345.59,307.02 L 345.59,306.37 L 345.59,305.73 L 345.59,305.09 L 345.59,304.47 L 345.59,303.86 L 345.59,303.26 L 345.59,302.67 L 345.59,302.09 L 345.59,301.52 L 345.59,300.96 L 345.59,300.41 L 345.59,299.86 L 345.59,299.33 L 345.59,298.81 L 345.59,298.29 L 345.59,297.79 L 345.59,297.29 L 345.59,296.80 L 345.59,296.33 L 345.59,295.86 L 345.59,295.39 L 345.59,294.94 L 345.59,294.50 L 345.59,294.06 L 345.59,293.63 L 345.59,293.21 L 345.59,292.80 L 345.59,292.39"
     style="stroke:black;stroke-width:0.71;stroke-linecap:round;fill:none;stroke-dasharray: 5.67 5.67"
     id="path188" />
  <path
     d="M 229.16,307.22 L 230.72,307.43 L 232.30,307.63 L 233.90,307.85 L 235.52,308.06 L 237.15,308.27 L 238.81,308.49 L 240.49,308.71 L 242.18,308.94 L 243.90,309.16 L 245.63,309.39 L 247.39,309.62 L 249.17,309.85 L 250.97,310.09 L 252.78,310.33 L 254.62,310.57 L 256.48,310.81 L 258.36,311.06 L 260.27,311.31 L 262.19,311.56 L 264.13,311.81 L 266.10,312.07 L 268.08,312.33 L 270.09,312.59 L 272.12,312.86 L 274.17,313.12 L 276.24,313.39 L 278.33,313.66 L 280.45,313.94 L 282.58,314.22 L 284.74,314.50 L 286.92,314.78 L 289.12,315.06 L 291.34,315.35 L 293.58,315.64 L 295.85,315.94 L 298.13,316.23 L 300.44,316.53 L 302.77,316.83 L 305.12,317.13 L 307.49,317.44 L 309.89,317.75 L 312.30,318.06 L 314.74,318.37 L 317.20,318.68 L 319.67,319.00 L 322.17,319.32 L 324.69,319.64 L 327.23,319.97 L 329.80,320.29 L 332.38,320.62 L 334.98,320.96 L 337.60,321.29 L 340.25,321.63 L 342.91,321.96 L 345.59,322.30"
     style="stroke:black;stroke-width:0.71;stroke-linecap:round;fill:none;stroke-dasharray: 5.67 5.67"
     id="path190" />
  <path
     d="M 229.16,307.22 L 229.16,306.67 L 229.16,306.13 L 229.16,305.60 L 229.16,305.07 L 229.16,304.54 L 229.16,304.03 L 229.16,303.52 L 229.16,303.01 L 229.16,302.51 L 229.16,302.02 L 229.16,301.54 L 229.16,301.06 L 229.16,300.59 L 229.16,300.12 L 229.16,299.66 L 229.16,299.20 L 229.16,298.76 L 229.16,298.31 L 229.16,297.88 L 229.16,297.45 L 229.16,297.03 L 229.16,296.61 L 229.16,296.20 L 229.16,295.79 L 229.16,295.39 L 229.16,295.00 L 229.16,294.61 L 229.16,294.23 L 229.16,293.85 L 229.16,293.48 L 229.16,293.12 L 229.16,292.76 L 229.16,292.41 L 229.16,292.06 L 229.16,291.72 L 229.16,291.38 L 229.16,291.05 L 229.16,290.72 L 229.16,290.40 L 229.16,290.09 L 229.16,289.78 L 229.16,289.47 L 229.16,289.17 L 229.16,288.88 L 229.16,288.59 L 229.16,288.30 L 229.16,288.02 L 229.16,287.74"
     style="stroke:black;stroke-width:0.71;stroke-linecap:round;fill:none;stroke-dasharray: 5.67 5.67"
     id="path192" />
  <!-- Render block 10
 -->
  <text
     x="295.83585"
     y="288.38998"
     style="font-size:10px;font-weight:normal;text-align:center;line-height:125%;writing-mode:lr-tb;text-anchor:middle;fill:#000000;stroke:none;font-family:sanserif"
     id="text194"
     sodipodi:linespacing="125%">
    <tspan
       sodipodi:role="line"
       id="tspan3102"
       x="295.83585"
       y="288.38998">2-2</tspan>
  </text>
  <path
     d="M 229.16,278.99 L 230.72,279.00 L 232.30,279.02 L 233.90,279.03 L 235.52,279.05 L 237.15,279.06 L 238.81,279.08 L 240.49,279.10 L 242.18,279.11 L 243.90,279.13 L 245.63,279.15 L 247.39,279.16 L 249.17,279.18 L 250.97,279.20 L 252.78,279.21 L 254.62,279.23 L 256.48,279.25 L 258.36,279.26 L 260.27,279.28 L 262.19,279.30 L 264.13,279.32 L 266.10,279.34 L 268.08,279.35 L 270.09,279.37 L 272.12,279.39 L 274.17,279.41 L 276.24,279.43 L 278.33,279.45 L 280.45,279.47 L 282.58,279.49 L 284.74,279.50 L 286.92,279.52 L 289.12,279.54 L 291.34,279.56 L 293.58,279.58 L 295.85,279.60 L 298.13,279.62 L 300.44,279.64 L 302.77,279.66 L 305.12,279.68 L 307.49,279.70 L 309.89,279.72 L 312.30,279.74 L 314.74,279.76 L 317.20,279.78 L 319.67,279.80 L 322.17,279.83 L 324.69,279.85 L 327.23,279.87 L 329.80,279.89 L 332.38,279.91 L 334.98,279.93 L 337.60,279.95 L 340.25,279.97 L 342.91,279.99 L 345.59,280.01"
     style="stroke:black;stroke-width:0.71;stroke-linecap:round;fill:none;stroke-dasharray: 5.67 5.67"
     id="path196" />
  <path
     d="M 345.59,292.39 L 345.59,291.99 L 345.59,291.60 L 345.59,291.22 L 345.59,290.85 L 345.59,290.48 L 345.59,290.12 L 345.59,289.76 L 345.59,289.42 L 345.59,289.08 L 345.59,288.74 L 345.59,288.42 L 345.59,288.10 L 345.59,287.78 L 345.59,287.47 L 345.59,287.17 L 345.59,286.88 L 345.59,286.59 L 345.59,286.30 L 345.59,286.02 L 345.59,285.75 L 345.59,285.48 L 345.59,285.22 L 345.59,284.96 L 345.59,284.71 L 345.59,284.47 L 345.59,284.22 L 345.59,283.99 L 345.59,283.76 L 345.59,283.53 L 345.59,283.31 L 345.59,283.09 L 345.59,282.88 L 345.59,282.67 L 345.59,282.46 L 345.59,282.26 L 345.59,282.07 L 345.59,281.87 L 345.59,281.69 L 345.59,281.50 L 345.59,281.32 L 345.59,281.15 L 345.59,280.97 L 345.59,280.80 L 345.59,280.64 L 345.59,280.48 L 345.59,280.32 L 345.59,280.16 L 345.59,280.01"
     style="stroke:black;stroke-width:0.71;stroke-linecap:round;fill:none;stroke-dasharray: 5.67 5.67"
     id="path198" />
  <path
     d="M 229.16,287.74 L 230.72,287.81 L 232.30,287.88 L 233.90,287.94 L 235.52,288.01 L 237.15,288.08 L 238.81,288.15 L 240.49,288.22 L 242.18,288.29 L 243.90,288.36 L 245.63,288.43 L 247.39,288.51 L 249.17,288.58 L 250.97,288.65 L 252.78,288.73 L 254.62,288.80 L 256.48,288.88 L 258.36,288.96 L 260.27,289.04 L 262.19,289.12 L 264.13,289.20 L 266.10,289.28 L 268.08,289.36 L 270.09,289.44 L 272.12,289.52 L 274.17,289.60 L 276.24,289.69 L 278.33,289.77 L 280.45,289.86 L 282.58,289.94 L 284.74,290.03 L 286.92,290.12 L 289.12,290.21 L 291.34,290.29 L 293.58,290.38 L 295.85,290.47 L 298.13,290.56 L 300.44,290.65 L 302.77,290.75 L 305.12,290.84 L 307.49,290.93 L 309.89,291.03 L 312.30,291.12 L 314.74,291.21 L 317.20,291.31 L 319.67,291.41 L 322.17,291.50 L 324.69,291.60 L 327.23,291.70 L 329.80,291.79 L 332.38,291.89 L 334.98,291.99 L 337.60,292.09 L 340.25,292.19 L 342.91,292.29 L 345.59,292.39"
     style="stroke:black;stroke-width:0.71;stroke-linecap:round;fill:none;stroke-dasharray: 5.67 5.67"
     id="path200" />
  <path
     d="M 229.16,287.74 L 229.16,287.47 L 229.16,287.21 L 229.16,286.94 L 229.16,286.69 L 229.16,286.43 L 229.16,286.19 L 229.16,285.94 L 229.16,285.70 L 229.16,285.47 L 229.16,285.24 L 229.16,285.01 L 229.16,284.79 L 229.16,284.57 L 229.16,284.35 L 229.16,284.14 L 229.16,283.93 L 229.16,283.73 L 229.16,283.53 L 229.16,283.33 L 229.16,283.14 L 229.16,282.95 L 229.16,282.76 L 229.16,282.58 L 229.16,282.40 L 229.16,282.23 L 229.16,282.05 L 229.16,281.89 L 229.16,281.72 L 229.16,281.56 L 229.16,281.40 L 229.16,281.24 L 229.16,281.09 L 229.16,280.94 L 229.16,280.79 L 229.16,280.64 L 229.16,280.50 L 229.16,280.36 L 229.16,280.22 L 229.16,280.09 L 229.16,279.96 L 229.16,279.83 L 229.16,279.70 L 229.16,279.57 L 229.16,279.45 L 229.16,279.33 L 229.16,279.22 L 229.16,279.10 L 229.16,278.99"
     style="stroke:black;stroke-width:0.71;stroke-linecap:round;fill:none;stroke-dasharray: 5.67 5.67"
     id="path202" />
  <!-- Render block 11
 -->
  <text
     x="296.12027"
     y="271.24786"
     style="font-size:10px;font-weight:normal;text-align:center;line-height:125%;writing-mode:lr-tb;text-anchor:middle;fill:#000000;stroke:none;font-family:sanserif"
     id="text204"
     sodipodi:linespacing="125%">
    <tspan
       sodipodi:role="line"
       id="tspan3100"
       x="296.12027"
       y="271.24786">2-3</tspan>
  </text>
  <text
     x="304.03104"
     y="253.10565"
     style="font-size:10px;font-weight:normal;text-anchor:middle;fill:#000000;stroke:none;font-family:sanserif"
     id="text206">FIXED_T</text>
  <path
     d="M 229.16,275.53 L 230.72,275.53 L 232.30,275.53 L 233.90,275.53 L 235.52,275.53 L 237.15,275.53 L 238.81,275.53 L 240.49,275.53 L 242.18,275.53 L 243.90,275.53 L 245.63,275.53 L 247.39,275.53 L 249.17,275.53 L 250.97,275.53 L 252.78,275.53 L 254.62,275.53 L 256.48,275.53 L 258.36,275.53 L 260.27,275.53 L 262.19,275.53 L 264.13,275.53 L 266.10,275.53 L 268.08,275.53 L 270.09,275.53 L 272.12,275.53 L 274.17,275.53 L 276.24,275.53 L 278.33,275.53 L 280.45,275.53 L 282.58,275.53 L 284.74,275.53 L 286.92,275.53 L 289.12,275.53 L 291.34,275.53 L 293.58,275.53 L 295.85,275.53 L 298.13,275.53 L 300.44,275.53 L 302.77,275.53 L 305.12,275.53 L 307.49,275.53 L 309.89,275.53 L 312.30,275.53 L 314.74,275.53 L 317.20,275.53 L 319.67,275.53 L 322.17,275.53 L 324.69,275.53 L 327.23,275.53 L 329.80,275.53 L 332.38,275.53 L 334.98,275.53 L 337.60,275.53 L 340.25,275.53 L 342.91,275.53 L 345.59,275.53"
     style="stroke:black;stroke-width:0.71;stroke-linecap:round;fill:none"
     id="path208" />
  <path
     d="M 345.59,280.01 L 345.59,279.86 L 345.59,279.72 L 345.59,279.58 L 345.59,279.44 L 345.59,279.30 L 345.59,279.17 L 345.59,279.04 L 345.59,278.91 L 345.59,278.78 L 345.59,278.66 L 345.59,278.54 L 345.59,278.42 L 345.59,278.31 L 345.59,278.20 L 345.59,278.09 L 345.59,277.98 L 345.59,277.87 L 345.59,277.77 L 345.59,277.67 L 345.59,277.57 L 345.59,277.47 L 345.59,277.38 L 345.59,277.29 L 345.59,277.20 L 345.59,277.11 L 345.59,277.02 L 345.59,276.94 L 345.59,276.85 L 345.59,276.77 L 345.59,276.69 L 345.59,276.62 L 345.59,276.54 L 345.59,276.47 L 345.59,276.39 L 345.59,276.32 L 345.59,276.25 L 345.59,276.18 L 345.59,276.12 L 345.59,276.05 L 345.59,275.99 L 345.59,275.93 L 345.59,275.87 L 345.59,275.81 L 345.59,275.75 L 345.59,275.69 L 345.59,275.64 L 345.59,275.58 L 345.59,275.53"
     style="stroke:black;stroke-width:0.71;stroke-linecap:round;fill:none;stroke-dasharray: 5.67 5.67"
     id="path210" />
  <path
     d="M 229.16,278.99 L 230.72,279.00 L 232.30,279.02 L 233.90,279.03 L 235.52,279.05 L 237.15,279.06 L 238.81,279.08 L 240.49,279.10 L 242.18,279.11 L 243.90,279.13 L 245.63,279.15 L 247.39,279.16 L 249.17,279.18 L 250.97,279.20 L 252.78,279.21 L 254.62,279.23 L 256.48,279.25 L 258.36,279.26 L 260.27,279.28 L 262.19,279.30 L 264.13,279.32 L 266.10,279.34 L 268.08,279.35 L 270.09,279.37 L 272.12,279.39 L 274.17,279.41 L 276.24,279.43 L 278.33,279.45 L 280.45,279.47 L 282.58,279.49 L 284.74,279.50 L 286.92,279.52 L 289.12,279.54 L 291.34,279.56 L 293.58,279.58 L 295.85,279.60 L 298.13,279.62 L 300.44,279.64 L 302.77,279.66 L 305.12,279.68 L 307.49,279.70 L 309.89,279.72 L 312.30,279.74 L 314.74,279.76 L 317.20,279.78 L 319.67,279.80 L 322.17,279.83 L 324.69,279.85 L 327.23,279.87 L 329.80,279.89 L 332.38,279.91 L 334.98,279.93 L 337.60,279.95 L 340.25,279.97 L 342.91,279.99 L 345.59,280.01"
     style="stroke:black;stroke-width:0.71;stroke-linecap:round;fill:none;stroke-dasharray: 5.67 5.67"
     id="path212" />
  <path
     d="M 229.16,278.99 L 229.16,278.88 L 229.16,278.77 L 229.16,278.66 L 229.16,278.56 L 229.16,278.45 L 229.16,278.35 L 229.16,278.26 L 229.16,278.16 L 229.16,278.06 L 229.16,277.97 L 229.16,277.88 L 229.16,277.79 L 229.16,277.70 L 229.16,277.62 L 229.16,277.53 L 229.16,277.45 L 229.16,277.37 L 229.16,277.29 L 229.16,277.21 L 229.16,277.14 L 229.16,277.06 L 229.16,276.99 L 229.16,276.92 L 229.16,276.85 L 229.16,276.78 L 229.16,276.71 L 229.16,276.65 L 229.16,276.58 L 229.16,276.52 L 229.16,276.46 L 229.16,276.40 L 229.16,276.34 L 229.16,276.28 L 229.16,276.22 L 229.16,276.16 L 229.16,276.11 L 229.16,276.05 L 229.16,276.00 L 229.16,275.95 L 229.16,275.90 L 229.16,275.85 L 229.16,275.80 L 229.16,275.75 L 229.16,275.71 L 229.16,275.66 L 229.16,275.61 L 229.16,275.57 L 229.16,275.53"
     style="stroke:black;stroke-width:0.71;stroke-linecap:round;fill:none;stroke-dasharray: 5.67 5.67"
     id="path214" />
  <!-- Render block 12
 -->
  <text
     x="440.24036"
     y="365.40131"
     style="font-size:10px;font-weight:normal;text-anchor:middle;fill:#000000;stroke:none;font-family:sanserif"
     id="text216">sblk-3-0</text>
  <path
     d="M 345.59,322.30 L 348.29,322.65 L 351.02,322.99 L 353.76,323.34 L 356.52,323.69 L 359.30,324.04 L 362.10,324.39 L 364.91,324.74 L 367.75,325.10 L 370.60,325.46 L 373.47,325.82 L 376.36,326.18 L 379.27,326.54 L 382.19,326.91 L 385.13,327.27 L 388.09,327.64 L 391.06,328.01 L 394.05,328.38 L 397.06,328.76 L 400.08,329.13 L 403.11,329.50 L 406.16,329.88 L 409.23,330.26 L 412.30,330.64 L 415.40,331.02 L 418.50,331.40 L 421.62,331.78 L 424.75,332.17 L 427.89,332.55 L 431.05,332.93 L 434.22,333.32 L 437.39,333.71 L 440.58,334.09 L 443.78,334.48 L 446.99,334.87 L 450.21,335.26 L 453.44,335.65 L 456.67,336.04 L 459.92,336.43 L 463.17,336.82 L 466.43,337.21 L 469.70,337.60 L 472.97,337.99 L 476.25,338.38 L 479.54,338.77 L 482.83,339.16 L 486.12,339.55 L 489.42,339.94 L 492.72,340.33 L 496.03,340.72 L 499.34,341.11 L 502.65,341.50 L 505.96,341.88 L 509.27,342.27 L 512.59,342.66 L 515.91,343.04"
     style="stroke:black;stroke-width:0.71;stroke-linecap:round;fill:none;stroke-dasharray: 5.67 5.67"
     id="path218" />
  <text
     x="-345.05176"
     y="537.32385"
     transform="matrix(0,-1,1,0,0,0)"
     style="font-size:10px;font-weight:normal;text-anchor:middle;fill:#000000;stroke:none;font-family:sanserif"
     id="text220">EXTRAPOLATE_OUT</text>
  <path
     d="M 515.91,425.20 L 515.91,423.28 L 515.91,421.37 L 515.91,419.45 L 515.91,417.54 L 515.91,415.63 L 515.91,413.73 L 515.91,411.83 L 515.91,409.93 L 515.91,408.03 L 515.91,406.15 L 515.91,404.26 L 515.91,402.39 L 515.91,400.52 L 515.91,398.66 L 515.91,396.81 L 515.91,394.96 L 515.91,393.13 L 515.91,391.30 L 515.91,389.49 L 515.91,387.68 L 515.91,385.89 L 515.91,384.11 L 515.91,382.34 L 515.91,380.58 L 515.91,378.84 L 515.91,377.11 L 515.91,375.39 L 515.91,373.69 L 515.91,372.00 L 515.91,370.33 L 515.91,368.67 L 515.91,367.03 L 515.91,365.40 L 515.91,363.79 L 515.91,362.19 L 515.91,360.62 L 515.91,359.06 L 515.91,357.51 L 515.91,355.98 L 515.91,354.47 L 515.91,352.98 L 515.91,351.51 L 515.91,350.05 L 515.91,348.61 L 515.91,347.19 L 515.91,345.79 L 515.91,344.41 L 515.91,343.04"
     style="stroke:black;stroke-width:0.71;stroke-linecap:round;fill:none"
     id="path222" />
  <path
     d="M 345.59,374.10 L 348.29,374.91 L 351.02,375.73 L 353.76,376.55 L 356.52,377.38 L 359.30,378.21 L 362.10,379.05 L 364.91,379.90 L 367.75,380.75 L 370.60,381.61 L 373.47,382.47 L 376.36,383.33 L 379.27,384.21 L 382.19,385.08 L 385.13,385.96 L 388.09,386.85 L 391.06,387.74 L 394.05,388.64 L 397.06,389.54 L 400.08,390.45 L 403.11,391.36 L 406.16,392.27 L 409.23,393.19 L 412.30,394.12 L 415.40,395.04 L 418.50,395.98 L 421.62,396.91 L 424.75,397.85 L 427.89,398.79 L 431.05,399.74 L 434.22,400.69 L 437.39,401.64 L 440.58,402.60 L 443.78,403.56 L 446.99,404.52 L 450.21,405.49 L 453.44,406.46 L 456.67,407.43 L 459.92,408.40 L 463.17,409.38 L 466.43,410.35 L 469.70,411.33 L 472.97,412.32 L 476.25,413.30 L 479.54,414.29 L 482.83,415.27 L 486.12,416.26 L 489.42,417.25 L 492.72,418.24 L 496.03,419.23 L 499.34,420.23 L 502.65,421.22 L 505.96,422.21 L 509.27,423.21 L 512.59,424.20 L 515.91,425.20"
     style="stroke:black;stroke-width:0.71;stroke-linecap:round;fill:none"
     id="path226" />
  <path
     d="M 345.59,374.10 L 345.59,372.91 L 345.59,371.71 L 345.59,370.52 L 345.59,369.32 L 345.59,368.13 L 345.59,366.94 L 345.59,365.75 L 345.59,364.56 L 345.59,363.38 L 345.59,362.20 L 345.59,361.02 L 345.59,359.85 L 345.59,358.68 L 345.59,357.51 L 345.59,356.35 L 345.59,355.20 L 345.59,354.05 L 345.59,352.90 L 345.59,351.76 L 345.59,350.63 L 345.59,349.50 L 345.59,348.38 L 345.59,347.27 L 345.59,346.17 L 345.59,345.07 L 345.59,343.98 L 345.59,342.89 L 345.59,341.82 L 345.59,340.75 L 345.59,339.70 L 345.59,338.65 L 345.59,337.61 L 345.59,336.58 L 345.59,335.56 L 345.59,334.54 L 345.59,333.54 L 345.59,332.55 L 345.59,331.57 L 345.59,330.59 L 345.59,329.63 L 345.59,328.68 L 345.59,327.74 L 345.59,326.80 L 345.59,325.88 L 345.59,324.97 L 345.59,324.07 L 345.59,323.18 L 345.59,322.30"
     style="stroke:black;stroke-width:0.71;stroke-linecap:round;fill:none;stroke-dasharray: 5.67 5.67"
     id="path228" />
  <!-- Render block 13
 -->
  <text
     x="439.05502"
     y="317.38965"
     style="font-size:10px;font-weight:normal;text-anchor:middle;fill:#000000;stroke:none;font-family:sanserif"
     id="text230">sblk-3-1</text>
  <path
     d="M 345.59,292.39 L 348.29,292.49 L 351.02,292.59 L 353.76,292.70 L 356.52,292.80 L 359.30,292.90 L 362.10,293.00 L 364.91,293.11 L 367.75,293.21 L 370.60,293.31 L 373.47,293.42 L 376.36,293.52 L 379.27,293.63 L 382.19,293.73 L 385.13,293.83 L 388.09,293.94 L 391.06,294.04 L 394.05,294.15 L 397.06,294.25 L 400.08,294.36 L 403.11,294.47 L 406.16,294.57 L 409.23,294.68 L 412.30,294.78 L 415.40,294.89 L 418.50,294.99 L 421.62,295.10 L 424.75,295.20 L 427.89,295.31 L 431.05,295.41 L 434.22,295.52 L 437.39,295.62 L 440.58,295.72 L 443.78,295.83 L 446.99,295.93 L 450.21,296.04 L 453.44,296.14 L 456.67,296.24 L 459.92,296.34 L 463.17,296.45 L 466.43,296.55 L 469.70,296.65 L 472.97,296.75 L 476.25,296.85 L 479.54,296.95 L 482.83,297.05 L 486.12,297.15 L 489.42,297.25 L 492.72,297.34 L 496.03,297.44 L 499.34,297.54 L 502.65,297.63 L 505.96,297.73 L 509.27,297.82 L 512.59,297.92 L 515.91,298.01"
     style="stroke:black;stroke-width:0.71;stroke-linecap:round;fill:none;stroke-dasharray: 5.67 5.67"
     id="path232" />
  <path
     d="M 515.91,343.04 L 515.91,341.69 L 515.91,340.37 L 515.91,339.06 L 515.91,337.76 L 515.91,336.49 L 515.91,335.24 L 515.91,334.00 L 515.91,332.79 L 515.91,331.59 L 515.91,330.41 L 515.91,329.24 L 515.91,328.10 L 515.91,326.98 L 515.91,325.87 L 515.91,324.78 L 515.91,323.71 L 515.91,322.66 L 515.91,321.62 L 515.91,320.60 L 515.91,319.60 L 515.91,318.62 L 515.91,317.65 L 515.91,316.70 L 515.91,315.77 L 515.91,314.86 L 515.91,313.96 L 515.91,313.08 L 515.91,312.21 L 515.91,311.36 L 515.91,310.53 L 515.91,309.71 L 515.91,308.91 L 515.91,308.12 L 515.91,307.35 L 515.91,306.59 L 515.91,305.85 L 515.91,305.12 L 515.91,304.40 L 515.91,303.70 L 515.91,303.02 L 515.91,302.35 L 515.91,301.69 L 515.91,301.04 L 515.91,300.41 L 515.91,299.79 L 515.91,299.19 L 515.91,298.59 L 515.91,298.01"
     style="stroke:black;stroke-width:0.71;stroke-linecap:round;fill:none"
     id="path236" />
  <path
     d="M 345.59,322.30 L 348.29,322.65 L 351.02,322.99 L 353.76,323.34 L 356.52,323.69 L 359.30,324.04 L 362.10,324.39 L 364.91,324.74 L 367.75,325.10 L 370.60,325.46 L 373.47,325.82 L 376.36,326.18 L 379.27,326.54 L 382.19,326.91 L 385.13,327.27 L 388.09,327.64 L 391.06,328.01 L 394.05,328.38 L 397.06,328.76 L 400.08,329.13 L 403.11,329.50 L 406.16,329.88 L 409.23,330.26 L 412.30,330.64 L 415.40,331.02 L 418.50,331.40 L 421.62,331.78 L 424.75,332.17 L 427.89,332.55 L 431.05,332.93 L 434.22,333.32 L 437.39,333.71 L 440.58,334.09 L 443.78,334.48 L 446.99,334.87 L 450.21,335.26 L 453.44,335.65 L 456.67,336.04 L 459.92,336.43 L 463.17,336.82 L 466.43,337.21 L 469.70,337.60 L 472.97,337.99 L 476.25,338.38 L 479.54,338.77 L 482.83,339.16 L 486.12,339.55 L 489.42,339.94 L 492.72,340.33 L 496.03,340.72 L 499.34,341.11 L 502.65,341.50 L 505.96,341.88 L 509.27,342.27 L 512.59,342.66 L 515.91,343.04"
     style="stroke:black;stroke-width:0.71;stroke-linecap:round;fill:none;stroke-dasharray: 5.67 5.67"
     id="path238" />
  <path
     d="M 345.59,322.30 L 345.59,321.44 L 345.59,320.58 L 345.59,319.73 L 345.59,318.90 L 345.59,318.07 L 345.59,317.26 L 345.59,316.46 L 345.59,315.67 L 345.59,314.89 L 345.59,314.12 L 345.59,313.36 L 345.59,312.61 L 345.59,311.88 L 345.59,311.15 L 345.59,310.43 L 345.59,309.73 L 345.59,309.04 L 345.59,308.35 L 345.59,307.68 L 345.59,307.02 L 345.59,306.37 L 345.59,305.73 L 345.59,305.09 L 345.59,304.47 L 345.59,303.86 L 345.59,303.26 L 345.59,302.67 L 345.59,302.09 L 345.59,301.52 L 345.59,300.96 L 345.59,300.41 L 345.59,299.86 L 345.59,299.33 L 345.59,298.81 L 345.59,298.29 L 345.59,297.79 L 345.59,297.29 L 345.59,296.80 L 345.59,296.33 L 345.59,295.86 L 345.59,295.39 L 345.59,294.94 L 345.59,294.50 L 345.59,294.06 L 345.59,293.63 L 345.59,293.21 L 345.59,292.80 L 345.59,292.39"
     style="stroke:black;stroke-width:0.71;stroke-linecap:round;fill:none;stroke-dasharray: 5.67 5.67"
     id="path240" />
  <!-- Render block 14
 -->
  <text
     x="437.91681"
     y="292.026"
     style="font-size:10px;font-weight:normal;text-anchor:middle;fill:#000000;stroke:none;font-family:sanserif"
     id="text242">sblk-3-2</text>
  <path
     d="M 345.59,280.01 L 348.29,280.03 L 351.02,280.05 L 353.76,280.07 L 356.52,280.10 L 359.30,280.12 L 362.10,280.14 L 364.91,280.16 L 367.75,280.18 L 370.60,280.20 L 373.47,280.22 L 376.36,280.24 L 379.27,280.26 L 382.19,280.28 L 385.13,280.30 L 388.09,280.32 L 391.06,280.34 L 394.05,280.36 L 397.06,280.38 L 400.08,280.40 L 403.11,280.42 L 406.16,280.44 L 409.23,280.46 L 412.30,280.48 L 415.40,280.50 L 418.50,280.52 L 421.62,280.54 L 424.75,280.56 L 427.89,280.58 L 431.05,280.60 L 434.22,280.62 L 437.39,280.64 L 440.58,280.65 L 443.78,280.67 L 446.99,280.69 L 450.21,280.71 L 453.44,280.72 L 456.67,280.74 L 459.92,280.76 L 463.17,280.78 L 466.43,280.79 L 469.70,280.81 L 472.97,280.82 L 476.25,280.84 L 479.54,280.86 L 482.83,280.87 L 486.12,280.89 L 489.42,280.90 L 492.72,280.92 L 496.03,280.93 L 499.34,280.94 L 502.65,280.96 L 505.96,280.97 L 509.27,280.98 L 512.59,281.00 L 515.91,281.01"
     style="stroke:black;stroke-width:0.71;stroke-linecap:round;fill:none;stroke-dasharray: 5.67 5.67"
     id="path244" />
  <path
     d="M 515.91,298.01 L 515.91,297.44 L 515.91,296.88 L 515.91,296.34 L 515.91,295.80 L 515.91,295.28 L 515.91,294.77 L 515.91,294.27 L 515.91,293.78 L 515.91,293.30 L 515.91,292.83 L 515.91,292.37 L 515.91,291.92 L 515.91,291.48 L 515.91,291.05 L 515.91,290.63 L 515.91,290.22 L 515.91,289.82 L 515.91,289.43 L 515.91,289.04 L 515.91,288.67 L 515.91,288.30 L 515.91,287.94 L 515.91,287.59 L 515.91,287.25 L 515.91,286.91 L 515.91,286.59 L 515.91,286.27 L 515.91,285.95 L 515.91,285.65 L 515.91,285.35 L 515.91,285.06 L 515.91,284.77 L 515.91,284.49 L 515.91,284.22 L 515.91,283.95 L 515.91,283.69 L 515.91,283.44 L 515.91,283.19 L 515.91,282.95 L 515.91,282.71 L 515.91,282.48 L 515.91,282.26 L 515.91,282.04 L 515.91,281.82 L 515.91,281.61 L 515.91,281.41 L 515.91,281.21 L 515.91,281.01"
     style="stroke:black;stroke-width:0.71;stroke-linecap:round;fill:none"
     id="path248" />
  <path
     d="M 345.59,292.39 L 348.29,292.49 L 351.02,292.59 L 353.76,292.70 L 356.52,292.80 L 359.30,292.90 L 362.10,293.00 L 364.91,293.11 L 367.75,293.21 L 370.60,293.31 L 373.47,293.42 L 376.36,293.52 L 379.27,293.63 L 382.19,293.73 L 385.13,293.83 L 388.09,293.94 L 391.06,294.04 L 394.05,294.15 L 397.06,294.25 L 400.08,294.36 L 403.11,294.47 L 406.16,294.57 L 409.23,294.68 L 412.30,294.78 L 415.40,294.89 L 418.50,294.99 L 421.62,295.10 L 424.75,295.20 L 427.89,295.31 L 431.05,295.41 L 434.22,295.52 L 437.39,295.62 L 440.58,295.72 L 443.78,295.83 L 446.99,295.93 L 450.21,296.04 L 453.44,296.14 L 456.67,296.24 L 459.92,296.34 L 463.17,296.45 L 466.43,296.55 L 469.70,296.65 L 472.97,296.75 L 476.25,296.85 L 479.54,296.95 L 482.83,297.05 L 486.12,297.15 L 489.42,297.25 L 492.72,297.34 L 496.03,297.44 L 499.34,297.54 L 502.65,297.63 L 505.96,297.73 L 509.27,297.82 L 512.59,297.92 L 515.91,298.01"
     style="stroke:black;stroke-width:0.71;stroke-linecap:round;fill:none;stroke-dasharray: 5.67 5.67"
     id="path250" />
  <path
     d="M 345.59,292.39 L 345.59,291.99 L 345.59,291.60 L 345.59,291.22 L 345.59,290.85 L 345.59,290.48 L 345.59,290.12 L 345.59,289.76 L 345.59,289.42 L 345.59,289.08 L 345.59,288.74 L 345.59,288.42 L 345.59,288.10 L 345.59,287.78 L 345.59,287.47 L 345.59,287.17 L 345.59,286.88 L 345.59,286.59 L 345.59,286.30 L 345.59,286.02 L 345.59,285.75 L 345.59,285.48 L 345.59,285.22 L 345.59,284.96 L 345.59,284.71 L 345.59,284.47 L 345.59,284.22 L 345.59,283.99 L 345.59,283.76 L 345.59,283.53 L 345.59,283.31 L 345.59,283.09 L 345.59,282.88 L 345.59,282.67 L 345.59,282.46 L 345.59,282.26 L 345.59,282.07 L 345.59,281.87 L 345.59,281.69 L 345.59,281.50 L 345.59,281.32 L 345.59,281.15 L 345.59,280.97 L 345.59,280.80 L 345.59,280.64 L 345.59,280.48 L 345.59,280.32 L 345.59,280.16 L 345.59,280.01"
     style="stroke:black;stroke-width:0.71;stroke-linecap:round;fill:none;stroke-dasharray: 5.67 5.67"
     id="path252" />
  <!-- Render block 15
 -->
  <text
     x="437.83197"
     y="272.47339"
     style="font-size:10px;font-weight:normal;text-anchor:middle;fill:#000000;stroke:none;font-family:sanserif"
     id="text254">sblk-3-3</text>
  <path
     d="M 345.59,275.53 L 348.29,275.53 L 351.02,275.53 L 353.76,275.53 L 356.52,275.53 L 359.30,275.53 L 362.10,275.53 L 364.91,275.53 L 367.75,275.53 L 370.60,275.53 L 373.47,275.53 L 376.36,275.53 L 379.27,275.53 L 382.19,275.53 L 385.13,275.53 L 388.09,275.53 L 391.06,275.53 L 394.05,275.53 L 397.06,275.53 L 400.08,275.53 L 403.11,275.53 L 406.16,275.53 L 409.23,275.53 L 412.30,275.53 L 415.40,275.53 L 418.50,275.53 L 421.62,275.53 L 424.75,275.53 L 427.89,275.53 L 431.05,275.53 L 434.22,275.53 L 437.39,275.53 L 440.58,275.53 L 443.78,275.53 L 446.99,275.53 L 450.21,275.53 L 453.44,275.53 L 456.67,275.53 L 459.92,275.53 L 463.17,275.53 L 466.43,275.53 L 469.70,275.53 L 472.97,275.53 L 476.25,275.53 L 479.54,275.53 L 482.83,275.53 L 486.12,275.53 L 489.42,275.53 L 492.72,275.53 L 496.03,275.53 L 499.34,275.53 L 502.65,275.53 L 505.96,275.53 L 509.27,275.53 L 512.59,275.53 L 515.91,275.53"
     style="stroke:black;stroke-width:0.71;stroke-linecap:round;fill:none"
     id="path258" />
  <path
     d="M 515.91,281.01 L 515.91,280.82 L 515.91,280.63 L 515.91,280.45 L 515.91,280.27 L 515.91,280.10 L 515.91,279.93 L 515.91,279.76 L 515.91,279.60 L 515.91,279.45 L 515.91,279.29 L 515.91,279.14 L 515.91,278.99 L 515.91,278.85 L 515.91,278.71 L 515.91,278.58 L 515.91,278.44 L 515.91,278.31 L 515.91,278.19 L 515.91,278.06 L 515.91,277.94 L 515.91,277.82 L 515.91,277.71 L 515.91,277.60 L 515.91,277.49 L 515.91,277.38 L 515.91,277.28 L 515.91,277.17 L 515.91,277.08 L 515.91,276.98 L 515.91,276.88 L 515.91,276.79 L 515.91,276.70 L 515.91,276.61 L 515.91,276.53 L 515.91,276.45 L 515.91,276.36 L 515.91,276.28 L 515.91,276.21 L 515.91,276.13 L 515.91,276.06 L 515.91,275.98 L 515.91,275.91 L 515.91,275.85 L 515.91,275.78 L 515.91,275.71 L 515.91,275.65 L 515.91,275.59 L 515.91,275.53"
     style="stroke:black;stroke-width:0.71;stroke-linecap:round;fill:none"
     id="path262" />
  <path
     d="M 345.59,280.01 L 348.29,280.03 L 351.02,280.05 L 353.76,280.07 L 356.52,280.10 L 359.30,280.12 L 362.10,280.14 L 364.91,280.16 L 367.75,280.18 L 370.60,280.20 L 373.47,280.22 L 376.36,280.24 L 379.27,280.26 L 382.19,280.28 L 385.13,280.30 L 388.09,280.32 L 391.06,280.34 L 394.05,280.36 L 397.06,280.38 L 400.08,280.40 L 403.11,280.42 L 406.16,280.44 L 409.23,280.46 L 412.30,280.48 L 415.40,280.50 L 418.50,280.52 L 421.62,280.54 L 424.75,280.56 L 427.89,280.58 L 431.05,280.60 L 434.22,280.62 L 437.39,280.64 L 440.58,280.65 L 443.78,280.67 L 446.99,280.69 L 450.21,280.71 L 453.44,280.72 L 456.67,280.74 L 459.92,280.76 L 463.17,280.78 L 466.43,280.79 L 469.70,280.81 L 472.97,280.82 L 476.25,280.84 L 479.54,280.86 L 482.83,280.87 L 486.12,280.89 L 489.42,280.90 L 492.72,280.92 L 496.03,280.93 L 499.34,280.94 L 502.65,280.96 L 505.96,280.97 L 509.27,280.98 L 512.59,281.00 L 515.91,281.01"
     style="stroke:black;stroke-width:0.71;stroke-linecap:round;fill:none;stroke-dasharray: 5.67 5.67"
     id="path264" />
  <path
     d="M 345.59,280.01 L 345.59,279.86 L 345.59,279.72 L 345.59,279.58 L 345.59,279.44 L 345.59,279.30 L 345.59,279.17 L 345.59,279.04 L 345.59,278.91 L 345.59,278.78 L 345.59,278.66 L 345.59,278.54 L 345.59,278.42 L 345.59,278.31 L 345.59,278.20 L 345.59,278.09 L 345.59,277.98 L 345.59,277.87 L 345.59,277.77 L 345.59,277.67 L 345.59,277.57 L 345.59,277.47 L 345.59,277.38 L 345.59,277.29 L 345.59,277.20 L 345.59,277.11 L 345.59,277.02 L 345.59,276.94 L 345.59,276.85 L 345.59,276.77 L 345.59,276.69 L 345.59,276.62 L 345.59,276.54 L 345.59,276.47 L 345.59,276.39 L 345.59,276.32 L 345.59,276.25 L 345.59,276.18 L 345.59,276.12 L 345.59,276.05 L 345.59,275.99 L 345.59,275.93 L 345.59,275.87 L 345.59,275.81 L 345.59,275.75 L 345.59,275.69 L 345.59,275.64 L 345.59,275.58 L 345.59,275.53"
     style="stroke:black;stroke-width:0.71;stroke-linecap:round;fill:none;stroke-dasharray: 5.67 5.67"
     id="path266" />
  <!-- end of drawing -->
  <path
     style="fill:none;stroke:#000000;stroke-width:1px;stroke-linecap:butt;stroke-linejoin:miter;stroke-opacity:1;marker-end:url(#Arrow1Send)"
     d="m 158.05054,258.30279 -3.2973,0 0.21982,23.30092"
     id="path3426" />
  <path
     style="fill:none;stroke:#000000;stroke-width:1px;stroke-linecap:butt;stroke-linejoin:miter;stroke-opacity:1;marker-end:url(#Arrow1Send)"
     d="m 157.17126,244.89378 -6.37478,0 0,31.65407"
     id="path3428" />
  <path
     style="fill:none;stroke:#000000;stroke-width:1px;stroke-linecap:butt;stroke-linejoin:miter;stroke-opacity:1;marker-end:url(#Arrow1Send)"
     d="m 214.10462,258.08297 -4.61621,0 0.43964,24.1802"
     id="path3430" />
  <path
     style="fill:none;stroke:#000000;stroke-width:1px;stroke-linecap:butt;stroke-linejoin:miter;stroke-opacity:1;marker-end:url(#Arrow1Send)"
     d="m 214.10462,245.33342 -11.43063,0.21982 0.43964,31.43425"
     id="path3432" />
  <path
     style="fill:none;stroke:#000000;stroke-width:1px;stroke-linecap:butt;stroke-linejoin:miter;stroke-opacity:1;marker-end:url(#Arrow1Send)"
     d="m 155.85234,332.82175 -2.41802,0 -0.43964,-41.32615"
     id="path3434" />
  <path
     style="fill:none;stroke:#000000;stroke-width:1px;stroke-linecap:butt;stroke-linejoin:miter;stroke-opacity:1;marker-end:url(#Arrow1Send)"
     d="M 148.15864,336.33887 147.719,306.22354"
     id="path3436" />
  <path
     style="fill:none;stroke:#000000;stroke-width:1px;stroke-linecap:butt;stroke-linejoin:miter;stroke-opacity:1;marker-end:url(#Arrow1Send)"
     d="m 286.64521,267.75505 -5.93514,0 0,9.23244"
     id="path5776" />
</svg>
