<?xml version="1.0" encoding="UTF-8" standalone="no"?>
<svg
   xmlns:dc="http://purl.org/dc/elements/1.1/"
   xmlns:cc="http://creativecommons.org/ns#"
   xmlns:rdf="http://www.w3.org/1999/02/22-rdf-syntax-ns#"
   xmlns:svg="http://www.w3.org/2000/svg"
   xmlns="http://www.w3.org/2000/svg"
   xmlns:sodipodi="http://sodipodi.sourceforge.net/DTD/sodipodi-0.dtd"
   xmlns:inkscape="http://www.inkscape.org/namespaces/inkscape"
   width="566.93"
   height="566.93"
   version="1.0"
   id="svg2"
   sodipodi:version="0.32"
   inkscape:version="0.46"
   sodipodi:docname="vtx-layout.svg"
   inkscape:output_extension="org.inkscape.output.svg.inkscape">
  <metadata
     id="metadata79">
    <rdf:RDF>
      <cc:Work
         rdf:about="">
        <dc:format>image/svg+xml</dc:format>
        <dc:type
           rdf:resource="http://purl.org/dc/dcmitype/StillImage" />
      </cc:Work>
    </rdf:RDF>
  </metadata>
  <defs
     id="defs77">
    <inkscape:perspective
       sodipodi:type="inkscape:persp3d"
       inkscape:vp_x="0 : 283.465 : 1"
       inkscape:vp_y="0 : 1000 : 0"
       inkscape:vp_z="566.92999 : 283.465 : 1"
       inkscape:persp3d-origin="283.465 : 188.97666 : 1"
       id="perspective81" />
  </defs>
  <sodipodi:namedview
     inkscape:window-height="910"
     inkscape:window-width="1287"
     inkscape:pageshadow="2"
     inkscape:pageopacity="0.0"
     guidetolerance="10.0"
     gridtolerance="10.0"
     objecttolerance="10.0"
     borderopacity="1.0"
     bordercolor="#666666"
     pagecolor="#ffffff"
     id="base"
     showgrid="false"
     inkscape:zoom="1.1959149"
     inkscape:cx="283.465"
     inkscape:cy="283.465"
     inkscape:window-x="0"
     inkscape:window-y="25"
     inkscape:current-layer="svg2" />
  <title
     id="title4">Inviscid supersonic vortex -- flow in a bend.</title>
  <desc
     id="desc6">SVG file written by e3prep.py</desc>
<!-- drawing begins here -->  <line
     x1="141.73"
     y1="447.87"
     x2="481.89"
     y2="447.87"
     style="stroke:black;stroke-width:1.42;stroke-linecap:round;fill:none"
     id="line8" />
  <text
     x="311.81"
     y="473.39"
     style="font-size:10;text-anchor:start;fill:black;stroke:none;font-weight:normal;font-family:sanserif"
     id="text10">x</text>
  <line
     x1="141.73"
     y1="447.87"
     x2="141.73"
     y2="442.20"
     style="stroke:black;stroke-width:1.42;stroke-linecap:round;fill:none"
     id="line12" />
  <text
     x="141.73"
     y="462.05"
     style="font-size:10;text-anchor:middle;fill:black;stroke:none;font-weight:normal;font-family:sanserif"
     id="text14">0</text>
  <line
     x1="255.12"
     y1="447.87"
     x2="255.12"
     y2="442.20"
     style="stroke:black;stroke-width:1.42;stroke-linecap:round;fill:none"
     id="line16" />
  <text
     x="255.12"
     y="462.05"
     style="font-size:10;text-anchor:middle;fill:black;stroke:none;font-weight:normal;font-family:sanserif"
     id="text18">0.5</text>
  <line
     x1="368.50"
     y1="447.87"
     x2="368.50"
     y2="442.20"
     style="stroke:black;stroke-width:1.42;stroke-linecap:round;fill:none"
     id="line20" />
  <text
     x="368.50"
     y="462.05"
     style="font-size:10;text-anchor:middle;fill:black;stroke:none;font-weight:normal;font-family:sanserif"
     id="text22">1</text>
  <line
     x1="481.89"
     y1="447.87"
     x2="481.89"
     y2="442.20"
     style="stroke:black;stroke-width:1.42;stroke-linecap:round;fill:none"
     id="line24" />
  <text
     x="481.89"
     y="462.05"
     style="font-size:10;text-anchor:middle;fill:black;stroke:none;font-weight:normal;font-family:sanserif"
     id="text26">1.5</text>
  <line
     x1="119.06"
     y1="425.20"
     x2="119.06"
     y2="85.04"
     style="stroke:black;stroke-width:1.42;stroke-linecap:round;fill:none"
     id="line28" />
  <text
     x="96.38"
     y="255.12"
     style="font-size:10;text-anchor:end;fill:black;stroke:none;font-weight:normal;font-family:sanserif"
     id="text30">y</text>
  <line
     x1="119.06"
     y1="425.20"
     x2="124.72"
     y2="425.20"
     style="stroke:black;stroke-width:1.42;stroke-linecap:round;fill:none"
     id="line32" />
  <text
     x="110.55"
     y="425.20"
     style="font-size:10;text-anchor:end;fill:black;stroke:none;font-weight:normal;font-family:sanserif"
     id="text34">0</text>
  <line
     x1="119.06"
     y1="311.81"
     x2="124.72"
     y2="311.81"
     style="stroke:black;stroke-width:1.42;stroke-linecap:round;fill:none"
     id="line36" />
  <text
     x="110.55"
     y="311.81"
     style="font-size:10;text-anchor:end;fill:black;stroke:none;font-weight:normal;font-family:sanserif"
     id="text38">0.5</text>
  <line
     x1="119.06"
     y1="198.43"
     x2="124.72"
     y2="198.43"
     style="stroke:black;stroke-width:1.42;stroke-linecap:round;fill:none"
     id="line40" />
  <text
     x="110.55"
     y="198.43"
     style="font-size:10;text-anchor:end;fill:black;stroke:none;font-weight:normal;font-family:sanserif"
     id="text42">1</text>
  <line
     x1="119.06"
     y1="85.04"
     x2="124.72"
     y2="85.04"
     style="stroke:black;stroke-width:1.42;stroke-linecap:round;fill:none"
     id="line44" />
  <text
     x="110.55"
     y="85.04"
     style="font-size:10;text-anchor:end;fill:black;stroke:none;font-weight:normal;font-family:sanserif"
     id="text46">1.5</text>
<!-- There are 5 nodes
 -->  <circle
     cx="141.73"
     cy="425.20"
     r="2.83"
     style="fill:black"
     id="circle48" />
  <circle
     cx="141.73"
     cy="198.43"
     r="2.83"
     style="fill:black"
     id="circle50" />
  <circle
     cx="141.73"
     cy="111.34"
     r="2.83"
     style="fill:black"
     id="circle52" />
  <circle
     cx="368.50"
     cy="425.20"
     r="2.83"
     style="fill:black"
     id="circle54" />
  <circle
     cx="455.58"
     cy="425.20"
     r="2.83"
     style="fill:black"
     id="circle56" />
<!-- There are 1 blocks
 --><!-- Render block 0
 -->  <text
     x="328.72424"
     y="235.21217"
     style="font-size:10px;font-weight:normal;text-anchor:middle;fill:#000000;stroke:none;font-family:sanserif"
     id="text58">Duct</text>
  <text
     x="400.13297"
     y="-118.67704"
     transform="matrix(0.7071068,0.7071068,-0.7071068,0.7071068,0,0)"
     style="font-size:10px;font-weight:normal;text-anchor:middle;fill:#000000;stroke:none;font-family:sanserif"
     id="text60">USER_DEFINED</text>
  <path
     d="M 141.73,111.34 L 147.89,111.41 L 154.05,111.59 L 160.21,111.89 L 166.36,112.31 L 172.50,112.86 L 178.62,113.52 L 184.73,114.30 L 190.83,115.21 L 196.91,116.23 L 202.96,117.38 L 208.99,118.64 L 215.00,120.02 L 220.98,121.51 L 226.92,123.13 L 232.84,124.86 L 238.72,126.71 L 244.56,128.67 L 250.36,130.74 L 256.12,132.93 L 261.84,135.24 L 267.51,137.65 L 273.13,140.17 L 278.70,142.81 L 284.22,145.55 L 289.68,148.40 L 295.09,151.36 L 300.43,154.43 L 305.72,157.59 L 310.94,160.87 L 316.10,164.24 L 321.19,167.71 L 326.21,171.29 L 331.16,174.96 L 336.04,178.72 L 340.84,182.59 L 345.56,186.54 L 350.21,190.59 L 354.78,194.73 L 359.26,198.96 L 363.66,203.27 L 367.97,207.67 L 372.20,212.15 L 376.34,216.72 L 380.39,221.37 L 384.34,226.09 L 388.21,230.89 L 391.97,235.77 L 395.64,240.72 L 399.22,245.74 L 402.69,250.83 L 406.06,255.99 L 409.34,261.21 L 412.50,266.50 L 415.57,271.84 L 418.53,277.25 L 421.38,282.71 L 424.12,288.23 L 426.75,293.80 L 429.28,299.42 L 431.69,305.09 L 434.00,310.81 L 436.19,316.57 L 438.26,322.37 L 440.22,328.21 L 442.07,334.09 L 443.80,340.00 L 445.42,345.95 L 446.91,351.93 L 448.29,357.94 L 449.55,363.97 L 450.70,370.02 L 451.72,376.10 L 452.62,382.20 L 453.41,388.31 L 454.07,394.43 L 454.62,400.57 L 455.04,406.72 L 455.34,412.88 L 455.52,419.03 L 455.58,425.20"
     style="stroke:black;stroke-width:0.71;stroke-linecap:round;fill:none"
     id="path62" />
  <text
     x="412.87039"
     y="438.17484"
     style="font-size:10px;font-weight:normal;text-anchor:middle;fill:#000000;stroke:none;font-family:sanserif"
     id="text64">EXTRAPOLATE_OUT</text>
  <path
     d="M 368.50,425.20 L 370.68,425.20 L 372.86,425.20 L 375.03,425.20 L 377.21,425.20 L 379.39,425.20 L 381.57,425.20 L 383.74,425.20 L 385.92,425.20 L 388.10,425.20 L 390.27,425.20 L 392.45,425.20 L 394.63,425.20 L 396.81,425.20 L 398.98,425.20 L 401.16,425.20 L 403.34,425.20 L 405.51,425.20 L 407.69,425.20 L 409.87,425.20 L 412.04,425.20 L 414.22,425.20 L 416.40,425.20 L 418.58,425.20 L 420.75,425.20 L 422.93,425.20 L 425.11,425.20 L 427.28,425.20 L 429.46,425.20 L 431.64,425.20 L 433.81,425.20 L 435.99,425.20 L 438.17,425.20 L 440.35,425.20 L 442.52,425.20 L 444.70,425.20 L 446.88,425.20 L 449.05,425.20 L 451.23,425.20 L 453.41,425.20 L 455.58,425.20"
     style="stroke:black;stroke-width:0.71;stroke-linecap:round;fill:none"
     id="path66" />
  <text
     x="398.38971"
     y="-13.679002"
     transform="matrix(0.7071068,0.7071068,-0.7071068,0.7071068,0,0)"
     style="font-size:10px;font-weight:normal;text-anchor:middle;fill:#000000;stroke:none;font-family:sanserif"
     id="text68">USER_DEFINED</text>
  <path
     d="M 141.73,198.43 L 146.18,198.47 L 150.64,198.60 L 155.08,198.82 L 159.52,199.12 L 163.96,199.52 L 168.39,200.00 L 172.80,200.56 L 177.21,201.22 L 181.60,201.96 L 185.97,202.78 L 190.33,203.69 L 194.67,204.69 L 198.99,205.77 L 203.29,206.94 L 207.56,208.19 L 211.81,209.52 L 216.03,210.94 L 220.22,212.44 L 224.38,214.02 L 228.51,215.69 L 232.61,217.43 L 236.67,219.26 L 240.70,221.16 L 244.68,223.14 L 248.63,225.20 L 252.54,227.34 L 256.40,229.55 L 260.22,231.84 L 263.99,234.21 L 267.72,236.64 L 271.40,239.15 L 275.03,241.73 L 278.60,244.39 L 282.13,247.11 L 285.59,249.90 L 289.01,252.76 L 292.37,255.68 L 295.67,258.67 L 298.90,261.73 L 302.08,264.85 L 305.20,268.02 L 308.26,271.26 L 311.25,274.56 L 314.17,277.92 L 317.03,281.33 L 319.82,284.80 L 322.54,288.33 L 325.19,291.90 L 327.78,295.53 L 330.29,299.21 L 332.72,302.94 L 335.09,306.71 L 337.38,310.53 L 339.59,314.39 L 341.73,318.30 L 343.79,322.24 L 345.77,326.23 L 347.67,330.26 L 349.50,334.32 L 351.24,338.42 L 352.91,342.55 L 354.49,346.71 L 355.99,350.90 L 357.40,355.12 L 358.74,359.37 L 359.99,363.64 L 361.16,367.94 L 362.24,372.26 L 363.24,376.60 L 364.15,380.96 L 364.97,385.33 L 365.71,389.72 L 366.37,394.13 L 366.93,398.54 L 367.41,402.97 L 367.80,407.40 L 368.11,411.85 L 368.33,416.29 L 368.46,420.74 L 368.50,425.20"
     style="stroke:black;stroke-width:0.71;stroke-linecap:round;fill:none"
     id="path70" />
  <text
     x="-155.25433"
     y="136.08278"
     transform="matrix(0,-1,1,0,0,0)"
     style="font-size:10px;font-weight:normal;text-anchor:middle;fill:#000000;stroke:none;font-family:sanserif"
     id="text72">USER_DEFINED</text>
  <path
     d="M 141.73,198.43 L 141.73,196.25 L 141.73,194.07 L 141.73,191.89 L 141.73,189.72 L 141.73,187.54 L 141.73,185.36 L 141.73,183.19 L 141.73,181.01 L 141.73,178.83 L 141.73,176.66 L 141.73,174.48 L 141.73,172.30 L 141.73,170.12 L 141.73,167.95 L 141.73,165.77 L 141.73,163.59 L 141.73,161.42 L 141.73,159.24 L 141.73,157.06 L 141.73,154.89 L 141.73,152.71 L 141.73,150.53 L 141.73,148.35 L 141.73,146.18 L 141.73,144.00 L 141.73,141.82 L 141.73,139.65 L 141.73,137.47 L 141.73,135.29 L 141.73,133.11 L 141.73,130.94 L 141.73,128.76 L 141.73,126.58 L 141.73,124.41 L 141.73,122.23 L 141.73,120.05 L 141.73,117.88 L 141.73,115.70 L 141.73,113.52 L 141.73,111.34"
     style="stroke:black;stroke-width:0.71;stroke-linecap:round;fill:none"
     id="path74" />
<!-- end of drawing --></svg>
