<?xml version="1.0" encoding="UTF-8" standalone="no"?>
<svg
   xmlns:dc="http://purl.org/dc/elements/1.1/"
   xmlns:cc="http://creativecommons.org/ns#"
   xmlns:rdf="http://www.w3.org/1999/02/22-rdf-syntax-ns#"
   xmlns:svg="http://www.w3.org/2000/svg"
   xmlns="http://www.w3.org/2000/svg"
   xmlns:sodipodi="http://sodipodi.sourceforge.net/DTD/sodipodi-0.dtd"
   xmlns:inkscape="http://www.inkscape.org/namespaces/inkscape"
   width="566.93"
   height="566.93"
   version="1.0"
   id="svg2"
   inkscape:version="0.48.3.1 r9886"
   sodipodi:docname="cavity-edited.pdf">
  <metadata
     id="metadata260">
    <rdf:RDF>
      <cc:Work
         rdf:about="">
        <dc:format>image/svg+xml</dc:format>
        <dc:type
           rdf:resource="http://purl.org/dc/dcmitype/StillImage" />
        <dc:title>Shear-driven cavity flow Ghia et al. 1982</dc:title>
      </cc:Work>
    </rdf:RDF>
  </metadata>
  <defs
     id="defs258" />
  <sodipodi:namedview
     pagecolor="#ffffff"
     bordercolor="#666666"
     borderopacity="1"
     objecttolerance="10"
     gridtolerance="10"
     guidetolerance="10"
     inkscape:pageopacity="0"
     inkscape:pageshadow="2"
     inkscape:window-width="1555"
     inkscape:window-height="998"
     id="namedview256"
     showgrid="false"
     inkscape:zoom="2.234933"
     inkscape:cx="265.87862"
     inkscape:cy="261.92443"
     inkscape:window-x="0"
     inkscape:window-y="0"
     inkscape:window-maximized="0"
     inkscape:current-layer="svg2" />
  <title
     id="title4">Shear-driven cavity flow Ghia et al. 1982</title>
  <desc
     id="desc6">SVG file written by e3prep.py</desc>
  <!-- drawing begins here -->
  <line
     x1="141.73"
     y1="453.54"
     x2="425.20"
     y2="453.54"
     style="stroke:black;stroke-width:1.42;stroke-linecap:round;fill:none"
     id="line8" />
  <text
     x="283.46"
     y="479.06"
     style="font-size:10;text-anchor:start;fill:black;stroke:none;font-weight:normal;font-family:sanserif"
     id="text10">x</text>
  <line
     x1="141.73"
     y1="453.54"
     x2="141.73"
     y2="447.87"
     style="stroke:black;stroke-width:1.42;stroke-linecap:round;fill:none"
     id="line12" />
  <text
     x="141.73"
     y="467.72"
     style="font-size:10;text-anchor:middle;fill:black;stroke:none;font-weight:normal;font-family:sanserif"
     id="text14">0</text>
  <line
     x1="198.43"
     y1="453.54"
     x2="198.43"
     y2="447.87"
     style="stroke:black;stroke-width:1.42;stroke-linecap:round;fill:none"
     id="line16" />
  <text
     x="198.43"
     y="467.72"
     style="font-size:10;text-anchor:middle;fill:black;stroke:none;font-weight:normal;font-family:sanserif"
     id="text18">0.2</text>
  <line
     x1="255.12"
     y1="453.54"
     x2="255.12"
     y2="447.87"
     style="stroke:black;stroke-width:1.42;stroke-linecap:round;fill:none"
     id="line20" />
  <text
     x="255.12"
     y="467.72"
     style="font-size:10;text-anchor:middle;fill:black;stroke:none;font-weight:normal;font-family:sanserif"
     id="text22">0.4</text>
  <line
     x1="311.81"
     y1="453.54"
     x2="311.81"
     y2="447.87"
     style="stroke:black;stroke-width:1.42;stroke-linecap:round;fill:none"
     id="line24" />
  <text
     x="311.81"
     y="467.72"
     style="font-size:10;text-anchor:middle;fill:black;stroke:none;font-weight:normal;font-family:sanserif"
     id="text26">0.6</text>
  <line
     x1="368.50"
     y1="453.54"
     x2="368.50"
     y2="447.87"
     style="stroke:black;stroke-width:1.42;stroke-linecap:round;fill:none"
     id="line28" />
  <text
     x="368.50"
     y="467.72"
     style="font-size:10;text-anchor:middle;fill:black;stroke:none;font-weight:normal;font-family:sanserif"
     id="text30">0.8</text>
  <line
     x1="425.20"
     y1="453.54"
     x2="425.20"
     y2="447.87"
     style="stroke:black;stroke-width:1.42;stroke-linecap:round;fill:none"
     id="line32" />
  <text
     x="425.20"
     y="467.72"
     style="font-size:10;text-anchor:middle;fill:black;stroke:none;font-weight:normal;font-family:sanserif"
     id="text34">1</text>
  <line
     x1="113.39"
     y1="425.20"
     x2="113.39"
     y2="141.73"
     style="stroke:black;stroke-width:1.42;stroke-linecap:round;fill:none"
     id="line36" />
  <text
     x="90.71"
     y="283.46"
     style="font-size:10;text-anchor:end;fill:black;stroke:none;font-weight:normal;font-family:sanserif"
     id="text38">y</text>
  <line
     x1="113.39"
     y1="425.20"
     x2="119.06"
     y2="425.20"
     style="stroke:black;stroke-width:1.42;stroke-linecap:round;fill:none"
     id="line40" />
  <text
     x="104.88"
     y="425.20"
     style="font-size:10;text-anchor:end;fill:black;stroke:none;font-weight:normal;font-family:sanserif"
     id="text42">0</text>
  <line
     x1="113.39"
     y1="368.50"
     x2="119.06"
     y2="368.50"
     style="stroke:black;stroke-width:1.42;stroke-linecap:round;fill:none"
     id="line44" />
  <text
     x="104.88"
     y="368.50"
     style="font-size:10;text-anchor:end;fill:black;stroke:none;font-weight:normal;font-family:sanserif"
     id="text46">0.2</text>
  <line
     x1="113.39"
     y1="311.81"
     x2="119.06"
     y2="311.81"
     style="stroke:black;stroke-width:1.42;stroke-linecap:round;fill:none"
     id="line48" />
  <text
     x="104.88"
     y="311.81"
     style="font-size:10;text-anchor:end;fill:black;stroke:none;font-weight:normal;font-family:sanserif"
     id="text50">0.4</text>
  <line
     x1="113.39"
     y1="255.12"
     x2="119.06"
     y2="255.12"
     style="stroke:black;stroke-width:1.42;stroke-linecap:round;fill:none"
     id="line52" />
  <text
     x="104.88"
     y="255.12"
     style="font-size:10;text-anchor:end;fill:black;stroke:none;font-weight:normal;font-family:sanserif"
     id="text54">0.6</text>
  <line
     x1="113.39"
     y1="198.43"
     x2="119.06"
     y2="198.43"
     style="stroke:black;stroke-width:1.42;stroke-linecap:round;fill:none"
     id="line56" />
  <text
     x="104.88"
     y="198.43"
     style="font-size:10;text-anchor:end;fill:black;stroke:none;font-weight:normal;font-family:sanserif"
     id="text58">0.8</text>
  <line
     x1="113.39"
     y1="141.73"
     x2="119.06"
     y2="141.73"
     style="stroke:black;stroke-width:1.42;stroke-linecap:round;fill:none"
     id="line60" />
  <text
     x="104.88"
     y="141.73"
     style="font-size:10;text-anchor:end;fill:black;stroke:none;font-weight:normal;font-family:sanserif"
     id="text62">1</text>
  <!-- There are 0 nodes
 -->
  <!-- There are 16 blocks
 -->
  <!-- Render block 0
 -->
  <text
     x="162.21672"
     y="408.14441"
     style="font-size:10px;font-weight:normal;text-anchor:middle;fill:#000000;stroke:none;font-family:sanserif"
     id="text64">sblk-0-0</text>
  <path
     d="M 141.73,383.52 L 142.39,383.52 L 143.08,383.52 L 143.79,383.52 L 144.54,383.52 L 145.32,383.52 L 146.14,383.52 L 146.98,383.52 L 147.87,383.52 L 148.79,383.52 L 149.75,383.52 L 150.75,383.52 L 151.79,383.52 L 152.88,383.52 L 154.01,383.52 L 155.18,383.52 L 156.40,383.52 L 157.67,383.52 L 158.99,383.52 L 160.36,383.52 L 161.79,383.52 L 163.26,383.52 L 164.79,383.52 L 166.38,383.52 L 168.03,383.52 L 169.73,383.52 L 171.50,383.52 L 173.33,383.52 L 175.21,383.52 L 177.17,383.52 L 179.18,383.52 L 181.27,383.52 L 183.41,383.52"
     style="stroke:black;stroke-width:0.71;stroke-linecap:round;fill:none;stroke-dasharray: 5.67 5.67"
     id="path66" />
  <path
     d="M 183.41,425.20 L 183.41,424.54 L 183.41,423.85 L 183.41,423.14 L 183.41,422.39 L 183.41,421.61 L 183.41,420.79 L 183.41,419.95 L 183.41,419.06 L 183.41,418.14 L 183.41,417.18 L 183.41,416.18 L 183.41,415.13 L 183.41,414.05 L 183.41,412.92 L 183.41,411.75 L 183.41,410.53 L 183.41,409.26 L 183.41,407.94 L 183.41,406.57 L 183.41,405.14 L 183.41,403.67 L 183.41,402.13 L 183.41,400.55 L 183.41,398.90 L 183.41,397.20 L 183.41,395.43 L 183.41,393.60 L 183.41,391.71 L 183.41,389.76 L 183.41,387.75 L 183.41,385.66 L 183.41,383.52"
     style="stroke:black;stroke-width:0.71;stroke-linecap:round;fill:none;stroke-dasharray: 5.67 5.67"
     id="path68" />
  <path
     d="M 141.73,425.20 L 142.39,425.20 L 143.08,425.20 L 143.79,425.20 L 144.54,425.20 L 145.32,425.20 L 146.14,425.20 L 146.98,425.20 L 147.87,425.20 L 148.79,425.20 L 149.75,425.20 L 150.75,425.20 L 151.79,425.20 L 152.88,425.20 L 154.01,425.20 L 155.18,425.20 L 156.40,425.20 L 157.67,425.20 L 158.99,425.20 L 160.36,425.20 L 161.79,425.20 L 163.26,425.20 L 164.79,425.20 L 166.38,425.20 L 168.03,425.20 L 169.73,425.20 L 171.50,425.20 L 173.33,425.20 L 175.21,425.20 L 177.17,425.20 L 179.18,425.20 L 181.27,425.20 L 183.41,425.20"
     style="stroke:black;stroke-width:0.71;stroke-linecap:round;fill:none"
     id="path72" />
  <path
     d="M 141.73,425.20 L 141.73,424.54 L 141.73,423.85 L 141.73,423.14 L 141.73,422.39 L 141.73,421.61 L 141.73,420.79 L 141.73,419.95 L 141.73,419.06 L 141.73,418.14 L 141.73,417.18 L 141.73,416.18 L 141.73,415.13 L 141.73,414.05 L 141.73,412.92 L 141.73,411.75 L 141.73,410.53 L 141.73,409.26 L 141.73,407.94 L 141.73,406.57 L 141.73,405.14 L 141.73,403.67 L 141.73,402.13 L 141.73,400.55 L 141.73,398.90 L 141.73,397.20 L 141.73,395.43 L 141.73,393.60 L 141.73,391.71 L 141.73,389.76 L 141.73,387.75 L 141.73,385.66 L 141.73,383.52"
     style="stroke:black;stroke-width:0.71;stroke-linecap:round;fill:none"
     id="path76" />
  <!-- Render block 1
 -->
  <text
     x="162.66417"
     y="339.01044"
     style="font-size:10px;font-weight:normal;text-anchor:middle;fill:#000000;stroke:none;font-family:sanserif"
     id="text78">sblk-0-1</text>
  <path
     d="M 141.73,283.46 L 142.39,283.46 L 143.08,283.46 L 143.79,283.46 L 144.54,283.46 L 145.32,283.46 L 146.14,283.46 L 146.98,283.46 L 147.87,283.46 L 148.79,283.46 L 149.75,283.46 L 150.75,283.46 L 151.79,283.46 L 152.88,283.46 L 154.01,283.46 L 155.18,283.46 L 156.40,283.46 L 157.67,283.46 L 158.99,283.46 L 160.36,283.46 L 161.79,283.46 L 163.26,283.46 L 164.79,283.46 L 166.38,283.46 L 168.03,283.46 L 169.73,283.46 L 171.50,283.46 L 173.33,283.46 L 175.21,283.46 L 177.17,283.46 L 179.18,283.46 L 181.27,283.46 L 183.41,283.46"
     style="stroke:black;stroke-width:0.71;stroke-linecap:round;fill:none;stroke-dasharray: 5.67 5.67"
     id="path80" />
  <path
     d="M 183.41,383.52 L 183.41,381.30 L 183.41,379.02 L 183.41,376.67 L 183.41,374.25 L 183.41,371.77 L 183.41,369.22 L 183.41,366.60 L 183.41,363.91 L 183.41,361.15 L 183.41,358.33 L 183.41,355.45 L 183.41,352.50 L 183.41,349.49 L 183.41,346.41 L 183.41,343.28 L 183.41,340.09 L 183.41,336.84 L 183.41,333.54 L 183.41,330.19 L 183.41,326.79 L 183.41,323.35 L 183.41,319.86 L 183.41,316.34 L 183.41,312.78 L 183.41,309.19 L 183.41,305.56 L 183.41,301.92 L 183.41,298.25 L 183.41,294.57 L 183.41,290.88 L 183.41,287.17 L 183.41,283.46"
     style="stroke:black;stroke-width:0.71;stroke-linecap:round;fill:none;stroke-dasharray: 5.67 5.67"
     id="path82" />
  <path
     d="M 141.73,383.52 L 142.39,383.52 L 143.08,383.52 L 143.79,383.52 L 144.54,383.52 L 145.32,383.52 L 146.14,383.52 L 146.98,383.52 L 147.87,383.52 L 148.79,383.52 L 149.75,383.52 L 150.75,383.52 L 151.79,383.52 L 152.88,383.52 L 154.01,383.52 L 155.18,383.52 L 156.40,383.52 L 157.67,383.52 L 158.99,383.52 L 160.36,383.52 L 161.79,383.52 L 163.26,383.52 L 164.79,383.52 L 166.38,383.52 L 168.03,383.52 L 169.73,383.52 L 171.50,383.52 L 173.33,383.52 L 175.21,383.52 L 177.17,383.52 L 179.18,383.52 L 181.27,383.52 L 183.41,383.52"
     style="stroke:black;stroke-width:0.71;stroke-linecap:round;fill:none;stroke-dasharray: 5.67 5.67"
     id="path84" />
  <text
     x="-283.96014"
     y="135.46582"
     transform="matrix(0,-1,1,0,0,0)"
     style="font-size:10px;font-weight:normal;text-anchor:middle;fill:#000000;stroke:none;font-family:sanserif"
     id="text86">ADIABATIC</text>
  <path
     d="M 141.73,383.52 L 141.73,381.30 L 141.73,379.02 L 141.73,376.67 L 141.73,374.25 L 141.73,371.77 L 141.73,369.22 L 141.73,366.60 L 141.73,363.91 L 141.73,361.15 L 141.73,358.33 L 141.73,355.45 L 141.73,352.50 L 141.73,349.49 L 141.73,346.41 L 141.73,343.28 L 141.73,340.09 L 141.73,336.84 L 141.73,333.54 L 141.73,330.19 L 141.73,326.79 L 141.73,323.35 L 141.73,319.86 L 141.73,316.34 L 141.73,312.78 L 141.73,309.19 L 141.73,305.56 L 141.73,301.92 L 141.73,298.25 L 141.73,294.57 L 141.73,290.88 L 141.73,287.17 L 141.73,283.46"
     style="stroke:black;stroke-width:0.71;stroke-linecap:round;fill:none"
     id="path88" />
  <!-- Render block 2
 -->
  <text
     x="162.21672"
     y="237.43156"
     style="font-size:10px;font-weight:normal;text-anchor:middle;fill:#000000;stroke:none;font-family:sanserif"
     id="text90">sblk-0-2</text>
  <path
     d="M 141.73,183.41 L 142.39,183.41 L 143.08,183.41 L 143.79,183.41 L 144.54,183.41 L 145.32,183.41 L 146.14,183.41 L 146.98,183.41 L 147.87,183.41 L 148.79,183.41 L 149.75,183.41 L 150.75,183.41 L 151.79,183.41 L 152.88,183.41 L 154.01,183.41 L 155.18,183.41 L 156.40,183.41 L 157.67,183.41 L 158.99,183.41 L 160.36,183.41 L 161.79,183.41 L 163.26,183.41 L 164.79,183.41 L 166.38,183.41 L 168.03,183.41 L 169.73,183.41 L 171.50,183.41 L 173.33,183.41 L 175.21,183.41 L 177.17,183.41 L 179.18,183.41 L 181.27,183.41 L 183.41,183.41"
     style="stroke:black;stroke-width:0.71;stroke-linecap:round;fill:none;stroke-dasharray: 5.67 5.67"
     id="path92" />
  <path
     d="M 183.41,283.46 L 183.41,279.76 L 183.41,276.05 L 183.41,272.36 L 183.41,268.68 L 183.41,265.01 L 183.41,261.36 L 183.41,257.74 L 183.41,254.15 L 183.41,250.59 L 183.41,247.07 L 183.41,243.58 L 183.41,240.14 L 183.41,236.74 L 183.41,233.39 L 183.41,230.09 L 183.41,226.84 L 183.41,223.65 L 183.41,220.52 L 183.41,217.44 L 183.41,214.43 L 183.41,211.48 L 183.41,208.59 L 183.41,205.77 L 183.41,203.02 L 183.41,200.33 L 183.41,197.71 L 183.41,195.16 L 183.41,192.68 L 183.41,190.26 L 183.41,187.91 L 183.41,185.63 L 183.41,183.41"
     style="stroke:black;stroke-width:0.71;stroke-linecap:round;fill:none;stroke-dasharray: 5.67 5.67"
     id="path94" />
  <path
     d="M 141.73,283.46 L 142.39,283.46 L 143.08,283.46 L 143.79,283.46 L 144.54,283.46 L 145.32,283.46 L 146.14,283.46 L 146.98,283.46 L 147.87,283.46 L 148.79,283.46 L 149.75,283.46 L 150.75,283.46 L 151.79,283.46 L 152.88,283.46 L 154.01,283.46 L 155.18,283.46 L 156.40,283.46 L 157.67,283.46 L 158.99,283.46 L 160.36,283.46 L 161.79,283.46 L 163.26,283.46 L 164.79,283.46 L 166.38,283.46 L 168.03,283.46 L 169.73,283.46 L 171.50,283.46 L 173.33,283.46 L 175.21,283.46 L 177.17,283.46 L 179.18,283.46 L 181.27,283.46 L 183.41,283.46"
     style="stroke:black;stroke-width:0.71;stroke-linecap:round;fill:none;stroke-dasharray: 5.67 5.67"
     id="path96" />
  <path
     d="M 141.73,283.46 L 141.73,279.76 L 141.73,276.05 L 141.73,272.36 L 141.73,268.68 L 141.73,265.01 L 141.73,261.36 L 141.73,257.74 L 141.73,254.15 L 141.73,250.59 L 141.73,247.07 L 141.73,243.58 L 141.73,240.14 L 141.73,236.74 L 141.73,233.39 L 141.73,230.09 L 141.73,226.84 L 141.73,223.65 L 141.73,220.52 L 141.73,217.44 L 141.73,214.43 L 141.73,211.48 L 141.73,208.59 L 141.73,205.77 L 141.73,203.02 L 141.73,200.33 L 141.73,197.71 L 141.73,195.16 L 141.73,192.68 L 141.73,190.26 L 141.73,187.91 L 141.73,185.63 L 141.73,183.41"
     style="stroke:black;stroke-width:0.71;stroke-linecap:round;fill:none"
     id="path100" />
  <!-- Render block 3
 -->
  <text
     x="162.21672"
     y="165.51555"
     style="font-size:10px;font-weight:normal;text-anchor:middle;fill:#000000;stroke:none;font-family:sanserif"
     id="text102">sblk-0-3</text>
  <path
     d="M 141.73,141.73 L 142.39,141.73 L 143.08,141.73 L 143.79,141.73 L 144.54,141.73 L 145.32,141.73 L 146.14,141.73 L 146.98,141.73 L 147.87,141.73 L 148.79,141.73 L 149.75,141.73 L 150.75,141.73 L 151.79,141.73 L 152.88,141.73 L 154.01,141.73 L 155.18,141.73 L 156.40,141.73 L 157.67,141.73 L 158.99,141.73 L 160.36,141.73 L 161.79,141.73 L 163.26,141.73 L 164.79,141.73 L 166.38,141.73 L 168.03,141.73 L 169.73,141.73 L 171.50,141.73 L 173.33,141.73 L 175.21,141.73 L 177.17,141.73 L 179.18,141.73 L 181.27,141.73 L 183.41,141.73"
     style="stroke:black;stroke-width:0.71;stroke-linecap:round;fill:none"
     id="path106" />
  <path
     d="M 183.41,183.41 L 183.41,181.27 L 183.41,179.18 L 183.41,177.17 L 183.41,175.21 L 183.41,173.33 L 183.41,171.50 L 183.41,169.73 L 183.41,168.03 L 183.41,166.38 L 183.41,164.79 L 183.41,163.26 L 183.41,161.79 L 183.41,160.36 L 183.41,158.99 L 183.41,157.67 L 183.41,156.40 L 183.41,155.18 L 183.41,154.01 L 183.41,152.88 L 183.41,151.79 L 183.41,150.75 L 183.41,149.75 L 183.41,148.79 L 183.41,147.87 L 183.41,146.98 L 183.41,146.14 L 183.41,145.32 L 183.41,144.54 L 183.41,143.79 L 183.41,143.08 L 183.41,142.39 L 183.41,141.73"
     style="stroke:black;stroke-width:0.71;stroke-linecap:round;fill:none;stroke-dasharray: 5.67 5.67"
     id="path108" />
  <path
     d="M 141.73,183.41 L 142.39,183.41 L 143.08,183.41 L 143.79,183.41 L 144.54,183.41 L 145.32,183.41 L 146.14,183.41 L 146.98,183.41 L 147.87,183.41 L 148.79,183.41 L 149.75,183.41 L 150.75,183.41 L 151.79,183.41 L 152.88,183.41 L 154.01,183.41 L 155.18,183.41 L 156.40,183.41 L 157.67,183.41 L 158.99,183.41 L 160.36,183.41 L 161.79,183.41 L 163.26,183.41 L 164.79,183.41 L 166.38,183.41 L 168.03,183.41 L 169.73,183.41 L 171.50,183.41 L 173.33,183.41 L 175.21,183.41 L 177.17,183.41 L 179.18,183.41 L 181.27,183.41 L 183.41,183.41"
     style="stroke:black;stroke-width:0.71;stroke-linecap:round;fill:none;stroke-dasharray: 5.67 5.67"
     id="path110" />
  <path
     d="M 141.73,183.41 L 141.73,181.27 L 141.73,179.18 L 141.73,177.17 L 141.73,175.21 L 141.73,173.33 L 141.73,171.50 L 141.73,169.73 L 141.73,168.03 L 141.73,166.38 L 141.73,164.79 L 141.73,163.26 L 141.73,161.79 L 141.73,160.36 L 141.73,158.99 L 141.73,157.67 L 141.73,156.40 L 141.73,155.18 L 141.73,154.01 L 141.73,152.88 L 141.73,151.79 L 141.73,150.75 L 141.73,149.75 L 141.73,148.79 L 141.73,147.87 L 141.73,146.98 L 141.73,146.14 L 141.73,145.32 L 141.73,144.54 L 141.73,143.79 L 141.73,143.08 L 141.73,142.39 L 141.73,141.73"
     style="stroke:black;stroke-width:0.71;stroke-linecap:round;fill:none"
     id="path114" />
  <!-- Render block 4
 -->
  <text
     x="230.41953"
     y="407.69699"
     style="font-size:10px;font-weight:normal;text-anchor:middle;fill:#000000;stroke:none;font-family:sanserif"
     id="text116">sblk-1-0</text>
  <path
     d="M 183.41,383.52 L 185.63,383.52 L 187.91,383.52 L 190.26,383.52 L 192.68,383.52 L 195.16,383.52 L 197.71,383.52 L 200.33,383.52 L 203.02,383.52 L 205.77,383.52 L 208.59,383.52 L 211.48,383.52 L 214.43,383.52 L 217.44,383.52 L 220.52,383.52 L 223.65,383.52 L 226.84,383.52 L 230.09,383.52 L 233.39,383.52 L 236.74,383.52 L 240.14,383.52 L 243.58,383.52 L 247.07,383.52 L 250.59,383.52 L 254.15,383.52 L 257.74,383.52 L 261.36,383.52 L 265.01,383.52 L 268.68,383.52 L 272.36,383.52 L 276.05,383.52 L 279.76,383.52 L 283.46,383.52"
     style="stroke:black;stroke-width:0.71;stroke-linecap:round;fill:none;stroke-dasharray: 5.67 5.67"
     id="path118" />
  <path
     d="M 283.46,425.20 L 283.46,424.54 L 283.46,423.85 L 283.46,423.14 L 283.46,422.39 L 283.46,421.61 L 283.46,420.79 L 283.46,419.95 L 283.46,419.06 L 283.46,418.14 L 283.46,417.18 L 283.46,416.18 L 283.46,415.13 L 283.46,414.05 L 283.46,412.92 L 283.46,411.75 L 283.46,410.53 L 283.46,409.26 L 283.46,407.94 L 283.46,406.57 L 283.46,405.14 L 283.46,403.67 L 283.46,402.13 L 283.46,400.55 L 283.46,398.90 L 283.46,397.20 L 283.46,395.43 L 283.46,393.60 L 283.46,391.71 L 283.46,389.76 L 283.46,387.75 L 283.46,385.66 L 283.46,383.52"
     style="stroke:black;stroke-width:0.71;stroke-linecap:round;fill:none;stroke-dasharray: 5.67 5.67"
     id="path120" />
  <text
     x="282.51242"
     y="437.28091"
     style="font-size:10px;font-weight:normal;text-anchor:middle;fill:#000000;stroke:none;font-family:sanserif"
     id="text122">ADIABATIC</text>
  <path
     d="M 183.41,425.20 L 185.63,425.20 L 187.91,425.20 L 190.26,425.20 L 192.68,425.20 L 195.16,425.20 L 197.71,425.20 L 200.33,425.20 L 203.02,425.20 L 205.77,425.20 L 208.59,425.20 L 211.48,425.20 L 214.43,425.20 L 217.44,425.20 L 220.52,425.20 L 223.65,425.20 L 226.84,425.20 L 230.09,425.20 L 233.39,425.20 L 236.74,425.20 L 240.14,425.20 L 243.58,425.20 L 247.07,425.20 L 250.59,425.20 L 254.15,425.20 L 257.74,425.20 L 261.36,425.20 L 265.01,425.20 L 268.68,425.20 L 272.36,425.20 L 276.05,425.20 L 279.76,425.20 L 283.46,425.20"
     style="stroke:black;stroke-width:0.71;stroke-linecap:round;fill:none"
     id="path124" />
  <path
     d="M 183.41,425.20 L 183.41,424.54 L 183.41,423.85 L 183.41,423.14 L 183.41,422.39 L 183.41,421.61 L 183.41,420.79 L 183.41,419.95 L 183.41,419.06 L 183.41,418.14 L 183.41,417.18 L 183.41,416.18 L 183.41,415.13 L 183.41,414.05 L 183.41,412.92 L 183.41,411.75 L 183.41,410.53 L 183.41,409.26 L 183.41,407.94 L 183.41,406.57 L 183.41,405.14 L 183.41,403.67 L 183.41,402.13 L 183.41,400.55 L 183.41,398.90 L 183.41,397.20 L 183.41,395.43 L 183.41,393.60 L 183.41,391.71 L 183.41,389.76 L 183.41,387.75 L 183.41,385.66 L 183.41,383.52"
     style="stroke:black;stroke-width:0.71;stroke-linecap:round;fill:none;stroke-dasharray: 5.67 5.67"
     id="path126" />
  <!-- Render block 5
 -->
  <text
     x="229.97208"
     y="339.01044"
     style="font-size:10px;font-weight:normal;text-anchor:middle;fill:#000000;stroke:none;font-family:sanserif"
     id="text128">sblk-1-1</text>
  <path
     d="M 183.41,283.46 L 185.63,283.46 L 187.91,283.46 L 190.26,283.46 L 192.68,283.46 L 195.16,283.46 L 197.71,283.46 L 200.33,283.46 L 203.02,283.46 L 205.77,283.46 L 208.59,283.46 L 211.48,283.46 L 214.43,283.46 L 217.44,283.46 L 220.52,283.46 L 223.65,283.46 L 226.84,283.46 L 230.09,283.46 L 233.39,283.46 L 236.74,283.46 L 240.14,283.46 L 243.58,283.46 L 247.07,283.46 L 250.59,283.46 L 254.15,283.46 L 257.74,283.46 L 261.36,283.46 L 265.01,283.46 L 268.68,283.46 L 272.36,283.46 L 276.05,283.46 L 279.76,283.46 L 283.46,283.46"
     style="stroke:black;stroke-width:0.71;stroke-linecap:round;fill:none;stroke-dasharray: 5.67 5.67"
     id="path130" />
  <path
     d="M 283.46,383.52 L 283.46,381.30 L 283.46,379.02 L 283.46,376.67 L 283.46,374.25 L 283.46,371.77 L 283.46,369.22 L 283.46,366.60 L 283.46,363.91 L 283.46,361.15 L 283.46,358.33 L 283.46,355.45 L 283.46,352.50 L 283.46,349.49 L 283.46,346.41 L 283.46,343.28 L 283.46,340.09 L 283.46,336.84 L 283.46,333.54 L 283.46,330.19 L 283.46,326.79 L 283.46,323.35 L 283.46,319.86 L 283.46,316.34 L 283.46,312.78 L 283.46,309.19 L 283.46,305.56 L 283.46,301.92 L 283.46,298.25 L 283.46,294.57 L 283.46,290.88 L 283.46,287.17 L 283.46,283.46"
     style="stroke:black;stroke-width:0.71;stroke-linecap:round;fill:none;stroke-dasharray: 5.67 5.67"
     id="path132" />
  <path
     d="M 183.41,383.52 L 185.63,383.52 L 187.91,383.52 L 190.26,383.52 L 192.68,383.52 L 195.16,383.52 L 197.71,383.52 L 200.33,383.52 L 203.02,383.52 L 205.77,383.52 L 208.59,383.52 L 211.48,383.52 L 214.43,383.52 L 217.44,383.52 L 220.52,383.52 L 223.65,383.52 L 226.84,383.52 L 230.09,383.52 L 233.39,383.52 L 236.74,383.52 L 240.14,383.52 L 243.58,383.52 L 247.07,383.52 L 250.59,383.52 L 254.15,383.52 L 257.74,383.52 L 261.36,383.52 L 265.01,383.52 L 268.68,383.52 L 272.36,383.52 L 276.05,383.52 L 279.76,383.52 L 283.46,383.52"
     style="stroke:black;stroke-width:0.71;stroke-linecap:round;fill:none;stroke-dasharray: 5.67 5.67"
     id="path134" />
  <path
     d="M 183.41,383.52 L 183.41,381.30 L 183.41,379.02 L 183.41,376.67 L 183.41,374.25 L 183.41,371.77 L 183.41,369.22 L 183.41,366.60 L 183.41,363.91 L 183.41,361.15 L 183.41,358.33 L 183.41,355.45 L 183.41,352.50 L 183.41,349.49 L 183.41,346.41 L 183.41,343.28 L 183.41,340.09 L 183.41,336.84 L 183.41,333.54 L 183.41,330.19 L 183.41,326.79 L 183.41,323.35 L 183.41,319.86 L 183.41,316.34 L 183.41,312.78 L 183.41,309.19 L 183.41,305.56 L 183.41,301.92 L 183.41,298.25 L 183.41,294.57 L 183.41,290.88 L 183.41,287.17 L 183.41,283.46"
     style="stroke:black;stroke-width:0.71;stroke-linecap:round;fill:none;stroke-dasharray: 5.67 5.67"
     id="path136" />
  <!-- Render block 6
 -->
  <text
     x="229.07719"
     y="237.43156"
     style="font-size:10px;font-weight:normal;text-anchor:middle;fill:#000000;stroke:none;font-family:sanserif"
     id="text138">sblk-1-2</text>
  <path
     d="M 183.41,183.41 L 185.63,183.41 L 187.91,183.41 L 190.26,183.41 L 192.68,183.41 L 195.16,183.41 L 197.71,183.41 L 200.33,183.41 L 203.02,183.41 L 205.77,183.41 L 208.59,183.41 L 211.48,183.41 L 214.43,183.41 L 217.44,183.41 L 220.52,183.41 L 223.65,183.41 L 226.84,183.41 L 230.09,183.41 L 233.39,183.41 L 236.74,183.41 L 240.14,183.41 L 243.58,183.41 L 247.07,183.41 L 250.59,183.41 L 254.15,183.41 L 257.74,183.41 L 261.36,183.41 L 265.01,183.41 L 268.68,183.41 L 272.36,183.41 L 276.05,183.41 L 279.76,183.41 L 283.46,183.41"
     style="stroke:black;stroke-width:0.71;stroke-linecap:round;fill:none;stroke-dasharray: 5.67 5.67"
     id="path140" />
  <path
     d="M 283.46,283.46 L 283.46,279.76 L 283.46,276.05 L 283.46,272.36 L 283.46,268.68 L 283.46,265.01 L 283.46,261.36 L 283.46,257.74 L 283.46,254.15 L 283.46,250.59 L 283.46,247.07 L 283.46,243.58 L 283.46,240.14 L 283.46,236.74 L 283.46,233.39 L 283.46,230.09 L 283.46,226.84 L 283.46,223.65 L 283.46,220.52 L 283.46,217.44 L 283.46,214.43 L 283.46,211.48 L 283.46,208.59 L 283.46,205.77 L 283.46,203.02 L 283.46,200.33 L 283.46,197.71 L 283.46,195.16 L 283.46,192.68 L 283.46,190.26 L 283.46,187.91 L 283.46,185.63 L 283.46,183.41"
     style="stroke:black;stroke-width:0.71;stroke-linecap:round;fill:none;stroke-dasharray: 5.67 5.67"
     id="path142" />
  <path
     d="M 183.41,283.46 L 185.63,283.46 L 187.91,283.46 L 190.26,283.46 L 192.68,283.46 L 195.16,283.46 L 197.71,283.46 L 200.33,283.46 L 203.02,283.46 L 205.77,283.46 L 208.59,283.46 L 211.48,283.46 L 214.43,283.46 L 217.44,283.46 L 220.52,283.46 L 223.65,283.46 L 226.84,283.46 L 230.09,283.46 L 233.39,283.46 L 236.74,283.46 L 240.14,283.46 L 243.58,283.46 L 247.07,283.46 L 250.59,283.46 L 254.15,283.46 L 257.74,283.46 L 261.36,283.46 L 265.01,283.46 L 268.68,283.46 L 272.36,283.46 L 276.05,283.46 L 279.76,283.46 L 283.46,283.46"
     style="stroke:black;stroke-width:0.71;stroke-linecap:round;fill:none;stroke-dasharray: 5.67 5.67"
     id="path144" />
  <path
     d="M 183.41,283.46 L 183.41,279.76 L 183.41,276.05 L 183.41,272.36 L 183.41,268.68 L 183.41,265.01 L 183.41,261.36 L 183.41,257.74 L 183.41,254.15 L 183.41,250.59 L 183.41,247.07 L 183.41,243.58 L 183.41,240.14 L 183.41,236.74 L 183.41,233.39 L 183.41,230.09 L 183.41,226.84 L 183.41,223.65 L 183.41,220.52 L 183.41,217.44 L 183.41,214.43 L 183.41,211.48 L 183.41,208.59 L 183.41,205.77 L 183.41,203.02 L 183.41,200.33 L 183.41,197.71 L 183.41,195.16 L 183.41,192.68 L 183.41,190.26 L 183.41,187.91 L 183.41,185.63 L 183.41,183.41"
     style="stroke:black;stroke-width:0.71;stroke-linecap:round;fill:none;stroke-dasharray: 5.67 5.67"
     id="path146" />
  <!-- Render block 7
 -->
  <text
     x="231.31441"
     y="166.41043"
     style="font-size:10px;font-weight:normal;text-anchor:middle;fill:#000000;stroke:none;font-family:sanserif"
     id="text148">sblk-1-3</text>
  <path
     d="M 183.41,141.73 L 185.63,141.73 L 187.91,141.73 L 190.26,141.73 L 192.68,141.73 L 195.16,141.73 L 197.71,141.73 L 200.33,141.73 L 203.02,141.73 L 205.77,141.73 L 208.59,141.73 L 211.48,141.73 L 214.43,141.73 L 217.44,141.73 L 220.52,141.73 L 223.65,141.73 L 226.84,141.73 L 230.09,141.73 L 233.39,141.73 L 236.74,141.73 L 240.14,141.73 L 243.58,141.73 L 247.07,141.73 L 250.59,141.73 L 254.15,141.73 L 257.74,141.73 L 261.36,141.73 L 265.01,141.73 L 268.68,141.73 L 272.36,141.73 L 276.05,141.73 L 279.76,141.73 L 283.46,141.73"
     style="stroke:black;stroke-width:0.71;stroke-linecap:round;fill:none"
     id="path152" />
  <path
     d="M 283.46,183.41 L 283.46,181.27 L 283.46,179.18 L 283.46,177.17 L 283.46,175.21 L 283.46,173.33 L 283.46,171.50 L 283.46,169.73 L 283.46,168.03 L 283.46,166.38 L 283.46,164.79 L 283.46,163.26 L 283.46,161.79 L 283.46,160.36 L 283.46,158.99 L 283.46,157.67 L 283.46,156.40 L 283.46,155.18 L 283.46,154.01 L 283.46,152.88 L 283.46,151.79 L 283.46,150.75 L 283.46,149.75 L 283.46,148.79 L 283.46,147.87 L 283.46,146.98 L 283.46,146.14 L 283.46,145.32 L 283.46,144.54 L 283.46,143.79 L 283.46,143.08 L 283.46,142.39 L 283.46,141.73"
     style="stroke:black;stroke-width:0.71;stroke-linecap:round;fill:none;stroke-dasharray: 5.67 5.67"
     id="path154" />
  <path
     d="M 183.41,183.41 L 185.63,183.41 L 187.91,183.41 L 190.26,183.41 L 192.68,183.41 L 195.16,183.41 L 197.71,183.41 L 200.33,183.41 L 203.02,183.41 L 205.77,183.41 L 208.59,183.41 L 211.48,183.41 L 214.43,183.41 L 217.44,183.41 L 220.52,183.41 L 223.65,183.41 L 226.84,183.41 L 230.09,183.41 L 233.39,183.41 L 236.74,183.41 L 240.14,183.41 L 243.58,183.41 L 247.07,183.41 L 250.59,183.41 L 254.15,183.41 L 257.74,183.41 L 261.36,183.41 L 265.01,183.41 L 268.68,183.41 L 272.36,183.41 L 276.05,183.41 L 279.76,183.41 L 283.46,183.41"
     style="stroke:black;stroke-width:0.71;stroke-linecap:round;fill:none;stroke-dasharray: 5.67 5.67"
     id="path156" />
  <path
     d="M 183.41,183.41 L 183.41,181.27 L 183.41,179.18 L 183.41,177.17 L 183.41,175.21 L 183.41,173.33 L 183.41,171.50 L 183.41,169.73 L 183.41,168.03 L 183.41,166.38 L 183.41,164.79 L 183.41,163.26 L 183.41,161.79 L 183.41,160.36 L 183.41,158.99 L 183.41,157.67 L 183.41,156.40 L 183.41,155.18 L 183.41,154.01 L 183.41,152.88 L 183.41,151.79 L 183.41,150.75 L 183.41,149.75 L 183.41,148.79 L 183.41,147.87 L 183.41,146.98 L 183.41,146.14 L 183.41,145.32 L 183.41,144.54 L 183.41,143.79 L 183.41,143.08 L 183.41,142.39 L 183.41,141.73"
     style="stroke:black;stroke-width:0.71;stroke-linecap:round;fill:none;stroke-dasharray: 5.67 5.67"
     id="path158" />
  <!-- Render block 8
 -->
  <text
     x="331.14117"
     y="408.14441"
     style="font-size:10px;font-weight:normal;text-anchor:middle;fill:#000000;stroke:none;font-family:sanserif"
     id="text160">sblk-2-0</text>
  <path
     d="M 283.46,383.52 L 287.17,383.52 L 290.88,383.52 L 294.57,383.52 L 298.25,383.52 L 301.92,383.52 L 305.56,383.52 L 309.19,383.52 L 312.78,383.52 L 316.34,383.52 L 319.86,383.52 L 323.35,383.52 L 326.79,383.52 L 330.19,383.52 L 333.54,383.52 L 336.84,383.52 L 340.09,383.52 L 343.28,383.52 L 346.41,383.52 L 349.49,383.52 L 352.50,383.52 L 355.45,383.52 L 358.33,383.52 L 361.15,383.52 L 363.91,383.52 L 366.60,383.52 L 369.22,383.52 L 371.77,383.52 L 374.25,383.52 L 376.67,383.52 L 379.02,383.52 L 381.30,383.52 L 383.52,383.52"
     style="stroke:black;stroke-width:0.71;stroke-linecap:round;fill:none;stroke-dasharray: 5.67 5.67"
     id="path162" />
  <path
     d="M 383.52,425.20 L 383.52,424.54 L 383.52,423.85 L 383.52,423.14 L 383.52,422.39 L 383.52,421.61 L 383.52,420.79 L 383.52,419.95 L 383.52,419.06 L 383.52,418.14 L 383.52,417.18 L 383.52,416.18 L 383.52,415.13 L 383.52,414.05 L 383.52,412.92 L 383.52,411.75 L 383.52,410.53 L 383.52,409.26 L 383.52,407.94 L 383.52,406.57 L 383.52,405.14 L 383.52,403.67 L 383.52,402.13 L 383.52,400.55 L 383.52,398.90 L 383.52,397.20 L 383.52,395.43 L 383.52,393.60 L 383.52,391.71 L 383.52,389.76 L 383.52,387.75 L 383.52,385.66 L 383.52,383.52"
     style="stroke:black;stroke-width:0.71;stroke-linecap:round;fill:none;stroke-dasharray: 5.67 5.67"
     id="path164" />
  <path
     d="M 283.46,425.20 L 287.17,425.20 L 290.88,425.20 L 294.57,425.20 L 298.25,425.20 L 301.92,425.20 L 305.56,425.20 L 309.19,425.20 L 312.78,425.20 L 316.34,425.20 L 319.86,425.20 L 323.35,425.20 L 326.79,425.20 L 330.19,425.20 L 333.54,425.20 L 336.84,425.20 L 340.09,425.20 L 343.28,425.20 L 346.41,425.20 L 349.49,425.20 L 352.50,425.20 L 355.45,425.20 L 358.33,425.20 L 361.15,425.20 L 363.91,425.20 L 366.60,425.20 L 369.22,425.20 L 371.77,425.20 L 374.25,425.20 L 376.67,425.20 L 379.02,425.20 L 381.30,425.20 L 383.52,425.20"
     style="stroke:black;stroke-width:0.71;stroke-linecap:round;fill:none"
     id="path168" />
  <path
     d="M 283.46,425.20 L 283.46,424.54 L 283.46,423.85 L 283.46,423.14 L 283.46,422.39 L 283.46,421.61 L 283.46,420.79 L 283.46,419.95 L 283.46,419.06 L 283.46,418.14 L 283.46,417.18 L 283.46,416.18 L 283.46,415.13 L 283.46,414.05 L 283.46,412.92 L 283.46,411.75 L 283.46,410.53 L 283.46,409.26 L 283.46,407.94 L 283.46,406.57 L 283.46,405.14 L 283.46,403.67 L 283.46,402.13 L 283.46,400.55 L 283.46,398.90 L 283.46,397.20 L 283.46,395.43 L 283.46,393.60 L 283.46,391.71 L 283.46,389.76 L 283.46,387.75 L 283.46,385.66 L 283.46,383.52"
     style="stroke:black;stroke-width:0.71;stroke-linecap:round;fill:none;stroke-dasharray: 5.67 5.67"
     id="path170" />
  <!-- Render block 9
 -->
  <text
     x="332.48349"
     y="338.11554"
     style="font-size:10px;font-weight:normal;text-anchor:middle;fill:#000000;stroke:none;font-family:sanserif"
     id="text172">sblk-2-1</text>
  <path
     d="M 283.46,283.46 L 287.17,283.46 L 290.88,283.46 L 294.57,283.46 L 298.25,283.46 L 301.92,283.46 L 305.56,283.46 L 309.19,283.46 L 312.78,283.46 L 316.34,283.46 L 319.86,283.46 L 323.35,283.46 L 326.79,283.46 L 330.19,283.46 L 333.54,283.46 L 336.84,283.46 L 340.09,283.46 L 343.28,283.46 L 346.41,283.46 L 349.49,283.46 L 352.50,283.46 L 355.45,283.46 L 358.33,283.46 L 361.15,283.46 L 363.91,283.46 L 366.60,283.46 L 369.22,283.46 L 371.77,283.46 L 374.25,283.46 L 376.67,283.46 L 379.02,283.46 L 381.30,283.46 L 383.52,283.46"
     style="stroke:black;stroke-width:0.71;stroke-linecap:round;fill:none;stroke-dasharray: 5.67 5.67"
     id="path174" />
  <path
     d="M 383.52,383.52 L 383.52,381.30 L 383.52,379.02 L 383.52,376.67 L 383.52,374.25 L 383.52,371.77 L 383.52,369.22 L 383.52,366.60 L 383.52,363.91 L 383.52,361.15 L 383.52,358.33 L 383.52,355.45 L 383.52,352.50 L 383.52,349.49 L 383.52,346.41 L 383.52,343.28 L 383.52,340.09 L 383.52,336.84 L 383.52,333.54 L 383.52,330.19 L 383.52,326.79 L 383.52,323.35 L 383.52,319.86 L 383.52,316.34 L 383.52,312.78 L 383.52,309.19 L 383.52,305.56 L 383.52,301.92 L 383.52,298.25 L 383.52,294.57 L 383.52,290.88 L 383.52,287.17 L 383.52,283.46"
     style="stroke:black;stroke-width:0.71;stroke-linecap:round;fill:none;stroke-dasharray: 5.67 5.67"
     id="path176" />
  <path
     d="M 283.46,383.52 L 287.17,383.52 L 290.88,383.52 L 294.57,383.52 L 298.25,383.52 L 301.92,383.52 L 305.56,383.52 L 309.19,383.52 L 312.78,383.52 L 316.34,383.52 L 319.86,383.52 L 323.35,383.52 L 326.79,383.52 L 330.19,383.52 L 333.54,383.52 L 336.84,383.52 L 340.09,383.52 L 343.28,383.52 L 346.41,383.52 L 349.49,383.52 L 352.50,383.52 L 355.45,383.52 L 358.33,383.52 L 361.15,383.52 L 363.91,383.52 L 366.60,383.52 L 369.22,383.52 L 371.77,383.52 L 374.25,383.52 L 376.67,383.52 L 379.02,383.52 L 381.30,383.52 L 383.52,383.52"
     style="stroke:black;stroke-width:0.71;stroke-linecap:round;fill:none;stroke-dasharray: 5.67 5.67"
     id="path178" />
  <path
     d="M 283.46,383.52 L 283.46,381.30 L 283.46,379.02 L 283.46,376.67 L 283.46,374.25 L 283.46,371.77 L 283.46,369.22 L 283.46,366.60 L 283.46,363.91 L 283.46,361.15 L 283.46,358.33 L 283.46,355.45 L 283.46,352.50 L 283.46,349.49 L 283.46,346.41 L 283.46,343.28 L 283.46,340.09 L 283.46,336.84 L 283.46,333.54 L 283.46,330.19 L 283.46,326.79 L 283.46,323.35 L 283.46,319.86 L 283.46,316.34 L 283.46,312.78 L 283.46,309.19 L 283.46,305.56 L 283.46,301.92 L 283.46,298.25 L 283.46,294.57 L 283.46,290.88 L 283.46,287.17 L 283.46,283.46"
     style="stroke:black;stroke-width:0.71;stroke-linecap:round;fill:none;stroke-dasharray: 5.67 5.67"
     id="path180" />
  <!-- Render block 10
 -->
  <text
     x="331.14117"
     y="236.08923"
     style="font-size:10px;font-weight:normal;text-anchor:middle;fill:#000000;stroke:none;font-family:sanserif"
     id="text182">sblk-2-2</text>
  <path
     d="M 283.46,183.41 L 287.17,183.41 L 290.88,183.41 L 294.57,183.41 L 298.25,183.41 L 301.92,183.41 L 305.56,183.41 L 309.19,183.41 L 312.78,183.41 L 316.34,183.41 L 319.86,183.41 L 323.35,183.41 L 326.79,183.41 L 330.19,183.41 L 333.54,183.41 L 336.84,183.41 L 340.09,183.41 L 343.28,183.41 L 346.41,183.41 L 349.49,183.41 L 352.50,183.41 L 355.45,183.41 L 358.33,183.41 L 361.15,183.41 L 363.91,183.41 L 366.60,183.41 L 369.22,183.41 L 371.77,183.41 L 374.25,183.41 L 376.67,183.41 L 379.02,183.41 L 381.30,183.41 L 383.52,183.41"
     style="stroke:black;stroke-width:0.71;stroke-linecap:round;fill:none;stroke-dasharray: 5.67 5.67"
     id="path184" />
  <path
     d="M 383.52,283.46 L 383.52,279.76 L 383.52,276.05 L 383.52,272.36 L 383.52,268.68 L 383.52,265.01 L 383.52,261.36 L 383.52,257.74 L 383.52,254.15 L 383.52,250.59 L 383.52,247.07 L 383.52,243.58 L 383.52,240.14 L 383.52,236.74 L 383.52,233.39 L 383.52,230.09 L 383.52,226.84 L 383.52,223.65 L 383.52,220.52 L 383.52,217.44 L 383.52,214.43 L 383.52,211.48 L 383.52,208.59 L 383.52,205.77 L 383.52,203.02 L 383.52,200.33 L 383.52,197.71 L 383.52,195.16 L 383.52,192.68 L 383.52,190.26 L 383.52,187.91 L 383.52,185.63 L 383.52,183.41"
     style="stroke:black;stroke-width:0.71;stroke-linecap:round;fill:none;stroke-dasharray: 5.67 5.67"
     id="path186" />
  <path
     d="M 283.46,283.46 L 287.17,283.46 L 290.88,283.46 L 294.57,283.46 L 298.25,283.46 L 301.92,283.46 L 305.56,283.46 L 309.19,283.46 L 312.78,283.46 L 316.34,283.46 L 319.86,283.46 L 323.35,283.46 L 326.79,283.46 L 330.19,283.46 L 333.54,283.46 L 336.84,283.46 L 340.09,283.46 L 343.28,283.46 L 346.41,283.46 L 349.49,283.46 L 352.50,283.46 L 355.45,283.46 L 358.33,283.46 L 361.15,283.46 L 363.91,283.46 L 366.60,283.46 L 369.22,283.46 L 371.77,283.46 L 374.25,283.46 L 376.67,283.46 L 379.02,283.46 L 381.30,283.46 L 383.52,283.46"
     style="stroke:black;stroke-width:0.71;stroke-linecap:round;fill:none;stroke-dasharray: 5.67 5.67"
     id="path188" />
  <path
     d="M 283.46,283.46 L 283.46,279.76 L 283.46,276.05 L 283.46,272.36 L 283.46,268.68 L 283.46,265.01 L 283.46,261.36 L 283.46,257.74 L 283.46,254.15 L 283.46,250.59 L 283.46,247.07 L 283.46,243.58 L 283.46,240.14 L 283.46,236.74 L 283.46,233.39 L 283.46,230.09 L 283.46,226.84 L 283.46,223.65 L 283.46,220.52 L 283.46,217.44 L 283.46,214.43 L 283.46,211.48 L 283.46,208.59 L 283.46,205.77 L 283.46,203.02 L 283.46,200.33 L 283.46,197.71 L 283.46,195.16 L 283.46,192.68 L 283.46,190.26 L 283.46,187.91 L 283.46,185.63 L 283.46,183.41"
     style="stroke:black;stroke-width:0.71;stroke-linecap:round;fill:none;stroke-dasharray: 5.67 5.67"
     id="path190" />
  <!-- Render block 11
 -->
  <text
     x="333.82581"
     y="166.41043"
     style="font-size:10px;font-weight:normal;text-anchor:middle;fill:#000000;stroke:none;font-family:sanserif"
     id="text192">sblk-2-3</text>
  <text
     x="282.98737"
     y="136.3607"
     style="font-size:10px;font-weight:normal;text-anchor:middle;fill:#000000;stroke:none;font-family:sanserif"
     id="text194">MOVING_WALL</text>
  <path
     d="M 283.46,141.73 L 287.17,141.73 L 290.88,141.73 L 294.57,141.73 L 298.25,141.73 L 301.92,141.73 L 305.56,141.73 L 309.19,141.73 L 312.78,141.73 L 316.34,141.73 L 319.86,141.73 L 323.35,141.73 L 326.79,141.73 L 330.19,141.73 L 333.54,141.73 L 336.84,141.73 L 340.09,141.73 L 343.28,141.73 L 346.41,141.73 L 349.49,141.73 L 352.50,141.73 L 355.45,141.73 L 358.33,141.73 L 361.15,141.73 L 363.91,141.73 L 366.60,141.73 L 369.22,141.73 L 371.77,141.73 L 374.25,141.73 L 376.67,141.73 L 379.02,141.73 L 381.30,141.73 L 383.52,141.73"
     style="stroke:black;stroke-width:0.71;stroke-linecap:round;fill:none"
     id="path196" />
  <path
     d="M 383.52,183.41 L 383.52,181.27 L 383.52,179.18 L 383.52,177.17 L 383.52,175.21 L 383.52,173.33 L 383.52,171.50 L 383.52,169.73 L 383.52,168.03 L 383.52,166.38 L 383.52,164.79 L 383.52,163.26 L 383.52,161.79 L 383.52,160.36 L 383.52,158.99 L 383.52,157.67 L 383.52,156.40 L 383.52,155.18 L 383.52,154.01 L 383.52,152.88 L 383.52,151.79 L 383.52,150.75 L 383.52,149.75 L 383.52,148.79 L 383.52,147.87 L 383.52,146.98 L 383.52,146.14 L 383.52,145.32 L 383.52,144.54 L 383.52,143.79 L 383.52,143.08 L 383.52,142.39 L 383.52,141.73"
     style="stroke:black;stroke-width:0.71;stroke-linecap:round;fill:none;stroke-dasharray: 5.67 5.67"
     id="path198" />
  <path
     d="M 283.46,183.41 L 287.17,183.41 L 290.88,183.41 L 294.57,183.41 L 298.25,183.41 L 301.92,183.41 L 305.56,183.41 L 309.19,183.41 L 312.78,183.41 L 316.34,183.41 L 319.86,183.41 L 323.35,183.41 L 326.79,183.41 L 330.19,183.41 L 333.54,183.41 L 336.84,183.41 L 340.09,183.41 L 343.28,183.41 L 346.41,183.41 L 349.49,183.41 L 352.50,183.41 L 355.45,183.41 L 358.33,183.41 L 361.15,183.41 L 363.91,183.41 L 366.60,183.41 L 369.22,183.41 L 371.77,183.41 L 374.25,183.41 L 376.67,183.41 L 379.02,183.41 L 381.30,183.41 L 383.52,183.41"
     style="stroke:black;stroke-width:0.71;stroke-linecap:round;fill:none;stroke-dasharray: 5.67 5.67"
     id="path200" />
  <path
     d="M 283.46,183.41 L 283.46,181.27 L 283.46,179.18 L 283.46,177.17 L 283.46,175.21 L 283.46,173.33 L 283.46,171.50 L 283.46,169.73 L 283.46,168.03 L 283.46,166.38 L 283.46,164.79 L 283.46,163.26 L 283.46,161.79 L 283.46,160.36 L 283.46,158.99 L 283.46,157.67 L 283.46,156.40 L 283.46,155.18 L 283.46,154.01 L 283.46,152.88 L 283.46,151.79 L 283.46,150.75 L 283.46,149.75 L 283.46,148.79 L 283.46,147.87 L 283.46,146.98 L 283.46,146.14 L 283.46,145.32 L 283.46,144.54 L 283.46,143.79 L 283.46,143.08 L 283.46,142.39 L 283.46,141.73"
     style="stroke:black;stroke-width:0.71;stroke-linecap:round;fill:none;stroke-dasharray: 5.67 5.67"
     id="path202" />
  <!-- Render block 12
 -->
  <text
     x="404.71326"
     y="407.69699"
     style="font-size:10px;font-weight:normal;text-anchor:middle;fill:#000000;stroke:none;font-family:sanserif"
     id="text204">sblk-3-0</text>
  <path
     d="M 383.52,383.52 L 385.66,383.52 L 387.75,383.52 L 389.76,383.52 L 391.71,383.52 L 393.60,383.52 L 395.43,383.52 L 397.20,383.52 L 398.90,383.52 L 400.55,383.52 L 402.13,383.52 L 403.67,383.52 L 405.14,383.52 L 406.57,383.52 L 407.94,383.52 L 409.26,383.52 L 410.53,383.52 L 411.75,383.52 L 412.92,383.52 L 414.05,383.52 L 415.13,383.52 L 416.18,383.52 L 417.18,383.52 L 418.14,383.52 L 419.06,383.52 L 419.95,383.52 L 420.79,383.52 L 421.61,383.52 L 422.39,383.52 L 423.14,383.52 L 423.85,383.52 L 424.54,383.52 L 425.20,383.52"
     style="stroke:black;stroke-width:0.71;stroke-linecap:round;fill:none;stroke-dasharray: 5.67 5.67"
     id="path206" />
  <path
     d="M 425.20,425.20 L 425.20,424.54 L 425.20,423.85 L 425.20,423.14 L 425.20,422.39 L 425.20,421.61 L 425.20,420.79 L 425.20,419.95 L 425.20,419.06 L 425.20,418.14 L 425.20,417.18 L 425.20,416.18 L 425.20,415.13 L 425.20,414.05 L 425.20,412.92 L 425.20,411.75 L 425.20,410.53 L 425.20,409.26 L 425.20,407.94 L 425.20,406.57 L 425.20,405.14 L 425.20,403.67 L 425.20,402.13 L 425.20,400.55 L 425.20,398.90 L 425.20,397.20 L 425.20,395.43 L 425.20,393.60 L 425.20,391.71 L 425.20,389.76 L 425.20,387.75 L 425.20,385.66 L 425.20,383.52"
     style="stroke:black;stroke-width:0.71;stroke-linecap:round;fill:none"
     id="path210" />
  <path
     d="M 383.52,425.20 L 385.66,425.20 L 387.75,425.20 L 389.76,425.20 L 391.71,425.20 L 393.60,425.20 L 395.43,425.20 L 397.20,425.20 L 398.90,425.20 L 400.55,425.20 L 402.13,425.20 L 403.67,425.20 L 405.14,425.20 L 406.57,425.20 L 407.94,425.20 L 409.26,425.20 L 410.53,425.20 L 411.75,425.20 L 412.92,425.20 L 414.05,425.20 L 415.13,425.20 L 416.18,425.20 L 417.18,425.20 L 418.14,425.20 L 419.06,425.20 L 419.95,425.20 L 420.79,425.20 L 421.61,425.20 L 422.39,425.20 L 423.14,425.20 L 423.85,425.20 L 424.54,425.20 L 425.20,425.20"
     style="stroke:black;stroke-width:0.71;stroke-linecap:round;fill:none"
     id="path214" />
  <path
     d="M 383.52,425.20 L 383.52,424.54 L 383.52,423.85 L 383.52,423.14 L 383.52,422.39 L 383.52,421.61 L 383.52,420.79 L 383.52,419.95 L 383.52,419.06 L 383.52,418.14 L 383.52,417.18 L 383.52,416.18 L 383.52,415.13 L 383.52,414.05 L 383.52,412.92 L 383.52,411.75 L 383.52,410.53 L 383.52,409.26 L 383.52,407.94 L 383.52,406.57 L 383.52,405.14 L 383.52,403.67 L 383.52,402.13 L 383.52,400.55 L 383.52,398.90 L 383.52,397.20 L 383.52,395.43 L 383.52,393.60 L 383.52,391.71 L 383.52,389.76 L 383.52,387.75 L 383.52,385.66 L 383.52,383.52"
     style="stroke:black;stroke-width:0.71;stroke-linecap:round;fill:none;stroke-dasharray: 5.67 5.67"
     id="path216" />
  <!-- Render block 13
 -->
  <text
     x="404.71326"
     y="338.56299"
     style="font-size:10px;font-weight:normal;text-anchor:middle;fill:#000000;stroke:none;font-family:sanserif"
     id="text218">sblk-3-1</text>
  <path
     d="M 383.52,283.46 L 385.66,283.46 L 387.75,283.46 L 389.76,283.46 L 391.71,283.46 L 393.60,283.46 L 395.43,283.46 L 397.20,283.46 L 398.90,283.46 L 400.55,283.46 L 402.13,283.46 L 403.67,283.46 L 405.14,283.46 L 406.57,283.46 L 407.94,283.46 L 409.26,283.46 L 410.53,283.46 L 411.75,283.46 L 412.92,283.46 L 414.05,283.46 L 415.13,283.46 L 416.18,283.46 L 417.18,283.46 L 418.14,283.46 L 419.06,283.46 L 419.95,283.46 L 420.79,283.46 L 421.61,283.46 L 422.39,283.46 L 423.14,283.46 L 423.85,283.46 L 424.54,283.46 L 425.20,283.46"
     style="stroke:black;stroke-width:0.71;stroke-linecap:round;fill:none;stroke-dasharray: 5.67 5.67"
     id="path220" />
  <text
     x="-283.96011"
     y="438.62323"
     transform="matrix(0,-1,1,0,0,0)"
     style="font-size:10px;font-weight:normal;text-anchor:middle;fill:#000000;stroke:none;font-family:sanserif"
     id="text222">ADIABATIC</text>
  <path
     d="M 425.20,383.52 L 425.20,381.30 L 425.20,379.02 L 425.20,376.67 L 425.20,374.25 L 425.20,371.77 L 425.20,369.22 L 425.20,366.60 L 425.20,363.91 L 425.20,361.15 L 425.20,358.33 L 425.20,355.45 L 425.20,352.50 L 425.20,349.49 L 425.20,346.41 L 425.20,343.28 L 425.20,340.09 L 425.20,336.84 L 425.20,333.54 L 425.20,330.19 L 425.20,326.79 L 425.20,323.35 L 425.20,319.86 L 425.20,316.34 L 425.20,312.78 L 425.20,309.19 L 425.20,305.56 L 425.20,301.92 L 425.20,298.25 L 425.20,294.57 L 425.20,290.88 L 425.20,287.17 L 425.20,283.46"
     style="stroke:black;stroke-width:0.71;stroke-linecap:round;fill:none"
     id="path224" />
  <path
     d="M 383.52,383.52 L 385.66,383.52 L 387.75,383.52 L 389.76,383.52 L 391.71,383.52 L 393.60,383.52 L 395.43,383.52 L 397.20,383.52 L 398.90,383.52 L 400.55,383.52 L 402.13,383.52 L 403.67,383.52 L 405.14,383.52 L 406.57,383.52 L 407.94,383.52 L 409.26,383.52 L 410.53,383.52 L 411.75,383.52 L 412.92,383.52 L 414.05,383.52 L 415.13,383.52 L 416.18,383.52 L 417.18,383.52 L 418.14,383.52 L 419.06,383.52 L 419.95,383.52 L 420.79,383.52 L 421.61,383.52 L 422.39,383.52 L 423.14,383.52 L 423.85,383.52 L 424.54,383.52 L 425.20,383.52"
     style="stroke:black;stroke-width:0.71;stroke-linecap:round;fill:none;stroke-dasharray: 5.67 5.67"
     id="path226" />
  <path
     d="M 383.52,383.52 L 383.52,381.30 L 383.52,379.02 L 383.52,376.67 L 383.52,374.25 L 383.52,371.77 L 383.52,369.22 L 383.52,366.60 L 383.52,363.91 L 383.52,361.15 L 383.52,358.33 L 383.52,355.45 L 383.52,352.50 L 383.52,349.49 L 383.52,346.41 L 383.52,343.28 L 383.52,340.09 L 383.52,336.84 L 383.52,333.54 L 383.52,330.19 L 383.52,326.79 L 383.52,323.35 L 383.52,319.86 L 383.52,316.34 L 383.52,312.78 L 383.52,309.19 L 383.52,305.56 L 383.52,301.92 L 383.52,298.25 L 383.52,294.57 L 383.52,290.88 L 383.52,287.17 L 383.52,283.46"
     style="stroke:black;stroke-width:0.71;stroke-linecap:round;fill:none;stroke-dasharray: 5.67 5.67"
     id="path228" />
  <!-- Render block 14
 -->
  <text
     x="404.71326"
     y="236.98412"
     style="font-size:10px;font-weight:normal;text-anchor:middle;fill:#000000;stroke:none;font-family:sanserif"
     id="text230">sblk-3-2</text>
  <path
     d="M 383.52,183.41 L 385.66,183.41 L 387.75,183.41 L 389.76,183.41 L 391.71,183.41 L 393.60,183.41 L 395.43,183.41 L 397.20,183.41 L 398.90,183.41 L 400.55,183.41 L 402.13,183.41 L 403.67,183.41 L 405.14,183.41 L 406.57,183.41 L 407.94,183.41 L 409.26,183.41 L 410.53,183.41 L 411.75,183.41 L 412.92,183.41 L 414.05,183.41 L 415.13,183.41 L 416.18,183.41 L 417.18,183.41 L 418.14,183.41 L 419.06,183.41 L 419.95,183.41 L 420.79,183.41 L 421.61,183.41 L 422.39,183.41 L 423.14,183.41 L 423.85,183.41 L 424.54,183.41 L 425.20,183.41"
     style="stroke:black;stroke-width:0.71;stroke-linecap:round;fill:none;stroke-dasharray: 5.67 5.67"
     id="path232" />
  <path
     d="M 425.20,283.46 L 425.20,279.76 L 425.20,276.05 L 425.20,272.36 L 425.20,268.68 L 425.20,265.01 L 425.20,261.36 L 425.20,257.74 L 425.20,254.15 L 425.20,250.59 L 425.20,247.07 L 425.20,243.58 L 425.20,240.14 L 425.20,236.74 L 425.20,233.39 L 425.20,230.09 L 425.20,226.84 L 425.20,223.65 L 425.20,220.52 L 425.20,217.44 L 425.20,214.43 L 425.20,211.48 L 425.20,208.59 L 425.20,205.77 L 425.20,203.02 L 425.20,200.33 L 425.20,197.71 L 425.20,195.16 L 425.20,192.68 L 425.20,190.26 L 425.20,187.91 L 425.20,185.63 L 425.20,183.41"
     style="stroke:black;stroke-width:0.71;stroke-linecap:round;fill:none"
     id="path236" />
  <path
     d="M 383.52,283.46 L 385.66,283.46 L 387.75,283.46 L 389.76,283.46 L 391.71,283.46 L 393.60,283.46 L 395.43,283.46 L 397.20,283.46 L 398.90,283.46 L 400.55,283.46 L 402.13,283.46 L 403.67,283.46 L 405.14,283.46 L 406.57,283.46 L 407.94,283.46 L 409.26,283.46 L 410.53,283.46 L 411.75,283.46 L 412.92,283.46 L 414.05,283.46 L 415.13,283.46 L 416.18,283.46 L 417.18,283.46 L 418.14,283.46 L 419.06,283.46 L 419.95,283.46 L 420.79,283.46 L 421.61,283.46 L 422.39,283.46 L 423.14,283.46 L 423.85,283.46 L 424.54,283.46 L 425.20,283.46"
     style="stroke:black;stroke-width:0.71;stroke-linecap:round;fill:none;stroke-dasharray: 5.67 5.67"
     id="path238" />
  <path
     d="M 383.52,283.46 L 383.52,279.76 L 383.52,276.05 L 383.52,272.36 L 383.52,268.68 L 383.52,265.01 L 383.52,261.36 L 383.52,257.74 L 383.52,254.15 L 383.52,250.59 L 383.52,247.07 L 383.52,243.58 L 383.52,240.14 L 383.52,236.74 L 383.52,233.39 L 383.52,230.09 L 383.52,226.84 L 383.52,223.65 L 383.52,220.52 L 383.52,217.44 L 383.52,214.43 L 383.52,211.48 L 383.52,208.59 L 383.52,205.77 L 383.52,203.02 L 383.52,200.33 L 383.52,197.71 L 383.52,195.16 L 383.52,192.68 L 383.52,190.26 L 383.52,187.91 L 383.52,185.63 L 383.52,183.41"
     style="stroke:black;stroke-width:0.71;stroke-linecap:round;fill:none;stroke-dasharray: 5.67 5.67"
     id="path240" />
  <!-- Render block 15
 -->
  <text
     x="404.71326"
     y="166.85786"
     style="font-size:10px;font-weight:normal;text-anchor:middle;fill:#000000;stroke:none;font-family:sanserif"
     id="text242">sblk-3-3</text>
  <path
     d="M 383.52,141.73 L 385.66,141.73 L 387.75,141.73 L 389.76,141.73 L 391.71,141.73 L 393.60,141.73 L 395.43,141.73 L 397.20,141.73 L 398.90,141.73 L 400.55,141.73 L 402.13,141.73 L 403.67,141.73 L 405.14,141.73 L 406.57,141.73 L 407.94,141.73 L 409.26,141.73 L 410.53,141.73 L 411.75,141.73 L 412.92,141.73 L 414.05,141.73 L 415.13,141.73 L 416.18,141.73 L 417.18,141.73 L 418.14,141.73 L 419.06,141.73 L 419.95,141.73 L 420.79,141.73 L 421.61,141.73 L 422.39,141.73 L 423.14,141.73 L 423.85,141.73 L 424.54,141.73 L 425.20,141.73"
     style="stroke:black;stroke-width:0.71;stroke-linecap:round;fill:none"
     id="path246" />
  <path
     d="M 425.20,183.41 L 425.20,181.27 L 425.20,179.18 L 425.20,177.17 L 425.20,175.21 L 425.20,173.33 L 425.20,171.50 L 425.20,169.73 L 425.20,168.03 L 425.20,166.38 L 425.20,164.79 L 425.20,163.26 L 425.20,161.79 L 425.20,160.36 L 425.20,158.99 L 425.20,157.67 L 425.20,156.40 L 425.20,155.18 L 425.20,154.01 L 425.20,152.88 L 425.20,151.79 L 425.20,150.75 L 425.20,149.75 L 425.20,148.79 L 425.20,147.87 L 425.20,146.98 L 425.20,146.14 L 425.20,145.32 L 425.20,144.54 L 425.20,143.79 L 425.20,143.08 L 425.20,142.39 L 425.20,141.73"
     style="stroke:black;stroke-width:0.71;stroke-linecap:round;fill:none"
     id="path250" />
  <path
     d="M 383.52,183.41 L 385.66,183.41 L 387.75,183.41 L 389.76,183.41 L 391.71,183.41 L 393.60,183.41 L 395.43,183.41 L 397.20,183.41 L 398.90,183.41 L 400.55,183.41 L 402.13,183.41 L 403.67,183.41 L 405.14,183.41 L 406.57,183.41 L 407.94,183.41 L 409.26,183.41 L 410.53,183.41 L 411.75,183.41 L 412.92,183.41 L 414.05,183.41 L 415.13,183.41 L 416.18,183.41 L 417.18,183.41 L 418.14,183.41 L 419.06,183.41 L 419.95,183.41 L 420.79,183.41 L 421.61,183.41 L 422.39,183.41 L 423.14,183.41 L 423.85,183.41 L 424.54,183.41 L 425.20,183.41"
     style="stroke:black;stroke-width:0.71;stroke-linecap:round;fill:none;stroke-dasharray: 5.67 5.67"
     id="path252" />
  <path
     d="M 383.52,183.41 L 383.52,181.27 L 383.52,179.18 L 383.52,177.17 L 383.52,175.21 L 383.52,173.33 L 383.52,171.50 L 383.52,169.73 L 383.52,168.03 L 383.52,166.38 L 383.52,164.79 L 383.52,163.26 L 383.52,161.79 L 383.52,160.36 L 383.52,158.99 L 383.52,157.67 L 383.52,156.40 L 383.52,155.18 L 383.52,154.01 L 383.52,152.88 L 383.52,151.79 L 383.52,150.75 L 383.52,149.75 L 383.52,148.79 L 383.52,147.87 L 383.52,146.98 L 383.52,146.14 L 383.52,145.32 L 383.52,144.54 L 383.52,143.79 L 383.52,143.08 L 383.52,142.39 L 383.52,141.73"
     style="stroke:black;stroke-width:0.71;stroke-linecap:round;fill:none;stroke-dasharray: 5.67 5.67"
     id="path254" />
  <!-- end of drawing -->
</svg>
