<?xml version="1.0" encoding="UTF-8" standalone="no"?>
<svg
   xmlns:dc="http://purl.org/dc/elements/1.1/"
   xmlns:cc="http://creativecommons.org/ns#"
   xmlns:rdf="http://www.w3.org/1999/02/22-rdf-syntax-ns#"
   xmlns:svg="http://www.w3.org/2000/svg"
   xmlns="http://www.w3.org/2000/svg"
   xmlns:sodipodi="http://sodipodi.sourceforge.net/DTD/sodipodi-0.dtd"
   xmlns:inkscape="http://www.inkscape.org/namespaces/inkscape"
   width="566.93"
   height="566.93"
   id="svg3468"
   sodipodi:version="0.32"
   inkscape:version="0.46"
   sodipodi:docname="sc10-inner.svg"
   inkscape:output_extension="org.inkscape.output.svg.inkscape">
  <metadata
     id="metadata3809">
    <rdf:RDF>
      <cc:Work
         rdf:about="">
        <dc:format>image/svg+xml</dc:format>
        <dc:type
           rdf:resource="http://purl.org/dc/dcmitype/StillImage" />
      </cc:Work>
    </rdf:RDF>
  </metadata>
  <defs
     id="defs3807">
    <inkscape:perspective
       sodipodi:type="inkscape:persp3d"
       inkscape:vp_x="0 : 283.465 : 1"
       inkscape:vp_y="0 : 1000 : 0"
       inkscape:vp_z="566.92999 : 283.465 : 1"
       inkscape:persp3d-origin="283.465 : 188.97666 : 1"
       id="perspective3811" />
  </defs>
  <sodipodi:namedview
     inkscape:window-height="722"
     inkscape:window-width="642"
     inkscape:pageshadow="2"
     inkscape:pageopacity="0.0"
     guidetolerance="10.0"
     gridtolerance="10.0"
     objecttolerance="10.0"
     borderopacity="1.0"
     bordercolor="#666666"
     pagecolor="#ffffff"
     id="base"
     showgrid="false"
     inkscape:zoom="1.173205"
     inkscape:cx="286.9"
     inkscape:cy="202.16813"
     inkscape:window-x="318"
     inkscape:window-y="49"
     inkscape:current-layer="svg3468" />
  <title
     id="title3470">inviscid Euler for 2D-sc10</title>
  <desc
     id="desc3472">SVG file written by scriptit.py</desc>
<!-- drawing begins here --><!-- There are 41 nodes
 -->  <circle
     cx="347.04001"
     cy="304.92999"
     r="2.8299999"
     style="fill:#000000"
     id="circle3530"
     sodipodi:cx="347.04001"
     sodipodi:cy="304.92999"
     sodipodi:rx="2.8299999"
     sodipodi:ry="2.8299999"
     transform="matrix(0.7083308,0,0,0.6295012,101.28783,113.08774)" />
  <circle
     cx="345.82999"
     cy="280.63"
     r="2.8299999"
     style="fill:#000000"
     id="circle3534"
     sodipodi:cx="345.82999"
     sodipodi:cy="280.63"
     sodipodi:rx="2.8299999"
     sodipodi:ry="2.8299999"
     transform="matrix(0.6726013,0,0,0.6898328,113.23038,87.350918)" />
  <text
     x="342.03864"
     y="280.01971"
     style="font-size:4px;font-weight:normal;text-anchor:end;fill:#000000;stroke:none;font-family:sanserif"
     id="text3536">TE_up</text>
  <circle
     cx="228.03"
     cy="418.70999"
     r="2.8299999"
     style="fill:#000000"
     id="circle3538"
     sodipodi:cx="228.03"
     sodipodi:cy="418.70999"
     sodipodi:rx="2.8299999"
     sodipodi:ry="2.8299999"
     transform="matrix(0.4994302,0,0,0.4714934,113.96217,221.23944)" />
  <circle
     cx="209.75999"
     cy="413.29001"
     r="2.8299999"
     style="fill:#000000"
     id="circle3542"
     sodipodi:cx="209.75999"
     sodipodi:cy="413.29001"
     sodipodi:rx="2.8299999"
     sodipodi:ry="2.8299999"
     transform="matrix(0.5059816,0,0,0.4845025,103.68608,213.2931)" />
  <circle
     cx="226.77"
     cy="425.20001"
     r="2.8299999"
     style="fill:#000000"
     id="circle3546"
     sodipodi:cx="226.77"
     sodipodi:cy="425.20001"
     sodipodi:rx="2.8299999"
     sodipodi:ry="2.8299999"
     transform="matrix(0.5294053,0,0,0.498263,106.77552,213.40714)" />
  <circle
     cx="218.27"
     cy="440.5"
     r="2.8299999"
     style="fill:#000000"
     id="circle3550"
     sodipodi:cx="218.27"
     sodipodi:cy="440.5"
     sodipodi:rx="2.8299999"
     sodipodi:ry="2.8299999"
     transform="matrix(0.5595775,0,0,0.5355545,95.927059,204.76954)" />
  <circle
     cx="231.28999"
     cy="422.60999"
     r="2.8299999"
     style="fill:#000000"
     id="circle3554"
     sodipodi:cx="231.28999"
     sodipodi:cy="422.60999"
     sodipodi:rx="2.8299999"
     sodipodi:ry="2.8299999"
     transform="matrix(0.4671207,0,0,0.4567399,123.28882,229.79278)" />
  <circle
     cx="242.08"
     cy="437.10001"
     r="2.8299999"
     style="fill:#000000"
     id="circle3558"
     sodipodi:cx="242.08"
     sodipodi:cy="437.10001"
     sodipodi:rx="2.8299999"
     sodipodi:ry="2.8299999"
     transform="matrix(0.6156313,0,0,0.6076236,93.0933,171.5757)" />
  <circle
     cx="354.32999"
     cy="323.14999"
     r="2.8299999"
     style="fill:#000000"
     id="circle3562"
     sodipodi:cx="354.32999"
     sodipodi:cy="323.14999"
     sodipodi:rx="2.8299999"
     sodipodi:ry="2.8299999"
     transform="matrix(0.6137353,0,0,0.5979694,136.88748,130.11697)" />
  <circle
     cx="257.39001"
     cy="350.35999"
     r="2.8299999"
     style="fill:#000000"
     id="circle3566"
     sodipodi:cx="257.39001"
     sodipodi:cy="350.35999"
     sodipodi:rx="2.8299999"
     sodipodi:ry="2.8299999"
     transform="matrix(0.549767,0,0,0.5142223,115.81841,170.49884)" />
  <circle
     cx="209.75999"
     cy="426.89999"
     r="2.8299999"
     style="fill:#000000"
     id="circle3568"
     sodipodi:cx="209.75999"
     sodipodi:cy="426.89999"
     sodipodi:rx="2.8299999"
     sodipodi:ry="2.8299999"
     transform="matrix(0.5059816,0,0,0.5059816,104.17237,212.4161)" />
  <circle
     cx="230.17"
     cy="442.20001"
     r="2.8299999"
     style="fill:#000000"
     id="circle3570"
     sodipodi:cx="230.17"
     sodipodi:cy="442.20001"
     sodipodi:rx="2.8299999"
     sodipodi:ry="2.8299999"
     transform="matrix(0.5918978,0,0,0.5704188,95.17845,189.56093)" />
  <circle
     cx="303.31"
     cy="367.37"
     r="2.8299999"
     style="fill:#000000"
     id="circle3572"
     sodipodi:cx="303.31"
     sodipodi:cy="367.37"
     sodipodi:rx="2.8299999"
     sodipodi:ry="2.8299999"
     transform="matrix(0.5436961,0,0,0.5705375,138.4775,157.4678)" />
  <circle
     cx="175.75"
     cy="340.16"
     r="2.8299999"
     style="fill:#000000"
     id="circle3576"
     sodipodi:cx="175.75"
     sodipodi:cy="340.16"
     sodipodi:rx="2.8299999"
     sodipodi:ry="2.8299999"
     transform="matrix(0.6234818,0,0,0.5890688,66.161619,139.53601)" />
  <circle
     cx="226.77"
     cy="510.23999"
     r="2.8299999"
     style="fill:#000000"
     id="circle3586"
     sodipodi:cx="226.77"
     sodipodi:cy="510.23999"
     sodipodi:rx="2.8299999"
     sodipodi:ry="2.8299999"
     transform="matrix(0.5316806,0,0,0.5032976,105.99998,252.83497)" />
  <circle
     cx="226.77"
     cy="340.16"
     r="2.8299999"
     style="fill:#000000"
     id="circle3594"
     sodipodi:cx="226.77"
     sodipodi:cy="340.16"
     sodipodi:rx="2.8299999"
     sodipodi:ry="2.8299999"
     transform="matrix(0.4786776,0,0,0.5023741,117.95204,169.07126)" />
  <circle
     cx="175.75"
     cy="340.16"
     r="2.8299999"
     style="fill:#000000"
     id="circle3596"
     sodipodi:cx="175.75"
     sodipodi:cy="340.16"
     sodipodi:rx="2.8299999"
     sodipodi:ry="2.8299999"
     transform="matrix(0.6234818,0,0,0.5890688,66.161619,139.53601)" />
  <circle
     cx="235.28"
     cy="501.73001"
     r="2.8299999"
     style="fill:#000000"
     id="circle3598"
     sodipodi:cx="235.28"
     sodipodi:cy="501.73001"
     sodipodi:rx="2.8299999"
     sodipodi:ry="2.8299999"
     transform="matrix(0.5742551,0,0,0.5742551,100.08893,213.36801)" />
  <circle
     cx="260.79001"
     cy="476.22"
     r="2.8299999"
     style="fill:#000000"
     id="circle3602"
     sodipodi:cx="260.79001"
     sodipodi:cy="476.22"
     sodipodi:rx="2.8299999"
     sodipodi:ry="2.8299999"
     transform="matrix(0.6310211,0,0,0.6310211,96.306332,175.71513)" />
  <circle
     cx="347.04001"
     cy="389.97"
     r="2.8299999"
     style="fill:#000000"
     id="circle3604"
     sodipodi:cx="347.04001"
     sodipodi:cy="389.97"
     sodipodi:rx="2.8299999"
     sodipodi:ry="2.8299999"
     transform="matrix(0.5973789,0,0,0.5973789,139.64967,157.6938)" />
  <circle
     cx="347.04001"
     cy="219.89"
     r="2.8299999"
     style="fill:#000000"
     id="circle3612"
     sodipodi:cx="347.04001"
     sodipodi:cy="219.89"
     sodipodi:rx="2.8299999"
     sodipodi:ry="2.8299999"
     transform="matrix(0.6412927,0,0,0.632752,124.58248,81.116711)" />
  <circle
     cx="328.82001"
     cy="238.11"
     r="2.8299999"
     style="fill:#000000"
     id="circle3614"
     sodipodi:cx="328.82001"
     sodipodi:cy="238.11"
     sodipodi:rx="2.8299999"
     sodipodi:ry="2.8299999"
     transform="matrix(0.6498333,0,0,0.6156707,114.92429,91.730179)" />
  <circle
     cx="379.84"
     cy="389.97"
     r="2.8299999"
     style="fill:#000000"
     id="circle3624"
     sodipodi:cx="379.84"
     sodipodi:cy="389.97"
     sodipodi:rx="2.8299999"
     sodipodi:ry="2.8299999"
     transform="matrix(0.5973789,0,0,0.5705375,152.85564,167.4775)" />
<!-- There are 14 blocks
 --><!-- Render block 0
 -->  <path
     d="M 209.76 413.29, L 211.58 410.32, L 213.40 407.35, L 215.24 404.38, L 217.09 401.41, L 218.98 398.43, L 220.90 395.44, L 222.86 392.45, L 224.87 389.45, L 226.94 386.44, L 229.07 383.42, L 231.26 380.38, L 233.54 377.34, L 235.90 374.28, L 238.35 371.20, L 240.90 368.11, L 243.55 365.01, L 246.31 361.88, L 249.19 358.73, L 252.20 355.57, L 255.34 352.38, L 258.25 349.52, L 260.63 347.25, L 263.07 344.97, L 265.58 342.68, L 268.16 340.38, L 270.79 338.07, L 273.48 335.75, L 276.23 333.42, L 279.03 331.08, L 281.88 328.73, L 284.78 326.38, L 287.72 324.01, L 290.71 321.64, L 293.74 319.27, L 296.81 316.88, L 299.91 314.49, L 303.05 312.10, L 306.22 309.70, L 309.42 307.29, L 312.64 304.88, L 315.89 302.47, L 319.17 300.05, L 322.46 297.63, L 325.76 295.21, L 329.08 292.78, L 332.42 290.35, L 335.76 287.92, L 339.11 285.49, L 342.47 283.06, L 345.83 280.63"
     style="stroke:black;stroke-width:0.71;stroke-linecap:round;fill:none;stroke-dasharray: 5.67 5.67"
     id="path3632" />
  <path
     d="M 347.04 304.93, L 346.83 300.88, L 346.63 296.83, L 346.43 292.78, L 346.23 288.73, L 346.03 284.68, L 345.83 280.63"
     style="stroke:black;stroke-width:0.71;stroke-linecap:round;fill:none;stroke-dasharray: 5.67 5.67"
     id="path3634" />
  <path
     d="M 228.03 418.71, L 229.46 415.69, L 231.02 412.75, L 232.68 409.85, L 234.41 407.00, L 236.20 404.19, L 238.05 401.42, L 239.94 398.67, L 241.88 395.96, L 243.86 393.28, L 245.88 390.62, L 247.94 388.00, L 250.03 385.40, L 252.15 382.83, L 254.31 380.28, L 256.49 377.76, L 258.71 375.27, L 260.95 372.80, L 263.22 370.35, L 265.51 367.93, L 267.83 365.54, L 270.18 363.17, L 272.55 360.82, L 274.94 358.50, L 277.36 356.20, L 279.80 353.93, L 282.26 351.68, L 284.74 349.45, L 287.25 347.25, L 289.77 345.07, L 292.32 342.91, L 294.88 340.78, L 297.47 338.67, L 300.07 336.59, L 302.69 334.53, L 305.33 332.49, L 307.99 330.48, L 310.67 328.49, L 313.37 326.53, L 316.08 324.59, L 318.81 322.68, L 321.56 320.79, L 324.32 318.92, L 327.11 317.08, L 329.91 315.27, L 332.72 313.48, L 335.55 311.72, L 338.40 309.98, L 341.26 308.27, L 344.14 306.59, L 347.04 304.93"
     style="stroke:black;stroke-width:0.71;stroke-linecap:round;fill:none"
     id="path3638" />
  <path
     d="M 228.03 418.71, L 224.98 417.80, L 221.94 416.90, L 218.89 416.00, L 215.85 415.10, L 212.81 414.19, L 209.76 413.29"
     style="stroke:black;stroke-width:0.71;stroke-linecap:round;fill:none;stroke-dasharray: 5.67 5.67"
     id="path3640" />
<!-- Render block 1
 -->  <path
     d="M 209.76 413.29, L 212.81 414.19, L 215.85 415.10, L 218.89 416.00, L 221.94 416.90, L 224.98 417.80, L 228.03 418.71"
     style="stroke:black;stroke-width:0.71;stroke-linecap:round;fill:none;stroke-dasharray: 5.67 5.67"
     id="path3644" />
  <path
     d="M 226.77 425.20, L 226.40 424.48, L 226.42 423.60, L 226.57 422.75, L 226.80 421.92, L 227.07 421.11, L 227.37 420.30, L 227.69 419.50, L 228.03 418.71"
     style="stroke:black;stroke-width:0.71;stroke-linecap:round;fill:none"
     id="path3648" />
  <path
     d="M 218.27 440.50, L 219.69 437.95, L 221.10 435.40, L 222.52 432.85, L 223.94 430.30, L 225.35 427.75, L 226.77 425.20"
     style="stroke:black;stroke-width:0.71;stroke-linecap:round;fill:none;stroke-dasharray: 5.67 5.67"
     id="path3650" />
  <path
     d="M 218.27 440.50, L 215.83 437.35, L 213.56 434.21, L 211.60 431.06, L 210.11 427.91, L 209.18 424.38, L 208.95 420.69, L 209.23 416.99, L 209.76 413.29"
     style="stroke:black;stroke-width:0.71;stroke-linecap:round;fill:none;stroke-dasharray: 5.67 5.67"
     id="path3652" />
<!-- Render block 2
 -->  <path
     d="M 226.77 425.20, L 227.43 425.29, L 228.06 425.08, L 228.65 424.75, L 229.21 424.36, L 229.75 423.95, L 230.28 423.52, L 230.79 423.07, L 231.29 422.61"
     style="stroke:black;stroke-width:0.71;stroke-linecap:round;fill:none"
     id="path3658" />
  <path
     d="M 242.08 437.10, L 240.28 434.69, L 238.48 432.27, L 236.68 429.85, L 234.88 427.44, L 233.08 425.02, L 231.29 422.61"
     style="stroke:black;stroke-width:0.71;stroke-linecap:round;fill:none;stroke-dasharray: 5.67 5.67"
     id="path3660" />
  <path
     d="M 218.27 440.50, L 221.36 441.36, L 224.44 442.03, L 227.53 442.35, L 230.59 442.14, L 233.46 441.38, L 236.33 440.19, L 239.21 438.72, L 242.08 437.10"
     style="stroke:black;stroke-width:0.71;stroke-linecap:round;fill:none;stroke-dasharray: 5.67 5.67"
     id="path3662" />
  <path
     d="M 218.27 440.50, L 219.69 437.95, L 221.10 435.40, L 222.52 432.85, L 223.94 430.30, L 225.35 427.75, L 226.77 425.20"
     style="stroke:black;stroke-width:0.71;stroke-linecap:round;fill:none;stroke-dasharray: 5.67 5.67"
     id="path3664" />
<!-- Render block 3
 -->  <path
     d="M 231.29 422.61, L 234.06 419.81, L 236.72 416.91, L 239.31 413.94, L 241.88 410.95, L 244.42 407.94, L 246.94 404.92, L 249.47 401.89, L 251.99 398.87, L 254.52 395.85, L 257.05 392.83, L 259.59 389.82, L 262.14 386.82, L 264.71 383.83, L 267.29 380.85, L 269.88 377.88, L 272.49 374.93, L 275.11 371.99, L 277.75 369.07, L 280.41 366.17, L 283.09 363.28, L 285.79 360.41, L 288.50 357.55, L 291.24 354.72, L 293.99 351.90, L 296.77 349.11, L 299.57 346.34, L 302.38 343.58, L 305.22 340.85, L 308.08 338.14, L 310.96 335.45, L 313.86 332.78, L 316.77 330.14, L 319.71 327.51, L 322.67 324.91, L 325.65 322.34, L 328.65 319.78, L 331.67 317.25, L 334.70 314.74, L 337.76 312.25, L 340.83 309.79, L 343.93 307.35, L 347.04 304.93"
     style="stroke:black;stroke-width:0.71;stroke-linecap:round;fill:none"
     id="path3670" />
  <path
     d="M 354.33 323.15, L 353.11 320.11, L 351.90 317.08, L 350.68 314.04, L 349.47 311.01, L 348.25 307.97, L 347.04 304.93"
     style="stroke:black;stroke-width:0.71;stroke-linecap:round;fill:none;stroke-dasharray: 5.67 5.67"
     id="path3672" />
  <path
     d="M 242.08 437.10, L 244.70 433.97, L 247.33 430.84, L 249.95 427.72, L 252.56 424.61, L 255.18 421.50, L 257.78 418.41, L 260.39 415.33, L 262.98 412.28, L 265.57 409.24, L 268.14 406.23, L 270.71 403.25, L 273.26 400.29, L 275.80 397.37, L 278.33 394.48, L 280.84 391.63, L 283.34 388.82, L 285.82 386.05, L 288.28 383.33, L 290.72 380.65, L 293.14 378.03, L 295.54 375.46, L 297.92 372.94, L 300.27 370.48, L 302.60 368.09, L 305.50 365.16, L 308.61 362.08, L 311.69 359.11, L 314.72 356.25, L 317.71 353.48, L 320.66 350.80, L 323.58 348.21, L 326.48 345.69, L 329.34 343.24, L 332.18 340.85, L 335.00 338.51, L 337.79 336.23, L 340.58 333.99, L 343.34 331.78, L 346.10 329.60, L 348.85 327.44, L 351.59 325.29, L 354.33 323.15"
     style="stroke:black;stroke-width:0.71;stroke-linecap:round;fill:none;stroke-dasharray: 5.67 5.67"
     id="path3674" />
  <path
     d="M 242.08 437.10, L 240.28 434.69, L 238.48 432.27, L 236.68 429.85, L 234.88 427.44, L 233.08 425.02, L 231.29 422.61"
     style="stroke:black;stroke-width:0.71;stroke-linecap:round;fill:none;stroke-dasharray: 5.67 5.67"
     id="path3676" />
<!-- Render block 4
 -->  <text
     x="172.97195"
     y="377.39258"
     style="font-size:4px;font-weight:normal;text-anchor:middle;fill:#000000;stroke:none;font-family:sanserif"
     id="text3678">in1</text>
  <path
     d="M 56.69 340.16, L 59.67 340.16, L 62.65 340.16, L 65.62 340.16, L 68.60 340.16, L 71.57 340.16, L 74.55 340.16, L 77.53 340.16, L 80.50 340.16, L 83.48 340.16, L 86.46 340.16, L 89.43 340.16, L 92.41 340.16, L 95.39 340.16, L 98.36 340.16, L 101.34 340.16, L 104.31 340.16, L 107.29 340.16, L 110.27 340.16, L 113.24 340.16, L 116.22 340.16, L 119.20 340.16, L 122.17 340.16, L 125.15 340.16, L 128.13 340.16, L 131.10 340.16, L 134.08 340.16, L 137.06 340.16, L 140.03 340.16, L 143.01 340.16, L 145.98 340.16, L 148.96 340.16, L 151.94 340.16, L 154.91 340.16, L 157.89 340.16, L 160.87 340.16, L 163.84 340.16, L 166.82 340.16, L 169.80 340.16, L 172.77 340.16, L 175.75 340.16"
     style="stroke:black;stroke-width:0.71;stroke-linecap:round;fill:none"
     id="path3682" />
  <path
     d="M 209.76 413.29, L 206.93 407.20, L 204.09 401.10, L 201.26 395.01, L 198.43 388.91, L 195.59 382.82, L 192.76 376.72, L 189.92 370.63, L 187.09 364.54, L 184.25 358.44, L 181.42 352.35, L 178.58 346.25, L 175.75 340.16"
     style="stroke:black;stroke-width:0.71;stroke-linecap:round;fill:none;stroke-dasharray: 5.67 5.67"
     id="path3684" />
  <path
     d="M 56.69 399.69, L 60.52 400.03, L 64.35 400.37, L 68.17 400.71, L 72.00 401.05, L 75.83 401.39, L 79.65 401.73, L 83.48 402.07, L 87.31 402.41, L 91.13 402.75, L 94.96 403.09, L 98.79 403.43, L 102.61 403.77, L 106.44 404.11, L 110.27 404.45, L 114.09 404.79, L 117.92 405.13, L 121.75 405.47, L 125.57 405.81, L 129.40 406.15, L 133.23 406.49, L 137.06 406.83, L 140.88 407.17, L 144.71 407.51, L 148.54 407.85, L 152.36 408.19, L 156.19 408.53, L 160.02 408.87, L 163.84 409.21, L 167.67 409.55, L 171.50 409.89, L 175.32 410.23, L 179.15 410.57, L 182.98 410.91, L 186.80 411.25, L 190.63 411.59, L 194.46 411.93, L 198.28 412.27, L 202.11 412.61, L 205.94 412.95, L 209.76 413.29"
     style="stroke:black;stroke-width:0.71;stroke-linecap:round;fill:none;stroke-dasharray: 5.67 5.67"
     id="path3686" />
<!-- Render block 5
 -->  <path
     d="M 56.69 399.69, L 60.52 400.03, L 64.35 400.37, L 68.17 400.71, L 72.00 401.05, L 75.83 401.39, L 79.65 401.73, L 83.48 402.07, L 87.31 402.41, L 91.13 402.75, L 94.96 403.09, L 98.79 403.43, L 102.61 403.77, L 106.44 404.11, L 110.27 404.45, L 114.09 404.79, L 117.92 405.13, L 121.75 405.47, L 125.57 405.81, L 129.40 406.15, L 133.23 406.49, L 137.06 406.83, L 140.88 407.17, L 144.71 407.51, L 148.54 407.85, L 152.36 408.19, L 156.19 408.53, L 160.02 408.87, L 163.84 409.21, L 167.67 409.55, L 171.50 409.89, L 175.32 410.23, L 179.15 410.57, L 182.98 410.91, L 186.80 411.25, L 190.63 411.59, L 194.46 411.93, L 198.28 412.27, L 202.11 412.61, L 205.94 412.95, L 209.76 413.29"
     style="stroke:black;stroke-width:0.71;stroke-linecap:round;fill:none;stroke-dasharray: 5.67 5.67"
     id="path3694" />
  <path
     d="M 218.27 440.50, L 215.83 437.35, L 213.56 434.21, L 211.60 431.06, L 210.11 427.91, L 209.18 424.38, L 208.95 420.69, L 209.23 416.99, L 209.76 413.29"
     style="stroke:black;stroke-width:0.71;stroke-linecap:round;fill:none;stroke-dasharray: 5.67 5.67"
     id="path3696" />
  <path
     d="M 56.69 450.71, L 60.73 450.45, L 64.77 450.20, L 68.81 449.94, L 72.85 449.69, L 76.89 449.43, L 80.93 449.18, L 84.97 448.92, L 89.01 448.67, L 93.05 448.41, L 97.09 448.16, L 101.13 447.90, L 105.17 447.65, L 109.20 447.39, L 113.24 447.14, L 117.28 446.88, L 121.32 446.63, L 125.36 446.37, L 129.40 446.12, L 133.44 445.86, L 137.48 445.61, L 141.52 445.35, L 145.56 445.10, L 149.60 444.84, L 153.64 444.59, L 157.68 444.33, L 161.72 444.08, L 165.76 443.82, L 169.80 443.57, L 173.83 443.31, L 177.87 443.06, L 181.91 442.80, L 185.95 442.54, L 189.99 442.29, L 194.03 442.03, L 198.07 441.78, L 202.11 441.52, L 206.15 441.27, L 210.19 441.01, L 214.23 440.76, L 218.27 440.50"
     style="stroke:black;stroke-width:0.71;stroke-linecap:round;fill:none;stroke-dasharray: 5.67 5.67"
     id="path3698" />
<!-- Render block 6
 -->  <path
     d="M 56.69 450.71, L 60.73 450.45, L 64.77 450.20, L 68.81 449.94, L 72.85 449.69, L 76.89 449.43, L 80.93 449.18, L 84.97 448.92, L 89.01 448.67, L 93.05 448.41, L 97.09 448.16, L 101.13 447.90, L 105.17 447.65, L 109.20 447.39, L 113.24 447.14, L 117.28 446.88, L 121.32 446.63, L 125.36 446.37, L 129.40 446.12, L 133.44 445.86, L 137.48 445.61, L 141.52 445.35, L 145.56 445.10, L 149.60 444.84, L 153.64 444.59, L 157.68 444.33, L 161.72 444.08, L 165.76 443.82, L 169.80 443.57, L 173.83 443.31, L 177.87 443.06, L 181.91 442.80, L 185.95 442.54, L 189.99 442.29, L 194.03 442.03, L 198.07 441.78, L 202.11 441.52, L 206.15 441.27, L 210.19 441.01, L 214.23 440.76, L 218.27 440.50"
     style="stroke:black;stroke-width:0.71;stroke-linecap:round;fill:none;stroke-dasharray: 5.67 5.67"
     id="path3706" />
  <path
     d="M 235.28 501.73, L 233.86 496.63, L 232.44 491.53, L 231.02 486.43, L 229.61 481.32, L 228.19 476.22, L 226.77 471.12, L 225.35 466.02, L 223.94 460.91, L 222.52 455.81, L 221.10 450.71, L 219.69 445.61, L 218.27 440.50"
     style="stroke:black;stroke-width:0.71;stroke-linecap:round;fill:none;stroke-dasharray: 5.67 5.67"
     id="path3708" />
  <path
     d="M 56.69 510.24, L 61.25 510.24, L 65.80 510.24, L 70.35 510.24, L 74.90 510.24, L 79.46 510.24, L 84.01 510.24, L 88.56 510.24, L 93.11 510.24, L 97.67 510.24, L 102.22 510.24, L 106.77 510.24, L 111.32 510.24, L 115.88 510.24, L 120.43 510.24, L 124.98 510.24, L 129.53 510.24, L 134.09 510.24, L 138.64 510.24, L 143.19 510.24, L 147.75 510.24, L 152.30 510.24, L 156.85 510.24, L 161.40 510.24, L 165.96 510.24, L 170.51 510.24, L 175.06 510.24, L 179.61 510.24, L 184.17 510.24, L 188.72 510.24, L 193.27 510.24, L 197.82 510.24, L 202.38 510.24, L 206.93 510.24, L 211.48 510.24, L 216.03 510.24, L 220.59 510.24, L 225.14 510.24, L 228.84 508.17, L 232.06 504.95, L 235.28 501.73"
     style="stroke:black;stroke-width:0.71;stroke-linecap:round;fill:none"
     id="path3712" />
<!-- Render block 7
 -->  <path
     d="M 175.75 340.16, L 179.65 340.16, L 183.56 340.16, L 187.47 340.16, L 191.38 340.16, L 195.28 340.16, L 199.19 340.16, L 203.10 340.16, L 207.00 340.16, L 210.91 340.16, L 214.82 340.16, L 218.72 340.16, L 222.63 340.16, L 226.54 340.16, L 229.37 337.56, L 232.13 334.80, L 234.89 332.04, L 237.66 329.27, L 240.42 326.51, L 243.18 323.75, L 245.94 320.99, L 248.71 318.22, L 251.47 315.46, L 254.23 312.70, L 256.99 309.94, L 259.76 307.17, L 262.52 304.41, L 265.28 301.65, L 268.04 298.89, L 270.81 296.12, L 273.57 293.36, L 276.33 290.60, L 279.09 287.84, L 281.86 285.07, L 284.62 282.31, L 287.38 279.55, L 290.14 276.79, L 292.91 274.02, L 295.67 271.26, L 298.43 268.50, L 301.19 265.74, L 303.96 262.97, L 306.72 260.21, L 309.48 257.45, L 312.24 254.69, L 315.01 251.92, L 317.77 249.16, L 320.53 246.40, L 323.29 243.64, L 326.06 240.87, L 328.82 238.11"
     style="stroke:black;stroke-width:0.71;stroke-linecap:round;fill:none"
     id="path3722" />
  <path
     d="M 345.83 280.63, L 344.41 277.09, L 342.99 273.54, L 341.57 270.00, L 340.16 266.46, L 338.74 262.91, L 337.32 259.37, L 335.91 255.83, L 334.49 252.28, L 333.07 248.74, L 331.65 245.20, L 330.24 241.65, L 328.82 238.11"
     style="stroke:black;stroke-width:0.71;stroke-linecap:round;fill:none;stroke-dasharray: 5.67 5.67"
     id="path3724" />
  <path
     d="M 209.76 413.29, L 211.58 410.32, L 213.40 407.35, L 215.24 404.38, L 217.09 401.41, L 218.98 398.43, L 220.90 395.44, L 222.86 392.45, L 224.87 389.45, L 226.94 386.44, L 229.07 383.42, L 231.26 380.38, L 233.54 377.34, L 235.90 374.28, L 238.35 371.20, L 240.90 368.11, L 243.55 365.01, L 246.31 361.88, L 249.19 358.73, L 252.20 355.57, L 255.34 352.38, L 258.25 349.52, L 260.63 347.25, L 263.07 344.97, L 265.58 342.68, L 268.16 340.38, L 270.79 338.07, L 273.48 335.75, L 276.23 333.42, L 279.03 331.08, L 281.88 328.73, L 284.78 326.38, L 287.72 324.01, L 290.71 321.64, L 293.74 319.27, L 296.81 316.88, L 299.91 314.49, L 303.05 312.10, L 306.22 309.70, L 309.42 307.29, L 312.64 304.88, L 315.89 302.47, L 319.17 300.05, L 322.46 297.63, L 325.76 295.21, L 329.08 292.78, L 332.42 290.35, L 335.76 287.92, L 339.11 285.49, L 342.47 283.06, L 345.83 280.63"
     style="stroke:black;stroke-width:0.71;stroke-linecap:round;fill:none;stroke-dasharray: 5.67 5.67"
     id="path3726" />
  <path
     d="M 209.76 413.29, L 206.93 407.20, L 204.09 401.10, L 201.26 395.01, L 198.43 388.91, L 195.59 382.82, L 192.76 376.72, L 189.92 370.63, L 187.09 364.54, L 184.25 358.44, L 181.42 352.35, L 178.58 346.25, L 175.75 340.16"
     style="stroke:black;stroke-width:0.71;stroke-linecap:round;fill:none;stroke-dasharray: 5.67 5.67"
     id="path3728" />
<!-- Render block 8
 -->  <path
     d="M 218.27 440.50, L 221.36 441.36, L 224.44 442.03, L 227.53 442.35, L 230.59 442.14, L 233.46 441.38, L 236.33 440.19, L 239.21 438.72, L 242.08 437.10"
     style="stroke:black;stroke-width:0.71;stroke-linecap:round;fill:none;stroke-dasharray: 5.67 5.67"
     id="path3732" />
  <path
     d="M 260.79 476.22, L 259.23 472.96, L 257.67 469.70, L 256.11 466.44, L 254.55 463.18, L 252.99 459.92, L 251.43 456.66, L 249.87 453.40, L 248.31 450.14, L 246.76 446.88, L 245.20 443.62, L 243.64 440.36, L 242.08 437.10"
     style="stroke:black;stroke-width:0.71;stroke-linecap:round;fill:none;stroke-dasharray: 5.67 5.67"
     id="path3734" />
  <path
     d="M 235.28 501.73, L 238.46 498.54, L 241.65 495.35, L 244.84 492.17, L 248.03 488.98, L 251.22 485.79, L 254.41 482.60, L 257.60 479.41, L 260.79 476.22"
     style="stroke:black;stroke-width:0.71;stroke-linecap:round;fill:none"
     id="path3738" />
  <path
     d="M 235.28 501.73, L 233.86 496.63, L 232.44 491.53, L 231.02 486.43, L 229.61 481.32, L 228.19 476.22, L 226.77 471.12, L 225.35 466.02, L 223.94 460.91, L 222.52 455.81, L 221.10 450.71, L 219.69 445.61, L 218.27 440.50"
     style="stroke:black;stroke-width:0.71;stroke-linecap:round;fill:none;stroke-dasharray: 5.67 5.67"
     id="path3740" />
<!-- Render block 9
 -->  <path
     d="M 242.08 437.10, L 244.70 433.97, L 247.33 430.84, L 249.95 427.72, L 252.56 424.61, L 255.18 421.50, L 257.78 418.41, L 260.39 415.33, L 262.98 412.28, L 265.57 409.24, L 268.14 406.23, L 270.71 403.25, L 273.26 400.29, L 275.80 397.37, L 278.33 394.48, L 280.84 391.63, L 283.34 388.82, L 285.82 386.05, L 288.28 383.33, L 290.72 380.65, L 293.14 378.03, L 295.54 375.46, L 297.92 372.94, L 300.27 370.48, L 302.60 368.09, L 305.50 365.16, L 308.61 362.08, L 311.69 359.11, L 314.72 356.25, L 317.71 353.48, L 320.66 350.80, L 323.58 348.21, L 326.48 345.69, L 329.34 343.24, L 332.18 340.85, L 335.00 338.51, L 337.79 336.23, L 340.58 333.99, L 343.34 331.78, L 346.10 329.60, L 348.85 327.44, L 351.59 325.29, L 354.33 323.15"
     style="stroke:black;stroke-width:0.71;stroke-linecap:round;fill:none;stroke-dasharray: 5.67 5.67"
     id="path3744" />
  <path
     d="M 379.84 389.97, L 377.72 384.40, L 375.59 378.84, L 373.46 373.27, L 371.34 367.70, L 369.21 362.13, L 367.09 356.56, L 364.96 350.99, L 362.83 345.42, L 360.71 339.86, L 358.58 334.29, L 356.46 328.72, L 354.33 323.15"
     style="stroke:black;stroke-width:0.71;stroke-linecap:round;fill:none;stroke-dasharray: 5.67 5.67"
     id="path3746" />
  <path
     d="M 260.79 476.22, L 263.39 473.61, L 266.00 471.01, L 268.60 468.40, L 271.21 465.80, L 273.82 463.19, L 276.42 460.59, L 279.03 457.98, L 281.63 455.37, L 284.24 452.77, L 286.85 450.16, L 289.45 447.56, L 292.06 444.95, L 294.66 442.34, L 297.27 439.74, L 299.88 437.13, L 302.48 434.53, L 305.09 431.92, L 307.69 429.31, L 310.30 426.71, L 312.90 424.10, L 315.51 421.50, L 318.12 418.89, L 320.72 416.29, L 323.33 413.68, L 325.93 411.07, L 328.54 408.47, L 331.15 405.86, L 333.75 403.26, L 336.36 400.65, L 338.96 398.04, L 341.57 395.44, L 344.17 392.83, L 346.78 390.23, L 350.36 389.97, L 354.05 389.97, L 357.73 389.97, L 361.42 389.97, L 365.10 389.97, L 368.79 389.97, L 372.47 389.97, L 376.16 389.97, L 379.84 389.97"
     style="stroke:black;stroke-width:0.71;stroke-linecap:round;fill:none"
     id="path3750" />
  <path
     d="M 260.79 476.22, L 259.23 472.96, L 257.67 469.70, L 256.11 466.44, L 254.55 463.18, L 252.99 459.92, L 251.43 456.66, L 249.87 453.40, L 248.31 450.14, L 246.76 446.88, L 245.20 443.62, L 243.64 440.36, L 242.08 437.10"
     style="stroke:black;stroke-width:0.71;stroke-linecap:round;fill:none;stroke-dasharray: 5.67 5.67"
     id="path3752" />
<!-- Render block 10
 -->  <path
     d="M 328.82 238.11, L 331.59 235.34, L 334.36 232.57, L 337.13 229.80, L 339.90 227.03, L 342.67 224.26, L 345.44 221.49, L 348.69 219.89, L 352.61 219.89, L 356.52 219.89, L 360.44 219.89, L 364.36 219.89, L 368.28 219.89, L 372.19 219.89, L 376.11 219.89, L 380.03 219.89, L 383.94 219.89, L 387.86 219.89, L 391.78 219.89, L 395.69 219.89, L 399.61 219.89, L 403.53 219.89, L 407.44 219.89, L 411.36 219.89, L 415.28 219.89, L 419.19 219.89, L 423.11 219.89, L 427.03 219.89, L 430.94 219.89, L 434.86 219.89, L 438.78 219.89, L 442.69 219.89, L 446.61 219.89, L 450.53 219.89, L 454.45 219.89, L 458.36 219.89, L 462.28 219.89, L 466.20 219.89, L 470.11 219.89, L 474.03 219.89, L 477.95 219.89, L 481.86 219.89, L 485.78 219.89, L 489.70 219.89, L 493.61 219.89, L 497.53 219.89, L 501.45 219.89, L 505.36 219.89, L 509.28 219.89, L 513.20 219.89, L 517.11 219.89"
     style="stroke:black;stroke-width:0.71;stroke-linecap:round;fill:none"
     id="path3758" />
  <path
     d="M 345.83 280.63, L 349.25 280.46, L 352.68 280.29, L 356.10 280.12, L 359.53 279.95, L 362.96 279.78, L 366.38 279.61, L 369.81 279.44, L 373.23 279.27, L 376.66 279.10, L 380.08 278.93, L 383.51 278.76, L 386.94 278.59, L 390.36 278.42, L 393.79 278.25, L 397.21 278.08, L 400.64 277.91, L 404.06 277.74, L 407.49 277.57, L 410.92 277.40, L 414.34 277.23, L 417.77 277.06, L 421.19 276.89, L 424.62 276.72, L 428.04 276.55, L 431.47 276.38, L 434.90 276.21, L 438.32 276.04, L 441.75 275.87, L 445.17 275.70, L 448.60 275.53, L 452.03 275.36, L 455.45 275.19, L 458.88 275.02, L 462.30 274.85, L 465.73 274.68, L 469.15 274.51, L 472.58 274.34, L 476.01 274.17, L 479.43 274.00, L 482.86 273.83, L 486.28 273.66, L 489.71 273.49, L 493.13 273.32, L 496.56 273.15, L 499.99 272.98, L 503.41 272.81, L 506.84 272.64, L 510.26 272.47, L 513.69 272.30, L 517.11 272.13"
     style="stroke:black;stroke-width:0.71;stroke-linecap:round;fill:none;stroke-dasharray: 5.67 5.67"
     id="path3764" />
  <path
     d="M 345.83 280.63, L 344.41 277.09, L 342.99 273.54, L 341.57 270.00, L 340.16 266.46, L 338.74 262.91, L 337.32 259.37, L 335.91 255.83, L 334.49 252.28, L 333.07 248.74, L 331.65 245.20, L 330.24 241.65, L 328.82 238.11"
     style="stroke:black;stroke-width:0.71;stroke-linecap:round;fill:none;stroke-dasharray: 5.67 5.67"
     id="path3766" />
<!-- Render block 11
 -->  <path
     d="M 345.83 280.63, L 349.25 280.46, L 352.68 280.29, L 356.10 280.12, L 359.53 279.95, L 362.96 279.78, L 366.38 279.61, L 369.81 279.44, L 373.23 279.27, L 376.66 279.10, L 380.08 278.93, L 383.51 278.76, L 386.94 278.59, L 390.36 278.42, L 393.79 278.25, L 397.21 278.08, L 400.64 277.91, L 404.06 277.74, L 407.49 277.57, L 410.92 277.40, L 414.34 277.23, L 417.77 277.06, L 421.19 276.89, L 424.62 276.72, L 428.04 276.55, L 431.47 276.38, L 434.90 276.21, L 438.32 276.04, L 441.75 275.87, L 445.17 275.70, L 448.60 275.53, L 452.03 275.36, L 455.45 275.19, L 458.88 275.02, L 462.30 274.85, L 465.73 274.68, L 469.15 274.51, L 472.58 274.34, L 476.01 274.17, L 479.43 274.00, L 482.86 273.83, L 486.28 273.66, L 489.71 273.49, L 493.13 273.32, L 496.56 273.15, L 499.99 272.98, L 503.41 272.81, L 506.84 272.64, L 510.26 272.47, L 513.69 272.30, L 517.11 272.13"
     style="stroke:black;stroke-width:0.71;stroke-linecap:round;fill:none;stroke-dasharray: 5.67 5.67"
     id="path3770" />
  <path
     d="M 347.04 304.93, L 350.44 304.93, L 353.84 304.93, L 357.24 304.93, L 360.64 304.93, L 364.04 304.93, L 367.44 304.93, L 370.85 304.93, L 374.25 304.93, L 377.65 304.93, L 381.05 304.93, L 384.45 304.93, L 387.85 304.93, L 391.26 304.93, L 394.66 304.93, L 398.06 304.93, L 401.46 304.93, L 404.86 304.93, L 408.26 304.93, L 411.67 304.93, L 415.07 304.93, L 418.47 304.93, L 421.87 304.93, L 425.27 304.93, L 428.67 304.93, L 432.07 304.93, L 435.48 304.93, L 438.88 304.93, L 442.28 304.93, L 445.68 304.93, L 449.08 304.93, L 452.48 304.93, L 455.89 304.93, L 459.29 304.93, L 462.69 304.93, L 466.09 304.93, L 469.49 304.93, L 472.89 304.93, L 476.30 304.93, L 479.70 304.93, L 483.10 304.93, L 486.50 304.93, L 489.90 304.93, L 493.30 304.93, L 496.70 304.93, L 500.11 304.93, L 503.51 304.93, L 506.91 304.93, L 510.31 304.93, L 513.71 304.93, L 517.11 304.93"
     style="stroke:black;stroke-width:0.71;stroke-linecap:round;fill:none;stroke-dasharray: 5.67 5.67"
     id="path3776" />
  <path
     d="M 347.04 304.93, L 346.83 300.88, L 346.63 296.83, L 346.43 292.78, L 346.23 288.73, L 346.03 284.68, L 345.83 280.63"
     style="stroke:black;stroke-width:0.71;stroke-linecap:round;fill:none;stroke-dasharray: 5.67 5.67"
     id="path3778" />
<!-- Render block 12
 -->  <path
     d="M 347.04 304.93, L 350.44 304.93, L 353.84 304.93, L 357.24 304.93, L 360.64 304.93, L 364.04 304.93, L 367.44 304.93, L 370.85 304.93, L 374.25 304.93, L 377.65 304.93, L 381.05 304.93, L 384.45 304.93, L 387.85 304.93, L 391.26 304.93, L 394.66 304.93, L 398.06 304.93, L 401.46 304.93, L 404.86 304.93, L 408.26 304.93, L 411.67 304.93, L 415.07 304.93, L 418.47 304.93, L 421.87 304.93, L 425.27 304.93, L 428.67 304.93, L 432.07 304.93, L 435.48 304.93, L 438.88 304.93, L 442.28 304.93, L 445.68 304.93, L 449.08 304.93, L 452.48 304.93, L 455.89 304.93, L 459.29 304.93, L 462.69 304.93, L 466.09 304.93, L 469.49 304.93, L 472.89 304.93, L 476.30 304.93, L 479.70 304.93, L 483.10 304.93, L 486.50 304.93, L 489.90 304.93, L 493.30 304.93, L 496.70 304.93, L 500.11 304.93, L 503.51 304.93, L 506.91 304.93, L 510.31 304.93, L 513.71 304.93, L 517.11 304.93"
     style="stroke:black;stroke-width:0.71;stroke-linecap:round;fill:none;stroke-dasharray: 5.67 5.67"
     id="path3782" />
  <path
     d="M 354.33 323.15, L 357.59 323.49, L 360.84 323.83, L 364.10 324.17, L 367.35 324.51, L 370.61 324.85, L 373.86 325.19, L 377.12 325.53, L 380.38 325.87, L 383.63 326.21, L 386.89 326.55, L 390.14 326.89, L 393.40 327.23, L 396.65 327.57, L 399.91 327.91, L 403.17 328.25, L 406.42 328.59, L 409.68 328.93, L 412.93 329.27, L 416.19 329.61, L 419.44 329.95, L 422.70 330.29, L 425.96 330.63, L 429.21 330.97, L 432.47 331.31, L 435.72 331.65, L 438.98 331.99, L 442.23 332.33, L 445.49 332.67, L 448.75 333.01, L 452.00 333.35, L 455.26 333.69, L 458.51 334.03, L 461.77 334.37, L 465.02 334.71, L 468.28 335.06, L 471.53 335.40, L 474.79 335.74, L 478.05 336.08, L 481.30 336.42, L 484.56 336.76, L 487.81 337.10, L 491.07 337.44, L 494.32 337.78, L 497.58 338.12, L 500.84 338.46, L 504.09 338.80, L 507.35 339.14, L 510.60 339.48, L 513.86 339.82, L 517.11 340.16"
     style="stroke:black;stroke-width:0.71;stroke-linecap:round;fill:none;stroke-dasharray: 5.67 5.67"
     id="path3788" />
  <path
     d="M 354.33 323.15, L 353.11 320.11, L 351.90 317.08, L 350.68 314.04, L 349.47 311.01, L 348.25 307.97, L 347.04 304.93"
     style="stroke:black;stroke-width:0.71;stroke-linecap:round;fill:none;stroke-dasharray: 5.67 5.67"
     id="path3790" />
<!-- Render block 13
 -->  <path
     d="M 354.33 323.15, L 357.59 323.49, L 360.84 323.83, L 364.10 324.17, L 367.35 324.51, L 370.61 324.85, L 373.86 325.19, L 377.12 325.53, L 380.38 325.87, L 383.63 326.21, L 386.89 326.55, L 390.14 326.89, L 393.40 327.23, L 396.65 327.57, L 399.91 327.91, L 403.17 328.25, L 406.42 328.59, L 409.68 328.93, L 412.93 329.27, L 416.19 329.61, L 419.44 329.95, L 422.70 330.29, L 425.96 330.63, L 429.21 330.97, L 432.47 331.31, L 435.72 331.65, L 438.98 331.99, L 442.23 332.33, L 445.49 332.67, L 448.75 333.01, L 452.00 333.35, L 455.26 333.69, L 458.51 334.03, L 461.77 334.37, L 465.02 334.71, L 468.28 335.06, L 471.53 335.40, L 474.79 335.74, L 478.05 336.08, L 481.30 336.42, L 484.56 336.76, L 487.81 337.10, L 491.07 337.44, L 494.32 337.78, L 497.58 338.12, L 500.84 338.46, L 504.09 338.80, L 507.35 339.14, L 510.60 339.48, L 513.86 339.82, L 517.11 340.16"
     style="stroke:black;stroke-width:0.71;stroke-linecap:round;fill:none;stroke-dasharray: 5.67 5.67"
     id="path3794" />
  <path
     d="M 379.84 389.97, L 382.59 389.97, L 385.33 389.97, L 388.08 389.97, L 390.82 389.97, L 393.57 389.97, L 396.32 389.97, L 399.06 389.97, L 401.81 389.97, L 404.55 389.97, L 407.30 389.97, L 410.04 389.97, L 412.79 389.97, L 415.53 389.97, L 418.28 389.97, L 421.02 389.97, L 423.77 389.97, L 426.51 389.97, L 429.26 389.97, L 432.01 389.97, L 434.75 389.97, L 437.50 389.97, L 440.24 389.97, L 442.99 389.97, L 445.73 389.97, L 448.48 389.97, L 451.22 389.97, L 453.97 389.97, L 456.71 389.97, L 459.46 389.97, L 462.21 389.97, L 464.95 389.97, L 467.70 389.97, L 470.44 389.97, L 473.19 389.97, L 475.93 389.97, L 478.68 389.97, L 481.42 389.97, L 484.17 389.97, L 486.91 389.97, L 489.66 389.97, L 492.41 389.97, L 495.15 389.97, L 497.90 389.97, L 500.64 389.97, L 503.39 389.97, L 506.13 389.97, L 508.88 389.97, L 511.62 389.97, L 514.37 389.97, L 517.11 389.97"
     style="stroke:black;stroke-width:0.71;stroke-linecap:round;fill:none"
     id="path3802" />
  <path
     d="M 379.84 389.97, L 377.72 384.40, L 375.59 378.84, L 373.46 373.27, L 371.34 367.70, L 369.21 362.13, L 367.09 356.56, L 364.96 350.99, L 362.83 345.42, L 360.71 339.86, L 358.58 334.29, L 356.46 328.72, L 354.33 323.15"
     style="stroke:black;stroke-width:0.71;stroke-linecap:round;fill:none;stroke-dasharray: 5.67 5.67"
     id="path3804" />
<!-- end of drawing -->  <text
     xml:space="preserve"
     style="font-size:4px;font-style:normal;font-weight:normal;fill:#000000;fill-opacity:1;stroke:none;stroke-width:1px;stroke-linecap:butt;stroke-linejoin:miter;stroke-opacity:1;font-family:Bitstream Vera Sans"
     x="232.57762"
     y="465.35526"
     id="text3833"><tspan
       sodipodi:role="line"
       id="tspan3835"
       x="232.57762"
       y="465.35526">outer2</tspan></text>
  <text
     xml:space="preserve"
     style="font-size:4px;font-style:normal;font-weight:normal;fill:#000000;fill-opacity:1;stroke:none;stroke-width:1px;stroke-linecap:butt;stroke-linejoin:miter;stroke-opacity:1;font-family:Bitstream Vera Sans"
     x="308.52136"
     y="391.94302"
     id="text3837"><tspan
       sodipodi:role="line"
       id="tspan3839"
       x="308.52136"
       y="391.94302">outer3</tspan></text>
  <text
     xml:space="preserve"
     style="font-size:4px;font-style:normal;font-weight:normal;fill:#000000;fill-opacity:1;stroke:none;stroke-width:1px;stroke-linecap:butt;stroke-linejoin:miter;stroke-opacity:1;font-family:Bitstream Vera Sans"
     x="281.94104"
     y="370.42563"
     id="text3841"><tspan
       sodipodi:role="line"
       id="tspan3843"
       x="281.94104"
       y="370.42563">inner4</tspan></text>
  <text
     xml:space="preserve"
     style="font-size:4px;font-style:normal;font-weight:normal;fill:#000000;fill-opacity:1;stroke:none;stroke-width:1px;stroke-linecap:butt;stroke-linejoin:miter;stroke-opacity:1;font-family:Bitstream Vera Sans"
     x="268.01804"
     y="347.00964"
     id="text3845"><tspan
       sodipodi:role="line"
       id="tspan3847"
       x="268.01804"
       y="347.00964">inner1</tspan></text>
  <text
     xml:space="preserve"
     style="font-size:4px;font-style:normal;font-weight:normal;fill:#000000;fill-opacity:1;stroke:none;stroke-width:1px;stroke-linecap:butt;stroke-linejoin:miter;stroke-opacity:1;font-family:Bitstream Vera Sans"
     x="259.47433"
     y="321.37863"
     id="text3849"><tspan
       sodipodi:role="line"
       id="tspan3851"
       x="259.47433"
       y="321.37863">outer1</tspan></text>
  <text
     xml:space="preserve"
     style="font-size:4px;font-style:normal;font-weight:normal;fill:#000000;fill-opacity:1;stroke:none;stroke-width:1px;stroke-linecap:butt;stroke-linejoin:miter;stroke-opacity:1;font-family:Bitstream Vera Sans"
     x="354.08755"
     y="253.97861"
     id="text3853"><tspan
       sodipodi:role="line"
       id="tspan3855"
       x="354.08755"
       y="253.97861">out1</tspan></text>
  <text
     xml:space="preserve"
     style="font-size:4px;font-style:normal;font-weight:normal;fill:#000000;fill-opacity:1;stroke:none;stroke-width:1px;stroke-linecap:butt;stroke-linejoin:miter;stroke-opacity:1;font-family:Bitstream Vera Sans"
     x="360.09976"
     y="293.21619"
     id="text3857"><tspan
       sodipodi:role="line"
       id="tspan3859"
       x="360.09976"
       y="293.21619">out2</tspan></text>
  <text
     xml:space="preserve"
     style="font-size:4px;font-style:normal;font-weight:normal;fill:#000000;fill-opacity:1;stroke:none;stroke-width:1px;stroke-linecap:butt;stroke-linejoin:miter;stroke-opacity:1;font-family:Bitstream Vera Sans"
     x="368.01059"
     y="315.36646"
     id="text3861"><tspan
       sodipodi:role="line"
       id="tspan3863"
       x="368.01059"
       y="315.36646">out3</tspan></text>
  <text
     xml:space="preserve"
     style="font-size:4px;font-style:normal;font-weight:normal;fill:#000000;fill-opacity:1;stroke:none;stroke-width:1px;stroke-linecap:butt;stroke-linejoin:miter;stroke-opacity:1;font-family:Bitstream Vera Sans"
     x="381.93359"
     y="361.88196"
     id="text3865"><tspan
       sodipodi:role="line"
       id="tspan3867"
       x="381.93359"
       y="361.88196">out4</tspan></text>
  <text
     xml:space="preserve"
     style="font-size:4px;font-style:normal;font-weight:normal;fill:#000000;fill-opacity:1;stroke:none;stroke-width:1px;stroke-linecap:butt;stroke-linejoin:miter;stroke-opacity:1;font-family:Bitstream Vera Sans"
     x="338.03824"
     y="304.26413"
     id="text3869"><tspan
       sodipodi:role="line"
       id="tspan3871"
       x="338.03824"
       y="304.26413">TE</tspan></text>
  <text
     xml:space="preserve"
     style="font-size:4px;font-style:normal;font-weight:normal;fill:#000000;fill-opacity:1;stroke:none;stroke-width:1px;stroke-linecap:butt;stroke-linejoin:miter;stroke-opacity:1;font-family:Bitstream Vera Sans"
     x="333.03363"
     y="324.43417"
     id="text3873"><tspan
       sodipodi:role="line"
       id="tspan3875"
       x="333.03363"
       y="324.43417">TE_down</tspan></text>
  <text
     xml:space="preserve"
     style="font-size:4px;font-style:normal;font-weight:normal;fill:#000000;fill-opacity:1;stroke:none;stroke-width:1px;stroke-linecap:butt;stroke-linejoin:miter;stroke-opacity:1;font-family:Bitstream Vera Sans"
     x="178.95042"
     y="429.00415"
     id="text3877"><tspan
       sodipodi:role="line"
       id="tspan3879"
       x="178.95042"
       y="429.00415">in2</tspan></text>
  <text
     xml:space="preserve"
     style="font-size:4px;font-style:normal;font-weight:normal;fill:#000000;fill-opacity:1;stroke:none;stroke-width:1px;stroke-linecap:butt;stroke-linejoin:miter;stroke-opacity:1;font-family:Bitstream Vera Sans"
     x="204.85182"
     y="476.14035"
     id="text3881"><tspan
       sodipodi:role="line"
       id="tspan3883"
       x="204.85182"
       y="476.14035">in3</tspan></text>
  <text
     xml:space="preserve"
     style="font-size:4px;font-style:normal;font-weight:normal;fill:#000000;fill-opacity:1;stroke:none;stroke-width:1px;stroke-linecap:butt;stroke-linejoin:miter;stroke-opacity:1;font-family:Bitstream Vera Sans"
     x="186.04843"
     y="417.08389"
     id="text3885"><tspan
       sodipodi:role="line"
       id="tspan3887"
       x="186.04843"
       y="417.08389">LE_out_up</tspan></text>
  <text
     xml:space="preserve"
     style="font-size:4px;font-style:normal;font-weight:normal;fill:#000000;fill-opacity:1;stroke:none;stroke-width:1px;stroke-linecap:butt;stroke-linejoin:miter;stroke-opacity:1;font-family:Bitstream Vera Sans"
     x="216.58429"
     y="413.62106"
     id="text3889"><tspan
       sodipodi:role="line"
       id="tspan3891"
       x="216.58429"
       y="413.62106">LE_up</tspan></text>
  <text
     xml:space="preserve"
     style="font-size:4px;font-style:normal;font-weight:normal;fill:#000000;fill-opacity:1;stroke:none;stroke-width:1px;stroke-linecap:butt;stroke-linejoin:miter;stroke-opacity:1;font-family:Bitstream Vera Sans"
     x="210.91785"
     y="422.90775"
     id="text3893"><tspan
       sodipodi:role="line"
       id="tspan3895"
       x="210.91785"
       y="422.90775">inner2</tspan></text>
  <text
     xml:space="preserve"
     style="font-size:4px;font-style:normal;font-weight:normal;fill:#000000;fill-opacity:1;stroke:none;stroke-width:1px;stroke-linecap:butt;stroke-linejoin:miter;stroke-opacity:1;font-family:Bitstream Vera Sans"
     x="224.13957"
     y="436.28687"
     id="text3897"><tspan
       sodipodi:role="line"
       id="tspan3899"
       x="224.13957"
       y="436.28687">inner3</tspan></text>
  <text
     xml:space="preserve"
     style="font-size:4px;font-style:normal;font-weight:normal;fill:#000000;fill-opacity:1;stroke:none;stroke-width:1px;stroke-linecap:butt;stroke-linejoin:miter;stroke-opacity:1;font-family:Bitstream Vera Sans"
     x="235.00024"
     y="422.75037"
     id="text3901"><tspan
       sodipodi:role="line"
       id="tspan3903"
       x="235.00024"
       y="422.75037">LE_down</tspan></text>
  <text
     xml:space="preserve"
     style="font-size:4px;font-style:normal;font-weight:normal;fill:#000000;fill-opacity:1;stroke:none;stroke-width:1px;stroke-linecap:butt;stroke-linejoin:miter;stroke-opacity:1;font-family:Bitstream Vera Sans"
     x="246.17577"
     y="438.80527"
     id="text3905"><tspan
       sodipodi:role="line"
       id="tspan3907"
       x="246.17577"
       y="438.80527">LE_out_down</tspan></text>
  <text
     xml:space="preserve"
     style="font-size:4px;font-style:normal;font-weight:normal;fill:#000000;fill-opacity:1;stroke:none;stroke-width:1px;stroke-linecap:butt;stroke-linejoin:miter;stroke-opacity:1;font-family:Bitstream Vera Sans"
     x="219.26012"
     y="429.51862"
     id="text3909"><tspan
       sodipodi:role="line"
       id="tspan3911"
       x="219.26012"
       y="429.51862">LE</tspan></text>
  <text
     xml:space="preserve"
     style="font-size:4px;font-style:normal;font-weight:normal;fill:#000000;fill-opacity:1;stroke:none;stroke-width:1px;stroke-linecap:butt;stroke-linejoin:miter;stroke-opacity:1;font-family:Bitstream Vera Sans"
     x="204.14958"
     y="446.36053"
     id="text3913"><tspan
       sodipodi:role="line"
       id="tspan3915"
       x="204.14958"
       y="446.36053">LE_out</tspan></text>
</svg>
