<?xml version="1.0"?>
<!DOCTYPE svg PUBLIC "-//W3C//DTD SVG 1.0//EN"
"http://www.w3.org/TR/2001/REC-SVG-20010904/DTD/svg10.dtd">
<svg xmlns:svg="http://www.w3.org/2000/svg"
     xmlns:xlink="http://www.w3.org/1999/xlink"
     width="566.93" height="566.93"
     version="1.0">
<title>inviscid Euler for 2D-sc10</title>
<desc>SVG file written by e3prep.py</desc>
<!-- drawing begins here -->
<line x1="56.69" y1="527.24" x2="566.93" y2="527.24" style="stroke:black;stroke-width:1.42;stroke-linecap:round;fill:none" />
<text x="311.81" y="552.76" style="font-size:10;text-anchor:start;fill:black;stroke:none;font-weight:normal;font-family:sanserif" >x</text>
<line x1="56.69" y1="527.24" x2="56.69" y2="521.57" style="stroke:black;stroke-width:1.42;stroke-linecap:round;fill:none" />
<text x="56.69" y="541.42" style="font-size:10;text-anchor:middle;fill:black;stroke:none;font-weight:normal;font-family:sanserif" >-1</text>
<line x1="141.73" y1="527.24" x2="141.73" y2="521.57" style="stroke:black;stroke-width:1.42;stroke-linecap:round;fill:none" />
<text x="141.73" y="541.42" style="font-size:10;text-anchor:middle;fill:black;stroke:none;font-weight:normal;font-family:sanserif" >-0.5</text>
<line x1="226.77" y1="527.24" x2="226.77" y2="521.57" style="stroke:black;stroke-width:1.42;stroke-linecap:round;fill:none" />
<text x="226.77" y="541.42" style="font-size:10;text-anchor:middle;fill:black;stroke:none;font-weight:normal;font-family:sanserif" >0</text>
<line x1="311.81" y1="527.24" x2="311.81" y2="521.57" style="stroke:black;stroke-width:1.42;stroke-linecap:round;fill:none" />
<text x="311.81" y="541.42" style="font-size:10;text-anchor:middle;fill:black;stroke:none;font-weight:normal;font-family:sanserif" >0.5</text>
<line x1="396.85" y1="527.24" x2="396.85" y2="521.57" style="stroke:black;stroke-width:1.42;stroke-linecap:round;fill:none" />
<text x="396.85" y="541.42" style="font-size:10;text-anchor:middle;fill:black;stroke:none;font-weight:normal;font-family:sanserif" >1</text>
<line x1="481.89" y1="527.24" x2="481.89" y2="521.57" style="stroke:black;stroke-width:1.42;stroke-linecap:round;fill:none" />
<text x="481.89" y="541.42" style="font-size:10;text-anchor:middle;fill:black;stroke:none;font-weight:normal;font-family:sanserif" >1.5</text>
<line x1="566.93" y1="527.24" x2="566.93" y2="521.57" style="stroke:black;stroke-width:1.42;stroke-linecap:round;fill:none" />
<text x="566.93" y="541.42" style="font-size:10;text-anchor:middle;fill:black;stroke:none;font-weight:normal;font-family:sanserif" >2</text>
<line x1="39.69" y1="510.24" x2="39.69" y2="170.08" style="stroke:black;stroke-width:1.42;stroke-linecap:round;fill:none" />
<text x="17.01" y="340.16" style="font-size:10;text-anchor:end;fill:black;stroke:none;font-weight:normal;font-family:sanserif" >y</text>
<line x1="39.69" y1="510.24" x2="45.35" y2="510.24" style="stroke:black;stroke-width:1.42;stroke-linecap:round;fill:none" />
<text x="31.18" y="510.24" style="font-size:10;text-anchor:end;fill:black;stroke:none;font-weight:normal;font-family:sanserif" >-0.5</text>
<line x1="39.69" y1="425.20" x2="45.35" y2="425.20" style="stroke:black;stroke-width:1.42;stroke-linecap:round;fill:none" />
<text x="31.18" y="425.20" style="font-size:10;text-anchor:end;fill:black;stroke:none;font-weight:normal;font-family:sanserif" >0</text>
<line x1="39.69" y1="340.16" x2="45.35" y2="340.16" style="stroke:black;stroke-width:1.42;stroke-linecap:round;fill:none" />
<text x="31.18" y="340.16" style="font-size:10;text-anchor:end;fill:black;stroke:none;font-weight:normal;font-family:sanserif" >0.5</text>
<line x1="39.69" y1="255.12" x2="45.35" y2="255.12" style="stroke:black;stroke-width:1.42;stroke-linecap:round;fill:none" />
<text x="31.18" y="255.12" style="font-size:10;text-anchor:end;fill:black;stroke:none;font-weight:normal;font-family:sanserif" >1</text>
<line x1="39.69" y1="170.08" x2="45.35" y2="170.08" style="stroke:black;stroke-width:1.42;stroke-linecap:round;fill:none" />
<text x="31.18" y="170.08" style="font-size:10;text-anchor:end;fill:black;stroke:none;font-weight:normal;font-family:sanserif" >1.5</text>
<!-- There are 39 nodes
 -->
<circle cx="228.03" cy="418.71" r="2.83" style="fill:black" />
<text x="228.03" y="414.45" style="font-size:10;text-anchor:end;fill:black;stroke:none;font-weight:normal;font-family:sanserif" >LE_up</text>
<circle cx="209.76" cy="413.29" r="2.83" style="fill:black" />
<text x="209.76" y="409.04" style="font-size:10;text-anchor:end;fill:black;stroke:none;font-weight:normal;font-family:sanserif" >LE_out_up</text>
<circle cx="226.77" cy="425.20" r="2.83" style="fill:black" />
<text x="226.77" y="420.94" style="font-size:10;text-anchor:end;fill:black;stroke:none;font-weight:normal;font-family:sanserif" >LE</text>
<circle cx="218.27" cy="440.50" r="2.83" style="fill:black" />
<text x="218.27" y="436.25" style="font-size:10;text-anchor:end;fill:black;stroke:none;font-weight:normal;font-family:sanserif" >LE_out</text>
<circle cx="231.29" cy="422.61" r="2.83" style="fill:black" />
<text x="231.29" y="418.35" style="font-size:10;text-anchor:end;fill:black;stroke:none;font-weight:normal;font-family:sanserif" >LE_down</text>
<circle cx="242.08" cy="437.10" r="2.83" style="fill:black" />
<text x="242.08" y="432.85" style="font-size:10;text-anchor:end;fill:black;stroke:none;font-weight:normal;font-family:sanserif" >LE_out_down</text>
<circle cx="354.33" cy="323.15" r="2.83" style="fill:black" />
<text x="354.33" y="318.90" style="font-size:10;text-anchor:end;fill:black;stroke:none;font-weight:normal;font-family:sanserif" >TE_down</text>
<circle cx="257.39" cy="350.36" r="2.83" style="fill:black" />
<circle cx="209.76" cy="426.90" r="2.83" style="fill:black" />
<circle cx="230.17" cy="442.20" r="2.83" style="fill:black" />
<circle cx="303.31" cy="367.37" r="2.83" style="fill:black" />
<circle cx="56.69" cy="399.69" r="2.83" style="fill:black" />
<circle cx="175.75" cy="340.16" r="2.83" style="fill:black" />
<circle cx="56.69" cy="340.16" r="2.83" style="fill:black" />
<circle cx="56.69" cy="450.71" r="2.83" style="fill:black" />
<circle cx="56.69" cy="399.69" r="2.83" style="fill:black" />
<circle cx="56.69" cy="510.24" r="2.83" style="fill:black" />
<circle cx="226.77" cy="510.24" r="2.83" style="fill:black" />
<circle cx="235.28" cy="501.73" r="2.83" style="fill:black" />
<circle cx="56.69" cy="450.71" r="2.83" style="fill:black" />
<circle cx="328.82" cy="238.11" r="2.83" style="fill:black" />
<circle cx="226.77" cy="340.16" r="2.83" style="fill:black" />
<circle cx="175.75" cy="340.16" r="2.83" style="fill:black" />
<circle cx="235.28" cy="501.73" r="2.83" style="fill:black" />
<circle cx="260.79" cy="476.22" r="2.83" style="fill:black" />
<circle cx="260.79" cy="476.22" r="2.83" style="fill:black" />
<circle cx="347.04" cy="389.97" r="2.83" style="fill:black" />
<circle cx="379.84" cy="389.97" r="2.83" style="fill:black" />
<circle cx="517.11" cy="272.13" r="2.83" style="fill:black" />
<circle cx="517.11" cy="219.89" r="2.83" style="fill:black" />
<circle cx="347.04" cy="219.89" r="2.83" style="fill:black" />
<circle cx="328.82" cy="238.11" r="2.83" style="fill:black" />
<circle cx="517.11" cy="304.93" r="2.83" style="fill:black" />
<circle cx="517.11" cy="272.13" r="2.83" style="fill:black" />
<circle cx="517.11" cy="340.16" r="2.83" style="fill:black" />
<circle cx="517.11" cy="304.93" r="2.83" style="fill:black" />
<circle cx="379.84" cy="389.97" r="2.83" style="fill:black" />
<circle cx="517.11" cy="389.97" r="2.83" style="fill:black" />
<circle cx="517.11" cy="340.16" r="2.83" style="fill:black" />
<!-- There are 14 blocks
 -->
<!-- Render block 0
 -->
<text x="269.98" y="346.47" style="font-size:10;text-anchor:middle;fill:black;stroke:none;font-weight:normal;font-family:sanserif" >inner1</text>
<path d="M 209.76,413.29 L 211.67,410.30 L 213.58,407.31 L 215.50,404.33 L 217.44,401.33 L 219.40,398.34 L 221.39,395.35 L 223.40,392.35 L 225.46,389.35 L 227.55,386.34 L 229.70,383.33 L 231.90,380.32 L 234.15,377.30 L 236.47,374.27 L 238.86,371.24 L 241.32,368.20 L 243.86,365.16 L 246.49,362.10 L 249.20,359.04 L 252.01,355.97 L 254.93,352.89 L 257.81,349.93 L 260.19,347.56 L 262.64,345.18 L 265.14,342.80 L 267.70,340.41 L 270.31,338.01 L 272.98,335.62 L 275.69,333.21 L 278.46,330.80 L 281.26,328.39 L 284.12,325.98 L 287.01,323.56 L 289.94,321.14 L 292.90,318.71 L 295.90,316.28 L 298.93,313.85 L 301.99,311.41 L 305.07,308.98 L 308.18,306.54 L 311.31,304.10 L 314.46,301.65 L 317.62,299.21 L 320.80,296.76 L 323.99,294.32 L 327.20,291.87 L 330.40,289.42 L 333.62,286.97 L 336.83,284.52" style="stroke:black;stroke-width:0.71;stroke-linecap:round;fill:none;stroke-dasharray: 5.67 5.67"/>
<path d="M 347.04,304.93 L 345.33,301.53 L 343.63,298.13 L 341.93,294.73 L 340.23,291.33 L 338.53,287.93 L 336.83,284.52" style="stroke:black;stroke-width:0.71;stroke-linecap:round;fill:none;stroke-dasharray: 5.67 5.67"/>
<text x="279.87" y="354.00" transform="rotate(-42.72,279.87,354.00)"  style="font-size:10;text-anchor:middle;fill:black;stroke:none;font-weight:normal;font-family:sanserif" >SLIP_WALL</text>
<path d="M 228.03,418.71 L 229.52,415.57 L 231.15,412.51 L 232.89,409.50 L 234.70,406.53 L 236.58,403.61 L 238.52,400.73 L 240.51,397.88 L 242.54,395.06 L 244.62,392.28 L 246.74,389.52 L 248.89,386.80 L 251.09,384.11 L 253.32,381.44 L 255.58,378.81 L 257.87,376.20 L 260.20,373.62 L 262.55,371.06 L 264.94,368.54 L 267.35,366.04 L 269.79,363.56 L 272.25,361.11 L 274.74,358.69 L 277.26,356.30 L 279.80,353.93 L 282.36,351.59 L 284.95,349.27 L 287.56,346.98 L 290.20,344.71 L 292.85,342.47 L 295.53,340.25 L 298.22,338.06 L 300.94,335.90 L 303.68,333.76 L 306.44,331.65 L 309.22,329.57 L 312.02,327.51 L 314.84,325.48 L 317.67,323.47 L 320.53,321.49 L 323.40,319.54 L 326.29,317.62 L 329.20,315.72 L 332.13,313.85 L 335.08,312.01 L 338.04,310.20 L 341.02,308.41 L 344.02,306.66 L 347.04,304.93" style="stroke:black;stroke-width:0.71;stroke-linecap:round;fill:none"/>
<path d="M 228.03,418.71 L 224.98,417.80 L 221.94,416.90 L 218.89,416.00 L 215.85,415.10 L 212.81,414.19 L 209.76,413.29" style="stroke:black;stroke-width:0.71;stroke-linecap:round;fill:none;stroke-dasharray: 5.67 5.67"/>
<!-- Render block 1
 -->
<text x="218.10" y="421.93" style="font-size:10;text-anchor:middle;fill:black;stroke:none;font-weight:normal;font-family:sanserif" >inner2</text>
<path d="M 209.76,413.29 L 212.81,414.19 L 215.85,415.10 L 218.89,416.00 L 221.94,416.90 L 224.98,417.80 L 228.03,418.71" style="stroke:black;stroke-width:0.71;stroke-linecap:round;fill:none;stroke-dasharray: 5.67 5.67"/>
<text x="226.80" y="421.92" transform="rotate(-73.14,226.80,421.92)"  style="font-size:10;text-anchor:middle;fill:black;stroke:none;font-weight:normal;font-family:sanserif" >SLIP_WALL</text>
<path d="M 226.77,425.20 L 226.41,424.57 L 226.40,423.79 L 226.51,423.03 L 226.69,422.29 L 226.91,421.56 L 227.17,420.84 L 227.44,420.12 L 227.72,419.41 L 228.03,418.71" style="stroke:black;stroke-width:0.71;stroke-linecap:round;fill:none"/>
<path d="M 218.27,440.50 L 219.69,437.95 L 221.10,435.40 L 222.52,432.85 L 223.94,430.30 L 225.35,427.75 L 226.77,425.20" style="stroke:black;stroke-width:0.71;stroke-linecap:round;fill:none;stroke-dasharray: 5.67 5.67"/>
<path d="M 218.27,440.50 L 216.10,437.70 L 214.04,434.91 L 212.21,432.11 L 210.70,429.31 L 209.63,426.44 L 209.03,423.15 L 208.98,419.87 L 209.28,416.58 L 209.76,413.29" style="stroke:black;stroke-width:0.71;stroke-linecap:round;fill:none;stroke-dasharray: 5.67 5.67"/>
<!-- Render block 2
 -->
<text x="229.67" y="430.23" style="font-size:10;text-anchor:middle;fill:black;stroke:none;font-weight:normal;font-family:sanserif" >inner3</text>
<text x="229.21" y="424.36" transform="rotate(-36.13,229.21,424.36)"  style="font-size:10;text-anchor:middle;fill:black;stroke:none;font-weight:normal;font-family:sanserif" >SLIP_WALL</text>
<path d="M 226.77,425.20 L 227.35,425.31 L 227.92,425.14 L 228.46,424.87 L 228.97,424.54 L 229.46,424.18 L 229.93,423.81 L 230.39,423.42 L 230.84,423.02 L 231.29,422.61" style="stroke:black;stroke-width:0.71;stroke-linecap:round;fill:none"/>
<path d="M 242.08,437.10 L 240.28,434.69 L 238.48,432.27 L 236.68,429.85 L 234.88,427.44 L 233.08,425.02 L 231.29,422.61" style="stroke:black;stroke-width:0.71;stroke-linecap:round;fill:none;stroke-dasharray: 5.67 5.67"/>
<path d="M 218.27,440.50 L 221.01,441.27 L 223.76,441.91 L 226.50,442.29 L 229.25,442.31 L 231.87,441.86 L 234.42,441.03 L 236.97,439.89 L 239.53,438.54 L 242.08,437.10" style="stroke:black;stroke-width:0.71;stroke-linecap:round;fill:none;stroke-dasharray: 5.67 5.67"/>
<path d="M 218.27,440.50 L 219.69,437.95 L 221.10,435.40 L 222.52,432.85 L 223.94,430.30 L 225.35,427.75 L 226.77,425.20" style="stroke:black;stroke-width:0.71;stroke-linecap:round;fill:none;stroke-dasharray: 5.67 5.67"/>
<!-- Render block 3
 -->
<text x="289.00" y="365.37" style="font-size:10;text-anchor:middle;fill:black;stroke:none;font-weight:normal;font-family:sanserif" >inner4</text>
<text x="285.83" y="360.45" transform="rotate(-46.59,285.83,360.45)"  style="font-size:10;text-anchor:middle;fill:black;stroke:none;font-weight:normal;font-family:sanserif" >SLIP_WALL</text>
<path d="M 231.29,422.61 L 234.06,419.81 L 236.72,416.91 L 239.31,413.94 L 241.88,410.95 L 244.42,407.94 L 246.94,404.92 L 249.47,401.89 L 251.99,398.87 L 254.52,395.85 L 257.05,392.83 L 259.59,389.82 L 262.14,386.82 L 264.71,383.83 L 267.29,380.85 L 269.88,377.88 L 272.49,374.93 L 275.11,371.99 L 277.75,369.07 L 280.41,366.17 L 283.09,363.28 L 285.79,360.41 L 288.50,357.55 L 291.24,354.72 L 293.99,351.90 L 296.77,349.11 L 299.57,346.34 L 302.38,343.58 L 305.22,340.85 L 308.08,338.14 L 310.96,335.45 L 313.86,332.78 L 316.77,330.14 L 319.71,327.51 L 322.67,324.91 L 325.65,322.34 L 328.65,319.78 L 331.67,317.25 L 334.70,314.74 L 337.76,312.25 L 340.83,309.79 L 343.93,307.35 L 347.04,304.93" style="stroke:black;stroke-width:0.71;stroke-linecap:round;fill:none"/>
<path d="M 354.33,323.15 L 353.11,320.11 L 351.90,317.08 L 350.68,314.04 L 349.47,311.01 L 348.25,307.97 L 347.04,304.93" style="stroke:black;stroke-width:0.71;stroke-linecap:round;fill:none;stroke-dasharray: 5.67 5.67"/>
<path d="M 242.08,437.10 L 244.70,433.97 L 247.33,430.84 L 249.95,427.72 L 252.56,424.61 L 255.18,421.50 L 257.78,418.41 L 260.39,415.33 L 262.98,412.28 L 265.57,409.24 L 268.14,406.23 L 270.71,403.25 L 273.26,400.29 L 275.80,397.37 L 278.33,394.48 L 280.84,391.63 L 283.34,388.82 L 285.82,386.05 L 288.28,383.33 L 290.72,380.65 L 293.14,378.03 L 295.54,375.46 L 297.92,372.94 L 300.27,370.48 L 302.60,368.09 L 305.50,365.16 L 308.61,362.08 L 311.69,359.11 L 314.72,356.25 L 317.71,353.48 L 320.66,350.80 L 323.58,348.21 L 326.48,345.69 L 329.34,343.24 L 332.18,340.85 L 335.00,338.51 L 337.79,336.23 L 340.58,333.99 L 343.34,331.78 L 346.10,329.60 L 348.85,327.44 L 351.59,325.29 L 354.33,323.15" style="stroke:black;stroke-width:0.71;stroke-linecap:round;fill:none;stroke-dasharray: 5.67 5.67"/>
<path d="M 242.08,437.10 L 240.28,434.69 L 238.48,432.27 L 236.68,429.85 L 234.88,427.44 L 233.08,425.02 L 231.29,422.61" style="stroke:black;stroke-width:0.71;stroke-linecap:round;fill:none;stroke-dasharray: 5.67 5.67"/>
<!-- Render block 4
 -->
<text x="121.83" y="362.05" style="font-size:10;text-anchor:middle;fill:black;stroke:none;font-weight:normal;font-family:sanserif" >in1</text>
<text x="116.22" y="340.16" style="font-size:10;text-anchor:middle;fill:black;stroke:none;font-weight:normal;font-family:sanserif" >USER_DEFINED</text>
<path d="M 56.69,340.16 L 60.00,340.16 L 63.31,340.16 L 66.61,340.16 L 69.92,340.16 L 73.23,340.16 L 76.54,340.16 L 79.84,340.16 L 83.15,340.16 L 86.46,340.16 L 89.76,340.16 L 93.07,340.16 L 96.38,340.16 L 99.69,340.16 L 102.99,340.16 L 106.30,340.16 L 109.61,340.16 L 112.91,340.16 L 116.22,340.16 L 119.53,340.16 L 122.83,340.16 L 126.14,340.16 L 129.45,340.16 L 132.76,340.16 L 136.06,340.16 L 139.37,340.16 L 142.68,340.16 L 145.98,340.16 L 149.29,340.16 L 152.60,340.16 L 155.91,340.16 L 159.21,340.16 L 162.52,340.16 L 165.83,340.16 L 169.13,340.16 L 172.44,340.16 L 175.75,340.16" style="stroke:black;stroke-width:0.71;stroke-linecap:round;fill:none"/>
<path d="M 209.76,413.29 L 206.93,407.20 L 204.09,401.10 L 201.26,395.01 L 198.43,388.91 L 195.59,382.82 L 192.76,376.72 L 189.92,370.63 L 187.09,364.54 L 184.25,358.44 L 181.42,352.35 L 178.58,346.25 L 175.75,340.16" style="stroke:black;stroke-width:0.71;stroke-linecap:round;fill:none;stroke-dasharray: 5.67 5.67"/>
<path d="M 56.69,399.69 L 60.94,400.06 L 65.20,400.44 L 69.45,400.82 L 73.70,401.20 L 77.95,401.57 L 82.20,401.95 L 86.46,402.33 L 90.71,402.71 L 94.96,403.09 L 99.21,403.46 L 103.46,403.84 L 107.72,404.22 L 111.97,404.60 L 116.22,404.98 L 120.47,405.35 L 124.72,405.73 L 128.98,406.11 L 133.23,406.49 L 137.48,406.87 L 141.73,407.24 L 145.98,407.62 L 150.24,408.00 L 154.49,408.38 L 158.74,408.76 L 162.99,409.13 L 167.24,409.51 L 171.50,409.89 L 175.75,410.27 L 180.00,410.65 L 184.25,411.02 L 188.50,411.40 L 192.76,411.78 L 197.01,412.16 L 201.26,412.54 L 205.51,412.91 L 209.76,413.29" style="stroke:black;stroke-width:0.71;stroke-linecap:round;fill:none;stroke-dasharray: 5.67 5.67"/>
<text x="56.69" y="369.92" transform="rotate(-90.00,56.69,369.92)"  style="font-size:10;text-anchor:middle;fill:black;stroke:none;font-weight:normal;font-family:sanserif" >USER_DEFINED</text>
<path d="M 56.69,399.69 L 56.69,394.72 L 56.69,389.76 L 56.69,384.80 L 56.69,379.84 L 56.69,374.88 L 56.69,369.92 L 56.69,364.96 L 56.69,360.00 L 56.69,355.04 L 56.69,350.08 L 56.69,345.12 L 56.69,340.16" style="stroke:black;stroke-width:0.71;stroke-linecap:round;fill:none"/>
<!-- Render block 5
 -->
<text x="132.86" y="419.79" style="font-size:10;text-anchor:middle;fill:black;stroke:none;font-weight:normal;font-family:sanserif" >in2</text>
<path d="M 56.69,399.69 L 60.94,400.06 L 65.20,400.44 L 69.45,400.82 L 73.70,401.20 L 77.95,401.57 L 82.20,401.95 L 86.46,402.33 L 90.71,402.71 L 94.96,403.09 L 99.21,403.46 L 103.46,403.84 L 107.72,404.22 L 111.97,404.60 L 116.22,404.98 L 120.47,405.35 L 124.72,405.73 L 128.98,406.11 L 133.23,406.49 L 137.48,406.87 L 141.73,407.24 L 145.98,407.62 L 150.24,408.00 L 154.49,408.38 L 158.74,408.76 L 162.99,409.13 L 167.24,409.51 L 171.50,409.89 L 175.75,410.27 L 180.00,410.65 L 184.25,411.02 L 188.50,411.40 L 192.76,411.78 L 197.01,412.16 L 201.26,412.54 L 205.51,412.91 L 209.76,413.29" style="stroke:black;stroke-width:0.71;stroke-linecap:round;fill:none;stroke-dasharray: 5.67 5.67"/>
<path d="M 218.27,440.50 L 216.10,437.70 L 214.04,434.91 L 212.21,432.11 L 210.70,429.31 L 209.63,426.44 L 209.03,423.15 L 208.98,419.87 L 209.28,416.58 L 209.76,413.29" style="stroke:black;stroke-width:0.71;stroke-linecap:round;fill:none;stroke-dasharray: 5.67 5.67"/>
<path d="M 56.69,450.71 L 61.18,450.43 L 65.67,450.14 L 70.16,449.86 L 74.65,449.57 L 79.13,449.29 L 83.62,449.01 L 88.11,448.72 L 92.60,448.44 L 97.09,448.16 L 101.57,447.87 L 106.06,447.59 L 110.55,447.31 L 115.04,447.02 L 119.53,446.74 L 124.02,446.46 L 128.50,446.17 L 132.99,445.89 L 137.48,445.61 L 141.97,445.32 L 146.46,445.04 L 150.94,444.76 L 155.43,444.47 L 159.92,444.19 L 164.41,443.91 L 168.90,443.62 L 173.39,443.34 L 177.87,443.06 L 182.36,442.77 L 186.85,442.49 L 191.34,442.20 L 195.83,441.92 L 200.31,441.64 L 204.80,441.35 L 209.29,441.07 L 213.78,440.79 L 218.27,440.50" style="stroke:black;stroke-width:0.71;stroke-linecap:round;fill:none;stroke-dasharray: 5.67 5.67"/>
<text x="56.69" y="425.20" transform="rotate(-90.00,56.69,425.20)"  style="font-size:10;text-anchor:middle;fill:black;stroke:none;font-weight:normal;font-family:sanserif" >USER_DEFINED</text>
<path d="M 56.69,450.71 L 56.69,445.04 L 56.69,439.37 L 56.69,433.70 L 56.69,428.03 L 56.69,422.36 L 56.69,416.69 L 56.69,411.02 L 56.69,405.35 L 56.69,399.69" style="stroke:black;stroke-width:0.71;stroke-linecap:round;fill:none"/>
<!-- Render block 6
 -->
<text x="140.87" y="466.93" style="font-size:10;text-anchor:middle;fill:black;stroke:none;font-weight:normal;font-family:sanserif" >in3</text>
<path d="M 56.69,450.71 L 61.18,450.43 L 65.67,450.14 L 70.16,449.86 L 74.65,449.57 L 79.13,449.29 L 83.62,449.01 L 88.11,448.72 L 92.60,448.44 L 97.09,448.16 L 101.57,447.87 L 106.06,447.59 L 110.55,447.31 L 115.04,447.02 L 119.53,446.74 L 124.02,446.46 L 128.50,446.17 L 132.99,445.89 L 137.48,445.61 L 141.97,445.32 L 146.46,445.04 L 150.94,444.76 L 155.43,444.47 L 159.92,444.19 L 164.41,443.91 L 168.90,443.62 L 173.39,443.34 L 177.87,443.06 L 182.36,442.77 L 186.85,442.49 L 191.34,442.20 L 195.83,441.92 L 200.31,441.64 L 204.80,441.35 L 209.29,441.07 L 213.78,440.79 L 218.27,440.50" style="stroke:black;stroke-width:0.71;stroke-linecap:round;fill:none;stroke-dasharray: 5.67 5.67"/>
<path d="M 235.28,501.73 L 233.86,496.63 L 232.44,491.53 L 231.02,486.43 L 229.61,481.32 L 228.19,476.22 L 226.77,471.12 L 225.35,466.02 L 223.94,460.91 L 222.52,455.81 L 221.10,450.71 L 219.69,445.61 L 218.27,440.50" style="stroke:black;stroke-width:0.71;stroke-linecap:round;fill:none;stroke-dasharray: 5.67 5.67"/>
<text x="147.75" y="510.24" style="font-size:10;text-anchor:middle;fill:black;stroke:none;font-weight:normal;font-family:sanserif" >USER_DEFINED</text>
<path d="M 56.69,510.24 L 61.75,510.24 L 66.81,510.24 L 71.87,510.24 L 76.93,510.24 L 81.99,510.24 L 87.04,510.24 L 92.10,510.24 L 97.16,510.24 L 102.22,510.24 L 107.28,510.24 L 112.34,510.24 L 117.39,510.24 L 122.45,510.24 L 127.51,510.24 L 132.57,510.24 L 137.63,510.24 L 142.69,510.24 L 147.75,510.24 L 152.80,510.24 L 157.86,510.24 L 162.92,510.24 L 167.98,510.24 L 173.04,510.24 L 178.10,510.24 L 183.15,510.24 L 188.21,510.24 L 193.27,510.24 L 198.33,510.24 L 203.39,510.24 L 208.45,510.24 L 213.51,510.24 L 218.56,510.24 L 223.62,510.24 L 228.12,508.89 L 231.70,505.31 L 235.28,501.73" style="stroke:black;stroke-width:0.71;stroke-linecap:round;fill:none"/>
<text x="56.69" y="480.47" transform="rotate(-90.00,56.69,480.47)"  style="font-size:10;text-anchor:middle;fill:black;stroke:none;font-weight:normal;font-family:sanserif" >USER_DEFINED</text>
<path d="M 56.69,510.24 L 56.69,505.28 L 56.69,500.31 L 56.69,495.35 L 56.69,490.39 L 56.69,485.43 L 56.69,480.47 L 56.69,475.51 L 56.69,470.55 L 56.69,465.59 L 56.69,460.63 L 56.69,455.67 L 56.69,450.71" style="stroke:black;stroke-width:0.71;stroke-linecap:round;fill:none"/>
<!-- Render block 7
 -->
<text x="261.53" y="318.93" style="font-size:10;text-anchor:middle;fill:black;stroke:none;font-weight:normal;font-family:sanserif" >outer1</text>
<text x="259.76" y="307.17" transform="rotate(-45.00,259.76,307.17)"  style="font-size:10;text-anchor:middle;fill:black;stroke:none;font-weight:normal;font-family:sanserif" >USER_DEFINED</text>
<path d="M 175.75,340.16 L 179.82,340.16 L 183.89,340.16 L 187.96,340.16 L 192.03,340.16 L 196.10,340.16 L 200.17,340.16 L 204.24,340.16 L 208.30,340.16 L 212.37,340.16 L 216.44,340.16 L 220.51,340.16 L 224.58,340.16 L 228.10,338.83 L 230.98,335.95 L 233.86,333.07 L 236.73,330.19 L 239.61,327.32 L 242.49,324.44 L 245.37,321.56 L 248.25,318.68 L 251.12,315.81 L 254.00,312.93 L 256.88,310.05 L 259.76,307.17 L 262.63,304.30 L 265.51,301.42 L 268.39,298.54 L 271.27,295.66 L 274.14,292.79 L 277.02,289.91 L 279.90,287.03 L 282.78,284.15 L 285.65,281.27 L 288.53,278.40 L 291.41,275.52 L 294.29,272.64 L 297.16,269.76 L 300.04,266.89 L 302.92,264.01 L 305.80,261.13 L 308.68,258.25 L 311.55,255.38 L 314.43,252.50 L 317.31,249.62 L 320.19,246.74 L 323.06,243.87 L 325.94,240.99 L 328.82,238.11" style="stroke:black;stroke-width:0.71;stroke-linecap:round;fill:none"/>
<path d="M 336.83,284.52 L 336.16,280.66 L 335.50,276.79 L 334.83,272.92 L 334.16,269.05 L 333.49,265.18 L 332.82,261.32 L 332.16,257.45 L 331.49,253.58 L 330.82,249.71 L 330.15,245.85 L 329.49,241.98 L 328.82,238.11" style="stroke:black;stroke-width:0.71;stroke-linecap:round;fill:none;stroke-dasharray: 5.67 5.67"/>
<path d="M 209.76,413.29 L 211.67,410.30 L 213.58,407.31 L 215.50,404.33 L 217.44,401.33 L 219.40,398.34 L 221.39,395.35 L 223.40,392.35 L 225.46,389.35 L 227.55,386.34 L 229.70,383.33 L 231.90,380.32 L 234.15,377.30 L 236.47,374.27 L 238.86,371.24 L 241.32,368.20 L 243.86,365.16 L 246.49,362.10 L 249.20,359.04 L 252.01,355.97 L 254.93,352.89 L 257.81,349.93 L 260.19,347.56 L 262.64,345.18 L 265.14,342.80 L 267.70,340.41 L 270.31,338.01 L 272.98,335.62 L 275.69,333.21 L 278.46,330.80 L 281.26,328.39 L 284.12,325.98 L 287.01,323.56 L 289.94,321.14 L 292.90,318.71 L 295.90,316.28 L 298.93,313.85 L 301.99,311.41 L 305.07,308.98 L 308.18,306.54 L 311.31,304.10 L 314.46,301.65 L 317.62,299.21 L 320.80,296.76 L 323.99,294.32 L 327.20,291.87 L 330.40,289.42 L 333.62,286.97 L 336.83,284.52" style="stroke:black;stroke-width:0.71;stroke-linecap:round;fill:none;stroke-dasharray: 5.67 5.67"/>
<path d="M 209.76,413.29 L 206.93,407.20 L 204.09,401.10 L 201.26,395.01 L 198.43,388.91 L 195.59,382.82 L 192.76,376.72 L 189.92,370.63 L 187.09,364.54 L 184.25,358.44 L 181.42,352.35 L 178.58,346.25 L 175.75,340.16" style="stroke:black;stroke-width:0.71;stroke-linecap:round;fill:none;stroke-dasharray: 5.67 5.67"/>
<!-- Render block 8
 -->
<text x="236.34" y="457.60" style="font-size:10;text-anchor:middle;fill:black;stroke:none;font-weight:normal;font-family:sanserif" >outer2</text>
<path d="M 218.27,440.50 L 221.01,441.27 L 223.76,441.91 L 226.50,442.29 L 229.25,442.31 L 231.87,441.86 L 234.42,441.03 L 236.97,439.89 L 239.53,438.54 L 242.08,437.10" style="stroke:black;stroke-width:0.71;stroke-linecap:round;fill:none;stroke-dasharray: 5.67 5.67"/>
<path d="M 260.79,476.22 L 259.23,472.96 L 257.67,469.70 L 256.11,466.44 L 254.55,463.18 L 252.99,459.92 L 251.43,456.66 L 249.87,453.40 L 248.31,450.14 L 246.76,446.88 L 245.20,443.62 L 243.64,440.36 L 242.08,437.10" style="stroke:black;stroke-width:0.71;stroke-linecap:round;fill:none;stroke-dasharray: 5.67 5.67"/>
<text x="248.03" y="488.98" transform="rotate(-45.00,248.03,488.98)"  style="font-size:10;text-anchor:middle;fill:black;stroke:none;font-weight:normal;font-family:sanserif" >USER_DEFINED</text>
<path d="M 235.28,501.73 L 238.11,498.90 L 240.94,496.06 L 243.78,493.23 L 246.61,490.39 L 249.45,487.56 L 252.28,484.72 L 255.12,481.89 L 257.95,479.06 L 260.79,476.22" style="stroke:black;stroke-width:0.71;stroke-linecap:round;fill:none"/>
<path d="M 235.28,501.73 L 233.86,496.63 L 232.44,491.53 L 231.02,486.43 L 229.61,481.32 L 228.19,476.22 L 226.77,471.12 L 225.35,466.02 L 223.94,460.91 L 222.52,455.81 L 221.10,450.71 L 219.69,445.61 L 218.27,440.50" style="stroke:black;stroke-width:0.71;stroke-linecap:round;fill:none;stroke-dasharray: 5.67 5.67"/>
<!-- Render block 9
 -->
<text x="302.13" y="390.65" style="font-size:10;text-anchor:middle;fill:black;stroke:none;font-weight:normal;font-family:sanserif" >outer3</text>
<path d="M 242.08,437.10 L 244.70,433.97 L 247.33,430.84 L 249.95,427.72 L 252.56,424.61 L 255.18,421.50 L 257.78,418.41 L 260.39,415.33 L 262.98,412.28 L 265.57,409.24 L 268.14,406.23 L 270.71,403.25 L 273.26,400.29 L 275.80,397.37 L 278.33,394.48 L 280.84,391.63 L 283.34,388.82 L 285.82,386.05 L 288.28,383.33 L 290.72,380.65 L 293.14,378.03 L 295.54,375.46 L 297.92,372.94 L 300.27,370.48 L 302.60,368.09 L 305.50,365.16 L 308.61,362.08 L 311.69,359.11 L 314.72,356.25 L 317.71,353.48 L 320.66,350.80 L 323.58,348.21 L 326.48,345.69 L 329.34,343.24 L 332.18,340.85 L 335.00,338.51 L 337.79,336.23 L 340.58,333.99 L 343.34,331.78 L 346.10,329.60 L 348.85,327.44 L 351.59,325.29 L 354.33,323.15" style="stroke:black;stroke-width:0.71;stroke-linecap:round;fill:none;stroke-dasharray: 5.67 5.67"/>
<path d="M 379.84,389.97 L 377.72,384.40 L 375.59,378.84 L 373.46,373.27 L 371.34,367.70 L 369.21,362.13 L 367.09,356.56 L 364.96,350.99 L 362.83,345.42 L 360.71,339.86 L 358.58,334.29 L 356.46,328.72 L 354.33,323.15" style="stroke:black;stroke-width:0.71;stroke-linecap:round;fill:none;stroke-dasharray: 5.67 5.67"/>
<text x="315.51" y="421.50" transform="rotate(-45.00,315.51,421.50)"  style="font-size:10;text-anchor:middle;fill:black;stroke:none;font-weight:normal;font-family:sanserif" >USER_DEFINED</text>
<path d="M 260.79,476.22 L 263.39,473.61 L 266.00,471.01 L 268.60,468.40 L 271.21,465.80 L 273.82,463.19 L 276.42,460.59 L 279.03,457.98 L 281.63,455.37 L 284.24,452.77 L 286.85,450.16 L 289.45,447.56 L 292.06,444.95 L 294.66,442.34 L 297.27,439.74 L 299.88,437.13 L 302.48,434.53 L 305.09,431.92 L 307.69,429.31 L 310.30,426.71 L 312.90,424.10 L 315.51,421.50 L 318.12,418.89 L 320.72,416.29 L 323.33,413.68 L 325.93,411.07 L 328.54,408.47 L 331.15,405.86 L 333.75,403.26 L 336.36,400.65 L 338.96,398.04 L 341.57,395.44 L 344.17,392.83 L 346.78,390.23 L 350.36,389.97 L 354.05,389.97 L 357.73,389.97 L 361.42,389.97 L 365.10,389.97 L 368.79,389.97 L 372.47,389.97 L 376.16,389.97 L 379.84,389.97" style="stroke:black;stroke-width:0.71;stroke-linecap:round;fill:none"/>
<path d="M 260.79,476.22 L 259.23,472.96 L 257.67,469.70 L 256.11,466.44 L 254.55,463.18 L 252.99,459.92 L 251.43,456.66 L 249.87,453.40 L 248.31,450.14 L 246.76,446.88 L 245.20,443.62 L 243.64,440.36 L 242.08,437.10" style="stroke:black;stroke-width:0.71;stroke-linecap:round;fill:none;stroke-dasharray: 5.67 5.67"/>
<!-- Render block 10
 -->
<text x="421.76" y="239.18" style="font-size:10;text-anchor:middle;fill:black;stroke:none;font-weight:normal;font-family:sanserif" >out1</text>
<text x="419.19" y="219.89" transform="rotate(0.00,419.19,219.89)"  style="font-size:10;text-anchor:middle;fill:black;stroke:none;font-weight:normal;font-family:sanserif" >USER_DEFINED</text>
<path d="M 328.82,238.11 L 331.70,235.23 L 334.59,232.34 L 337.47,229.46 L 340.36,226.57 L 343.24,223.69 L 346.13,220.80 L 349.83,219.89 L 353.91,219.89 L 357.99,219.89 L 362.07,219.89 L 366.15,219.89 L 370.23,219.89 L 374.31,219.89 L 378.39,219.89 L 382.47,219.89 L 386.55,219.89 L 390.63,219.89 L 394.71,219.89 L 398.79,219.89 L 402.87,219.89 L 406.95,219.89 L 411.03,219.89 L 415.11,219.89 L 419.19,219.89 L 423.27,219.89 L 427.35,219.89 L 431.43,219.89 L 435.51,219.89 L 439.59,219.89 L 443.67,219.89 L 447.75,219.89 L 451.83,219.89 L 455.91,219.89 L 459.99,219.89 L 464.07,219.89 L 468.15,219.89 L 472.23,219.89 L 476.31,219.89 L 480.39,219.89 L 484.47,219.89 L 488.55,219.89 L 492.63,219.89 L 496.71,219.89 L 500.79,219.89 L 504.87,219.89 L 508.95,219.89 L 513.03,219.89 L 517.11,219.89" style="stroke:black;stroke-width:0.71;stroke-linecap:round;fill:none"/>
<text x="517.11" y="246.01" transform="rotate(-90.00,517.11,246.01)"  style="font-size:10;text-anchor:middle;fill:black;stroke:none;font-weight:normal;font-family:sanserif" >FIXED_P_OUT</text>
<path d="M 517.11,272.13 L 517.11,267.77 L 517.11,263.42 L 517.11,259.07 L 517.11,254.72 L 517.11,250.36 L 517.11,246.01 L 517.11,241.66 L 517.11,237.30 L 517.11,232.95 L 517.11,228.60 L 517.11,224.25 L 517.11,219.89" style="stroke:black;stroke-width:0.71;stroke-linecap:round;fill:none"/>
<path d="M 336.83,284.52 L 340.59,284.27 L 344.34,284.01 L 348.10,283.75 L 351.85,283.49 L 355.61,283.23 L 359.37,282.97 L 363.12,282.72 L 366.88,282.46 L 370.63,282.20 L 374.39,281.94 L 378.15,281.68 L 381.90,281.42 L 385.66,281.17 L 389.41,280.91 L 393.17,280.65 L 396.93,280.39 L 400.68,280.13 L 404.44,279.87 L 408.19,279.62 L 411.95,279.36 L 415.70,279.10 L 419.46,278.84 L 423.22,278.58 L 426.97,278.32 L 430.73,278.07 L 434.48,277.81 L 438.24,277.55 L 442.00,277.29 L 445.75,277.03 L 449.51,276.78 L 453.26,276.52 L 457.02,276.26 L 460.78,276.00 L 464.53,275.74 L 468.29,275.48 L 472.04,275.23 L 475.80,274.97 L 479.56,274.71 L 483.31,274.45 L 487.07,274.19 L 490.82,273.93 L 494.58,273.68 L 498.33,273.42 L 502.09,273.16 L 505.85,272.90 L 509.60,272.64 L 513.36,272.38 L 517.11,272.13" style="stroke:black;stroke-width:0.71;stroke-linecap:round;fill:none;stroke-dasharray: 5.67 5.67"/>
<path d="M 336.83,284.52 L 336.16,280.66 L 335.50,276.79 L 334.83,272.92 L 334.16,269.05 L 333.49,265.18 L 332.82,261.32 L 332.16,257.45 L 331.49,253.58 L 330.82,249.71 L 330.15,245.85 L 329.49,241.98 L 328.82,238.11" style="stroke:black;stroke-width:0.71;stroke-linecap:round;fill:none;stroke-dasharray: 5.67 5.67"/>
<!-- Render block 11
 -->
<text x="428.66" y="287.11" style="font-size:10;text-anchor:middle;fill:black;stroke:none;font-weight:normal;font-family:sanserif" >out2</text>
<path d="M 336.83,284.52 L 340.59,284.27 L 344.34,284.01 L 348.10,283.75 L 351.85,283.49 L 355.61,283.23 L 359.37,282.97 L 363.12,282.72 L 366.88,282.46 L 370.63,282.20 L 374.39,281.94 L 378.15,281.68 L 381.90,281.42 L 385.66,281.17 L 389.41,280.91 L 393.17,280.65 L 396.93,280.39 L 400.68,280.13 L 404.44,279.87 L 408.19,279.62 L 411.95,279.36 L 415.70,279.10 L 419.46,278.84 L 423.22,278.58 L 426.97,278.32 L 430.73,278.07 L 434.48,277.81 L 438.24,277.55 L 442.00,277.29 L 445.75,277.03 L 449.51,276.78 L 453.26,276.52 L 457.02,276.26 L 460.78,276.00 L 464.53,275.74 L 468.29,275.48 L 472.04,275.23 L 475.80,274.97 L 479.56,274.71 L 483.31,274.45 L 487.07,274.19 L 490.82,273.93 L 494.58,273.68 L 498.33,273.42 L 502.09,273.16 L 505.85,272.90 L 509.60,272.64 L 513.36,272.38 L 517.11,272.13" style="stroke:black;stroke-width:0.71;stroke-linecap:round;fill:none;stroke-dasharray: 5.67 5.67"/>
<text x="517.11" y="288.53" transform="rotate(-90.00,517.11,288.53)"  style="font-size:10;text-anchor:middle;fill:black;stroke:none;font-weight:normal;font-family:sanserif" >FIXED_P_OUT</text>
<path d="M 517.11,304.93 L 517.11,299.47 L 517.11,294.00 L 517.11,288.53 L 517.11,283.06 L 517.11,277.59 L 517.11,272.13" style="stroke:black;stroke-width:0.71;stroke-linecap:round;fill:none"/>
<path d="M 347.04,304.93 L 350.58,304.93 L 354.12,304.93 L 357.67,304.93 L 361.21,304.93 L 364.75,304.93 L 368.30,304.93 L 371.84,304.93 L 375.38,304.93 L 378.93,304.93 L 382.47,304.93 L 386.01,304.93 L 389.56,304.93 L 393.10,304.93 L 396.64,304.93 L 400.19,304.93 L 403.73,304.93 L 407.27,304.93 L 410.82,304.93 L 414.36,304.93 L 417.90,304.93 L 421.44,304.93 L 424.99,304.93 L 428.53,304.93 L 432.07,304.93 L 435.62,304.93 L 439.16,304.93 L 442.70,304.93 L 446.25,304.93 L 449.79,304.93 L 453.33,304.93 L 456.88,304.93 L 460.42,304.93 L 463.96,304.93 L 467.51,304.93 L 471.05,304.93 L 474.59,304.93 L 478.14,304.93 L 481.68,304.93 L 485.22,304.93 L 488.77,304.93 L 492.31,304.93 L 495.85,304.93 L 499.40,304.93 L 502.94,304.93 L 506.48,304.93 L 510.03,304.93 L 513.57,304.93 L 517.11,304.93" style="stroke:black;stroke-width:0.71;stroke-linecap:round;fill:none;stroke-dasharray: 5.67 5.67"/>
<path d="M 347.04,304.93 L 345.33,301.53 L 343.63,298.13 L 341.93,294.73 L 340.23,291.33 L 338.53,287.93 L 336.83,284.52" style="stroke:black;stroke-width:0.71;stroke-linecap:round;fill:none;stroke-dasharray: 5.67 5.67"/>
<!-- Render block 12
 -->
<text x="433.28" y="313.75" style="font-size:10;text-anchor:middle;fill:black;stroke:none;font-weight:normal;font-family:sanserif" >out3</text>
<path d="M 347.04,304.93 L 350.58,304.93 L 354.12,304.93 L 357.67,304.93 L 361.21,304.93 L 364.75,304.93 L 368.30,304.93 L 371.84,304.93 L 375.38,304.93 L 378.93,304.93 L 382.47,304.93 L 386.01,304.93 L 389.56,304.93 L 393.10,304.93 L 396.64,304.93 L 400.19,304.93 L 403.73,304.93 L 407.27,304.93 L 410.82,304.93 L 414.36,304.93 L 417.90,304.93 L 421.44,304.93 L 424.99,304.93 L 428.53,304.93 L 432.07,304.93 L 435.62,304.93 L 439.16,304.93 L 442.70,304.93 L 446.25,304.93 L 449.79,304.93 L 453.33,304.93 L 456.88,304.93 L 460.42,304.93 L 463.96,304.93 L 467.51,304.93 L 471.05,304.93 L 474.59,304.93 L 478.14,304.93 L 481.68,304.93 L 485.22,304.93 L 488.77,304.93 L 492.31,304.93 L 495.85,304.93 L 499.40,304.93 L 502.94,304.93 L 506.48,304.93 L 510.03,304.93 L 513.57,304.93 L 517.11,304.93" style="stroke:black;stroke-width:0.71;stroke-linecap:round;fill:none;stroke-dasharray: 5.67 5.67"/>
<text x="517.11" y="322.55" transform="rotate(-90.00,517.11,322.55)"  style="font-size:10;text-anchor:middle;fill:black;stroke:none;font-weight:normal;font-family:sanserif" >FIXED_P_OUT</text>
<path d="M 517.11,340.16 L 517.11,334.29 L 517.11,328.42 L 517.11,322.55 L 517.11,316.67 L 517.11,310.80 L 517.11,304.93" style="stroke:black;stroke-width:0.71;stroke-linecap:round;fill:none"/>
<path d="M 354.33,323.15 L 357.72,323.50 L 361.11,323.86 L 364.50,324.21 L 367.90,324.57 L 371.29,324.92 L 374.68,325.28 L 378.07,325.63 L 381.46,325.98 L 384.85,326.34 L 388.24,326.69 L 391.64,327.05 L 395.03,327.40 L 398.42,327.76 L 401.81,328.11 L 405.20,328.46 L 408.59,328.82 L 411.98,329.17 L 415.37,329.53 L 418.77,329.88 L 422.16,330.24 L 425.55,330.59 L 428.94,330.94 L 432.33,331.30 L 435.72,331.65 L 439.11,332.01 L 442.51,332.36 L 445.90,332.72 L 449.29,333.07 L 452.68,333.43 L 456.07,333.78 L 459.46,334.13 L 462.85,334.49 L 466.24,334.84 L 469.64,335.20 L 473.03,335.55 L 476.42,335.91 L 479.81,336.26 L 483.20,336.61 L 486.59,336.97 L 489.98,337.32 L 493.37,337.68 L 496.77,338.03 L 500.16,338.39 L 503.55,338.74 L 506.94,339.09 L 510.33,339.45 L 513.72,339.80 L 517.11,340.16" style="stroke:black;stroke-width:0.71;stroke-linecap:round;fill:none;stroke-dasharray: 5.67 5.67"/>
<path d="M 354.33,323.15 L 353.11,320.11 L 351.90,317.08 L 350.68,314.04 L 349.47,311.01 L 348.25,307.97 L 347.04,304.93" style="stroke:black;stroke-width:0.71;stroke-linecap:round;fill:none;stroke-dasharray: 5.67 5.67"/>
<!-- Render block 13
 -->
<text x="439.93" y="350.90" style="font-size:10;text-anchor:middle;fill:black;stroke:none;font-weight:normal;font-family:sanserif" >out4</text>
<path d="M 354.33,323.15 L 357.72,323.50 L 361.11,323.86 L 364.50,324.21 L 367.90,324.57 L 371.29,324.92 L 374.68,325.28 L 378.07,325.63 L 381.46,325.98 L 384.85,326.34 L 388.24,326.69 L 391.64,327.05 L 395.03,327.40 L 398.42,327.76 L 401.81,328.11 L 405.20,328.46 L 408.59,328.82 L 411.98,329.17 L 415.37,329.53 L 418.77,329.88 L 422.16,330.24 L 425.55,330.59 L 428.94,330.94 L 432.33,331.30 L 435.72,331.65 L 439.11,332.01 L 442.51,332.36 L 445.90,332.72 L 449.29,333.07 L 452.68,333.43 L 456.07,333.78 L 459.46,334.13 L 462.85,334.49 L 466.24,334.84 L 469.64,335.20 L 473.03,335.55 L 476.42,335.91 L 479.81,336.26 L 483.20,336.61 L 486.59,336.97 L 489.98,337.32 L 493.37,337.68 L 496.77,338.03 L 500.16,338.39 L 503.55,338.74 L 506.94,339.09 L 510.33,339.45 L 513.72,339.80 L 517.11,340.16" style="stroke:black;stroke-width:0.71;stroke-linecap:round;fill:none;stroke-dasharray: 5.67 5.67"/>
<text x="517.11" y="365.06" transform="rotate(-90.00,517.11,365.06)"  style="font-size:10;text-anchor:middle;fill:black;stroke:none;font-weight:normal;font-family:sanserif" >FIXED_P_OUT</text>
<path d="M 517.11,389.97 L 517.11,385.82 L 517.11,381.67 L 517.11,377.52 L 517.11,373.37 L 517.11,369.22 L 517.11,365.06 L 517.11,360.91 L 517.11,356.76 L 517.11,352.61 L 517.11,348.46 L 517.11,344.31 L 517.11,340.16" style="stroke:black;stroke-width:0.71;stroke-linecap:round;fill:none"/>
<text x="448.48" y="389.97" transform="rotate(0.00,448.48,389.97)"  style="font-size:10;text-anchor:middle;fill:black;stroke:none;font-weight:normal;font-family:sanserif" >USER_DEFINED</text>
<path d="M 379.84,389.97 L 382.70,389.97 L 385.56,389.97 L 388.42,389.97 L 391.28,389.97 L 394.14,389.97 L 397.00,389.97 L 399.86,389.97 L 402.72,389.97 L 405.58,389.97 L 408.44,389.97 L 411.30,389.97 L 414.16,389.97 L 417.02,389.97 L 419.88,389.97 L 422.74,389.97 L 425.60,389.97 L 428.46,389.97 L 431.32,389.97 L 434.18,389.97 L 437.04,389.97 L 439.90,389.97 L 442.76,389.97 L 445.62,389.97 L 448.48,389.97 L 451.34,389.97 L 454.20,389.97 L 457.06,389.97 L 459.92,389.97 L 462.78,389.97 L 465.64,389.97 L 468.50,389.97 L 471.36,389.97 L 474.22,389.97 L 477.08,389.97 L 479.94,389.97 L 482.80,389.97 L 485.66,389.97 L 488.52,389.97 L 491.38,389.97 L 494.24,389.97 L 497.10,389.97 L 499.96,389.97 L 502.82,389.97 L 505.67,389.97 L 508.53,389.97 L 511.39,389.97 L 514.25,389.97 L 517.11,389.97" style="stroke:black;stroke-width:0.71;stroke-linecap:round;fill:none"/>
<path d="M 379.84,389.97 L 377.72,384.40 L 375.59,378.84 L 373.46,373.27 L 371.34,367.70 L 369.21,362.13 L 367.09,356.56 L 364.96,350.99 L 362.83,345.42 L 360.71,339.86 L 358.58,334.29 L 356.46,328.72 L 354.33,323.15" style="stroke:black;stroke-width:0.71;stroke-linecap:round;fill:none;stroke-dasharray: 5.67 5.67"/>
<!-- end of drawing -->
</svg>
