<?xml version="1.0" encoding="UTF-8" standalone="no"?>
<svg
   xmlns:dc="http://purl.org/dc/elements/1.1/"
   xmlns:cc="http://creativecommons.org/ns#"
   xmlns:rdf="http://www.w3.org/1999/02/22-rdf-syntax-ns#"
   xmlns:svg="http://www.w3.org/2000/svg"
   xmlns="http://www.w3.org/2000/svg"
   xmlns:sodipodi="http://sodipodi.sourceforge.net/DTD/sodipodi-0.dtd"
   xmlns:inkscape="http://www.inkscape.org/namespaces/inkscape"
   width="566.93"
   height="566.93"
   id="svg2"
   sodipodi:version="0.32"
   inkscape:version="0.46"
   sodipodi:docname="sc10-edited.svg"
   inkscape:output_extension="org.inkscape.output.svg.inkscape"
   inkscape:export-filename="/home/peterj/work/elmer3/2D/turbo_sc10/sc10-edited.png"
   inkscape:export-xdpi="300"
   inkscape:export-ydpi="300">
  <metadata
     id="metadata343">
    <rdf:RDF>
      <cc:Work
         rdf:about="">
        <dc:format>image/svg+xml</dc:format>
        <dc:type
           rdf:resource="http://purl.org/dc/dcmitype/StillImage" />
      </cc:Work>
    </rdf:RDF>
  </metadata>
  <defs
     id="defs341">
    <inkscape:perspective
       sodipodi:type="inkscape:persp3d"
       inkscape:vp_x="0 : 283.465 : 1"
       inkscape:vp_y="0 : 1000 : 0"
       inkscape:vp_z="566.92999 : 283.465 : 1"
       inkscape:persp3d-origin="283.465 : 188.97666 : 1"
       id="perspective345" />
  </defs>
  <sodipodi:namedview
     inkscape:window-height="722"
     inkscape:window-width="642"
     inkscape:pageshadow="2"
     inkscape:pageopacity="0.0"
     guidetolerance="10.0"
     gridtolerance="10.0"
     objecttolerance="10.0"
     borderopacity="1.0"
     bordercolor="#666666"
     pagecolor="#ffffff"
     id="base"
     showgrid="false"
     inkscape:zoom="2.6691558"
     inkscape:cx="276.88993"
     inkscape:cy="241.87207"
     inkscape:window-x="685"
     inkscape:window-y="49"
     inkscape:current-layer="svg2" />
  <title
     id="title4">inviscid Euler for 2D-sc10</title>
  <desc
     id="desc6">SVG file written by scriptit.py</desc>
<!-- drawing begins here -->  <line
     x1="56.69"
     y1="527.24"
     x2="566.93"
     y2="527.24"
     style="stroke:black;stroke-width:1.42;stroke-linecap:round;fill:none"
     id="line8" />
  <text
     x="311.81"
     y="552.76"
     style="font-size:10;text-anchor:start;fill:black;stroke:none;font-weight:normal;font-family:sanserif"
     id="text10">x</text>
  <line
     x1="56.69"
     y1="527.24"
     x2="56.69"
     y2="521.57"
     style="stroke:black;stroke-width:1.42;stroke-linecap:round;fill:none"
     id="line12" />
  <text
     x="56.69"
     y="541.42"
     style="font-size:10;text-anchor:middle;fill:black;stroke:none;font-weight:normal;font-family:sanserif"
     id="text14">-1</text>
  <line
     x1="141.73"
     y1="527.24"
     x2="141.73"
     y2="521.57"
     style="stroke:black;stroke-width:1.42;stroke-linecap:round;fill:none"
     id="line16" />
  <text
     x="141.73"
     y="541.42"
     style="font-size:10;text-anchor:middle;fill:black;stroke:none;font-weight:normal;font-family:sanserif"
     id="text18">-0.5</text>
  <line
     x1="226.77"
     y1="527.24"
     x2="226.77"
     y2="521.57"
     style="stroke:black;stroke-width:1.42;stroke-linecap:round;fill:none"
     id="line20" />
  <text
     x="226.77"
     y="541.42"
     style="font-size:10;text-anchor:middle;fill:black;stroke:none;font-weight:normal;font-family:sanserif"
     id="text22">0</text>
  <line
     x1="311.81"
     y1="527.24"
     x2="311.81"
     y2="521.57"
     style="stroke:black;stroke-width:1.42;stroke-linecap:round;fill:none"
     id="line24" />
  <text
     x="311.81"
     y="541.42"
     style="font-size:10;text-anchor:middle;fill:black;stroke:none;font-weight:normal;font-family:sanserif"
     id="text26">0.5</text>
  <line
     x1="396.85"
     y1="527.24"
     x2="396.85"
     y2="521.57"
     style="stroke:black;stroke-width:1.42;stroke-linecap:round;fill:none"
     id="line28" />
  <text
     x="396.85"
     y="541.42"
     style="font-size:10;text-anchor:middle;fill:black;stroke:none;font-weight:normal;font-family:sanserif"
     id="text30">1</text>
  <line
     x1="481.89"
     y1="527.24"
     x2="481.89"
     y2="521.57"
     style="stroke:black;stroke-width:1.42;stroke-linecap:round;fill:none"
     id="line32" />
  <text
     x="481.89"
     y="541.42"
     style="font-size:10;text-anchor:middle;fill:black;stroke:none;font-weight:normal;font-family:sanserif"
     id="text34">1.5</text>
  <line
     x1="566.93"
     y1="527.24"
     x2="566.93"
     y2="521.57"
     style="stroke:black;stroke-width:1.42;stroke-linecap:round;fill:none"
     id="line36" />
  <text
     x="566.93"
     y="541.42"
     style="font-size:10;text-anchor:middle;fill:black;stroke:none;font-weight:normal;font-family:sanserif"
     id="text38">2</text>
  <line
     x1="39.69"
     y1="510.24"
     x2="39.69"
     y2="170.08"
     style="stroke:black;stroke-width:1.42;stroke-linecap:round;fill:none"
     id="line40" />
  <text
     x="15.999842"
     y="298.76593"
     style="font-size:10px;font-weight:normal;text-anchor:end;fill:#000000;stroke:none;font-family:sanserif"
     id="text42">y</text>
  <line
     x1="39.69"
     y1="510.24"
     x2="45.35"
     y2="510.24"
     style="stroke:black;stroke-width:1.42;stroke-linecap:round;fill:none"
     id="line44" />
  <text
     x="31.18"
     y="510.24"
     style="font-size:10;text-anchor:end;fill:black;stroke:none;font-weight:normal;font-family:sanserif"
     id="text46">-0.5</text>
  <line
     x1="39.69"
     y1="425.20"
     x2="45.35"
     y2="425.20"
     style="stroke:black;stroke-width:1.42;stroke-linecap:round;fill:none"
     id="line48" />
  <text
     x="31.18"
     y="425.20"
     style="font-size:10;text-anchor:end;fill:black;stroke:none;font-weight:normal;font-family:sanserif"
     id="text50">0</text>
  <line
     x1="39.69"
     y1="340.16"
     x2="45.35"
     y2="340.16"
     style="stroke:black;stroke-width:1.42;stroke-linecap:round;fill:none"
     id="line52" />
  <text
     x="31.18"
     y="340.16"
     style="font-size:10;text-anchor:end;fill:black;stroke:none;font-weight:normal;font-family:sanserif"
     id="text54">0.5</text>
  <line
     x1="39.69"
     y1="255.12"
     x2="45.35"
     y2="255.12"
     style="stroke:black;stroke-width:1.42;stroke-linecap:round;fill:none"
     id="line56" />
  <text
     x="31.18"
     y="255.12"
     style="font-size:10;text-anchor:end;fill:black;stroke:none;font-weight:normal;font-family:sanserif"
     id="text58">1</text>
  <line
     x1="39.69"
     y1="170.08"
     x2="45.35"
     y2="170.08"
     style="stroke:black;stroke-width:1.42;stroke-linecap:round;fill:none"
     id="line60" />
  <text
     x="31.18"
     y="170.08"
     style="font-size:10;text-anchor:end;fill:black;stroke:none;font-weight:normal;font-family:sanserif"
     id="text62">1.5</text>
<!-- There are 41 nodes
 -->  <circle
     cx="347.04"
     cy="304.93"
     r="2.83"
     style="fill:black"
     id="circle64" />
  <circle
     cx="345.83"
     cy="280.63"
     r="2.83"
     style="fill:black"
     id="circle68" />
  <circle
     cx="209.76"
     cy="413.29"
     r="2.83"
     style="fill:black"
     id="circle76" />
  <circle
     cx="218.27"
     cy="440.50"
     r="2.83"
     style="fill:black"
     id="circle84" />
  <circle
     cx="242.08"
     cy="437.10"
     r="2.83"
     style="fill:black"
     id="circle92" />
  <circle
     cx="354.33"
     cy="323.15"
     r="2.83"
     style="fill:black"
     id="circle96" />
  <circle
     cx="257.39"
     cy="350.36"
     r="2.83"
     style="fill:black"
     id="circle100" />
  <circle
     cx="209.76"
     cy="426.90"
     r="2.83"
     style="fill:black"
     id="circle102" />
  <circle
     cx="230.17"
     cy="442.20"
     r="2.83"
     style="fill:black"
     id="circle104" />
  <circle
     cx="303.31"
     cy="367.37"
     r="2.83"
     style="fill:black"
     id="circle106" />
  <circle
     cx="56.69"
     cy="399.69"
     r="2.83"
     style="fill:black"
     id="circle108" />
  <circle
     cx="175.75"
     cy="340.16"
     r="2.83"
     style="fill:black"
     id="circle110" />
  <circle
     cx="56.69"
     cy="340.16"
     r="2.83"
     style="fill:black"
     id="circle112" />
  <circle
     cx="56.69"
     cy="450.71"
     r="2.83"
     style="fill:black"
     id="circle114" />
  <circle
     cx="56.69"
     cy="399.69"
     r="2.83"
     style="fill:black"
     id="circle116" />
  <circle
     cx="56.69"
     cy="510.24"
     r="2.83"
     style="fill:black"
     id="circle118" />
  <circle
     cx="226.77"
     cy="510.24"
     r="2.83"
     style="fill:black"
     id="circle120" />
  <circle
     cx="235.28"
     cy="501.73"
     r="2.83"
     style="fill:black"
     id="circle122" />
  <circle
     cx="56.69"
     cy="450.71"
     r="2.83"
     style="fill:black"
     id="circle124" />
  <circle
     cx="328.82"
     cy="238.11"
     r="2.83"
     style="fill:black"
     id="circle126" />
  <circle
     cx="226.77"
     cy="340.16"
     r="2.83"
     style="fill:black"
     id="circle128" />
  <circle
     cx="175.75"
     cy="340.16"
     r="2.83"
     style="fill:black"
     id="circle130" />
  <circle
     cx="235.28"
     cy="501.73"
     r="2.83"
     style="fill:black"
     id="circle132" />
  <circle
     cx="260.79"
     cy="476.22"
     r="2.83"
     style="fill:black"
     id="circle134" />
  <circle
     cx="260.79"
     cy="476.22"
     r="2.83"
     style="fill:black"
     id="circle136" />
  <circle
     cx="347.04"
     cy="389.97"
     r="2.83"
     style="fill:black"
     id="circle138" />
  <circle
     cx="379.84"
     cy="389.97"
     r="2.83"
     style="fill:black"
     id="circle140" />
  <circle
     cx="517.11"
     cy="272.13"
     r="2.83"
     style="fill:black"
     id="circle142" />
  <circle
     cx="517.11"
     cy="219.89"
     r="2.83"
     style="fill:black"
     id="circle144" />
  <circle
     cx="347.04"
     cy="219.89"
     r="2.83"
     style="fill:black"
     id="circle146" />
  <circle
     cx="328.82"
     cy="238.11"
     r="2.83"
     style="fill:black"
     id="circle148" />
  <circle
     cx="517.11"
     cy="304.93"
     r="2.83"
     style="fill:black"
     id="circle150" />
  <circle
     cx="517.11"
     cy="272.13"
     r="2.83"
     style="fill:black"
     id="circle152" />
  <circle
     cx="517.11"
     cy="340.16"
     r="2.83"
     style="fill:black"
     id="circle154" />
  <circle
     cx="517.11"
     cy="304.93"
     r="2.83"
     style="fill:black"
     id="circle156" />
  <circle
     cx="379.84"
     cy="389.97"
     r="2.83"
     style="fill:black"
     id="circle158" />
  <circle
     cx="517.11"
     cy="389.97"
     r="2.83"
     style="fill:black"
     id="circle160" />
  <circle
     cx="517.11"
     cy="340.16"
     r="2.83"
     style="fill:black"
     id="circle162" />
<!-- There are 14 blocks
 --><!-- Render block 0
 -->  <path
     d="M 209.76 413.29, L 211.58 410.32, L 213.40 407.35, L 215.24 404.38, L 217.09 401.41, L 218.98 398.43, L 220.90 395.44, L 222.86 392.45, L 224.87 389.45, L 226.94 386.44, L 229.07 383.42, L 231.26 380.38, L 233.54 377.34, L 235.90 374.28, L 238.35 371.20, L 240.90 368.11, L 243.55 365.01, L 246.31 361.88, L 249.19 358.73, L 252.20 355.57, L 255.34 352.38, L 258.25 349.52, L 260.63 347.25, L 263.07 344.97, L 265.58 342.68, L 268.16 340.38, L 270.79 338.07, L 273.48 335.75, L 276.23 333.42, L 279.03 331.08, L 281.88 328.73, L 284.78 326.38, L 287.72 324.01, L 290.71 321.64, L 293.74 319.27, L 296.81 316.88, L 299.91 314.49, L 303.05 312.10, L 306.22 309.70, L 309.42 307.29, L 312.64 304.88, L 315.89 302.47, L 319.17 300.05, L 322.46 297.63, L 325.76 295.21, L 329.08 292.78, L 332.42 290.35, L 335.76 287.92, L 339.11 285.49, L 342.47 283.06, L 345.83 280.63"
     style="stroke:black;stroke-width:0.71;stroke-linecap:round;fill:none;stroke-dasharray: 5.67 5.67"
     id="path166" />
  <path
     d="M 347.04 304.93, L 346.83 300.88, L 346.63 296.83, L 346.43 292.78, L 346.23 288.73, L 346.03 284.68, L 345.83 280.63"
     style="stroke:black;stroke-width:0.71;stroke-linecap:round;fill:none;stroke-dasharray: 5.67 5.67"
     id="path168" />
  <path
     d="M 228.03 418.71, L 229.46 415.69, L 231.02 412.75, L 232.68 409.85, L 234.41 407.00, L 236.20 404.19, L 238.05 401.42, L 239.94 398.67, L 241.88 395.96, L 243.86 393.28, L 245.88 390.62, L 247.94 388.00, L 250.03 385.40, L 252.15 382.83, L 254.31 380.28, L 256.49 377.76, L 258.71 375.27, L 260.95 372.80, L 263.22 370.35, L 265.51 367.93, L 267.83 365.54, L 270.18 363.17, L 272.55 360.82, L 274.94 358.50, L 277.36 356.20, L 279.80 353.93, L 282.26 351.68, L 284.74 349.45, L 287.25 347.25, L 289.77 345.07, L 292.32 342.91, L 294.88 340.78, L 297.47 338.67, L 300.07 336.59, L 302.69 334.53, L 305.33 332.49, L 307.99 330.48, L 310.67 328.49, L 313.37 326.53, L 316.08 324.59, L 318.81 322.68, L 321.56 320.79, L 324.32 318.92, L 327.11 317.08, L 329.91 315.27, L 332.72 313.48, L 335.55 311.72, L 338.40 309.98, L 341.26 308.27, L 344.14 306.59, L 347.04 304.93"
     style="stroke:black;stroke-width:0.71;stroke-linecap:round;fill:none"
     id="path172" />
  <path
     d="M 228.03 418.71, L 224.98 417.80, L 221.94 416.90, L 218.89 416.00, L 215.85 415.10, L 212.81 414.19, L 209.76 413.29"
     style="stroke:black;stroke-width:0.71;stroke-linecap:round;fill:none;stroke-dasharray: 5.67 5.67"
     id="path174" />
<!-- Render block 1
 -->  <path
     d="M 209.76 413.29, L 212.81 414.19, L 215.85 415.10, L 218.89 416.00, L 221.94 416.90, L 224.98 417.80, L 228.03 418.71"
     style="stroke:black;stroke-width:0.71;stroke-linecap:round;fill:none;stroke-dasharray: 5.67 5.67"
     id="path178" />
  <path
     d="M 226.77 425.20, L 226.40 424.48, L 226.42 423.60, L 226.57 422.75, L 226.80 421.92, L 227.07 421.11, L 227.37 420.30, L 227.69 419.50, L 228.03 418.71"
     style="stroke:black;stroke-width:0.71;stroke-linecap:round;fill:none"
     id="path182" />
  <path
     d="M 218.27 440.50, L 219.69 437.95, L 221.10 435.40, L 222.52 432.85, L 223.94 430.30, L 225.35 427.75, L 226.77 425.20"
     style="stroke:black;stroke-width:0.71;stroke-linecap:round;fill:none;stroke-dasharray: 5.67 5.67"
     id="path184" />
  <path
     d="M 218.27 440.50, L 215.83 437.35, L 213.56 434.21, L 211.60 431.06, L 210.11 427.91, L 209.18 424.38, L 208.95 420.69, L 209.23 416.99, L 209.76 413.29"
     style="stroke:black;stroke-width:0.71;stroke-linecap:round;fill:none;stroke-dasharray: 5.67 5.67"
     id="path186" />
<!-- Render block 2
 -->  <path
     d="M 226.77 425.20, L 227.43 425.29, L 228.06 425.08, L 228.65 424.75, L 229.21 424.36, L 229.75 423.95, L 230.28 423.52, L 230.79 423.07, L 231.29 422.61"
     style="stroke:black;stroke-width:0.71;stroke-linecap:round;fill:none"
     id="path192" />
  <path
     d="M 242.08 437.10, L 240.28 434.69, L 238.48 432.27, L 236.68 429.85, L 234.88 427.44, L 233.08 425.02, L 231.29 422.61"
     style="stroke:black;stroke-width:0.71;stroke-linecap:round;fill:none;stroke-dasharray: 5.67 5.67"
     id="path194" />
  <path
     d="M 218.27 440.50, L 221.36 441.36, L 224.44 442.03, L 227.53 442.35, L 230.59 442.14, L 233.46 441.38, L 236.33 440.19, L 239.21 438.72, L 242.08 437.10"
     style="stroke:black;stroke-width:0.71;stroke-linecap:round;fill:none;stroke-dasharray: 5.67 5.67"
     id="path196" />
  <path
     d="M 218.27 440.50, L 219.69 437.95, L 221.10 435.40, L 222.52 432.85, L 223.94 430.30, L 225.35 427.75, L 226.77 425.20"
     style="stroke:black;stroke-width:0.71;stroke-linecap:round;fill:none;stroke-dasharray: 5.67 5.67"
     id="path198" />
<!-- Render block 3
 -->  <path
     d="M 231.29 422.61, L 234.06 419.81, L 236.72 416.91, L 239.31 413.94, L 241.88 410.95, L 244.42 407.94, L 246.94 404.92, L 249.47 401.89, L 251.99 398.87, L 254.52 395.85, L 257.05 392.83, L 259.59 389.82, L 262.14 386.82, L 264.71 383.83, L 267.29 380.85, L 269.88 377.88, L 272.49 374.93, L 275.11 371.99, L 277.75 369.07, L 280.41 366.17, L 283.09 363.28, L 285.79 360.41, L 288.50 357.55, L 291.24 354.72, L 293.99 351.90, L 296.77 349.11, L 299.57 346.34, L 302.38 343.58, L 305.22 340.85, L 308.08 338.14, L 310.96 335.45, L 313.86 332.78, L 316.77 330.14, L 319.71 327.51, L 322.67 324.91, L 325.65 322.34, L 328.65 319.78, L 331.67 317.25, L 334.70 314.74, L 337.76 312.25, L 340.83 309.79, L 343.93 307.35, L 347.04 304.93"
     style="stroke:black;stroke-width:0.71;stroke-linecap:round;fill:none"
     id="path204" />
  <path
     d="M 354.33 323.15, L 353.11 320.11, L 351.90 317.08, L 350.68 314.04, L 349.47 311.01, L 348.25 307.97, L 347.04 304.93"
     style="stroke:black;stroke-width:0.71;stroke-linecap:round;fill:none;stroke-dasharray: 5.67 5.67"
     id="path206" />
  <path
     d="M 242.08 437.10, L 244.70 433.97, L 247.33 430.84, L 249.95 427.72, L 252.56 424.61, L 255.18 421.50, L 257.78 418.41, L 260.39 415.33, L 262.98 412.28, L 265.57 409.24, L 268.14 406.23, L 270.71 403.25, L 273.26 400.29, L 275.80 397.37, L 278.33 394.48, L 280.84 391.63, L 283.34 388.82, L 285.82 386.05, L 288.28 383.33, L 290.72 380.65, L 293.14 378.03, L 295.54 375.46, L 297.92 372.94, L 300.27 370.48, L 302.60 368.09, L 305.50 365.16, L 308.61 362.08, L 311.69 359.11, L 314.72 356.25, L 317.71 353.48, L 320.66 350.80, L 323.58 348.21, L 326.48 345.69, L 329.34 343.24, L 332.18 340.85, L 335.00 338.51, L 337.79 336.23, L 340.58 333.99, L 343.34 331.78, L 346.10 329.60, L 348.85 327.44, L 351.59 325.29, L 354.33 323.15"
     style="stroke:black;stroke-width:0.71;stroke-linecap:round;fill:none;stroke-dasharray: 5.67 5.67"
     id="path208" />
  <path
     d="M 242.08 437.10, L 240.28 434.69, L 238.48 432.27, L 236.68 429.85, L 234.88 427.44, L 233.08 425.02, L 231.29 422.61"
     style="stroke:black;stroke-width:0.71;stroke-linecap:round;fill:none;stroke-dasharray: 5.67 5.67"
     id="path210" />
<!-- Render block 4
 -->  <text
     x="118.26754"
     y="373.13321"
     style="font-size:10px;font-weight:normal;text-anchor:middle;fill:#000000;stroke:none;font-family:sanserif"
     id="text212">in1</text>
  <text
     x="115.82417"
     y="335.80588"
     style="font-size:10px;font-weight:normal;text-anchor:middle;fill:#000000;stroke:none;font-family:sanserif"
     id="text214">USER_DEFINED</text>
  <path
     d="M 56.69 340.16, L 59.67 340.16, L 62.65 340.16, L 65.62 340.16, L 68.60 340.16, L 71.57 340.16, L 74.55 340.16, L 77.53 340.16, L 80.50 340.16, L 83.48 340.16, L 86.46 340.16, L 89.43 340.16, L 92.41 340.16, L 95.39 340.16, L 98.36 340.16, L 101.34 340.16, L 104.31 340.16, L 107.29 340.16, L 110.27 340.16, L 113.24 340.16, L 116.22 340.16, L 119.20 340.16, L 122.17 340.16, L 125.15 340.16, L 128.13 340.16, L 131.10 340.16, L 134.08 340.16, L 137.06 340.16, L 140.03 340.16, L 143.01 340.16, L 145.98 340.16, L 148.96 340.16, L 151.94 340.16, L 154.91 340.16, L 157.89 340.16, L 160.87 340.16, L 163.84 340.16, L 166.82 340.16, L 169.80 340.16, L 172.77 340.16, L 175.75 340.16"
     style="stroke:black;stroke-width:0.71;stroke-linecap:round;fill:none"
     id="path216" />
  <path
     d="M 209.76 413.29, L 206.93 407.20, L 204.09 401.10, L 201.26 395.01, L 198.43 388.91, L 195.59 382.82, L 192.76 376.72, L 189.92 370.63, L 187.09 364.54, L 184.25 358.44, L 181.42 352.35, L 178.58 346.25, L 175.75 340.16"
     style="stroke:black;stroke-width:0.71;stroke-linecap:round;fill:none;stroke-dasharray: 5.67 5.67"
     id="path218" />
  <path
     d="M 56.69 399.69, L 60.52 400.03, L 64.35 400.37, L 68.17 400.71, L 72.00 401.05, L 75.83 401.39, L 79.65 401.73, L 83.48 402.07, L 87.31 402.41, L 91.13 402.75, L 94.96 403.09, L 98.79 403.43, L 102.61 403.77, L 106.44 404.11, L 110.27 404.45, L 114.09 404.79, L 117.92 405.13, L 121.75 405.47, L 125.57 405.81, L 129.40 406.15, L 133.23 406.49, L 137.06 406.83, L 140.88 407.17, L 144.71 407.51, L 148.54 407.85, L 152.36 408.19, L 156.19 408.53, L 160.02 408.87, L 163.84 409.21, L 167.67 409.55, L 171.50 409.89, L 175.32 410.23, L 179.15 410.57, L 182.98 410.91, L 186.80 411.25, L 190.63 411.59, L 194.46 411.93, L 198.28 412.27, L 202.11 412.61, L 205.94 412.95, L 209.76 413.29"
     style="stroke:black;stroke-width:0.71;stroke-linecap:round;fill:none;stroke-dasharray: 5.67 5.67"
     id="path220" />
  <path
     d="M 56.69 399.69, L 56.69 394.72, L 56.69 389.76, L 56.69 384.80, L 56.69 379.84, L 56.69 374.88, L 56.69 369.92, L 56.69 364.96, L 56.69 360.00, L 56.69 355.04, L 56.69 350.08, L 56.69 345.12, L 56.69 340.16"
     style="stroke:black;stroke-width:0.71;stroke-linecap:round;fill:none"
     id="path224" />
<!-- Render block 5
 -->  <text
     x="126.92256"
     y="428.49826"
     style="font-size:10px;font-weight:normal;text-anchor:middle;fill:#000000;stroke:none;font-family:sanserif"
     id="text226">in2</text>
  <path
     d="M 56.69 399.69, L 60.52 400.03, L 64.35 400.37, L 68.17 400.71, L 72.00 401.05, L 75.83 401.39, L 79.65 401.73, L 83.48 402.07, L 87.31 402.41, L 91.13 402.75, L 94.96 403.09, L 98.79 403.43, L 102.61 403.77, L 106.44 404.11, L 110.27 404.45, L 114.09 404.79, L 117.92 405.13, L 121.75 405.47, L 125.57 405.81, L 129.40 406.15, L 133.23 406.49, L 137.06 406.83, L 140.88 407.17, L 144.71 407.51, L 148.54 407.85, L 152.36 408.19, L 156.19 408.53, L 160.02 408.87, L 163.84 409.21, L 167.67 409.55, L 171.50 409.89, L 175.32 410.23, L 179.15 410.57, L 182.98 410.91, L 186.80 411.25, L 190.63 411.59, L 194.46 411.93, L 198.28 412.27, L 202.11 412.61, L 205.94 412.95, L 209.76 413.29"
     style="stroke:black;stroke-width:0.71;stroke-linecap:round;fill:none;stroke-dasharray: 5.67 5.67"
     id="path228" />
  <path
     d="M 218.27 440.50, L 215.83 437.35, L 213.56 434.21, L 211.60 431.06, L 210.11 427.91, L 209.18 424.38, L 208.95 420.69, L 209.23 416.99, L 209.76 413.29"
     style="stroke:black;stroke-width:0.71;stroke-linecap:round;fill:none;stroke-dasharray: 5.67 5.67"
     id="path230" />
  <path
     d="M 56.69 450.71, L 60.73 450.45, L 64.77 450.20, L 68.81 449.94, L 72.85 449.69, L 76.89 449.43, L 80.93 449.18, L 84.97 448.92, L 89.01 448.67, L 93.05 448.41, L 97.09 448.16, L 101.13 447.90, L 105.17 447.65, L 109.20 447.39, L 113.24 447.14, L 117.28 446.88, L 121.32 446.63, L 125.36 446.37, L 129.40 446.12, L 133.44 445.86, L 137.48 445.61, L 141.52 445.35, L 145.56 445.10, L 149.60 444.84, L 153.64 444.59, L 157.68 444.33, L 161.72 444.08, L 165.76 443.82, L 169.80 443.57, L 173.83 443.31, L 177.87 443.06, L 181.91 442.80, L 185.95 442.54, L 189.99 442.29, L 194.03 442.03, L 198.07 441.78, L 202.11 441.52, L 206.15 441.27, L 210.19 441.01, L 214.23 440.76, L 218.27 440.50"
     style="stroke:black;stroke-width:0.71;stroke-linecap:round;fill:none;stroke-dasharray: 5.67 5.67"
     id="path232" />
  <text
     x="-416.49176"
     y="51.148399"
     transform="matrix(0,-1,1,0,0,0)"
     style="font-size:10px;font-weight:normal;text-anchor:middle;fill:#000000;stroke:none;font-family:sanserif"
     id="text234">USER_DEFINED</text>
  <path
     d="M 56.69 450.71, L 56.69 444.33, L 56.69 437.95, L 56.69 431.57, L 56.69 425.20, L 56.69 418.82, L 56.69 412.44, L 56.69 406.06, L 56.69 399.69"
     style="stroke:black;stroke-width:0.71;stroke-linecap:round;fill:none"
     id="path236" />
<!-- Render block 6
 -->  <text
     x="133.74507"
     y="482.76318"
     style="font-size:10px;font-weight:normal;text-anchor:middle;fill:#000000;stroke:none;font-family:sanserif"
     id="text238">in3</text>
  <path
     d="M 56.69 450.71, L 60.73 450.45, L 64.77 450.20, L 68.81 449.94, L 72.85 449.69, L 76.89 449.43, L 80.93 449.18, L 84.97 448.92, L 89.01 448.67, L 93.05 448.41, L 97.09 448.16, L 101.13 447.90, L 105.17 447.65, L 109.20 447.39, L 113.24 447.14, L 117.28 446.88, L 121.32 446.63, L 125.36 446.37, L 129.40 446.12, L 133.44 445.86, L 137.48 445.61, L 141.52 445.35, L 145.56 445.10, L 149.60 444.84, L 153.64 444.59, L 157.68 444.33, L 161.72 444.08, L 165.76 443.82, L 169.80 443.57, L 173.83 443.31, L 177.87 443.06, L 181.91 442.80, L 185.95 442.54, L 189.99 442.29, L 194.03 442.03, L 198.07 441.78, L 202.11 441.52, L 206.15 441.27, L 210.19 441.01, L 214.23 440.76, L 218.27 440.50"
     style="stroke:black;stroke-width:0.71;stroke-linecap:round;fill:none;stroke-dasharray: 5.67 5.67"
     id="path240" />
  <path
     d="M 235.28 501.73, L 233.86 496.63, L 232.44 491.53, L 231.02 486.43, L 229.61 481.32, L 228.19 476.22, L 226.77 471.12, L 225.35 466.02, L 223.94 460.91, L 222.52 455.81, L 221.10 450.71, L 219.69 445.61, L 218.27 440.50"
     style="stroke:black;stroke-width:0.71;stroke-linecap:round;fill:none;stroke-dasharray: 5.67 5.67"
     id="path242" />
  <text
     x="146.16669"
     y="519.73987"
     style="font-size:10px;font-weight:normal;text-anchor:middle;fill:#000000;stroke:none;font-family:sanserif"
     id="text244">USER_DEFINED</text>
  <path
     d="M 56.69 510.24, L 61.25 510.24, L 65.80 510.24, L 70.35 510.24, L 74.90 510.24, L 79.46 510.24, L 84.01 510.24, L 88.56 510.24, L 93.11 510.24, L 97.67 510.24, L 102.22 510.24, L 106.77 510.24, L 111.32 510.24, L 115.88 510.24, L 120.43 510.24, L 124.98 510.24, L 129.53 510.24, L 134.09 510.24, L 138.64 510.24, L 143.19 510.24, L 147.75 510.24, L 152.30 510.24, L 156.85 510.24, L 161.40 510.24, L 165.96 510.24, L 170.51 510.24, L 175.06 510.24, L 179.61 510.24, L 184.17 510.24, L 188.72 510.24, L 193.27 510.24, L 197.82 510.24, L 202.38 510.24, L 206.93 510.24, L 211.48 510.24, L 216.03 510.24, L 220.59 510.24, L 225.14 510.24, L 228.84 508.17, L 232.06 504.95, L 235.28 501.73"
     style="stroke:black;stroke-width:0.71;stroke-linecap:round;fill:none"
     id="path246" />
  <path
     d="M 56.69 510.24, L 56.69 505.28, L 56.69 500.31, L 56.69 495.35, L 56.69 490.39, L 56.69 485.43, L 56.69 480.47, L 56.69 475.51, L 56.69 470.55, L 56.69 465.59, L 56.69 460.63, L 56.69 455.67, L 56.69 450.71"
     style="stroke:black;stroke-width:0.71;stroke-linecap:round;fill:none"
     id="path250" />
<!-- Render block 7
 -->  <text
     x="261.13336"
     y="331.63083"
     style="font-size:10px;font-weight:normal;text-anchor:middle;fill:#000000;stroke:none;font-family:sanserif"
     id="text252">outer1</text>
  <text
     x="-26.246687"
     y="396.40176"
     transform="matrix(0.7071068,-0.7071068,0.7071068,0.7071068,0,0)"
     style="font-size:10px;font-weight:normal;text-anchor:middle;fill:#000000;stroke:none;font-family:sanserif"
     id="text254">USER_DEFINED</text>
  <path
     d="M 175.75 340.16, L 179.65 340.16, L 183.56 340.16, L 187.47 340.16, L 191.38 340.16, L 195.28 340.16, L 199.19 340.16, L 203.10 340.16, L 207.00 340.16, L 210.91 340.16, L 214.82 340.16, L 218.72 340.16, L 222.63 340.16, L 226.54 340.16, L 229.37 337.56, L 232.13 334.80, L 234.89 332.04, L 237.66 329.27, L 240.42 326.51, L 243.18 323.75, L 245.94 320.99, L 248.71 318.22, L 251.47 315.46, L 254.23 312.70, L 256.99 309.94, L 259.76 307.17, L 262.52 304.41, L 265.28 301.65, L 268.04 298.89, L 270.81 296.12, L 273.57 293.36, L 276.33 290.60, L 279.09 287.84, L 281.86 285.07, L 284.62 282.31, L 287.38 279.55, L 290.14 276.79, L 292.91 274.02, L 295.67 271.26, L 298.43 268.50, L 301.19 265.74, L 303.96 262.97, L 306.72 260.21, L 309.48 257.45, L 312.24 254.69, L 315.01 251.92, L 317.77 249.16, L 320.53 246.40, L 323.29 243.64, L 326.06 240.87, L 328.82 238.11"
     style="stroke:black;stroke-width:0.71;stroke-linecap:round;fill:none"
     id="path256" />
  <path
     d="M 345.83 280.63, L 344.41 277.09, L 342.99 273.54, L 341.57 270.00, L 340.16 266.46, L 338.74 262.91, L 337.32 259.37, L 335.91 255.83, L 334.49 252.28, L 333.07 248.74, L 331.65 245.20, L 330.24 241.65, L 328.82 238.11"
     style="stroke:black;stroke-width:0.71;stroke-linecap:round;fill:none;stroke-dasharray: 5.67 5.67"
     id="path258" />
  <path
     d="M 209.76 413.29, L 211.58 410.32, L 213.40 407.35, L 215.24 404.38, L 217.09 401.41, L 218.98 398.43, L 220.90 395.44, L 222.86 392.45, L 224.87 389.45, L 226.94 386.44, L 229.07 383.42, L 231.26 380.38, L 233.54 377.34, L 235.90 374.28, L 238.35 371.20, L 240.90 368.11, L 243.55 365.01, L 246.31 361.88, L 249.19 358.73, L 252.20 355.57, L 255.34 352.38, L 258.25 349.52, L 260.63 347.25, L 263.07 344.97, L 265.58 342.68, L 268.16 340.38, L 270.79 338.07, L 273.48 335.75, L 276.23 333.42, L 279.03 331.08, L 281.88 328.73, L 284.78 326.38, L 287.72 324.01, L 290.71 321.64, L 293.74 319.27, L 296.81 316.88, L 299.91 314.49, L 303.05 312.10, L 306.22 309.70, L 309.42 307.29, L 312.64 304.88, L 315.89 302.47, L 319.17 300.05, L 322.46 297.63, L 325.76 295.21, L 329.08 292.78, L 332.42 290.35, L 335.76 287.92, L 339.11 285.49, L 342.47 283.06, L 345.83 280.63"
     style="stroke:black;stroke-width:0.71;stroke-linecap:round;fill:none;stroke-dasharray: 5.67 5.67"
     id="path260" />
  <path
     d="M 209.76 413.29, L 206.93 407.20, L 204.09 401.10, L 201.26 395.01, L 198.43 388.91, L 195.59 382.82, L 192.76 376.72, L 189.92 370.63, L 187.09 364.54, L 184.25 358.44, L 181.42 352.35, L 178.58 346.25, L 175.75 340.16"
     style="stroke:black;stroke-width:0.71;stroke-linecap:round;fill:none;stroke-dasharray: 5.67 5.67"
     id="path262" />
<!-- Render block 8
 -->  <text
     x="238.71497"
     y="463.14163"
     style="font-size:10px;font-weight:normal;text-anchor:middle;fill:#000000;stroke:none;font-family:sanserif"
     id="text264">outer2</text>
  <path
     d="M 218.27 440.50, L 221.36 441.36, L 224.44 442.03, L 227.53 442.35, L 230.59 442.14, L 233.46 441.38, L 236.33 440.19, L 239.21 438.72, L 242.08 437.10"
     style="stroke:black;stroke-width:0.71;stroke-linecap:round;fill:none;stroke-dasharray: 5.67 5.67"
     id="path266" />
  <path
     d="M 260.79 476.22, L 259.23 472.96, L 257.67 469.70, L 256.11 466.44, L 254.55 463.18, L 252.99 459.92, L 251.43 456.66, L 249.87 453.40, L 248.31 450.14, L 246.76 446.88, L 245.20 443.62, L 243.64 440.36, L 242.08 437.10"
     style="stroke:black;stroke-width:0.71;stroke-linecap:round;fill:none;stroke-dasharray: 5.67 5.67"
     id="path268" />
  <path
     d="M 235.28 501.73, L 238.46 498.54, L 241.65 495.35, L 244.84 492.17, L 248.03 488.98, L 251.22 485.79, L 254.41 482.60, L 257.60 479.41, L 260.79 476.22"
     style="stroke:black;stroke-width:0.71;stroke-linecap:round;fill:none"
     id="path272" />
  <path
     d="M 235.28 501.73, L 233.86 496.63, L 232.44 491.53, L 231.02 486.43, L 229.61 481.32, L 228.19 476.22, L 226.77 471.12, L 225.35 466.02, L 223.94 460.91, L 222.52 455.81, L 221.10 450.71, L 219.69 445.61, L 218.27 440.50"
     style="stroke:black;stroke-width:0.71;stroke-linecap:round;fill:none;stroke-dasharray: 5.67 5.67"
     id="path274" />
<!-- Render block 9
 -->  <text
     x="319.35519"
     y="386.22733"
     style="font-size:10px;font-weight:normal;text-anchor:middle;fill:#000000;stroke:none;font-family:sanserif"
     id="text276">outer3</text>
  <path
     d="M 242.08 437.10, L 244.70 433.97, L 247.33 430.84, L 249.95 427.72, L 252.56 424.61, L 255.18 421.50, L 257.78 418.41, L 260.39 415.33, L 262.98 412.28, L 265.57 409.24, L 268.14 406.23, L 270.71 403.25, L 273.26 400.29, L 275.80 397.37, L 278.33 394.48, L 280.84 391.63, L 283.34 388.82, L 285.82 386.05, L 288.28 383.33, L 290.72 380.65, L 293.14 378.03, L 295.54 375.46, L 297.92 372.94, L 300.27 370.48, L 302.60 368.09, L 305.50 365.16, L 308.61 362.08, L 311.69 359.11, L 314.72 356.25, L 317.71 353.48, L 320.66 350.80, L 323.58 348.21, L 326.48 345.69, L 329.34 343.24, L 332.18 340.85, L 335.00 338.51, L 337.79 336.23, L 340.58 333.99, L 343.34 331.78, L 346.10 329.60, L 348.85 327.44, L 351.59 325.29, L 354.33 323.15"
     style="stroke:black;stroke-width:0.71;stroke-linecap:round;fill:none;stroke-dasharray: 5.67 5.67"
     id="path278" />
  <path
     d="M 379.84 389.97, L 377.72 384.40, L 375.59 378.84, L 373.46 373.27, L 371.34 367.70, L 369.21 362.13, L 367.09 356.56, L 364.96 350.99, L 362.83 345.42, L 360.71 339.86, L 358.58 334.29, L 356.46 328.72, L 354.33 323.15"
     style="stroke:black;stroke-width:0.71;stroke-linecap:round;fill:none;stroke-dasharray: 5.67 5.67"
     id="path280" />
  <text
     x="-98.177414"
     y="532.06061"
     transform="matrix(0.7071068,-0.7071068,0.7071068,0.7071068,0,0)"
     style="font-size:10px;font-weight:normal;text-anchor:middle;fill:#000000;stroke:none;font-family:sanserif"
     id="text282">USER_DEFINED</text>
  <path
     d="M 260.79 476.22, L 263.39 473.61, L 266.00 471.01, L 268.60 468.40, L 271.21 465.80, L 273.82 463.19, L 276.42 460.59, L 279.03 457.98, L 281.63 455.37, L 284.24 452.77, L 286.85 450.16, L 289.45 447.56, L 292.06 444.95, L 294.66 442.34, L 297.27 439.74, L 299.88 437.13, L 302.48 434.53, L 305.09 431.92, L 307.69 429.31, L 310.30 426.71, L 312.90 424.10, L 315.51 421.50, L 318.12 418.89, L 320.72 416.29, L 323.33 413.68, L 325.93 411.07, L 328.54 408.47, L 331.15 405.86, L 333.75 403.26, L 336.36 400.65, L 338.96 398.04, L 341.57 395.44, L 344.17 392.83, L 346.78 390.23, L 350.36 389.97, L 354.05 389.97, L 357.73 389.97, L 361.42 389.97, L 365.10 389.97, L 368.79 389.97, L 372.47 389.97, L 376.16 389.97, L 379.84 389.97"
     style="stroke:black;stroke-width:0.71;stroke-linecap:round;fill:none"
     id="path284" />
  <path
     d="M 260.79 476.22, L 259.23 472.96, L 257.67 469.70, L 256.11 466.44, L 254.55 463.18, L 252.99 459.92, L 251.43 456.66, L 249.87 453.40, L 248.31 450.14, L 246.76 446.88, L 245.20 443.62, L 243.64 440.36, L 242.08 437.10"
     style="stroke:black;stroke-width:0.71;stroke-linecap:round;fill:none;stroke-dasharray: 5.67 5.67"
     id="path286" />
<!-- Render block 10
 -->  <text
     x="431.11765"
     y="248.2709"
     style="font-size:10px;font-weight:normal;text-anchor:middle;fill:#000000;stroke:none;font-family:sanserif"
     id="text288">out1</text>
  <text
     x="425.93372"
     y="215.01955"
     style="font-size:10px;font-weight:normal;text-anchor:middle;fill:#000000;stroke:none;font-family:sanserif"
     id="text290">USER_DEFINED</text>
  <path
     d="M 328.82 238.11, L 331.59 235.34, L 334.36 232.57, L 337.13 229.80, L 339.90 227.03, L 342.67 224.26, L 345.44 221.49, L 348.69 219.89, L 352.61 219.89, L 356.52 219.89, L 360.44 219.89, L 364.36 219.89, L 368.28 219.89, L 372.19 219.89, L 376.11 219.89, L 380.03 219.89, L 383.94 219.89, L 387.86 219.89, L 391.78 219.89, L 395.69 219.89, L 399.61 219.89, L 403.53 219.89, L 407.44 219.89, L 411.36 219.89, L 415.28 219.89, L 419.19 219.89, L 423.11 219.89, L 427.03 219.89, L 430.94 219.89, L 434.86 219.89, L 438.78 219.89, L 442.69 219.89, L 446.61 219.89, L 450.53 219.89, L 454.45 219.89, L 458.36 219.89, L 462.28 219.89, L 466.20 219.89, L 470.11 219.89, L 474.03 219.89, L 477.95 219.89, L 481.86 219.89, L 485.78 219.89, L 489.70 219.89, L 493.61 219.89, L 497.53 219.89, L 501.45 219.89, L 505.36 219.89, L 509.28 219.89, L 513.20 219.89, L 517.11 219.89"
     style="stroke:black;stroke-width:0.71;stroke-linecap:round;fill:none"
     id="path292" />
  <path
     d="M 517.11 272.13, L 517.11 267.77, L 517.11 263.42, L 517.11 259.07, L 517.11 254.72, L 517.11 250.36, L 517.11 246.01, L 517.11 241.66, L 517.11 237.30, L 517.11 232.95, L 517.11 228.60, L 517.11 224.25, L 517.11 219.89"
     style="stroke:black;stroke-width:0.71;stroke-linecap:round;fill:none"
     id="path296" />
  <path
     d="M 345.83 280.63, L 349.25 280.46, L 352.68 280.29, L 356.10 280.12, L 359.53 279.95, L 362.96 279.78, L 366.38 279.61, L 369.81 279.44, L 373.23 279.27, L 376.66 279.10, L 380.08 278.93, L 383.51 278.76, L 386.94 278.59, L 390.36 278.42, L 393.79 278.25, L 397.21 278.08, L 400.64 277.91, L 404.06 277.74, L 407.49 277.57, L 410.92 277.40, L 414.34 277.23, L 417.77 277.06, L 421.19 276.89, L 424.62 276.72, L 428.04 276.55, L 431.47 276.38, L 434.90 276.21, L 438.32 276.04, L 441.75 275.87, L 445.17 275.70, L 448.60 275.53, L 452.03 275.36, L 455.45 275.19, L 458.88 275.02, L 462.30 274.85, L 465.73 274.68, L 469.15 274.51, L 472.58 274.34, L 476.01 274.17, L 479.43 274.00, L 482.86 273.83, L 486.28 273.66, L 489.71 273.49, L 493.13 273.32, L 496.56 273.15, L 499.99 272.98, L 503.41 272.81, L 506.84 272.64, L 510.26 272.47, L 513.69 272.30, L 517.11 272.13"
     style="stroke:black;stroke-width:0.71;stroke-linecap:round;fill:none;stroke-dasharray: 5.67 5.67"
     id="path298" />
  <path
     d="M 345.83 280.63, L 344.41 277.09, L 342.99 273.54, L 341.57 270.00, L 340.16 266.46, L 338.74 262.91, L 337.32 259.37, L 335.91 255.83, L 334.49 252.28, L 333.07 248.74, L 331.65 245.20, L 330.24 241.65, L 328.82 238.11"
     style="stroke:black;stroke-width:0.71;stroke-linecap:round;fill:none;stroke-dasharray: 5.67 5.67"
     id="path300" />
<!-- Render block 11
 -->  <text
     x="436.91513"
     y="293.293"
     style="font-size:10px;font-weight:normal;text-anchor:middle;fill:#000000;stroke:none;font-family:sanserif"
     id="text302">out2</text>
  <path
     d="M 345.83 280.63, L 349.25 280.46, L 352.68 280.29, L 356.10 280.12, L 359.53 279.95, L 362.96 279.78, L 366.38 279.61, L 369.81 279.44, L 373.23 279.27, L 376.66 279.10, L 380.08 278.93, L 383.51 278.76, L 386.94 278.59, L 390.36 278.42, L 393.79 278.25, L 397.21 278.08, L 400.64 277.91, L 404.06 277.74, L 407.49 277.57, L 410.92 277.40, L 414.34 277.23, L 417.77 277.06, L 421.19 276.89, L 424.62 276.72, L 428.04 276.55, L 431.47 276.38, L 434.90 276.21, L 438.32 276.04, L 441.75 275.87, L 445.17 275.70, L 448.60 275.53, L 452.03 275.36, L 455.45 275.19, L 458.88 275.02, L 462.30 274.85, L 465.73 274.68, L 469.15 274.51, L 472.58 274.34, L 476.01 274.17, L 479.43 274.00, L 482.86 273.83, L 486.28 273.66, L 489.71 273.49, L 493.13 273.32, L 496.56 273.15, L 499.99 272.98, L 503.41 272.81, L 506.84 272.64, L 510.26 272.47, L 513.69 272.30, L 517.11 272.13"
     style="stroke:black;stroke-width:0.71;stroke-linecap:round;fill:none;stroke-dasharray: 5.67 5.67"
     id="path304" />
  <text
     x="-302.01743"
     y="530.22278"
     transform="matrix(0,-1,1,0,0,0)"
     style="font-size:10px;font-weight:normal;text-anchor:middle;fill:#000000;stroke:none;font-family:sanserif"
     id="text306">FIXED_P_OUT</text>
  <path
     d="M 517.11 304.93, L 517.11 299.47, L 517.11 294.00, L 517.11 288.53, L 517.11 283.06, L 517.11 277.59, L 517.11 272.13"
     style="stroke:black;stroke-width:0.71;stroke-linecap:round;fill:none"
     id="path308" />
  <path
     d="M 347.04 304.93, L 350.44 304.93, L 353.84 304.93, L 357.24 304.93, L 360.64 304.93, L 364.04 304.93, L 367.44 304.93, L 370.85 304.93, L 374.25 304.93, L 377.65 304.93, L 381.05 304.93, L 384.45 304.93, L 387.85 304.93, L 391.26 304.93, L 394.66 304.93, L 398.06 304.93, L 401.46 304.93, L 404.86 304.93, L 408.26 304.93, L 411.67 304.93, L 415.07 304.93, L 418.47 304.93, L 421.87 304.93, L 425.27 304.93, L 428.67 304.93, L 432.07 304.93, L 435.48 304.93, L 438.88 304.93, L 442.28 304.93, L 445.68 304.93, L 449.08 304.93, L 452.48 304.93, L 455.89 304.93, L 459.29 304.93, L 462.69 304.93, L 466.09 304.93, L 469.49 304.93, L 472.89 304.93, L 476.30 304.93, L 479.70 304.93, L 483.10 304.93, L 486.50 304.93, L 489.90 304.93, L 493.30 304.93, L 496.70 304.93, L 500.11 304.93, L 503.51 304.93, L 506.91 304.93, L 510.31 304.93, L 513.71 304.93, L 517.11 304.93"
     style="stroke:black;stroke-width:0.71;stroke-linecap:round;fill:none;stroke-dasharray: 5.67 5.67"
     id="path310" />
  <path
     d="M 347.04 304.93, L 346.83 300.88, L 346.63 296.83, L 346.43 292.78, L 346.23 288.73, L 346.03 284.68, L 345.83 280.63"
     style="stroke:black;stroke-width:0.71;stroke-linecap:round;fill:none;stroke-dasharray: 5.67 5.67"
     id="path312" />
<!-- Render block 12
 -->  <text
     x="437.77579"
     y="320.86835"
     style="font-size:10px;font-weight:normal;text-anchor:middle;fill:#000000;stroke:none;font-family:sanserif"
     id="text314">out3</text>
  <path
     d="M 347.04 304.93, L 350.44 304.93, L 353.84 304.93, L 357.24 304.93, L 360.64 304.93, L 364.04 304.93, L 367.44 304.93, L 370.85 304.93, L 374.25 304.93, L 377.65 304.93, L 381.05 304.93, L 384.45 304.93, L 387.85 304.93, L 391.26 304.93, L 394.66 304.93, L 398.06 304.93, L 401.46 304.93, L 404.86 304.93, L 408.26 304.93, L 411.67 304.93, L 415.07 304.93, L 418.47 304.93, L 421.87 304.93, L 425.27 304.93, L 428.67 304.93, L 432.07 304.93, L 435.48 304.93, L 438.88 304.93, L 442.28 304.93, L 445.68 304.93, L 449.08 304.93, L 452.48 304.93, L 455.89 304.93, L 459.29 304.93, L 462.69 304.93, L 466.09 304.93, L 469.49 304.93, L 472.89 304.93, L 476.30 304.93, L 479.70 304.93, L 483.10 304.93, L 486.50 304.93, L 489.90 304.93, L 493.30 304.93, L 496.70 304.93, L 500.11 304.93, L 503.51 304.93, L 506.91 304.93, L 510.31 304.93, L 513.71 304.93, L 517.11 304.93"
     style="stroke:black;stroke-width:0.71;stroke-linecap:round;fill:none;stroke-dasharray: 5.67 5.67"
     id="path316" />
  <path
     d="M 517.11 340.16, L 517.11 334.29, L 517.11 328.42, L 517.11 322.55, L 517.11 316.67, L 517.11 310.80, L 517.11 304.93"
     style="stroke:black;stroke-width:0.71;stroke-linecap:round;fill:none"
     id="path320" />
  <path
     d="M 354.33 323.15, L 357.59 323.49, L 360.84 323.83, L 364.10 324.17, L 367.35 324.51, L 370.61 324.85, L 373.86 325.19, L 377.12 325.53, L 380.38 325.87, L 383.63 326.21, L 386.89 326.55, L 390.14 326.89, L 393.40 327.23, L 396.65 327.57, L 399.91 327.91, L 403.17 328.25, L 406.42 328.59, L 409.68 328.93, L 412.93 329.27, L 416.19 329.61, L 419.44 329.95, L 422.70 330.29, L 425.96 330.63, L 429.21 330.97, L 432.47 331.31, L 435.72 331.65, L 438.98 331.99, L 442.23 332.33, L 445.49 332.67, L 448.75 333.01, L 452.00 333.35, L 455.26 333.69, L 458.51 334.03, L 461.77 334.37, L 465.02 334.71, L 468.28 335.06, L 471.53 335.40, L 474.79 335.74, L 478.05 336.08, L 481.30 336.42, L 484.56 336.76, L 487.81 337.10, L 491.07 337.44, L 494.32 337.78, L 497.58 338.12, L 500.84 338.46, L 504.09 338.80, L 507.35 339.14, L 510.60 339.48, L 513.86 339.82, L 517.11 340.16"
     style="stroke:black;stroke-width:0.71;stroke-linecap:round;fill:none;stroke-dasharray: 5.67 5.67"
     id="path322" />
  <path
     d="M 354.33 323.15, L 353.11 320.11, L 351.90 317.08, L 350.68 314.04, L 349.47 311.01, L 348.25 307.97, L 347.04 304.93"
     style="stroke:black;stroke-width:0.71;stroke-linecap:round;fill:none;stroke-dasharray: 5.67 5.67"
     id="path324" />
<!-- Render block 13
 -->  <text
     x="441.05396"
     y="362.88879"
     style="font-size:10px;font-weight:normal;text-anchor:middle;fill:#000000;stroke:none;font-family:sanserif"
     id="text326">out4</text>
  <path
     d="M 354.33 323.15, L 357.59 323.49, L 360.84 323.83, L 364.10 324.17, L 367.35 324.51, L 370.61 324.85, L 373.86 325.19, L 377.12 325.53, L 380.38 325.87, L 383.63 326.21, L 386.89 326.55, L 390.14 326.89, L 393.40 327.23, L 396.65 327.57, L 399.91 327.91, L 403.17 328.25, L 406.42 328.59, L 409.68 328.93, L 412.93 329.27, L 416.19 329.61, L 419.44 329.95, L 422.70 330.29, L 425.96 330.63, L 429.21 330.97, L 432.47 331.31, L 435.72 331.65, L 438.98 331.99, L 442.23 332.33, L 445.49 332.67, L 448.75 333.01, L 452.00 333.35, L 455.26 333.69, L 458.51 334.03, L 461.77 334.37, L 465.02 334.71, L 468.28 335.06, L 471.53 335.40, L 474.79 335.74, L 478.05 336.08, L 481.30 336.42, L 484.56 336.76, L 487.81 337.10, L 491.07 337.44, L 494.32 337.78, L 497.58 338.12, L 500.84 338.46, L 504.09 338.80, L 507.35 339.14, L 510.60 339.48, L 513.86 339.82, L 517.11 340.16"
     style="stroke:black;stroke-width:0.71;stroke-linecap:round;fill:none;stroke-dasharray: 5.67 5.67"
     id="path328" />
  <path
     d="M 517.11 389.97, L 517.11 385.82, L 517.11 381.67, L 517.11 377.52, L 517.11 373.37, L 517.11 369.22, L 517.11 365.06, L 517.11 360.91, L 517.11 356.76, L 517.11 352.61, L 517.11 348.46, L 517.11 344.31, L 517.11 340.16"
     style="stroke:black;stroke-width:0.71;stroke-linecap:round;fill:none"
     id="path332" />
  <text
     x="440.987"
     y="400.83487"
     style="font-size:10px;font-weight:normal;text-anchor:middle;fill:#000000;stroke:none;font-family:sanserif"
     id="text334">USER_DEFINED</text>
  <path
     d="M 379.84 389.97, L 382.59 389.97, L 385.33 389.97, L 388.08 389.97, L 390.82 389.97, L 393.57 389.97, L 396.32 389.97, L 399.06 389.97, L 401.81 389.97, L 404.55 389.97, L 407.30 389.97, L 410.04 389.97, L 412.79 389.97, L 415.53 389.97, L 418.28 389.97, L 421.02 389.97, L 423.77 389.97, L 426.51 389.97, L 429.26 389.97, L 432.01 389.97, L 434.75 389.97, L 437.50 389.97, L 440.24 389.97, L 442.99 389.97, L 445.73 389.97, L 448.48 389.97, L 451.22 389.97, L 453.97 389.97, L 456.71 389.97, L 459.46 389.97, L 462.21 389.97, L 464.95 389.97, L 467.70 389.97, L 470.44 389.97, L 473.19 389.97, L 475.93 389.97, L 478.68 389.97, L 481.42 389.97, L 484.17 389.97, L 486.91 389.97, L 489.66 389.97, L 492.41 389.97, L 495.15 389.97, L 497.90 389.97, L 500.64 389.97, L 503.39 389.97, L 506.13 389.97, L 508.88 389.97, L 511.62 389.97, L 514.37 389.97, L 517.11 389.97"
     style="stroke:black;stroke-width:0.71;stroke-linecap:round;fill:none"
     id="path336" />
  <path
     d="M 379.84 389.97, L 377.72 384.40, L 375.59 378.84, L 373.46 373.27, L 371.34 367.70, L 369.21 362.13, L 367.09 356.56, L 364.96 350.99, L 362.83 345.42, L 360.71 339.86, L 358.58 334.29, L 356.46 328.72, L 354.33 323.15"
     style="stroke:black;stroke-width:0.71;stroke-linecap:round;fill:none;stroke-dasharray: 5.67 5.67"
     id="path338" />
<!-- end of drawing --></svg>
