<?xml version="1.0" encoding="UTF-8" standalone="no"?>
<svg
   xmlns:dc="http://purl.org/dc/elements/1.1/"
   xmlns:cc="http://creativecommons.org/ns#"
   xmlns:rdf="http://www.w3.org/1999/02/22-rdf-syntax-ns#"
   xmlns:svg="http://www.w3.org/2000/svg"
   xmlns="http://www.w3.org/2000/svg"
   xmlns:sodipodi="http://sodipodi.sourceforge.net/DTD/sodipodi-0.dtd"
   xmlns:inkscape="http://www.inkscape.org/namespaces/inkscape"
   width="566.93"
   height="566.93"
   version="1.0"
   id="svg3252"
   inkscape:version="0.48.4 r9939"
   sodipodi:docname="domain.svg">
  <metadata
     id="metadata3330">
    <rdf:RDF>
      <cc:Work
         rdf:about="">
        <dc:format>image/svg+xml</dc:format>
        <dc:type
           rdf:resource="http://purl.org/dc/dcmitype/StillImage" />
        <dc:title>Shock heated Argon flow over a 12.7mm diameter hemisphere (Rutowski and Bershader, 1964)</dc:title>
      </cc:Work>
    </rdf:RDF>
  </metadata>
  <defs
     id="defs3328">
    <marker
       inkscape:stockid="Arrow1Lend"
       orient="auto"
       refY="0.0"
       refX="0.0"
       id="Arrow1Lend"
       style="overflow:visible;">
      <path
         id="path4118"
         d="M 0.0,0.0 L 5.0,-5.0 L -12.5,0.0 L 5.0,5.0 L 0.0,0.0 z "
         style="fill-rule:evenodd;stroke:#000000;stroke-width:1.0pt;marker-start:none;"
         transform="scale(0.8) rotate(180) translate(12.5,0)" />
    </marker>
    <inkscape:perspective
       sodipodi:type="inkscape:persp3d"
       inkscape:vp_x="0 : 283.465 : 1"
       inkscape:vp_y="0 : 1000 : 0"
       inkscape:vp_z="566.92999 : 283.465 : 1"
       inkscape:persp3d-origin="283.465 : 188.97666 : 1"
       id="perspective3332" />
  </defs>
  <sodipodi:namedview
     pagecolor="#ffffff"
     bordercolor="#666666"
     borderopacity="1"
     objecttolerance="10"
     gridtolerance="10"
     guidetolerance="10"
     inkscape:pageopacity="0"
     inkscape:pageshadow="2"
     inkscape:window-width="1231"
     inkscape:window-height="781"
     id="namedview3326"
     showgrid="false"
     inkscape:zoom="1.1774096"
     inkscape:cx="257.18613"
     inkscape:cy="190.28957"
     inkscape:window-x="49"
     inkscape:window-y="188"
     inkscape:window-maximized="0"
     inkscape:current-layer="svg3252" />
  <title
     id="title3254">Shock heated Argon flow over a 12.7mm diameter hemisphere (Rutowski and Bershader, 1964)</title>
  <desc
     id="desc3256">SVG file written by e3prep.py</desc>
  <!-- drawing begins here -->
  <line
     x1="108.08"
     y1="523.02002"
     x2="242"
     y2="523.02002"
     style="fill:none;stroke:#000000;stroke-width:1.41999996;stroke-linecap:round"
     id="line3258" />
  <text
     x="159.75427"
     y="552.52954"
     style="font-size:10px;font-weight:normal;text-anchor:start;fill:#000000;stroke:none;font-family:sanserif"
     id="text3260">x (cm)</text>
  <line
     x1="108.08"
     y1="523.02002"
     x2="108.08"
     y2="517.34998"
     style="fill:none;stroke:#000000;stroke-width:1.41999996;stroke-linecap:round"
     id="line3262" />
  <text
     x="107.28748"
     y="537.49084"
     style="font-size:10px;font-weight:normal;text-anchor:middle;fill:#000000;stroke:none;font-family:sanserif"
     id="text3264">-2.0</text>
  <line
     x1="141.56"
     y1="523.02002"
     x2="141.56"
     y2="517.34998"
     style="fill:none;stroke:#000000;stroke-width:1.41999996;stroke-linecap:round"
     id="line3266" />
  <text
     x="140.76749"
     y="537.49084"
     style="font-size:10px;font-weight:normal;text-anchor:middle;fill:#000000;stroke:none;font-family:sanserif"
     id="text3268">-1.5</text>
  <line
     x1="175.04001"
     y1="523.02002"
     x2="175.04001"
     y2="517.34998"
     style="fill:none;stroke:#000000;stroke-width:1.41999996;stroke-linecap:round"
     id="line3270" />
  <text
     x="174.24748"
     y="537.49084"
     style="font-size:10px;font-weight:normal;text-anchor:middle;fill:#000000;stroke:none;font-family:sanserif"
     id="text3272">-1.0</text>
  <line
     x1="208.51999"
     y1="523.02002"
     x2="208.51999"
     y2="517.34998"
     style="fill:none;stroke:#000000;stroke-width:1.41999996;stroke-linecap:round"
     id="line3274" />
  <text
     x="207.72748"
     y="537.49084"
     style="font-size:10px;font-weight:normal;text-anchor:middle;fill:#000000;stroke:none;font-family:sanserif"
     id="text3276">-0.5</text>
  <line
     x1="242"
     y1="523.02002"
     x2="242"
     y2="517.34998"
     style="fill:none;stroke:#000000;stroke-width:1.41999996;stroke-linecap:round"
     id="line3278" />
  <text
     x="241.20749"
     y="537.49084"
     style="font-size:10px;font-weight:normal;text-anchor:middle;fill:#000000;stroke:none;font-family:sanserif"
     id="text3280">0</text>
  <line
     x1="87.990013"
     y1="502.92999"
     x2="87.990013"
     y2="235.09"
     style="fill:none;stroke:#000000;stroke-width:1.41999996;stroke-linecap:round"
     id="line3282" />
  <text
     x="-349.05911"
     y="41.908112"
     style="font-size:10px;font-weight:normal;text-anchor:end;fill:#000000;stroke:none;font-family:sanserif"
     id="text3284"
     transform="matrix(0,-1,1,0,0,0)">y (cm)</text>
  <line
     x1="87.990013"
     y1="502.92999"
     x2="93.660004"
     y2="502.92999"
     style="fill:none;stroke:#000000;stroke-width:1.41999996;stroke-linecap:round"
     id="line3286" />
  <text
     x="79.490013"
     y="502.92999"
     style="font-size:10px;font-weight:normal;text-anchor:end;fill:#000000;stroke:none;font-family:sanserif"
     id="text3288">0</text>
  <line
     x1="87.990013"
     y1="435.97"
     x2="93.660004"
     y2="435.97"
     style="fill:none;stroke:#000000;stroke-width:1.41999996;stroke-linecap:round"
     id="line3290" />
  <text
     x="79.490013"
     y="435.97"
     style="font-size:10px;font-weight:normal;text-anchor:end;fill:#000000;stroke:none;font-family:sanserif"
     id="text3292">1.0</text>
  <line
     x1="87.990013"
     y1="369.01001"
     x2="93.660004"
     y2="369.01001"
     style="fill:none;stroke:#000000;stroke-width:1.41999996;stroke-linecap:round"
     id="line3294" />
  <text
     x="79.490013"
     y="369.01001"
     style="font-size:10px;font-weight:normal;text-anchor:end;fill:#000000;stroke:none;font-family:sanserif"
     id="text3296">2.0</text>
  <line
     x1="87.990013"
     y1="302.04999"
     x2="93.660004"
     y2="302.04999"
     style="fill:none;stroke:#000000;stroke-width:1.41999996;stroke-linecap:round"
     id="line3298" />
  <text
     x="79.490013"
     y="302.04999"
     style="font-size:10px;font-weight:normal;text-anchor:end;fill:#000000;stroke:none;font-family:sanserif"
     id="text3300">3.0</text>
  <line
     x1="87.990013"
     y1="235.09"
     x2="93.660004"
     y2="235.09"
     style="fill:none;stroke:#000000;stroke-width:1.41999996;stroke-linecap:round"
     id="line3302" />
  <text
     x="79.490013"
     y="235.09"
     style="font-size:10px;font-weight:normal;text-anchor:end;fill:#000000;stroke:none;font-family:sanserif"
     id="text3304">4.0</text>
  <!-- There are 1 nodes
 -->
  <!-- There are 1 blocks
 -->
  <!-- Render block 0
 -->
  <path
     d="m 241.86,241.83 0.01,4.4 0,4.4 0,4.41 0.01,4.4 0,4.4 0,4.4 0.01,4.4 0,4.4 0,4.4 0.01,4.41 0,4.4 0,4.4 0.01,4.4 0,4.4 0,4.4 0.01,4.41 0,4.4 0,4.4 0.01,4.4 0,4.4 0,4.4 0.01,4.4 0,4.41 0,4.4 0.01,4.4 0,4.4 0.01,4.4 0,4.4 0,4.4 0.01,4.41 0,4.4 0,4.4 0.01,4.4 0,4.4 0,4.4 0.01,4.4 0,4.41 0,4.4 0.01,4.4 0,4.4"
     style="fill:none;stroke:#000000;stroke-width:0.70999998;stroke-linecap:round"
     id="path3312" />
  <path
     d="m 156.96,502.93 0.12,-4.45 0.35,-4.44 0.58,-4.41 0.81,-4.38 1.04,-4.33 1.26,-4.27 1.49,-4.2 1.7,-4.11 1.92,-4.02 2.12,-3.91 2.33,-3.8 2.52,-3.67 2.71,-3.53 2.89,-3.38 3.07,-3.23 3.23,-3.07 3.38,-2.89 3.54,-2.71 3.66,-2.52 3.8,-2.33 3.91,-2.12 4.02,-1.92 4.11,-1.7 4.2,-1.49 4.27,-1.26 4.33,-1.04 4.38,-0.81 4.41,-0.58 4.44,-0.35 4.45,-0.12"
     style="fill:none;stroke:#000000;stroke-width:0.70999998;stroke-linecap:round"
     id="path3316" />
  <path
     d="m 117.33,502.93 0.99,0 0.99,0 0.99,0 0.99,0 1,0 0.99,0 0.99,0 0.99,0 0.99,0 0.99,0 0.99,0 0.99,0 0.99,0 0.99,0 0.99,0 0.99,0 0.99,0 0.99,0 1,0 0.99,0 0.99,0 0.99,0 0.99,0 0.99,0 0.99,0 0.99,0 0.99,0 0.99,0 0.99,0 0.99,0 0.99,0 0.99,0 1,0 0.99,0 0.99,0 0.99,0 0.99,0 0.99,0 0.99,0 0.99,0"
     style="fill:none;stroke:#000000;stroke-width:0.70999998;stroke-linecap:round"
     id="path3320" />
  <path
     d="m 117.33,502.93 0.09,-6.53 0.27,-6.54 0.45,-6.55 0.63,-6.57 0.82,-6.61 1,-6.65 1.19,-6.7 1.39,-6.76 1.59,-6.83 1.8,-6.91 2.02,-7.01 2.24,-7.12 2.48,-7.24 2.74,-7.39 3,-7.55 3.29,-7.74 3.59,-7.95 3.93,-8.18 4.3,-8.45 4.69,-8.76 5.14,-9.09 5.62,-9.49 6.17,-9.93 6.78,-10.43 7.47,-11.01 8.27,-11.66 9.17,-12.43 10.22,-13.31 11.44,-14.34 12.74,-15.37"
     style="fill:none;stroke:#000000;stroke-width:0.70999998;stroke-linecap:round"
     id="path3324" />
  <!-- end of drawing -->
  <text
     xml:space="preserve"
     style="font-size:16px;font-style:normal;font-variant:normal;font-weight:normal;font-stretch:normal;text-align:center;text-anchor:middle;fill:#000000;fill-opacity:1;stroke:none;font-family:Times New Roman;-inkscape-font-specification:'Times New Roman,'"
     x="312.49374"
     y="278.70895"
     id="text3334"><tspan
       sodipodi:role="line"
       id="tspan3336"
       x="312.49374"
       y="278.70895"
       style="font-size:11px;font-style:normal;font-variant:normal;font-weight:normal;font-stretch:normal;text-align:center;text-anchor:middle;font-family:Sans;-inkscape-font-specification:Helvetica">extrapolated</tspan><tspan
       sodipodi:role="line"
       x="312.49374"
       y="292.45895"
       style="font-size:11px;font-style:normal;font-variant:normal;font-weight:normal;font-stretch:normal;text-align:center;text-anchor:middle;font-family:Sans;-inkscape-font-specification:Helvetica"
       id="tspan4572">outflow</tspan></text>
  <path
     style="fill:none;stroke:#000000;stroke-width:0.6;stroke-linecap:butt;stroke-linejoin:miter;stroke-miterlimit:4;stroke-opacity:1;stroke-dasharray:none;marker-end:url(#Arrow1Lend)"
     d="m 355.80916,299.94201 -92.57611,0 -16.98644,16.98644"
     id="path3338"
     sodipodi:nodetypes="ccc" />
  <text
     id="text4560"
     y="433.36642"
     x="308.52136"
     style="font-size:16px;font-style:normal;font-variant:normal;font-weight:normal;font-stretch:normal;text-align:center;text-anchor:middle;fill:#000000;fill-opacity:1;stroke:none;font-family:Times New Roman;-inkscape-font-specification:'Times New Roman,'"
     xml:space="preserve"><tspan
       style="font-size:11px;font-style:normal;font-variant:normal;font-weight:normal;font-stretch:normal;text-align:center;text-anchor:middle;font-family:Sans;-inkscape-font-specification:Helvetica"
       y="433.36642"
       x="310.27234"
       id="tspan4562"
       sodipodi:role="line">Fixed temperature (300K), </tspan><tspan
       style="font-size:11px;font-style:normal;font-variant:normal;font-weight:normal;font-stretch:normal;text-align:center;text-anchor:middle;font-family:Sans;-inkscape-font-specification:Helvetica"
       y="447.11642"
       x="308.52136"
       sodipodi:role="line"
       id="tspan4566">fully catalytic (<tspan
   style="font-style:normal;font-variant:normal;font-weight:normal;font-stretch:normal;font-family:Times New Roman;-inkscape-font-specification:'Times New Roman,'"
   id="tspan4640">α</tspan>=0) wall</tspan></text>
  <path
     id="path4564"
     d="m 379.0151,453.75014 -133.34357,0 -28.87695,-28.02763"
     style="fill:none;stroke:#000000;stroke-width:0.6;stroke-linecap:butt;stroke-linejoin:miter;stroke-miterlimit:4;stroke-opacity:1;stroke-dasharray:none;marker-end:url(#Arrow1Lend)"
     sodipodi:nodetypes="ccc" />
  <text
     id="text4568"
     y="257.47589"
     x="129.8895"
     style="font-size:16px;font-style:normal;font-variant:normal;font-weight:normal;font-stretch:normal;text-align:center;text-anchor:middle;fill:#000000;fill-opacity:1;stroke:none;font-family:Times New Roman;-inkscape-font-specification:'Times New Roman,'"
     xml:space="preserve"><tspan
       style="font-size:12px;font-style:normal;font-variant:normal;font-weight:normal;font-stretch:normal;text-align:center;text-anchor:middle;font-family:Sans;-inkscape-font-specification:Helvetica"
       y="257.47589"
       x="129.8895"
       id="tspan4570"
       sodipodi:role="line">supersonic</tspan><tspan
       style="font-size:12px;font-style:normal;font-variant:normal;font-weight:normal;font-stretch:normal;text-align:center;text-anchor:middle;font-family:Sans;-inkscape-font-specification:Helvetica"
       y="272.47589"
       x="129.8895"
       sodipodi:role="line"
       id="tspan4576">inflow</tspan></text>
  <path
     sodipodi:nodetypes="ccc"
     id="path4574"
     d="m 95.067272,278.70895 74.740348,0 15.28779,33.97288"
     style="fill:none;stroke:#000000;stroke-width:0.60000002;stroke-linecap:butt;stroke-linejoin:miter;stroke-miterlimit:4;stroke-opacity:1;stroke-dasharray:none;marker-end:url(#Arrow1Lend)" />
  <text
     xml:space="preserve"
     style="font-size:16px;font-style:normal;font-variant:normal;font-weight:normal;font-stretch:normal;text-align:center;text-anchor:middle;fill:#000000;fill-opacity:1;stroke:none;font-family:Times New Roman;-inkscape-font-specification:'Times New Roman,'"
     x="250.38425"
     y="471.85968"
     id="text4578"><tspan
       id="tspan4582"
       sodipodi:role="line"
       x="250.38425"
       y="471.85968"
       style="font-size:11px;font-style:normal;font-variant:normal;font-weight:normal;font-stretch:normal;text-align:center;text-anchor:middle;font-family:Sans;-inkscape-font-specification:Helvetica">Axisymmetry axis</tspan><tspan
       sodipodi:role="line"
       x="250.38425"
       y="485.60968"
       style="font-size:11px;font-style:normal;font-variant:normal;font-weight:normal;font-stretch:normal;text-align:center;text-anchor:middle;font-family:Sans;-inkscape-font-specification:Helvetica"
       id="tspan3030">(slip wall)</tspan></text>
  <path
     sodipodi:nodetypes="ccc"
     style="fill:none;stroke:#000000;stroke-width:0.60000002;stroke-linecap:butt;stroke-linejoin:miter;stroke-miterlimit:4;stroke-opacity:1;stroke-dasharray:none;marker-end:url(#Arrow1Lend)"
     d="m 298.7956,490.54471 -107.86391,0 -31.42491,10.19187"
     id="path4584"
     inkscape:connector-curvature="0" />
</svg>
