<?xml version="1.0" encoding="UTF-8" standalone="no"?>
<svg
   xmlns:dc="http://purl.org/dc/elements/1.1/"
   xmlns:cc="http://creativecommons.org/ns#"
   xmlns:rdf="http://www.w3.org/1999/02/22-rdf-syntax-ns#"
   xmlns:svg="http://www.w3.org/2000/svg"
   xmlns="http://www.w3.org/2000/svg"
   xmlns:sodipodi="http://sodipodi.sourceforge.net/DTD/sodipodi-0.dtd"
   xmlns:inkscape="http://www.inkscape.org/namespaces/inkscape"
   width="566.93"
   height="566.93"
   id="svg2"
   sodipodi:version="0.32"
   inkscape:version="0.46"
   sodipodi:docname="cone20.svg"
   inkscape:output_extension="org.inkscape.output.svg.inkscape">
  <metadata
     id="metadata123">
    <rdf:RDF>
      <cc:Work
         rdf:about="">
        <dc:format>image/svg+xml</dc:format>
        <dc:type
           rdf:resource="http://purl.org/dc/dcmitype/StillImage" />
      </cc:Work>
    </rdf:RDF>
  </metadata>
  <defs
     id="defs121">
    <inkscape:perspective
       sodipodi:type="inkscape:persp3d"
       inkscape:vp_x="0 : 283.465 : 1"
       inkscape:vp_y="0 : 1000 : 0"
       inkscape:vp_z="566.92999 : 283.465 : 1"
       inkscape:persp3d-origin="283.465 : 188.97666 : 1"
       id="perspective125" />
  </defs>
  <sodipodi:namedview
     inkscape:window-height="722"
     inkscape:window-width="642"
     inkscape:pageshadow="2"
     inkscape:pageopacity="0.0"
     guidetolerance="10.0"
     gridtolerance="10.0"
     objecttolerance="10.0"
     borderopacity="1.0"
     bordercolor="#666666"
     pagecolor="#ffffff"
     id="base"
     showgrid="false"
     inkscape:zoom="1.2531073"
     inkscape:cx="292.27495"
     inkscape:cy="296.32001"
     inkscape:window-x="5"
     inkscape:window-y="148"
     inkscape:current-layer="svg2" />
  <title
     id="title4">Mach 1.5 flow over a 20 degree cone.</title>
  <desc
     id="desc6">SVG file written by e3prep.py</desc>
<!-- drawing begins here -->  <line
     x1="141.73"
     y1="442.20"
     x2="481.89"
     y2="442.20"
     style="stroke:black;stroke-width:1.42;stroke-linecap:round;fill:none"
     id="line8" />
  <text
     x="311.81"
     y="467.72"
     style="font-size:10;text-anchor:start;fill:black;stroke:none;font-weight:normal;font-family:sanserif"
     id="text10">x</text>
  <line
     x1="141.73"
     y1="442.20"
     x2="141.73"
     y2="436.54"
     style="stroke:black;stroke-width:1.42;stroke-linecap:round;fill:none"
     id="line12" />
  <text
     x="141.73"
     y="456.38"
     style="font-size:10;text-anchor:middle;fill:black;stroke:none;font-weight:normal;font-family:sanserif"
     id="text14">0</text>
  <line
     x1="209.76"
     y1="442.20"
     x2="209.76"
     y2="436.54"
     style="stroke:black;stroke-width:1.42;stroke-linecap:round;fill:none"
     id="line16" />
  <text
     x="209.76"
     y="456.38"
     style="font-size:10;text-anchor:middle;fill:black;stroke:none;font-weight:normal;font-family:sanserif"
     id="text18">0.2</text>
  <line
     x1="277.80"
     y1="442.20"
     x2="277.80"
     y2="436.54"
     style="stroke:black;stroke-width:1.42;stroke-linecap:round;fill:none"
     id="line20" />
  <text
     x="277.80"
     y="456.38"
     style="font-size:10;text-anchor:middle;fill:black;stroke:none;font-weight:normal;font-family:sanserif"
     id="text22">0.4</text>
  <line
     x1="345.83"
     y1="442.20"
     x2="345.83"
     y2="436.54"
     style="stroke:black;stroke-width:1.42;stroke-linecap:round;fill:none"
     id="line24" />
  <text
     x="345.83"
     y="456.38"
     style="font-size:10;text-anchor:middle;fill:black;stroke:none;font-weight:normal;font-family:sanserif"
     id="text26">0.6</text>
  <line
     x1="413.86"
     y1="442.20"
     x2="413.86"
     y2="436.54"
     style="stroke:black;stroke-width:1.42;stroke-linecap:round;fill:none"
     id="line28" />
  <text
     x="413.86"
     y="456.38"
     style="font-size:10;text-anchor:middle;fill:black;stroke:none;font-weight:normal;font-family:sanserif"
     id="text30">0.8</text>
  <line
     x1="481.89"
     y1="442.20"
     x2="481.89"
     y2="436.54"
     style="stroke:black;stroke-width:1.42;stroke-linecap:round;fill:none"
     id="line32" />
  <text
     x="481.89"
     y="456.38"
     style="font-size:10;text-anchor:middle;fill:black;stroke:none;font-weight:normal;font-family:sanserif"
     id="text34">1</text>
  <line
     x1="128.13"
     y1="425.20"
     x2="128.13"
     y2="85.04"
     style="stroke:black;stroke-width:1.42;stroke-linecap:round;fill:none"
     id="line36" />
  <text
     x="105.45"
     y="255.12"
     style="font-size:10;text-anchor:end;fill:black;stroke:none;font-weight:normal;font-family:sanserif"
     id="text38">y</text>
  <line
     x1="128.13"
     y1="425.20"
     x2="133.80"
     y2="425.20"
     style="stroke:black;stroke-width:1.42;stroke-linecap:round;fill:none"
     id="line40" />
  <text
     x="119.62"
     y="425.20"
     style="font-size:10;text-anchor:end;fill:black;stroke:none;font-weight:normal;font-family:sanserif"
     id="text42">0</text>
  <line
     x1="128.13"
     y1="357.17"
     x2="133.80"
     y2="357.17"
     style="stroke:black;stroke-width:1.42;stroke-linecap:round;fill:none"
     id="line44" />
  <text
     x="119.62"
     y="357.17"
     style="font-size:10;text-anchor:end;fill:black;stroke:none;font-weight:normal;font-family:sanserif"
     id="text46">0.2</text>
  <line
     x1="128.13"
     y1="289.13"
     x2="133.80"
     y2="289.13"
     style="stroke:black;stroke-width:1.42;stroke-linecap:round;fill:none"
     id="line48" />
  <text
     x="119.62"
     y="289.13"
     style="font-size:10;text-anchor:end;fill:black;stroke:none;font-weight:normal;font-family:sanserif"
     id="text50">0.4</text>
  <line
     x1="128.13"
     y1="221.10"
     x2="133.80"
     y2="221.10"
     style="stroke:black;stroke-width:1.42;stroke-linecap:round;fill:none"
     id="line52" />
  <text
     x="119.62"
     y="221.10"
     style="font-size:10;text-anchor:end;fill:black;stroke:none;font-weight:normal;font-family:sanserif"
     id="text54">0.6</text>
  <line
     x1="128.13"
     y1="153.07"
     x2="133.80"
     y2="153.07"
     style="stroke:black;stroke-width:1.42;stroke-linecap:round;fill:none"
     id="line56" />
  <text
     x="119.62"
     y="153.07"
     style="font-size:10;text-anchor:end;fill:black;stroke:none;font-weight:normal;font-family:sanserif"
     id="text58">0.8</text>
  <line
     x1="128.13"
     y1="85.04"
     x2="133.80"
     y2="85.04"
     style="stroke:black;stroke-width:1.42;stroke-linecap:round;fill:none"
     id="line60" />
  <text
     x="119.62"
     y="85.04"
     style="font-size:10;text-anchor:end;fill:black;stroke:none;font-weight:normal;font-family:sanserif"
     id="text62">1</text>
<!-- There are 6 nodes
 -->  <circle
     cx="141.73"
     cy="425.20"
     r="2.83"
     style="fill:black"
     id="circle64" />
  <text
     x="141.73"
     y="420.94"
     style="font-size:10;text-anchor:end;fill:black;stroke:none;font-weight:normal;font-family:sanserif"
     id="text66">A</text>
  <circle
     cx="209.76"
     cy="425.20"
     r="2.83"
     style="fill:black"
     id="circle68" />
  <text
     x="209.76"
     y="420.94"
     style="font-size:10;text-anchor:end;fill:black;stroke:none;font-weight:normal;font-family:sanserif"
     id="text70">B</text>
  <circle
     cx="481.89"
     cy="326.15"
     r="2.83"
     style="fill:black"
     id="circle72" />
  <text
     x="481.89"
     y="321.90"
     style="font-size:10;text-anchor:end;fill:black;stroke:none;font-weight:normal;font-family:sanserif"
     id="text74">C</text>
  <circle
     cx="481.89"
     cy="85.04"
     r="2.83"
     style="fill:black"
     id="circle76" />
  <text
     x="481.89"
     y="80.79"
     style="font-size:10;text-anchor:end;fill:black;stroke:none;font-weight:normal;font-family:sanserif"
     id="text78">D</text>
  <circle
     cx="209.76"
     cy="85.04"
     r="2.83"
     style="fill:black"
     id="circle80" />
  <text
     x="209.76"
     y="80.79"
     style="font-size:10;text-anchor:end;fill:black;stroke:none;font-weight:normal;font-family:sanserif"
     id="text82">E</text>
  <circle
     cx="141.73"
     cy="85.04"
     r="2.83"
     style="fill:black"
     id="circle84" />
  <text
     x="141.73"
     y="80.79"
     style="font-size:10;text-anchor:end;fill:black;stroke:none;font-weight:normal;font-family:sanserif"
     id="text86">F</text>
<!-- There are 2 blocks
 --><!-- Render block 0
 -->  <text
     x="175.75"
     y="197.29"
     style="font-size:10;text-anchor:middle;fill:black;stroke:none;font-weight:normal;font-family:sanserif"
     id="text88">BLOCK-0</text>
  <text
     x="175.07077"
     y="94.840385"
     style="font-size:10px;font-weight:normal;text-anchor:middle;fill:#000000;stroke:none;font-family:sanserif"
     id="text90">SLIP_WALL</text>
  <path
     d="M 141.73 85.04, L 148.54 85.04, L 155.34 85.04, L 162.14 85.04, L 168.94 85.04, L 175.75 85.04, L 182.55 85.04, L 189.35 85.04, L 196.16 85.04, L 202.96 85.04, L 209.76 85.04"
     style="stroke:black;stroke-width:0.71;stroke-linecap:round;fill:none"
     id="path92" />
  <path
     d="M 209.76 425.20, L 209.76 416.69, L 209.76 408.19, L 209.76 399.69, L 209.76 391.18, L 209.76 382.68, L 209.76 374.17, L 209.76 365.67, L 209.76 357.17, L 209.76 348.66, L 209.76 340.16, L 209.76 331.65, L 209.76 323.15, L 209.76 314.65, L 209.76 306.14, L 209.76 297.64, L 209.76 289.13, L 209.76 280.63, L 209.76 272.13, L 209.76 263.62, L 209.76 255.12, L 209.76 246.61, L 209.76 238.11, L 209.76 229.61, L 209.76 221.10, L 209.76 212.60, L 209.76 204.09, L 209.76 195.59, L 209.76 187.09, L 209.76 178.58, L 209.76 170.08, L 209.76 161.57, L 209.76 153.07, L 209.76 144.57, L 209.76 136.06, L 209.76 127.56, L 209.76 119.06, L 209.76 110.55, L 209.76 102.05, L 209.76 93.54, L 209.76 85.04"
     style="stroke:black;stroke-width:0.71;stroke-linecap:round;fill:none;stroke-dasharray: 5.67 5.67"
     id="path94" />
  <text
     x="173.43927"
     y="421.23877"
     style="font-size:10px;font-weight:normal;text-anchor:middle;fill:#000000;stroke:none;font-family:sanserif"
     id="text96">SLIP_WALL</text>
  <path
     d="M 141.73 425.20, L 148.54 425.20, L 155.34 425.20, L 162.14 425.20, L 168.94 425.20, L 175.75 425.20, L 182.55 425.20, L 189.35 425.20, L 196.16 425.20, L 202.96 425.20, L 209.76 425.20"
     style="stroke:black;stroke-width:0.71;stroke-linecap:round;fill:none"
     id="path98" />
  <text
     x="-255.12001"
     y="150.61256"
     transform="matrix(0,-1,1,0,0,0)"
     style="font-size:10px;font-weight:normal;text-anchor:middle;fill:#000000;stroke:none;font-family:sanserif"
     id="text100">SUP_IN</text>
  <path
     d="M 141.73 425.20, L 141.73 416.69, L 141.73 408.19, L 141.73 399.69, L 141.73 391.18, L 141.73 382.68, L 141.73 374.17, L 141.73 365.67, L 141.73 357.17, L 141.73 348.66, L 141.73 340.16, L 141.73 331.65, L 141.73 323.15, L 141.73 314.65, L 141.73 306.14, L 141.73 297.64, L 141.73 289.13, L 141.73 280.63, L 141.73 272.13, L 141.73 263.62, L 141.73 255.12, L 141.73 246.61, L 141.73 238.11, L 141.73 229.61, L 141.73 221.10, L 141.73 212.60, L 141.73 204.09, L 141.73 195.59, L 141.73 187.09, L 141.73 178.58, L 141.73 170.08, L 141.73 161.57, L 141.73 153.07, L 141.73 144.57, L 141.73 136.06, L 141.73 127.56, L 141.73 119.06, L 141.73 110.55, L 141.73 102.05, L 141.73 93.54, L 141.73 85.04"
     style="stroke:black;stroke-width:0.71;stroke-linecap:round;fill:none"
     id="path102" />
<!-- Render block 1
 -->  <text
     x="332.08"
     y="185.10"
     style="font-size:10;text-anchor:middle;fill:black;stroke:none;font-weight:normal;font-family:sanserif"
     id="text104">BLOCK-1</text>
  <text
     x="345.82999"
     y="94.549286"
     style="font-size:10px;font-weight:normal;text-anchor:middle;fill:#000000;stroke:none;font-family:sanserif"
     id="text106">SLIP_WALL</text>
  <path
     d="M 209.76 85.04, L 218.83 85.04, L 227.91 85.04, L 236.98 85.04, L 246.05 85.04, L 255.12 85.04, L 264.19 85.04, L 273.26 85.04, L 282.33 85.04, L 291.40 85.04, L 300.47 85.04, L 309.54 85.04, L 318.61 85.04, L 327.69 85.04, L 336.76 85.04, L 345.83 85.04, L 354.90 85.04, L 363.97 85.04, L 373.04 85.04, L 382.11 85.04, L 391.18 85.04, L 400.25 85.04, L 409.32 85.04, L 418.39 85.04, L 427.46 85.04, L 436.54 85.04, L 445.61 85.04, L 454.68 85.04, L 463.75 85.04, L 472.82 85.04, L 481.89 85.04"
     style="stroke:black;stroke-width:0.71;stroke-linecap:round;fill:none"
     id="path108" />
  <text
     x="-205.58998"
     y="477.8067"
     transform="matrix(0,-1,1,0,0,0)"
     style="font-size:10px;font-weight:normal;text-anchor:middle;fill:#000000;stroke:none;font-family:sanserif"
     id="text110">EXTRAPOLATE_OUT</text>
  <path
     d="M 481.89 326.15, L 481.89 320.12, L 481.89 314.09, L 481.89 308.07, L 481.89 302.04, L 481.89 296.01, L 481.89 289.98, L 481.89 283.96, L 481.89 277.93, L 481.89 271.90, L 481.89 265.87, L 481.89 259.84, L 481.89 253.82, L 481.89 247.79, L 481.89 241.76, L 481.89 235.73, L 481.89 229.71, L 481.89 223.68, L 481.89 217.65, L 481.89 211.62, L 481.89 205.59, L 481.89 199.57, L 481.89 193.54, L 481.89 187.51, L 481.89 181.48, L 481.89 175.46, L 481.89 169.43, L 481.89 163.40, L 481.89 157.37, L 481.89 151.34, L 481.89 145.32, L 481.89 139.29, L 481.89 133.26, L 481.89 127.23, L 481.89 121.21, L 481.89 115.18, L 481.89 109.15, L 481.89 103.12, L 481.89 97.09, L 481.89 91.07, L 481.89 85.04"
     style="stroke:black;stroke-width:0.71;stroke-linecap:round;fill:none"
     id="path112" />
  <text
     x="195.94762"
     y="467.7319"
     transform="matrix(0.9396926,-0.3420201,0.3420201,0.9396926,0,0)"
     style="font-size:10px;font-weight:normal;text-anchor:middle;fill:#000000;stroke:none;font-family:sanserif"
     id="text114">SLIP_WALL</text>
  <path
     d="M 209.76 425.20, L 218.83 421.90, L 227.91 418.59, L 236.98 415.29, L 246.05 411.99, L 255.12 408.69, L 264.19 405.39, L 273.26 402.09, L 282.33 398.78, L 291.40 395.48, L 300.47 392.18, L 309.54 388.88, L 318.61 385.58, L 327.69 382.28, L 336.76 378.97, L 345.83 375.67, L 354.90 372.37, L 363.97 369.07, L 373.04 365.77, L 382.11 362.47, L 391.18 359.17, L 400.25 355.86, L 409.32 352.56, L 418.39 349.26, L 427.46 345.96, L 436.54 342.66, L 445.61 339.36, L 454.68 336.05, L 463.75 332.75, L 472.82 329.45, L 481.89 326.15"
     style="stroke:black;stroke-width:0.71;stroke-linecap:round;fill:none"
     id="path116" />
  <path
     d="M 209.76 425.20, L 209.76 416.69, L 209.76 408.19, L 209.76 399.69, L 209.76 391.18, L 209.76 382.68, L 209.76 374.17, L 209.76 365.67, L 209.76 357.17, L 209.76 348.66, L 209.76 340.16, L 209.76 331.65, L 209.76 323.15, L 209.76 314.65, L 209.76 306.14, L 209.76 297.64, L 209.76 289.13, L 209.76 280.63, L 209.76 272.13, L 209.76 263.62, L 209.76 255.12, L 209.76 246.61, L 209.76 238.11, L 209.76 229.61, L 209.76 221.10, L 209.76 212.60, L 209.76 204.09, L 209.76 195.59, L 209.76 187.09, L 209.76 178.58, L 209.76 170.08, L 209.76 161.57, L 209.76 153.07, L 209.76 144.57, L 209.76 136.06, L 209.76 127.56, L 209.76 119.06, L 209.76 110.55, L 209.76 102.05, L 209.76 93.54, L 209.76 85.04"
     style="stroke:black;stroke-width:0.71;stroke-linecap:round;fill:none;stroke-dasharray: 5.67 5.67"
     id="path118" />
<!-- end of drawing --></svg>
